<?xml version="1.0" encoding="utf-8"?>
<!-- Generator: Adobe Illustrator 21.1.0, SVG Export Plug-In . SVG Version: 6.00 Build 0)  -->
<svg version="1.1" id="Layer_1" xmlns="http://www.w3.org/2000/svg" xmlns:xlink="http://www.w3.org/1999/xlink" x="0px" y="0px"
	 viewBox="0 0 460.2 130" style="enable-background:new 0 0 460.2 130;" xml:space="preserve">
<style type="text/css">
	.st0{fill:#55ACEE;}
	.st1{fill:#FFFFFF;}
	.st2{fill:#5F99CF;}
	.st3{fill:#FF4500;}
	.st4{fill:url(#SVGID_1_);}
	.st5{opacity:0.12;enable-background:new    ;}
	.st6{fill:#472A49;}
	.st7{fill:#FFA300;}
	.st8{fill:url(#SVGID_2_);}
	.st9{fill:#70CADB;}
	.st10{fill:#3EB890;}
	.st11{fill:#E01765;}
	.st12{fill:#E8A723;}
	.st13{fill:#1A937D;}
	.st14{fill:#65863A;}
	.st15{fill:#CC2027;}
	.st16{fill:#F00101;}
	.st17{fill:#4799DD;}
	.st18{fill:#8CDB5E;}
	.st19{fill:url(#SVGID_3_);}
	.st20{fill:#C8DAEA;}
	.st21{fill:#A9C6D8;}
	.st22{fill:url(#SVGID_4_);}
</style>
<circle class="st0" cx="296" cy="32" r="30"/>
<path id="light_87_" class="st1" d="M312.5,24.5c-1.1,0.5-2.3,0.8-3.5,1c1.3-0.8,2.2-2,2.7-3.4c-1.2,0.7-2.5,1.2-3.9,1.5
	c-1.1-1.2-2.7-1.9-4.5-1.9c-3.4,0-6.2,2.8-6.2,6.2c0,0.5,0.1,1,0.2,1.4c-5.1-0.3-9.7-2.7-12.7-6.4c-0.5,0.9-0.8,2-0.8,3.1
	c0,2.1,1.1,4,2.7,5.1c-1,0-2-0.3-2.8-0.8v0.1c0,3,2.1,5.5,4.9,6c-0.5,0.1-1.1,0.2-1.6,0.2c-0.4,0-0.8,0-1.2-0.1
	c0.8,2.4,3.1,4.2,5.7,4.3c-2.1,1.7-4.8,2.6-7.6,2.6c-0.5,0-1,0-1.5-0.1c2.7,1.7,6,2.8,9.4,2.8c11.3,0,17.5-9.4,17.5-17.5
	c0-0.3,0-0.5,0-0.8C310.6,26.8,311.7,25.7,312.5,24.5z"/>
<circle class="st2" cx="230" cy="32" r="30"/>
<path id="head_1_" class="st1" d="M246.3,31.8c0-2-1.7-3.7-3.7-3.7c-0.8,0-1.5,0.2-2.1,0.7l-0.4,0.3c-2.4-1.6-5.6-2.5-9.2-2.7l1.9-6
	l5.2,1.2l0,0c0,1.7,1.4,3.1,3.1,3.1c1.7,0,3.1-1.4,3.1-3.1s-1.4-3.1-3.1-3.1c-1.2,0-2.3,0.7-2.8,1.8l-5.7-1.3
	c-0.3-0.1-0.6,0.1-0.7,0.4l-2.2,6.9c-3.7,0.1-7.1,1.1-9.6,2.7l-0.4-0.3c-0.6-0.4-1.4-0.7-2.1-0.7c-2,0-3.7,1.7-3.7,3.7
	c0,1.1,0.5,2.2,1.4,2.9l0.4,0.4c0,0.3-0.1,0.7-0.1,1c0,5.4,6.5,9.7,14.5,9.7s14.5-4.4,14.5-9.7c0-0.3,0-0.7-0.1-1l0.4-0.4
	C245.8,33.9,246.3,32.9,246.3,31.8z M235.2,40.6c-1.1,1.1-2.8,1.6-5.2,1.6s-4.1-0.5-5.2-1.6c-0.2-0.2-0.2-0.6,0-0.9
	c0.1-0.1,0.3-0.2,0.4-0.2c0.2,0,0.3,0.1,0.4,0.2c0.8,0.8,2.3,1.3,4.4,1.3c2.1,0,3.5-0.4,4.4-1.3c0.1-0.1,0.3-0.2,0.4-0.2
	c0.2,0,0.3,0.1,0.4,0.2C235.5,40,235.5,40.4,235.2,40.6z"/>
<circle id="eye_51_" class="st3" cx="234.9" cy="34.2" r="2.3"/>
<circle id="eye_50_" class="st3" cx="225.1" cy="34.2" r="2.2"/>
<linearGradient id="SVGID_1_" gradientUnits="userSpaceOnUse" x1="164" y1="67.89" x2="164" y2="127.89" gradientTransform="matrix(1 0 0 -1 0 129.89)">
	<stop  offset="0" style="stop-color:#BE2126"/>
	<stop  offset="1" style="stop-color:#E32E28"/>
</linearGradient>
<circle class="st4" cx="164" cy="32" r="30"/>
<path id="The_Sharpness_53_" class="st5" d="M160.9,27.5l7.1,4.7l1-0.5L160.9,27.5z"/>
<path class="st1" d="M178.7,26c0,0-0.3-2.1-1.2-3c-1.1-1.2-2.4-1.2-3-1.3c-4.2-0.3-10.5-0.3-10.5-0.3l0,0c0,0-6.3,0-10.5,0.3
	c-0.6,0.1-1.9,0.1-3,1.3c-0.9,0.9-1.2,3-1.2,3s-0.3,2.4-0.3,4.9v2.3c0,2.4,0.3,4.9,0.3,4.9s0.3,2.1,1.2,3c1.1,1.2,2.6,1.2,3.3,1.3
	c2.4,0.2,10.2,0.3,10.2,0.3s6.3,0,10.5-0.3c0.6-0.1,1.9-0.1,3-1.3c0.9-0.9,1.2-3,1.2-3s0.3-2.4,0.3-4.9v-2.3
	C179,28.4,178.7,26,178.7,26z M160.9,35.9v-8.4l8.1,4.2L160.9,35.9z"/>
<circle class="st6" cx="98" cy="32" r="30"/>
<rect x="95.9" y="29.9" transform="matrix(0.9482 -0.3176 0.3176 0.9482 -5.0757 32.7748)" class="st1" width="4.2" height="4.1"/>
<rect x="95.9" y="29.9" transform="matrix(0.9482 -0.3176 0.3176 0.9482 -5.0757 32.7749)" class="st1" width="4.2" height="4.1"/>
<path class="st1" d="M111.7,27.9c-3.1-10.3-7.6-12.7-17.9-9.6s-12.7,7.6-9.6,17.9s7.6,12.7,17.9,9.6
	C112.4,42.7,114.8,38.2,111.7,27.9z M106.5,34.6l-1.9,0.7l0.7,2c0.3,0.8-0.2,1.7-1,2c-0.2,0.1-0.4,0.1-0.5,0.1
	c-0.6,0-1.2-0.4-1.4-1.1l-0.7-2l-4,1.3l0.7,2c0.3,0.8-0.2,1.7-1,2c-0.2,0.1-0.4,0.1-0.5,0.1c-0.6,0-1.2-0.4-1.4-1.1l-0.7-2l-1.9,0.7
	c-0.2,0.1-0.4,0.1-0.5,0.1c-0.6,0-1.2-0.4-1.4-1.1c-0.3-0.8,0.2-1.7,1-2l1.9-0.7l-1.3-3.9l-1.9,0.7c-0.2,0.1-0.4,0.1-0.5,0.1
	c-0.6,0-1.2-0.4-1.4-1.1c-0.3-0.8,0.2-1.7,1-2l1.9-0.7l-0.7-2c-0.3-0.8,0.2-1.7,1-2s1.7,0.2,2,1l0.7,2l4-1.3l-0.7-2
	c-0.3-0.8,0.2-1.7,1-2s1.7,0.2,2,1l0.7,2l1.9-0.7c0.8-0.3,1.7,0.2,2,1s-0.2,1.7-1,2l-1.9,0.7l1.3,3.9l1.9-0.7c0.8-0.3,1.7,0.2,2,1
	C107.8,33.4,107.3,34.3,106.5,34.6z"/>
<circle id="XMLID_11_" class="st7" cx="32" cy="32" r="30"/>
<path class="st1" d="M28.8,38.7c0,1.5,1.2,2.7,2.7,2.7H42l4.9,2.2V30.4c0-1.5-1.2-2.7-2.7-2.7H31.6c-1.5,0-2.7,1.2-2.7,2.7v8.3H28.8
	z"/>
<path class="st1" d="M27,30.4c0-2.5,2.1-4.6,4.6-4.6h3.6V23c0-1.5-1.2-2.7-2.7-2.7H19.7c-1.5,0-2.7,1.2-2.7,2.7v13.3l4.9-2.2h5v-3.7
	H27z"/>
<linearGradient id="SVGID_2_" gradientUnits="userSpaceOnUse" x1="164" y1="1.89" x2="164" y2="61.89" gradientTransform="matrix(1 0 0 -1 0 129.89)">
	<stop  offset="0" style="stop-color:#BE2126"/>
	<stop  offset="1" style="stop-color:#E32E28"/>
</linearGradient>
<path class="st8" d="M164,68c-16.6,0-30,13.4-30,30s13.4,30,30,30s30-13.4,30-30S180.6,68,164,68z M164,125.3
	c-15.1,0-27.3-12.2-27.3-27.3s12.2-27.3,27.3-27.3s27.3,12.2,27.3,27.3S179.1,125.3,164,125.3z"/>
<path id="The_Sharpness_51_" class="st5" d="M160.9,93.5l7.1,4.7l1-0.5L160.9,93.5z"/>
<path class="st1" d="M178.7,92c0,0-0.3-2.1-1.2-3c-1.1-1.2-2.4-1.2-3-1.3c-4.2-0.3-10.5-0.3-10.5-0.3l0,0c0,0-6.3,0-10.5,0.3
	c-0.6,0.1-1.9,0.1-3,1.3c-0.9,0.9-1.2,3-1.2,3s-0.3,2.4-0.3,4.9v2.3c0,2.4,0.3,4.9,0.3,4.9s0.3,2.1,1.2,3c1.1,1.2,2.6,1.2,3.3,1.3
	c2.4,0.2,10.2,0.3,10.2,0.3s6.3,0,10.5-0.3c0.6-0.1,1.9-0.1,3-1.3c0.9-0.9,1.2-3,1.2-3s0.3-2.4,0.3-4.9v-2.3
	C179,94.4,178.7,92,178.7,92z M160.9,101.9v-8.4l8.1,4.2L160.9,101.9z"/>
<path class="st2" d="M230,68c-16.6,0-30,13.4-30,30s13.4,30,30,30s30-13.4,30-30S246.6,68,230,68z M230,125.3
	c-15.1,0-27.3-12.2-27.3-27.3s12.2-27.3,27.3-27.3s27.3,12.2,27.3,27.3S245.1,125.3,230,125.3z"/>
<path id="head" class="st1" d="M246.3,97.8c0-2-1.7-3.7-3.7-3.7c-0.8,0-1.5,0.2-2.1,0.7l-0.4,0.3c-2.4-1.6-5.6-2.5-9.2-2.7l1.9-6
	l5.2,1.2l0,0c0,1.7,1.4,3.1,3.1,3.1c1.7,0,3.1-1.4,3.1-3.1s-1.4-3.1-3.1-3.1c-1.2,0-2.3,0.7-2.8,1.8l-5.7-1.3
	c-0.3-0.1-0.6,0.1-0.7,0.4l-2.2,6.9c-3.7,0.1-7.1,1.1-9.6,2.7l-0.4-0.3c-0.6-0.4-1.4-0.7-2.1-0.7c-2,0-3.7,1.7-3.7,3.7
	c0,1.1,0.5,2.2,1.4,2.9l0.4,0.4c0,0.3-0.1,0.7-0.1,1c0,5.4,6.5,9.7,14.5,9.7s14.5-4.4,14.5-9.7c0-0.3,0-0.7-0.1-1l0.4-0.4
	C245.8,99.9,246.3,98.9,246.3,97.8z M235.2,106.6c-1.1,1.1-2.8,1.6-5.2,1.6s-4.1-0.5-5.2-1.6c-0.2-0.2-0.2-0.6,0-0.9
	c0.1-0.1,0.3-0.2,0.4-0.2c0.2,0,0.3,0.1,0.4,0.2c0.8,0.8,2.3,1.3,4.4,1.3c2.1,0,3.5-0.4,4.4-1.3c0.1-0.1,0.3-0.2,0.4-0.2
	c0.2,0,0.3,0.1,0.4,0.2C235.5,106,235.5,106.4,235.2,106.6z"/>
<circle id="eye_49_" class="st3" cx="234.9" cy="100.2" r="2.3"/>
<circle id="eye_48_" class="st3" cx="225.1" cy="100.2" r="2.2"/>
<path class="st9" d="M98,68c-15.9,0-28.8,12.3-29.9,27.9c0.9-0.3,1.8-0.6,2.8-0.9c1.5-13.7,13-24.3,27.1-24.3c8,0,15.2,3.4,20.2,8.9
	c0.9-0.3,1.9-0.6,2.8-0.9C115.5,72.2,107.2,68,98,68z"/>
<path class="st10" d="M95,125.2c-13.7-1.5-24.3-13.1-24.3-27.2c0-8,3.4-15.2,8.9-20.2c-0.3-0.9-0.6-1.9-0.9-2.8
	C72.2,80.6,68,88.8,68,98c0,15.9,12.3,28.8,27.9,29.9C95.6,127,95.3,126.1,95,125.2z"/>
<path class="st11" d="M98,128c15.9,0,28.8-12.3,29.9-27.9l-2.8,0.9c-1.5,13.7-13.1,24.3-27.2,24.3c-8,0-15.2-3.4-20.2-8.9l-2.8,0.9
	C80.6,123.8,88.8,128,98,128z"/>
<path class="st12" d="M100.1,68.1l0.9,2.8c13.7,1.5,24.3,13.1,24.3,27.2c0,8-3.4,15.2-8.9,20.2l0.9,2.8c6.5-5.5,10.7-13.7,10.7-22.9
	C128,82.1,115.7,69.2,100.1,68.1z"/>
<path class="st11" d="M98,128c15.9,0,28.8-12.3,29.9-27.9l-2.8,0.9c-1.5,13.7-13.1,24.3-27.2,24.3c-8,0-15.2-3.4-20.2-8.9l-2.8,0.9
	C80.6,123.8,88.8,128,98,128z"/>
<path class="st10" d="M95,125.2c-13.7-1.5-24.3-13.1-24.3-27.2c0-8,3.4-15.2,8.9-20.2c-0.3-0.9-0.6-1.9-0.9-2.8
	C72.2,80.6,68,88.8,68,98c0,15.9,12.3,28.8,27.9,29.9C95.6,127,95.3,126.1,95,125.2z"/>
<path class="st12" d="M100.1,68.1l0.9,2.8c13.7,1.5,24.3,13.1,24.3,27.2c0,8-3.4,15.2-8.9,20.2l0.9,2.8c6.5-5.5,10.7-13.7,10.7-22.9
	C128,82.1,115.7,69.2,100.1,68.1z"/>
<path class="st13" d="M68.1,95.9c0.9-0.3,1.8-0.6,2.8-0.9c0.7-6.8,4-12.8,8.7-17.2c-0.3-1-0.6-1.9-0.9-2.8
	C72.7,80.1,68.7,87.5,68.1,95.9z"/>
<path class="st14" d="M100.1,68.1l0.9,2.8c6.8,0.7,12.8,4,17.2,8.7c1-0.3,1.9-0.6,2.8-0.9C115.9,72.7,108.5,68.7,100.1,68.1z"/>
<path class="st15" d="M127.9,100.1l-2.8,0.9c-0.7,6.8-4,12.8-8.7,17.2l0.9,2.8C123.3,115.9,127.3,108.5,127.9,100.1z"/>
<path class="st6" d="M95.9,127.9c-0.3-0.9-0.6-1.8-0.9-2.8c-6.8-0.7-12.8-4-17.2-8.7l-2.8,0.9C80.1,123.3,87.5,127.3,95.9,127.9z"/>
<path class="st13" d="M68.1,95.9c0.9-0.3,1.8-0.6,2.8-0.9c0.7-6.8,4-12.8,8.7-17.2c-0.3-1-0.6-1.9-0.9-2.8
	C72.7,80.1,68.7,87.5,68.1,95.9z"/>
<path class="st14" d="M100.1,68.1l0.9,2.8c6.8,0.7,12.8,4,17.2,8.7c1-0.3,1.9-0.6,2.8-0.9C115.9,72.7,108.5,68.7,100.1,68.1z"/>
<path class="st15" d="M127.9,100.1l-2.8,0.9c-0.7,6.8-4,12.8-8.7,17.2l0.9,2.8C123.3,115.9,127.3,108.5,127.9,100.1z"/>
<path class="st6" d="M95.9,127.9c-0.3-0.9-0.6-1.8-0.9-2.8c-6.8-0.7-12.8-4-17.2-8.7l-2.8,0.9C80.1,123.3,87.5,127.3,95.9,127.9z"/>
<rect x="95.9" y="95.9" transform="matrix(0.9482 -0.3176 0.3176 0.9482 -26.0381 36.1917)" class="st1" width="4.2" height="4.1"/>
<rect x="95.9" y="95.9" transform="matrix(0.9482 -0.3176 0.3176 0.9482 -26.0381 36.1917)" class="st1" width="4.2" height="4.1"/>
<path class="st1" d="M111.7,93.9c-3.1-10.3-7.6-12.7-17.9-9.6s-12.7,7.6-9.6,17.9s7.6,12.7,17.9,9.6
	C112.4,108.7,114.8,104.2,111.7,93.9z M106.5,100.6l-1.9,0.7l0.7,2c0.3,0.8-0.2,1.7-1,2c-0.2,0.1-0.4,0.1-0.5,0.1
	c-0.6,0-1.2-0.4-1.4-1.1l-0.7-2l-4,1.3l0.7,2c0.3,0.8-0.2,1.7-1,2c-0.2,0.1-0.4,0.1-0.5,0.1c-0.6,0-1.2-0.4-1.4-1.1l-0.7-2l-1.9,0.7
	c-0.2,0.1-0.4,0.1-0.5,0.1c-0.6,0-1.2-0.4-1.4-1.1c-0.3-0.8,0.2-1.7,1-2l1.9-0.7l-1.3-3.9l-1.9,0.7c-0.2,0.1-0.4,0.1-0.5,0.1
	c-0.6,0-1.2-0.4-1.4-1.1c-0.3-0.8,0.2-1.7,1-2l1.9-0.7l-0.7-2c-0.3-0.8,0.2-1.7,1-2s1.7,0.2,2,1l0.7,2l4-1.3l-0.7-2
	c-0.3-0.8,0.2-1.7,1-2s1.7,0.2,2,1l0.7,2l1.9-0.7c0.8-0.3,1.7,0.2,2,1s-0.2,1.7-1,2l-1.9,0.7l1.3,3.9l1.9-0.7c0.8-0.3,1.7,0.2,2,1
	C107.8,99.4,107.3,100.3,106.5,100.6z"/>
<path class="st0" d="M296,68c-16.6,0-30,13.4-30,30s13.4,30,30,30s30-13.4,30-30S312.6,68,296,68z M296,125.3
	c-15.1,0-27.3-12.2-27.3-27.3s12.2-27.3,27.3-27.3c15.1,0,27.3,12.2,27.3,27.3S311.1,125.3,296,125.3z"/>
<path id="light_84_" class="st1" d="M312.5,90.5c-1.1,0.5-2.3,0.8-3.5,1c1.3-0.8,2.2-2,2.7-3.4c-1.2,0.7-2.5,1.2-3.9,1.5
	c-1.1-1.2-2.7-1.9-4.5-1.9c-3.4,0-6.2,2.8-6.2,6.2c0,0.5,0.1,1,0.2,1.4c-5.1-0.3-9.7-2.7-12.7-6.4c-0.5,0.9-0.8,2-0.8,3.1
	c0,2.1,1.1,4,2.7,5.1c-1,0-2-0.3-2.8-0.8v0.1c0,3,2.1,5.5,4.9,6c-0.5,0.1-1.1,0.2-1.6,0.2c-0.4,0-0.8,0-1.2-0.1
	c0.8,2.4,3.1,4.2,5.7,4.3c-2.1,1.7-4.8,2.6-7.6,2.6c-0.5,0-1,0-1.5-0.1c2.7,1.7,6,2.8,9.4,2.8c11.3,0,17.5-9.4,17.5-17.5
	c0-0.3,0-0.5,0-0.8C310.6,92.8,311.7,91.7,312.5,90.5z"/>
<path class="st16" d="M362,68c-16.6,0-30,13.4-30,30s13.4,30,30,30s30-13.4,30-30S378.6,68,362,68z M362,125.3
	c-15.1,0-27.3-12.2-27.3-27.3s12.2-27.3,27.3-27.3c15.1,0,27.3,12.2,27.3,27.3S377.1,125.3,362,125.3z"/>
<path class="st17" d="M32,70.7c5,0,9.6,1.3,13.7,3.7L47,72c-4.4-2.6-9.5-4-15-4C15.4,68,2,81.4,2,98h2.7C4.7,82.9,16.9,70.7,32,70.7
	z"/>
<path class="st7" d="M62,98c0-11.1-6-20.8-15-26l-1.3,2.3C53.9,79,59.4,87.8,59.4,98c0,10.1-5.5,18.9-13.7,23.7L47,124
	C56,118.8,62,109.1,62,98z"/>
<path class="st18" d="M32,128c5.5,0,10.6-1.5,15-4l-1.3-2.3c-4,2.3-8.7,3.7-13.7,3.7c-15.1,0-27.3-12.2-27.3-27.3H2l0,0
	C2,114.6,15.4,128,32,128z"/>
<path class="st1" d="M44.3,93.7H31.6c-1.5,0-2.7,1.2-2.7,2.7v8.3c0,1.5,1.2,2.7,2.7,2.7h10.5l4.9,2.2V96.4
	C47,94.9,45.8,93.7,44.3,93.7z"/>
<path class="st1" d="M35.2,91.8V89c0-1.5-1.2-2.7-2.7-2.7H19.7c-1.5,0-2.7,1.2-2.7,2.7v13.3l4.9-2.2h5v-3.6c0-2.5,2.1-4.6,4.6-4.6
	h3.7V91.8z"/>
<circle class="st16" cx="362" cy="32" r="30"/>
<path class="st1" d="M377.6,22.7c-0.2-0.5-0.7-0.9-1.2-1.1l-0.4-0.1h-14h-14.1l-0.4,0.1c-0.4,0.2-0.9,0.6-1.1,1.1l-0.2,0.3v9v9
	l0.2,0.3c0.2,0.4,0.7,0.9,1.1,1.1c0.3,0.1,0.5,0.1,14.4,0.1H376l0.4-0.1c0.4-0.2,0.9-0.6,1.2-1.1l0.1-0.3v-9v-9L377.6,22.7z
	 M377.4,33.4v6.3H362h-15.4v-6.3v-6.3H362h15.4V33.4z"/>
<g>
	<path class="st1" d="M355.5,34.9c0-0.1,0-0.2-0.1-0.4s-0.2-0.6-0.2-0.9c-0.3-1.4-0.4-1.9-0.7-2.9c-0.1-0.5-0.2-0.5-0.9-0.6
		c-0.6,0-0.6,0-0.7,0.1c-0.3,0.4-0.7,1.9-0.8,2.8l-0.1,0.6l-0.6-1.1c-0.3-0.6-0.6-1.2-0.7-1.3c-0.1-0.2-0.7-0.2-1.1-0.1l-0.3,0.1
		v1.1c0,1.1,0,1.5,0.1,2.8c0.1,0.8,0.2,0.9,0.5,0.9s1-0.2,1-0.4c0,0,0-0.4-0.1-0.7c0-0.4-0.1-0.6-0.1-0.7c0,0,0.2,0.3,0.4,0.7
		c0.2,0.4,0.5,0.8,0.6,0.9l0.1,0.2l0.6-0.1l0.6-0.1l0.1-0.3c0-0.2,0.1-0.9,0.1-1.6c0-0.7,0.1-1.3,0.1-1.3s0.2,0.4,0.3,1
		c0.1,0.5,0.4,1.5,0.6,2c0.1,0.2,0.2,0.4,0.2,0.5s0,0.2,0,0.2c0,0.1,0.1,0.1,0.1,0.1c0.2,0,0.9-0.2,0.9-0.2s0.1-0.1,0.1,0
		c0.1,0.1,0-0.1-0.1-0.6C355.6,35.3,355.5,35,355.5,34.9z"/>
	<path class="st1" d="M358.5,35.6c-0.1,0.1-0.3,0.1-0.5,0.1c-0.3,0-0.3,0-0.5-0.1c-0.3-0.3-0.5-0.6-0.5-1.2c0-0.3,0-0.5,0-0.5
		s0.2,0,0.3,0c0.5,0.1,1.4,0.1,1.5,0c0.2-0.3,0.1-2.5-0.1-2.9c-0.1-0.2-0.2-0.2-0.5-0.3c-0.8-0.2-0.8-0.2-1.2,0.1
		c-0.6,0.4-1,0.8-1.1,1.4c-0.2,0.6-0.2,1-0.2,2c0,1.1,0.1,1.3,0.6,1.6c0.4,0.3,0.6,0.4,0.9,0.5c0.5,0.1,1.5,0,2.1-0.2l0.3-0.1
		l-0.1-0.2C359.4,35.6,358.8,35.5,358.5,35.6z M357.2,32.9c0.1-0.3,0.3-0.9,0.4-0.9c0,0,0.1,0.3,0.1,0.7c0,0.7,0,0.7-0.4,0.6
		C357.2,33.1,357.2,33.1,357.2,32.9z"/>
	<path class="st1" d="M366.1,33.1c-0.3-0.3-0.5-0.4-0.6-0.4s-0.2,0-0.2,0.2c0,0.1,0,0.2-0.1,0.2s-0.1,0-0.1-0.2
		c0.1-0.2,0.1-0.1,0-2.4c0-1-0.1-1.8-0.1-1.8c-0.1-0.1-0.7-0.4-0.9-0.4c-0.2,0-0.3,0-0.3,0.2c-0.2,0.4-0.1,1.8,0.1,3.8
		c0,0.3,0.1,0.6,0.1,0.7v0.3h-0.4c-0.5-0.1-0.7,0.1-0.7,0.3c0,0.3,0.1,0.3,0.7,0.4c0.3,0,0.5,0.1,0.5,0.1s0.1,0.6,0.1,1.3l0.1,1.2
		h0.3c0.6,0,0.6,0,0.5-1.3v-1.2h0.3c0.9-0.1,1.2-0.2,1.2-0.3C366.6,33.6,366.4,33.3,366.1,33.1z"/>
	<path class="st1" d="M363,35.4c-0.3-0.2-0.4-0.2-0.5,0c-0.2,0.3-0.9,0.4-1.3,0.2c-0.3-0.1-0.6-0.7-0.6-1c0-0.4,0-0.4,0.6-0.3
		c0.4,0.1,0.5,0.1,0.8,0l0.4-0.1v-0.9c0-0.5,0-0.9,0.1-0.9c0,0,0.1-0.4,0.1-0.8c0-0.7,0-0.7-0.1-0.9c-0.1-0.1-0.2-0.1-0.2-0.1
		s-0.2-0.1-0.4-0.1c-0.2-0.1-0.4-0.1-0.5-0.1c-0.2,0-0.3,0.1-0.6,0.4c-0.7,0.7-0.8,1-1.2,2.4c-0.1,0.5-0.1,0.7-0.1,1.1
		c0,0.5,0.1,0.6,0.3,1c0.4,0.6,0.7,0.8,1.7,0.9c0.6,0.1,1,0,1.6-0.3C363.3,35.8,363.3,35.6,363,35.4z M361.2,32
		c0.1-0.2,0.1-0.2,0.1,0.5c0,0.4,0,0.8,0,0.9c0,0.1-0.1,0.1-0.2,0.1c-0.2,0-0.3-0.1-0.3-0.2C360.8,33.3,361.1,32.3,361.2,32z"/>
	<path class="st1" d="M369.9,32.5c-0.8-0.4-0.8-0.3-0.8,0.8c0,0.4,0,0.9-0.1,1.1c-0.1,0.3-0.6,1.2-0.8,1.2c-0.1,0-0.1-0.2-0.2-1.6
		c-0.1-1.3,0-1.3-0.6-1.6c-0.3-0.1-0.7-0.2-0.7-0.1c-0.1,0.1-0.1,0.5,0,1.2c0.1,1.4,0.4,2.3,0.7,2.6c0.2,0.1,0.9,0.1,1.3,0
		c0.2-0.1,0.9-0.7,0.9-0.8c0,0,0,0-0.1,0c-0.1,0.1-0.1,0.1,0,0c0-0.1,0.1-0.1,0.1-0.1s0.2-0.1,0.2-0.3c0.1-0.2,0.2-0.3,0.3-0.4
		c0.2-0.2,0.3-0.4,0.4-1.1C370.5,32.7,370.5,32.7,369.9,32.5z"/>
	<path class="st1" d="M374.7,32.2c-0.1-0.5-0.3-1.1-0.5-1.2c-0.1,0-0.2-0.1-0.3-0.1c-0.5-0.2-0.8-0.3-1-0.3c-0.4,0-1.3,0.7-1.6,1.3
		c-0.3,0.5-0.6,1.6-0.6,2.3c0,0.5-0.1,0.8-0.2,0.8c-0.3,0-0.3,0.3-0.1,0.6c0.2,0.2,0.2,0.2,0.2,0.8c0.1,1.1,0.3,2.3,0.4,2.4
		c0.1,0.1,1,0,1.1,0c0,0,0-0.2-0.1-0.3c-0.1-0.4-0.2-1.1-0.2-1.9V36l0.3-0.1c0.7-0.2,2-1.4,2.3-2.1
		C374.6,33.3,374.7,32.7,374.7,32.2z M373.1,33.6c-0.1,0.2-0.4,0.5-0.7,0.8c-0.3,0.3-0.5,0.5-0.5,0.5c-0.1,0,0-0.1,0.1-0.9
		c0.2-0.9,0.5-1.5,0.9-2c0.3-0.3,0.3-0.3,0.4,0.3C373.4,32.5,373.3,33.2,373.1,33.6z"/>
</g>
<path class="st1" d="M377.6,88.7c-0.2-0.5-0.7-0.9-1.2-1.1l-0.4-0.1h-14h-14.1l-0.4,0.1c-0.4,0.2-0.9,0.6-1.1,1.1l-0.2,0.3v9v9
	l0.2,0.3c0.2,0.4,0.7,0.9,1.1,1.1c0.3,0.1,0.5,0.1,14.4,0.1H376l0.4-0.1c0.4-0.2,0.9-0.6,1.2-1.1l0.1-0.3v-9v-9L377.6,88.7z
	 M377.4,99.4v6.3H362h-15.4v-6.3v-6.3H362h15.4V99.4z"/>
<g>
	<path class="st1" d="M355.5,100.9c0-0.1,0-0.2-0.1-0.4c-0.1-0.2-0.2-0.6-0.2-0.9c-0.3-1.4-0.4-1.9-0.7-2.9
		c-0.1-0.5-0.2-0.5-0.9-0.6c-0.6,0-0.6,0-0.7,0.1c-0.3,0.4-0.7,1.9-0.8,2.8l-0.1,0.6l-0.6-1.1c-0.3-0.6-0.6-1.2-0.7-1.3
		c-0.1-0.2-0.7-0.2-1.1-0.1l-0.3,0.1v1.1c0,1.1,0,1.5,0.1,2.8c0.1,0.8,0.2,0.9,0.5,0.9s1-0.2,1-0.4c0,0,0-0.4-0.1-0.7
		c0-0.4-0.1-0.6-0.1-0.7c0,0,0.2,0.3,0.4,0.7c0.2,0.4,0.5,0.8,0.6,0.9l0.1,0.2l0.6-0.1l0.6-0.1l0.1-0.3c0-0.2,0.1-0.9,0.1-1.6
		s0.1-1.3,0.1-1.3s0.2,0.4,0.3,1c0.1,0.5,0.4,1.5,0.6,2c0.1,0.2,0.2,0.4,0.2,0.5s0,0.2,0,0.2c0,0.1,0.1,0.1,0.1,0.1
		c0.2,0,0.9-0.2,0.9-0.2s0.1-0.1,0.1,0c0.1,0.1,0-0.1-0.1-0.6C355.6,101.3,355.5,101,355.5,100.9z"/>
	<path class="st1" d="M358.5,101.6c-0.1,0.1-0.3,0.1-0.5,0.1c-0.3,0-0.3,0-0.5-0.1c-0.3-0.3-0.5-0.6-0.5-1.2c0-0.3,0-0.5,0-0.5
		s0.2,0,0.3,0c0.5,0.1,1.4,0.1,1.5,0c0.2-0.3,0.1-2.5-0.1-2.9c-0.1-0.2-0.2-0.2-0.5-0.3c-0.8-0.2-0.8-0.2-1.2,0.1
		c-0.6,0.4-1,0.8-1.1,1.4c-0.2,0.6-0.2,1-0.2,2c0,1.1,0.1,1.3,0.6,1.6c0.4,0.3,0.6,0.4,0.9,0.5c0.5,0.1,1.5,0,2.1-0.2l0.3-0.1
		l-0.1-0.2C359.4,101.6,358.8,101.5,358.5,101.6z M357.2,98.9c0.1-0.3,0.3-0.9,0.4-0.9c0,0,0.1,0.3,0.1,0.7c0,0.7,0,0.7-0.4,0.6
		C357.2,99.1,357.2,99.1,357.2,98.9z"/>
	<path class="st1" d="M366.1,99.1c-0.3-0.3-0.5-0.4-0.6-0.4s-0.2,0-0.2,0.2c0,0.1,0,0.2-0.1,0.2s-0.1,0-0.1-0.2
		c0.1-0.2,0.1-0.1,0-2.4c0-1-0.1-1.8-0.1-1.8c-0.1-0.1-0.7-0.4-0.9-0.4c-0.2,0-0.3,0-0.3,0.2c-0.2,0.4-0.1,1.8,0.1,3.8
		c0,0.3,0.1,0.6,0.1,0.7v0.3h-0.4c-0.5-0.1-0.7,0.1-0.7,0.3c0,0.3,0.1,0.3,0.7,0.4c0.3,0,0.5,0.1,0.5,0.1s0.1,0.6,0.1,1.3l0.1,1.2
		h0.3c0.6,0,0.6,0,0.5-1.3v-1.2h0.3c0.9-0.1,1.2-0.2,1.2-0.3C366.6,99.6,366.4,99.3,366.1,99.1z"/>
	<path class="st1" d="M363,101.4c-0.3-0.2-0.4-0.2-0.5,0c-0.2,0.3-0.9,0.4-1.3,0.2c-0.3-0.1-0.6-0.7-0.6-1c0-0.4,0-0.4,0.6-0.3
		c0.4,0.1,0.5,0.1,0.8,0l0.4-0.1v-0.9c0-0.5,0-0.9,0.1-0.9c0,0,0.1-0.4,0.1-0.8c0-0.7,0-0.7-0.1-0.9c-0.1-0.1-0.2-0.1-0.2-0.1
		s-0.2-0.1-0.4-0.1c-0.2-0.1-0.4-0.1-0.5-0.1c-0.2,0-0.3,0.1-0.6,0.4c-0.7,0.7-0.8,1-1.2,2.4c-0.1,0.5-0.1,0.7-0.1,1.1
		c0,0.5,0.1,0.6,0.3,1c0.4,0.6,0.7,0.8,1.7,0.9c0.6,0.1,1,0,1.6-0.3C363.3,101.8,363.3,101.6,363,101.4z M361.2,98
		c0.1-0.2,0.1-0.2,0.1,0.5c0,0.4,0,0.8,0,0.9s-0.1,0.1-0.2,0.1c-0.2,0-0.3-0.1-0.3-0.2C360.8,99.3,361.1,98.3,361.2,98z"/>
	<path class="st1" d="M369.9,98.5c-0.8-0.4-0.8-0.3-0.8,0.8c0,0.4,0,0.9-0.1,1.1c-0.1,0.3-0.6,1.2-0.8,1.2c-0.1,0-0.1-0.2-0.2-1.6
		c-0.1-1.3,0-1.3-0.6-1.6c-0.3-0.1-0.7-0.2-0.7-0.1c-0.1,0.1-0.1,0.5,0,1.2c0.1,1.4,0.4,2.3,0.7,2.6c0.2,0.1,0.9,0.1,1.3,0
		c0.2-0.1,0.9-0.7,0.9-0.8c0,0,0,0-0.1,0c-0.1,0.1-0.1,0.1,0,0c0-0.1,0.1-0.1,0.1-0.1s0.2-0.1,0.2-0.3c0.1-0.2,0.2-0.3,0.3-0.4
		c0.2-0.2,0.3-0.4,0.4-1.1C370.5,98.7,370.5,98.7,369.9,98.5z"/>
	<path class="st1" d="M374.7,98.2c-0.1-0.5-0.3-1.1-0.5-1.2c-0.1,0-0.2-0.1-0.3-0.1c-0.5-0.2-0.8-0.3-1-0.3c-0.4,0-1.3,0.7-1.6,1.3
		c-0.3,0.5-0.6,1.6-0.6,2.3c0,0.5-0.1,0.8-0.2,0.8c-0.3,0-0.3,0.3-0.1,0.6c0.2,0.2,0.2,0.2,0.2,0.8c0.1,1.1,0.3,2.3,0.4,2.4
		s1,0,1.1,0c0,0,0-0.2-0.1-0.3c-0.1-0.4-0.2-1.1-0.2-1.9V102l0.3-0.1c0.7-0.2,2-1.4,2.3-2.1C374.6,99.3,374.7,98.7,374.7,98.2z
		 M373.1,99.6c-0.1,0.2-0.4,0.5-0.7,0.8c-0.3,0.3-0.5,0.5-0.5,0.5c-0.1,0,0-0.1,0.1-0.9c0.2-0.9,0.5-1.5,0.9-2
		c0.3-0.3,0.3-0.3,0.4,0.3C373.4,98.5,373.3,99.2,373.1,99.6z"/>
</g>
<g>
	<linearGradient id="SVGID_3_" gradientUnits="userSpaceOnUse" x1="428" y1="62" x2="428" y2="2">
		<stop  offset="0" style="stop-color:#1D93D2"/>
		<stop  offset="1" style="stop-color:#38B0E3"/>
	</linearGradient>
	<circle class="st19" cx="428" cy="32" r="30"/>
	<path class="st20" d="M418.3,34.2l3.6,9.9c0,0,0.4,0.9,0.9,0.9c0.5,0,7.6-7.4,7.6-7.4l7.9-15.2l-19.8,9.3L418.3,34.2z"/>
	<path class="st21" d="M423,36.7l-0.7,7.3c0,0-0.3,2.2,1.9,0c2.2-2.2,4.4-3.9,4.4-3.9"/>
	<g>
		<path class="st1" d="M418.4,34.5l-7.3-2.4c0,0-0.9-0.4-0.6-1.2c0.1-0.2,0.2-0.3,0.5-0.6c1.6-1.1,30-11.3,30-11.3s0.8-0.3,1.3-0.1
			c0.2,0.1,0.4,0.2,0.5,0.5c0,0.1,0.1,0.4,0.1,0.6c0,0.2,0,0.4,0,0.6c-0.2,2.8-5.3,23.6-5.3,23.6s-0.3,1.2-1.4,1.3
			c-0.4,0-0.9-0.1-1.5-0.6c-2.2-1.9-9.7-6.9-11.4-8c-0.1-0.1-0.1-0.1-0.1-0.2c0-0.1,0.1-0.3,0.1-0.3s13.1-11.7,13.5-12.9
			c0-0.1-0.1-0.1-0.2-0.1c-0.9,0.3-16,9.8-17.6,10.9C418.6,34.6,418.4,34.5,418.4,34.5z"/>
	</g>
</g>
<path class="st20" d="M418.3,100.2l3.6,9.9c0,0,0.4,0.9,0.9,0.9c0.5,0,7.6-7.4,7.6-7.4l7.9-15.2l-19.8,9.3L418.3,100.2z"/>
<path class="st21" d="M423,102.7l-0.7,7.3c0,0-0.3,2.2,1.9,0c2.2-2.2,4.4-3.9,4.4-3.9"/>
<g>
	<path class="st1" d="M418.4,100.5l-7.3-2.4c0,0-0.9-0.4-0.6-1.2c0.1-0.2,0.2-0.3,0.5-0.6c1.6-1.1,30-11.3,30-11.3s0.8-0.3,1.3-0.1
		c0.2,0.1,0.4,0.2,0.5,0.5c0,0.1,0.1,0.4,0.1,0.6c0,0.2,0,0.4,0,0.6c-0.2,2.8-5.3,23.6-5.3,23.6s-0.3,1.2-1.4,1.3
		c-0.4,0-0.9-0.1-1.5-0.6c-2.2-1.9-9.7-6.9-11.4-8c-0.1-0.1-0.1-0.1-0.1-0.2c0-0.1,0.1-0.3,0.1-0.3s13.1-11.7,13.5-12.9
		c0-0.1-0.1-0.1-0.2-0.1c-0.9,0.3-16,9.8-17.6,10.9C418.6,100.6,418.4,100.5,418.4,100.5z"/>
</g>
<linearGradient id="SVGID_4_" gradientUnits="userSpaceOnUse" x1="428" y1="128" x2="428" y2="68">
	<stop  offset="0" style="stop-color:#1D93D2"/>
	<stop  offset="1" style="stop-color:#38B0E3"/>
</linearGradient>
<path class="st22" d="M428,68c-16.6,0-30,13.4-30,30s13.4,30,30,30s30-13.4,30-30S444.6,68,428,68z M428,125.2
	c-15,0-27.2-12.2-27.2-27.2S413,70.8,428,70.8S455.2,83,455.2,98S443,125.2,428,125.2z"/>
</svg>
