<svg width="461" height="130" viewBox="0 0 461 130" fill="none" xmlns="http://www.w3.org/2000/svg">
<path d="M296 62C312.569 62 326 48.5685 326 32C326 15.4315 312.569 2 296 2C279.431 2 266 15.4315 266 32C266 48.5685 279.431 62 296 62Z" fill="#55ACEE"/>
<path d="M312.5 24.5C311.4 25 310.2 25.3 309 25.5C310.3 24.7 311.2 23.5 311.7 22.1C310.5 22.8 309.2 23.3 307.8 23.6C306.7 22.4 305.1 21.7 303.3 21.7C299.9 21.7 297.1 24.4999 297.1 27.9C297.1 28.4 297.2 28.8999 297.3 29.2999C292.2 28.9999 287.6 26.6 284.6 22.9C284.1 23.8 283.8 24.9 283.8 26C283.8 28.1 284.9 30 286.5 31.1C285.5 31.1 284.5 30.7999 283.7 30.2999V30.4C283.7 33.4 285.8 35.9 288.6 36.4C288.1 36.5 287.5 36.5999 287 36.5999C286.6 36.5999 286.2 36.6 285.8 36.5C286.6 38.9 288.9 40.6999 291.5 40.7999C289.4 42.4999 286.7 43.4 283.9 43.4C283.4 43.4 282.9 43.3999 282.4 43.2999C285.1 44.9999 288.4 46.0999 291.8 46.0999C303.1 46.0999 309.3 36.7 309.3 28.6C309.3 28.3 309.3 28.0999 309.3 27.7999C310.6 26.7999 311.7 25.7 312.5 24.5Z" fill="white"/>
<path d="M230 62C246.569 62 260 48.5685 260 32C260 15.4315 246.569 2 230 2C213.431 2 200 15.4315 200 32C200 48.5685 213.431 62 230 62Z" fill="#5F99CF"/>
<path d="M246.3 31.8C246.3 29.8 244.6 28.1 242.6 28.1C241.8 28.1 241.1 28.3 240.5 28.8L240.1 29.1C237.7 27.5 234.5 26.6 230.9 26.4L232.8 20.4L238 21.6C238 23.3 239.4 24.7 241.1 24.7C242.8 24.7 244.2 23.3 244.2 21.6C244.2 19.9 242.8 18.5 241.1 18.5C239.9 18.5 238.8 19.2 238.3 20.3L232.6 19C232.3 18.9 232 19.1 231.9 19.4L229.7 26.3C226 26.4 222.6 27.4 220.1 29L219.7 28.7C219.1 28.3 218.3 28 217.6 28C215.6 28 213.9 29.7 213.9 31.7C213.9 32.8 214.4 33.9 215.3 34.6L215.7 35C215.7 35.3 215.6 35.7 215.6 36C215.6 41.4 222.1 45.7 230.1 45.7C238.1 45.7 244.6 41.3 244.6 36C244.6 35.7 244.6 35.3 244.5 35L244.9 34.6C245.8 33.9 246.3 32.9 246.3 31.8ZM235.2 40.6C234.1 41.7 232.4 42.2 230 42.2C227.6 42.2 225.9 41.7 224.8 40.6C224.6 40.4 224.6 40 224.8 39.7C224.9 39.6 225.1 39.5 225.2 39.5C225.4 39.5 225.5 39.6 225.6 39.7C226.4 40.5 227.9 41 230 41C232.1 41 233.5 40.6 234.4 39.7C234.5 39.6 234.7 39.5 234.8 39.5C235 39.5 235.1 39.6 235.2 39.7C235.5 40 235.5 40.4 235.2 40.6Z" fill="white"/>
<path d="M234.9 36.5C236.17 36.5 237.2 35.4703 237.2 34.2C237.2 32.9298 236.17 31.9 234.9 31.9C233.63 31.9 232.6 32.9298 232.6 34.2C232.6 35.4703 233.63 36.5 234.9 36.5Z" fill="#FF4500"/>
<path d="M225.1 36.4C226.315 36.4 227.3 35.415 227.3 34.2C227.3 32.985 226.315 32 225.1 32C223.885 32 222.9 32.985 222.9 34.2C222.9 35.415 223.885 36.4 225.1 36.4Z" fill="#FF4500"/>
<path d="M164 62C180.569 62 194 48.5685 194 32C194 15.4315 180.569 2 164 2C147.431 2 134 15.4315 134 32C134 48.5685 147.431 62 164 62Z" fill="url(#paint0_linear)"/>
<path opacity="0.12" d="M160.9 27.5L168 32.2L169 31.7L160.9 27.5Z" fill="black"/>
<path d="M178.7 26C178.7 26 178.4 23.9 177.5 23C176.4 21.8 175.1 21.8 174.5 21.7C170.3 21.4 164 21.4 164 21.4C164 21.4 157.7 21.4 153.5 21.7C152.9 21.8 151.6 21.8 150.5 23C149.6 23.9 149.3 26 149.3 26C149.3 26 149 28.4 149 30.9V33.2C149 35.6 149.3 38.1 149.3 38.1C149.3 38.1 149.6 40.2 150.5 41.1C151.6 42.3 153.1 42.3 153.8 42.4C156.2 42.6 164 42.7 164 42.7C164 42.7 170.3 42.7 174.5 42.4C175.1 42.3 176.4 42.3 177.5 41.1C178.4 40.2 178.7 38.1 178.7 38.1C178.7 38.1 179 35.7 179 33.2V30.9C179 28.4 178.7 26 178.7 26ZM160.9 35.9V27.5L169 31.7L160.9 35.9Z" fill="white"/>
<path d="M32 62C48.5685 62 62 48.5685 62 32C62 15.4315 48.5685 2 32 2C15.4315 2 2 15.4315 2 32C2 48.5685 15.4315 62 32 62Z" fill="#FFA300"/>
<path d="M28.8 38.7C28.8 40.2 30 41.4 31.5 41.4H42L46.9 43.5999V30.4C46.9 28.9 45.7 27.7 44.2 27.7H31.6C30.1 27.7 28.9 28.9 28.9 30.4V38.7H28.8Z" fill="white"/>
<path d="M27 30.4C27 27.9 29.1 25.8 31.6 25.8H35.2V23C35.2 21.5 34 20.3 32.5 20.3H19.7C18.2 20.3 17 21.5 17 23V36.3L21.9 34.1H26.9V30.4H27V30.4Z" fill="white"/>
<path d="M164 68C147.4 68 134 81.4 134 98C134 114.6 147.4 128 164 128C180.6 128 194 114.6 194 98C194 81.4 180.6 68 164 68ZM164 125.3C148.9 125.3 136.7 113.1 136.7 98C136.7 82.9 148.9 70.7 164 70.7C179.1 70.7 191.3 82.9 191.3 98C191.3 113.1 179.1 125.3 164 125.3Z" fill="url(#paint1_linear)"/>
<path opacity="0.12" d="M160.9 93.5L168 98.2L169 97.7L160.9 93.5Z" fill="black"/>
<path d="M178.7 92C178.7 92 178.4 89.9 177.5 89C176.4 87.8 175.1 87.8 174.5 87.7C170.3 87.4 164 87.4 164 87.4C164 87.4 157.7 87.4 153.5 87.7C152.9 87.8 151.6 87.8 150.5 89C149.6 89.9 149.3 92 149.3 92C149.3 92 149 94.4 149 96.9V99.2C149 101.6 149.3 104.1 149.3 104.1C149.3 104.1 149.6 106.2 150.5 107.1C151.6 108.3 153.1 108.3 153.8 108.4C156.2 108.6 164 108.7 164 108.7C164 108.7 170.3 108.7 174.5 108.4C175.1 108.3 176.4 108.3 177.5 107.1C178.4 106.2 178.7 104.1 178.7 104.1C178.7 104.1 179 101.7 179 99.2V96.9C179 94.4 178.7 92 178.7 92ZM160.9 101.9V93.5L169 97.7L160.9 101.9Z" fill="white"/>
<path d="M230 68C213.4 68 200 81.4 200 98C200 114.6 213.4 128 230 128C246.6 128 260 114.6 260 98C260 81.4 246.6 68 230 68ZM230 125.3C214.9 125.3 202.7 113.1 202.7 98C202.7 82.9 214.9 70.7 230 70.7C245.1 70.7 257.3 82.9 257.3 98C257.3 113.1 245.1 125.3 230 125.3Z" fill="#5F99CF"/>
<path d="M246.3 97.8C246.3 95.8 244.6 94.1 242.6 94.1C241.8 94.1 241.1 94.3 240.5 94.8L240.1 95.1C237.7 93.5 234.5 92.6 230.9 92.4L232.8 86.4L238 87.6C238 89.3 239.4 90.7 241.1 90.7C242.8 90.7 244.2 89.3 244.2 87.6C244.2 85.9 242.8 84.5 241.1 84.5C239.9 84.5 238.8 85.2 238.3 86.3L232.6 85C232.3 84.9 232 85.1 231.9 85.4L229.7 92.3C226 92.4 222.6 93.4 220.1 95L219.7 94.7C219.1 94.3 218.3 94 217.6 94C215.6 94 213.9 95.7 213.9 97.7C213.9 98.8 214.4 99.9 215.3 100.6L215.7 101C215.7 101.3 215.6 101.7 215.6 102C215.6 107.4 222.1 111.7 230.1 111.7C238.1 111.7 244.6 107.3 244.6 102C244.6 101.7 244.6 101.3 244.5 101L244.9 100.6C245.8 99.9 246.3 98.9 246.3 97.8ZM235.2 106.6C234.1 107.7 232.4 108.2 230 108.2C227.6 108.2 225.9 107.7 224.8 106.6C224.6 106.4 224.6 106 224.8 105.7C224.9 105.6 225.1 105.5 225.2 105.5C225.4 105.5 225.5 105.6 225.6 105.7C226.4 106.5 227.9 107 230 107C232.1 107 233.5 106.6 234.4 105.7C234.5 105.6 234.7 105.5 234.8 105.5C235 105.5 235.1 105.6 235.2 105.7C235.5 106 235.5 106.4 235.2 106.6Z" fill="white"/>
<path d="M234.9 102.5C236.17 102.5 237.2 101.47 237.2 100.2C237.2 98.9298 236.17 97.9 234.9 97.9C233.63 97.9 232.6 98.9298 232.6 100.2C232.6 101.47 233.63 102.5 234.9 102.5Z" fill="#FF4500"/>
<path d="M225.1 102.4C226.315 102.4 227.3 101.415 227.3 100.2C227.3 98.985 226.315 98 225.1 98C223.885 98 222.9 98.985 222.9 100.2C222.9 101.415 223.885 102.4 225.1 102.4Z" fill="#FF4500"/>
<path d="M296 68C279.4 68 266 81.4 266 98C266 114.6 279.4 128 296 128C312.6 128 326 114.6 326 98C326 81.4 312.6 68 296 68ZM296 125.3C280.9 125.3 268.7 113.1 268.7 98C268.7 82.9 280.9 70.7 296 70.7C311.1 70.7 323.3 82.9 323.3 98C323.3 113.1 311.1 125.3 296 125.3Z" fill="#55ACEE"/>
<path d="M312.5 90.5C311.4 91 310.2 91.3 309 91.5C310.3 90.7 311.2 89.5 311.7 88.1C310.5 88.8 309.2 89.3 307.8 89.6C306.7 88.4 305.1 87.7 303.3 87.7C299.9 87.7 297.1 90.5 297.1 93.9C297.1 94.4 297.2 94.9 297.3 95.3C292.2 95 287.6 92.6 284.6 88.9C284.1 89.8 283.8 90.9 283.8 92C283.8 94.1 284.9 96 286.5 97.1C285.5 97.1 284.5 96.8 283.7 96.3V96.4C283.7 99.4 285.8 101.9 288.6 102.4C288.1 102.5 287.5 102.6 287 102.6C286.6 102.6 286.2 102.6 285.8 102.5C286.6 104.9 288.9 106.7 291.5 106.8C289.4 108.5 286.7 109.4 283.9 109.4C283.4 109.4 282.9 109.4 282.4 109.3C285.1 111 288.4 112.1 291.8 112.1C303.1 112.1 309.3 102.7 309.3 94.6C309.3 94.3 309.3 94.1 309.3 93.8C310.6 92.8 311.7 91.7 312.5 90.5Z" fill="white"/>
<path d="M362 68C345.4 68 332 81.4 332 98C332 114.6 345.4 128 362 128C378.6 128 392 114.6 392 98C392 81.4 378.6 68 362 68ZM362 125.3C346.9 125.3 334.7 113.1 334.7 98C334.7 82.9 346.9 70.7 362 70.7C377.1 70.7 389.3 82.9 389.3 98C389.3 113.1 377.1 125.3 362 125.3Z" fill="#F00101"/>
<path d="M32 70.7C37 70.7 41.6 72 45.7 74.4L47 72C42.6 69.4 37.5 68 32 68C15.4 68 2 81.4 2 98H4.7C4.7 82.9 16.9 70.7 32 70.7Z" fill="#4799DD"/>
<path d="M62 98C62 86.9 56 77.2 47 72L45.7 74.3C53.9 79 59.4 87.8 59.4 98C59.4 108.1 53.9 116.9 45.7 121.7L47 124C56 118.8 62 109.1 62 98Z" fill="#FFA300"/>
<path d="M32 128C37.5 128 42.6 126.5 47 124L45.7 121.7C41.7 124 37 125.4 32 125.4C16.9 125.4 4.7 113.2 4.7 98.1H2C2 114.6 15.4 128 32 128Z" fill="#8CDB5E"/>
<path d="M44.3 93.7H31.6C30.1 93.7 28.9 94.9 28.9 96.4V104.7C28.9 106.2 30.1 107.4 31.6 107.4H42.1L47 109.6V96.4C47 94.9 45.8 93.7 44.3 93.7Z" fill="white"/>
<path d="M35.2 91.8V89C35.2 87.5 34 86.3 32.5 86.3H19.7C18.2 86.3 17 87.5 17 89V102.3L21.9 100.1H26.9V96.5C26.9 94 29 91.9 31.5 91.9H35.2V91.8Z" fill="white"/>
<path d="M362 62C378.569 62 392 48.5685 392 32C392 15.4315 378.569 2 362 2C345.431 2 332 15.4315 332 32C332 48.5685 345.431 62 362 62Z" fill="#F00101"/>
<path d="M377.6 22.7C377.4 22.2 376.9 21.8 376.4 21.6L376 21.5H362H347.9L347.5 21.6C347.1 21.8 346.6 22.2 346.4 22.7L346.2 23V32V41L346.4 41.3C346.6 41.7 347.1 42.2 347.5 42.4C347.8 42.5 348 42.5 361.9 42.5H376L376.4 42.4C376.8 42.2 377.3 41.8 377.6 41.3L377.7 41V32V23L377.6 22.7ZM377.4 33.4V39.7H362H346.6V33.4V27.1H362H377.4V33.4Z" fill="white"/>
<path d="M355.5 34.9001C355.5 34.8001 355.5 34.7001 355.4 34.5001C355.3 34.3001 355.2 33.9001 355.2 33.6001C354.9 32.2001 354.8 31.7001 354.5 30.7001C354.4 30.2001 354.3 30.2001 353.6 30.1001C353 30.1001 353 30.1001 352.9 30.2001C352.6 30.6001 352.2 32.1001 352.1 33.0001L352 33.6001L351.4 32.5001C351.1 31.9001 350.8 31.3001 350.7 31.2001C350.6 31.0001 350 31.0001 349.6 31.1001L349.3 31.2001V32.3001C349.3 33.4001 349.3 33.8001 349.4 35.1001C349.5 35.9001 349.6 36.0001 349.9 36.0001C350.2 36.0001 350.9 35.8001 350.9 35.6001C350.9 35.6001 350.9 35.2001 350.8 34.9001C350.8 34.5001 350.7 34.3001 350.7 34.2001C350.7 34.2001 350.9 34.5001 351.1 34.9001C351.3 35.3001 351.6 35.7001 351.7 35.8001L351.8 36.0001L352.4 35.9001L353 35.8001L353.1 35.5001C353.1 35.3001 353.2 34.6001 353.2 33.9001C353.2 33.2001 353.3 32.6001 353.3 32.6001C353.3 32.6001 353.5 33.0001 353.6 33.6001C353.7 34.1001 354 35.1001 354.2 35.6001C354.3 35.8001 354.4 36.0001 354.4 36.1001C354.4 36.2001 354.4 36.3001 354.4 36.3001C354.4 36.4001 354.5 36.4001 354.5 36.4001C354.7 36.4001 355.4 36.2001 355.4 36.2001C355.4 36.2001 355.5 36.1001 355.5 36.2001C355.6 36.3001 355.5 36.1001 355.4 35.6001C355.6 35.3001 355.5 35.0001 355.5 34.9001Z" fill="white"/>
<path d="M358.5 35.6001C358.4 35.7001 358.2 35.7001 358 35.7001C357.7 35.7001 357.7 35.7001 357.5 35.6001C357.2 35.3001 357 35.0001 357 34.4001C357 34.1001 357 33.9001 357 33.9001C357 33.9001 357.2 33.9001 357.3 33.9001C357.8 34.0001 358.7 34.0001 358.8 33.9001C359 33.6001 358.9 31.4001 358.7 31.0001C358.6 30.8001 358.5 30.8001 358.2 30.7001C357.4 30.5001 357.4 30.5001 357 30.8001C356.4 31.2001 356 31.6001 355.9 32.2001C355.7 32.8001 355.7 33.2001 355.7 34.2001C355.7 35.3001 355.8 35.5001 356.3 35.8001C356.7 36.1001 356.9 36.2001 357.2 36.3001C357.7 36.4001 358.7 36.3001 359.3 36.1001L359.6 36.0001L359.5 35.8001C359.4 35.6001 358.8 35.5001 358.5 35.6001ZM357.2 32.9001C357.3 32.6001 357.5 32.0001 357.6 32.0001C357.6 32.0001 357.7 32.3001 357.7 32.7001C357.7 33.4001 357.7 33.4001 357.3 33.3001C357.2 33.1001 357.2 33.1001 357.2 32.9001Z" fill="white"/>
<path d="M366.1 33.1C365.8 32.8 365.6 32.7001 365.5 32.7001C365.4 32.7001 365.3 32.7001 365.3 32.9001C365.3 33.0001 365.3 33.1 365.2 33.1C365.1 33.1 365.1 33.1001 365.1 32.9001C365.2 32.7001 365.2 32.8 365.1 30.5C365.1 29.5 365 28.7001 365 28.7001C364.9 28.6001 364.3 28.3 364.1 28.3C363.9 28.3 363.8 28.3 363.8 28.5C363.6 28.9 363.7 30.3 363.9 32.3C363.9 32.6 364 32.9 364 33V33.3H363.6C363.1 33.2 362.9 33.4 362.9 33.6C362.9 33.9 363 33.9 363.6 34C363.9 34 364.1 34.1 364.1 34.1C364.1 34.1 364.2 34.7001 364.2 35.4001L364.3 36.6H364.6C365.2 36.6 365.2 36.6 365.1 35.3V34.1H365.4C366.3 34 366.6 33.9 366.6 33.8C366.6 33.6 366.4 33.3 366.1 33.1Z" fill="white"/>
<path d="M363 35.4C362.7 35.2 362.6 35.2 362.5 35.4C362.3 35.7 361.6 35.8 361.2 35.6C360.9 35.5 360.6 34.9 360.6 34.6C360.6 34.2 360.6 34.2 361.2 34.3C361.6 34.4 361.7 34.4 362 34.3L362.4 34.2V33.3C362.4 32.8 362.4 32.4 362.5 32.4C362.5 32.4 362.6 32 362.6 31.6C362.6 30.9 362.6 30.9 362.5 30.7C362.4 30.6 362.3 30.6 362.3 30.6C362.3 30.6 362.1 30.5 361.9 30.5C361.7 30.4 361.5 30.4 361.4 30.4C361.2 30.4 361.1 30.5 360.8 30.8C360.1 31.5 360 31.8 359.6 33.2C359.5 33.7 359.5 33.9 359.5 34.3C359.5 34.8 359.6 34.9 359.8 35.3C360.2 35.9 360.5 36.1 361.5 36.2C362.1 36.3 362.5 36.2 363.1 35.9C363.3 35.8 363.3 35.6 363 35.4ZM361.2 32C361.3 31.8 361.3 31.8 361.3 32.5C361.3 32.9 361.3 33.3 361.3 33.4C361.3 33.5 361.2 33.5 361.1 33.5C360.9 33.5 360.8 33.4 360.8 33.3C360.8 33.3 361.1 32.3 361.2 32Z" fill="white"/>
<path d="M369.9 32.5001C369.1 32.1001 369.1 32.2001 369.1 33.3001C369.1 33.7001 369.1 34.2001 369 34.4001C368.9 34.7001 368.4 35.6001 368.2 35.6001C368.1 35.6001 368.1 35.4001 368 34.0001C367.9 32.7001 368 32.7001 367.4 32.4001C367.1 32.3001 366.7 32.2001 366.7 32.3001C366.6 32.4001 366.6 32.8001 366.7 33.5001C366.8 34.9001 367.1 35.8001 367.4 36.1001C367.6 36.2001 368.3 36.2001 368.7 36.1001C368.9 36.0001 369.6 35.4001 369.6 35.3001C369.6 35.3001 369.6 35.3001 369.5 35.3001C369.4 35.4001 369.4 35.4001 369.5 35.3001C369.5 35.2001 369.6 35.2001 369.6 35.2001C369.6 35.2001 369.8 35.1001 369.8 34.9001C369.9 34.7001 370 34.6001 370.1 34.5001C370.3 34.3001 370.4 34.1001 370.5 33.4001C370.5 32.7001 370.5 32.7001 369.9 32.5001Z" fill="white"/>
<path d="M374.7 32.2001C374.6 31.7001 374.4 31.1001 374.2 31.0001C374.1 31.0001 374 30.9001 373.9 30.9001C373.4 30.7001 373.1 30.6001 372.9 30.6001C372.5 30.6001 371.6 31.3001 371.3 31.9001C371 32.4001 370.7 33.5001 370.7 34.2001C370.7 34.7001 370.6 35.0001 370.5 35.0001C370.2 35.0001 370.2 35.3001 370.4 35.6001C370.6 35.8001 370.6 35.8001 370.6 36.4001C370.7 37.5001 370.9 38.7001 371 38.8001C371.1 38.9001 372 38.8001 372.1 38.8001C372.1 38.8001 372.1 38.6001 372 38.5001C371.9 38.1001 371.8 37.4001 371.8 36.6001V36.0001L372.1 35.9001C372.8 35.7001 374.1 34.5001 374.4 33.8001C374.6 33.3001 374.7 32.7001 374.7 32.2001ZM373.1 33.6001C373 33.8001 372.7 34.1001 372.4 34.4001C372.1 34.7001 371.9 34.9001 371.9 34.9001C371.8 34.9001 371.9 34.8001 372 34.0001C372.2 33.1001 372.5 32.5001 372.9 32.0001C373.2 31.7001 373.2 31.7001 373.3 32.3001C373.4 32.5001 373.3 33.2001 373.1 33.6001Z" fill="white"/>
<path d="M377.6 88.7C377.4 88.2 376.9 87.8 376.4 87.6L376 87.5H362H347.9L347.5 87.6C347.1 87.8 346.6 88.2 346.4 88.7L346.2 89V98V107L346.4 107.3C346.6 107.7 347.1 108.2 347.5 108.4C347.8 108.5 348 108.5 361.9 108.5H376L376.4 108.4C376.8 108.2 377.3 107.8 377.6 107.3L377.7 107V98V89L377.6 88.7ZM377.4 99.4V105.7H362H346.6V99.4V93.1H362H377.4V99.4Z" fill="white"/>
<path d="M355.5 100.9C355.5 100.8 355.5 100.7 355.4 100.5C355.3 100.3 355.2 99.9001 355.2 99.6001C354.9 98.2001 354.8 97.7001 354.5 96.7001C354.4 96.2001 354.3 96.2001 353.6 96.1001C353 96.1001 353 96.1001 352.9 96.2001C352.6 96.6001 352.2 98.1001 352.1 99.0001L352 99.6001L351.4 98.5001C351.1 97.9001 350.8 97.3001 350.7 97.2001C350.6 97.0001 350 97.0001 349.6 97.1001L349.3 97.2001V98.3001C349.3 99.4001 349.3 99.8001 349.4 101.1C349.5 101.9 349.6 102 349.9 102C350.2 102 350.9 101.8 350.9 101.6C350.9 101.6 350.9 101.2 350.8 100.9C350.8 100.5 350.7 100.3 350.7 100.2C350.7 100.2 350.9 100.5 351.1 100.9C351.3 101.3 351.6 101.7 351.7 101.8L351.8 102L352.4 101.9L353 101.8L353.1 101.5C353.1 101.3 353.2 100.6 353.2 99.9001C353.2 99.2001 353.3 98.6001 353.3 98.6001C353.3 98.6001 353.5 99.0001 353.6 99.6001C353.7 100.1 354 101.1 354.2 101.6C354.3 101.8 354.4 102 354.4 102.1C354.4 102.2 354.4 102.3 354.4 102.3C354.4 102.4 354.5 102.4 354.5 102.4C354.7 102.4 355.4 102.2 355.4 102.2C355.4 102.2 355.5 102.1 355.5 102.2C355.6 102.3 355.5 102.1 355.4 101.6C355.6 101.3 355.5 101 355.5 100.9Z" fill="white"/>
<path d="M358.5 101.6C358.4 101.7 358.2 101.7 358 101.7C357.7 101.7 357.7 101.7 357.5 101.6C357.2 101.3 357 101 357 100.4C357 100.1 357 99.9001 357 99.9001C357 99.9001 357.2 99.9001 357.3 99.9001C357.8 100 358.7 100 358.8 99.9001C359 99.6001 358.9 97.4001 358.7 97.0001C358.6 96.8001 358.5 96.8001 358.2 96.7001C357.4 96.5001 357.4 96.5001 357 96.8001C356.4 97.2001 356 97.6001 355.9 98.2001C355.7 98.8001 355.7 99.2001 355.7 100.2C355.7 101.3 355.8 101.5 356.3 101.8C356.7 102.1 356.9 102.2 357.2 102.3C357.7 102.4 358.7 102.3 359.3 102.1L359.6 102L359.5 101.8C359.4 101.6 358.8 101.5 358.5 101.6ZM357.2 98.9001C357.3 98.6001 357.5 98.0001 357.6 98.0001C357.6 98.0001 357.7 98.3001 357.7 98.7001C357.7 99.4001 357.7 99.4001 357.3 99.3001C357.2 99.1001 357.2 99.1001 357.2 98.9001Z" fill="white"/>
<path d="M366.1 99.1C365.8 98.8 365.6 98.7 365.5 98.7C365.4 98.7 365.3 98.7 365.3 98.9C365.3 99 365.3 99.1 365.2 99.1C365.1 99.1 365.1 99.1 365.1 98.9C365.2 98.7 365.2 98.8 365.1 96.5C365.1 95.5 365 94.7 365 94.7C364.9 94.6 364.3 94.3 364.1 94.3C363.9 94.3 363.8 94.3 363.8 94.5C363.6 94.9 363.7 96.3 363.9 98.3C363.9 98.6 364 98.9 364 99V99.3H363.6C363.1 99.2 362.9 99.4 362.9 99.6C362.9 99.9 363 99.9 363.6 100C363.9 100 364.1 100.1 364.1 100.1C364.1 100.1 364.2 100.7 364.2 101.4L364.3 102.6H364.6C365.2 102.6 365.2 102.6 365.1 101.3V100.1H365.4C366.3 100 366.6 99.9 366.6 99.8C366.6 99.6 366.4 99.3 366.1 99.1Z" fill="white"/>
<path d="M363 101.4C362.7 101.2 362.6 101.2 362.5 101.4C362.3 101.7 361.6 101.8 361.2 101.6C360.9 101.5 360.6 100.9 360.6 100.6C360.6 100.2 360.6 100.2 361.2 100.3C361.6 100.4 361.7 100.4 362 100.3L362.4 100.2V99.3C362.4 98.8 362.4 98.4 362.5 98.4C362.5 98.4 362.6 98 362.6 97.6C362.6 96.9 362.6 96.9 362.5 96.7C362.4 96.6 362.3 96.6 362.3 96.6C362.3 96.6 362.1 96.5 361.9 96.5C361.7 96.4 361.5 96.4 361.4 96.4C361.2 96.4 361.1 96.5 360.8 96.8C360.1 97.5 360 97.8 359.6 99.2C359.5 99.7 359.5 99.9 359.5 100.3C359.5 100.8 359.6 100.9 359.8 101.3C360.2 101.9 360.5 102.1 361.5 102.2C362.1 102.3 362.5 102.2 363.1 101.9C363.3 101.8 363.3 101.6 363 101.4ZM361.2 98C361.3 97.8 361.3 97.8 361.3 98.5C361.3 98.9 361.3 99.3 361.3 99.4C361.3 99.5 361.2 99.5 361.1 99.5C360.9 99.5 360.8 99.4 360.8 99.3C360.8 99.3 361.1 98.3 361.2 98Z" fill="white"/>
<path d="M369.9 98.5001C369.1 98.1001 369.1 98.2001 369.1 99.3001C369.1 99.7001 369.1 100.2 369 100.4C368.9 100.7 368.4 101.6 368.2 101.6C368.1 101.6 368.1 101.4 368 100C367.9 98.7001 368 98.7001 367.4 98.4001C367.1 98.3001 366.7 98.2001 366.7 98.3001C366.6 98.4001 366.6 98.8001 366.7 99.5001C366.8 100.9 367.1 101.8 367.4 102.1C367.6 102.2 368.3 102.2 368.7 102.1C368.9 102 369.6 101.4 369.6 101.3C369.6 101.3 369.6 101.3 369.5 101.3C369.4 101.4 369.4 101.4 369.5 101.3C369.5 101.2 369.6 101.2 369.6 101.2C369.6 101.2 369.8 101.1 369.8 100.9C369.9 100.7 370 100.6 370.1 100.5C370.3 100.3 370.4 100.1 370.5 99.4001C370.5 98.7001 370.5 98.7001 369.9 98.5001Z" fill="white"/>
<path d="M374.7 98.2001C374.6 97.7001 374.4 97.1001 374.2 97.0001C374.1 97.0001 374 96.9001 373.9 96.9001C373.4 96.7001 373.1 96.6001 372.9 96.6001C372.5 96.6001 371.6 97.3001 371.3 97.9001C371 98.4001 370.7 99.5001 370.7 100.2C370.7 100.7 370.6 101 370.5 101C370.2 101 370.2 101.3 370.4 101.6C370.6 101.8 370.6 101.8 370.6 102.4C370.7 103.5 370.9 104.7 371 104.8C371.1 104.9 372 104.8 372.1 104.8C372.1 104.8 372.1 104.6 372 104.5C371.9 104.1 371.8 103.4 371.8 102.6V102L372.1 101.9C372.8 101.7 374.1 100.5 374.4 99.8001C374.6 99.3001 374.7 98.7001 374.7 98.2001ZM373.1 99.6001C373 99.8001 372.7 100.1 372.4 100.4C372.1 100.7 371.9 100.9 371.9 100.9C371.8 100.9 371.9 100.8 372 100C372.2 99.1001 372.5 98.5001 372.9 98.0001C373.2 97.7001 373.2 97.7001 373.3 98.3001C373.4 98.5001 373.3 99.2001 373.1 99.6001Z" fill="white"/>
<path d="M428 62C444.569 62 458 48.5685 458 32C458 15.4315 444.569 2 428 2C411.431 2 398 15.4315 398 32C398 48.5685 411.431 62 428 62Z" fill="url(#paint2_linear)"/>
<path d="M418.3 34.2L421.9 44.1C421.9 44.1 422.3 45 422.8 45C423.3 45 430.4 37.6 430.4 37.6L438.3 22.4L418.5 31.7L418.3 34.2Z" fill="#C8DAEA"/>
<path d="M423 36.7L422.3 44C422.3 44 422 46.2 424.2 44C426.4 41.8 428.6 40.0999 428.6 40.0999" fill="#A9C6D8"/>
<path d="M418.4 34.5L411.1 32.1C411.1 32.1 410.2 31.7 410.5 30.9C410.6 30.7 410.7 30.6 411 30.3C412.6 29.2 441 19 441 19C441 19 441.8 18.7 442.3 18.9C442.5 19 442.7 19.1 442.8 19.4C442.8 19.5 442.9 19.8 442.9 20C442.9 20.2 442.9 20.4 442.9 20.6C442.7 23.4 437.6 44.2001 437.6 44.2001C437.6 44.2001 437.3 45.4 436.2 45.5C435.8 45.5 435.3 45.4001 434.7 44.9001C432.5 43.0001 425 38.0001 423.3 36.9001C423.2 36.8001 423.2 36.8001 423.2 36.7001C423.2 36.6001 423.3 36.4001 423.3 36.4001C423.3 36.4001 436.4 24.7 436.8 23.5C436.8 23.4 436.7 23.4 436.6 23.4C435.7 23.7 420.6 33.2 419 34.3C418.6 34.6 418.4 34.5 418.4 34.5Z" fill="white"/>
<path d="M418.3 100.2L421.9 110.1C421.9 110.1 422.3 111 422.8 111C423.3 111 430.4 103.6 430.4 103.6L438.3 88.4L418.5 97.7L418.3 100.2Z" fill="#C8DAEA"/>
<path d="M423 102.7L422.3 110C422.3 110 422 112.2 424.2 110C426.4 107.8 428.6 106.1 428.6 106.1" fill="#A9C6D8"/>
<path d="M418.4 100.5L411.1 98.1C411.1 98.1 410.2 97.7 410.5 96.9C410.6 96.7 410.7 96.6001 411 96.3001C412.6 95.2001 441 85 441 85C441 85 441.8 84.7 442.3 84.9C442.5 85 442.7 85.1 442.8 85.4C442.8 85.5 442.9 85.8 442.9 86C442.9 86.2 442.9 86.4 442.9 86.6C442.7 89.4 437.6 110.2 437.6 110.2C437.6 110.2 437.3 111.4 436.2 111.5C435.8 111.5 435.3 111.4 434.7 110.9C432.5 109 425 104 423.3 102.9C423.2 102.8 423.2 102.8 423.2 102.7C423.2 102.6 423.3 102.4 423.3 102.4C423.3 102.4 436.4 90.7 436.8 89.5C436.8 89.4 436.7 89.4 436.6 89.4C435.7 89.7 420.6 99.2001 419 100.3C418.6 100.6 418.4 100.5 418.4 100.5Z" fill="white"/>
<path d="M428 68C411.4 68 398 81.4 398 98C398 114.6 411.4 128 428 128C444.6 128 458 114.6 458 98C458 81.4 444.6 68 428 68ZM428 125.2C413 125.2 400.8 113 400.8 98C400.8 83 413 70.8 428 70.8C443 70.8 455.2 83 455.2 98C455.2 113 443 125.2 428 125.2Z" fill="url(#paint3_linear)"/>
<path fill-rule="evenodd" clip-rule="evenodd" d="M98 62C114.569 62 128 48.5685 128 32C128 15.4315 114.569 2 98 2C81.4315 2 68 15.4315 68 32C68 48.5685 81.4315 62 98 62Z" fill="#DADADA"/>
<path fill-rule="evenodd" clip-rule="evenodd" d="M128 32C128 48.5685 114.569 62 98 62C81.4315 62 68 48.5685 68 32C68 15.4315 81.4315 2 98 2C114.569 2 128 15.4315 128 32ZM84.2386 27.151V28.8265L88.0229 24.3555C88.717 24.5302 89.4464 24.5563 90.159 24.4247L84.2386 31.4194V33.0952L92.593 23.2249C92.9398 22.9139 93.2345 22.5624 93.475 22.1828L99.9757 14.5026C99.7368 14.4889 99.4963 14.4819 99.2541 14.4819H98.5747L94.2515 19.5896C94.2645 18.881 94.1276 18.1652 93.8319 17.4924L96.3801 14.4819H94.9619L93.2528 16.5012C92.9062 16.0379 92.4934 15.6511 92.0369 15.3448L92.7673 14.4819H91.3489L91.0519 14.8329C90.4434 14.5982 89.7936 14.484 89.1415 14.4971L89.1536 14.4827C86.4362 14.5308 84.2386 16.7476 84.2386 19.4871V20.2896L84.2926 20.2258C84.3843 20.8565 84.598 21.4777 84.9401 22.0537L84.2386 22.8824V24.5581L85.608 22.9402C86.0021 23.3583 86.4567 23.6962 86.9483 23.9497L84.2386 27.151ZM84.2386 35.688V37.3635L103.094 15.0869C102.717 14.9646 102.332 14.8599 101.941 14.7736L84.2386 35.688ZM84.2386 39.9564V41.6321L105.698 16.2785C105.384 16.0882 105.06 15.9113 104.728 15.7487L84.2386 39.9564ZM84.2386 44.225V44.5129C84.2386 44.9309 84.29 45.3372 84.3867 45.7257L94.2684 34.0508C94.3015 34.7262 94.4715 35.4013 94.7856 36.0327L85.1591 47.4059C85.3709 47.7044 85.6145 47.9787 85.8851 48.2239L95.3901 36.9941L96.3832 38.4137L95.4572 39.5077H96.8755L97.025 39.3311L102.658 47.3822C104.239 49.6503 107.357 50.1955 109.625 48.6144C111.894 47.0332 112.439 43.9145 110.858 41.6464L106.981 36.1054L110.96 31.4051C111.254 30.6252 111.473 29.8085 111.607 28.9641L106.339 35.1879L105.346 33.7683L111.737 26.2176C111.706 25.7211 111.646 25.2322 111.559 24.7528L104.704 32.851L103.711 31.4315L111.03 22.785C110.892 22.4014 110.736 22.0264 110.563 21.661L103.053 30.5338C102.678 30.0975 102.24 29.7402 101.762 29.4659L109.685 20.1057C109.479 19.7956 109.26 19.495 109.029 19.205L100.723 29.0177C100.065 28.8187 99.3697 28.7557 98.6819 28.8365L107.889 17.9582C107.629 17.7087 107.357 17.4702 107.076 17.2437L96.6851 29.52C96.5882 29.5784 96.4925 29.6404 96.3983 29.706C95.5582 30.2917 94.9545 31.0883 94.6076 31.9745L84.2386 44.225ZM87.3114 49.1316L94.249 40.9352V42.6109L88.4549 49.4563C88.056 49.3932 87.6729 49.283 87.3114 49.1316ZM90.807 49.2703C92.5763 48.6915 93.9075 47.1556 94.1923 45.2707L90.807 49.2703Z" fill="#311E5E"/>
<path fill-rule="evenodd" clip-rule="evenodd" d="M93.3388 16.617C94.9251 18.8825 94.3745 22.0049 92.109 23.5912C89.8436 25.1774 86.7211 24.6268 85.1349 22.3614C83.5486 20.0959 84.0992 16.9735 86.3647 15.3872C88.6301 13.8009 91.7526 14.3515 93.3388 16.617ZM109.625 48.6141C111.894 47.0323 112.439 43.9123 110.857 41.6432L103.363 30.9304C101.781 28.6613 98.6608 28.1159 96.3917 29.6977C94.1226 31.2795 93.5772 34.3995 95.159 36.6686L102.654 47.3814C104.235 49.6505 107.355 50.196 109.625 48.6141Z" fill="#E45C5C"/>
<path d="M126.5 98C126.5 113.74 113.74 126.5 98 126.5C82.2599 126.5 69.5 113.74 69.5 98C69.5 82.2599 82.2599 69.5 98 69.5C113.74 69.5 126.5 82.2599 126.5 98Z" stroke="#311E5E" stroke-width="3"/>
<path d="M84.2386 93.151V94.8265L96.3801 80.4819H94.9619L84.2386 93.151Z" fill="white"/>
<path d="M92.7673 80.4819H91.3489L84.2386 88.8824V90.5581L92.7673 80.4819Z" fill="white"/>
<path d="M84.2386 99.0952V97.4194L98.5747 80.4819H99.2541C99.4963 80.4819 99.7368 80.4889 99.9757 80.5026L84.2386 99.0952Z" fill="white"/>
<path d="M84.2386 101.688V103.364L103.094 81.0869C102.717 80.9646 102.332 80.8599 101.941 80.7736L84.2386 101.688Z" fill="white"/>
<path d="M84.2386 107.632V105.956L104.728 81.7487C105.06 81.9113 105.384 82.0882 105.698 82.2785L84.2386 107.632Z" fill="white"/>
<path d="M84.2386 110.225V110.513C84.2386 110.931 84.29 111.337 84.3867 111.726L107.889 83.9582C107.629 83.7087 107.357 83.4702 107.076 83.2437L84.2386 110.225Z" fill="white"/>
<path d="M85.8851 114.224C85.6145 113.979 85.3709 113.704 85.1591 113.406L109.029 85.205C109.26 85.495 109.479 85.7956 109.685 86.1057L85.8851 114.224Z" fill="white"/>
<path d="M110.563 87.661L95.4572 105.508H96.8755L111.03 88.785C110.892 88.4014 110.736 88.0264 110.563 87.661Z" fill="white"/>
<path d="M94.249 106.935L87.3114 115.132C87.6729 115.283 88.056 115.393 88.4549 115.456L94.249 108.611V106.935Z" fill="white"/>
<path d="M90.807 115.27C92.5763 114.691 93.9075 113.156 94.1923 111.271L90.807 115.27Z" fill="white"/>
<path d="M99.2541 105.508H99.0702L111.559 90.7528C111.646 91.2322 111.706 91.7211 111.737 92.2176L100.544 105.442C100.12 105.485 99.6897 105.508 99.2541 105.508Z" fill="white"/>
<path d="M111.607 94.9641L103.233 104.858C104.042 104.585 104.814 104.232 105.54 103.808L110.96 97.4051C111.254 96.6252 111.473 95.8085 111.607 94.9641Z" fill="white"/>
<path d="M89.1536 80.4827C86.4362 80.5308 84.2386 82.7476 84.2386 85.4871V86.2896L89.1536 80.4827Z" fill="white"/>
<path d="M92.1175 89.6021C94.382 88.0165 94.9323 84.8954 93.3468 82.6309C91.7612 80.3665 88.6401 79.8161 86.3756 81.4017C84.1111 82.9873 83.5607 86.1084 85.1463 88.3729C86.7319 90.6374 89.853 91.1877 92.1175 89.6021Z" fill="white"/>
<path d="M110.858 107.646C112.439 109.915 111.894 113.033 109.625 114.614C107.357 116.196 104.239 115.65 102.658 113.382L95.1661 102.674C93.585 100.406 94.1302 97.2872 96.3983 95.706C98.6665 94.1249 101.785 94.6701 103.366 96.9382L110.858 107.646Z" fill="white"/>
<path fill-rule="evenodd" clip-rule="evenodd" d="M93.3388 82.617C94.9251 84.8825 94.3745 88.0049 92.109 89.5912C89.8436 91.1774 86.7211 90.6268 85.1349 88.3614C83.5486 86.0959 84.0992 82.9735 86.3647 81.3872C88.6301 79.801 91.7526 80.3515 93.3388 82.617ZM109.625 114.614C111.894 113.032 112.439 109.912 110.857 107.643L103.363 96.9304C101.781 94.6613 98.6608 94.1159 96.3917 95.6977C94.1226 97.2795 93.5772 100.4 95.159 102.669L102.654 113.381C104.235 115.65 107.355 116.196 109.625 114.614Z" fill="#E45C5C"/>
<defs>
<linearGradient id="paint0_linear" x1="164" y1="62" x2="164" y2="2" gradientUnits="userSpaceOnUse">
<stop stop-color="#BE2126"/>
<stop offset="1" stop-color="#E32E28"/>
</linearGradient>
<linearGradient id="paint1_linear" x1="164" y1="128" x2="164" y2="68" gradientUnits="userSpaceOnUse">
<stop stop-color="#BE2126"/>
<stop offset="1" stop-color="#E32E28"/>
</linearGradient>
<linearGradient id="paint2_linear" x1="428" y1="62" x2="428" y2="2" gradientUnits="userSpaceOnUse">
<stop stop-color="#1D93D2"/>
<stop offset="1" stop-color="#38B0E3"/>
</linearGradient>
<linearGradient id="paint3_linear" x1="428" y1="128" x2="428" y2="68" gradientUnits="userSpaceOnUse">
<stop stop-color="#1D93D2"/>
<stop offset="1" stop-color="#38B0E3"/>
</linearGradient>
</defs>
</svg>
