<svg xmlns="http://www.w3.org/2000/svg" width="461" height="130" viewBox="0 0 461 130">
  <defs>
    <linearGradient id="footer_btns-a" x1="50%" x2="50%" y1="100%" y2="0%">
      <stop offset="0%" stop-color="#BE2126"/>
      <stop offset="100%" stop-color="#E32E28"/>
    </linearGradient>
    <linearGradient id="footer_btns-b" x1="50%" x2="50%" y1="100%" y2="0%">
      <stop offset="0%" stop-color="#1D93D2"/>
      <stop offset="100%" stop-color="#38B0E3"/>
    </linearGradient>
  </defs>
  <g fill="none" fill-rule="evenodd" transform="translate(2 2)">
    <path fill="#55ACEE" fill-rule="nonzero" d="M294,60 C310.569,60 324,46.5685 324,30 C324,13.4315 310.569,0 294,0 C277.431,0 264,13.4315 264,30 C264,46.5685 277.431,60 294,60 Z"/>
    <path fill="#FFF" fill-rule="nonzero" d="M310.5,22.5 C309.4,23 308.2,23.3 307,23.5 C308.3,22.7 309.2,21.5 309.7,20.1 C308.5,20.8 307.2,21.3 305.8,21.6 C304.7,20.4 303.1,19.7 301.3,19.7 C297.9,19.7 295.1,22.4999 295.1,25.9 C295.1,26.4 295.2,26.8999 295.3,27.2999 C290.2,26.9999 285.6,24.6 282.6,20.9 C282.1,21.8 281.8,22.9 281.8,24 C281.8,26.1 282.9,28 284.5,29.1 C283.5,29.1 282.5,28.7999 281.7,28.2999 L281.7,28.4 C281.7,31.4 283.8,33.9 286.6,34.4 C286.1,34.5 285.5,34.5999 285,34.5999 C284.6,34.5999 284.2,34.6 283.8,34.5 C284.6,36.9 286.9,38.6999 289.5,38.7999 C287.4,40.4999 284.7,41.4 281.9,41.4 C281.4,41.4 280.9,41.3999 280.4,41.2999 C283.1,42.9999 286.4,44.0999 289.8,44.0999 C301.1,44.0999 307.3,34.7 307.3,26.6 C307.3,26.3 307.3,26.0999 307.3,25.7999 C308.6,24.7999 309.7,23.7 310.5,22.5 Z"/>
    <path fill="#5F99CF" fill-rule="nonzero" d="M228,60 C244.569,60 258,46.5685 258,30 C258,13.4315 244.569,0 228,0 C211.431,0 198,13.4315 198,30 C198,46.5685 211.431,60 228,60 Z"/>
    <path fill="#FFF" fill-rule="nonzero" d="M244.3,29.8 C244.3,27.8 242.6,26.1 240.6,26.1 C239.8,26.1 239.1,26.3 238.5,26.8 L238.1,27.1 C235.7,25.5 232.5,24.6 228.9,24.4 L230.8,18.4 L236,19.6 C236,21.3 237.4,22.7 239.1,22.7 C240.8,22.7 242.2,21.3 242.2,19.6 C242.2,17.9 240.8,16.5 239.1,16.5 C237.9,16.5 236.8,17.2 236.3,18.3 L230.6,17 C230.3,16.9 230,17.1 229.9,17.4 L227.7,24.3 C224,24.4 220.6,25.4 218.1,27 L217.7,26.7 C217.1,26.3 216.3,26 215.6,26 C213.6,26 211.9,27.7 211.9,29.7 C211.9,30.8 212.4,31.9 213.3,32.6 L213.7,33 C213.7,33.3 213.6,33.7 213.6,34 C213.6,39.4 220.1,43.7 228.1,43.7 C236.1,43.7 242.6,39.3 242.6,34 C242.6,33.7 242.6,33.3 242.5,33 L242.9,32.6 C243.8,31.9 244.3,30.9 244.3,29.8 Z M233.2,38.6 C232.1,39.7 230.4,40.2 228,40.2 C225.6,40.2 223.9,39.7 222.8,38.6 C222.6,38.4 222.6,38 222.8,37.7 C222.9,37.6 223.1,37.5 223.2,37.5 C223.4,37.5 223.5,37.6 223.6,37.7 C224.4,38.5 225.9,39 228,39 C230.1,39 231.5,38.6 232.4,37.7 C232.5,37.6 232.7,37.5 232.8,37.5 C233,37.5 233.1,37.6 233.2,37.7 C233.5,38 233.5,38.4 233.2,38.6 Z"/>
    <path fill="#FF4500" fill-rule="nonzero" d="M232.9 34.5C234.17 34.5 235.2 33.4703 235.2 32.2 235.2 30.9298 234.17 29.9 232.9 29.9 231.63 29.9 230.6 30.9298 230.6 32.2 230.6 33.4703 231.63 34.5 232.9 34.5zM223.1 34.4C224.315 34.4 225.3 33.415 225.3 32.2 225.3 30.985 224.315 30 223.1 30 221.885 30 220.9 30.985 220.9 32.2 220.9 33.415 221.885 34.4 223.1 34.4z"/>
    <path fill="url(#footer_btns-a)" fill-rule="nonzero" d="M162,60 C178.569,60 192,46.5685 192,30 C192,13.4315 178.569,0 162,0 C145.431,0 132,13.4315 132,30 C132,46.5685 145.431,60 162,60 Z"/>
    <polygon fill="#000" fill-rule="nonzero" points="158.9 25.5 166 30.2 167 29.7" opacity=".12"/>
    <path fill="#FFF" fill-rule="nonzero" d="M176.7,24 C176.7,24 176.4,21.9 175.5,21 C174.4,19.8 173.1,19.8 172.5,19.7 C168.3,19.4 162,19.4 162,19.4 C162,19.4 155.7,19.4 151.5,19.7 C150.9,19.8 149.6,19.8 148.5,21 C147.6,21.9 147.3,24 147.3,24 C147.3,24 147,26.4 147,28.9 L147,31.2 C147,33.6 147.3,36.1 147.3,36.1 C147.3,36.1 147.6,38.2 148.5,39.1 C149.6,40.3 151.1,40.3 151.8,40.4 C154.2,40.6 162,40.7 162,40.7 C162,40.7 168.3,40.7 172.5,40.4 C173.1,40.3 174.4,40.3 175.5,39.1 C176.4,38.2 176.7,36.1 176.7,36.1 C176.7,36.1 177,33.7 177,31.2 L177,28.9 C177,26.4 176.7,24 176.7,24 Z M158.9,33.9 L158.9,25.5 L167,29.7 L158.9,33.9 Z"/>
    <path fill="#FFA300" fill-rule="nonzero" d="M30,60 C46.5685,60 60,46.5685 60,30 C60,13.4315 46.5685,0 30,0 C13.4315,0 0,13.4315 0,30 C0,46.5685 13.4315,60 30,60 Z"/>
    <path fill="#FFF" fill-rule="nonzero" d="M26.8,36.7 C26.8,38.2 28,39.4 29.5,39.4 L40,39.4 L44.9,41.5999 L44.9,28.4 C44.9,26.9 43.7,25.7 42.2,25.7 L29.6,25.7 C28.1,25.7 26.9,26.9 26.9,28.4 L26.9,36.7 L26.8,36.7 Z"/>
    <path fill="#FFF" fill-rule="nonzero" d="M25,28.4 C25,25.9 27.1,23.8 29.6,23.8 L33.2,23.8 L33.2,21 C33.2,19.5 32,18.3 30.5,18.3 L17.7,18.3 C16.2,18.3 15,19.5 15,21 L15,34.3 L19.9,32.1 L24.9,32.1 L24.9,28.4 L25,28.4 L25,28.4 Z"/>
    <path fill="url(#footer_btns-a)" fill-rule="nonzero" d="M162,66 C145.4,66 132,79.4 132,96 C132,112.6 145.4,126 162,126 C178.6,126 192,112.6 192,96 C192,79.4 178.6,66 162,66 Z M162,123.3 C146.9,123.3 134.7,111.1 134.7,96 C134.7,80.9 146.9,68.7 162,68.7 C177.1,68.7 189.3,80.9 189.3,96 C189.3,111.1 177.1,123.3 162,123.3 Z"/>
    <polygon fill="#000" fill-rule="nonzero" points="158.9 91.5 166 96.2 167 95.7" opacity=".12"/>
    <path fill="#FFF" fill-rule="nonzero" d="M176.7,90 C176.7,90 176.4,87.9 175.5,87 C174.4,85.8 173.1,85.8 172.5,85.7 C168.3,85.4 162,85.4 162,85.4 C162,85.4 155.7,85.4 151.5,85.7 C150.9,85.8 149.6,85.8 148.5,87 C147.6,87.9 147.3,90 147.3,90 C147.3,90 147,92.4 147,94.9 L147,97.2 C147,99.6 147.3,102.1 147.3,102.1 C147.3,102.1 147.6,104.2 148.5,105.1 C149.6,106.3 151.1,106.3 151.8,106.4 C154.2,106.6 162,106.7 162,106.7 C162,106.7 168.3,106.7 172.5,106.4 C173.1,106.3 174.4,106.3 175.5,105.1 C176.4,104.2 176.7,102.1 176.7,102.1 C176.7,102.1 177,99.7 177,97.2 L177,94.9 C177,92.4 176.7,90 176.7,90 Z M158.9,99.9 L158.9,91.5 L167,95.7 L158.9,99.9 Z"/>
    <path fill="#5F99CF" fill-rule="nonzero" d="M228,66 C211.4,66 198,79.4 198,96 C198,112.6 211.4,126 228,126 C244.6,126 258,112.6 258,96 C258,79.4 244.6,66 228,66 Z M228,123.3 C212.9,123.3 200.7,111.1 200.7,96 C200.7,80.9 212.9,68.7 228,68.7 C243.1,68.7 255.3,80.9 255.3,96 C255.3,111.1 243.1,123.3 228,123.3 Z"/>
    <path fill="#FFF" fill-rule="nonzero" d="M244.3,95.8 C244.3,93.8 242.6,92.1 240.6,92.1 C239.8,92.1 239.1,92.3 238.5,92.8 L238.1,93.1 C235.7,91.5 232.5,90.6 228.9,90.4 L230.8,84.4 L236,85.6 C236,87.3 237.4,88.7 239.1,88.7 C240.8,88.7 242.2,87.3 242.2,85.6 C242.2,83.9 240.8,82.5 239.1,82.5 C237.9,82.5 236.8,83.2 236.3,84.3 L230.6,83 C230.3,82.9 230,83.1 229.9,83.4 L227.7,90.3 C224,90.4 220.6,91.4 218.1,93 L217.7,92.7 C217.1,92.3 216.3,92 215.6,92 C213.6,92 211.9,93.7 211.9,95.7 C211.9,96.8 212.4,97.9 213.3,98.6 L213.7,99 C213.7,99.3 213.6,99.7 213.6,100 C213.6,105.4 220.1,109.7 228.1,109.7 C236.1,109.7 242.6,105.3 242.6,100 C242.6,99.7 242.6,99.3 242.5,99 L242.9,98.6 C243.8,97.9 244.3,96.9 244.3,95.8 Z M233.2,104.6 C232.1,105.7 230.4,106.2 228,106.2 C225.6,106.2 223.9,105.7 222.8,104.6 C222.6,104.4 222.6,104 222.8,103.7 C222.9,103.6 223.1,103.5 223.2,103.5 C223.4,103.5 223.5,103.6 223.6,103.7 C224.4,104.5 225.9,105 228,105 C230.1,105 231.5,104.6 232.4,103.7 C232.5,103.6 232.7,103.5 232.8,103.5 C233,103.5 233.1,103.6 233.2,103.7 C233.5,104 233.5,104.4 233.2,104.6 Z"/>
    <path fill="#FF4500" fill-rule="nonzero" d="M232.9 100.5C234.17 100.5 235.2 99.47 235.2 98.2 235.2 96.9298 234.17 95.9 232.9 95.9 231.63 95.9 230.6 96.9298 230.6 98.2 230.6 99.47 231.63 100.5 232.9 100.5zM223.1 100.4C224.315 100.4 225.3 99.415 225.3 98.2 225.3 96.985 224.315 96 223.1 96 221.885 96 220.9 96.985 220.9 98.2 220.9 99.415 221.885 100.4 223.1 100.4z"/>
    <path fill="#55ACEE" fill-rule="nonzero" d="M294,66 C277.4,66 264,79.4 264,96 C264,112.6 277.4,126 294,126 C310.6,126 324,112.6 324,96 C324,79.4 310.6,66 294,66 Z M294,123.3 C278.9,123.3 266.7,111.1 266.7,96 C266.7,80.9 278.9,68.7 294,68.7 C309.1,68.7 321.3,80.9 321.3,96 C321.3,111.1 309.1,123.3 294,123.3 Z"/>
    <path fill="#FFF" fill-rule="nonzero" d="M310.5,88.5 C309.4,89 308.2,89.3 307,89.5 C308.3,88.7 309.2,87.5 309.7,86.1 C308.5,86.8 307.2,87.3 305.8,87.6 C304.7,86.4 303.1,85.7 301.3,85.7 C297.9,85.7 295.1,88.5 295.1,91.9 C295.1,92.4 295.2,92.9 295.3,93.3 C290.2,93 285.6,90.6 282.6,86.9 C282.1,87.8 281.8,88.9 281.8,90 C281.8,92.1 282.9,94 284.5,95.1 C283.5,95.1 282.5,94.8 281.7,94.3 L281.7,94.4 C281.7,97.4 283.8,99.9 286.6,100.4 C286.1,100.5 285.5,100.6 285,100.6 C284.6,100.6 284.2,100.6 283.8,100.5 C284.6,102.9 286.9,104.7 289.5,104.8 C287.4,106.5 284.7,107.4 281.9,107.4 C281.4,107.4 280.9,107.4 280.4,107.3 C283.1,109 286.4,110.1 289.8,110.1 C301.1,110.1 307.3,100.7 307.3,92.6 C307.3,92.3 307.3,92.1 307.3,91.8 C308.6,90.8 309.7,89.7 310.5,88.5 Z"/>
    <path fill="#7289DA" fill-rule="nonzero" d="M360,66 C343.4,66 330,79.4 330,96 C330,112.6 343.4,126 360,126 C376.6,126 390,112.6 390,96 C390,79.4 376.6,66 360,66 Z M360,123.3 C344.9,123.3 332.7,111.1 332.7,96 C332.7,80.9 344.9,68.7 360,68.7 C375.1,68.7 387.3,80.9 387.3,96 C387.3,111.1 375.1,123.3 360,123.3 Z"/>
    <path fill="#4799DD" fill-rule="nonzero" d="M30,68.7 C35,68.7 39.6,70 43.7,72.4 L45,70 C40.6,67.4 35.5,66 30,66 C13.4,66 0,79.4 0,96 L2.7,96 C2.7,80.9 14.9,68.7 30,68.7 Z"/>
    <path fill="#FFA300" fill-rule="nonzero" d="M60,96 C60,84.9 54,75.2 45,70 L43.7,72.3 C51.9,77 57.4,85.8 57.4,96 C57.4,106.1 51.9,114.9 43.7,119.7 L45,122 C54,116.8 60,107.1 60,96 Z"/>
    <path fill="#8CDB5E" fill-rule="nonzero" d="M30,126 C35.5,126 40.6,124.5 45,122 L43.7,119.7 C39.7,122 35,123.4 30,123.4 C14.9,123.4 2.7,111.2 2.7,96.1 L0,96.1 C0,112.6 13.4,126 30,126 Z"/>
    <path fill="#FFF" fill-rule="nonzero" d="M42.3,91.7 L29.6,91.7 C28.1,91.7 26.9,92.9 26.9,94.4 L26.9,102.7 C26.9,104.2 28.1,105.4 29.6,105.4 L40.1,105.4 L45,107.6 L45,94.4 C45,92.9 43.8,91.7 42.3,91.7 Z"/>
    <path fill="#FFF" fill-rule="nonzero" d="M33.2,89.8 L33.2,87 C33.2,85.5 32,84.3 30.5,84.3 L17.7,84.3 C16.2,84.3 15,85.5 15,87 L15,100.3 L19.9,98.1 L24.9,98.1 L24.9,94.5 C24.9,92 27,89.9 29.5,89.9 L33.2,89.9 L33.2,89.8 Z"/>
    <path fill="url(#footer_btns-b)" fill-rule="nonzero" d="M426,60 C442.569,60 456,46.5685 456,30 C456,13.4315 442.569,0 426,0 C409.431,0 396,13.4315 396,30 C396,46.5685 409.431,60 426,60 Z"/>
    <path fill="#C8DAEA" fill-rule="nonzero" d="M416.3,32.2 L419.9,42.1 C419.9,42.1 420.3,43 420.8,43 C421.3,43 428.4,35.6 428.4,35.6 L436.3,20.4 L416.5,29.7 L416.3,32.2 Z"/>
    <path fill="#A9C6D8" fill-rule="nonzero" d="M421,34.7 L420.3,42 C420.3,42 420,44.2 422.2,42 C424.4,39.8 426.6,38.0999 426.6,38.0999"/>
    <path fill="#FFF" fill-rule="nonzero" d="M416.4,32.5 L409.1,30.1 C409.1,30.1 408.2,29.7 408.5,28.9 C408.6,28.7 408.7,28.6 409,28.3 C410.6,27.2 439,17 439,17 C439,17 439.8,16.7 440.3,16.9 C440.5,17 440.7,17.1 440.8,17.4 C440.8,17.5 440.9,17.8 440.9,18 C440.9,18.2 440.9,18.4 440.9,18.6 C440.7,21.4 435.6,42.2001 435.6,42.2001 C435.6,42.2001 435.3,43.4 434.2,43.5 C433.8,43.5 433.3,43.4001 432.7,42.9001 C430.5,41.0001 423,36.0001 421.3,34.9001 C421.2,34.8001 421.2,34.8001 421.2,34.7001 C421.2,34.6001 421.3,34.4001 421.3,34.4001 C421.3,34.4001 434.4,22.7 434.8,21.5 C434.8,21.4 434.7,21.4 434.6,21.4 C433.7,21.7 418.6,31.2 417,32.3 C416.6,32.6 416.4,32.5 416.4,32.5 Z"/>
    <path fill="#C8DAEA" fill-rule="nonzero" d="M416.3,98.2 L419.9,108.1 C419.9,108.1 420.3,109 420.8,109 C421.3,109 428.4,101.6 428.4,101.6 L436.3,86.4 L416.5,95.7 L416.3,98.2 Z"/>
    <path fill="#A9C6D8" fill-rule="nonzero" d="M421,100.7 L420.3,108 C420.3,108 420,110.2 422.2,108 C424.4,105.8 426.6,104.1 426.6,104.1"/>
    <path fill="#FFF" fill-rule="nonzero" d="M416.4,98.5 L409.1,96.1 C409.1,96.1 408.2,95.7 408.5,94.9 C408.6,94.7 408.7,94.6001 409,94.3001 C410.6,93.2001 439,83 439,83 C439,83 439.8,82.7 440.3,82.9 C440.5,83 440.7,83.1 440.8,83.4 C440.8,83.5 440.9,83.8 440.9,84 C440.9,84.2 440.9,84.4 440.9,84.6 C440.7,87.4 435.6,108.2 435.6,108.2 C435.6,108.2 435.3,109.4 434.2,109.5 C433.8,109.5 433.3,109.4 432.7,108.9 C430.5,107 423,102 421.3,100.9 C421.2,100.8 421.2,100.8 421.2,100.7 C421.2,100.6 421.3,100.4 421.3,100.4 C421.3,100.4 434.4,88.7 434.8,87.5 C434.8,87.4 434.7,87.4 434.6,87.4 C433.7,87.7 418.6,97.2001 417,98.3 C416.6,98.6 416.4,98.5 416.4,98.5 Z"/>
    <path fill="url(#footer_btns-b)" fill-rule="nonzero" d="M426,66 C409.4,66 396,79.4 396,96 C396,112.6 409.4,126 426,126 C442.6,126 456,112.6 456,96 C456,79.4 442.6,66 426,66 Z M426,123.2 C411,123.2 398.8,111 398.8,96 C398.8,81 411,68.8 426,68.8 C441,68.8 453.2,81 453.2,96 C453.2,111 441,123.2 426,123.2 Z"/>
    <path fill="#DADADA" d="M96,60 C112.569,60 126,46.5685 126,30 C126,13.4315 112.569,0 96,0 C79.4315,0 66,13.4315 66,30 C66,46.5685 79.4315,60 96,60 Z"/>
    <path fill="#311E5E" d="M126,30 C126,46.5685 112.569,60 96,60 C79.4315,60 66,46.5685 66,30 C66,13.4315 79.4315,0 96,0 C112.569,0 126,13.4315 126,30 Z M82.2386,25.151 L82.2386,26.8265 L86.0229,22.3555 C86.717,22.5302 87.4464,22.5563 88.159,22.4247 L82.2386,29.4194 L82.2386,31.0952 L90.593,21.2249 C90.9398,20.9139 91.2345,20.5624 91.475,20.1828 L97.9757,12.5026 C97.7368,12.4889 97.4963,12.4819 97.2541,12.4819 L96.5747,12.4819 L92.2515,17.5896 C92.2645,16.881 92.1276,16.1652 91.8319,15.4924 L94.3801,12.4819 L92.9619,12.4819 L91.2528,14.5012 C90.9062,14.0379 90.4934,13.6511 90.0369,13.3448 L90.7673,12.4819 L89.3489,12.4819 L89.0519,12.8329 C88.4434,12.5982 87.7936,12.484 87.1415,12.4971 L87.1536,12.4827 C84.4362,12.5308 82.2386,14.7476 82.2386,17.4871 L82.2386,18.2896 L82.2926,18.2258 C82.3843,18.8565 82.598,19.4777 82.9401,20.0537 L82.2386,20.8824 L82.2386,22.5581 L83.608,20.9402 C84.0021,21.3583 84.4567,21.6962 84.9483,21.9497 L82.2386,25.151 Z M82.2386,33.688 L82.2386,35.3635 L101.094,13.0869 C100.717,12.9646 100.332,12.8599 99.941,12.7736 L82.2386,33.688 Z M82.2386,37.9564 L82.2386,39.6321 L103.698,14.2785 C103.384,14.0882 103.06,13.9113 102.728,13.7487 L82.2386,37.9564 Z M82.2386,42.225 L82.2386,42.5129 C82.2386,42.9309 82.29,43.3372 82.3867,43.7257 L92.2684,32.0508 C92.3015,32.7262 92.4715,33.4013 92.7856,34.0327 L83.1591,45.4059 C83.3709,45.7044 83.6145,45.9787 83.8851,46.2239 L93.3901,34.9941 L94.3832,36.4137 L93.4572,37.5077 L94.8755,37.5077 L95.025,37.3311 L100.658,45.3822 C102.239,47.6503 105.357,48.1955 107.625,46.6144 C109.894,45.0332 110.439,41.9145 108.858,39.6464 L104.981,34.1054 L108.96,29.4051 C109.254,28.6252 109.473,27.8085 109.607,26.9641 L104.339,33.1879 L103.346,31.7683 L109.737,24.2176 C109.706,23.7211 109.646,23.2322 109.559,22.7528 L102.704,30.851 L101.711,29.4315 L109.03,20.785 C108.892,20.4014 108.736,20.0264 108.563,19.661 L101.053,28.5338 C100.678,28.0975 100.24,27.7402 99.762,27.4659 L107.685,18.1057 C107.479,17.7956 107.26,17.495 107.029,17.205 L98.723,27.0177 C98.065,26.8187 97.3697,26.7557 96.6819,26.8365 L105.889,15.9582 C105.629,15.7087 105.357,15.4702 105.076,15.2437 L94.6851,27.52 C94.5882,27.5784 94.4925,27.6404 94.3983,27.706 C93.5582,28.2917 92.9545,29.0883 92.6076,29.9745 L82.2386,42.225 Z M85.3114,47.1316 L92.249,38.9352 L92.249,40.6109 L86.4549,47.4563 C86.056,47.3932 85.6729,47.283 85.3114,47.1316 Z M88.807,47.2703 C90.5763,46.6915 91.9075,45.1556 92.1923,43.2707 L88.807,47.2703 Z"/>
    <path fill="#E45C5C" d="M91.3388,14.617 C92.9251,16.8825 92.3745,20.0049 90.109,21.5912 C87.8436,23.1774 84.7211,22.6268 83.1349,20.3614 C81.5486,18.0959 82.0992,14.9735 84.3647,13.3872 C86.6301,11.8009 89.7526,12.3515 91.3388,14.617 Z M107.625,46.6141 C109.894,45.0323 110.439,41.9123 108.857,39.6432 L101.363,28.9304 C99.781,26.6613 96.6608,26.1159 94.3917,27.6977 C92.1226,29.2795 91.5772,32.3995 93.159,34.6686 L100.654,45.3814 C102.235,47.6505 105.355,48.196 107.625,46.6141 Z"/>
    <path stroke="#311E5E" stroke-width="3" d="M124.5,96 C124.5,111.74 111.74,124.5 96,124.5 C80.2599,124.5 67.5,111.74 67.5,96 C67.5,80.2599 80.2599,67.5 96,67.5 C111.74,67.5 124.5,80.2599 124.5,96 Z"/>
    <polygon fill="#FFF" fill-rule="nonzero" points="82.239 91.151 82.239 92.826 94.38 78.482 92.962 78.482"/>
    <polygon fill="#FFF" fill-rule="nonzero" points="90.767 78.482 89.349 78.482 82.239 86.882 82.239 88.558"/>
    <path fill="#FFF" fill-rule="nonzero" d="M82.2386 97.0952L82.2386 95.4194 96.5747 78.4819 97.2541 78.4819C97.4963 78.4819 97.7368 78.4889 97.9757 78.5026L82.2386 97.0952zM82.2386 99.688L82.2386 101.364 101.094 79.0869C100.717 78.9646 100.332 78.8599 99.941 78.7736L82.2386 99.688zM82.2386 105.632L82.2386 103.956 102.728 79.7487C103.06 79.9113 103.384 80.0882 103.698 80.2785L82.2386 105.632zM82.2386 108.225L82.2386 108.513C82.2386 108.931 82.29 109.337 82.3867 109.726L105.889 81.9582C105.629 81.7087 105.357 81.4702 105.076 81.2437L82.2386 108.225zM83.8851 112.224C83.6145 111.979 83.3709 111.704 83.1591 111.406L107.029 83.205C107.26 83.495 107.479 83.7956 107.685 84.1057L83.8851 112.224zM108.563 85.661L93.4572 103.508 94.8755 103.508 109.03 86.785C108.892 86.4014 108.736 86.0264 108.563 85.661zM92.249 104.935L85.3114 113.132C85.6729 113.283 86.056 113.393 86.4549 113.456L92.249 106.611 92.249 104.935zM88.807 113.27C90.5763 112.691 91.9075 111.156 92.1923 109.271L88.807 113.27zM97.2541 103.508L97.0702 103.508 109.559 88.7528C109.646 89.2322 109.706 89.7211 109.737 90.2176L98.544 103.442C98.12 103.485 97.6897 103.508 97.2541 103.508zM109.607 92.9641L101.233 102.858C102.042 102.585 102.814 102.232 103.54 101.808L108.96 95.4051C109.254 94.6252 109.473 93.8085 109.607 92.9641zM87.1536 78.4827C84.4362 78.5308 82.2386 80.7476 82.2386 83.4871L82.2386 84.2896 87.1536 78.4827z"/>
    <path fill="#FFF" fill-rule="nonzero" d="M90.1175 87.6021C92.382 86.0165 92.9323 82.8954 91.3468 80.6309 89.7612 78.3665 86.6401 77.8161 84.3756 79.4017 82.1111 80.9873 81.5607 84.1084 83.1463 86.3729 84.7319 88.6374 87.853 89.1877 90.1175 87.6021zM108.858 105.646C110.439 107.915 109.894 111.033 107.625 112.614 105.357 114.196 102.239 113.65 100.658 111.382L93.1661 100.674C91.585 98.406 92.1302 95.2872 94.3983 93.706 96.6665 92.1249 99.785 92.6701 101.366 94.9382L108.858 105.646z"/>
    <path fill="#E45C5C" d="M91.3388,80.617 C92.9251,82.8825 92.3745,86.0049 90.109,87.5912 C87.8436,89.1774 84.7211,88.6268 83.1349,86.3614 C81.5486,84.0959 82.0992,80.9735 84.3647,79.3872 C86.6301,77.801 89.7526,78.3515 91.3388,80.617 Z M107.625,112.614 C109.894,111.032 110.439,107.912 108.857,105.643 L101.363,94.9304 C99.781,92.6613 96.6608,92.1159 94.3917,93.6977 C92.1226,95.2795 91.5772,98.4 93.159,100.669 L100.654,111.381 C102.235,113.65 105.355,114.196 107.625,112.614 Z"/>
    <g fill-rule="nonzero" transform="translate(330)">
      <path fill="#7289DA" d="M30,60 C46.569,60 60,46.5685 60,30 C60,13.4315 46.569,0 30,0 C13.431,0 0,13.4315 0,30 C0,46.5685 13.431,60 30,60 Z"/>
      <path fill="#FFF" d="M38.0924658,42 C38.0924658,42 37.0445205,40.7714528 36.1712329,39.6857599 C39.984589,38.6286379 41.4400685,36.2858269 41.4400685,36.2858269 C40.2465753,37.0572403 39.1113014,37.6000867 38.0924658,37.971508 C36.6369863,38.5714961 35.239726,38.9714883 33.8715753,39.2000552 C31.0770548,39.7143308 28.515411,39.5714764 26.3321918,39.1714843 C24.6729452,38.8572048 23.2465753,38.4000709 22.0530822,37.9429371 C21.3835616,37.6857993 20.6558219,37.3715198 19.9280822,36.9715277 C19.8407534,36.9143859 19.7534247,36.8858151 19.6660959,36.8286733 C19.6078767,36.8001025 19.5787671,36.7715316 19.5496575,36.7429607 C19.0256849,36.4572521 18.734589,36.257256 18.734589,36.257256 C18.734589,36.257256 20.1318493,38.5429253 23.8287671,39.6286182 C22.9554795,40.7143111 21.8784247,42 21.8784247,42 C15.4452055,41.8000039 13,37.6572284 13,37.6572284 C13,28.4574097 17.1917808,21.0004138 17.1917808,21.0004138 C21.3835616,17.9147604 25.3715753,18.0002355 25.3715753,18.0002355 L25.6626712,18.3433233 C20.4229452,19.8290084 18.0068493,22.0861067 18.0068493,22.0861067 C18.0068493,22.0861067 18.6472603,21.7432563 19.7243151,21.2575516 C22.8390411,19.914721 25.3133562,19.5432997 26.3321918,19.4575871 C26.5068493,19.4290162 26.6523973,19.4004454 26.8270548,19.4004454 C28.6027397,19.1718784 30.6113014,19.1147367 32.7071918,19.3433036 C35.4726027,19.6575832 38.4417808,20.4575674 41.4691781,22.0861067 C41.4691781,22.0861067 39.1695205,19.9432918 34.2208904,18.4576068 L34.6284247,18.0002355 C34.6284247,18.0002355 38.6164384,17.9147604 42.8082192,21.0004138 C42.8082192,21.0004138 47,28.4574097 47,37.6572284 C47,37.6572284 44.5256849,41.8000039 38.0924658,42 L38.0924658,42 Z"/>
      <path fill="#7289DA" d="M25.0474517,27 C23.344464,27 22,28.5765766 22,30.5 C22,32.4234234 23.3743409,34 25.0474517,34 C26.7504394,34 28.0949033,32.4234234 28.0949033,30.5 C28.1247803,28.5765766 26.7504394,27 25.0474517,27 Z M35.9525483,27 C34.2495606,27 32.9050967,28.5765766 32.9050967,30.5 C32.9050967,32.4234234 34.2794376,34 35.9525483,34 C37.655536,34 39,32.4234234 39,30.5 C39,28.5765766 37.655536,27 35.9525483,27 Z"/>
    </g>
    <g fill-rule="nonzero" transform="translate(343 84)">
      <path fill="#FFF" d="M25.0924658,24 C25.0924658,24 24.0445205,22.7714528 23.1712329,21.6857599 C26.984589,20.6286379 28.4400685,18.2858269 28.4400685,18.2858269 C27.2465753,19.0572403 26.1113014,19.6000867 25.0924658,19.971508 C23.6369863,20.5714961 22.239726,20.9714883 20.8715753,21.2000552 C18.0770548,21.7143308 15.515411,21.5714764 13.3321918,21.1714843 C11.6729452,20.8572048 10.2465753,20.4000709 9.05308219,19.9429371 C8.38356164,19.6857993 7.65582192,19.3715198 6.92808219,18.9715277 C6.84075342,18.9143859 6.75342466,18.8858151 6.66609589,18.8286733 C6.60787671,18.8001025 6.57876712,18.7715316 6.54965753,18.7429607 C6.02568493,18.4572521 5.73458904,18.257256 5.73458904,18.257256 C5.73458904,18.257256 7.13184932,20.5429253 10.8287671,21.6286182 C9.95547945,22.7143111 8.87842466,24 8.87842466,24 C2.44520548,23.8000039 0,19.6572284 0,19.6572284 C0,10.4574097 4.19178082,3.00041384 4.19178082,3.00041384 C8.38356164,-0.0852396335 12.3715753,0.000235532038 12.3715753,0.000235532038 L12.6626712,0.343323349 C7.42294521,1.82900836 5.00684932,4.08610673 5.00684932,4.08610673 C5.00684932,4.08610673 5.64726027,3.74325635 6.72431507,3.25755163 C9.8390411,1.91472095 12.3133562,1.5432997 13.3321918,1.4575871 C13.5068493,1.42901624 13.6523973,1.40044537 13.8270548,1.40044537 C15.6027397,1.17187845 17.6113014,1.11473672 19.7071918,1.34330364 C22.4726027,1.65758316 25.4417808,2.4575674 28.4691781,4.08610673 C28.4691781,4.08610673 26.1695205,1.94329182 21.2208904,0.457606811 L21.6284247,0.000235532038 C21.6284247,0.000235532038 25.6164384,-0.0852396335 29.8082192,3.00041384 C29.8082192,3.00041384 34,10.4574097 34,19.6572284 C34,19.6572284 31.5256849,23.8000039 25.0924658,24 L25.0924658,24 Z"/>
      <path fill="#7289DA" d="M12.0474517,9 C10.344464,9 9,10.5765766 9,12.5 C9,14.4234234 10.3743409,16 12.0474517,16 C13.7504394,16 15.0949033,14.4234234 15.0949033,12.5 C15.1247803,10.5765766 13.7504394,9 12.0474517,9 Z M22.9525483,9 C21.2495606,9 19.9050967,10.5765766 19.9050967,12.5 C19.9050967,14.4234234 21.2794376,16 22.9525483,16 C24.655536,16 26,14.4234234 26,12.5 C26,10.5765766 24.655536,9 22.9525483,9 Z"/>
    </g>
  </g>
</svg>
