<svg xmlns="http://www.w3.org/2000/svg" viewBox="0 0 460.2 130" enable-background="new 0 0 460.2 130"><style type="text/css">.st0{fill:#55ACEE;} .st1{fill:#FFFFFF;} .st2{fill:#5F99CF;} .st3{fill:#FF4500;} .st4{fill:url(#SVGID_1_);} .st5{opacity:0.12;enable-background:new ;} .st6{fill:#472A49;} .st7{fill:#FFA300;} .st8{fill:url(#SVGID_2_);} .st9{fill:#70CADB;} .st10{fill:#3EB890;} .st11{fill:#E01765;} .st12{fill:#E8A723;} .st13{fill:#1A937D;} .st14{fill:#65863A;} .st15{fill:#CC2027;} .st16{fill:#F00101;} .st17{fill:#4799DD;} .st18{fill:#8CDB5E;} .st19{fill:url(#SVGID_3_);} .st20{fill:#C8DAEA;} .st21{fill:#A9C6D8;} .st22{fill:url(#SVGID_4_);}</style><circle class="st0" cx="296" cy="32" r="30"/><path id="light_87_" class="st1" d="M312.5 24.5c-1.1.5-2.3.8-3.5 1 1.3-.8 2.2-2 2.7-3.4-1.2.7-2.5 1.2-3.9 1.5-1.1-1.2-2.7-1.9-4.5-1.9-3.4 0-6.2 2.8-6.2 6.2 0 .5.1 1 .2 1.4-5.1-.3-9.7-2.7-12.7-6.4-.5.9-.8 2-.8 3.1 0 2.1 1.1 4 2.7 5.1-1 0-2-.3-2.8-.8v.1c0 3 2.1 5.5 4.9 6-.5.1-1.1.2-1.6.2-.4 0-.8 0-1.2-.1.8 2.4 3.1 4.2 5.7 4.3-2.1 1.7-4.8 2.6-7.6 2.6-.5 0-1 0-1.5-.1 2.7 1.7 6 2.8 9.4 2.8 11.3 0 17.5-9.4 17.5-17.5v-.8c1.3-1 2.4-2.1 3.2-3.3z"/><circle class="st2" cx="230" cy="32" r="30"/><path id="head_1_" class="st1" d="M246.3 31.8c0-2-1.7-3.7-3.7-3.7-.8 0-1.5.2-2.1.7l-.4.3c-2.4-1.6-5.6-2.5-9.2-2.7l1.9-6 5.2 1.2c0 1.7 1.4 3.1 3.1 3.1 1.7 0 3.1-1.4 3.1-3.1s-1.4-3.1-3.1-3.1c-1.2 0-2.3.7-2.8 1.8l-5.7-1.3c-.3-.1-.6.1-.7.4l-2.2 6.9c-3.7.1-7.1 1.1-9.6 2.7l-.4-.3c-.6-.4-1.4-.7-2.1-.7-2 0-3.7 1.7-3.7 3.7 0 1.1.5 2.2 1.4 2.9l.4.4c0 .3-.1.7-.1 1 0 5.4 6.5 9.7 14.5 9.7s14.5-4.4 14.5-9.7c0-.3 0-.7-.1-1l.4-.4c.9-.7 1.4-1.7 1.4-2.8zm-11.1 8.8c-1.1 1.1-2.8 1.6-5.2 1.6s-4.1-.5-5.2-1.6c-.2-.2-.2-.6 0-.9.1-.1.3-.2.4-.2.2 0 .3.1.4.2.8.8 2.3 1.3 4.4 1.3 2.1 0 3.5-.4 4.4-1.3.1-.1.3-.2.4-.2.2 0 .3.1.4.2.3.3.3.7 0 .9z"/><circle id="eye_51_" class="st3" cx="234.9" cy="34.2" r="2.3"/><circle id="eye_50_" class="st3" cx="225.1" cy="34.2" r="2.2"/><linearGradient id="SVGID_1_" gradientUnits="userSpaceOnUse" x1="164" y1="67.89" x2="164" y2="127.89" gradientTransform="matrix(1 0 0 -1 0 129.89)"><stop offset="0" stop-color="#BE2126"/><stop offset="1" stop-color="#E32E28"/></linearGradient><circle class="st4" cx="164" cy="32" r="30"/><path id="The_Sharpness_53_" class="st5" d="M160.9 27.5l7.1 4.7 1-.5-8.1-4.2z"/><path class="st1" d="M178.7 26s-.3-2.1-1.2-3c-1.1-1.2-2.4-1.2-3-1.3-4.2-.3-10.5-.3-10.5-.3s-6.3 0-10.5.3c-.6.1-1.9.1-3 1.3-.9.9-1.2 3-1.2 3s-.3 2.4-.3 4.9v2.3c0 2.4.3 4.9.3 4.9s.3 2.1 1.2 3c1.1 1.2 2.6 1.2 3.3 1.3 2.4.2 10.2.3 10.2.3s6.3 0 10.5-.3c.6-.1 1.9-.1 3-1.3.9-.9 1.2-3 1.2-3s.3-2.4.3-4.9v-2.3c0-2.5-.3-4.9-.3-4.9zm-17.8 9.9v-8.4l8.1 4.2-8.1 4.2z"/><circle class="st6" cx="98" cy="32" r="30"/><path class="st1" d="M95.353 30.668l3.982-1.334 1.303 3.888-3.983 1.334zM95.353 30.668l3.982-1.334 1.303 3.888-3.983 1.334zM111.7 27.9c-3.1-10.3-7.6-12.7-17.9-9.6s-12.7 7.6-9.6 17.9 7.6 12.7 17.9 9.6c10.3-3.1 12.7-7.6 9.6-17.9zm-5.2 6.7l-1.9.7.7 2c.3.8-.2 1.7-1 2-.2.1-.4.1-.5.1-.6 0-1.2-.4-1.4-1.1l-.7-2-4 1.3.7 2c.3.8-.2 1.7-1 2-.2.1-.4.1-.5.1-.6 0-1.2-.4-1.4-1.1l-.7-2-1.9.7c-.2.1-.4.1-.5.1-.6 0-1.2-.4-1.4-1.1-.3-.8.2-1.7 1-2l1.9-.7-1.3-3.9-1.9.7c-.2.1-.4.1-.5.1-.6 0-1.2-.4-1.4-1.1-.3-.8.2-1.7 1-2l1.9-.7-.7-2c-.3-.8.2-1.7 1-2s1.7.2 2 1l.7 2 4-1.3-.7-2c-.3-.8.2-1.7 1-2s1.7.2 2 1l.7 2 1.9-.7c.8-.3 1.7.2 2 1s-.2 1.7-1 2l-1.9.7 1.3 3.9 1.9-.7c.8-.3 1.7.2 2 1-.1.8-.6 1.7-1.4 2z"/><circle id="XMLID_11_" class="st7" cx="32" cy="32" r="30"/><path class="st1" d="M28.8 38.7c0 1.5 1.2 2.7 2.7 2.7H42l4.9 2.2V30.4c0-1.5-1.2-2.7-2.7-2.7H31.6c-1.5 0-2.7 1.2-2.7 2.7v8.3h-.1zM27 30.4c0-2.5 2.1-4.6 4.6-4.6h3.6V23c0-1.5-1.2-2.7-2.7-2.7H19.7c-1.5 0-2.7 1.2-2.7 2.7v13.3l4.9-2.2h5v-3.7h.1z"/><linearGradient id="SVGID_2_" gradientUnits="userSpaceOnUse" x1="164" y1="1.89" x2="164" y2="61.89" gradientTransform="matrix(1 0 0 -1 0 129.89)"><stop offset="0" stop-color="#BE2126"/><stop offset="1" stop-color="#E32E28"/></linearGradient><path class="st8" d="M164 68c-16.6 0-30 13.4-30 30s13.4 30 30 30 30-13.4 30-30-13.4-30-30-30zm0 57.3c-15.1 0-27.3-12.2-27.3-27.3s12.2-27.3 27.3-27.3 27.3 12.2 27.3 27.3-12.2 27.3-27.3 27.3z"/><path id="The_Sharpness_51_" class="st5" d="M160.9 93.5l7.1 4.7 1-.5-8.1-4.2z"/><path class="st1" d="M178.7 92s-.3-2.1-1.2-3c-1.1-1.2-2.4-1.2-3-1.3-4.2-.3-10.5-.3-10.5-.3s-6.3 0-10.5.3c-.6.1-1.9.1-3 1.3-.9.9-1.2 3-1.2 3s-.3 2.4-.3 4.9v2.3c0 2.4.3 4.9.3 4.9s.3 2.1 1.2 3c1.1 1.2 2.6 1.2 3.3 1.3 2.4.2 10.2.3 10.2.3s6.3 0 10.5-.3c.6-.1 1.9-.1 3-1.3.9-.9 1.2-3 1.2-3s.3-2.4.3-4.9v-2.3c0-2.5-.3-4.9-.3-4.9zm-17.8 9.9v-8.4l8.1 4.2-8.1 4.2z"/><path class="st2" d="M230 68c-16.6 0-30 13.4-30 30s13.4 30 30 30 30-13.4 30-30-13.4-30-30-30zm0 57.3c-15.1 0-27.3-12.2-27.3-27.3s12.2-27.3 27.3-27.3 27.3 12.2 27.3 27.3-12.2 27.3-27.3 27.3z"/><path id="head" class="st1" d="M246.3 97.8c0-2-1.7-3.7-3.7-3.7-.8 0-1.5.2-2.1.7l-.4.3c-2.4-1.6-5.6-2.5-9.2-2.7l1.9-6 5.2 1.2c0 1.7 1.4 3.1 3.1 3.1 1.7 0 3.1-1.4 3.1-3.1s-1.4-3.1-3.1-3.1c-1.2 0-2.3.7-2.8 1.8l-5.7-1.3c-.3-.1-.6.1-.7.4l-2.2 6.9c-3.7.1-7.1 1.1-9.6 2.7l-.4-.3c-.6-.4-1.4-.7-2.1-.7-2 0-3.7 1.7-3.7 3.7 0 1.1.5 2.2 1.4 2.9l.4.4c0 .3-.1.7-.1 1 0 5.4 6.5 9.7 14.5 9.7s14.5-4.4 14.5-9.7c0-.3 0-.7-.1-1l.4-.4c.9-.7 1.4-1.7 1.4-2.8zm-11.1 8.8c-1.1 1.1-2.8 1.6-5.2 1.6s-4.1-.5-5.2-1.6c-.2-.2-.2-.6 0-.9.1-.1.3-.2.4-.2.2 0 .3.1.4.2.8.8 2.3 1.3 4.4 1.3 2.1 0 3.5-.4 4.4-1.3.1-.1.3-.2.4-.2.2 0 .3.1.4.2.3.3.3.7 0 .9z"/><circle id="eye_49_" class="st3" cx="234.9" cy="100.2" r="2.3"/><circle id="eye_48_" class="st3" cx="225.1" cy="100.2" r="2.2"/><path class="st9" d="M98 68c-15.9 0-28.8 12.3-29.9 27.9.9-.3 1.8-.6 2.8-.9 1.5-13.7 13-24.3 27.1-24.3 8 0 15.2 3.4 20.2 8.9.9-.3 1.9-.6 2.8-.9-5.5-6.5-13.8-10.7-23-10.7z"/><path class="st10" d="M95 125.2c-13.7-1.5-24.3-13.1-24.3-27.2 0-8 3.4-15.2 8.9-20.2-.3-.9-.6-1.9-.9-2.8C72.2 80.6 68 88.8 68 98c0 15.9 12.3 28.8 27.9 29.9l-.9-2.7z"/><path class="st11" d="M98 128c15.9 0 28.8-12.3 29.9-27.9l-2.8.9c-1.5 13.7-13.1 24.3-27.2 24.3-8 0-15.2-3.4-20.2-8.9l-2.8.9C80.6 123.8 88.8 128 98 128z"/><path class="st12" d="M100.1 68.1l.9 2.8c13.7 1.5 24.3 13.1 24.3 27.2 0 8-3.4 15.2-8.9 20.2l.9 2.8c6.5-5.5 10.7-13.7 10.7-22.9 0-16.1-12.3-29-27.9-30.1z"/><path class="st11" d="M98 128c15.9 0 28.8-12.3 29.9-27.9l-2.8.9c-1.5 13.7-13.1 24.3-27.2 24.3-8 0-15.2-3.4-20.2-8.9l-2.8.9C80.6 123.8 88.8 128 98 128z"/><path class="st10" d="M95 125.2c-13.7-1.5-24.3-13.1-24.3-27.2 0-8 3.4-15.2 8.9-20.2-.3-.9-.6-1.9-.9-2.8C72.2 80.6 68 88.8 68 98c0 15.9 12.3 28.8 27.9 29.9l-.9-2.7z"/><path class="st12" d="M100.1 68.1l.9 2.8c13.7 1.5 24.3 13.1 24.3 27.2 0 8-3.4 15.2-8.9 20.2l.9 2.8c6.5-5.5 10.7-13.7 10.7-22.9 0-16.1-12.3-29-27.9-30.1z"/><path class="st13" d="M68.1 95.9c.9-.3 1.8-.6 2.8-.9.7-6.8 4-12.8 8.7-17.2-.3-1-.6-1.9-.9-2.8-6 5.1-10 12.5-10.6 20.9z"/><path class="st14" d="M100.1 68.1l.9 2.8c6.8.7 12.8 4 17.2 8.7 1-.3 1.9-.6 2.8-.9-5.1-6-12.5-10-20.9-10.6z"/><path class="st15" d="M127.9 100.1l-2.8.9c-.7 6.8-4 12.8-8.7 17.2l.9 2.8c6-5.1 10-12.5 10.6-20.9z"/><path class="st6" d="M95.9 127.9c-.3-.9-.6-1.8-.9-2.8-6.8-.7-12.8-4-17.2-8.7l-2.8.9c5.1 6 12.5 10 20.9 10.6z"/><path class="st13" d="M68.1 95.9c.9-.3 1.8-.6 2.8-.9.7-6.8 4-12.8 8.7-17.2-.3-1-.6-1.9-.9-2.8-6 5.1-10 12.5-10.6 20.9z"/><path class="st14" d="M100.1 68.1l.9 2.8c6.8.7 12.8 4 17.2 8.7 1-.3 1.9-.6 2.8-.9-5.1-6-12.5-10-20.9-10.6z"/><path class="st15" d="M127.9 100.1l-2.8.9c-.7 6.8-4 12.8-8.7 17.2l.9 2.8c6-5.1 10-12.5 10.6-20.9z"/><path class="st6" d="M95.9 127.9c-.3-.9-.6-1.8-.9-2.8-6.8-.7-12.8-4-17.2-8.7l-2.8.9c5.1 6 12.5 10 20.9 10.6z"/><path class="st1" d="M95.352 96.666l3.983-1.334 1.302 3.888-3.983 1.334zM95.352 96.666l3.983-1.334 1.302 3.888-3.983 1.334zM111.7 93.9c-3.1-10.3-7.6-12.7-17.9-9.6s-12.7 7.6-9.6 17.9 7.6 12.7 17.9 9.6c10.3-3.1 12.7-7.6 9.6-17.9zm-5.2 6.7l-1.9.7.7 2c.3.8-.2 1.7-1 2-.2.1-.4.1-.5.1-.6 0-1.2-.4-1.4-1.1l-.7-2-4 1.3.7 2c.3.8-.2 1.7-1 2-.2.1-.4.1-.5.1-.6 0-1.2-.4-1.4-1.1l-.7-2-1.9.7c-.2.1-.4.1-.5.1-.6 0-1.2-.4-1.4-1.1-.3-.8.2-1.7 1-2l1.9-.7-1.3-3.9-1.9.7c-.2.1-.4.1-.5.1-.6 0-1.2-.4-1.4-1.1-.3-.8.2-1.7 1-2l1.9-.7-.7-2c-.3-.8.2-1.7 1-2s1.7.2 2 1l.7 2 4-1.3-.7-2c-.3-.8.2-1.7 1-2s1.7.2 2 1l.7 2 1.9-.7c.8-.3 1.7.2 2 1s-.2 1.7-1 2l-1.9.7 1.3 3.9 1.9-.7c.8-.3 1.7.2 2 1-.1.8-.6 1.7-1.4 2z"/><path class="st0" d="M296 68c-16.6 0-30 13.4-30 30s13.4 30 30 30 30-13.4 30-30-13.4-30-30-30zm0 57.3c-15.1 0-27.3-12.2-27.3-27.3s12.2-27.3 27.3-27.3c15.1 0 27.3 12.2 27.3 27.3s-12.2 27.3-27.3 27.3z"/><path id="light_84_" class="st1" d="M312.5 90.5c-1.1.5-2.3.8-3.5 1 1.3-.8 2.2-2 2.7-3.4-1.2.7-2.5 1.2-3.9 1.5-1.1-1.2-2.7-1.9-4.5-1.9-3.4 0-6.2 2.8-6.2 6.2 0 .5.1 1 .2 1.4-5.1-.3-9.7-2.7-12.7-6.4-.5.9-.8 2-.8 3.1 0 2.1 1.1 4 2.7 5.1-1 0-2-.3-2.8-.8v.1c0 3 2.1 5.5 4.9 6-.5.1-1.1.2-1.6.2-.4 0-.8 0-1.2-.1.8 2.4 3.1 4.2 5.7 4.3-2.1 1.7-4.8 2.6-7.6 2.6-.5 0-1 0-1.5-.1 2.7 1.7 6 2.8 9.4 2.8 11.3 0 17.5-9.4 17.5-17.5v-.8c1.3-1 2.4-2.1 3.2-3.3z"/><path class="st16" d="M362 68c-16.6 0-30 13.4-30 30s13.4 30 30 30 30-13.4 30-30-13.4-30-30-30zm0 57.3c-15.1 0-27.3-12.2-27.3-27.3s12.2-27.3 27.3-27.3c15.1 0 27.3 12.2 27.3 27.3s-12.2 27.3-27.3 27.3z"/><path class="st17" d="M32 70.7c5 0 9.6 1.3 13.7 3.7L47 72c-4.4-2.6-9.5-4-15-4C15.4 68 2 81.4 2 98h2.7c0-15.1 12.2-27.3 27.3-27.3z"/><path class="st7" d="M62 98c0-11.1-6-20.8-15-26l-1.3 2.3C53.9 79 59.4 87.8 59.4 98c0 10.1-5.5 18.9-13.7 23.7L47 124c9-5.2 15-14.9 15-26z"/><path class="st18" d="M32 128c5.5 0 10.6-1.5 15-4l-1.3-2.3c-4 2.3-8.7 3.7-13.7 3.7-15.1 0-27.3-12.2-27.3-27.3H2C2 114.6 15.4 128 32 128z"/><path class="st1" d="M44.3 93.7H31.6c-1.5 0-2.7 1.2-2.7 2.7v8.3c0 1.5 1.2 2.7 2.7 2.7h10.5l4.9 2.2V96.4c0-1.5-1.2-2.7-2.7-2.7zM35.2 91.8V89c0-1.5-1.2-2.7-2.7-2.7H19.7c-1.5 0-2.7 1.2-2.7 2.7v13.3l4.9-2.2h5v-3.6c0-2.5 2.1-4.6 4.6-4.6h3.7v-.1z"/><circle class="st16" cx="362" cy="32" r="30"/><path class="st1" d="M377.6 22.7c-.2-.5-.7-.9-1.2-1.1l-.4-.1h-28.1l-.4.1c-.4.2-.9.6-1.1 1.1l-.2.3v18l.2.3c.2.4.7.9 1.1 1.1.3.1.5.1 14.4.1H376l.4-.1c.4-.2.9-.6 1.2-1.1l.1-.3V23l-.1-.3zm-.2 10.7v6.3h-30.8V27.1h30.8v6.3zM355.5 34.9c0-.1 0-.2-.1-.4s-.2-.6-.2-.9c-.3-1.4-.4-1.9-.7-2.9-.1-.5-.2-.5-.9-.6-.6 0-.6 0-.7.1-.3.4-.7 1.9-.8 2.8l-.1.6-.6-1.1c-.3-.6-.6-1.2-.7-1.3-.1-.2-.7-.2-1.1-.1l-.3.1v1.1c0 1.1 0 1.5.1 2.8.1.8.2.9.5.9s1-.2 1-.4c0 0 0-.4-.1-.7 0-.4-.1-.6-.1-.7 0 0 .2.3.4.7.2.4.5.8.6.9l.1.2.6-.1.6-.1.1-.3c0-.2.1-.9.1-1.6 0-.7.1-1.3.1-1.3s.2.4.3 1c.1.5.4 1.5.6 2 .1.2.2.4.2.5v.2c0 .1.1.1.1.1.2 0 .9-.2.9-.2s.1-.1.1 0c.1.1 0-.1-.1-.6.2-.3.1-.6.1-.7zM358.5 35.6c-.1.1-.3.1-.5.1-.3 0-.3 0-.5-.1-.3-.3-.5-.6-.5-1.2v-.5h.3c.5.1 1.4.1 1.5 0 .2-.3.1-2.5-.1-2.9-.1-.2-.2-.2-.5-.3-.8-.2-.8-.2-1.2.1-.6.4-1 .8-1.1 1.4-.2.6-.2 1-.2 2 0 1.1.1 1.3.6 1.6.4.3.6.4.9.5.5.1 1.5 0 2.1-.2l.3-.1-.1-.2c-.1-.2-.7-.3-1-.2zm-1.3-2.7c.1-.3.3-.9.4-.9 0 0 .1.3.1.7 0 .7 0 .7-.4.6-.1-.2-.1-.2-.1-.4zM366.1 33.1c-.3-.3-.5-.4-.6-.4s-.2 0-.2.2c0 .1 0 .2-.1.2s-.1 0-.1-.2c.1-.2.1-.1 0-2.4 0-1-.1-1.8-.1-1.8-.1-.1-.7-.4-.9-.4-.2 0-.3 0-.3.2-.2.4-.1 1.8.1 3.8 0 .3.1.6.1.7v.3h-.4c-.5-.1-.7.1-.7.3 0 .3.1.3.7.4.3 0 .5.1.5.1s.1.6.1 1.3l.1 1.2h.3c.6 0 .6 0 .5-1.3v-1.2h.3c.9-.1 1.2-.2 1.2-.3 0-.2-.2-.5-.5-.7zM363 35.4c-.3-.2-.4-.2-.5 0-.2.3-.9.4-1.3.2-.3-.1-.6-.7-.6-1 0-.4 0-.4.6-.3.4.1.5.1.8 0l.4-.1v-.9c0-.5 0-.9.1-.9 0 0 .1-.4.1-.8 0-.7 0-.7-.1-.9-.1-.1-.2-.1-.2-.1s-.2-.1-.4-.1c-.2-.1-.4-.1-.5-.1-.2 0-.3.1-.6.4-.7.7-.8 1-1.2 2.4-.1.5-.1.7-.1 1.1 0 .5.1.6.3 1 .4.6.7.8 1.7.9.6.1 1 0 1.6-.3.2-.1.2-.3-.1-.5zm-1.8-3.4c.1-.2.1-.2.1.5v.9c0 .1-.1.1-.2.1-.2 0-.3-.1-.3-.2 0 0 .3-1 .4-1.3zM369.9 32.5c-.8-.4-.8-.3-.8.8 0 .4 0 .9-.1 1.1-.1.3-.6 1.2-.8 1.2-.1 0-.1-.2-.2-1.6-.1-1.3 0-1.3-.6-1.6-.3-.1-.7-.2-.7-.1-.1.1-.1.5 0 1.2.1 1.4.4 2.3.7 2.6.2.1.9.1 1.3 0 .2-.1.9-.7.9-.8h-.1c-.1.1-.1.1 0 0 0-.1.1-.1.1-.1s.2-.1.2-.3c.1-.2.2-.3.3-.4.2-.2.3-.4.4-1.1 0-.7 0-.7-.6-.9zM374.7 32.2c-.1-.5-.3-1.1-.5-1.2-.1 0-.2-.1-.3-.1-.5-.2-.8-.3-1-.3-.4 0-1.3.7-1.6 1.3-.3.5-.6 1.6-.6 2.3 0 .5-.1.8-.2.8-.3 0-.3.3-.1.6.2.2.2.2.2.8.1 1.1.3 2.3.4 2.4.1.1 1 0 1.1 0 0 0 0-.2-.1-.3-.1-.4-.2-1.1-.2-1.9V36l.3-.1c.7-.2 2-1.4 2.3-2.1.2-.5.3-1.1.3-1.6zm-1.6 1.4c-.1.2-.4.5-.7.8l-.5.5c-.1 0 0-.1.1-.9.2-.9.5-1.5.9-2 .3-.3.3-.3.4.3.1.2 0 .9-.2 1.3zM377.6 88.7c-.2-.5-.7-.9-1.2-1.1l-.4-.1h-28.1l-.4.1c-.4.2-.9.6-1.1 1.1l-.2.3v18l.2.3c.2.4.7.9 1.1 1.1.3.1.5.1 14.4.1H376l.4-.1c.4-.2.9-.6 1.2-1.1l.1-.3V89l-.1-.3zm-.2 10.7v6.3h-30.8V93.1h30.8v6.3zM355.5 100.9c0-.1 0-.2-.1-.4s-.2-.6-.2-.9c-.3-1.4-.4-1.9-.7-2.9-.1-.5-.2-.5-.9-.6-.6 0-.6 0-.7.1-.3.4-.7 1.9-.8 2.8l-.1.6-.6-1.1c-.3-.6-.6-1.2-.7-1.3-.1-.2-.7-.2-1.1-.1l-.3.1v1.1c0 1.1 0 1.5.1 2.8.1.8.2.9.5.9s1-.2 1-.4c0 0 0-.4-.1-.7 0-.4-.1-.6-.1-.7 0 0 .2.3.4.7.2.4.5.8.6.9l.1.2.6-.1.6-.1.1-.3c0-.2.1-.9.1-1.6s.1-1.3.1-1.3.2.4.3 1c.1.5.4 1.5.6 2 .1.2.2.4.2.5v.2c0 .1.1.1.1.1.2 0 .9-.2.9-.2s.1-.1.1 0c.1.1 0-.1-.1-.6.2-.3.1-.6.1-.7zM358.5 101.6c-.1.1-.3.1-.5.1-.3 0-.3 0-.5-.1-.3-.3-.5-.6-.5-1.2v-.5h.3c.5.1 1.4.1 1.5 0 .2-.3.1-2.5-.1-2.9-.1-.2-.2-.2-.5-.3-.8-.2-.8-.2-1.2.1-.6.4-1 .8-1.1 1.4-.2.6-.2 1-.2 2 0 1.1.1 1.3.6 1.6.4.3.6.4.9.5.5.1 1.5 0 2.1-.2l.3-.1-.1-.2c-.1-.2-.7-.3-1-.2zm-1.3-2.7c.1-.3.3-.9.4-.9 0 0 .1.3.1.7 0 .7 0 .7-.4.6-.1-.2-.1-.2-.1-.4zM366.1 99.1c-.3-.3-.5-.4-.6-.4s-.2 0-.2.2c0 .1 0 .2-.1.2s-.1 0-.1-.2c.1-.2.1-.1 0-2.4 0-1-.1-1.8-.1-1.8-.1-.1-.7-.4-.9-.4-.2 0-.3 0-.3.2-.2.4-.1 1.8.1 3.8 0 .3.1.6.1.7v.3h-.4c-.5-.1-.7.1-.7.3 0 .3.1.3.7.4.3 0 .5.1.5.1s.1.6.1 1.3l.1 1.2h.3c.6 0 .6 0 .5-1.3v-1.2h.3c.9-.1 1.2-.2 1.2-.3 0-.2-.2-.5-.5-.7zM363 101.4c-.3-.2-.4-.2-.5 0-.2.3-.9.4-1.3.2-.3-.1-.6-.7-.6-1 0-.4 0-.4.6-.3.4.1.5.1.8 0l.4-.1v-.9c0-.5 0-.9.1-.9 0 0 .1-.4.1-.8 0-.7 0-.7-.1-.9-.1-.1-.2-.1-.2-.1s-.2-.1-.4-.1c-.2-.1-.4-.1-.5-.1-.2 0-.3.1-.6.4-.7.7-.8 1-1.2 2.4-.1.5-.1.7-.1 1.1 0 .5.1.6.3 1 .4.6.7.8 1.7.9.6.1 1 0 1.6-.3.2-.1.2-.3-.1-.5zm-1.8-3.4c.1-.2.1-.2.1.5v.9s-.1.1-.2.1c-.2 0-.3-.1-.3-.2 0 0 .3-1 .4-1.3zM369.9 98.5c-.8-.4-.8-.3-.8.8 0 .4 0 .9-.1 1.1-.1.3-.6 1.2-.8 1.2-.1 0-.1-.2-.2-1.6-.1-1.3 0-1.3-.6-1.6-.3-.1-.7-.2-.7-.1-.1.1-.1.5 0 1.2.1 1.4.4 2.3.7 2.6.2.1.9.1 1.3 0 .2-.1.9-.7.9-.8h-.1c-.1.1-.1.1 0 0 0-.1.1-.1.1-.1s.2-.1.2-.3c.1-.2.2-.3.3-.4.2-.2.3-.4.4-1.1 0-.7 0-.7-.6-.9zM374.7 98.2c-.1-.5-.3-1.1-.5-1.2-.1 0-.2-.1-.3-.1-.5-.2-.8-.3-1-.3-.4 0-1.3.7-1.6 1.3-.3.5-.6 1.6-.6 2.3 0 .5-.1.8-.2.8-.3 0-.3.3-.1.6.2.2.2.2.2.8.1 1.1.3 2.3.4 2.4s1 0 1.1 0c0 0 0-.2-.1-.3-.1-.4-.2-1.1-.2-1.9v-.6l.3-.1c.7-.2 2-1.4 2.3-2.1.2-.5.3-1.1.3-1.6zm-1.6 1.4c-.1.2-.4.5-.7.8l-.5.5c-.1 0 0-.1.1-.9.2-.9.5-1.5.9-2 .3-.3.3-.3.4.3.1.2 0 .9-.2 1.3z"/><linearGradient id="SVGID_3_" gradientUnits="userSpaceOnUse" x1="428" y1="62" x2="428" y2="2"><stop offset="0" stop-color="#1D93D2"/><stop offset="1" stop-color="#38B0E3"/></linearGradient><circle class="st19" cx="428" cy="32" r="30"/><path class="st20" d="M418.3 34.2l3.6 9.9s.4.9.9.9 7.6-7.4 7.6-7.4l7.9-15.2-19.8 9.3-.2 2.5z"/><path class="st21" d="M423 36.7l-.7 7.3s-.3 2.2 1.9 0c2.2-2.2 4.4-3.9 4.4-3.9"/><path class="st1" d="M418.4 34.5l-7.3-2.4s-.9-.4-.6-1.2c.1-.2.2-.3.5-.6 1.6-1.1 30-11.3 30-11.3s.8-.3 1.3-.1c.2.1.4.2.5.5 0 .1.1.4.1.6v.6c-.2 2.8-5.3 23.6-5.3 23.6s-.3 1.2-1.4 1.3c-.4 0-.9-.1-1.5-.6-2.2-1.9-9.7-6.9-11.4-8-.1-.1-.1-.1-.1-.2s.1-.3.1-.3 13.1-11.7 13.5-12.9c0-.1-.1-.1-.2-.1-.9.3-16 9.8-17.6 10.9-.4.3-.6.2-.6.2z"/><path class="st20" d="M418.3 100.2l3.6 9.9s.4.9.9.9 7.6-7.4 7.6-7.4l7.9-15.2-19.8 9.3-.2 2.5z"/><path class="st21" d="M423 102.7l-.7 7.3s-.3 2.2 1.9 0c2.2-2.2 4.4-3.9 4.4-3.9"/><path class="st1" d="M418.4 100.5l-7.3-2.4s-.9-.4-.6-1.2c.1-.2.2-.3.5-.6 1.6-1.1 30-11.3 30-11.3s.8-.3 1.3-.1c.2.1.4.2.5.5 0 .1.1.4.1.6v.6c-.2 2.8-5.3 23.6-5.3 23.6s-.3 1.2-1.4 1.3c-.4 0-.9-.1-1.5-.6-2.2-1.9-9.7-6.9-11.4-8-.1-.1-.1-.1-.1-.2s.1-.3.1-.3 13.1-11.7 13.5-12.9c0-.1-.1-.1-.2-.1-.9.3-16 9.8-17.6 10.9-.4.3-.6.2-.6.2z"/><linearGradient id="SVGID_4_" gradientUnits="userSpaceOnUse" x1="428" y1="128" x2="428" y2="68"><stop offset="0" stop-color="#1D93D2"/><stop offset="1" stop-color="#38B0E3"/></linearGradient><path class="st22" d="M428 68c-16.6 0-30 13.4-30 30s13.4 30 30 30 30-13.4 30-30-13.4-30-30-30zm0 57.2c-15 0-27.2-12.2-27.2-27.2S413 70.8 428 70.8 455.2 83 455.2 98 443 125.2 428 125.2z"/></svg>