<?xml version="1.0" encoding="utf-8"?>
<!-- Generator: Adobe Illustrator 21.1.0, SVG Export Plug-In . SVG Version: 6.00 Build 0)  -->
<svg version="1.1" id="Layer_1" xmlns="http://www.w3.org/2000/svg" xmlns:xlink="http://www.w3.org/1999/xlink" x="0px" y="0px"
	 viewBox="0 0 125.5 130" style="enable-background:new 0 0 125.5 130;" xml:space="preserve">
<style type="text/css">
	.st0{fill:#55ACEE;}
	.st1{fill:#FFFFFF;}
	.st2{fill:#5F99CF;}
	.st3{fill:#FF4500;}
	.st4{fill:url(#SVGID_1_);}
	.st5{opacity:0.12;enable-background:new    ;}
	.st6{fill:#472A49;}
	.st7{fill:#FFA300;}
	.st8{fill:url(#SVGID_2_);}
	.st9{fill:#70CADB;}
	.st10{fill:#3EB890;}
	.st11{fill:#E01765;}
	.st12{fill:#E8A723;}
	.st13{fill:#1A937D;}
	.st14{fill:#65863A;}
	.st15{fill:#CC2027;}
	.st16{fill:#F00101;}
	.st17{fill:#4799DD;}
	.st18{fill:#8CDB5E;}
	.st19{fill:url(#SVGID_3_);}
	.st20{fill:#C8DAEA;}
	.st21{fill:#A9C6D8;}
	.st22{fill:url(#SVGID_4_);}
	.st23{fill:#3B5998;}
	.st24{display:none;fill:url(#SVGID_5_);}
	.st25{display:none;fill:#C8DAEA;}
	.st26{display:none;fill:#A9C6D8;}
	.st27{display:none;fill:#FFFFFF;}
	.st28{display:none;fill:#3B5998;}
	.st29{fill:url(#SVGID_6_);}
	.st30{fill:url(#SVGID_7_);}
	.st31{fill:#DDDDDD;}
</style>
<circle class="st0" cx="-168" cy="32" r="30"/>
<path id="light_87_" class="st1" d="M-151.5,24.5c-1.1,0.5-2.3,0.8-3.5,1c1.3-0.8,2.2-2,2.7-3.4c-1.2,0.7-2.5,1.2-3.9,1.5
	c-1.1-1.2-2.7-1.9-4.5-1.9c-3.4,0-6.2,2.8-6.2,6.2c0,0.5,0.1,1,0.2,1.4c-5.1-0.3-9.7-2.7-12.7-6.4c-0.5,0.9-0.8,2-0.8,3.1
	c0,2.1,1.1,4,2.7,5.1c-1,0-2-0.3-2.8-0.8v0.1c0,3,2.1,5.5,4.9,6c-0.5,0.1-1.1,0.2-1.6,0.2c-0.4,0-0.8,0-1.2-0.1
	c0.8,2.4,3.1,4.2,5.7,4.3c-2.1,1.7-4.8,2.6-7.6,2.6c-0.5,0-1,0-1.5-0.1c2.7,1.7,6,2.8,9.4,2.8c11.3,0,17.5-9.4,17.5-17.5v-0.8
	C-153.4,26.8-152.3,25.7-151.5,24.5L-151.5,24.5z"/>
<circle class="st2" cx="-234" cy="32" r="30"/>
<path id="head_1_" class="st1" d="M-217.7,31.8c0-2-1.7-3.7-3.7-3.7c-0.8,0-1.5,0.2-2.1,0.7l-0.4,0.3c-2.4-1.6-5.6-2.5-9.2-2.7
	l1.9-6l5.2,1.2c0,1.7,1.4,3.1,3.1,3.1c1.7,0,3.1-1.4,3.1-3.1s-1.4-3.1-3.1-3.1c-1.2,0-2.3,0.7-2.8,1.8l-5.7-1.3
	c-0.3-0.1-0.6,0.1-0.7,0.4l-2.2,6.9c-3.7,0.1-7.1,1.1-9.6,2.7l-0.4-0.3c-0.6-0.4-1.4-0.7-2.1-0.7c-2,0-3.7,1.7-3.7,3.7
	c0,1.1,0.5,2.2,1.4,2.9l0.4,0.4c0,0.3-0.1,0.7-0.1,1c0,5.4,6.5,9.7,14.5,9.7s14.5-4.4,14.5-9.7c0-0.3,0-0.7-0.1-1l0.4-0.4
	C-218.2,33.9-217.7,32.9-217.7,31.8L-217.7,31.8z M-228.8,40.6c-1.1,1.1-2.8,1.6-5.2,1.6s-4.1-0.5-5.2-1.6c-0.2-0.2-0.2-0.6,0-0.9
	c0.1-0.1,0.3-0.2,0.4-0.2c0.2,0,0.3,0.1,0.4,0.2c0.8,0.8,2.3,1.3,4.4,1.3c2.1,0,3.5-0.4,4.4-1.3c0.1-0.1,0.3-0.2,0.4-0.2
	c0.2,0,0.3,0.1,0.4,0.2C-228.5,40-228.5,40.4-228.8,40.6L-228.8,40.6z"/>
<circle id="eye_51_" class="st3" cx="-229.1" cy="34.2" r="2.3"/>
<circle id="eye_50_" class="st3" cx="-238.9" cy="34.2" r="2.2"/>
<linearGradient id="SVGID_1_" gradientUnits="userSpaceOnUse" x1="-300" y1="-568.11" x2="-300" y2="-508.11" gradientTransform="matrix(1 0 0 -1 0 -506.11)">
	<stop  offset="0" style="stop-color:#BE2126"/>
	<stop  offset="1" style="stop-color:#E32E28"/>
</linearGradient>
<circle class="st4" cx="-300" cy="32" r="30"/>
<path id="The_Sharpness_53_" class="st5" d="M-303.1,27.5l7.1,4.7l1-0.5L-303.1,27.5z"/>
<path class="st1" d="M-285.3,26c0,0-0.3-2.1-1.2-3c-1.1-1.2-2.4-1.2-3-1.3c-4.2-0.3-10.5-0.3-10.5-0.3s-6.3,0-10.5,0.3
	c-0.6,0.1-1.9,0.1-3,1.3c-0.9,0.9-1.2,3-1.2,3s-0.3,2.4-0.3,4.9v2.3c0,2.4,0.3,4.9,0.3,4.9s0.3,2.1,1.2,3c1.1,1.2,2.6,1.2,3.3,1.3
	c2.4,0.2,10.2,0.3,10.2,0.3s6.3,0,10.5-0.3c0.6-0.1,1.9-0.1,3-1.3c0.9-0.9,1.2-3,1.2-3s0.3-2.4,0.3-4.9v-2.3
	C-285,28.4-285.3,26-285.3,26z M-303.1,35.9v-8.4l8.1,4.2L-303.1,35.9z"/>
<circle class="st6" cx="-366" cy="32" r="30"/>
<path class="st1" d="M-368.6,30.7l4-1.3l1.3,3.9l-4,1.3L-368.6,30.7z M-368.6,30.7l4-1.3l1.3,3.9l-4,1.3L-368.6,30.7z M-352.3,27.9
	c-3.1-10.3-7.6-12.7-17.9-9.6c-10.3,3.1-12.7,7.6-9.6,17.9c3.1,10.3,7.6,12.7,17.9,9.6C-351.6,42.7-349.2,38.2-352.3,27.9z
	 M-357.5,34.6l-1.9,0.7l0.7,2c0.3,0.8-0.2,1.7-1,2c-0.2,0.1-0.4,0.1-0.5,0.1c-0.6,0-1.2-0.4-1.4-1.1l-0.7-2l-4,1.3l0.7,2
	c0.3,0.8-0.2,1.7-1,2c-0.2,0.1-0.4,0.1-0.5,0.1c-0.6,0-1.2-0.4-1.4-1.1l-0.7-2l-1.9,0.7c-0.2,0.1-0.4,0.1-0.5,0.1
	c-0.6,0-1.2-0.4-1.4-1.1c-0.3-0.8,0.2-1.7,1-2l1.9-0.7l-1.3-3.9l-1.9,0.7c-0.2,0.1-0.4,0.1-0.5,0.1c-0.6,0-1.2-0.4-1.4-1.1
	c-0.3-0.8,0.2-1.7,1-2l1.9-0.7l-0.7-2c-0.3-0.8,0.2-1.7,1-2c0.8-0.3,1.7,0.2,2,1l0.7,2l4-1.3l-0.7-2c-0.3-0.8,0.2-1.7,1-2
	c0.8-0.3,1.7,0.2,2,1l0.7,2l1.9-0.7c0.8-0.3,1.7,0.2,2,1c0.3,0.8-0.2,1.7-1,2l-1.9,0.7l1.3,3.9l1.9-0.7c0.8-0.3,1.7,0.2,2,1
	C-356.2,33.4-356.7,34.3-357.5,34.6z"/>
<circle id="XMLID_11_" class="st7" cx="-432" cy="32" r="30"/>
<path class="st1" d="M-435.2,38.7c0,1.5,1.2,2.7,2.7,2.7h10.5l4.9,2.2V30.4c0-1.5-1.2-2.7-2.7-2.7h-12.6c-1.5,0-2.7,1.2-2.7,2.7v8.3
	H-435.2z M-437,30.4c0-2.5,2.1-4.6,4.6-4.6h3.6V23c0-1.5-1.2-2.7-2.7-2.7h-12.8c-1.5,0-2.7,1.2-2.7,2.7v13.3l4.9-2.2h5v-3.7
	C-437.1,30.4-437,30.4-437,30.4z"/>
<linearGradient id="SVGID_2_" gradientUnits="userSpaceOnUse" x1="-300" y1="-634.11" x2="-300" y2="-574.11" gradientTransform="matrix(1 0 0 -1 0 -506.11)">
	<stop  offset="0" style="stop-color:#BE2126"/>
	<stop  offset="1" style="stop-color:#E32E28"/>
</linearGradient>
<path class="st8" d="M-300,68c-16.6,0-30,13.4-30,30s13.4,30,30,30s30-13.4,30-30S-283.4,68-300,68z M-300,125.3
	c-15.1,0-27.3-12.2-27.3-27.3s12.2-27.3,27.3-27.3s27.3,12.2,27.3,27.3S-284.9,125.3-300,125.3z"/>
<path id="The_Sharpness_51_" class="st5" d="M-303.1,93.5l7.1,4.7l1-0.5L-303.1,93.5z"/>
<path class="st1" d="M-285.3,92c0,0-0.3-2.1-1.2-3c-1.1-1.2-2.4-1.2-3-1.3c-4.2-0.3-10.5-0.3-10.5-0.3s-6.3,0-10.5,0.3
	c-0.6,0.1-1.9,0.1-3,1.3c-0.9,0.9-1.2,3-1.2,3s-0.3,2.4-0.3,4.9v2.3c0,2.4,0.3,4.9,0.3,4.9s0.3,2.1,1.2,3c1.1,1.2,2.6,1.2,3.3,1.3
	c2.4,0.2,10.2,0.3,10.2,0.3s6.3,0,10.5-0.3c0.6-0.1,1.9-0.1,3-1.3c0.9-0.9,1.2-3,1.2-3s0.3-2.4,0.3-4.9v-2.3
	C-285,94.4-285.3,92-285.3,92z M-303.1,101.9v-8.4l8.1,4.2L-303.1,101.9z"/>
<path class="st2" d="M-234,68c-16.6,0-30,13.4-30,30s13.4,30,30,30s30-13.4,30-30S-217.4,68-234,68z M-234,125.3
	c-15.1,0-27.3-12.2-27.3-27.3s12.2-27.3,27.3-27.3s27.3,12.2,27.3,27.3S-218.9,125.3-234,125.3L-234,125.3z"/>
<path id="head" class="st1" d="M-217.7,97.8c0-2-1.7-3.7-3.7-3.7c-0.8,0-1.5,0.2-2.1,0.7l-0.4,0.3c-2.4-1.6-5.6-2.5-9.2-2.7l1.9-6
	l5.2,1.2c0,1.7,1.4,3.1,3.1,3.1c1.7,0,3.1-1.4,3.1-3.1s-1.4-3.1-3.1-3.1c-1.2,0-2.3,0.7-2.8,1.8l-5.7-1.3c-0.3-0.1-0.6,0.1-0.7,0.4
	l-2.2,6.9c-3.7,0.1-7.1,1.1-9.6,2.7l-0.4-0.3c-0.6-0.4-1.4-0.7-2.1-0.7c-2,0-3.7,1.7-3.7,3.7c0,1.1,0.5,2.2,1.4,2.9l0.4,0.4
	c0,0.3-0.1,0.7-0.1,1c0,5.4,6.5,9.7,14.5,9.7s14.5-4.4,14.5-9.7c0-0.3,0-0.7-0.1-1l0.4-0.4C-218.2,99.9-217.7,98.9-217.7,97.8
	L-217.7,97.8z M-228.8,106.6c-1.1,1.1-2.8,1.6-5.2,1.6s-4.1-0.5-5.2-1.6c-0.2-0.2-0.2-0.6,0-0.9c0.1-0.1,0.3-0.2,0.4-0.2
	c0.2,0,0.3,0.1,0.4,0.2c0.8,0.8,2.3,1.3,4.4,1.3c2.1,0,3.5-0.4,4.4-1.3c0.1-0.1,0.3-0.2,0.4-0.2c0.2,0,0.3,0.1,0.4,0.2
	C-228.5,106-228.5,106.4-228.8,106.6L-228.8,106.6z"/>
<circle id="eye_49_" class="st3" cx="-229.1" cy="100.2" r="2.3"/>
<circle id="eye_48_" class="st3" cx="-238.9" cy="100.2" r="2.2"/>
<path class="st9" d="M-366,68c-15.9,0-28.8,12.3-29.9,27.9c0.9-0.3,1.8-0.6,2.8-0.9c1.5-13.7,13-24.3,27.1-24.3
	c8,0,15.2,3.4,20.2,8.9c0.9-0.3,1.9-0.6,2.8-0.9C-348.5,72.2-356.8,68-366,68z"/>
<path class="st10" d="M-369,125.2c-13.7-1.5-24.3-13.1-24.3-27.2c0-8,3.4-15.2,8.9-20.2c-0.3-0.9-0.6-1.9-0.9-2.8
	c-6.5,5.6-10.7,13.8-10.7,23c0,15.9,12.3,28.8,27.9,29.9L-369,125.2z"/>
<path class="st11" d="M-366,128c15.9,0,28.8-12.3,29.9-27.9l-2.8,0.9c-1.5,13.7-13.1,24.3-27.2,24.3c-8,0-15.2-3.4-20.2-8.9
	l-2.8,0.9C-383.4,123.8-375.2,128-366,128z"/>
<path class="st12" d="M-363.9,68.1l0.9,2.8c13.7,1.5,24.3,13.1,24.3,27.2c0,8-3.4,15.2-8.9,20.2l0.9,2.8
	c6.5-5.5,10.7-13.7,10.7-22.9C-336,82.1-348.3,69.2-363.9,68.1z"/>
<path class="st11" d="M-366,128c15.9,0,28.8-12.3,29.9-27.9l-2.8,0.9c-1.5,13.7-13.1,24.3-27.2,24.3c-8,0-15.2-3.4-20.2-8.9
	l-2.8,0.9C-383.4,123.8-375.2,128-366,128z"/>
<path class="st10" d="M-369,125.2c-13.7-1.5-24.3-13.1-24.3-27.2c0-8,3.4-15.2,8.9-20.2c-0.3-0.9-0.6-1.9-0.9-2.8
	c-6.5,5.6-10.7,13.8-10.7,23c0,15.9,12.3,28.8,27.9,29.9L-369,125.2z"/>
<path class="st12" d="M-363.9,68.1l0.9,2.8c13.7,1.5,24.3,13.1,24.3,27.2c0,8-3.4,15.2-8.9,20.2l0.9,2.8
	c6.5-5.5,10.7-13.7,10.7-22.9C-336,82.1-348.3,69.2-363.9,68.1z"/>
<path class="st13" d="M-395.9,95.9c0.9-0.3,1.8-0.6,2.8-0.9c0.7-6.8,4-12.8,8.7-17.2c-0.3-1-0.6-1.9-0.9-2.8
	C-391.3,80.1-395.3,87.5-395.9,95.9z"/>
<path class="st14" d="M-363.9,68.1l0.9,2.8c6.8,0.7,12.8,4,17.2,8.7c1-0.3,1.9-0.6,2.8-0.9C-348.1,72.7-355.5,68.7-363.9,68.1z"/>
<path class="st15" d="M-336.1,100.1l-2.8,0.9c-0.7,6.8-4,12.8-8.7,17.2l0.9,2.8C-340.7,115.9-336.7,108.5-336.1,100.1z"/>
<path class="st6" d="M-368.1,127.9c-0.3-0.9-0.6-1.8-0.9-2.8c-6.8-0.7-12.8-4-17.2-8.7l-2.8,0.9
	C-383.9,123.3-376.5,127.3-368.1,127.9z"/>
<path class="st13" d="M-395.9,95.9c0.9-0.3,1.8-0.6,2.8-0.9c0.7-6.8,4-12.8,8.7-17.2c-0.3-1-0.6-1.9-0.9-2.8
	C-391.3,80.1-395.3,87.5-395.9,95.9z"/>
<path class="st14" d="M-363.9,68.1l0.9,2.8c6.8,0.7,12.8,4,17.2,8.7c1-0.3,1.9-0.6,2.8-0.9C-348.1,72.7-355.5,68.7-363.9,68.1z"/>
<path class="st15" d="M-336.1,100.1l-2.8,0.9c-0.7,6.8-4,12.8-8.7,17.2l0.9,2.8C-340.7,115.9-336.7,108.5-336.1,100.1z"/>
<path class="st6" d="M-368.1,127.9c-0.3-0.9-0.6-1.8-0.9-2.8c-6.8-0.7-12.8-4-17.2-8.7l-2.8,0.9
	C-383.9,123.3-376.5,127.3-368.1,127.9z"/>
<path class="st1" d="M-368.6,96.7l4-1.3l1.3,3.9l-4,1.3L-368.6,96.7z M-368.6,96.7l4-1.3l1.3,3.9l-4,1.3L-368.6,96.7z M-352.3,93.9
	c-3.1-10.3-7.6-12.7-17.9-9.6c-10.3,3.1-12.7,7.6-9.6,17.9c3.1,10.3,7.6,12.7,17.9,9.6C-351.6,108.7-349.2,104.2-352.3,93.9z
	 M-357.5,100.6l-1.9,0.7l0.7,2c0.3,0.8-0.2,1.7-1,2c-0.2,0.1-0.4,0.1-0.5,0.1c-0.6,0-1.2-0.4-1.4-1.1l-0.7-2l-4,1.3l0.7,2
	c0.3,0.8-0.2,1.7-1,2c-0.2,0.1-0.4,0.1-0.5,0.1c-0.6,0-1.2-0.4-1.4-1.1l-0.7-2l-1.9,0.7c-0.2,0.1-0.4,0.1-0.5,0.1
	c-0.6,0-1.2-0.4-1.4-1.1c-0.3-0.8,0.2-1.7,1-2l1.9-0.7l-1.3-3.9l-1.9,0.7c-0.2,0.1-0.4,0.1-0.5,0.1c-0.6,0-1.2-0.4-1.4-1.1
	c-0.3-0.8,0.2-1.7,1-2l1.9-0.7l-0.7-2c-0.3-0.8,0.2-1.7,1-2c0.8-0.3,1.7,0.2,2,1l0.7,2l4-1.3l-0.7-2c-0.3-0.8,0.2-1.7,1-2
	c0.8-0.3,1.7,0.2,2,1l0.7,2l1.9-0.7c0.8-0.3,1.7,0.2,2,1c0.3,0.8-0.2,1.7-1,2l-1.9,0.7l1.3,3.9l1.9-0.7c0.8-0.3,1.7,0.2,2,1
	C-356.2,99.4-356.7,100.3-357.5,100.6z"/>
<path class="st0" d="M-168,68c-16.6,0-30,13.4-30,30s13.4,30,30,30s30-13.4,30-30S-151.4,68-168,68z M-168,125.3
	c-15.1,0-27.3-12.2-27.3-27.3s12.2-27.3,27.3-27.3c15.1,0,27.3,12.2,27.3,27.3S-152.9,125.3-168,125.3z"/>
<path id="light_84_" class="st1" d="M-151.5,90.5c-1.1,0.5-2.3,0.8-3.5,1c1.3-0.8,2.2-2,2.7-3.4c-1.2,0.7-2.5,1.2-3.9,1.5
	c-1.1-1.2-2.7-1.9-4.5-1.9c-3.4,0-6.2,2.8-6.2,6.2c0,0.5,0.1,1,0.2,1.4c-5.1-0.3-9.7-2.7-12.7-6.4c-0.5,0.9-0.8,2-0.8,3.1
	c0,2.1,1.1,4,2.7,5.1c-1,0-2-0.3-2.8-0.8v0.1c0,3,2.1,5.5,4.9,6c-0.5,0.1-1.1,0.2-1.6,0.2c-0.4,0-0.8,0-1.2-0.1
	c0.8,2.4,3.1,4.2,5.7,4.3c-2.1,1.7-4.8,2.6-7.6,2.6c-0.5,0-1,0-1.5-0.1c2.7,1.7,6,2.8,9.4,2.8c11.3,0,17.5-9.4,17.5-17.5v-0.8
	C-153.4,92.8-152.3,91.7-151.5,90.5L-151.5,90.5z"/>
<path class="st16" d="M-102,68c-16.6,0-30,13.4-30,30s13.4,30,30,30s30-13.4,30-30S-85.4,68-102,68z M-102,125.3
	c-15.1,0-27.3-12.2-27.3-27.3s12.2-27.3,27.3-27.3c15.1,0,27.3,12.2,27.3,27.3S-86.9,125.3-102,125.3z"/>
<path class="st17" d="M-432,70.7c5,0,9.6,1.3,13.7,3.7l1.3-2.4c-4.4-2.6-9.5-4-15-4c-16.6,0-30,13.4-30,30h2.7
	C-459.3,82.9-447.1,70.7-432,70.7z"/>
<path class="st7" d="M-402,98c0-11.1-6-20.8-15-26l-1.3,2.3c8.2,4.7,13.7,13.5,13.7,23.7c0,10.1-5.5,18.9-13.7,23.7l1.3,2.3
	C-408,118.8-402,109.1-402,98z"/>
<path class="st18" d="M-432,128c5.5,0,10.6-1.5,15-4l-1.3-2.3c-4,2.3-8.7,3.7-13.7,3.7c-15.1,0-27.3-12.2-27.3-27.3h-2.7
	C-462,114.6-448.6,128-432,128z"/>
<path class="st1" d="M-419.7,93.7h-12.7c-1.5,0-2.7,1.2-2.7,2.7v8.3c0,1.5,1.2,2.7,2.7,2.7h10.5l4.9,2.2V96.4
	C-417,94.9-418.2,93.7-419.7,93.7z M-428.8,91.8V89c0-1.5-1.2-2.7-2.7-2.7h-12.8c-1.5,0-2.7,1.2-2.7,2.7v13.3l4.9-2.2h5v-3.6
	c0-2.5,2.1-4.6,4.6-4.6h3.7C-428.8,91.9-428.8,91.8-428.8,91.8z"/>
<circle class="st16" cx="-102" cy="32" r="30"/>
<path class="st1" d="M-86.4,22.7c-0.2-0.5-0.7-0.9-1.2-1.1l-0.4-0.1h-28.1l-0.4,0.1c-0.4,0.2-0.9,0.6-1.1,1.1l-0.2,0.3v18l0.2,0.3
	c0.2,0.4,0.7,0.9,1.1,1.1c0.3,0.1,0.5,0.1,14.4,0.1H-88l0.4-0.1c0.4-0.2,0.9-0.6,1.2-1.1l0.1-0.3V23L-86.4,22.7z M-86.6,33.4v6.3
	h-30.8V27.1h30.8V33.4z M-108.5,34.9c0-0.1,0-0.2-0.1-0.4s-0.2-0.6-0.2-0.9c-0.3-1.4-0.4-1.9-0.7-2.9c-0.1-0.5-0.2-0.5-0.9-0.6
	c-0.6,0-0.6,0-0.7,0.1c-0.3,0.4-0.7,1.9-0.8,2.8l-0.1,0.6l-0.6-1.1c-0.3-0.6-0.6-1.2-0.7-1.3c-0.1-0.2-0.7-0.2-1.1-0.1l-0.3,0.1v1.1
	c0,1.1,0,1.5,0.1,2.8c0.1,0.8,0.2,0.9,0.5,0.9s1-0.2,1-0.4c0,0,0-0.4-0.1-0.7c0-0.4-0.1-0.6-0.1-0.7c0,0,0.2,0.3,0.4,0.7
	c0.2,0.4,0.5,0.8,0.6,0.9l0.1,0.2l0.6-0.1l0.6-0.1l0.1-0.3c0-0.2,0.1-0.9,0.1-1.6c0-0.7,0.1-1.3,0.1-1.3s0.2,0.4,0.3,1
	c0.1,0.5,0.4,1.5,0.6,2c0.1,0.2,0.2,0.4,0.2,0.5v0.2c0,0.1,0.1,0.1,0.1,0.1c0.2,0,0.9-0.2,0.9-0.2s0.1-0.1,0.1,0
	c0.1,0.1,0-0.1-0.1-0.6C-108.4,35.3-108.5,35-108.5,34.9z M-105.5,35.6c-0.1,0.1-0.3,0.1-0.5,0.1c-0.3,0-0.3,0-0.5-0.1
	c-0.3-0.3-0.5-0.6-0.5-1.2v-0.5h0.3c0.5,0.1,1.4,0.1,1.5,0c0.2-0.3,0.1-2.5-0.1-2.9c-0.1-0.2-0.2-0.2-0.5-0.3
	c-0.8-0.2-0.8-0.2-1.2,0.1c-0.6,0.4-1,0.8-1.1,1.4c-0.2,0.6-0.2,1-0.2,2c0,1.1,0.1,1.3,0.6,1.6c0.4,0.3,0.6,0.4,0.9,0.5
	c0.5,0.1,1.5,0,2.1-0.2l0.3-0.1l-0.1-0.2C-104.6,35.6-105.2,35.5-105.5,35.6L-105.5,35.6z M-106.8,32.9c0.1-0.3,0.3-0.9,0.4-0.9
	c0,0,0.1,0.3,0.1,0.7c0,0.7,0,0.7-0.4,0.6C-106.8,33.1-106.8,33.1-106.8,32.9z M-97.9,33.1c-0.3-0.3-0.5-0.4-0.6-0.4s-0.2,0-0.2,0.2
	c0,0.1,0,0.2-0.1,0.2s-0.1,0-0.1-0.2c0.1-0.2,0.1-0.1,0-2.4c0-1-0.1-1.8-0.1-1.8c-0.1-0.1-0.7-0.4-0.9-0.4c-0.2,0-0.3,0-0.3,0.2
	c-0.2,0.4-0.1,1.8,0.1,3.8c0,0.3,0.1,0.6,0.1,0.7v0.3h-0.4c-0.5-0.1-0.7,0.1-0.7,0.3c0,0.3,0.1,0.3,0.7,0.4c0.3,0,0.5,0.1,0.5,0.1
	s0.1,0.6,0.1,1.3l0.1,1.2h0.3c0.6,0,0.6,0,0.5-1.3v-1.2h0.3c0.9-0.1,1.2-0.2,1.2-0.3C-97.4,33.6-97.6,33.3-97.9,33.1z M-101,35.4
	c-0.3-0.2-0.4-0.2-0.5,0c-0.2,0.3-0.9,0.4-1.3,0.2c-0.3-0.1-0.6-0.7-0.6-1c0-0.4,0-0.4,0.6-0.3c0.4,0.1,0.5,0.1,0.8,0l0.4-0.1v-0.9
	c0-0.5,0-0.9,0.1-0.9c0,0,0.1-0.4,0.1-0.8c0-0.7,0-0.7-0.1-0.9c-0.1-0.1-0.2-0.1-0.2-0.1s-0.2-0.1-0.4-0.1c-0.2-0.1-0.4-0.1-0.5-0.1
	c-0.2,0-0.3,0.1-0.6,0.4c-0.7,0.7-0.8,1-1.2,2.4c-0.1,0.5-0.1,0.7-0.1,1.1c0,0.5,0.1,0.6,0.3,1c0.4,0.6,0.7,0.8,1.7,0.9
	c0.6,0.1,1,0,1.6-0.3C-100.7,35.8-100.7,35.6-101,35.4L-101,35.4z M-102.8,32c0.1-0.2,0.1-0.2,0.1,0.5v0.9c0,0.1-0.1,0.1-0.2,0.1
	c-0.2,0-0.3-0.1-0.3-0.2C-103.2,33.3-102.9,32.3-102.8,32z M-94.1,32.5c-0.8-0.4-0.8-0.3-0.8,0.8c0,0.4,0,0.9-0.1,1.1
	c-0.1,0.3-0.6,1.2-0.8,1.2c-0.1,0-0.1-0.2-0.2-1.6c-0.1-1.3,0-1.3-0.6-1.6c-0.3-0.1-0.7-0.2-0.7-0.1c-0.1,0.1-0.1,0.5,0,1.2
	c0.1,1.4,0.4,2.3,0.7,2.6c0.2,0.1,0.9,0.1,1.3,0c0.2-0.1,0.9-0.7,0.9-0.8h-0.1c-0.1,0.1-0.1,0.1,0,0c0-0.1,0.1-0.1,0.1-0.1
	s0.2-0.1,0.2-0.3c0.1-0.2,0.2-0.3,0.3-0.4c0.2-0.2,0.3-0.4,0.4-1.1C-93.5,32.7-93.5,32.7-94.1,32.5L-94.1,32.5z M-89.3,32.2
	c-0.1-0.5-0.3-1.1-0.5-1.2c-0.1,0-0.2-0.1-0.3-0.1c-0.5-0.2-0.8-0.3-1-0.3c-0.4,0-1.3,0.7-1.6,1.3c-0.3,0.5-0.6,1.6-0.6,2.3
	c0,0.5-0.1,0.8-0.2,0.8c-0.3,0-0.3,0.3-0.1,0.6c0.2,0.2,0.2,0.2,0.2,0.8c0.1,1.1,0.3,2.3,0.4,2.4c0.1,0.1,1,0,1.1,0
	c0,0,0-0.2-0.1-0.3c-0.1-0.4-0.2-1.1-0.2-1.9V36l0.3-0.1c0.7-0.2,2-1.4,2.3-2.1C-89.4,33.3-89.3,32.7-89.3,32.2L-89.3,32.2z
	 M-90.9,33.6c-0.1,0.2-0.4,0.5-0.7,0.8l-0.5,0.5c-0.1,0,0-0.1,0.1-0.9c0.2-0.9,0.5-1.5,0.9-2c0.3-0.3,0.3-0.3,0.4,0.3
	C-90.6,32.5-90.7,33.2-90.9,33.6L-90.9,33.6z M-86.4,88.7c-0.2-0.5-0.7-0.9-1.2-1.1l-0.4-0.1h-28.1l-0.4,0.1
	c-0.4,0.2-0.9,0.6-1.1,1.1l-0.2,0.3v18l0.2,0.3c0.2,0.4,0.7,0.9,1.1,1.1c0.3,0.1,0.5,0.1,14.4,0.1H-88l0.4-0.1
	c0.4-0.2,0.9-0.6,1.2-1.1l0.1-0.3V89L-86.4,88.7z M-86.6,99.4v6.3h-30.8V93.1h30.8V99.4z M-108.5,100.9c0-0.1,0-0.2-0.1-0.4
	s-0.2-0.6-0.2-0.9c-0.3-1.4-0.4-1.9-0.7-2.9c-0.1-0.5-0.2-0.5-0.9-0.6c-0.6,0-0.6,0-0.7,0.1c-0.3,0.4-0.7,1.9-0.8,2.8l-0.1,0.6
	l-0.6-1.1c-0.3-0.6-0.6-1.2-0.7-1.3c-0.1-0.2-0.7-0.2-1.1-0.1l-0.3,0.1v1.1c0,1.1,0,1.5,0.1,2.8c0.1,0.8,0.2,0.9,0.5,0.9
	s1-0.2,1-0.4c0,0,0-0.4-0.1-0.7c0-0.4-0.1-0.6-0.1-0.7c0,0,0.2,0.3,0.4,0.7c0.2,0.4,0.5,0.8,0.6,0.9l0.1,0.2l0.6-0.1l0.6-0.1
	l0.1-0.3c0-0.2,0.1-0.9,0.1-1.6s0.1-1.3,0.1-1.3s0.2,0.4,0.3,1c0.1,0.5,0.4,1.5,0.6,2c0.1,0.2,0.2,0.4,0.2,0.5v0.2
	c0,0.1,0.1,0.1,0.1,0.1c0.2,0,0.9-0.2,0.9-0.2s0.1-0.1,0.1,0c0.1,0.1,0-0.1-0.1-0.6C-108.4,101.3-108.5,101-108.5,100.9z
	 M-105.5,101.6c-0.1,0.1-0.3,0.1-0.5,0.1c-0.3,0-0.3,0-0.5-0.1c-0.3-0.3-0.5-0.6-0.5-1.2v-0.5h0.3c0.5,0.1,1.4,0.1,1.5,0
	c0.2-0.3,0.1-2.5-0.1-2.9c-0.1-0.2-0.2-0.2-0.5-0.3c-0.8-0.2-0.8-0.2-1.2,0.1c-0.6,0.4-1,0.8-1.1,1.4c-0.2,0.6-0.2,1-0.2,2
	c0,1.1,0.1,1.3,0.6,1.6c0.4,0.3,0.6,0.4,0.9,0.5c0.5,0.1,1.5,0,2.1-0.2l0.3-0.1l-0.1-0.2C-104.6,101.6-105.2,101.5-105.5,101.6
	L-105.5,101.6z M-106.8,98.9c0.1-0.3,0.3-0.9,0.4-0.9c0,0,0.1,0.3,0.1,0.7c0,0.7,0,0.7-0.4,0.6C-106.8,99.1-106.8,99.1-106.8,98.9z
	 M-97.9,99.1c-0.3-0.3-0.5-0.4-0.6-0.4s-0.2,0-0.2,0.2c0,0.1,0,0.2-0.1,0.2s-0.1,0-0.1-0.2c0.1-0.2,0.1-0.1,0-2.4
	c0-1-0.1-1.8-0.1-1.8c-0.1-0.1-0.7-0.4-0.9-0.4c-0.2,0-0.3,0-0.3,0.2c-0.2,0.4-0.1,1.8,0.1,3.8c0,0.3,0.1,0.6,0.1,0.7v0.3h-0.4
	c-0.5-0.1-0.7,0.1-0.7,0.3c0,0.3,0.1,0.3,0.7,0.4c0.3,0,0.5,0.1,0.5,0.1s0.1,0.6,0.1,1.3l0.1,1.2h0.3c0.6,0,0.6,0,0.5-1.3v-1.2h0.3
	c0.9-0.1,1.2-0.2,1.2-0.3C-97.4,99.6-97.6,99.3-97.9,99.1z M-101,101.4c-0.3-0.2-0.4-0.2-0.5,0c-0.2,0.3-0.9,0.4-1.3,0.2
	c-0.3-0.1-0.6-0.7-0.6-1c0-0.4,0-0.4,0.6-0.3c0.4,0.1,0.5,0.1,0.8,0l0.4-0.1v-0.9c0-0.5,0-0.9,0.1-0.9c0,0,0.1-0.4,0.1-0.8
	c0-0.7,0-0.7-0.1-0.9c-0.1-0.1-0.2-0.1-0.2-0.1s-0.2-0.1-0.4-0.1c-0.2-0.1-0.4-0.1-0.5-0.1c-0.2,0-0.3,0.1-0.6,0.4
	c-0.7,0.7-0.8,1-1.2,2.4c-0.1,0.5-0.1,0.7-0.1,1.1c0,0.5,0.1,0.6,0.3,1c0.4,0.6,0.7,0.8,1.7,0.9c0.6,0.1,1,0,1.6-0.3
	C-100.7,101.8-100.7,101.6-101,101.4L-101,101.4z M-102.8,98c0.1-0.2,0.1-0.2,0.1,0.5v0.9c0,0-0.1,0.1-0.2,0.1
	c-0.2,0-0.3-0.1-0.3-0.2C-103.2,99.3-102.9,98.3-102.8,98z M-94.1,98.5c-0.8-0.4-0.8-0.3-0.8,0.8c0,0.4,0,0.9-0.1,1.1
	c-0.1,0.3-0.6,1.2-0.8,1.2c-0.1,0-0.1-0.2-0.2-1.6c-0.1-1.3,0-1.3-0.6-1.6c-0.3-0.1-0.7-0.2-0.7-0.1c-0.1,0.1-0.1,0.5,0,1.2
	c0.1,1.4,0.4,2.3,0.7,2.6c0.2,0.1,0.9,0.1,1.3,0c0.2-0.1,0.9-0.7,0.9-0.8h-0.1c-0.1,0.1-0.1,0.1,0,0c0-0.1,0.1-0.1,0.1-0.1
	s0.2-0.1,0.2-0.3c0.1-0.2,0.2-0.3,0.3-0.4c0.2-0.2,0.3-0.4,0.4-1.1C-93.5,98.7-93.5,98.7-94.1,98.5L-94.1,98.5z M-89.3,98.2
	c-0.1-0.5-0.3-1.1-0.5-1.2c-0.1,0-0.2-0.1-0.3-0.1c-0.5-0.2-0.8-0.3-1-0.3c-0.4,0-1.3,0.7-1.6,1.3c-0.3,0.5-0.6,1.6-0.6,2.3
	c0,0.5-0.1,0.8-0.2,0.8c-0.3,0-0.3,0.3-0.1,0.6c0.2,0.2,0.2,0.2,0.2,0.8c0.1,1.1,0.3,2.3,0.4,2.4s1,0,1.1,0c0,0,0-0.2-0.1-0.3
	c-0.1-0.4-0.2-1.1-0.2-1.9V102l0.3-0.1c0.7-0.2,2-1.4,2.3-2.1C-89.4,99.3-89.3,98.7-89.3,98.2L-89.3,98.2z M-90.9,99.6
	c-0.1,0.2-0.4,0.5-0.7,0.8l-0.5,0.5c-0.1,0,0-0.1,0.1-0.9c0.2-0.9,0.5-1.5,0.9-2c0.3-0.3,0.3-0.3,0.4,0.3
	C-90.6,98.5-90.7,99.2-90.9,99.6L-90.9,99.6z"/>
<linearGradient id="SVGID_3_" gradientUnits="userSpaceOnUse" x1="-36" y1="698" x2="-36" y2="638" gradientTransform="matrix(1 0 0 1 0 -636)">
	<stop  offset="0" style="stop-color:#1D93D2"/>
	<stop  offset="1" style="stop-color:#38B0E3"/>
</linearGradient>
<circle class="st19" cx="-36" cy="32" r="30"/>
<path class="st20" d="M-45.7,34.2l3.6,9.9c0,0,0.4,0.9,0.9,0.9s7.6-7.4,7.6-7.4l7.9-15.2l-19.8,9.3C-45.5,31.7-45.7,34.2-45.7,34.2z
	"/>
<path class="st21" d="M-41,36.7l-0.7,7.3c0,0-0.3,2.2,1.9,0c2.2-2.2,4.4-3.9,4.4-3.9"/>
<path class="st1" d="M-45.6,34.5l-7.3-2.4c0,0-0.9-0.4-0.6-1.2c0.1-0.2,0.2-0.3,0.5-0.6C-51.4,29.2-23,19-23,19s0.8-0.3,1.3-0.1
	c0.2,0.1,0.4,0.2,0.5,0.5c0,0.1,0.1,0.4,0.1,0.6v0.6c-0.2,2.8-5.3,23.6-5.3,23.6s-0.3,1.2-1.4,1.3c-0.4,0-0.9-0.1-1.5-0.6
	c-2.2-1.9-9.7-6.9-11.4-8c-0.1-0.1-0.1-0.1-0.1-0.2s0.1-0.3,0.1-0.3s13.1-11.7,13.5-12.9c0-0.1-0.1-0.1-0.2-0.1
	c-0.9,0.3-16,9.8-17.6,10.9C-45.4,34.6-45.6,34.5-45.6,34.5z"/>
<path class="st20" d="M-45.7,100.2l3.6,9.9c0,0,0.4,0.9,0.9,0.9s7.6-7.4,7.6-7.4l7.9-15.2l-19.8,9.3
	C-45.5,97.7-45.7,100.2-45.7,100.2z"/>
<path class="st21" d="M-41,102.7l-0.7,7.3c0,0-0.3,2.2,1.9,0c2.2-2.2,4.4-3.9,4.4-3.9"/>
<path class="st1" d="M-45.6,100.5l-7.3-2.4c0,0-0.9-0.4-0.6-1.2c0.1-0.2,0.2-0.3,0.5-0.6C-51.4,95.2-23,85-23,85s0.8-0.3,1.3-0.1
	c0.2,0.1,0.4,0.2,0.5,0.5c0,0.1,0.1,0.4,0.1,0.6v0.6c-0.2,2.8-5.3,23.6-5.3,23.6s-0.3,1.2-1.4,1.3c-0.4,0-0.9-0.1-1.5-0.6
	c-2.2-1.9-9.7-6.9-11.4-8c-0.1-0.1-0.1-0.1-0.1-0.2s0.1-0.3,0.1-0.3s13.1-11.7,13.5-12.9c0-0.1-0.1-0.1-0.2-0.1
	c-0.9,0.3-16,9.8-17.6,10.9C-45.4,100.6-45.6,100.5-45.6,100.5z"/>
<linearGradient id="SVGID_4_" gradientUnits="userSpaceOnUse" x1="-36" y1="764" x2="-36" y2="704" gradientTransform="matrix(1 0 0 1 0 -636)">
	<stop  offset="0" style="stop-color:#1D93D2"/>
	<stop  offset="1" style="stop-color:#38B0E3"/>
</linearGradient>
<path class="st22" d="M-36,68c-16.6,0-30,13.4-30,30s13.4,30,30,30s30-13.4,30-30S-19.4,68-36,68z M-36,125.2
	c-15,0-27.2-12.2-27.2-27.2S-51,70.8-36,70.8S-8.8,83-8.8,98S-21,125.2-36,125.2z"/>
<g>
	<path class="st23" d="M60,31.8c0,16.6-13.4,30-30,30S0,48.4,0,31.8s13.4-30,30-30S60,15.2,60,31.8L60,31.8z"/>
	<path class="st1" d="M37.5,33h-5.4v19.6H24V33h-3.9v-6.9H24v-4.5c0-3.2,1.5-8.2,8.2-8.2h6v6.7h-4.4c-0.7,0-1.7,0.4-1.7,1.9v4.1h6.1
		L37.5,33z"/>
</g>
<linearGradient id="SVGID_5_" gradientUnits="userSpaceOnUse" x1="30" y1="698" x2="30" y2="638" gradientTransform="matrix(1 0 0 1 0 -636)">
	<stop  offset="0" style="stop-color:#1D93D2"/>
	<stop  offset="1" style="stop-color:#38B0E3"/>
</linearGradient>
<circle class="st24" cx="30" cy="32" r="30"/>
<path class="st25" d="M20.3,34.2l3.6,9.9c0,0,0.4,0.9,0.9,0.9s7.6-7.4,7.6-7.4l7.9-15.2l-19.8,9.3C20.5,31.7,20.3,34.2,20.3,34.2z"
	/>
<path class="st26" d="M25,36.7L24.3,44c0,0-0.3,2.2,1.9,0c2.2-2.2,4.4-3.9,4.4-3.9"/>
<path class="st27" d="M20.4,34.5l-7.3-2.4c0,0-0.9-0.4-0.6-1.2c0.1-0.2,0.2-0.3,0.5-0.6C14.6,29.2,43,19,43,19s0.8-0.3,1.3-0.1
	c0.2,0.1,0.4,0.2,0.5,0.5c0,0.1,0.1,0.4,0.1,0.6v0.6c-0.2,2.8-5.3,23.6-5.3,23.6s-0.3,1.2-1.4,1.3c-0.4,0-0.9-0.1-1.5-0.6
	c-2.2-1.9-9.7-6.9-11.4-8c-0.1-0.1-0.1-0.1-0.1-0.2s0.1-0.3,0.1-0.3s13.1-11.7,13.5-12.9c0-0.1-0.1-0.1-0.2-0.1
	c-0.9,0.3-16,9.8-17.6,10.9C20.6,34.6,20.4,34.5,20.4,34.5z"/>
<path class="st25" d="M20.3,100.2l3.6,9.9c0,0,0.4,0.9,0.9,0.9s7.6-7.4,7.6-7.4l7.9-15.2l-19.8,9.3C20.5,97.7,20.3,100.2,20.3,100.2
	z"/>
<path class="st26" d="M25,102.7l-0.7,7.3c0,0-0.3,2.2,1.9,0c2.2-2.2,4.4-3.9,4.4-3.9"/>
<path class="st27" d="M20.4,100.5l-7.3-2.4c0,0-0.9-0.4-0.6-1.2c0.1-0.2,0.2-0.3,0.5-0.6C14.6,95.2,43,85,43,85s0.8-0.3,1.3-0.1
	c0.2,0.1,0.4,0.2,0.5,0.5c0,0.1,0.1,0.4,0.1,0.6v0.6c-0.2,2.8-5.3,23.6-5.3,23.6s-0.3,1.2-1.4,1.3c-0.4,0-0.9-0.1-1.5-0.6
	c-2.2-1.9-9.7-6.9-11.4-8c-0.1-0.1-0.1-0.1-0.1-0.2s0.1-0.3,0.1-0.3s13.1-11.7,13.5-12.9c0-0.1-0.1-0.1-0.2-0.1
	c-0.9,0.3-16,9.8-17.6,10.9C20.6,100.6,20.4,100.5,20.4,100.5z"/>
<path class="st23" d="M30,68C13.4,68,0,81.4,0,98s13.4,30,30,30s30-13.4,30-30S46.6,68,30,68z M30,125.2C15,125.2,2.8,113,2.8,98
	S15,70.8,30,70.8S57.2,83,57.2,98S45,125.2,30,125.2z"/>
<g>
	<path class="st28" d="M60.6,98.2c0,16.6-13.4,30-30,30s-30-13.4-30-30s13.4-30,30-30S60.6,81.6,60.6,98.2L60.6,98.2z"/>
	<path class="st1" d="M38.1,99.4h-5.4V119h-8.1V99.4h-3.9v-6.9h3.9V88c0-3.2,1.5-8.2,8.2-8.2h6v6.7h-4.4c-0.7,0-1.7,0.4-1.7,1.9v4.1
		h6.1L38.1,99.4z"/>
</g>
<g>
	
		<linearGradient id="SVGID_6_" gradientUnits="userSpaceOnUse" x1="65" y1="100.3" x2="125" y2="100.3" gradientTransform="matrix(1 0 0 -1 0 132)">
		<stop  offset="0" style="stop-color:#00AD6C"/>
		<stop  offset="1" style="stop-color:#00FD8D"/>
	</linearGradient>
	<path class="st29" d="M125,31.7c0,16.6-13.4,30-30,30s-30-13.4-30-30s13.4-30,30-30S125,15.2,125,31.7L125,31.7z"/>
	<path class="st27" d="M102.5,32.9h-5.4v19.6H89V32.9h-3.9V26H89v-4.5c0-3.2,1.5-8.2,8.2-8.2h6V20h-4.4c-0.7,0-1.7,0.4-1.7,1.9V26
		h6.1L102.5,32.9z"/>
</g>
<linearGradient id="SVGID_7_" gradientUnits="userSpaceOnUse" x1="65.5" y1="34.1" x2="125.5" y2="34.1" gradientTransform="matrix(1 0 0 -1 0 132)">
	<stop  offset="0" style="stop-color:#00AD6C"/>
	<stop  offset="1" style="stop-color:#00FD8D"/>
</linearGradient>
<path class="st30" d="M95.5,67.9c-16.6,0-30,13.4-30,30s13.4,30,30,30s30-13.4,30-30S112.1,67.9,95.5,67.9z M95.5,125.1
	c-15,0-27.2-12.2-27.2-27.2s12.2-27.2,27.2-27.2s27.2,12.2,27.2,27.2S110.5,125.1,95.5,125.1z"/>
<g>
	<path class="st28" d="M125.6,98.2c0,16.6-13.4,30-30,30s-30-13.4-30-30s13.4-30,30-30S125.6,81.6,125.6,98.2L125.6,98.2z"/>
	<path class="st1" d="M103.1,99.4h-5.4V119h-8.1V99.4h-3.9v-6.9h3.9V88c0-3.2,1.5-8.2,8.2-8.2h6v6.7h-4.4c-0.7,0-1.7,0.4-1.7,1.9
		v4.1h6.1L103.1,99.4z"/>
</g>
<g>
	<path class="st31" d="M108.7,44.9l-8.9-4.3l-0.1-19.3c0-0.5,0.5-0.7,0.9-0.6l8.4,4c0.2,0.1,0.3,0.3,0.3,0.6v19.1
		C109.4,44.8,109,45.1,108.7,44.9z"/>
	<path class="st1" d="M99.8,40.6L90.2,36l9.2-15.2c0.2-0.3,0.5-0.4,0.8-0.2l8.5,4.1c0.3,0.2,0.4,0.6,0.3,0.9L99.8,40.6z"/>
	<path class="st31" d="M99.8,40.6L90.2,36l-8.8-14.3c-0.2-0.4,0.2-0.9,0.6-0.7l8.2,3.9L99.8,40.6z"/>
	<path class="st1" d="M89.5,44.9l-8.7-4.2c-0.2-0.1-0.3-0.3-0.3-0.4V21.1c0-0.3,0.4-0.6,0.7-0.4l8.9,4.3v19.5
		C90.2,44.8,89.9,45.1,89.5,44.9z"/>
</g>
<g>
	<path class="st31" d="M109.2,110l-8.9-4.3l-0.1-19.3c0-0.5,0.5-0.7,0.9-0.6l8.4,4c0.2,0.1,0.3,0.3,0.3,0.6v19.1
		C109.9,109.9,109.5,110.2,109.2,110z"/>
	<path class="st1" d="M100.3,105.8l-9.6-4.6L100,86c0.2-0.3,0.5-0.4,0.8-0.2l8.5,4.1c0.3,0.2,0.4,0.6,0.3,0.9L100.3,105.8z"/>
	<path class="st31" d="M100.3,105.8l-9.6-4.6L82,86.9c-0.2-0.4,0.2-0.9,0.6-0.7l8.2,3.9L100.3,105.8z"/>
	<path class="st1" d="M90,110l-8.7-4.2c-0.2-0.1-0.3-0.3-0.3-0.4V86.2c0-0.3,0.4-0.6,0.7-0.4l8.9,4.3v19.5
		C90.7,109.9,90.4,110.2,90,110z"/>
</g>
</svg>
