<?xml version="1.0" encoding="utf-8"?>
<!-- Generator: Adobe Illustrator 21.1.0, SVG Export Plug-In . SVG Version: 6.00 Build 0)  -->
<svg version="1.1" id="Layer_1" xmlns="http://www.w3.org/2000/svg" xmlns:xlink="http://www.w3.org/1999/xlink" x="0px" y="0px"
	 viewBox="0 0 128.5 130" style="enable-background:new 0 0 128.5 130;" xml:space="preserve">
<style type="text/css">
	.st0{fill:#3B5998;}
	.st1{fill:#FFFFFF;}
	.st2{display:none;fill:url(#SVGID_1_);}
	.st3{display:none;fill:#C8DAEA;}
	.st4{display:none;fill:#A9C6D8;}
	.st5{display:none;fill:#FFFFFF;}
	.st6{display:none;fill:#3B5998;}
	.st7{display:none;}
	.st8{fill:url(#SVGID_2_);}
	.st9{fill:#DDDDDD;}
	.st10{fill:url(#SVGID_3_);}
</style>
<g>
	<path class="st0" d="M62.9,30.8c0,16.6-13.4,30-30,30s-30-13.4-30-30s13.4-30,30-30S62.9,14.2,62.9,30.8L62.9,30.8z"/>
	<path class="st1" d="M40.4,32H35v19.6h-8.1V32H23v-6.9h3.9v-4.5c0-3.2,1.5-8.2,8.2-8.2h6v6.7h-4.4C36,19.1,35,19.5,35,21v4.1h6.1
		L40.4,32z"/>
</g>
<linearGradient id="SVGID_1_" gradientUnits="userSpaceOnUse" x1="33" y1="1334" x2="33" y2="1274" gradientTransform="matrix(1 0 0 1 0 -1272)">
	<stop  offset="0" style="stop-color:#1D93D2"/>
	<stop  offset="1" style="stop-color:#38B0E3"/>
</linearGradient>
<circle class="st2" cx="33" cy="32" r="30"/>
<path class="st3" d="M23.3,34.2l3.6,9.9c0,0,0.4,0.9,0.9,0.9s7.6-7.4,7.6-7.4l7.9-15.2l-19.8,9.3C23.5,31.7,23.3,34.2,23.3,34.2z"/>
<path class="st4" d="M28,36.7L27.3,44c0,0-0.3,2.2,1.9,0s4.4-3.9,4.4-3.9"/>
<path class="st5" d="M23.4,34.5l-7.3-2.4c0,0-0.9-0.4-0.6-1.2c0.1-0.2,0.2-0.3,0.5-0.6C17.6,29.2,46,19,46,19s0.8-0.3,1.3-0.1
	c0.2,0.1,0.4,0.2,0.5,0.5c0,0.1,0.1,0.4,0.1,0.6v0.6c-0.2,2.8-5.3,23.6-5.3,23.6s-0.3,1.2-1.4,1.3c-0.4,0-0.9-0.1-1.5-0.6
	c-2.2-1.9-9.7-6.9-11.4-8c-0.1-0.1-0.1-0.1-0.1-0.2s0.1-0.3,0.1-0.3s13.1-11.7,13.5-12.9c0-0.1-0.1-0.1-0.2-0.1
	c-0.9,0.3-16,9.8-17.6,10.9C23.6,34.6,23.4,34.5,23.4,34.5z"/>
<path class="st3" d="M23.3,100.2l3.6,9.9c0,0,0.4,0.9,0.9,0.9s7.6-7.4,7.6-7.4l7.9-15.2l-19.8,9.3C23.5,97.7,23.3,100.2,23.3,100.2z
	"/>
<path class="st4" d="M28,102.7l-0.7,7.3c0,0-0.3,2.2,1.9,0s4.4-3.9,4.4-3.9"/>
<path class="st5" d="M23.4,100.5l-7.3-2.4c0,0-0.9-0.4-0.6-1.2c0.1-0.2,0.2-0.3,0.5-0.6C17.6,95.2,46,85,46,85s0.8-0.3,1.3-0.1
	c0.2,0.1,0.4,0.2,0.5,0.5c0,0.1,0.1,0.4,0.1,0.6v0.6c-0.2,2.8-5.3,23.6-5.3,23.6s-0.3,1.2-1.4,1.3c-0.4,0-0.9-0.1-1.5-0.6
	c-2.2-1.9-9.7-6.9-11.4-8c-0.1-0.1-0.1-0.1-0.1-0.2s0.1-0.3,0.1-0.3s13.1-11.7,13.5-12.9c0-0.1-0.1-0.1-0.2-0.1
	c-0.9,0.3-16,9.8-17.6,10.9C23.6,100.6,23.4,100.5,23.4,100.5z"/>
<g>
	<path class="st0" d="M32.9,64c-16.6,0-30,13.4-30,30s13.4,30,30,30s30-13.4,30-30S49.5,64,32.9,64z M32.9,121.2
		c-15,0-27.2-12.2-27.2-27.2s12.2-27.2,27.2-27.2S60.1,79,60.1,94S47.9,121.2,32.9,121.2z"/>
	<g>
		<path class="st6" d="M63.6,95.2c0,16.6-13.4,30-30,30s-30-13.4-30-30s13.4-30,30-30S63.6,78.6,63.6,95.2L63.6,95.2z"/>
		<path class="st1" d="M40.3,96.4h-5.4V116h-8.1V96.4h-3.9v-6.9h3.9V85c0-3.2,1.5-8.2,8.2-8.2h6v6.7h-4.4c-0.7,0-1.7,0.4-1.7,1.9
			v4.1H41L40.3,96.4z"/>
	</g>
</g>
<g class="st7">
	<path class="st0" d="M128.6,98.2c0,16.6-13.4,30-30,30s-30-13.4-30-30s13.4-30,30-30S128.6,81.6,128.6,98.2L128.6,98.2z"/>
</g>
<g>
	<g>
		
			<linearGradient id="SVGID_2_" gradientUnits="userSpaceOnUse" x1="68.25" y1="-535.7" x2="128.25" y2="-535.7" gradientTransform="matrix(1 0 0 -1 0 -504)">
			<stop  offset="0" style="stop-color:#00AD6C"/>
			<stop  offset="1" style="stop-color:#00FD8D"/>
		</linearGradient>
		<path class="st8" d="M128.2,31.7c0,16.6-13.4,30-30,30s-30-13.4-30-30s13.4-30,30-30S128.2,15.2,128.2,31.7L128.2,31.7z"/>
		<path class="st5" d="M105.8,32.9h-5.4v19.6h-8.1V32.9h-3.9V26h3.9v-4.5c0-3.2,1.5-8.2,8.2-8.2h6V20H102c-0.7,0-1.7,0.4-1.7,1.9V26
			h6.1L105.8,32.9z"/>
	</g>
	<g>
		<path class="st9" d="M111.9,44.9l-8.9-4.3l-0.1-19.3c0-0.5,0.5-0.7,0.9-0.6l8.4,4c0.2,0.1,0.3,0.3,0.3,0.6v19.1
			C112.7,44.8,112.2,45.1,111.9,44.9z"/>
		<path class="st1" d="M103.1,40.6L93.4,36l9.2-15.2c0.2-0.3,0.5-0.4,0.8-0.2l8.5,4.1c0.3,0.2,0.4,0.6,0.3,0.9L103.1,40.6z"/>
		<path class="st9" d="M103.1,40.6L93.4,36l-8.8-14.3c-0.2-0.4,0.2-0.9,0.6-0.7l8.2,3.9L103.1,40.6z"/>
		<path class="st1" d="M92.8,44.9l-8.7-4.2c-0.2-0.1-0.3-0.3-0.3-0.4V21.1c0-0.3,0.4-0.6,0.7-0.4l8.9,4.3v19.5
			C93.4,44.8,93.2,45.1,92.8,44.9z"/>
	</g>
</g>
<g>
	
		<linearGradient id="SVGID_3_" gradientUnits="userSpaceOnUse" x1="68.25" y1="-600.9" x2="128.25" y2="-600.9" gradientTransform="matrix(1 0 0 -1 0 -504)">
		<stop  offset="0" style="stop-color:#00AD6C"/>
		<stop  offset="1" style="stop-color:#00FD8D"/>
	</linearGradient>
	<path class="st10" d="M98.2,66.9c-16.6,0-30,12.4-30,29s13.4,31,30,31s30-14.4,30-31S114.8,66.9,98.2,66.9z M98.2,124.1
		c-15,0-27.2-13.2-27.2-28.2s12.2-26.2,27.2-26.2s27.2,11.2,27.2,26.2S113.2,124.1,98.2,124.1z"/>
	<g>
		<path class="st9" d="M111.9,109l-8.9-4.3l-0.1-19.3c0-0.5,0.5-0.7,0.9-0.6l8.4,4c0.2,0.1,0.3,0.3,0.3,0.6v19.1
			C112.7,108.9,112.2,109.2,111.9,109z"/>
		<path class="st1" d="M103.1,104.8l-9.6-4.6l9.3-15.2c0.2-0.3,0.5-0.4,0.8-0.2l8.5,4.1c0.3,0.2,0.4,0.6,0.3,0.9L103.1,104.8z"/>
		<path class="st9" d="M103.1,104.8l-9.6-4.6l-8.7-14.3c-0.2-0.4,0.2-0.9,0.6-0.7l8.2,3.9L103.1,104.8z"/>
		<path class="st1" d="M92.8,109l-8.7-4.2c-0.2-0.1-0.3-0.3-0.3-0.4V85.2c0-0.3,0.4-0.6,0.7-0.4l8.9,4.3v19.5
			C93.4,108.9,93.2,109.2,92.8,109z"/>
	</g>
</g>
</svg>
