<svg width="2624" height="1408" viewBox="0 0 2624 1408" fill="none" xmlns="http://www.w3.org/2000/svg">
<path d="M16.5715 0H0V16.5668H16.5715V0Z" transform="translate(1762.28 1291.14) scale(4)" fill="#FFD23D"/>
<path d="M25.57 16.6559C25.57 17.6356 24.7682 18.3482 23.8772 18.3482H20.5807V24.7611L12.4732 18.3482H1.69278C0.712748 18.3482 0 17.5466 0 16.6559V1.69231C0 0.712552 0.801842 0 1.69278 0H23.9663C24.9463 0 25.6591 0.801621 25.6591 1.69231V16.6559H25.57Z" transform="translate(580.181 159.611) scale(4)" fill="#FFD23D"/>
<path d="M13.9877 7.40414C14.7896 7.84948 14.7896 8.6511 13.9877 9.18552L1.51456 16.4001C0.712709 16.8454 0 16.4892 0 15.5094V1.08025C0 0.100498 0.712709 -0.255777 1.51456 0.189567L13.9877 7.40414Z" transform="translate(2469.33 304.213) scale(4)" fill="#FFD23D"/>
<path d="M14.6114 0C12.6514 0 10.9586 1.1579 9.97854 2.76114C8.9985 1.1579 7.30572 0.0890743 5.34565 0.0890743C2.31645 0.0890743 0 2.76112 0 6.05667C0 6.68015 0.0890934 7.30363 0.267282 7.83805C0.712752 9.70849 3.74195 12.3806 6.50387 14.5182C7.84028 15.587 10.1567 17.1012 10.1567 17.1012C11.1368 16.4777 12.3841 15.498 13.7205 14.4292C16.4824 12.2024 19.4225 9.4413 19.7789 7.57085C19.9571 7.03644 20.0462 6.41296 20.0462 5.78947C20.0462 2.583 17.6406 0 14.6114 0Z" transform="translate(215.251 1339.6) scale(4)" fill="#FFD23D"/>
<path d="M5.88019 66.3563V68.6721C5.88019 74.9959 9.62215 80.4291 14.9678 82.9231V98.332H18.5316V84.17C19.5116 84.3482 20.4916 84.4372 21.5608 84.4372H38.5777V98.332H42.1415V84.4372H48.1999C56.842 84.4372 63.8805 77.4008 63.8805 68.7611V66.5344C67.6224 66.2672 70.5625 63.1498 70.5625 59.3198V53.9757C70.5625 50.1457 67.6224 47.0283 63.8805 46.7611V31.2632C69.4934 28.8583 73.4136 23.336 73.4136 16.834V0H26.1937C16.9279 0 8.8203 6.14575 6.32566 14.9636C2.31643 17.9028 0 22.6235 0 27.5223V52.4615H3.02919C4.00923 52.4615 4.90018 52.3725 5.79112 52.1943V62.6154C4.45471 62.081 3.56376 60.7449 3.56376 59.2308V57.3603H0V59.2308C0.0890941 62.7935 2.58371 65.7328 5.88019 66.3563ZM67.0879 53.9757V59.3198C67.0879 61.1903 65.7514 62.7045 63.9696 62.9717V50.413C65.7514 50.5911 67.0879 52.1053 67.0879 53.9757ZM3.65284 27.6113C3.65284 23.6032 5.61291 19.8623 8.99848 17.5466L9.53305 17.1903L9.71125 16.5668C11.6713 8.99595 18.4425 3.65182 26.2828 3.65182H69.9389V16.9231C69.9389 23.6032 64.5041 29.0364 57.8221 29.0364H21.2935C20.0462 29.0364 18.7988 28.8583 17.5515 28.413L15.2351 27.6113V36.7854C15.2351 43.2874 10.0676 48.6316 3.65284 48.8988V27.6113ZM18.7988 36.7854V32.332C19.6007 32.5101 20.4916 32.5101 21.2935 32.5101H39.5578V57.7166H40.0924H43.1216H43.6561C43.6561 56.1134 44.9034 54.8664 46.5071 54.8664C48.1108 54.8664 49.3581 56.1134 49.3581 57.7166C49.3581 59.3198 48.1108 60.5668 46.5071 60.5668V64.1295C50.0709 64.1295 52.9219 61.2793 52.9219 57.7166C52.9219 54.1538 50.0709 51.3036 46.5071 51.3036C45.2598 51.3036 44.1016 51.6599 43.0325 52.2834V32.5101H57.733C58.6239 32.5101 59.4258 32.4211 60.3167 32.2429V68.6721C60.3167 75.3522 54.882 80.7854 48.1999 80.7854H21.5608C14.8787 80.7854 9.44396 75.3522 9.44396 68.6721V51.0364C14.9678 48.7206 18.7988 43.1984 18.7988 36.7854Z" transform="translate(1406.62 247.255) scale(4)" fill="#F9D673"/>
<path d="M6.32569 20.664H20.6698L0 0V14.3401C0 17.8138 2.85102 20.664 6.32569 20.664ZM3.56376 8.63967L12.0277 17.1012H6.32569C4.81109 17.1012 3.56376 15.8543 3.56376 14.3401V8.63967Z" transform="translate(1470.41 462.089) scale(4)" fill="#F9D673"/>
<path d="M13.8096 2.49393L11.3149 0C8.9094 2.40486 4.90017 2.40486 2.49462 0L0 2.49393C1.87098 4.36438 4.4547 5.34413 6.94933 5.34413C9.44397 5.34413 11.8495 4.36438 13.8096 2.49393Z" transform="translate(1486.8 415.417) scale(4)" fill="#F9D673"/>
<path d="M11.315 0C8.90942 2.40486 4.90019 2.40486 2.49465 0L0 2.49393C1.87098 4.36438 4.45472 5.34413 6.94936 5.34413C9.44399 5.34413 11.9386 4.36438 13.8987 2.49393L11.315 0Z" transform="translate(1585.52 415.061) scale(4)" fill="#F9D673"/>
<path d="M10.9586 26.8988H45.6162C51.6746 26.8988 56.5748 22 56.5748 15.9433V0H27.441V3.56275H53.011V15.9433C53.011 20.0405 49.7145 23.336 45.6162 23.336H10.9586C6.86024 23.336 3.56376 20.0405 3.56376 15.9433V10.7773H0V15.9433C0 21.9109 4.90017 26.8988 10.9586 26.8988Z" transform="translate(1155.37 390.834) scale(4)" fill="#F9D673"/>
<path d="M3.56376 0H0C0 3.02834 1.10457e-05 8.19433 8.19667 8.19433H34.6576V4.63158H8.19667C3.56378 4.63158 3.56376 3.20648 3.56376 0Z" transform="translate(1188.52 431.806) scale(4)" fill="#F9D673"/>
<path d="M54.0801 0H22.719C16.5715 0 11.3149 4.09716 9.62215 9.7085C4.18741 10.332 0 14.8745 0 20.4858V40.081H3.56376V20.4858C3.56376 17.1012 5.88022 14.251 9.08761 13.4494C9.08761 13.5385 9.08761 13.6275 9.08761 13.6275H12.6514C12.6514 8.01619 17.1952 3.56275 22.719 3.56275H54.0801V0Z" transform="translate(1119.02 353.781) scale(4)" fill="#F9D673"/>
<path d="M10.424 0H0V3.56275H10.424V0Z" transform="translate(1205.98 669.085) scale(4)" fill="#F9D673"/>
<path d="M3.56376 0H0V3.56275H3.56376V0Z" transform="translate(1897.35 1304.68) scale(4)" fill="#F9D673"/>
<path d="M3.11829 0H0V3.56275H3.11829V0Z" transform="translate(1822.15 1304.68) scale(4)" fill="#F9D673"/>
<path d="M3.11829 0H0V3.56275H3.11829V0Z" transform="translate(1872.05 1304.68) scale(4)" fill="#F9D673"/>
<path d="M3.11829 0H0V3.56275H3.11829V0Z" transform="translate(1847.1 1304.68) scale(4)" fill="#F9D673"/>
<path d="M3.56376 0H0V3.56275H3.56376V0Z" transform="translate(1795.42 1304.68) scale(4)" fill="#F9D673"/>
<path d="M3.56376 0H0V3.11741H3.56376V0Z" transform="translate(1795.42 1254.8) scale(4)" fill="#F9D673"/>
<path d="M3.56376 0H0V3.11741H3.56376V0Z" transform="translate(1795.42 1279.74) scale(4)" fill="#F9D673"/>
<path d="M3.56376 0H0V3.11741H3.56376V0Z" transform="translate(1795.42 1229.51) scale(4)" fill="#F9D673"/>
<path d="M3.56376 0H0V3.56275H3.56376V0Z" transform="translate(1795.42 1202.79) scale(4)" fill="#F9D673"/>
<path d="M3.11829 0H0V3.56275H3.11829V0Z" transform="translate(1847.1 1202.79) scale(4)" fill="#F9D673"/>
<path d="M3.11829 0H0V3.56275H3.11829V0Z" transform="translate(1872.05 1202.79) scale(4)" fill="#F9D673"/>
<path d="M3.11829 0H0V3.56275H3.11829V0Z" transform="translate(1822.15 1202.79) scale(4)" fill="#F9D673"/>
<path d="M3.56376 0H0V3.56275H3.56376V0Z" transform="translate(1897.35 1202.79) scale(4)" fill="#F9D673"/>
<path d="M3.56376 0H0V3.11741H3.56376V0Z" transform="translate(1897.35 1254.8) scale(4)" fill="#F9D673"/>
<path d="M3.56376 0H0V3.11741H3.56376V0Z" transform="translate(1897.35 1279.74) scale(4)" fill="#F9D673"/>
<path d="M3.56376 0H0V3.11741H3.56376V0Z" transform="translate(1897.35 1229.51) scale(4)" fill="#F9D673"/>
<path d="M20.3135 0H0V3.56275H20.3135V0Z" transform="translate(797.927 1261.21) scale(4)" fill="#F9D673"/>
<path d="M20.3134 0H0V3.56275H20.3134V0Z" transform="translate(828.932 1231.29) scale(4)" fill="#F9D673"/>
<path d="M6.77116 0H0V3.56275H6.77116V0Z" transform="translate(786.523 1231.29) scale(4)" fill="#F9D673"/>
<path d="M6.77116 0H0V3.56275H6.77116V0Z" transform="translate(755.518 1261.21) scale(4)" fill="#F9D673"/>
<path d="M18.4425 0H0V3.56275H18.4425V0Z" transform="translate(2518.87 659.109) scale(4)" fill="#F9D673"/>
<path d="M6.77119 0H0V3.56275H6.77119V0Z" transform="translate(2468.98 659.109) scale(4)" fill="#F9D673"/>
<path d="M18.4425 0H0V3.56275H18.4425V0Z" transform="translate(2518.87 613.15) scale(4)" fill="#F9D673"/>
<path d="M6.77119 0H0V3.56275H6.77119V0Z" transform="translate(2468.98 613.15) scale(4)" fill="#F9D673"/>
<path d="M3.56376 21.9109H5.07836V30.1943L15.5915 21.9109H25.7482C27.7083 21.9109 29.2229 20.3077 29.2229 18.4373V3.47369C29.2229 1.51417 27.6192 0 25.7482 0H3.47467C1.51459 0 0 1.60324 0 3.47369V18.4373C0.0890941 20.3077 1.60369 21.9109 3.56376 21.9109ZM3.65285 3.47369H25.7482V18.2591H14.3441L8.64213 22.8016V18.2591H3.65285V3.47369Z" transform="translate(515.32 190.964) scale(4)" fill="#F9D673"/>
<path d="M27.0846 0H0V3.56275H27.0846V0Z" transform="translate(0 816.583) scale(4)" fill="#F9D673"/>
<path d="M8.9985 0H0V3.56275H8.9985V0Z" transform="translate(129.008 816.583) scale(4)" fill="#F9D673"/>
<path d="M4.72199 0H0V3.56275H4.72199V0Z" transform="translate(183.89 816.583) scale(4)" fill="#F9D673"/>
<path d="M5.34565 0H0V3.56275H5.34565V0Z" transform="translate(1077.68 1259.08) scale(4)" fill="#F9D673"/>
<path d="M5.34451 0H0V3.56351H5.34451V0Z" transform="translate(1058.24 1242.45) scale(4.00034 3.99949) rotate(-59.9957)" fill="#F9D673"/>
<path d="M3.56351 0H0V5.34451H3.56351V0Z" transform="translate(1023.86 1232.35) scale(4.00063 3.99978) rotate(-29.9886)" fill="#F9D673"/>
<path d="M5.34565 0H0V3.56275H5.34565V0Z" transform="translate(1008.19 1261.57) scale(4)" fill="#F9D673"/>
<path d="M5.34451 0H0V3.56351H5.34451V0Z" transform="translate(1025.97 1303.86) scale(4.00034 3.99949) rotate(-59.9957)" fill="#F9D673"/>
<path d="M3.56351 0H0V5.34451H3.56351V0Z" transform="translate(1060.41 1291.22) scale(4.00028 3.99943) rotate(-29.9915)" fill="#F9D673"/>
<path d="M3.56376 0H0V5.87854H3.56376V0Z" transform="translate(1720.23 116.858) scale(4)" fill="#F9D673"/>
<path d="M3.56301 0H0V5.8798H3.56301V0Z" transform="translate(1685.41 144.931) scale(4.00039 3.99954) rotate(-59.983)" fill="#F9D673"/>
<path d="M5.8798 0H0V3.56301H5.8798V0Z" transform="translate(1685.39 176.776) scale(4.00034 3.99949) rotate(-30.0043)" fill="#F9D673"/>
<path d="M3.56376 0H0V5.87854H3.56376V0Z" transform="translate(1720.23 181.7) scale(4)" fill="#F9D673"/>
<path d="M3.56301 0H0V5.87979H3.56301V0Z" transform="translate(1741.45 177.493) scale(4.00048 3.99963) rotate(-60.0036)" fill="#F9D673"/>
<path d="M5.87977 0H0V3.56301H5.87977V0Z" transform="translate(1741.37 144.467) scale(4.00034 3.99949) rotate(-30.0043)" fill="#F9D673"/>
<path d="M17.997 0H0V3.56275H17.997V0Z" transform="translate(257.304 1021.09) scale(4)" fill="#F9D673"/>
<path d="M5.96931 0H0V3.56275H5.96931V0Z" transform="translate(219.528 1021.09) scale(4)" fill="#F9D673"/>
<path d="M1.78188 0H0V3.56275H1.78188V0Z" transform="translate(27.7974 980.47) scale(4)" fill="#F9D673"/>
<path d="M3.56376 0H0V3.56275H3.56376V0Z" transform="translate(164.646 980.47) scale(4)" fill="#F9D673"/>
<path d="M3.56376 0H0V3.56275H3.56376V0Z" transform="translate(222.379 980.47) scale(4)" fill="#F9D673"/>
<path d="M3.56376 0H0V3.56275H3.56376V0Z" transform="translate(78.4028 980.47) scale(4)" fill="#F9D673"/>
<path d="M3.56376 0H0V3.56275H3.56376V0Z" transform="translate(135.779 980.47) scale(4)" fill="#F9D673"/>
<path d="M3.56376 0H0V3.56275H3.56376V0Z" transform="translate(107.269 980.47) scale(4)" fill="#F9D673"/>
<path d="M3.56376 0H0V3.56275H3.56376V0Z" transform="translate(49.5364 980.47) scale(4)" fill="#F9D673"/>
<path d="M3.56376 0H0V3.56275H3.56376V0Z" transform="translate(193.512 980.47) scale(4)" fill="#F9D673"/>
<path d="M1.78188 0H0V3.56275H1.78188V0Z" transform="translate(251.245 980.47) scale(4)" fill="#F9D673"/>
<path d="M8.19666 0L5.34565 2.85019L2.49463 0L0 2.58299L2.85101 5.34413L0 8.19431L2.49463 10.7773L5.34565 7.92712L8.19666 10.7773L10.6913 8.19431L7.84028 5.34413L10.6913 2.58299L8.19666 0Z" transform="translate(57.7329 1142.57) scale(4)" fill="#F9D673"/>
<path d="M3.65286 0H0V3.56275H3.65286V0Z" transform="translate(247.325 865.749) scale(4)" fill="#F9D673"/>
<path d="M12.295 9.79757L8.64214 6.14574L12.295 2.49393L9.71128 0L6.14752 3.65183L2.49462 0L0 2.49393L3.65284 6.14574L0 9.79757L2.49462 12.2915L6.14752 8.63969L9.71128 12.2915L12.295 9.79757Z" transform="translate(2574.82 901.376) scale(4)" fill="#F9D673"/>
<path d="M4.45471 12.6478H8.01847V8.10526H12.5623V4.54251H8.01847V0H4.45471V4.54251H0V8.10526H4.45471V12.6478Z" transform="translate(1316.1 140.372) scale(4)" fill="#F9D673"/>
<path d="M10.424 24.4049H13.9878V13.9838H24.4118V10.4211H13.9878V0H10.424V10.4211H0V13.9838H10.424V24.4049Z" transform="translate(1820.01 189.182) scale(4)" fill="#F9D673"/>
<path d="M10.3349 24.4049H13.8987V13.9838H24.3227V10.4211H13.8987V0H10.3349V10.4211H0V13.9838H10.3349V24.4049Z" transform="translate(1118.31) scale(4)" fill="#F9D673"/>
<path d="M1.78188 18.6154L5.70203 16.2996C6.59297 17.1903 7.66209 17.8138 8.90941 18.17V22.7125H12.4732V18.2591C13.7205 17.9028 14.7896 17.2794 15.6806 16.3887L19.6007 18.7045L21.3826 15.587L17.4625 13.2713C17.6406 12.6478 17.7297 12.0243 17.7297 11.4008C17.7297 10.7773 17.6406 10.1538 17.4625 9.53036L21.3826 7.21457L19.6007 4.09717L15.6806 6.41296C14.7896 5.52227 13.7205 4.89879 12.4732 4.54251V0H8.90941V4.54251C7.66209 4.89879 6.59297 5.52227 5.70203 6.41296L1.78188 4.09717L0 7.21457L3.92015 9.53036C3.74196 10.1538 3.65286 10.7773 3.65286 11.4008C3.65286 12.0243 3.74196 12.6478 3.92015 13.2713L0 15.587L1.78188 18.6154ZM10.6913 7.92712C12.6514 7.92712 14.166 9.53036 14.166 11.4008C14.166 13.3603 12.5623 14.8745 10.6913 14.8745C8.73122 14.8745 7.21663 13.2713 7.21663 11.4008C7.21663 9.53036 8.82032 7.92712 10.6913 7.92712Z" transform="translate(839.979 58.7854) scale(4)" fill="#F9D673"/>
<path d="M12.5623 27.5223C17.017 27.5223 21.2935 25.83 24.59 22.7125L25.1246 22.1781V20.9312C25.1246 17.0121 22.2735 13.8057 18.5316 13.0931C19.7789 11.668 20.4916 9.88664 20.4916 7.92712C20.4916 3.56275 16.9279 0 12.5623 0C8.19666 0 4.63291 3.56275 4.63291 7.92712C4.63291 9.88664 5.34564 11.7571 6.59296 13.0931C2.85101 13.7166 0 17.0121 0 20.9312V22.1781L0.53457 22.7125C3.92015 25.83 8.10757 27.5223 12.5623 27.5223ZM12.5623 3.65182C14.9678 3.65182 16.9279 5.61134 16.9279 8.01619C16.9279 10.4211 14.9678 12.3806 12.5623 12.3806C10.1567 12.3806 8.19667 10.4211 8.19667 8.01619C8.19667 5.61134 10.1567 3.65182 12.5623 3.65182ZM8.01847 16.6559H17.2843C19.6007 16.6559 21.4717 18.4372 21.6499 20.753C19.1553 22.8907 15.9479 24.0486 12.6514 24.0486C9.35489 24.0486 6.23659 22.8907 3.65286 20.753C3.74196 18.4372 5.70202 16.6559 8.01847 16.6559Z" transform="translate(1029.57 193.101) scale(4)" fill="#F9D673"/>
<path d="M18.0868 36.1619C28.0654 36.1619 36.1729 28.0567 36.1729 18.081C36.1729 8.10526 28.0654 0 18.0868 0C8.10828 0 0.000727316 8.10526 0.000727316 18.081C-0.0883668 28.0567 8.01919 36.1619 18.0868 36.1619ZM13.7212 16.0324C13.7212 13.6275 15.6813 11.668 18.0868 11.668C20.4924 11.668 22.4525 13.6275 22.4525 16.0324C22.4525 18.4372 20.4924 20.3968 18.0868 20.3968C15.6813 20.3968 13.7212 18.4372 13.7212 16.0324ZM13.4539 24.6721H22.7197C25.0362 24.6721 26.9071 26.4534 27.0853 28.7692C24.5907 30.9069 21.3833 32.0648 18.0868 32.0648C14.7903 32.0648 11.6721 30.9069 9.08834 28.7692C9.26653 26.4534 11.1375 24.6721 13.4539 24.6721ZM18.0868 3.47368C26.1053 3.47368 32.6092 9.97571 32.6092 17.9919C32.6092 21.0202 31.7182 23.8704 30.1145 26.1862C29.1345 23.6032 26.8181 21.6437 24.0561 21.1093C25.3035 19.6842 26.0162 17.9028 26.0162 15.9433C26.0162 11.5789 22.4524 8.0162 18.0868 8.0162C13.7212 8.0162 10.1574 11.5789 10.1574 15.9433C10.1574 17.9028 10.8702 19.7733 12.1175 21.1093C9.35559 21.6437 7.03915 23.5142 6.05912 26.1862C4.45542 23.8704 3.56449 21.0202 3.56449 17.9919C3.4754 10.0648 9.97926 3.47368 18.0868 3.47368Z" transform="translate(1969.69 27.4332) scale(4)" fill="#F9D673"/>
<path d="M289.734 202.453C290.892 200.227 291.605 197.822 291.872 195.328C291.961 194.615 291.961 193.903 291.961 193.101V139.66C291.961 139.66 291.961 139.66 291.961 139.571V137.879C291.07 120.154 275.924 106.081 257.571 106.081C248.038 106.081 239.396 109.822 233.159 115.968H225.943C232.268 111.158 236.278 103.587 236.278 95.0364V83.2794C238.06 82.2105 239.307 80.1619 239.307 77.9352V70.8097C239.307 67.336 236.456 64.5749 233.07 64.5749H218.904C216.053 64.5749 213.648 66.4453 212.935 69.0283H206.966C206.164 66.4453 203.758 64.5749 200.996 64.5749H186.83C183.356 64.5749 180.594 67.4251 180.594 70.8097V77.9352C180.594 80.1619 181.841 82.2105 183.623 83.2794V94.9474C183.623 103.498 187.721 111.069 193.958 115.879H183.801C176.05 115.879 169.813 121.401 169.813 128.259V150.615C168.655 149.636 167.319 148.834 165.804 148.389V140.64V123.36C165.804 115.522 161.973 108.575 156.093 104.3V93.4332C156.093 86.0405 149.411 79.9838 141.125 79.9838H125.088V78.8259L137.561 64.4858V64.3968L140.412 61.1012V50.8583C141.125 51.2146 141.838 51.3927 142.64 51.3927C145.58 51.3927 148.074 48.9879 148.074 45.9595V31.7976H140.412V17.1903C140.412 7.74899 132.75 0 123.217 0H101.122C91.6778 0 83.9267 7.65992 83.9267 17.1903V31.7976H76.71V45.9595C76.71 48.9879 79.1156 51.3927 82.1448 51.3927C82.7684 51.3927 83.3921 51.3036 83.9267 51.0364V61.1012L99.429 78.915V79.9838H83.3921C75.1063 79.9838 68.4243 86.0405 68.4243 93.4332V132.802C61.9204 122.202 50.2491 115.166 36.9741 115.166C16.5715 115.166 0 131.733 0 152.13V172.081V214.211H3.56376V168.696L36.9741 135.296L49.9818 148.3C49.8036 148.3 49.5363 148.3 49.3582 148.3C43.6561 148.3 38.9341 152.931 38.9341 158.721C38.9341 164.51 43.567 169.142 49.3582 169.142C51.9419 169.142 54.2583 168.251 56.0402 166.648V171.368C56.0402 182.057 47.3981 190.696 36.7068 190.696C26.0155 190.696 17.3734 182.057 17.3734 171.368V167.004H16.9279L17.1952 166.737C19.0661 168.251 21.3826 169.142 23.7881 169.142C26.55 169.142 29.1338 168.073 31.0939 166.113C34.9249 162.283 35.1031 156.227 31.8066 152.13L38.3105 145.628L35.8158 143.134L4.6329 174.308L7.12753 176.802L13.8096 170.121V171.368C13.8096 176.713 15.6806 181.7 18.7989 185.53C18.5316 191.32 13.7205 195.951 7.84029 195.951V199.514C14.5223 199.514 20.2244 194.883 21.8281 188.737C25.2136 191.676 29.4902 193.547 34.2122 194.081C34.2122 198.534 36.2613 202.542 39.4687 205.215H36.7959V208.777H52.3873C56.9311 208.777 60.6731 212.518 60.6731 217.061V238.17H64.2369V217.061C64.2369 210.559 58.8912 205.215 52.3873 205.215H48.6454V205.036C42.6761 205.036 37.7759 200.227 37.6868 194.259C49.8036 193.725 59.5149 183.66 59.5149 171.368V160.235C59.604 159.7 59.604 159.255 59.604 158.721C59.604 158.542 59.604 158.275 59.604 158.097L70.2062 168.696V234.696H73.7699V172.259V152.753L73.9481 152.575L73.7699 152.397V152.13C73.7699 148.032 73.0572 144.113 71.8099 140.372V93.3441C71.8099 87.9109 76.8882 83.4575 83.2139 83.4575H91.6779V91.919L112.17 103.765L132.661 91.919V83.4575H141.125C147.451 83.4575 152.529 87.9109 152.529 93.3441V101.984C149.411 100.47 145.847 99.5789 142.105 99.5789H132.928C119.921 99.5789 109.318 110.178 109.318 123.271V140.551V148.3C104.686 149.636 101.389 153.911 101.389 158.988C101.389 164.065 104.775 168.251 109.318 169.676V180.364C109.318 185.53 111.011 190.429 114.04 194.526C103.616 199.069 95.0634 206.729 90.1632 216.17L93.2815 217.773C99.2508 206.283 111.279 197.555 125.355 194.526C125.979 200.316 130.879 204.769 136.849 204.769C142.818 204.769 147.718 200.227 148.342 194.526C162.419 197.555 174.446 206.194 180.416 217.773L183.534 216.17C178.812 207.085 170.615 199.603 160.637 194.972C163.933 190.785 165.715 185.708 165.715 180.364V169.765C170.348 168.429 173.644 164.154 173.644 159.077C173.644 158.097 173.555 157.206 173.288 156.316V128.259C173.288 123.449 178.01 119.441 183.712 119.441H198.858V127.101C198.858 133.069 203.758 137.968 209.728 137.968H213.47V134.405H209.728C205.718 134.405 202.422 131.109 202.422 127.101V120.332C204.738 120.955 207.144 121.312 209.638 121.312C213.113 121.312 216.41 120.599 219.439 119.441H229.774C225.765 124.607 223.27 130.931 222.913 137.789H222.824V193.012C222.824 193.725 222.824 194.526 222.913 195.239C223.181 197.822 223.894 200.227 225.052 202.364C216.766 206.016 211.777 212.785 211.777 220.178V226.68H215.34V220.178C215.34 214.032 219.795 208.51 227.012 205.393C230.754 210.381 236.723 213.587 243.494 213.587H244.742C245.365 219.911 250.8 224.899 257.304 224.899C263.808 224.899 269.242 219.911 269.866 213.587H271.113C277.795 213.587 283.854 210.381 287.596 205.393C294.723 208.421 299.267 214.032 299.267 220.089V226.591H302.831V220.089C303.009 212.785 297.931 206.105 289.734 202.453ZM140.769 35.4494H144.422V46.0486C144.422 47.0283 143.62 47.919 142.551 47.919C141.571 47.919 140.68 47.1174 140.68 46.0486V35.4494H140.769ZM28.5992 163.53C27.3519 164.777 25.57 165.49 23.7881 165.49C22.2735 165.49 20.9371 165.045 19.6898 164.154L29.2229 154.623C31.272 157.296 31.0048 161.126 28.5992 163.53ZM49.2691 165.49C45.5271 165.49 42.4088 162.462 42.4088 158.632C42.4088 154.802 45.438 151.773 49.2691 151.773C52.5655 151.773 55.3275 154.178 55.9511 157.296V159.879C55.4165 163.085 52.5655 165.49 49.2691 165.49ZM59.5149 152.931V143.223L70.2062 153.911V163.619L59.5149 152.931ZM51.8528 130.575L49.3582 133.069L56.0402 139.749V149.457L36.885 130.308L3.47467 163.708V152.308C3.47467 133.87 18.4425 118.907 36.885 118.907C54.0801 118.907 68.3352 132 70.1171 148.745L51.8528 130.575ZM123.128 75.5304H101.122L90.9651 63.8623C95.4198 55.9352 103.349 51.1255 112.08 51.1255C120.812 51.1255 128.83 56.0243 133.285 64.0405L123.128 75.5304ZM102.904 79.0931H121.524V85.6842L112.259 91.0283L102.993 85.6842V79.0931H102.904ZM87.4904 17.2794C87.4904 9.79757 93.6379 3.65182 101.122 3.65182H123.217C130.701 3.65182 136.849 9.7085 136.849 17.2794V59.8542L135.779 61.1012C130.612 52.6397 121.792 47.4737 112.17 47.4737C102.547 47.4737 93.727 52.6397 88.5596 61.0121L87.5795 59.8542V46.6721C87.5795 46.4939 87.5795 46.2267 87.5795 46.0486V31.8866L87.4904 17.2794ZM82.0557 47.83C81.0757 47.83 80.1847 47.0283 80.1847 45.9595V35.3603H83.8376V46.3158C83.6594 47.2065 82.9466 47.83 82.0557 47.83ZM129.097 90.0486L112.17 99.8462L95.2416 90.0486V83.6356H99.3399V87.7328L112.17 95.1255L124.999 87.7328V83.6356H129.097V90.0486ZM142.105 183.215H132.928C121.881 183.215 112.882 174.219 112.882 163.174V151.239C122.772 149.547 132.037 141.085 137.561 128.704C143.085 141.085 152.351 149.547 162.24 151.239V163.174C162.24 174.219 153.242 183.215 142.105 183.215ZM112.882 123.449C112.882 112.405 121.881 103.32 132.928 103.32H142.105C153.153 103.32 162.151 112.316 162.151 123.449V140.729V147.587C152.618 145.717 143.798 136.364 139.165 123.271L137.472 118.551L135.779 123.271C131.147 136.364 122.237 145.717 112.793 147.587V140.729V123.449H112.882ZM104.864 159.077C104.864 156.049 106.646 153.377 109.229 152.219V163.085V165.935C106.735 164.777 104.864 162.105 104.864 159.077ZM117.515 193.19C114.575 189.628 112.882 185.085 112.882 180.364V175.555C115.733 180.186 120.099 183.66 125.355 185.441V192.211L125.088 190.964C122.415 191.587 119.921 192.3 117.515 193.19ZM136.849 201.296C132.394 201.296 128.83 197.733 128.83 193.279V186.332C130.167 186.599 131.503 186.688 132.928 186.688H142.105C142.996 186.688 143.976 186.599 144.867 186.51V193.279C144.867 197.733 141.303 201.296 136.849 201.296ZM157.251 193.547C154.489 192.478 151.638 191.676 148.787 191.053L148.431 192.656V185.887C154.222 184.283 159.122 180.543 162.24 175.555V180.364C162.24 185.263 160.459 189.895 157.251 193.547ZM165.804 165.935V163.085V152.219C167.675 153.109 169.19 154.802 169.813 156.761V160.502H169.992C169.635 162.996 167.942 164.955 165.804 165.935ZM216.053 70.7206C216.053 69.2065 217.301 68.0486 218.726 68.0486H232.892C234.407 68.0486 235.565 69.2955 235.565 70.7206V77.8461C235.565 79.3603 234.318 80.5182 232.892 80.5182H218.726C217.211 80.5182 216.053 79.2712 216.053 77.8461V70.7206ZM183.979 70.7206C183.979 69.2065 185.227 68.0486 186.652 68.0486H200.818C202.333 68.0486 203.491 69.2955 203.491 70.7206V77.8461C203.491 79.3603 202.244 80.5182 200.818 80.5182H186.652C185.138 80.5182 183.979 79.2712 183.979 77.8461V70.7206ZM202.6 116.591L202.422 116.502C193.423 113.385 187.009 104.923 187.009 94.8583V84.17H200.907C204.382 84.17 207.144 81.3198 207.144 77.9352V72.5911H212.579V77.9352C212.579 81.4089 215.43 84.17 218.815 84.17H232.714V94.9474C232.714 107.506 222.468 117.749 209.906 117.749C207.322 117.838 204.827 117.393 202.6 116.591ZM288.398 139.482V181.077L277.974 138.146L277.885 137.968C274.232 127.636 267.639 126.567 264.075 126.923C261.046 127.19 258.818 128.704 257.482 130.486C256.057 128.704 253.918 127.19 250.889 126.923C250.711 126.923 250.444 126.923 250.176 126.923C249.464 121.312 244.563 116.769 238.416 116.057C243.672 112.049 250.265 109.644 257.482 109.644C274.499 109.555 288.398 123.004 288.398 139.482ZM257.482 194.348C244.742 193.814 237.079 173.061 237.079 161.927V152.931L240.465 139.126C242.603 132.98 245.989 130.13 250.533 130.575C254.096 130.931 255.522 133.87 255.7 134.939L257.482 134.761L259.264 134.939C259.353 133.87 260.868 130.931 264.431 130.575C270.044 130.04 272.984 134.939 274.499 139.126L277.885 152.931V161.927C277.885 173.061 270.222 193.903 257.482 194.348ZM226.655 139.571C226.655 131.822 229.685 124.785 234.674 119.441H236.634C241.891 119.441 246.167 122.915 246.702 127.279C243.405 128.17 239.574 130.931 237.169 137.968L226.655 181.077V139.571ZM226.834 195.417L233.872 166.381C234.941 174.753 238.683 185.53 245.187 192.121H244.831V210.202H243.672C235.119 210.113 227.992 203.7 226.834 195.417ZM257.482 221.425C252.493 221.425 248.394 217.328 248.394 212.34V194.794C251.067 196.664 254.096 197.822 257.393 197.911H257.482H257.571C260.957 197.822 263.897 196.664 266.57 194.794V212.34C266.57 217.328 262.471 221.425 257.482 221.425ZM271.292 210.113H270.133V192.032H269.866C276.37 185.441 280.112 174.664 281.181 166.292L288.219 195.328C287.952 197.376 287.329 199.336 286.349 201.028C283.498 206.462 277.795 210.113 271.292 210.113Z" transform="translate(387.381 268.988) scale(4)" fill="#F9D673"/>
<path d="M16.126 0H0.267299L0.0890996 1.60326C0.0890996 1.87046 0 2.13767 0 2.49394C0 6.76925 3.47468 10.2429 7.7512 10.2429H8.55304C12.8296 10.2429 16.3042 6.76925 16.3042 2.49394C16.3042 2.22674 16.3042 1.95953 16.2151 1.60326L16.126 0ZM8.55304 6.68016H7.7512C5.88022 6.68016 4.18743 5.34413 3.74196 3.65183H12.5623C12.1168 5.34413 10.5131 6.68016 8.55304 6.68016Z" transform="translate(1385.59 968.356) scale(4)" fill="#F9D673"/>
<path d="M0.356371 1.51417L6.59296 15.2308H0V18.7935H9.35488L10.9586 16.2105L3.65286 0L0.356371 1.51417Z" transform="translate(1420.52 865.036) scale(4)" fill="#F9D673"/>
<path d="M7.84033 19.7733H11.4041V0H0V3.56275H7.84033V19.7733Z" transform="translate(2234.84 897.814) scale(4)" fill="#F9D673"/>
<path d="M16.5715 1.6923C16.7497 2.13765 16.9279 2.49394 16.9279 2.93929C16.9279 4.45346 15.6806 5.7004 14.166 5.7004H6.32572C4.81112 5.7004 3.56376 4.45346 3.56376 2.93929H0C0 6.41297 2.85104 9.26315 6.32572 9.26315H14.166C17.6407 9.26315 20.4916 6.41297 20.4916 2.93929C20.4916 1.95953 20.2244 0.979757 19.7789 0L16.5715 1.6923Z" transform="translate(2249.09 1016.81) scale(4)" fill="#F9D673"/>
<path d="M85.5304 194.081H80.8975C81.6103 190.874 81.9666 188.113 81.9666 186.866V168.518L86.8668 173.417V160.146L91.7669 165.045L94.2616 162.551L86.8668 155.158V135.741C86.8668 128.259 83.5703 121.49 78.3138 116.858V92.8097C78.3138 85.417 71.6317 79.3603 63.346 79.3603H47.0417V74.4615C54.2584 70.7206 59.604 63.9514 61.4749 55.8461C65.1278 55.7571 68.157 52.7287 68.157 48.9879V39.6356C68.157 36.1619 65.5733 33.2227 62.1877 32.7773V29.1255H58.624V32.8664H40.4488H37.2414H32.5194H30.7375H10.5131V32.5992V29.1255H10.424C10.8695 26.9879 12.8296 25.3846 15.0569 25.3846H56.9312C64.5042 25.3846 70.6517 19.2389 70.6517 11.668V0H25.3918C21.1153 0 17.1061 2.04858 14.4333 5.4332H11.0477C4.98929 5.4332 0 10.4211 0 16.4777V39.5466V48.8988V62.8826H10.0677C12.6514 67.6032 16.5715 71.5223 21.2935 74.1053V80.6073L20.5808 80.251L19.1552 102.073L34.1231 92.1862L49.0909 102.073L47.8436 82.834H63.346C69.5825 82.834 74.75 87.2875 74.75 92.7206V114.097C70.9189 111.781 66.3752 110.356 61.5641 110.356H59.1585C50.3382 110.356 42.3198 114.81 37.6869 122.291L36.9741 123.449L37.4195 123.895H34.8358C30.8266 123.895 27.6192 127.101 27.6192 131.109V151.595C27.6192 154.802 29.7575 157.474 32.6085 158.453V186.777C32.6085 188.024 32.9649 190.785 33.6776 193.992H28.0646C18.4425 193.992 10.6022 201.83 10.6022 211.449V226.591H14.166V211.449C14.166 203.789 20.4026 197.555 28.0646 197.555H32.4303V225.344L56.5748 210.826L80.7193 225.344V198.178H79.8284C79.9175 198 79.9175 197.822 80.0066 197.644H85.5304C93.1925 197.644 99.4291 203.879 99.4291 211.538V227.749H102.993V211.538C102.904 201.919 95.1525 194.081 85.5304 194.081ZM64.5042 39.5466V48.8988C64.5042 50.502 63.435 51.749 62.0095 52.1053C62.0986 51.3036 62.0986 50.502 62.0986 49.7004V36.251C63.5241 36.7854 64.5042 38.0324 64.5042 39.5466ZM40.627 36.3401H58.4458V38.7449C58.4458 43.6437 54.4365 47.6518 49.5364 47.6518C44.6362 47.6518 40.627 43.6437 40.627 38.7449V36.3401ZM10.9586 36.3401H28.7774V38.7449C28.7774 43.6437 24.7682 47.6518 19.868 47.6518C14.9679 47.6518 10.9586 43.6437 10.9586 38.7449V36.3401ZM3.56376 39.5466C3.56376 38.7449 4.90022 37.587 6.50391 36.8745V51.5708C4.90022 50.8583 3.56376 49.7004 3.56376 48.8988V39.5466ZM11.0477 8.99595H16.1261L16.6606 8.19433C18.5316 5.34413 21.739 3.56275 25.2137 3.56275H66.9097V11.5789C66.9097 17.1903 62.3659 21.7328 56.753 21.7328H14.8787C10.3349 21.7328 6.59299 25.4737 6.59299 30.0162V33.0445C5.61295 33.3117 4.54383 33.7571 3.65289 34.3806V16.4777C3.5638 12.3806 6.94936 8.99595 11.0477 8.99595ZM3.56376 59.3198V54.0648C4.5438 54.6883 5.52388 55.1336 6.50391 55.4008V59.3198H3.56376ZM10.335 49.7895V46.7611C12.6514 49.4332 16.037 51.2146 19.868 51.2146C26.7283 51.2146 32.3412 45.6032 32.3412 38.7449V36.3401H37.0632V38.7449C37.0632 45.6032 42.6761 51.2146 49.5364 51.2146C53.011 51.2146 56.2184 49.7895 58.4458 47.3846V49.7895C58.4458 63.0607 47.6654 73.8381 34.3904 73.8381C21.1153 73.8381 10.335 63.0607 10.335 49.7895ZM24.8573 75.7085C27.7974 76.7773 31.0048 77.4008 34.3904 77.4008C37.5087 77.4008 40.6269 76.8664 43.3888 75.8866V82.6559L34.1231 88L24.8573 82.6559V75.7085ZM23.2536 95.1255L23.8773 86.1295L30.8266 90.1376L23.2536 95.1255ZM37.5977 90.2267L44.5471 86.2186L45.1707 95.2146L37.5977 90.2267ZM43.3888 206.729C41.2506 206.729 36.1722 194.704 36.1722 186.866V158.364L47.3981 133.96L67.5334 154.089H62.1877V157.652H71.0972L78.4028 164.955V186.866C78.4028 194.794 73.2354 206.729 71.1862 206.729H43.3888ZM59.1585 114.008H61.5641C66.4642 114.008 71.0971 115.7 74.75 118.462V119.352H75.8191C80.3629 123.36 83.2139 129.15 83.2139 135.652V151.506L60.1385 128.437L57.6439 130.931L83.2139 156.494V164.688L81.8775 163.352V162.996H81.5211L41.5179 123.004C45.6162 117.304 52.1201 114.008 59.1585 114.008ZM31.1829 151.595V131.109C31.1829 129.061 32.7867 127.457 34.8358 127.457H40.9833L44.7253 131.198L33.7667 154.98C32.2521 154.623 31.1829 153.287 31.1829 151.595ZM34.2122 196.219C34.1231 196.13 34.1231 196.13 34.2122 196.219V196.219ZM35.905 201.741C37.6869 206.372 40.1815 210.202 43.3888 210.202H50.5164L35.905 219.02V201.741ZM77.1555 219.02L62.5441 210.202H71.1862C73.5918 210.202 75.6409 207.976 77.2446 204.947V219.02H77.1555Z" transform="translate(2061.99 281.457) scale(4)" fill="#F9D673"/>
<path d="M3.56376 0H0V4.98786H3.56376V0Z" transform="translate(2276.89 1157.18) scale(4)" fill="#F9D673"/>
<path d="M3.56376 0H0V4.98783H3.56376V0Z" transform="translate(2276.89 1201.36) scale(4)" fill="#F9D673"/>
<path d="M3.56376 0H0C0 3.74089 3.0292 6.76924 6.68206 6.76924H10.3349V3.20648H6.68206C4.98927 3.20648 3.56376 1.78138 3.56376 0Z" transform="translate(494.65 975.838) scale(4)" fill="#F9D673"/>
<path d="M0 11.8461V21.9109H3.56376V11.8461C3.56376 7.30363 7.30572 3.56275 11.8495 3.56275V0C5.34565 0 0 5.25505 0 11.8461Z" transform="translate(325.015 1058.49) scale(4)" fill="#F9D673"/>
<path d="M43.0325 0H10.8695C5.34564 0 1.42551 5.7895 0 9.26318L3.29648 10.6883C4.72199 7.30364 7.92937 3.65183 10.9586 3.65183H43.1215C47.6653 3.65183 51.4073 7.39273 51.4073 11.9352V21.0202H54.9711V11.7571C54.882 5.25507 49.5363 0 43.0325 0Z" transform="translate(375.264 1142.93) scale(4)" fill="#F9D673"/>
<path d="M13.3641 5.78947H16.9279C16.9279 2.49393 13.1859 0 8.46394 0C3.65286 0 0 2.583 0 5.78947H3.56376C3.56376 4.89879 5.52384 3.56275 8.46394 3.56275C11.315 3.56275 13.3641 4.89879 13.3641 5.78947Z" transform="translate(855.304 861.474) scale(4)" fill="#F9D673"/>
<path d="M8.46394 0C3.65286 0 0 2.583 0 5.78947H3.56376C3.56376 4.89879 5.52384 3.56275 8.46394 3.56275C11.404 3.56275 13.3641 4.89879 13.3641 5.78947H16.9279C16.9279 2.583 13.1859 0 8.46394 0Z" transform="translate(942.616 861.474) scale(4)" fill="#F9D673"/>
<path d="M0 5.78947C0 9.97571 3.38558 13.3603 7.573 13.3603H11.5822C15.7697 13.3603 19.1552 9.97571 19.1552 5.78947V0H0.0890996V5.78947H0ZM3.56376 3.56275H15.5915V5.78947C15.5915 8.01619 13.8096 9.79757 11.5822 9.79757H7.573C5.34565 9.79757 3.56376 8.01619 3.56376 5.78947V3.56275Z" transform="translate(892.723 916.696) scale(4)" fill="#F9D673"/>
<path d="M39.0232 97.7085L50.16 91.2955H64.5932C70.028 91.2955 74.4827 95.1255 74.4827 99.8461V121.846H78.0464V99.8461C78.0464 93.166 71.988 87.7328 64.5932 87.7328H51.9419V82.1215C58.713 78.5587 63.7914 72.2348 65.7515 64.753C69.5825 64.753 72.7008 61.6356 72.7008 57.8057V48.3644C72.7008 44.8907 70.028 41.9514 66.6424 41.5061V36.6964C66.6424 26.6316 61.2968 17.8138 53.2783 12.915C52.4764 5.7004 46.3289 0 38.845 0C31.3611 0 25.1245 5.7004 24.4118 13.004C16.4824 17.9028 11.1368 26.7206 11.1368 36.6964V41.7733C8.10757 42.664 4.36561 44.9798 4.36561 48.2753V57.7166C4.36561 61.3684 8.99851 63.8623 12.0277 64.4858C13.9878 72.1457 19.2443 78.5587 26.1046 82.2105V87.7328H13.4532C6.0584 87.7328 0 93.166 0 99.8461V121.846H3.56376V99.8461C3.56376 95.1255 8.01847 91.2955 13.4532 91.2955H27.8865L39.0232 97.7085ZM69.137 48.2753V57.7166C69.137 59.3198 67.9788 60.6559 66.4642 61.0121C66.6424 59.8542 66.7315 58.6964 66.7315 57.5385V45.0688C68.0679 45.5142 69.137 46.7611 69.137 48.2753ZM38.845 3.56275C43.567 3.56275 47.6654 6.59109 49.18 10.8664C45.9726 9.61943 42.4979 8.90688 38.845 8.90688C35.1922 8.90688 31.6284 9.61943 28.421 10.9555C30.0247 6.68016 34.034 3.56275 38.845 3.56275ZM14.6114 36.6964C14.6114 23.336 25.4809 12.4696 38.845 12.4696C52.2092 12.4696 63.0786 23.336 63.0786 36.6964V39.7247H56.753L51.14 30.1053L45.5271 39.7247H14.6114V36.6964ZM11.0477 60.4777C9.35488 59.7652 7.84028 58.6073 7.84028 57.7166V48.2753C7.84028 47.3846 9.35488 46.1376 11.0477 45.5142V57.5385V60.4777ZM14.6114 57.5385V43.2874H47.6654L51.14 37.2308L54.6147 43.2874H62.9895V57.5385C62.9895 70.8988 52.1201 81.7652 38.7559 81.7652C25.4809 81.7652 14.6114 70.8988 14.6114 57.5385ZM38.845 85.3279C42.1415 85.3279 45.3489 84.7045 48.289 83.6356V88.1781L38.9341 93.6113L29.5792 88.1781V83.7247C32.5194 84.7044 35.6376 85.3279 38.845 85.3279Z" transform="translate(189.949 243.692) scale(4)" fill="#F9D673"/>
<path d="M3.56376 0H0V4.27531H3.56376V0Z" transform="translate(338.914 647.708) scale(4)" fill="#F9D673"/>
<path d="M3.56376 0H0V4.27529H3.56376V0Z" transform="translate(338.914 677.279) scale(4)" fill="#F9D673"/>
<path d="M5.52383 5.16598C7.75119 5.16598 9.80035 3.91903 11.0477 1.78138L7.92938 0C7.30572 1.06883 6.41477 1.60323 5.52383 1.60323C4.63289 1.60323 3.74195 0.979757 3.11829 0L0 1.78138C1.24732 3.91903 3.29648 5.16598 5.52383 5.16598Z" transform="translate(324.303 483.109) scale(4)" fill="#F9D673"/>
<path d="M4.72199 0H0V3.56276H4.72199V0Z" transform="translate(283.676 442.138) scale(4)" fill="#F9D673"/>
<path d="M4.72199 0H0V3.56276H4.72199V0Z" transform="translate(388.45 442.138) scale(4)" fill="#F9D673"/>
<path d="M16.126 2.22672V0H0V2.22672C0 5.78947 2.85102 8.63967 6.41478 8.63967H9.62217C13.1859 8.63967 16.126 5.78947 16.126 2.22672ZM3.83105 3.56275H12.2059C11.7604 4.45344 10.7804 5.16599 9.62217 5.16599H6.32569C5.25656 5.07693 4.27652 4.45344 3.83105 3.56275Z" transform="translate(314.324 517.312) scale(4)" fill="#F9D673"/>
<path d="M7.8403 6.68016V3.11741C5.96932 3.11741 4.27652 1.95951 3.11829 0L0 1.78138C1.78188 4.89879 4.63291 6.68016 7.8403 6.68016Z" transform="translate(1692.08 852.567) scale(4)" fill="#F9D673"/>
<path d="M2.49462 0L0 2.49393C1.78188 4.27531 4.09833 5.25507 6.68206 5.25507C9.17669 5.25507 11.5822 4.27531 13.3641 2.49393L10.8695 0C9.80034 1.06883 8.28573 1.69232 6.77113 1.69232C5.07834 1.78138 3.56375 1.15789 2.49462 0Z" transform="translate(1636.48 777.393) scale(4)" fill="#F9D673"/>
<path d="M44.0125 38.7449V0H40.4487V0.178135L39.2905 0.267209C18.7989 1.4251 2.85102 18.3482 2.85102 38.834V41.8623C1.06914 43.5547 0 45.7814 0 48.1862C0 51.0364 1.42552 53.5304 3.74196 55.2227C4.00925 67.5142 14.0769 77.4008 26.3719 77.4008H26.461V81.9433C24.9464 82.5668 23.8772 84.081 23.8772 85.8624V88.2672H14.8787C8.55305 88.2672 3.38557 93.4332 3.38557 99.7571H6.94933C6.94933 95.3927 10.5131 91.8299 14.8787 91.8299H23.8772V96.9069C23.8772 99.2227 25.7482 101.182 28.1537 101.182H51.0509C53.3674 101.182 55.3275 99.3117 55.3275 96.9069V91.8299H65.306C69.6716 91.8299 73.2354 95.3927 73.2354 99.7571V127.903H76.7991V99.7571C76.7991 93.4332 71.6317 88.2672 65.306 88.2672H55.3275V85.8624C55.3275 84.081 54.1692 82.4777 52.5655 81.9433V73.5708C53.6347 73.1255 54.7929 72.5911 55.862 72.0567C60.584 76.1538 66.1078 78.7368 71.8098 78.7368H77.1555V75.1741H71.8098C57.1093 75.085 44.0125 54.7773 44.0125 38.7449ZM40.4487 8.90688V38.834C40.4487 49.4332 45.438 61.3684 53.011 69.3846C49.2691 71.2551 45.0816 72.2348 40.8051 72.2348C25.6591 72.2348 13.3641 59.9433 13.3641 44.8016V40.4372C26.9955 35.1822 37.3304 23.247 40.4487 8.90688ZM6.41479 38.834C6.41479 20.8421 19.9571 5.87854 37.6868 3.91902V4.63158C35.4594 21.3765 22.8081 35.1822 6.41479 38.834ZM9.88945 42.4858V44.8016C9.88945 47.919 10.3349 51.0364 11.2259 53.8866C10.9586 53.8866 10.7804 53.8866 10.5131 53.8866C6.68205 53.8866 3.47467 51.3036 3.47467 48.1862C3.47467 45.247 6.32569 42.753 9.88945 42.4858ZM26.2828 73.8381C16.5715 73.8381 8.46395 66.5344 7.30573 57.0931C8.28576 57.3603 9.35487 57.5385 10.5131 57.5385C11.2258 57.5385 11.8495 57.4494 12.4732 57.3603C15.4133 63.9514 20.5807 69.3846 27.0846 72.5911H26.461V73.8381C26.3719 73.8381 26.3719 73.8381 26.2828 73.8381ZM51.6746 96.9069C51.6746 97.2632 51.4073 97.6194 50.9618 97.6194H46.418V89.1579H42.8543V97.6194H28.0646C27.7083 97.6194 27.3519 97.3522 27.3519 96.9069V85.8624C27.3519 85.5061 27.6192 85.1498 28.0646 85.1498H50.9618C51.3182 85.1498 51.6746 85.417 51.6746 85.8624V96.9069ZM48.9127 81.587H29.9356V73.8381C33.3212 75.085 36.974 75.7976 40.8051 75.7976C43.567 75.7976 46.3289 75.4413 48.9127 74.7288V81.587Z" transform="translate(1559.15 615.644) scale(4)" fill="#F9D673"/>
<path d="M66.8206 66.4454V61.8138L74.3936 69.3846V27.8785C74.3936 12.4696 61.8313 0 46.5071 0H43.8343C34.1231 0 25.3027 4.89879 20.1353 13.1822L19.4225 14.3401L20.1353 15.0526H16.7497C12.4732 15.0526 8.90941 18.5263 8.90941 22.8907V45.6923C8.90941 49.9676 12.3841 53.5304 16.7497 53.5304H17.1061V65.0202L15.7696 66.0891C5.7911 73.9271 0 85.6842 0 98.332C0 120.955 18.3534 139.304 40.9833 139.304C63.6132 139.304 81.9666 120.955 81.9666 98.332C81.9666 85.7733 76.4428 74.2834 66.8206 66.4454ZM63.2568 63.6842V78.8259C57.733 72.413 49.5363 68.6721 40.8942 68.6721C40.0923 68.6721 39.2905 68.6721 38.4887 68.7611V48.5425H26.0155V52.1053H34.9249V69.2955C29.4902 70.4534 24.59 73.0364 20.5807 76.7773V47.3846L30.5593 25.6518L53.4565 48.5425H47.0417V52.1053H57.0202L63.1677 58.251V63.6842H63.2568ZM43.8343 3.47369H46.5071C59.9604 3.47369 70.8298 14.4291 70.8298 27.7895V60.6559L23.8772 13.8057C28.5101 7.30364 35.8158 3.47369 43.8343 3.47369ZM15.5915 49.7004C13.8096 49.2551 12.3841 47.5627 12.3841 45.6032V22.8016C12.3841 20.4858 14.255 18.5263 16.6606 18.5263H23.6099L27.9755 22.8907L17.1061 46.4049V46.4939L15.5915 49.7004ZM40.9833 135.563C20.3135 135.563 3.56376 118.818 3.56376 98.1538C3.56376 87.8219 7.75118 78.2024 15.0569 71.166V91.0283L18.3534 85.2389C18.8879 84.3482 19.4225 83.5466 19.9571 82.7449H20.5807V81.9433C25.4809 75.7976 32.9648 72.1457 40.8942 72.1457C50.16 72.1457 58.8021 77.1336 63.435 85.2389L66.7315 91.0283V82.7449V71.166C74.1263 78.2024 78.2246 87.8219 78.2246 98.1538C78.4028 118.818 61.564 135.563 40.9833 135.563Z" transform="translate(1750.52 352.713) scale(4)" fill="#F9D673"/>
<path d="M21.0262 0H1.33641L0.801814 0.979749C0.26725 1.95951 0 3.02834 0 4.18623C0 7.92712 3.02918 10.9555 6.77113 10.9555H15.5023C19.2443 10.9555 22.2735 7.92712 22.2735 4.18623C22.2735 3.11741 22.0062 2.04857 21.4717 0.979749L21.0262 0ZM15.5023 7.30364H6.77113C4.98925 7.30364 3.56377 5.87853 3.56377 4.09716C3.56377 3.91902 3.56374 3.74089 3.65284 3.56275H18.7098C18.7098 3.74089 18.7988 3.91902 18.7988 4.09716C18.7988 5.87853 17.2842 7.30364 15.5023 7.30364Z" transform="translate(1871.69 675.498) scale(4)" fill="#F9D673"/>
<path d="M16.126 0H0.267285L0.089086 1.60324C0.089086 1.87045 0 2.13765 0 2.49393C0 6.76923 3.47467 10.2429 7.75119 10.2429H8.55303C12.8295 10.2429 16.3042 6.76923 16.3042 2.49393C16.3042 2.22672 16.3042 1.95952 16.2151 1.60324L16.126 0ZM8.64213 6.5911H7.84028C5.96931 6.5911 4.27652 5.25506 3.83105 3.56275H12.6514C12.1168 5.25506 10.5131 6.5911 8.64213 6.5911Z" transform="translate(802.916 503.061) scale(4)" fill="#F9D673"/>
<path d="M4.72199 0H0V3.56275H4.72199V0Z" transform="translate(769.773 397.96) scale(4)" fill="#F9D673"/>
<path d="M4.72199 0H0V3.56275H4.72199V0Z" transform="translate(883.101 397.96) scale(4)" fill="#F9D673"/>
<path d="M10.1567 19.1498H23.8772V1.78138H20.3135V15.587H13.7205V0H0V3.56275H10.1567V19.1498Z" transform="translate(767.635 370.526) scale(4)" fill="#F9D673"/>
<path d="M14.2551 1.78138L11.1368 0C10.1567 1.69231 8.64213 2.67206 7.12753 2.67206C5.52384 2.67206 4.09833 1.69231 3.11829 0L0 1.78138C1.60369 4.54251 4.27652 6.23482 7.12753 6.23482C9.97854 6.23482 12.6514 4.54251 14.2551 1.78138Z" transform="translate(2171.76 516.599) scale(4)" fill="#F9D673"/>
<path d="M4.72198 0H0V3.56275H4.72198V0Z" transform="translate(2140.75 435.725) scale(4)" fill="#F9D673"/>
<path d="M4.72198 0H0V3.56275H4.72198V0Z" transform="translate(2245.17 435.725) scale(4)" fill="#F9D673"/>
</svg>
