<svg width="1156" height="232" viewBox="0 0 1156 232" fill="none" xmlns="http://www.w3.org/2000/svg">
<path d="M0 12.3484H3.79128C3.93773 13.2595 4.39333 13.9753 5.14183 14.5285C5.90659 15.0654 6.86661 15.3419 8.05444 15.3419C8.98192 15.3419 9.69788 15.163 10.2186 14.8213C10.7393 14.4797 10.9996 13.9916 10.9996 13.3896C10.9996 12.4297 10.2511 11.8115 8.7704 11.5512L5.85777 10.9818C4.11671 10.6238 2.81499 10.0056 2.00141 9.12707C1.17155 8.24853 0.764763 7.09341 0.764763 5.66171C0.764763 3.95344 1.39936 2.58682 2.65227 1.56185C3.90518 0.520618 5.56489 0 7.61512 0C8.24971 0 8.8843 0.0488079 9.50262 0.162693C10.1209 0.276578 10.7555 0.45554 11.4064 0.748387C12.0573 1.02496 12.6268 1.38289 13.1312 1.80589C13.6193 2.22889 14.0587 2.79832 14.4166 3.48163C14.7746 4.1812 14.9861 4.9784 15.0838 5.87321H11.325C11.0647 4.01851 9.92568 3.09116 7.908 3.09116C6.96425 3.09116 6.21575 3.28639 5.64625 3.69313C5.07674 4.09986 4.80012 4.65301 4.80012 5.35259C4.80012 5.93829 5.01166 6.39383 5.41845 6.71921C5.84151 7.0446 6.4761 7.28864 7.3385 7.48387L9.55143 7.92314C11.3576 8.29733 12.7244 8.86676 13.6356 9.64769C14.5468 10.4286 15.0024 11.5187 15.0024 12.9503C15.0024 14.6749 14.3516 16.0578 13.0498 17.099C11.7481 18.1403 10.0396 18.6609 7.89172 18.6609C6.45982 18.6609 5.1581 18.4168 4.01908 17.9287C2.88007 17.4407 1.95259 16.7086 1.25291 15.7487C0.504417 14.7725 0.0976297 13.6499 0 12.3484Z" transform="translate(315.409 78.7434) scale(4)" fill="white"/>
<path d="M0 18.0101L7.71275 0H11.2925L18.9727 18.0101H14.9536L13.5705 14.5935H5.45099L4.05163 18.0101H0ZM6.83407 11.1119H12.1549L9.47008 4.5554L6.83407 11.1119Z" transform="translate(377.176 79.7844) scale(4)" fill="white"/>
<path d="M0 17.8962V0H13.0824V3.48163H3.80755V7.87433H11.8945V11.2909H3.80755V17.8962H0Z" transform="translate(460.617 80.24) scale(4)" fill="white"/>
<path d="M0 17.8962V0H13.2614V3.48163H3.80755V7.35372H12.1712V10.7703H3.80755V14.4797H13.2614V17.8962H0Z" transform="translate(522.124 80.24) scale(4)" fill="white"/>
<path d="M0 17.8962V0H2.8638L12.3502 11.177V0H16.174V17.9125H13.2125L3.80756 7.0446V17.9125H0V17.8962Z" transform="translate(617.67 80.24) scale(4)" fill="white"/>
<path d="M0 17.8962V0H13.2614V3.48163H3.80756V7.35372H12.1712V10.7703H3.80756V14.4797H13.2614V17.8962H0Z" transform="translate(692.52 80.24) scale(4)" fill="white"/>
<path d="M0 3.48163V0H15.7672V3.48163H9.79552V17.8962H5.97169V3.48163H0Z" transform="translate(754.092 80.24) scale(4)" fill="white"/>
<path d="M0 0H4.00283L7.76157 12.0555L11.8946 0H15.0838L19.2168 12.0555L22.9755 0H26.9783L21.1043 18.0101H17.3781L13.4566 6.60533L9.55145 18.0101H5.80898L0 0Z" transform="translate(822.823 80.24) scale(4)" fill="white"/>
<path d="M1.23664 13.9916C0.406786 12.5599 0 10.998 0 9.30603C0 7.61402 0.406786 6.05218 1.23664 4.62048C2.06649 3.18878 3.18922 2.04993 4.62112 1.23647C6.05302 0.406733 7.6151 0 9.32362 0C10.6091 0 11.8294 0.244039 13.001 0.732118C14.1563 1.2202 15.1651 1.88724 15.995 2.71697C16.8248 3.5467 17.492 4.53913 17.9801 5.69425C18.4683 6.84937 18.7123 8.0533 18.7123 9.33857C18.7123 10.6076 18.4683 11.8278 17.9801 12.9666C17.492 14.1217 16.8248 15.0979 15.995 15.9276C15.1651 16.7574 14.1563 17.4244 13.001 17.9125C11.8457 18.4006 10.6091 18.6446 9.32362 18.6446C7.6151 18.6446 6.03675 18.2379 4.62112 17.4081C3.18922 16.5459 2.06649 15.4233 1.23664 13.9916ZM4.52349 6.4101C4.05162 7.28864 3.82383 8.24853 3.82383 9.30603C3.82383 10.3473 4.05162 11.3072 4.52349 12.1857C4.99537 13.0642 5.66252 13.7638 6.50864 14.2844C7.35477 14.805 8.29851 15.0654 9.32362 15.0654C10.365 15.0654 11.3088 14.805 12.1549 14.2844C13.001 13.7638 13.6681 13.0642 14.14 12.1857C14.6119 11.3072 14.856 10.3473 14.856 9.30603C14.856 8.2648 14.6119 7.30491 14.14 6.42637C13.6681 5.54783 13.001 4.84825 12.1549 4.32763C11.3088 3.80701 10.365 3.5467 9.32362 3.5467C8.29851 3.5467 7.35477 3.80701 6.50864 4.32763C5.66252 4.83198 4.99537 5.53156 4.52349 6.4101Z" transform="translate(930.931 78.8735) scale(4)" fill="white"/>
<path d="M0 17.8962V0H7.63139C9.71415 0 11.4227 0.569424 12.7569 1.692C14.0749 2.83085 14.7421 4.31136 14.7421 6.16606C14.7421 7.35372 14.4492 8.42749 13.8471 9.35484C13.2451 10.2822 12.4152 11.0143 11.3576 11.5349L15.9136 17.8962H11.3576L7.43612 12.3158H3.82383V17.8962H0ZM3.80756 8.83422H7.50121C8.49378 8.83422 9.30737 8.59018 9.9745 8.1021C10.6416 7.61403 10.9671 6.96325 10.9671 6.16606C10.9671 5.35259 10.6416 4.70182 9.9745 4.21374C9.30737 3.72567 8.49378 3.48163 7.50121 3.48163H3.80756V8.83422Z" transform="translate(1016.98 80.24) scale(4)" fill="white"/>
<path d="M0 17.8962V0H3.82383V8.76914L11.6179 0H16.1577L9.20973 7.87433L16.8736 17.8962H12.1223L6.62254 10.7703L3.8401 13.9265V17.8962H0Z" transform="translate(1088.51 80.24) scale(4)" fill="white"/>
<path d="M47.5294 32.685C49.5633 32.685 51.223 31.0255 51.223 28.9919C51.223 26.9582 49.5633 25.2987 47.5294 25.2987C46.7483 25.2987 46.0324 25.5428 45.4303 25.9495L40.2397 22.956C40.2397 22.8583 40.256 22.7607 40.256 22.6631C40.256 22.5655 40.256 22.4679 40.2397 22.3703L45.4303 19.3767C46.0324 19.7834 46.7483 20.0275 47.5294 20.0275C49.5633 20.0275 51.223 18.368 51.223 16.3344C51.223 14.3007 49.5633 12.6412 47.5294 12.6412C46.7483 12.6412 46.0324 12.8853 45.4303 13.292L40.2397 10.2985C40.2397 10.2008 40.256 10.1032 40.256 10.0056C40.256 7.97195 38.5963 6.31248 36.5623 6.31248C34.5284 6.31248 32.8849 7.97195 32.8849 10.0219C32.8849 12.0718 34.5446 13.715 36.5786 13.715C37.3596 13.715 38.0756 13.471 38.6776 13.0642L43.8683 16.0578C43.8683 16.1554 43.852 16.253 43.852 16.3506C43.852 16.4482 43.852 16.5459 43.8683 16.6435L38.6776 19.637C38.0756 19.2303 37.3596 18.9863 36.5786 18.9863C35.7975 18.9863 35.0816 19.2303 34.4795 19.637L29.2889 16.6435C29.3052 16.5459 29.3052 16.4482 29.3052 16.3506C29.3052 14.8864 28.4428 13.6174 27.1899 13.0154V7.02833C28.4428 6.44264 29.3052 5.17363 29.3052 3.69313C29.3052 1.65947 27.6455 0 25.6115 0C23.5776 0 21.9179 1.65947 21.9179 3.69313C21.9179 5.15736 22.7803 6.42637 24.0332 7.02833V13.0154C22.7803 13.6011 21.9179 14.8701 21.9179 16.3506C21.9179 18.3843 23.5776 20.0438 25.6115 20.0438C26.3925 20.0438 27.1085 19.7997 27.7105 19.393L32.9012 22.3865C32.9012 22.4842 32.8849 22.5818 32.8849 22.6794C32.8849 22.777 32.8849 22.8746 32.9012 22.9722L27.7105 25.9658C27.1085 25.559 26.3925 25.315 25.6115 25.315C24.8305 25.315 24.1145 25.559 23.5125 25.9658L18.3218 22.9722C18.3381 22.8746 18.3381 22.777 18.3381 22.6794C18.3381 21.2151 17.4757 19.9461 16.2228 19.3442V13.3571C17.4757 12.7714 18.3381 11.5024 18.3381 10.0219C18.3381 7.98822 16.6784 6.32875 14.6444 6.32875C12.6105 6.32875 10.9671 7.97195 10.9671 10.0219C10.9671 11.4861 11.8295 12.7551 13.0824 13.3571V19.3442C12.9034 19.4255 12.7244 19.5231 12.5617 19.637L7.37104 16.6435C7.38731 16.5459 7.38731 16.4482 7.38731 16.3506C7.38731 14.317 5.72761 12.6575 3.69366 12.6575C1.6597 12.6575 0 14.3007 0 16.3506C0 17.8149 0.862395 19.0839 2.11531 19.6858V25.6729C0.862395 26.2586 0 27.5276 0 29.0081C0 31.0418 1.6597 32.7013 3.69366 32.7013C5.72761 32.7013 7.38731 31.0418 7.38731 29.0081C7.38731 27.5439 6.52491 26.2749 5.272 25.6729V19.6858C5.45099 19.6045 5.62998 19.5069 5.79269 19.393L10.9833 22.3865C10.9833 22.4842 10.9671 22.5818 10.9671 22.6794C10.9671 24.1436 11.8295 25.4126 13.0824 26.0146V32.0017C11.8295 32.5874 10.9671 33.8564 10.9671 35.3369C10.9671 35.4345 10.9671 35.5321 10.9833 35.6297L5.79269 38.6233C5.19064 38.2165 4.47469 37.9725 3.69366 37.9725C1.6597 37.9562 0 39.6157 0 41.6494C0 43.683 1.6597 45.3425 3.69366 45.3425C5.72761 45.3425 7.38731 43.683 7.38731 41.6494C7.38731 41.5518 7.38731 41.4541 7.37104 41.3565L12.5617 38.363C13.1637 38.7697 13.8797 39.0137 14.6607 39.0137C16.6947 39.0137 18.3544 37.3543 18.3544 35.3206C18.3544 33.8564 17.492 32.5874 16.2391 31.9854V25.9983C16.4181 25.917 16.597 25.8194 16.7598 25.7055L21.9504 28.699C21.9504 28.7966 21.9341 28.8942 21.9341 28.9919C21.9341 30.4561 22.7965 31.7251 24.0494 32.3271V38.3142C22.7965 38.8999 21.9341 40.1689 21.9341 41.6494C21.9341 41.747 21.9341 41.8446 21.9504 41.9422L16.7598 44.9358C16.1577 44.529 15.4418 44.285 14.6607 44.285C12.6268 44.285 10.9671 45.9445 10.9671 47.9781C10.9671 50.0118 12.6268 51.6712 14.6607 51.6712C16.6947 51.6712 18.3544 50.0118 18.3544 47.9781C18.3544 47.8805 18.3544 47.7829 18.3381 47.6853L23.5287 44.6917C23.6915 44.8056 23.8704 44.9032 24.0494 44.9846V50.9717C22.7965 51.5574 21.9341 52.8264 21.9341 54.3069C21.9341 56.3405 23.5938 58 25.6278 58C27.6617 58 29.3214 56.3405 29.3214 54.3069C29.3214 54.2093 29.3214 54.1116 29.3052 54.014L34.4958 51.0205C35.0979 51.4272 35.8138 51.6712 36.5948 51.6712C38.6288 51.6712 40.2885 50.0118 40.2885 47.9781C40.2885 45.9445 38.6288 44.285 36.5948 44.285C34.5609 44.285 32.9012 45.9445 32.9012 47.9781C32.9012 48.0757 32.9012 48.1734 32.9175 48.271L27.7268 51.2645C27.5641 51.1506 27.3851 51.053 27.2061 50.9717V44.9846C28.459 44.3989 29.3214 43.1299 29.3214 41.6494C29.3214 41.5518 29.3214 41.4541 29.3052 41.3565L34.4958 38.363C35.0979 38.7697 35.8138 39.0137 36.5948 39.0137C37.3759 39.0137 38.0918 38.7697 38.6939 38.363L43.8845 41.3565C43.8845 41.4541 43.8683 41.5518 43.8683 41.6494C43.8683 43.683 45.528 45.3425 47.5619 45.3425C49.5959 45.3425 51.2556 43.683 51.2556 41.6494C51.2556 39.6157 49.5959 37.9562 47.5619 37.9562C46.7809 37.9562 46.0649 38.2003 45.4629 38.607L40.256 35.6297C40.256 35.5321 40.2722 35.4345 40.2722 35.3369C40.2722 33.3032 38.6125 31.6438 36.5786 31.6438C34.5446 31.6438 32.8849 33.3032 32.8849 35.3369C32.8849 35.4345 32.8849 35.5321 32.9012 35.6297L27.7105 38.6233C27.5478 38.5094 27.3688 38.4118 27.1899 38.3304V32.3433C28.4428 31.7576 29.3052 30.4886 29.3052 29.0081C29.3052 28.9105 29.3052 28.8129 29.2889 28.7153L34.4795 25.7217C35.0816 26.1285 35.7975 26.3725 36.5786 26.3725C37.3596 26.3725 38.0756 26.1285 38.6776 25.7217L43.8683 28.7153C43.8683 28.8129 43.852 28.9105 43.852 29.0081C43.8357 31.0418 45.4954 32.685 47.5294 32.685Z" transform="scale(4)" fill="white"/>
</svg>
