<svg width="584" height="164" viewBox="0 0 584 164" fill="none" xmlns="http://www.w3.org/2000/svg">
<path d="M17.6925 0V16.4182L3.82954 8.43662C-0.276708 6.05617 0.00406345 4.58588 0.00406345 1.26024L14.2531 9.48682V1.99538L17.6925 0Z" transform="translate(496.103 32.5146) scale(4)" fill="#99BCE3"/>
<path d="M14.249 17.6155L0 9.38891L13.8279 1.40738C17.9692 -0.973083 19.0923 0.042113 21.9702 1.68743L7.72115 9.91401L14.249 13.6247V17.6155Z" transform="translate(496.119) scale(4)" fill="#5892CD"/>
<path d="M0 8.22658L14.249 0V15.9631C14.249 20.724 12.8101 21.1791 9.93222 22.8594V6.47625L3.43943 10.222L0 8.22658Z" transform="translate(527.004 6.60968) scale(4)" fill="#2A5789"/>
<path d="M20.5312 24.8198C20.4611 23.8746 19.3029 10.537 19.3029 10.537C19.1625 8.99673 19.1976 7.49144 19.1976 7.49144H19.1274C19.1274 7.49144 18.8466 8.92672 18.3553 10.537C18.3553 10.537 14.6 23.5595 14.1437 24.8198H11.2308C10.8447 23.7696 7.01923 10.537 7.01923 10.537C6.56298 8.96173 6.24712 7.49144 6.24712 7.49144H6.17692C6.17692 7.49144 6.24712 8.92672 6.10673 10.537C6.10673 10.537 4.91346 23.7346 4.84327 24.8198H0L2.63221 0H8.35288L12.2135 13.8977C12.6346 15.403 12.8803 16.6632 12.8803 16.6632H12.9505C12.9505 16.6632 13.1962 15.403 13.6524 13.8977L17.7587 0H23.4442L26.1115 24.8198H20.5312Z" transform="translate(0 63.1805) scale(4)" fill="#5592D7"/>
<path d="M8.52837 20.1639C2.87789 20.1639 0 18.0635 0 14.0377C0 9.03174 5.01875 7.52645 10.8798 7.00135V6.09117C10.8798 4.06078 9.51106 3.50067 7.44039 3.50067C5.54519 3.50067 3.65 4.1308 2.38654 4.6909L1.15817 1.47028C2.52692 0.875169 5.05385 0 8.49327 0C12.9154 0 16.1793 1.85536 16.1793 7.10637V18.7286C14.5649 19.5688 11.8976 20.1639 8.52837 20.1639ZM10.8798 9.59185C7.47548 9.90691 5.26442 10.7121 5.26442 13.8277C5.26442 16.1031 6.56298 17.0833 8.80914 17.0833C9.65144 17.0833 10.3534 16.9433 10.8798 16.6982V9.59185Z" transform="translate(107.675 83.3445) scale(4)" fill="#5592D7"/>
<path d="M3.01827 5.25101C1.36875 5.25101 0 4.09579 0 2.62551C0 1.19023 1.33365 0 3.01827 0C4.70288 0 6.03654 1.19023 6.03654 2.62551C6.00144 4.09579 4.66779 5.25101 3.01827 5.25101ZM0.175481 8.22658H5.82596V27.6553H0.175481V8.22658Z" transform="translate(179.833 51.8384) scale(4)" fill="#5592D7"/>
<path d="M9.58125 28.7055C3.6851 28.7055 0 25.2399 0 18.7286C0 12.4974 3.54471 8.64667 8.56346 8.64667C9.72163 8.64667 10.7043 8.78669 11.4062 8.96173V0H17.0216V27.2703C15.2668 28.1804 12.9505 28.7055 9.58125 28.7055ZM11.4062 12.0073C10.95 11.8673 10.4236 11.7973 9.86202 11.7973C6.73846 11.7973 5.54519 14.4578 5.54519 18.4836C5.54519 22.7194 6.80865 25.1348 9.68653 25.1348C10.4587 25.1348 11.0202 25.0648 11.4062 24.8548V12.0073Z" transform="translate(210.296 49.1779) scale(4)" fill="#5592D7"/>
<path d="M6.52788 25.5899C3.43942 25.5899 1.43894 25.0648 0 24.1196L1.33365 20.0239C2.14087 20.549 3.6149 21.1791 5.33461 21.1791C7.40529 21.1791 8.66875 19.9888 8.66875 18.2035C8.66875 16.6282 7.72115 15.648 5.19423 14.5278C1.33365 12.8125 0.245672 10.0819 0.245672 7.66648C0.245672 3.46567 3.29904 0 8.14231 0C10.8096 0 12.775 0.665128 13.9683 1.43528L12.7399 5.00596C11.8625 4.48086 10.5288 3.92076 9.01971 3.92076C7.05433 3.92076 6.00144 5.00596 6.00144 6.7563C6.00144 8.57665 7.2649 9.45182 9.37067 10.397C14.1788 12.5674 14.8808 15.1929 14.8808 17.7134C14.8808 22.2643 11.4413 25.5899 6.52788 25.5899Z" transform="translate(288.21 61.6403) scale(4)" fill="#5592D7"/>
<path d="M8.52836 20.1639C2.87788 20.1639 0 18.0635 0 14.0377C0 9.03174 5.01875 7.52645 10.8798 7.00135V6.09117C10.8798 4.06078 9.51105 3.50067 7.44038 3.50067C5.54519 3.50067 3.65 4.1308 2.38653 4.6909L1.15817 1.47028C2.52692 0.875169 5.05384 0 8.49326 0C12.9154 0 16.1793 1.85536 16.1793 7.10637V18.7286C14.5649 19.5688 11.8976 20.1639 8.52836 20.1639ZM10.8798 9.59185C7.47548 9.90691 5.26442 10.7121 5.26442 13.8277C5.26442 16.1031 6.56298 17.0833 8.80914 17.0833C9.65144 17.0833 10.3534 16.9433 10.8798 16.6982V9.59185Z" transform="translate(351.804 83.3445) scale(4)" fill="#5592D7"/>
<path d="M7.79135 12.5735V28.3616H2.14087V12.5735H0V8.93282H2.14087V6.93744C2.14087 2.0715 5.5101 -0.483992 10.7745 0.0761154V3.6468C8.87933 3.57679 7.75625 4.20691 7.75625 6.44734V8.89781H10.7745V12.5385H7.79135V12.5735Z" transform="translate(420.312 49.0135) scale(4)" fill="#5592D7"/>
<path d="M5.36972 12.0773C5.75578 14.9129 7.22981 16.3481 10.0726 16.3481C12.3539 16.3481 14.0736 15.8581 15.1264 15.2979L16.3899 18.7986C14.8808 19.5688 12.7048 20.1989 9.40578 20.1989C3.43943 20.1989 0 16.2781 0 10.0469C0 3.95576 3.19375 0 8.80914 0C14.4596 0 17.3024 3.81573 17.0567 10.397L5.36972 12.0773ZM8.59856 3.32564C6.28221 3.32564 4.84328 5.32102 5.01876 9.31179L11.8274 8.2966C11.8274 4.83093 10.6692 3.32564 8.59856 3.32564Z" transform="translate(463.69 83.2045) scale(4)" fill="#5592D7"/>
</svg>
