<?xml version="1.0" encoding="utf-8"?>
<!-- Generator: Adobe Illustrator 19.1.0, SVG Export Plug-In . SVG Version: 6.00 Build 0)  -->
<svg version="1.1" id="Layer_1" xmlns="http://www.w3.org/2000/svg" xmlns:xlink="http://www.w3.org/1999/xlink" x="0px" y="0px"
	 viewBox="0 0 200 80" style="enable-background:new 0 0 200 80;" xml:space="preserve">
<style type="text/css">
	.st0{fill:#F25E1E;}
</style>
<g>
	<g>
		<g>
			<g>
				<path d="M18.3,9.6h21.3c2,0,3.9,0.1,5.9,0.4c2,0.3,3.7,1,5.3,1.9c1.6,0.9,2.8,2.2,3.8,3.9c1,1.7,1.5,3.8,1.5,6.4
					c0,2.3-0.6,4.3-1.7,6.1c-1.1,1.8-2.5,3.2-4.3,4.1c2.4,0.8,4.3,2.3,5.7,4.4c1.4,2.1,2.1,4.7,2.1,7.5c0,3-0.5,5.5-1.4,7.5
					c-0.9,2-2.2,3.6-3.8,4.8c-1.6,1.2-3.5,2.1-5.6,2.6c-2.2,0.5-4.5,0.8-6.9,0.8H18.3V9.6z M30.1,29.5h9.2c0.5,0,1.1-0.1,1.6-0.2
					c0.6-0.2,1.1-0.4,1.6-0.8c0.5-0.4,0.9-0.9,1.2-1.5c0.3-0.6,0.5-1.4,0.5-2.3c0-1.8-0.5-3.1-1.5-3.8c-1-0.7-2.1-1.1-3.3-1.1h-9.2
					V29.5z M30.1,49.6h9.5c1.9,0,3.4-0.4,4.6-1.3c1.2-0.8,1.8-2.3,1.8-4.4c0-2.2-0.6-3.8-1.8-4.6c-1.2-0.9-2.7-1.3-4.5-1.3h-9.5
					V49.6z"/>
			</g>
		</g>
		<g>
			<path d="M105,46.7c-1.7-4.7-2.5-9.8-2.5-15.2s0.8-10.5,2.5-15.2c0.8-2.4,1.8-4.6,3-6.6H96.7v27.6L77.3,9.7H65.1v50.4h12.2V29.5
				l21.6,30.6h12.1v-2.4C108.4,54.5,106.4,50.8,105,46.7z"/>
		</g>
		<g>
			<path class="st0" d="M148,40.9c-0.5,2-1.4,3.7-2.8,5.1c-1.9,1.9-4.6,2.9-8,2.9c-2.3,0-4.3-0.5-6-1.5c-1.6-1-3-2.3-4-3.9
				c-1-1.6-1.8-3.5-2.3-5.6c-0.5-2.1-0.7-4.2-0.7-6.4c0-2.2,0.2-4.3,0.7-6.4c0.5-2.1,1.2-3.9,2.3-5.6c1-1.6,2.4-3,4-3.9
				c1.6-1,3.6-1.5,6-1.5c3.1,0,5.6,0.8,7.6,2.3c1.7,1.3,2.8,3.2,3.4,5.5h14.7c-0.2-3-1-5.7-2.4-8.2c-1.5-2.8-3.5-5.1-5.9-7
				c-2.4-1.9-5.1-3.3-8.1-4.3c-3-1-6-1.5-9-1.5c-4.2,0-8,0.8-11.5,2.4c-3.4,1.6-6.4,3.8-8.8,6.5c-2.4,2.8-4.3,6-5.6,9.7
				c-1.3,3.7-1.9,7.7-1.9,11.9s0.6,8.2,1.9,11.9c1.3,3.7,3.2,6.9,5.6,9.7c2.4,2.8,5.3,4.9,8.8,6.5c3.4,1.6,7.3,2.4,11.5,2.4
				c3.5,0,6.8-0.5,9.8-1.6c3-1.1,5.6-2.6,7.9-4.7c2.2-2.1,4-4.6,5.4-7.6c1-2.2,1.7-4.6,2.1-7.2H148z"/>
		</g>
		<g>
			<circle class="st0" cx="173.6" cy="53.7" r="8.3"/>
		</g>
		<g>
			<path class="st0" d="M18.1,67.5h3.5c2.8,0,4.7,1.8,4.7,4.5s-1.9,4.5-4.7,4.5h-3.5V67.5z M21.6,74.7c1.8,0,2.8-1.3,2.8-2.8
				c0-1.6-1-2.8-2.8-2.8H20v5.6H21.6z"/>
			<path class="st0" d="M27.3,68.1c0-0.6,0.5-1,1-1c0.6,0,1,0.5,1,1s-0.5,1-1,1C27.8,69.1,27.3,68.7,27.3,68.1z M27.5,69.9h1.7v6.5
				h-1.7V69.9z"/>
			<path class="st0" d="M31.4,76.9c0.5,0.6,1.2,0.8,2,0.8c0.8,0,1.8-0.4,1.8-1.6v-0.7c-0.5,0.6-1.2,1-2,1c-1.6,0-2.9-1.1-2.9-3.3
				c0-2.1,1.2-3.3,2.9-3.3c0.8,0,1.5,0.3,2,1v-0.8h1.7v6c0,2.5-1.9,3.1-3.5,3.1c-1.1,0-2-0.3-2.8-1L31.4,76.9z M35.2,72
				c-0.3-0.4-0.9-0.7-1.5-0.7c-1,0-1.6,0.7-1.6,1.8s0.7,1.8,1.6,1.8c0.6,0,1.2-0.3,1.5-0.7V72z"/>
			<path class="st0" d="M38.3,68.1c0-0.6,0.5-1,1-1c0.6,0,1,0.5,1,1s-0.5,1-1,1C38.8,69.1,38.3,68.7,38.3,68.1z M38.5,69.9h1.7v6.5
				h-1.7V69.9z"/>
			<path class="st0" d="M42,74.8v-3.4H41v-1.5H42v-1.8h1.7v1.8h1.3v1.5h-1.3v2.9c0,0.4,0.2,0.7,0.6,0.7c0.3,0,0.5-0.1,0.6-0.2
				l0.4,1.3c-0.3,0.2-0.7,0.4-1.4,0.4C42.7,76.6,42,76,42,74.8z"/>
			<path class="st0" d="M50,75.8c-0.4,0.5-1.2,0.8-2.1,0.8c-1,0-2.3-0.7-2.3-2.1c0-1.5,1.2-2.1,2.3-2.1c0.9,0,1.6,0.3,2.1,0.8v-0.9
				c0-0.7-0.6-1.1-1.4-1.1c-0.7,0-1.3,0.3-1.9,0.8L46,70.8c0.8-0.7,1.8-1,2.8-1c1.5,0,2.8,0.6,2.8,2.5v4.2H50V75.8z M50,74.1
				c-0.3-0.4-0.8-0.6-1.4-0.6c-0.7,0-1.2,0.3-1.2,1c0,0.6,0.6,1,1.2,1c0.5,0,1.1-0.2,1.4-0.6V74.1z"/>
			<path class="st0" d="M53.2,67.5h1.7v8.9h-1.7V67.5z"/>
			<path class="st0" d="M59.4,72c0-2.7,2.1-4.6,4.7-4.6c2,0,3.2,1.1,3.8,2.2l-1.6,0.8c-0.4-0.7-1.2-1.3-2.2-1.3
				c-1.6,0-2.7,1.2-2.7,2.9s1.2,2.9,2.7,2.9c1,0,1.8-0.6,2.2-1.3l1.6,0.8c-0.6,1.1-1.8,2.2-3.8,2.2C61.4,76.6,59.4,74.7,59.4,72z"/>
			<path class="st0" d="M73.2,75.6c-0.4,0.5-1.2,1-2.3,1c-1.4,0-2.1-0.8-2.1-2v-4.6h1.7v3.9c0,0.9,0.5,1.2,1.2,1.2
				c0.7,0,1.2-0.4,1.5-0.7v-4.4h1.7v6.5h-1.7V75.6z"/>
			<path class="st0" d="M76.4,69.9h1.7v0.9c0.5-0.6,1.3-1,2.1-1v1.7c-0.1,0-0.3-0.1-0.5-0.1c-0.6,0-1.3,0.3-1.6,0.7v4.3h-1.7V69.9z"
				/>
			<path class="st0" d="M81.1,69.9h1.7v0.9c0.5-0.6,1.3-1,2.1-1v1.7c-0.1,0-0.3-0.1-0.5-0.1c-0.6,0-1.3,0.3-1.6,0.7v4.3h-1.7V69.9z"
				/>
			<path class="st0" d="M88.7,69.8c1.9,0,3.2,1.4,3.2,3.6v0.4h-4.8c0.1,0.8,0.8,1.5,1.9,1.5c0.6,0,1.3-0.2,1.7-0.6l0.8,1.1
				c-0.6,0.6-1.7,0.9-2.7,0.9c-2,0-3.5-1.3-3.5-3.4C85.4,71.3,86.8,69.8,88.7,69.8z M87.1,72.6h3.2c0-0.6-0.5-1.4-1.6-1.4
				C87.7,71.1,87.2,71.9,87.1,72.6z"/>
			<path class="st0" d="M97.4,72.5c0-0.9-0.5-1.2-1.2-1.2c-0.7,0-1.2,0.4-1.5,0.8v4.4h-1.7v-6.5h1.7v0.8c0.4-0.5,1.2-1,2.3-1
				c1.4,0,2.1,0.8,2.1,2.1v4.6h-1.7V72.5z"/>
			<path class="st0" d="M103.7,69.8c1.3,0,2.1,0.6,2.6,1.2l-1.1,1c-0.3-0.5-0.8-0.7-1.4-0.7c-1,0-1.8,0.8-1.8,1.9
				c0,1.1,0.7,1.9,1.8,1.9c0.6,0,1.1-0.3,1.4-0.7l1.1,1c-0.4,0.6-1.2,1.2-2.6,1.2c-2,0-3.4-1.4-3.4-3.4
				C100.3,71.2,101.7,69.8,103.7,69.8z"/>
			<path class="st0" d="M107.8,77.5c0.4,0,0.7-0.1,0.9-0.5l0.2-0.6l-2.6-6.6h1.8l1.7,4.5l1.7-4.5h1.8l-3,7.5
				c-0.5,1.2-1.3,1.5-2.5,1.6c-0.2,0-0.6,0-0.8-0.1l0.3-1.5C107.4,77.5,107.6,77.5,107.8,77.5z"/>
			<path class="st0" d="M117.3,67.5h1.9v8.9h-1.9V67.5z"/>
			<path class="st0" d="M125.1,72.5c0-0.9-0.5-1.2-1.2-1.2c-0.7,0-1.2,0.4-1.5,0.8v4.4h-1.7v-6.5h1.7v0.8c0.4-0.5,1.2-1,2.3-1
				c1.4,0,2.1,0.8,2.1,2.1v4.6h-1.7V72.5z"/>
			<path class="st0" d="M128.6,74.4c0.5,0.4,1.4,0.9,2.2,0.9c0.7,0,1.1-0.3,1.1-0.7c0-0.5-0.6-0.6-1.3-0.8c-1.1-0.2-2.5-0.5-2.5-2
				c0-1.1,1-2,2.7-2c1.1,0,2,0.4,2.6,0.9l-0.7,1.2c-0.4-0.4-1.1-0.8-1.9-0.8c-0.6,0-1,0.2-1,0.6c0,0.4,0.5,0.5,1.2,0.7
				c1.1,0.2,2.6,0.5,2.6,2.1c0,1.2-1,2.1-2.8,2.1c-1.1,0-2.2-0.4-2.9-1L128.6,74.4z"/>
			<path class="st0" d="M134.5,68.1c0-0.6,0.5-1,1-1c0.6,0,1,0.5,1,1s-0.5,1-1,1C134.9,69.1,134.5,68.7,134.5,68.1z M134.6,69.9h1.7
				v6.5h-1.7V69.9z"/>
			<path class="st0" d="M138.5,76.9c0.5,0.6,1.2,0.8,2,0.8c0.8,0,1.8-0.4,1.8-1.6v-0.7c-0.5,0.6-1.2,1-2,1c-1.6,0-2.9-1.1-2.9-3.3
				c0-2.1,1.2-3.3,2.9-3.3c0.8,0,1.5,0.3,2,1v-0.8h1.7v6c0,2.5-1.9,3.1-3.5,3.1c-1.1,0-2-0.3-2.8-1L138.5,76.9z M142.3,72
				c-0.3-0.4-0.9-0.7-1.5-0.7c-1,0-1.6,0.7-1.6,1.8s0.7,1.8,1.6,1.8c0.6,0,1.2-0.3,1.5-0.7V72z"/>
			<path class="st0" d="M150,72.5c0-0.9-0.5-1.2-1.2-1.2c-0.7,0-1.2,0.4-1.5,0.8v4.4h-1.7v-8.9h1.7v3.3c0.4-0.5,1.2-1,2.3-1
				c1.4,0,2.1,0.8,2.1,2v4.6H150V72.5z"/>
			<path class="st0" d="M153.5,74.8v-3.4h-1.1v-1.5h1.1v-1.8h1.7v1.8h1.3v1.5h-1.3v2.9c0,0.4,0.2,0.7,0.6,0.7c0.3,0,0.5-0.1,0.6-0.2
				l0.4,1.3c-0.3,0.2-0.7,0.4-1.4,0.4C154.2,76.6,153.5,76,153.5,74.8z"/>
			<path class="st0" d="M157.8,74.4c0.5,0.4,1.4,0.9,2.2,0.9c0.7,0,1.1-0.3,1.1-0.7c0-0.5-0.6-0.6-1.3-0.8c-1.1-0.2-2.5-0.5-2.5-2
				c0-1.1,1-2,2.7-2c1.1,0,2,0.4,2.6,0.9l-0.7,1.2c-0.4-0.4-1.1-0.8-1.9-0.8c-0.6,0-1,0.2-1,0.6c0,0.4,0.5,0.5,1.2,0.7
				c1.1,0.2,2.6,0.5,2.6,2.1c0,1.2-1,2.1-2.8,2.1c-1.1,0-2.2-0.4-2.9-1L157.8,74.4z"/>
		</g>
	</g>
</g>
</svg>
