<?xml version="1.0" encoding="utf-8"?>
<!-- Generator: Adobe Illustrator 19.1.0, SVG Export Plug-In . SVG Version: 6.00 Build 0)  -->
<svg version="1.1" id="Layer_1" xmlns="http://www.w3.org/2000/svg" xmlns:xlink="http://www.w3.org/1999/xlink" x="0px" y="0px"
	 viewBox="0 0 200 80" style="enable-background:new 0 0 200 80;" xml:space="preserve">
<style type="text/css">
	.st0{opacity:0.8;}
	.st1{fill:#5B5B5B;}
</style>
<g class="st0">
	<path class="st1" d="M4.9,12.6c0-6.6,0-7.8-0.1-9.2C4.7,1.9,4.4,1.2,2.9,0.9C2.6,0.8,1.9,0.8,1.2,0.8c-0.5,0-0.7-0.1-0.7-0.4
		c0-0.3,0.3-0.4,1-0.4c2.3,0,5.1,0.1,5.9,0.1c2.1,0,3.8-0.1,5.3-0.1C20.6,0,22,4.2,22,6.5c0,3.6-2,5.7-4.4,7.6
		c3.6,1.2,7.9,4.3,7.9,9.4c0,4.7-3.6,9.5-11.6,9.5c-0.5,0-1.8-0.1-3.1-0.1c-1.3-0.1-2.6-0.1-3.3-0.1c-0.5,0-1.4,0-2.5,0
		c-1,0-2.1,0.1-3,0.1c-0.6,0-0.9-0.1-0.9-0.4c0-0.2,0.2-0.3,0.7-0.3c0.7,0,1.2-0.1,1.6-0.2c0.9-0.2,1.1-1.1,1.3-2.4
		c0.2-1.8,0.2-5.3,0.2-9.3V12.6z M10.1,13.4c0,0.3,0.1,0.4,0.3,0.5c0.4,0.1,1,0.1,2,0.1c1.4,0,2.4-0.2,3.1-0.8
		c1.1-0.9,1.8-2.5,1.8-4.6c0-2.9-1.7-6.8-5.4-6.8c-0.6,0-1,0-1.4,0.1c-0.3,0.1-0.4,0.3-0.4,0.7V13.4z M15.9,16.9
		c-0.9-0.7-1.9-1-3.6-1c-0.8,0-1.2,0-1.9,0c-0.2,0-0.3,0.1-0.3,0.3v10.3c0,2.9,0.1,3.6,1.5,4.2c1.2,0.5,2.2,0.5,3.2,0.5
		c2,0,5.3-1,5.3-5.6C20.1,22.8,19.2,19.2,15.9,16.9z"/>
	<path class="st1" d="M31.4,15.6c0-5.6,0-6.7,0-7.8c-0.1-1.3-0.4-1.7-1.7-2c-0.3-0.1-1-0.1-1.5-0.1c-0.4,0-0.7-0.1-0.7-0.4
		c0-0.3,0.3-0.3,0.8-0.3c2,0,4.6,0.1,5.8,0.1c1,0,3.5-0.1,4.9-0.1c0.6,0,0.8,0.1,0.8,0.3c0,0.3-0.2,0.4-0.6,0.4
		c-0.4,0-0.7,0-1.1,0.1c-1,0.2-1.3,0.7-1.4,2c-0.1,1.2-0.1,2.2-0.1,7.8v5.2c0,5.4,1,7.5,2.9,9c1.7,1.4,3.5,1.5,4.8,1.5
		c1.7,0,3.6-0.5,5.1-2c2.1-2,2.2-5.2,2.2-9v-4.7c0-5.6,0-6.7-0.1-7.8c-0.1-1.3-0.4-1.7-1.6-2c-0.3-0.1-1-0.1-1.4-0.1
		c-0.4,0-0.7-0.1-0.7-0.4c0-0.3,0.3-0.3,0.8-0.3c2,0,4.5,0.1,4.6,0.1c0.4,0,3-0.1,4.5-0.1c0.5,0,0.8,0.1,0.8,0.3
		c0,0.3-0.2,0.4-0.7,0.4s-0.7,0-1.1,0.1c-1,0.2-1.3,0.7-1.4,2c0,1.2-0.1,2.2-0.1,7.8v4c0,4.1-0.4,8.5-3.7,11.2
		c-2.7,2.3-5.6,2.7-8.1,2.7c-2,0-6-0.1-8.8-2.5c-2-1.7-3.5-4.4-3.5-9.8V15.6z"/>
	<path class="st1" d="M62.2,32.5c-0.6-0.3-0.7-0.4-0.7-1.3c0-2,0.2-4.3,0.2-4.9c0-0.6,0.2-1,0.5-1c0.3,0,0.4,0.3,0.4,0.6
		c0,0.5,0.1,1.3,0.3,1.9c0.8,2.7,3.7,3.7,6.1,3.7c3.3,0,5.3-2.1,5.3-4.7c0-1.6-0.4-3.2-3.8-5.2l-2.2-1.3c-4.5-2.7-6-5.1-6-8.4
		c0-4.5,4.4-7.5,9.7-7.5c2.5,0,4.4,0.3,5.4,0.6C77.8,5.1,78,5.2,78,5.5C78,6,77.8,7,77.8,9.9c0,0.8-0.2,1.2-0.5,1.2
		c-0.3,0-0.4-0.2-0.4-0.7c0-0.3-0.2-1.5-1-2.4c-0.6-0.7-1.8-1.7-4.3-1.7c-2.7,0-5.2,1.4-5.2,4c0,1.7,0.6,3,4.1,4.9l1.6,0.9
		c5.1,2.8,6.6,5.6,6.6,9c0,2.7-1,5-3.8,6.9c-1.8,1.3-4.4,1.5-6.4,1.5C66.2,33.4,63.9,33.2,62.2,32.5z"/>
	<path class="st1" d="M85.2,15.6c0-5.6,0-6.7,0-7.8c-0.1-1.3-0.5-1.7-1.3-2c-0.4-0.1-0.9-0.2-1.4-0.2c-0.4,0-0.6-0.1-0.6-0.4
		c0-0.2,0.3-0.3,0.9-0.3c1.4,0,4.1,0.1,5.1,0.1c1,0,3.4-0.1,4.9-0.1c0.5,0,0.8,0.1,0.8,0.3c0,0.3-0.2,0.4-0.6,0.4s-0.7,0-1.1,0.1
		c-1,0.2-1.4,0.7-1.4,2c-0.1,1.2-0.1,2.2-0.1,7.8v6.5c0,3.6,0,6.5,0.2,8.1c0.1,1,0.4,1.6,1.5,1.7c0.5,0.1,1.4,0.1,2,0.1
		c0.4,0,0.6,0.2,0.6,0.4c0,0.3-0.3,0.4-0.7,0.4c-2.5,0-5.1-0.1-6.2-0.1c-0.9,0-3.5,0.1-5,0.1c-0.5,0-0.7-0.1-0.7-0.4
		c0-0.2,0.1-0.4,0.6-0.4c0.6,0,1,0,1.4-0.1c0.8-0.2,1-0.7,1.1-1.8c0.2-1.5,0.2-4.5,0.2-8.1V15.6z"/>
	<path class="st1" d="M103.5,27.9c0.1,2.9,0.6,3.7,1.3,4c0.7,0.2,1.4,0.3,2,0.3c0.4,0,0.7,0.2,0.7,0.4c0,0.3-0.3,0.4-0.9,0.4
		c-2.5,0-4.3-0.1-5-0.1c-0.3,0-2.2,0.1-4.1,0.1c-0.5,0-0.9,0-0.9-0.4c0-0.2,0.3-0.4,0.6-0.4c0.5,0,1.2,0,1.7-0.2
		c1-0.3,1.1-1.3,1.2-4.5l0.3-22c0-0.7,0.3-1.3,0.7-1.3c0.5,0,1,0.6,1.7,1.2c0.5,0.5,6.2,6.4,11.8,11.8c2.6,2.6,7.7,7.8,8.3,8.3h0.2
		l-0.4-16.5c0-2.3-0.4-2.9-1.3-3.3c-0.6-0.2-1.5-0.2-2-0.2c-0.5,0-0.6-0.2-0.6-0.4c0-0.3,0.4-0.3,1-0.3c2,0,4.1,0.1,4.9,0.1
		c0.4,0,1.9-0.1,3.7-0.1c0.5,0,0.9,0,0.9,0.3c0,0.2-0.2,0.4-0.7,0.4c-0.4,0-0.7,0-1.2,0.1c-1,0.3-1.4,1-1.4,3.1l-0.4,23.4
		c0,0.8-0.3,1.2-0.6,1.2c-0.7,0-1.2-0.4-1.6-0.8c-2.4-2.2-7.2-6.8-11.2-10.7c-4.2-4-8.2-8.5-9-9.2H103L103.5,27.9z"/>
	<path class="st1" d="M135.9,15.6c0-5.6,0-6.7,0-7.8c-0.1-1.3-0.4-1.7-1.7-2c-0.3-0.1-1-0.1-1.5-0.1c-0.4,0-0.7-0.1-0.7-0.4
		c0-0.3,0.3-0.3,0.9-0.3c2,0,4.4,0.1,5.5,0.1c1.2,0,9.7,0,10.5,0c0.7,0,1.3-0.2,1.6-0.2c0.2,0,0.4-0.2,0.6-0.2
		c0.2,0,0.3,0.2,0.3,0.3c0,0.3-0.2,0.7-0.3,2.4c0,0.4-0.1,2-0.2,2.4c0,0.2-0.1,0.6-0.4,0.6c-0.3,0-0.3-0.2-0.3-0.5
		c0-0.3,0-0.9-0.3-1.4c-0.3-0.7-0.6-1.2-2.5-1.4c-0.7-0.1-5.2-0.2-6-0.2c-0.2,0-0.3,0.1-0.3,0.3v9.2c0,0.2,0,0.4,0.3,0.4
		c0.9,0,5.8,0,6.7-0.1c0.9-0.1,1.5-0.2,1.8-0.6c0.3-0.3,0.4-0.5,0.6-0.5c0.2,0,0.3,0.2,0.3,0.4c0,0.2-0.1,0.8-0.3,2.7
		c-0.1,0.7-0.2,2.2-0.2,2.5c0,0.3,0,0.8-0.4,0.8c-0.3,0-0.3-0.1-0.3-0.3c0-0.4,0-0.9-0.1-1.4c-0.2-0.7-0.7-1.3-2.1-1.4
		c-0.7-0.1-5.1-0.2-6-0.2c-0.2,0-0.2,0.2-0.2,0.4v3c0,1.3,0,4.4,0,5.5c0.1,2.5,1.3,3.1,5.2,3.1c1,0,2.6,0,3.6-0.5
		c1-0.4,1.4-1.2,1.7-2.7c0.1-0.4,0.2-0.6,0.4-0.6c0.3,0,0.3,0.5,0.3,0.9c0,0.8-0.3,3.4-0.5,4.1c-0.3,1-0.6,1-2,1
		c-2.9,0-5.2,0-7.1-0.1c-1.9,0-3.3-0.1-4.4-0.1c-0.4,0-1.3,0-2.2,0c-0.9,0-1.9,0.1-2.7,0.1c-0.5,0-0.7-0.1-0.7-0.4
		c0-0.2,0.1-0.4,0.6-0.4c0.6,0,1,0,1.4-0.1c0.8-0.2,1-0.9,1.1-2c0.2-1.6,0.2-4.5,0.2-7.9V15.6z"/>
	<path class="st1" d="M157.1,32.5c-0.6-0.3-0.7-0.4-0.7-1.3c0-2,0.2-4.3,0.2-4.9c0-0.6,0.2-1,0.5-1c0.3,0,0.4,0.3,0.4,0.6
		c0,0.5,0.1,1.3,0.3,1.9c0.8,2.7,3.7,3.7,6.1,3.7c3.3,0,5.3-2.1,5.3-4.7c0-1.6-0.4-3.2-3.8-5.2l-2.2-1.3c-4.5-2.7-6-5.1-6-8.4
		c0-4.5,4.4-7.5,9.7-7.5c2.5,0,4.4,0.3,5.4,0.6c0.3,0.1,0.5,0.2,0.5,0.5c0,0.5-0.1,1.5-0.1,4.4c0,0.8-0.2,1.2-0.5,1.2
		c-0.3,0-0.4-0.2-0.4-0.7c0-0.3-0.2-1.5-1-2.4c-0.6-0.7-1.8-1.7-4.3-1.7c-2.7,0-5.2,1.4-5.2,4c0,1.7,0.6,3,4.1,4.9l1.6,0.9
		c5.1,2.8,6.6,5.6,6.6,9c0,2.7-1,5-3.8,6.9c-1.8,1.3-4.4,1.5-6.4,1.5C161.1,33.4,158.7,33.2,157.1,32.5z"/>
	<path class="st1" d="M178.8,32.5c-0.6-0.3-0.7-0.4-0.7-1.3c0-2,0.2-4.3,0.2-4.9c0-0.6,0.2-1,0.5-1c0.3,0,0.4,0.3,0.4,0.6
		c0,0.5,0.1,1.3,0.3,1.9c0.8,2.7,3.7,3.7,6.1,3.7c3.3,0,5.3-2.1,5.3-4.7c0-1.6-0.4-3.2-3.8-5.2l-2.2-1.3c-4.5-2.7-6-5.1-6-8.4
		c0-4.5,4.4-7.5,9.7-7.5c2.5,0,4.4,0.3,5.4,0.6c0.3,0.1,0.5,0.2,0.5,0.5c0,0.5-0.1,1.5-0.1,4.4c0,0.8-0.2,1.2-0.5,1.2
		c-0.3,0-0.4-0.2-0.4-0.7c0-0.3-0.2-1.5-1-2.4c-0.6-0.7-1.8-1.7-4.3-1.7c-2.7,0-5.2,1.4-5.2,4c0,1.7,0.6,3,4.1,4.9l1.6,0.9
		c5.1,2.8,6.6,5.6,6.6,9c0,2.7-1,5-3.8,6.9c-1.8,1.3-4.4,1.5-6.4,1.5C182.8,33.4,180.4,33.2,178.8,32.5z"/>
	<path class="st1" d="M6.7,59.2c0-6.6,0-7.8-0.1-9.2c-0.1-1.5-0.5-2.2-1.5-2.4c-0.5-0.1-1-0.2-1.6-0.2c-0.4,0-0.7-0.1-0.7-0.4
		c0-0.3,0.3-0.3,1-0.3c1.7,0,4.4,0.1,5.7,0.1c1.1,0,3.7-0.1,5.3-0.1c0.6,0,0.9,0.1,0.9,0.3c0,0.3-0.3,0.4-0.7,0.4
		c-0.4,0-0.8,0-1.3,0.1c-1.2,0.2-1.5,1-1.6,2.5c-0.1,1.4-0.1,2.6-0.1,9.2v7.7c0,4.2,0,7.7,0.2,9.5c0.1,1.2,0.4,2,1.7,2.1
		c0.6,0.1,1.6,0.2,2.2,0.2c0.5,0,0.7,0.1,0.7,0.3c0,0.3-0.3,0.4-0.8,0.4c-2.9,0-5.6-0.1-6.8-0.1c-1,0-3.7,0.1-5.5,0.1
		c-0.6,0-0.9-0.1-0.9-0.4c0-0.2,0.2-0.3,0.7-0.3c0.7,0,1.2-0.1,1.6-0.2c0.9-0.2,1.1-0.9,1.3-2.2c0.2-1.8,0.2-5.3,0.2-9.5V59.2z"/>
	<path class="st1" d="M28.9,74.5c0.1,2.9,0.6,3.7,1.3,4c0.7,0.2,1.4,0.3,2,0.3c0.4,0,0.7,0.2,0.7,0.4c0,0.3-0.3,0.4-0.9,0.4
		c-2.5,0-4.3-0.1-5-0.1c-0.3,0-2.2,0.1-4.1,0.1c-0.5,0-0.9,0-0.9-0.4c0-0.2,0.3-0.4,0.6-0.4c0.5,0,1.2,0,1.7-0.2
		c1-0.3,1.1-1.3,1.2-4.5l0.3-22c0-0.7,0.3-1.3,0.7-1.3c0.5,0,1,0.6,1.7,1.2c0.5,0.5,6.2,6.4,11.8,11.8c2.6,2.6,7.7,7.8,8.3,8.3h0.2
		l-0.4-16.5c0-2.3-0.4-2.9-1.3-3.3c-0.6-0.2-1.5-0.2-2-0.2c-0.5,0-0.6-0.2-0.6-0.4c0-0.3,0.4-0.3,1-0.3c2,0,4.1,0.1,4.9,0.1
		c0.4,0,1.9-0.1,3.7-0.1c0.5,0,0.9,0,0.9,0.3c0,0.2-0.2,0.4-0.7,0.4c-0.4,0-0.7,0-1.2,0.1c-1,0.3-1.4,1-1.4,3.1l-0.4,23.4
		c0,0.8-0.3,1.2-0.6,1.2c-0.7,0-1.2-0.4-1.6-0.8c-2.4-2.2-7.2-6.8-11.2-10.7c-4.2-4-8.2-8.5-9-9.2h-0.1L28.9,74.5z"/>
	<path class="st1" d="M62.9,79c-0.6-0.3-0.7-0.4-0.7-1.3c0-2,0.2-4.3,0.2-4.9c0-0.6,0.2-1,0.5-1c0.3,0,0.4,0.3,0.4,0.6
		c0,0.5,0.1,1.3,0.3,1.9c0.8,2.7,3.7,3.7,6.1,3.7c3.3,0,5.3-2.1,5.3-4.7c0-1.6-0.4-3.2-3.8-5.2L69,66.8c-4.5-2.7-6-5.1-6-8.4
		c0-4.5,4.4-7.5,9.7-7.5c2.5,0,4.4,0.3,5.4,0.6c0.3,0.1,0.5,0.2,0.5,0.5c0,0.5-0.1,1.5-0.1,4.4c0,0.8-0.2,1.2-0.5,1.2
		c-0.3,0-0.4-0.2-0.4-0.7c0-0.3-0.2-1.5-1-2.4c-0.6-0.7-1.8-1.7-4.3-1.7c-2.7,0-5.2,1.4-5.2,4c0,1.7,0.6,3,4.1,4.9l1.6,0.9
		c5.1,2.8,6.6,5.6,6.6,9c0,2.7-1,5-3.8,6.9c-1.8,1.3-4.4,1.5-6.4,1.5C66.9,80,64.5,79.8,62.9,79z"/>
	<path class="st1" d="M89.5,62.2c0-5.6,0-6.7,0-7.8c-0.1-1.3-0.5-1.7-1.3-2c-0.4-0.1-0.9-0.2-1.4-0.2c-0.4,0-0.6-0.1-0.6-0.4
		c0-0.2,0.3-0.3,0.9-0.3c1.4,0,4.1,0.1,5.1,0.1c1,0,3.4-0.1,4.9-0.1c0.5,0,0.8,0.1,0.8,0.3c0,0.3-0.2,0.4-0.6,0.4s-0.7,0-1.1,0.1
		c-1,0.2-1.4,0.7-1.4,2c-0.1,1.2-0.1,2.2-0.1,7.8v6.5c0,3.6,0,6.5,0.2,8.1c0.1,1,0.4,1.6,1.5,1.7c0.5,0.1,1.4,0.1,2,0.1
		c0.4,0,0.6,0.2,0.6,0.4c0,0.3-0.3,0.4-0.7,0.4c-2.5,0-5.1-0.1-6.2-0.1c-0.9,0-3.5,0.1-5,0.1c-0.5,0-0.7-0.1-0.7-0.4
		c0-0.2,0.1-0.4,0.6-0.4c0.6,0,1,0,1.4-0.1c0.8-0.2,1-0.7,1.1-1.8c0.2-1.5,0.2-4.5,0.2-8.1V62.2z"/>
	<path class="st1" d="M109,62.2c0-5.6,0-6.7,0-7.8c-0.1-1.3-0.4-1.7-1.7-2c-0.3-0.1-1-0.1-1.5-0.1c-0.4,0-0.7-0.1-0.7-0.4
		c0-0.3,0.3-0.3,0.9-0.3c2,0,4.4,0.1,5.5,0.1c1.2,0,3.9-0.1,6.2-0.1c4.8,0,11.2,0,15.4,4.2c1.9,1.9,3.6,5,3.6,9.4
		c0,4.7-2,8.2-4.2,10.3c-1.7,1.7-5.8,4.4-12.9,4.4c-1.4,0-3.1-0.1-4.6-0.2c-1.5-0.1-2.9-0.2-3.9-0.2c-0.4,0-1.3,0-2.2,0
		c-0.9,0-1.9,0.1-2.7,0.1c-0.5,0-0.7-0.1-0.7-0.4c0-0.2,0.1-0.4,0.6-0.4c0.6,0,1,0,1.4-0.1c0.8-0.2,1-0.9,1.1-2
		c0.2-1.6,0.2-4.5,0.2-7.9V62.2z M114.2,66.3c0,3.9,0,6.8,0.1,7.5c0,0.9,0.1,2.2,0.4,2.6c0.5,0.7,2,1.5,5,1.5c3.5,0,6.1-0.6,8.4-2.5
		c2.5-2,3.3-5.4,3.3-9.2c0-4.7-1.9-7.8-3.6-9.2c-3.5-3.1-7.7-3.5-10.7-3.5c-0.8,0-2,0.1-2.4,0.3c-0.3,0.1-0.5,0.3-0.5,0.7
		c0,1.3,0,4.3,0,7.2V66.3z"/>
	<path class="st1" d="M146.7,62.2c0-5.6,0-6.7,0-7.8c-0.1-1.3-0.4-1.7-1.7-2c-0.3-0.1-1-0.1-1.5-0.1c-0.4,0-0.7-0.1-0.7-0.4
		c0-0.3,0.3-0.3,0.9-0.3c2,0,4.4,0.1,5.5,0.1c1.2,0,9.7,0,10.5,0c0.7,0,1.3-0.2,1.6-0.2c0.2,0,0.4-0.2,0.6-0.2
		c0.2,0,0.3,0.2,0.3,0.3c0,0.3-0.2,0.7-0.3,2.4c0,0.4-0.1,2-0.2,2.4c0,0.2-0.1,0.6-0.4,0.6c-0.3,0-0.3-0.2-0.3-0.5
		c0-0.3,0-0.9-0.3-1.4c-0.3-0.7-0.6-1.2-2.5-1.4c-0.7-0.1-5.2-0.2-6-0.2c-0.2,0-0.3,0.1-0.3,0.3v9.2c0,0.2,0,0.4,0.3,0.4
		c0.9,0,5.8,0,6.7-0.1c0.9-0.1,1.5-0.2,1.8-0.6c0.3-0.3,0.4-0.5,0.6-0.5c0.2,0,0.3,0.2,0.3,0.4c0,0.2-0.1,0.8-0.3,2.7
		c-0.1,0.7-0.2,2.2-0.2,2.5c0,0.3,0,0.8-0.4,0.8c-0.3,0-0.3-0.1-0.3-0.3c0-0.4,0-0.9-0.1-1.4c-0.2-0.7-0.7-1.3-2.1-1.4
		c-0.7-0.1-5.1-0.2-6-0.2c-0.2,0-0.2,0.2-0.2,0.4v3c0,1.3,0,4.4,0,5.5c0.1,2.5,1.3,3.1,5.2,3.1c1,0,2.6,0,3.6-0.5
		c1-0.4,1.4-1.2,1.7-2.7c0.1-0.4,0.2-0.6,0.4-0.6c0.3,0,0.3,0.5,0.3,0.9c0,0.8-0.3,3.4-0.5,4.1c-0.3,1-0.6,1-2,1
		c-2.9,0-5.2,0-7.1-0.1c-1.9,0-3.3-0.1-4.4-0.1c-0.4,0-1.3,0-2.2,0c-0.9,0-1.9,0.1-2.7,0.1c-0.5,0-0.7-0.1-0.7-0.4
		c0-0.2,0.1-0.4,0.6-0.4c0.6,0,1,0,1.4-0.1c0.8-0.2,1-0.9,1.1-2c0.2-1.6,0.2-4.5,0.2-7.9V62.2z"/>
	<path class="st1" d="M172.7,62.2c0-5.6,0-6.7,0-7.8c-0.1-1.3-0.4-1.7-1.7-2c-0.3-0.1-1-0.1-1.5-0.1c-0.4,0-0.7-0.1-0.7-0.4
		c0-0.3,0.3-0.3,0.9-0.3c2,0,4.4,0.1,5.2,0.1c1.3,0,4.8-0.1,6-0.1c2.4,0,5.2,0.2,7.3,1.6c1.1,0.7,2.7,2.6,2.7,5.1
		c0,2.7-1.6,5.2-5.3,8.2c3.4,4.2,6.1,7.5,8.4,9.9c2.1,2.1,3.5,2.3,4.1,2.4c0.4,0.1,0.6,0.1,0.9,0.1c0.3,0,0.5,0.2,0.5,0.4
		c0,0.3-0.3,0.4-0.7,0.4h-3.7c-2.1,0-3.2-0.2-4.2-0.7c-1.7-0.8-3.1-2.6-5.2-5.4c-1.5-2-3.1-4.5-3.6-5.1c-0.2-0.2-0.4-0.3-0.7-0.3
		l-3.4-0.1c-0.2,0-0.3,0.1-0.3,0.3v0.5c0,3.4,0,6.3,0.2,7.9c0.1,1.1,0.3,1.8,1.5,2c0.6,0.1,1.4,0.1,1.9,0.1c0.3,0,0.5,0.2,0.5,0.4
		c0,0.3-0.3,0.4-0.8,0.4c-2.2,0-5.4-0.1-6-0.1c-0.7,0-3.2,0.1-4.7,0.1c-0.5,0-0.7-0.1-0.7-0.4c0-0.2,0.1-0.4,0.6-0.4
		c0.6,0,1,0,1.4-0.1c0.8-0.2,1-0.9,1.1-2c0.2-1.6,0.2-4.5,0.2-7.9V62.2z M177.6,65.1c0,0.4,0.1,0.5,0.3,0.7c0.8,0.3,2,0.3,2.9,0.3
		c1.5,0,2-0.1,2.7-0.6c1.2-0.8,2.5-2.4,2.5-5.5c0-5.2-3.6-6.6-5.8-6.6c-1,0-1.9,0-2.3,0.1c-0.3,0.1-0.3,0.2-0.3,0.5V65.1z"/>
</g>
</svg>
