<?xml version="1.0" encoding="utf-8"?>
<!-- Generator: Adobe Illustrator 19.1.0, SVG Export Plug-In . SVG Version: 6.00 Build 0)  -->
<svg version="1.1" id="Layer_1" xmlns="http://www.w3.org/2000/svg" xmlns:xlink="http://www.w3.org/1999/xlink" x="0px" y="0px"
	 viewBox="0 0 200 80" style="enable-background:new 0 0 200 80;" xml:space="preserve">
<style type="text/css">
	.st0{opacity:0.8;}
	.st1{fill:#5D5D5D;}
	.st2{fill:#636363;}
</style>
<g class="st0">
	<path class="st1" d="M21.6,33.3c-0.3-0.7-0.7-1.5-1.3-2.5s-1.2-1.7-1.8-2.2c-0.6-0.5-1.2-0.9-1.7-0.9c-0.9-0.1-2-0.2-3.3-0.2h-2.3
		v11.2h0.7h0.2c1,0,1.8-0.2,2.5-0.6c0.6-0.4,1.2-1,1.6-1.9c0.4-0.9,0.7-1.7,0.8-2.5h1.5v12H17c-0.1-0.6-0.3-1.3-0.6-2.2
		c-0.3-0.9-0.6-1.4-0.9-1.7c-0.2-0.4-0.7-0.7-1.3-0.9c-0.6-0.2-1.4-0.4-2.2-0.4h-0.7V50c0,0.8,0.3,1.4,0.8,1.8
		c0.6,0.4,1.5,0.7,2.9,0.8v1.6H0.7v-1.6c1.5-0.2,2.5-0.4,3-0.8c0.4-0.3,0.7-0.9,0.7-1.7V30.1c0-0.7-0.3-1.3-0.8-1.8s-1.5-0.8-2.8-1
		v-1.6h22.4v7.6H21.6z"/>
	<path class="st1" d="M37.6,51.7c-1.1,1.1-2.1,1.8-2.9,2.3s-1.9,0.7-3.1,0.7c-1.7,0-3.1-0.5-4.1-1.5c-1.1-1-1.6-2.6-1.6-4.8V37.3
		c0-1.2-0.7-2-2.2-2.2v-0.9h9.5v14c0,1.1,0.1,1.9,0.3,2.4c0.2,0.5,0.7,0.7,1.3,0.7c0.5,0,1-0.2,1.5-0.5c0.5-0.3,0.8-0.7,1.2-1.2
		V37.3c0-0.7-0.1-1.2-0.4-1.5c-0.3-0.3-0.7-0.6-1.2-0.7v-0.9h9v16.9c0,1.2,0.7,2,2.2,2.2v0.9h-9.5V51.7z"/>
	<path class="st1" d="M60.9,36.1H57v13.2c0,1.6,0.4,2.4,1.3,2.4c0.4,0,0.8-0.1,1.3-0.3c0.4-0.2,0.8-0.5,1.1-0.9l0.9,0.9
		c-0.8,1-1.8,1.8-2.9,2.4c-1.1,0.6-2.3,0.9-3.5,0.9c-1.8,0-3.1-0.5-4-1.5c-0.9-1-1.3-2.4-1.3-4v-13h-2.2v-1.2c1.1-0.4,2-0.9,2.7-1.3
		c0.8-0.5,1.4-1,2-1.6c0.6-0.6,1.1-1.3,1.6-2.1c0.5-0.8,1-1.7,1.4-2.8H57v7h3.9V36.1z"/>
	<path class="st1" d="M75.5,51.7c-1.1,1.1-2.1,1.8-2.9,2.3s-1.9,0.7-3.1,0.7c-1.7,0-3.1-0.5-4.1-1.5c-1.1-1-1.6-2.6-1.6-4.8V37.3
		c0-1.2-0.7-2-2.2-2.2v-0.9H71v14c0,1.1,0.1,1.9,0.3,2.4c0.2,0.5,0.7,0.7,1.3,0.7c0.5,0,1-0.2,1.5-0.5c0.5-0.3,0.8-0.7,1.2-1.2V37.3
		c0-0.7-0.1-1.2-0.4-1.5c-0.3-0.3-0.7-0.6-1.2-0.7v-0.9h9v16.9c0,1.2,0.7,2,2.2,2.2v0.9h-9.5V51.7z"/>
	<path class="st1" d="M85.6,54.2v-0.9c0.9-0.1,1.5-0.4,1.9-0.7c0.4-0.3,0.5-0.8,0.5-1.5V37.3c0-0.7-0.2-1.2-0.5-1.5
		c-0.4-0.3-1-0.6-1.9-0.7v-0.9h9.3v3.1h0.1c0.5-1,1.2-1.9,1.9-2.5c0.8-0.7,1.9-1.1,3-1.1c0.9,0,1.6,0.3,2.2,0.8s0.8,1.4,0.8,2.5
		c0,1-0.3,1.7-0.9,2.4c-0.6,0.6-1.3,0.9-2.2,0.9c-0.4,0-0.8-0.1-1.1-0.2c-0.3-0.1-0.6-0.3-0.9-0.6c-0.2-0.2-0.5-0.4-0.7-0.5
		c-0.2-0.1-0.5-0.2-0.8-0.2c-0.8,0-1.2,0.8-1.2,2.5v7.9c0,1.5,0.2,2.5,0.5,3.1c0.4,0.6,1.1,0.9,2.3,1.1v0.9H85.6z"/>
	<path class="st1" d="M110.1,43.6c0.1,1,0.2,1.9,0.5,2.8c0.3,0.9,0.7,1.7,1.2,2.3c0.5,0.7,1,1.2,1.7,1.6c0.6,0.4,1.3,0.6,2,0.6
		c1.1,0,2-0.3,2.7-0.9c0.8-0.6,1.4-1.4,2-2.4l1.2,0.5c-0.8,2.1-2,3.7-3.6,4.8c-1.6,1.2-3.5,1.7-5.8,1.7c-1.3,0-2.5-0.3-3.7-0.9
		c-1.1-0.6-2.1-1.4-3-2.4c-0.8-1-1.5-2.2-2-3.4c-0.5-1.3-0.7-2.5-0.7-3.8c0-1.3,0.2-2.6,0.7-3.8c0.5-1.3,1.1-2.4,2-3.4
		c0.8-1,1.8-1.8,3-2.4c1.1-0.6,2.4-0.9,3.7-0.9c1.6,0,3,0.3,4.2,0.8s2.1,1.3,2.9,2.2c0.8,0.9,1.3,2,1.6,3.2c0.3,1.2,0.5,2.4,0.5,3.7
		H110.1z M114.7,42.1c0-2.6-0.2-4.4-0.6-5.4c-0.4-1-1-1.5-1.7-1.5c-0.7,0-1.3,0.5-1.7,1.5s-0.6,2.8-0.6,5.4H114.7z"/>
	<path class="st2" d="M143.7,45.9c0,1.7-0.4,3.3-1.3,4.7c-0.8,1.4-2.1,2.5-3.6,3.3c-1.6,0.8-3.3,1.2-5.3,1.2c-2.9,0-5.4-0.7-7.6-2.2
		l-1.3,1.4h-1.6l-0.3-10.3h1.7c1,3,2.2,5.2,3.6,6.7c1.4,1.5,2.9,2.3,4.6,2.3c1.5,0,2.6-0.4,3.5-1.3c0.8-0.9,1.3-2,1.3-3.4
		c0-1.1-0.3-2-0.9-2.7c-0.6-0.7-1.5-1.3-2.7-1.8l-3.3-1.3c-1.8-0.7-3-1.2-3.8-1.8c-0.7-0.5-1.3-1.1-1.8-1.8s-0.9-1.5-1.1-2.4
		c-0.3-0.9-0.4-1.9-0.4-3c0-1.6,0.4-3,1.2-4.3c0.8-1.3,1.9-2.4,3.3-3.1c1.4-0.7,3-1.1,4.8-1.1c2.3,0,4.5,0.6,6.6,1.9l1.1-1.2h1.7
		l0.2,9.7h-1.7c-0.7-2.2-1.4-3.9-2-5s-1.3-2-2.1-2.6c-0.8-0.6-1.7-0.9-2.7-0.9c-1.2,0-2.1,0.4-2.9,1.2c-0.8,0.8-1.1,1.8-1.1,3.1
		c0,1.2,0.3,2.1,1,2.8c0.6,0.7,1.6,1.3,2.9,1.8l2.8,1.1c2,0.7,3.5,1.5,4.4,2.3s1.7,1.7,2.2,2.8C143.4,43.2,143.7,44.5,143.7,45.9z"
		/>
	<path class="st2" d="M164.2,48.1c-0.8,2.1-2,3.7-3.6,4.8c-1.6,1.2-3.5,1.7-5.8,1.7c-1.3,0-2.6-0.3-3.8-0.8
		c-1.2-0.5-2.2-1.3-3.1-2.2c-0.9-1-1.6-2.1-2-3.4c-0.5-1.3-0.7-2.7-0.7-4.2c0-1.3,0.2-2.6,0.7-3.9c0.5-1.3,1.1-2.4,2-3.4
		c0.9-1,2-1.8,3.2-2.4c1.3-0.6,2.7-0.9,4.3-0.9c1.3,0,2.5,0.2,3.5,0.5c1,0.3,1.8,0.8,2.4,1.3c0.6,0.5,1.1,1.1,1.4,1.8
		c0.3,0.6,0.5,1.3,0.5,1.9c0,1.1-0.3,2-0.9,2.6c-0.6,0.6-1.4,0.9-2.4,0.9c-1,0-1.7-0.3-2.3-0.9c-0.6-0.6-0.9-1.3-0.9-2.1
		c0-0.3,0-0.7,0.1-1.3c0.1-0.5,0.1-0.9,0.1-1.2c0-0.6-0.2-1.1-0.5-1.5c-0.3-0.4-0.6-0.6-1-0.6c-0.8,0-1.4,0.5-1.9,1.5
		c-0.5,1-0.7,2.7-0.7,5.1c0,2.9,0.5,5.1,1.5,6.7c1,1.6,2.4,2.4,4.2,2.4c0.8,0,1.7-0.3,2.6-0.9c0.9-0.6,1.6-1.4,2.1-2.3L164.2,48.1z"
		/>
	<path class="st2" d="M184,48.1c-0.5,1.3-1.2,2.4-2.1,3.4c-0.9,1-2,1.8-3.3,2.4c-1.3,0.6-2.8,0.9-4.4,0.9s-3.1-0.3-4.4-0.9
		c-1.3-0.6-2.4-1.4-3.3-2.4c-0.9-1-1.6-2.1-2.1-3.4c-0.5-1.3-0.7-2.5-0.7-3.9c0-1.3,0.2-2.6,0.7-3.9c0.5-1.3,1.2-2.4,2.1-3.4
		c0.9-1,2-1.8,3.3-2.4c1.3-0.6,2.8-0.9,4.4-0.9s3.1,0.3,4.4,0.9c1.3,0.6,2.4,1.4,3.3,2.4c0.9,1,1.6,2.2,2.1,3.4
		c0.5,1.3,0.7,2.5,0.7,3.9C184.7,45.5,184.5,46.8,184,48.1z M176.8,39.6c-0.1-1.2-0.3-2.1-0.5-2.8c-0.2-0.6-0.5-1.1-0.8-1.3
		c-0.3-0.2-0.7-0.4-1.2-0.4s-0.9,0.1-1.2,0.4c-0.3,0.2-0.6,0.7-0.8,1.3c-0.2,0.6-0.4,1.6-0.5,2.8c-0.1,1.2-0.2,2.7-0.2,4.6
		s0.1,3.4,0.2,4.6c0.1,1.2,0.3,2.1,0.5,2.8s0.5,1.1,0.8,1.4c0.3,0.2,0.7,0.4,1.2,0.4s0.9-0.1,1.2-0.4c0.3-0.2,0.6-0.7,0.8-1.4
		c0.2-0.7,0.4-1.6,0.5-2.8c0.1-1.2,0.2-2.7,0.2-4.6S176.9,40.8,176.8,39.6z"/>
	<path class="st2" d="M198.7,36.1h-3.9v13.2c0,1.6,0.4,2.4,1.3,2.4c0.4,0,0.8-0.1,1.3-0.3c0.4-0.2,0.8-0.5,1.1-0.9l0.9,0.9
		c-0.8,1-1.8,1.8-2.9,2.4c-1.1,0.6-2.3,0.9-3.5,0.9c-1.8,0-3.1-0.5-4-1.5c-0.9-1-1.3-2.4-1.3-4v-13h-2.2v-1.2c1.1-0.4,2-0.9,2.7-1.3
		c0.8-0.5,1.4-1,2-1.6c0.6-0.6,1.1-1.3,1.6-2.1c0.5-0.8,1-1.7,1.4-2.8h1.7v7h3.9V36.1z"/>
</g>
</svg>
