<?xml version="1.0" encoding="utf-8"?>
<!-- Generator: Adobe Illustrator 19.1.0, SVG Export Plug-In . SVG Version: 6.00 Build 0)  -->
<svg version="1.1" id="Layer_1" xmlns="http://www.w3.org/2000/svg" xmlns:xlink="http://www.w3.org/1999/xlink" x="0px" y="0px"
	 viewBox="0 0 1234 170" style="enable-background:new 0 0 1234 170;" xml:space="preserve">
<style type="text/css">
	.st0{fill:#85B0E4;}
	.st1{fill:#2860C9;}
	.st2{fill:#1C5A7D;}
	.st3{fill:#0A9600;}
	.st4{fill:none;}
	.st5{fill:#2E6E93;}
	.st6{fill:#343334;}
	.st7{fill:#E8238C;}
	.st8{fill:#F25E1E;}
	.st9{fill:#3265AB;}
	.st10{fill:#636363;}
	.st11{opacity:0.8;}
	.st12{fill:#A9A9A9;}
	.st13{fill:#5B5B5B;}
	.st14{fill:#5F5F5F;}
	.st15{fill:#6A6A6A;}
	.st16{fill:#838383;}
	.st17{fill:#5D5D5D;}
</style>
<g>
	<g id="v3_2_">
		<path class="st0" d="M609.8,61c-2.8,0-5.2,0-7.9,0c-1.4-2.5-2.8-5.2-4.3-7.9c-1.3,1.3-2.5,2.5-3.6,3.6c-0.4,1.4-0.8,2.8-1.1,4.2
			c-2.2,0-4.1,0-6.2,0c0-9.2,0-18.3,0-27.6c2.2,0,4.5,0,6.9,0c0,4.3,0,8.6,0,12.8c0.5,0.5,0.9,0.9,1.3,1.3c1.8-2.2,3.6-4.3,5.2-6.3
			c3.1,0,5.8,0,8.4,0c-2.1,2.1-4.2,4.2-6.5,6.5C604.7,52.3,607.1,56.5,609.8,61z"/>
		<path class="st0" d="M575.8,54.9c2.1-4.6,0.9-9.1,1.3-13.6c2,0,4.1,0,6.2,0c0,6.5,0,13,0,19.6c-2,0-3.9,0-6.1,0
			c-0.1-0.8-0.2-1.8-0.3-2.9c-0.2,0.1-0.5,0-0.6,0.2c-1,0.9-1.9,1.9-2.6,2.6c-1.2,0.3-2.2,0.5-3.1,0.8c-2.5,0.8-4.5-0.3-6.2-1.8
			c-1.3-1.2-1.7-3-1.7-4.8c0-4.5,0-9,0-13.7c2.4,0,4.7,0,7.1,0c0,4.4,0,8.7,0,13.1c1,0.6,2,1.2,3.1,1.9
			C573.8,55.9,574.8,55.4,575.8,54.9z"/>
		<path class="st0" d="M532.1,41.1c3.6,0.4,7.5-0.8,11.1,0.8c0.2,0.2,0.4,0.4,0.6,0.5c2.9,2.3,4.4,5.2,3.9,9.1c-0.2,1.4,0,2.9,0,4.3
			c-5.5,5.2-3.2,5.6-16,5.2c-1.2-0.8-2.3-1.2-3.1-2c-0.7-0.7-1.2-1.6-1.7-2.4c-1.8-3.4-2.2-6.9-0.6-10.4c0.5-1.1,2.1-1.5,2.8-2.7
			C529.7,42.5,531,41.9,532.1,41.1z M539.3,56.2c0.4-0.8,0.7-1.2,0.9-1.7c1.6-4,1.1-6.7-1.8-8.6c-0.6-0.4-1.3-0.5-1.8-0.7
			c-4.8,1.2-4.1,4.9-4,8.4c0.9,1.2,1.8,2.4,2.7,3.8C536.7,56.9,538,56.6,539.3,56.2z"/>
		<path class="st0" d="M518.1,41.1c1.5,1.3,3.1,2.7,4.8,4.1c0,0.7,0,1.3,0,2.1c-2,0-3.9,0-5.4,0c-1.8-0.9-3.2-1.6-4.6-2.3
			c-2.2,0.8-4.1,1.9-4.8,4.4c-0.3,2-0.4,4.1,0.9,5.8c0.6,0.8,1.8,1.4,2.8,1.7c1.8,0.6,3.9-0.7,5.2-3.3c2.1,0.3,4.3,0.7,6.7,1.1
			c-0.5,1.1-1,2.1-1.5,3.2c-0.7,1.5-2.1,2.3-3.4,2.8c-1.9,0.6-3.9,1-5.9,1c-2.1,0-4.3-0.3-6.3-1c-1.8-0.6-3.4-1.8-4.2-3.7
			c-1.2-3-2.6-5.9-0.9-9.4c1.2-2.4,2.3-4.1,5.2-5.8c0.3-0.2,0.6-0.5,0.9-0.8C510.9,41.1,514.3,41.1,518.1,41.1z"/>
		<path class="st0" d="M491.2,53.4c0-0.9,0-1.9,0-3.2c0.6-0.5,1.3-1.2,2-1.9c1.9-0.5,2.4,1.2,3.5,1.9c0,0.9,0,1.7,0,2.5
			c-0.7,0.7-1.3,1.3-2,2C493.4,54.6,492,55.1,491.2,53.4z"/>
		<path class="st0" d="M554.5,54.8c-0.8-0.8-1.4-1.4-2.1-2.1c0-0.8,0-1.5,0-2.4c1-0.9,1.6-2.4,3.6-2c0.5,0.6,1.2,1.3,1.9,2
			c0,0.8,0,1.6,0,2.3C556.7,53.4,555.6,54.1,554.5,54.8z"/>
		<path class="st1" d="M464.8,43.6c-0.2-3.2-0.2-5.7,3.3-6.9c2.7-0.9,4.6-3.3,3.9-6.2c-0.4-1.7-2.5-4.2-3.9-4.2
			c-2.1-0.1-4.6,1.3-6.3,2.8c-2,1.7-8.1,2.6-10,0.6c-0.4-0.4-0.5-1.5-0.3-2.1c0.4-1.1,1.1-2.1,1.9-3c5.1-5.9,20.2-6.8,26.1-1.7
			c4.3,3.8,4.4,10,0.4,14.1c-0.7,0.7-1.5,1.4-2.5,2.3c0.6,0.6,1,1.4,1.6,1.7c8.5,3.3,7.1,14.5,1.8,19.3c-6.5,6-21.5,5.6-27.4-0.9
			c-1.4-1.5-2.2-3.4-3.9-6c3.8-0.6,6.7-1.3,9.6-1.4c0.8,0,1.9,1.5,2.5,2.6c1.8,3.1,4.5,4,7.8,3.3c3.1-0.7,4.9-4.3,4.4-8.4
			c-0.4-3.4-2.3-5.2-5.6-5.6C467.2,43.9,466.1,43.8,464.8,43.6z"/>
		<path class="st1" d="M419.1,25.5c2.5,0,4.8,0.2,7,0c3.2-0.3,4.9,1,5.7,4.1c1.3,4.9,2.8,9.7,4.2,14.5c0.4,1.2,0.9,2.4,1.7,4.7
			c1-2,1.7-3,2-4.1c1.6-5.3,3-10.7,4.8-16c0.5-1.4,1.9-2.4,2.9-3.6c0.3,0.2,0.6,0.5,0.9,0.7c-0.2,2-1.2,4.4-0.5,5.9
			c0.7,1.3,3.4,1.6,5.7,2.6c-1.4,3.7-2.8,7.3-4.2,11c-1.7,4.3-3.5,8.6-5.1,12.9c-1,2.8-3.3,2.7-5.6,2.5c-2.6-0.2-5.8,1.3-7.3-2.3
			c-4.1-10.3-8.1-20.7-12.2-31C419,27,419.1,26.6,419.1,25.5z"/>
	</g>
</g>
<g>
	<g id="business_insider_2_">
		<path class="st2" d="M7.3,14.8c0-6.6,0-7.8-0.1-9.2C7.2,4.1,6.8,3.4,5.4,3.1C5,3,4.3,2.9,3.7,2.9c-0.5,0-0.7-0.1-0.7-0.4
			c0-0.3,0.3-0.4,1-0.4c2.3,0,5.1,0.1,5.9,0.1c2.1,0,3.8-0.1,5.3-0.1c7.9,0,9.3,4.2,9.3,6.5c0,3.6-2,5.7-4.4,7.6
			c3.6,1.2,7.9,4.3,7.9,9.4c0,4.7-3.6,9.5-11.6,9.5c-0.5,0-1.8-0.1-3.1-0.1C11.9,35,10.6,35,9.9,35c-0.5,0-1.4,0-2.5,0
			c-1,0-2.1,0.1-3,0.1c-0.6,0-0.9-0.1-0.9-0.4c0-0.2,0.2-0.3,0.7-0.3c0.7,0,1.2-0.1,1.6-0.2C6.7,34,6.9,33,7.1,31.8
			c0.2-1.8,0.2-5.3,0.2-9.3V14.8z M12.6,15.5c0,0.3,0.1,0.4,0.3,0.5c0.4,0.1,1,0.1,2,0.1c1.4,0,2.4-0.2,3.1-0.8
			c1.1-0.9,1.8-2.5,1.8-4.6c0-2.9-1.7-6.8-5.4-6.8c-0.6,0-1,0-1.4,0.1c-0.3,0.1-0.4,0.3-0.4,0.7V15.5z M18.3,19
			c-0.9-0.7-1.9-1-3.6-1c-0.8,0-1.2,0-1.9,0c-0.2,0-0.3,0.1-0.3,0.3v10.3c0,2.9,0.1,3.6,1.5,4.2c1.2,0.5,2.2,0.5,3.2,0.5
			c2,0,5.3-1,5.3-5.6C22.5,25,21.6,21.3,18.3,19z"/>
		<path class="st2" d="M33.8,17.8c0-5.6,0-6.7,0-7.8c-0.1-1.3-0.4-1.7-1.7-2c-0.3-0.1-1-0.1-1.5-0.1c-0.4,0-0.7-0.1-0.7-0.4
			c0-0.3,0.3-0.3,0.8-0.3c2,0,4.6,0.1,5.8,0.1c1,0,3.5-0.1,4.9-0.1c0.6,0,0.8,0.1,0.8,0.3c0,0.3-0.2,0.4-0.6,0.4
			c-0.4,0-0.7,0-1.1,0.1c-1,0.2-1.3,0.7-1.4,2c-0.1,1.2-0.1,2.2-0.1,7.8V23c0,5.4,1,7.5,2.9,9c1.7,1.4,3.5,1.5,4.8,1.5
			c1.7,0,3.6-0.5,5.1-2c2.1-2,2.2-5.2,2.2-9v-4.7c0-5.6,0-6.7-0.1-7.8c-0.1-1.3-0.4-1.7-1.6-2c-0.3-0.1-1-0.1-1.4-0.1
			c-0.4,0-0.7-0.1-0.7-0.4c0-0.3,0.3-0.3,0.8-0.3c2,0,4.5,0.1,4.6,0.1c0.4,0,3-0.1,4.5-0.1c0.5,0,0.8,0.1,0.8,0.3
			c0,0.3-0.2,0.4-0.7,0.4s-0.7,0-1.1,0.1c-1,0.2-1.3,0.7-1.4,2c0,1.2-0.1,2.2-0.1,7.8v4c0,4.1-0.4,8.5-3.7,11.2
			c-2.7,2.3-5.6,2.7-8.1,2.7c-2,0-6-0.1-8.8-2.5c-2-1.7-3.5-4.4-3.5-9.8V17.8z"/>
		<path class="st2" d="M64.6,34.6c-0.6-0.3-0.7-0.4-0.7-1.3c0-2,0.2-4.3,0.2-4.9c0-0.6,0.2-1,0.5-1c0.3,0,0.4,0.3,0.4,0.6
			c0,0.5,0.1,1.3,0.3,1.9c0.8,2.7,3.7,3.7,6.1,3.7c3.3,0,5.3-2.1,5.3-4.7c0-1.6-0.4-3.2-3.8-5.2l-2.2-1.3c-4.5-2.7-6-5.1-6-8.4
			c0-4.5,4.4-7.5,9.7-7.5c2.5,0,4.4,0.3,5.4,0.6c0.3,0.1,0.5,0.2,0.5,0.5c0,0.5-0.1,1.5-0.1,4.4c0,0.8-0.2,1.2-0.5,1.2
			c-0.3,0-0.4-0.2-0.4-0.7c0-0.3-0.2-1.5-1-2.4c-0.6-0.7-1.8-1.7-4.3-1.7c-2.7,0-5.2,1.4-5.2,4c0,1.7,0.6,3,4.1,4.9l1.6,0.9
			c5.1,2.8,6.6,5.6,6.6,9c0,2.7-1,5-3.8,6.9c-1.8,1.3-4.4,1.5-6.4,1.5C68.7,35.6,66.3,35.4,64.6,34.6z"/>
		<path class="st2" d="M87.6,17.8c0-5.6,0-6.7,0-7.8c-0.1-1.3-0.5-1.7-1.3-2c-0.4-0.1-0.9-0.2-1.4-0.2c-0.4,0-0.6-0.1-0.6-0.4
			c0-0.2,0.3-0.3,0.9-0.3c1.4,0,4.1,0.1,5.1,0.1c1,0,3.4-0.1,4.9-0.1c0.5,0,0.8,0.1,0.8,0.3c0,0.3-0.2,0.4-0.6,0.4s-0.7,0-1.1,0.1
			c-1,0.2-1.4,0.7-1.4,2c-0.1,1.2-0.1,2.2-0.1,7.8v6.5c0,3.6,0,6.5,0.2,8.1c0.1,1,0.4,1.6,1.5,1.7c0.5,0.1,1.4,0.1,2,0.1
			c0.4,0,0.6,0.2,0.6,0.4c0,0.3-0.3,0.4-0.7,0.4c-2.5,0-5.1-0.1-6.2-0.1c-0.9,0-3.5,0.1-5,0.1c-0.5,0-0.7-0.1-0.7-0.4
			c0-0.2,0.1-0.4,0.6-0.4c0.6,0,1,0,1.4-0.1c0.8-0.2,1-0.7,1.1-1.8c0.2-1.5,0.2-4.5,0.2-8.1V17.8z"/>
		<path class="st2" d="M105.9,30.1c0.1,2.9,0.6,3.7,1.3,4c0.7,0.2,1.4,0.3,2,0.3c0.4,0,0.7,0.2,0.7,0.4c0,0.3-0.3,0.4-0.9,0.4
			c-2.5,0-4.3-0.1-5-0.1c-0.3,0-2.2,0.1-4.1,0.1c-0.5,0-0.9,0-0.9-0.4c0-0.2,0.3-0.4,0.6-0.4c0.5,0,1.2,0,1.7-0.2
			c1-0.3,1.1-1.3,1.2-4.5l0.3-22c0-0.7,0.3-1.3,0.7-1.3c0.5,0,1,0.6,1.7,1.2c0.5,0.5,6.2,6.4,11.8,11.8c2.6,2.6,7.7,7.8,8.3,8.3h0.2
			l-0.4-16.5c0-2.3-0.4-2.9-1.3-3.3c-0.6-0.2-1.5-0.2-2-0.2c-0.5,0-0.6-0.2-0.6-0.4c0-0.3,0.4-0.3,1-0.3c2,0,4.1,0.1,4.9,0.1
			c0.4,0,1.9-0.1,3.7-0.1c0.5,0,0.9,0,0.9,0.3c0,0.2-0.2,0.4-0.7,0.4c-0.4,0-0.7,0-1.2,0.1c-1,0.3-1.4,1-1.4,3.1l-0.4,23.4
			c0,0.8-0.3,1.2-0.6,1.2c-0.7,0-1.2-0.4-1.6-0.8c-2.4-2.2-7.2-6.8-11.2-10.7c-4.2-4-8.2-8.5-9-9.2h-0.1L105.9,30.1z"/>
		<path class="st2" d="M138.3,17.8c0-5.6,0-6.7,0-7.8c-0.1-1.3-0.4-1.7-1.7-2c-0.3-0.1-1-0.1-1.5-0.1c-0.4,0-0.7-0.1-0.7-0.4
			c0-0.3,0.3-0.3,0.9-0.3c2,0,4.4,0.1,5.5,0.1c1.2,0,9.7,0,10.5,0c0.7,0,1.3-0.2,1.6-0.2c0.2,0,0.4-0.2,0.6-0.2
			c0.2,0,0.3,0.2,0.3,0.3c0,0.3-0.2,0.7-0.3,2.4c0,0.4-0.1,2-0.2,2.4c0,0.2-0.1,0.6-0.4,0.6c-0.3,0-0.3-0.2-0.3-0.5
			c0-0.3,0-0.9-0.3-1.4c-0.3-0.7-0.6-1.2-2.5-1.4c-0.7-0.1-5.2-0.2-6-0.2c-0.2,0-0.3,0.1-0.3,0.3v9.2c0,0.2,0,0.4,0.3,0.4
			c0.9,0,5.8,0,6.7-0.1c0.9-0.1,1.5-0.2,1.8-0.6c0.3-0.3,0.4-0.5,0.6-0.5c0.2,0,0.3,0.2,0.3,0.4c0,0.2-0.1,0.8-0.3,2.7
			c-0.1,0.7-0.2,2.2-0.2,2.5c0,0.3,0,0.8-0.4,0.8c-0.3,0-0.3-0.1-0.3-0.3c0-0.4,0-0.9-0.1-1.4c-0.2-0.7-0.7-1.3-2.1-1.4
			c-0.7-0.1-5.1-0.2-6-0.2c-0.2,0-0.2,0.2-0.2,0.4v3c0,1.3,0,4.4,0,5.5c0.1,2.5,1.3,3.1,5.2,3.1c1,0,2.6,0,3.6-0.5
			c1-0.4,1.4-1.2,1.7-2.7c0.1-0.4,0.2-0.6,0.4-0.6c0.3,0,0.3,0.5,0.3,0.9c0,0.8-0.3,3.4-0.5,4.1c-0.3,1-0.6,1-2,1
			c-2.9,0-5.2,0-7.1-0.1c-1.9,0-3.3-0.1-4.4-0.1c-0.4,0-1.3,0-2.2,0c-0.9,0-1.9,0.1-2.7,0.1c-0.5,0-0.7-0.1-0.7-0.4
			c0-0.2,0.1-0.4,0.6-0.4c0.6,0,1,0,1.4-0.1c0.8-0.2,1-0.9,1.1-2c0.2-1.6,0.2-4.5,0.2-7.9V17.8z"/>
		<path class="st2" d="M159.5,34.6c-0.6-0.3-0.7-0.4-0.7-1.3c0-2,0.2-4.3,0.2-4.9c0-0.6,0.2-1,0.5-1c0.3,0,0.4,0.3,0.4,0.6
			c0,0.5,0.1,1.3,0.3,1.9c0.8,2.7,3.7,3.7,6.1,3.7c3.3,0,5.3-2.1,5.3-4.7c0-1.6-0.4-3.2-3.8-5.2l-2.2-1.3c-4.5-2.7-6-5.1-6-8.4
			c0-4.5,4.4-7.5,9.7-7.5c2.5,0,4.4,0.3,5.4,0.6c0.3,0.1,0.5,0.2,0.5,0.5c0,0.5-0.1,1.5-0.1,4.4c0,0.8-0.2,1.2-0.5,1.2
			c-0.3,0-0.4-0.2-0.4-0.7c0-0.3-0.2-1.5-1-2.4c-0.6-0.7-1.8-1.7-4.3-1.7c-2.7,0-5.2,1.4-5.2,4c0,1.7,0.6,3,4.1,4.9l1.6,0.9
			c5.1,2.8,6.6,5.6,6.6,9c0,2.7-1,5-3.8,6.9c-1.8,1.3-4.4,1.5-6.4,1.5C163.5,35.6,161.2,35.4,159.5,34.6z"/>
		<path class="st2" d="M181.2,34.6c-0.6-0.3-0.7-0.4-0.7-1.3c0-2,0.2-4.3,0.2-4.9c0-0.6,0.2-1,0.5-1c0.3,0,0.4,0.3,0.4,0.6
			c0,0.5,0.1,1.3,0.3,1.9c0.8,2.7,3.7,3.7,6.1,3.7c3.3,0,5.3-2.1,5.3-4.7c0-1.6-0.4-3.2-3.8-5.2l-2.2-1.3c-4.5-2.7-6-5.1-6-8.4
			c0-4.5,4.4-7.5,9.7-7.5c2.5,0,4.4,0.3,5.4,0.6c0.3,0.1,0.5,0.2,0.5,0.5c0,0.5-0.1,1.5-0.1,4.4c0,0.8-0.2,1.2-0.5,1.2
			c-0.3,0-0.4-0.2-0.4-0.7c0-0.3-0.2-1.5-1-2.4c-0.6-0.7-1.8-1.7-4.3-1.7c-2.7,0-5.2,1.4-5.2,4c0,1.7,0.6,3,4.1,4.9l1.6,0.9
			c5.1,2.8,6.6,5.6,6.6,9c0,2.7-1,5-3.8,6.9c-1.8,1.3-4.4,1.5-6.4,1.5C185.2,35.6,182.9,35.4,181.2,34.6z"/>
		<path class="st2" d="M9.1,61.4c0-6.6,0-7.8-0.1-9.2c-0.1-1.5-0.5-2.2-1.5-2.4c-0.5-0.1-1-0.2-1.6-0.2c-0.4,0-0.7-0.1-0.7-0.4
			c0-0.3,0.3-0.3,1-0.3c1.7,0,4.4,0.1,5.7,0.1c1.1,0,3.7-0.1,5.3-0.1c0.6,0,0.9,0.1,0.9,0.3c0,0.3-0.3,0.4-0.7,0.4
			c-0.4,0-0.8,0-1.3,0.1c-1.2,0.2-1.5,1-1.6,2.5c-0.1,1.4-0.1,2.6-0.1,9.2V69c0,4.2,0,7.7,0.2,9.5c0.1,1.2,0.4,2,1.7,2.1
			c0.6,0.1,1.6,0.2,2.2,0.2c0.5,0,0.7,0.1,0.7,0.3c0,0.3-0.3,0.4-0.8,0.4c-2.9,0-5.6-0.1-6.8-0.1c-1,0-3.7,0.1-5.5,0.1
			c-0.6,0-0.9-0.1-0.9-0.4c0-0.2,0.2-0.3,0.7-0.3c0.7,0,1.2-0.1,1.6-0.2c0.9-0.2,1.1-0.9,1.3-2.2c0.2-1.8,0.2-5.3,0.2-9.5V61.4z"/>
		<path class="st2" d="M31.3,76.6c0.1,2.9,0.6,3.7,1.3,4c0.7,0.2,1.4,0.3,2,0.3c0.4,0,0.7,0.2,0.7,0.4c0,0.3-0.3,0.4-0.9,0.4
			c-2.5,0-4.3-0.1-5-0.1c-0.3,0-2.2,0.1-4.1,0.1c-0.5,0-0.9,0-0.9-0.4c0-0.2,0.3-0.4,0.6-0.4c0.5,0,1.2,0,1.7-0.2
			c1-0.3,1.1-1.3,1.2-4.5l0.3-22c0-0.7,0.3-1.3,0.7-1.3c0.5,0,1,0.6,1.7,1.2c0.5,0.5,6.2,6.4,11.8,11.8c2.6,2.6,7.7,7.8,8.3,8.3h0.2
			l-0.4-16.5c0-2.3-0.4-2.9-1.3-3.3c-0.6-0.2-1.5-0.2-2-0.2c-0.5,0-0.6-0.2-0.6-0.4c0-0.3,0.4-0.3,1-0.3c2,0,4.1,0.1,4.9,0.1
			c0.4,0,1.9-0.1,3.7-0.1c0.5,0,0.9,0,0.9,0.3c0,0.2-0.2,0.4-0.7,0.4c-0.4,0-0.7,0-1.2,0.1c-1,0.3-1.4,1-1.4,3.1l-0.4,23.4
			c0,0.8-0.3,1.2-0.6,1.2c-0.7,0-1.2-0.4-1.6-0.8C48.8,79.1,44,74.5,40,70.6c-4.2-4-8.2-8.5-9-9.2h-0.1L31.3,76.6z"/>
		<path class="st2" d="M65.3,81.2c-0.6-0.3-0.7-0.4-0.7-1.3c0-2,0.2-4.3,0.2-4.9c0-0.6,0.2-1,0.5-1c0.3,0,0.4,0.3,0.4,0.6
			c0,0.5,0.1,1.3,0.3,1.9c0.8,2.7,3.7,3.7,6.1,3.7c3.3,0,5.3-2.1,5.3-4.7c0-1.6-0.4-3.2-3.8-5.2L71.4,69c-4.5-2.7-6-5.1-6-8.4
			c0-4.5,4.4-7.5,9.7-7.5c2.5,0,4.4,0.3,5.4,0.6c0.3,0.1,0.5,0.2,0.5,0.5c0,0.5-0.1,1.5-0.1,4.4c0,0.8-0.2,1.2-0.5,1.2
			c-0.3,0-0.4-0.2-0.4-0.7c0-0.3-0.2-1.5-1-2.4C78.5,56,77.2,55,74.8,55c-2.7,0-5.2,1.4-5.2,4c0,1.7,0.6,3,4.1,4.9l1.6,0.9
			c5.1,2.8,6.6,5.6,6.6,9c0,2.7-1,5-3.8,6.9c-1.8,1.3-4.4,1.5-6.4,1.5C69.3,82.2,67,81.9,65.3,81.2z"/>
		<path class="st2" d="M91.9,64.4c0-5.6,0-6.7,0-7.8c-0.1-1.3-0.5-1.7-1.3-2c-0.4-0.1-0.9-0.2-1.4-0.2c-0.4,0-0.6-0.1-0.6-0.4
			c0-0.2,0.3-0.3,0.9-0.3c1.4,0,4.1,0.1,5.1,0.1c1,0,3.4-0.1,4.9-0.1c0.5,0,0.8,0.1,0.8,0.3c0,0.3-0.2,0.4-0.6,0.4s-0.7,0-1.1,0.1
			c-1,0.2-1.4,0.7-1.4,2C97,57.7,97,58.7,97,64.4v6.5c0,3.6,0,6.5,0.2,8.1c0.1,1,0.4,1.6,1.5,1.7c0.5,0.1,1.4,0.1,2,0.1
			c0.4,0,0.6,0.2,0.6,0.4c0,0.3-0.3,0.4-0.7,0.4c-2.5,0-5.1-0.1-6.2-0.1c-0.9,0-3.5,0.1-5,0.1c-0.5,0-0.7-0.1-0.7-0.4
			c0-0.2,0.1-0.4,0.6-0.4c0.6,0,1,0,1.4-0.1c0.8-0.2,1-0.7,1.1-1.8c0.2-1.5,0.2-4.5,0.2-8.1V64.4z"/>
		<path class="st2" d="M111.5,64.4c0-5.6,0-6.7,0-7.8c-0.1-1.3-0.4-1.7-1.7-2c-0.3-0.1-1-0.1-1.5-0.1c-0.4,0-0.7-0.1-0.7-0.4
			c0-0.3,0.3-0.3,0.9-0.3c2,0,4.4,0.1,5.5,0.1c1.2,0,3.9-0.1,6.2-0.1c4.8,0,11.2,0,15.4,4.2c1.9,1.9,3.6,5,3.6,9.4
			c0,4.7-2,8.2-4.2,10.3c-1.7,1.7-5.8,4.4-12.9,4.4c-1.4,0-3.1-0.1-4.6-0.2c-1.5-0.1-2.9-0.2-3.9-0.2c-0.4,0-1.3,0-2.2,0
			c-0.9,0-1.9,0.1-2.7,0.1c-0.5,0-0.7-0.1-0.7-0.4c0-0.2,0.1-0.4,0.6-0.4c0.6,0,1,0,1.4-0.1c0.8-0.2,1-0.9,1.1-2
			c0.2-1.6,0.2-4.5,0.2-7.9V64.4z M116.6,68.5c0,3.9,0,6.8,0.1,7.5c0,0.9,0.1,2.2,0.4,2.6c0.5,0.7,2,1.5,5,1.5
			c3.5,0,6.1-0.6,8.4-2.5c2.5-2,3.3-5.4,3.3-9.2c0-4.7-1.9-7.8-3.6-9.2c-3.5-3.1-7.7-3.5-10.7-3.5c-0.8,0-2,0.1-2.4,0.3
			c-0.3,0.1-0.5,0.3-0.5,0.7c0,1.3,0,4.3,0,7.2V68.5z"/>
		<path class="st2" d="M149.1,64.4c0-5.6,0-6.7,0-7.8c-0.1-1.3-0.4-1.7-1.7-2c-0.3-0.1-1-0.1-1.5-0.1c-0.4,0-0.7-0.1-0.7-0.4
			c0-0.3,0.3-0.3,0.9-0.3c2,0,4.4,0.1,5.5,0.1c1.2,0,9.7,0,10.5,0c0.7,0,1.3-0.2,1.6-0.2c0.2,0,0.4-0.2,0.6-0.2
			c0.2,0,0.3,0.2,0.3,0.3c0,0.3-0.2,0.7-0.3,2.4c0,0.4-0.1,2-0.2,2.4c0,0.2-0.1,0.6-0.4,0.6c-0.3,0-0.3-0.2-0.3-0.5
			c0-0.3,0-0.9-0.3-1.4c-0.3-0.7-0.6-1.2-2.5-1.4c-0.7-0.1-5.2-0.2-6-0.2c-0.2,0-0.3,0.1-0.3,0.3v9.2c0,0.2,0,0.4,0.3,0.4
			c0.9,0,5.8,0,6.7-0.1c0.9-0.1,1.5-0.2,1.8-0.6c0.3-0.3,0.4-0.5,0.6-0.5c0.2,0,0.3,0.2,0.3,0.4c0,0.2-0.1,0.8-0.3,2.7
			c-0.1,0.7-0.2,2.2-0.2,2.5c0,0.3,0,0.8-0.4,0.8c-0.3,0-0.3-0.1-0.3-0.3c0-0.4,0-0.9-0.1-1.4c-0.2-0.7-0.7-1.3-2.1-1.4
			c-0.7-0.1-5.1-0.2-6-0.2c-0.2,0-0.2,0.2-0.2,0.4v3c0,1.3,0,4.4,0,5.5c0.1,2.5,1.3,3.1,5.2,3.1c1,0,2.6,0,3.6-0.5
			c1-0.4,1.4-1.2,1.7-2.7c0.1-0.4,0.2-0.6,0.4-0.6c0.3,0,0.3,0.5,0.3,0.9c0,0.8-0.3,3.4-0.5,4.1c-0.3,1-0.6,1-2,1
			c-2.9,0-5.2,0-7.1-0.1c-1.9,0-3.3-0.1-4.4-0.1c-0.4,0-1.3,0-2.2,0c-0.9,0-1.9,0.1-2.7,0.1c-0.5,0-0.7-0.1-0.7-0.4
			c0-0.2,0.1-0.4,0.6-0.4c0.6,0,1,0,1.4-0.1c0.8-0.2,1-0.9,1.1-2c0.2-1.6,0.2-4.5,0.2-7.9V64.4z"/>
		<path class="st2" d="M175.2,64.4c0-5.6,0-6.7,0-7.8c-0.1-1.3-0.4-1.7-1.7-2c-0.3-0.1-1-0.1-1.5-0.1c-0.4,0-0.7-0.1-0.7-0.4
			c0-0.3,0.3-0.3,0.9-0.3c2,0,4.4,0.1,5.2,0.1c1.3,0,4.8-0.1,6-0.1c2.4,0,5.2,0.2,7.3,1.6c1.1,0.7,2.7,2.6,2.7,5.1
			c0,2.7-1.6,5.2-5.3,8.2c3.4,4.2,6.1,7.5,8.4,9.9c2.1,2.1,3.5,2.3,4.1,2.4c0.4,0.1,0.6,0.1,0.9,0.1c0.3,0,0.5,0.2,0.5,0.4
			c0,0.3-0.3,0.4-0.7,0.4h-3.7c-2.1,0-3.2-0.2-4.2-0.7c-1.7-0.8-3.1-2.6-5.2-5.4c-1.5-2-3.1-4.5-3.6-5.1c-0.2-0.2-0.4-0.3-0.7-0.3
			l-3.4-0.1c-0.2,0-0.3,0.1-0.3,0.3v0.5c0,3.4,0,6.3,0.2,7.9c0.1,1.1,0.3,1.8,1.5,2c0.6,0.1,1.4,0.1,1.9,0.1c0.3,0,0.5,0.2,0.5,0.4
			c0,0.3-0.3,0.4-0.8,0.4c-2.2,0-5.4-0.1-6-0.1c-0.7,0-3.2,0.1-4.7,0.1c-0.5,0-0.7-0.1-0.7-0.4c0-0.2,0.1-0.4,0.6-0.4
			c0.6,0,1,0,1.4-0.1c0.8-0.2,1-0.9,1.1-2c0.2-1.6,0.2-4.5,0.2-7.9V64.4z M180,67.2c0,0.4,0.1,0.5,0.3,0.7c0.8,0.3,2,0.3,2.9,0.3
			c1.5,0,2-0.1,2.7-0.6c1.2-0.8,2.5-2.4,2.5-5.5c0-5.2-3.6-6.6-5.8-6.6c-1,0-1.9,0-2.3,0.1c-0.3,0.1-0.3,0.2-0.3,0.5V67.2z"/>
	</g>
</g>
<g>
	<g id="techcrunch_2_">
		<g>
			<path class="st3" d="M283.6,38.5v12.4h-4.5V38.5h-4.6v-3.9h13.7v3.9H283.6z"/>
			<path class="st3" d="M298.8,46h-7.2c0.1,1.4,0.9,2,2.1,2c1.1,0,2-0.2,3.2-0.9l1.6,2.7c-1.5,0.9-3.1,1.4-5,1.4
				c-3.7,0-5.7-2.6-5.7-6.4c0-4.2,2.4-6.4,5.6-6.4c3.4,0,5.5,2.2,5.5,6.8C298.8,45.5,298.8,45.8,298.8,46z M293.2,41.5
				c-1,0-1.5,0.7-1.6,1.9h3.5C294.9,42.1,294.5,41.5,293.2,41.5z"/>
			<path class="st3" d="M306.6,51.2c-3.6,0-5.7-2.3-5.7-6.4c0-3.8,1.9-6.3,5.8-6.3c2.3,0,3.6,1.1,4.7,2.8l-2.9,2.2
				c-0.6-1.1-1-1.6-1.9-1.6c-1.1,0-1.6,1.1-1.6,3c0,1.9,0.6,2.9,1.7,2.9c0.8,0,1.4-0.4,2.1-1.6l2.7,2.1
				C310.1,50.3,308.7,51.2,306.6,51.2z"/>
			<path class="st3" d="M320.9,50.9V44c0-1.6-0.5-2-1.4-2c-0.9,0-1.4,0.4-1.4,2v7h-4.2V35.6l4.2-1.7v5.6c0.8-0.6,1.6-1.1,3.1-1.1
				c2.7,0,4,1.8,4,5v7.5H320.9z"/>
			<path d="M335.1,51.2c-4.8,0-7.4-3.6-7.4-8.4c0-5.2,3.1-8.4,7.5-8.4c4,0,5.6,1.7,6.7,4.8l-4.1,1.6c-0.6-1.5-1.1-2.5-2.6-2.5
				c-1.9,0-2.7,1.9-2.7,4.5c0,2.5,0.8,4.5,2.8,4.5c1.4,0,2-0.8,2.9-2.3l3.8,2C340.8,49.1,339,51.2,335.1,51.2z"/>
			<path d="M352.3,43.3c-0.5-0.6-1.1-1-2-1c-1,0-1.7,0.5-1.7,2v6.7h-4.2V38.7h4.2v0.9c0.7-0.7,1.5-1.1,2.6-1.1c0.9,0,1.5,0.2,2,0.5
				L352.3,43.3z"/>
			<path d="M362.2,50.9v-0.8c-0.7,0.6-1.6,1.1-3.1,1.1c-2.7,0-4-1.8-4-5v-7.5h4.2v6.9c0,1.6,0.5,2,1.4,2s1.4-0.4,1.4-2v-7h4.2v12.2
				H362.2z"/>
			<path d="M376.5,50.9V44c0-1.6-0.5-2-1.4-2c-0.9,0-1.4,0.4-1.4,2v7h-4.2V38.7h4.2v0.8c0.8-0.6,1.6-1.1,3.1-1.1c2.7,0,4,1.8,4,5
				v7.5H376.5z"/>
			<path d="M388.9,51.2c-3.6,0-5.7-2.3-5.7-6.4c0-3.8,1.9-6.3,5.8-6.3c2.3,0,3.6,1.1,4.7,2.8l-2.9,2.2c-0.6-1.1-1-1.6-1.9-1.6
				c-1.1,0-1.6,1.1-1.6,3c0,1.9,0.6,2.9,1.7,2.9c0.8,0,1.4-0.4,2.1-1.6l2.7,2.1C392.4,50.3,391.1,51.2,388.9,51.2z"/>
			<path d="M403.2,50.9V44c0-1.6-0.5-2-1.4-2c-0.9,0-1.4,0.4-1.4,2v7h-4.2V35.6l4.2-1.7v5.6c0.8-0.6,1.6-1.1,3.1-1.1
				c2.7,0,4,1.8,4,5v7.5H403.2z"/>
		</g>
		<g>
			<polygon class="st3" points="209,28 209,37 218,37 218,56 228,56 228,37 237,37 237,28 			"/>
			<polygon class="st3" points="246,47 246,37 237,37 237,56 264,56 264,47 			"/>
			<rect x="246" y="28" class="st3" width="18" height="9"/>
		</g>
	</g>
</g>
<g>
	<g>
		<path class="st4" d="M647.4,38.5c-1.7,0.7-2.7,2.5-3.1,4.3c3.2,0,6.5,0,9.7,0c-0.2-1-0.4-2-1.1-2.9
			C651.7,38.1,649.3,37.6,647.4,38.5z"/>
		<path class="st4" d="M735.7,49.9c-0.3,1.2,0.4,2.6,1.7,2.9c1.7,0.5,3.9,0.3,5.1-1.2c1.1-1.5,1.1-3.5,1.1-5.4
			c-2,0.9-4.2,0.8-6.1,1.6C736.7,48.3,735.9,49,735.7,49.9z"/>
		<path class="st4" d="M786.4,52.7c1.7,0.6,4.1,0.4,5.3-1.1c1.1-1.5,1.1-3.5,1.1-5.4c-2.2,1-4.9,0.7-6.9,2.1
			C784.4,49.4,784.6,52.1,786.4,52.7z"/>
		<path class="st4" d="M763.4,39.1c-1,0.3-1.8,0.9-2.4,1.8c-1.1,1.7-1.2,3.8-1,5.8c0.2,1.5,0.7,3.2,1.9,4.2c1.7,1.6,4.7,1.3,6.1-0.5
			c1-1.3,1.2-3.1,1.3-4.7c0-1.8-0.3-3.8-1.4-5.3C766.8,39.1,764.9,38.6,763.4,39.1z"/>
		<path class="st5" d="M633.1,51.1c-1-0.5-1-1.7-1-2.7c0-3.3,0-6.6,0-9.9c1.6,0,3.2,0,4.8,0c0-1.7,0-3.4,0-5.1c-1.6,0-3.2,0-4.8,0
			c0-2.3,0-4.6,0-6.9c-2.6,0-5.1,0-7.7,0c0,2.3,0,4.6,0,6.9c-1.3,0-2.6,0-3.9,0c0,1.7,0,3.4,0,5.1c1.3,0,2.6,0,4,0c0,4,0,8.1,0,12.1
			c0.1,2.1,0.6,4.7,2.7,5.8c3.1,1.4,6.5,0.8,9.8,0.7c0-1.9,0-3.9,0-5.8C635.6,51.4,634.3,51.7,633.1,51.1z"/>
		<path class="st5" d="M702,32.8c-2.9,0-5.9,1.4-7.3,3.9c0.1-3.4,0-6.8,0-10.2c-2.6,0-5.2,0-7.7,0c0,6.9,0,13.7-0.1,20.6
			c0,0.3-0.1,0.6-0.3,0.8c-2.4-0.3-4.8-0.1-7.2-0.1c-0.3,1.2-0.7,2.5-1.8,3.2c-1.6,1.1-4.1,1.1-5.5-0.4c-1.4-1.3-1.7-3.3-1.8-5.1
			c0-1.7,0.2-3.6,1.2-5c1.5-2.1,4.9-2.4,6.7-0.5c0.6,0.6,0.7,1.4,0.9,2.1c2.5,0,5,0,7.6,0c-0.2-1.9-0.8-3.8-2.1-5.3
			c-1.8-2.3-4.6-3.5-7.4-3.9c-2.4-0.3-5-0.2-7.3,0.7c-2.2,0.8-4.1,2.4-5.3,4.4c-1.9,3-2.4,6.6-1.8,10.1c0.6,3.5,2.9,6.7,6.1,8.3
			c5,2.4,11.6,1.7,15.5-2.4c0.2-0.3,0.3-0.7,0.6-1c1.1-1.2,1.1-2.9,1.9-4.2c0.1,2.8,0,5.6,0,8.3c2.6,0,5.2,0,7.7,0
			c0-4.1,0-8.2,0-12.2c0-1.5,0.2-3,1.1-4.2c1.2-1.6,3.8-1.8,5.4-0.8c1.3,0.9,1.4,2.7,1.5,4.1c0,4.4,0,8.8,0,13.2c2.6,0,5.1,0,7.7,0
			c0-5.4,0-10.7,0-16.1c-0.1-2.2-0.6-4.6-2.3-6.2C706.6,33.2,704.2,32.8,702,32.8z"/>
		<path class="st5" d="M656.9,35c-5.1-3.5-12.8-2.8-17,1.7c-2.2,2.2-3.4,5.4-3.3,8.5c-0.1,2.9,0.7,5.9,2.6,8.2
			c1.9,2.4,4.9,3.8,7.9,4.2c3.4,0.4,7,0.1,10-1.7c2.2-1.3,3.8-3.5,4.4-6c-2.4,0-4.8,0-7.3,0c-1.5,3-6.1,3.4-8.4,1.1
			c-1-1-1.3-2.5-1.5-3.8c5.8,0,11.7,0,17.5,0C662,42.6,660.7,37.7,656.9,35z M644.3,42.8c0.3-1.8,1.3-3.6,3.1-4.3
			c1.9-0.8,4.4-0.3,5.6,1.4c0.6,0.8,0.9,1.9,1.1,2.9C650.8,42.8,647.6,42.8,644.3,42.8z"/>
		<path class="st6" d="M769,36.2c-3.1-4.4-10.3-4.3-13.8-0.4c-2.3,2.5-3.2,6-3.1,9.3c0,3.6,0.9,7.3,3.4,10c2,2.1,4.9,3.1,7.8,2.9
			c2.4,0,4.7-1.4,6.1-3.3c0,0.9,0,1.8,0,2.7c2.5,0,4.9,0,7.4,0c0-10.3,0-20.6,0-30.9c-2.6,0-5.1,0-7.7,0C769,29.6,769,32.9,769,36.2
			z M768,50.4c-1.4,1.8-4.4,2.1-6.1,0.5c-1.2-1.1-1.7-2.7-1.9-4.2c-0.2-2-0.1-4.1,1-5.8c0.5-0.9,1.4-1.5,2.4-1.8
			c1.6-0.5,3.5,0,4.5,1.3c1.2,1.5,1.4,3.4,1.4,5.3C769.2,47.3,769,49.1,768,50.4z"/>
		<path class="st6" d="M728.3,33.2c-1.7-0.3-3.5-0.2-5.2,0.4c-1.8,0.7-3.1,2.2-3.9,3.9c0-1.3,0-2.6,0-4c-2.5,0-5,0-7.6,0
			c0,7.9,0,15.8,0,23.6c2.6,0,5.1,0,7.7,0c0-3.9,0-7.7,0-11.6c0-1.9,0.9-3.8,2.6-4.8c1.9-1.2,4.2-1,6.3-0.4
			C728.3,38,728.3,35.6,728.3,33.2z"/>
		<path class="st6" d="M751.1,39.9c-0.1-1.7-0.8-3.3-2-4.5c-2-1.8-4.8-2.3-7.4-2.4c-3.3-0.1-6.9,0.1-9.8,2c-2,1.3-3,3.6-3.1,6
			c2.4,0,4.9,0,7.3,0c0.3-1.2,1.1-2.3,2.3-2.7c1.6-0.4,3.5-0.3,4.7,0.9c1,1,0.6,3-0.8,3.3c-3.7,1-7.7,0.7-11.1,2.5
			c-1.6,0.8-2.8,2.4-3.1,4.2c-0.3,2-0.2,4.3,1.1,6c1.2,1.7,3.2,2.6,5.2,2.8c3.3,0.4,6.9-0.3,9.4-2.7c0.2,0.7,0,1.6,0.5,2.1
			c2.6,0.1,5.2,0,7.8,0c-0.5-1.2-0.8-2.5-0.8-3.9C751,48.9,751.2,44.4,751.1,39.9z M742.5,51.7c-1.2,1.4-3.4,1.7-5.1,1.2
			c-1.2-0.3-1.9-1.7-1.7-2.9c0.1-0.9,0.9-1.6,1.8-2c2-0.8,4.2-0.8,6.1-1.6C743.6,48.1,743.6,50.1,742.5,51.7z"/>
		<path class="st6" d="M800.3,39.9c-0.1-1.5-0.6-3-1.7-4.2c-1.9-2-4.8-2.5-7.4-2.7c-3.4-0.1-7.1,0-10.1,2c-2,1.3-3.1,3.6-3.1,6
			c2.4,0,4.9,0,7.3,0c0.3-1.2,1.1-2.3,2.3-2.7c1.6-0.4,3.5-0.3,4.7,0.9c1,1,0.6,3-0.8,3.3c-3.7,0.9-7.7,0.7-11.1,2.5
			c-1.6,0.8-2.8,2.4-3.1,4.2c-0.3,2-0.2,4.3,1.1,6c1.2,1.7,3.2,2.6,5.2,2.8c3.3,0.4,7-0.3,9.4-2.7c0.1,0.7,0.2,1.4,0.3,2.1
			c2.7,0.1,5.3,0,8,0.1c-0.5-1.2-0.8-2.5-0.9-3.9C800.2,48.9,800.4,44.4,800.3,39.9z M791.7,51.6c-1.2,1.5-3.6,1.7-5.3,1.1
			c-1.8-0.6-2-3.3-0.5-4.3c2.1-1.4,4.7-1.1,6.9-2.1C792.8,48.1,792.8,50.1,791.7,51.6z"/>
		<path class="st6" d="M818.7,40.4c0-2.4,0-4.8,0-7.2c-1.7-0.3-3.5-0.2-5.1,0.4c-1.8,0.7-3.1,2.2-3.9,3.9c0-1.3,0-2.6,0-4
			c-2.5,0-5,0-7.6,0c0,7.9,0,15.8,0,23.6c2.6,0,5.1,0,7.7,0c0-4-0.1-8,0-11.9c0-2.3,1.6-4.4,3.8-5.1C815.4,39.7,817.1,40,818.7,40.4
			z"/>
		<path class="st7" d="M820.4,48.7c-2.8,0-5.7,0-8.5,0c0,2.9,0,5.7,0,8.6c2.8,0,5.7,0,8.5,0C820.4,54.5,820.4,51.6,820.4,48.7z"/>
	</g>
</g>
<g>
	<g>
		<g>
			<g>
				<path d="M844.7,11.7H866c2,0,3.9,0.1,5.9,0.4c2,0.3,3.7,1,5.3,1.9c1.6,0.9,2.8,2.2,3.8,3.9c1,1.7,1.5,3.8,1.5,6.4
					c0,2.3-0.6,4.3-1.7,6.1c-1.1,1.8-2.5,3.2-4.3,4.1c2.4,0.8,4.3,2.3,5.7,4.4c1.4,2.1,2.1,4.7,2.1,7.5c0,3-0.5,5.5-1.4,7.5
					c-0.9,2-2.2,3.6-3.8,4.8c-1.6,1.2-3.5,2.1-5.6,2.6c-2.2,0.5-4.5,0.8-6.9,0.8h-21.9V11.7z M856.5,31.6h9.2c0.5,0,1.1-0.1,1.6-0.2
					c0.6-0.2,1.1-0.4,1.6-0.8c0.5-0.4,0.9-0.9,1.2-1.5c0.3-0.6,0.5-1.4,0.5-2.3c0-1.8-0.5-3.1-1.5-3.8c-1-0.7-2.1-1.1-3.3-1.1h-9.2
					V31.6z M856.5,51.7h9.5c1.9,0,3.4-0.4,4.6-1.3c1.2-0.8,1.8-2.3,1.8-4.4c0-2.2-0.6-3.8-1.8-4.6c-1.2-0.9-2.7-1.3-4.5-1.3h-9.5
					V51.7z"/>
			</g>
		</g>
		<g>
			<path d="M931.4,48.9c-1.7-4.7-2.5-9.8-2.5-15.2s0.8-10.5,2.5-15.2c0.8-2.4,1.8-4.6,3-6.6h-11.3v27.6l-19.4-27.5h-12.2v50.4h12.2
				V31.7l21.6,30.6h12.1v-2.4C934.8,56.6,932.9,53,931.4,48.9z"/>
		</g>
		<g>
			<path class="st8" d="M974.5,43.1c-0.5,2-1.4,3.7-2.8,5.1c-1.9,1.9-4.6,2.9-8,2.9c-2.3,0-4.3-0.5-6-1.5c-1.6-1-3-2.3-4-3.9
				c-1-1.6-1.8-3.5-2.3-5.6c-0.5-2.1-0.7-4.2-0.7-6.4c0-2.2,0.2-4.3,0.7-6.4c0.5-2.1,1.2-3.9,2.3-5.6c1-1.6,2.4-3,4-3.9
				c1.6-1,3.6-1.5,6-1.5c3.1,0,5.6,0.8,7.6,2.3c1.7,1.3,2.8,3.2,3.4,5.5h14.7c-0.2-3-1-5.7-2.4-8.2c-1.5-2.8-3.5-5.1-5.9-7
				C978.7,7,976,5.6,973,4.6c-3-1-6-1.5-9-1.5c-4.2,0-8,0.8-11.5,2.4c-3.4,1.6-6.4,3.8-8.8,6.5c-2.4,2.8-4.3,6-5.6,9.7
				c-1.3,3.7-1.9,7.7-1.9,11.9s0.6,8.2,1.9,11.9c1.3,3.7,3.2,6.9,5.6,9.7c2.4,2.8,5.3,4.9,8.8,6.5c3.4,1.6,7.3,2.4,11.5,2.4
				c3.5,0,6.8-0.5,9.8-1.6c3-1.1,5.6-2.6,7.9-4.7c2.2-2.1,4-4.6,5.4-7.6c1-2.2,1.7-4.6,2.1-7.2H974.5z"/>
		</g>
		<g>
			<circle class="st8" cx="1000.1" cy="55.9" r="8.3"/>
		</g>
		<g>
			<path class="st8" d="M844.5,69.6h3.5c2.8,0,4.7,1.8,4.7,4.5s-1.9,4.5-4.7,4.5h-3.5V69.6z M848,76.9c1.8,0,2.8-1.3,2.8-2.8
				c0-1.6-1-2.8-2.8-2.8h-1.6v5.6H848z"/>
			<path class="st8" d="M853.8,70.3c0-0.6,0.5-1,1-1c0.6,0,1,0.5,1,1s-0.5,1-1,1C854.2,71.3,853.8,70.8,853.8,70.3z M853.9,72.1h1.7
				v6.5h-1.7V72.1z"/>
			<path class="st8" d="M857.8,79c0.5,0.6,1.2,0.8,2,0.8c0.8,0,1.8-0.4,1.8-1.6v-0.7c-0.5,0.6-1.2,1-2,1c-1.6,0-2.9-1.1-2.9-3.3
				c0-2.1,1.2-3.3,2.9-3.3c0.8,0,1.5,0.3,2,1v-0.8h1.7v6c0,2.5-1.9,3.1-3.5,3.1c-1.1,0-2-0.3-2.8-1L857.8,79z M861.6,74.2
				c-0.3-0.4-0.9-0.7-1.5-0.7c-1,0-1.6,0.7-1.6,1.8s0.7,1.8,1.6,1.8c0.6,0,1.2-0.3,1.5-0.7V74.2z"/>
			<path class="st8" d="M864.7,70.3c0-0.6,0.5-1,1-1c0.6,0,1,0.5,1,1s-0.5,1-1,1C865.2,71.3,864.7,70.8,864.7,70.3z M864.9,72.1h1.7
				v6.5h-1.7V72.1z"/>
			<path class="st8" d="M868.5,77v-3.4h-1.1v-1.5h1.1v-1.8h1.7v1.8h1.3v1.5h-1.3v2.9c0,0.4,0.2,0.7,0.6,0.7c0.3,0,0.5-0.1,0.6-0.2
				l0.4,1.3c-0.3,0.2-0.7,0.4-1.4,0.4C869.1,78.7,868.5,78.1,868.5,77z"/>
			<path class="st8" d="M876.4,77.9c-0.4,0.5-1.2,0.8-2.1,0.8c-1,0-2.3-0.7-2.3-2.1c0-1.5,1.2-2.1,2.3-2.1c0.9,0,1.6,0.3,2.1,0.8
				v-0.9c0-0.7-0.6-1.1-1.4-1.1c-0.7,0-1.3,0.3-1.9,0.8l-0.6-1.1c0.8-0.7,1.8-1,2.8-1c1.5,0,2.8,0.6,2.8,2.5v4.2h-1.7V77.9z
				 M876.4,76.2c-0.3-0.4-0.8-0.6-1.4-0.6c-0.7,0-1.2,0.3-1.2,1c0,0.6,0.6,1,1.2,1c0.5,0,1.1-0.2,1.4-0.6V76.2z"/>
			<path class="st8" d="M879.6,69.6h1.7v8.9h-1.7V69.6z"/>
			<path class="st8" d="M885.8,74.1c0-2.7,2.1-4.6,4.7-4.6c2,0,3.2,1.1,3.8,2.2l-1.6,0.8c-0.4-0.7-1.2-1.3-2.2-1.3
				c-1.6,0-2.7,1.2-2.7,2.9s1.2,2.9,2.7,2.9c1,0,1.8-0.6,2.2-1.3l1.6,0.8c-0.6,1.1-1.8,2.2-3.8,2.2
				C887.9,78.7,885.8,76.9,885.8,74.1z"/>
			<path class="st8" d="M899.6,77.8c-0.4,0.5-1.2,1-2.3,1c-1.4,0-2.1-0.8-2.1-2v-4.6h1.7V76c0,0.9,0.5,1.2,1.2,1.2
				c0.7,0,1.2-0.4,1.5-0.7v-4.4h1.7v6.5h-1.7V77.8z"/>
			<path class="st8" d="M902.9,72.1h1.7V73c0.5-0.6,1.3-1,2.1-1v1.7c-0.1,0-0.3-0.1-0.5-0.1c-0.6,0-1.3,0.3-1.6,0.7v4.3h-1.7V72.1z"
				/>
			<path class="st8" d="M907.5,72.1h1.7V73c0.5-0.6,1.3-1,2.1-1v1.7c-0.1,0-0.3-0.1-0.5-0.1c-0.6,0-1.3,0.3-1.6,0.7v4.3h-1.7V72.1z"
				/>
			<path class="st8" d="M915.2,71.9c1.9,0,3.2,1.4,3.2,3.6v0.4h-4.8c0.1,0.8,0.8,1.5,1.9,1.5c0.6,0,1.3-0.2,1.7-0.6l0.8,1.1
				c-0.6,0.6-1.7,0.9-2.7,0.9c-2,0-3.5-1.3-3.5-3.4C911.8,73.5,913.2,71.9,915.2,71.9z M913.6,74.7h3.2c0-0.6-0.5-1.4-1.6-1.4
				C914.1,73.3,913.6,74.1,913.6,74.7z"/>
			<path class="st8" d="M923.9,74.7c0-0.9-0.5-1.2-1.2-1.2c-0.7,0-1.2,0.4-1.5,0.8v4.4h-1.7v-6.5h1.7v0.8c0.4-0.5,1.2-1,2.3-1
				c1.4,0,2.1,0.8,2.1,2.1v4.6h-1.7V74.7z"/>
			<path class="st8" d="M930.1,71.9c1.3,0,2.1,0.6,2.6,1.2l-1.1,1c-0.3-0.5-0.8-0.7-1.4-0.7c-1,0-1.8,0.8-1.8,1.9
				c0,1.1,0.7,1.9,1.8,1.9c0.6,0,1.1-0.3,1.4-0.7l1.1,1c-0.4,0.6-1.2,1.2-2.6,1.2c-2,0-3.4-1.4-3.4-3.4
				C926.7,73.3,928.1,71.9,930.1,71.9z"/>
			<path class="st8" d="M934.2,79.7c0.4,0,0.7-0.1,0.9-0.5l0.2-0.6l-2.6-6.6h1.8l1.7,4.5l1.7-4.5h1.8l-3,7.5
				c-0.5,1.2-1.3,1.5-2.5,1.6c-0.2,0-0.6,0-0.8-0.1l0.3-1.5C933.8,79.7,934,79.7,934.2,79.7z"/>
			<path class="st8" d="M943.7,69.6h1.9v8.9h-1.9V69.6z"/>
			<path class="st8" d="M951.6,74.7c0-0.9-0.5-1.2-1.2-1.2c-0.7,0-1.2,0.4-1.5,0.8v4.4h-1.7v-6.5h1.7v0.8c0.4-0.5,1.2-1,2.3-1
				c1.4,0,2.1,0.8,2.1,2.1v4.6h-1.7V74.7z"/>
			<path class="st8" d="M955,76.5c0.5,0.4,1.4,0.9,2.2,0.9c0.7,0,1.1-0.3,1.1-0.7c0-0.5-0.6-0.6-1.3-0.8c-1.1-0.2-2.5-0.5-2.5-2
				c0-1.1,1-2,2.7-2c1.1,0,2,0.4,2.6,0.9L959,74c-0.4-0.4-1.1-0.8-1.9-0.8c-0.6,0-1,0.2-1,0.6c0,0.4,0.5,0.5,1.2,0.7
				c1.1,0.2,2.6,0.5,2.6,2.1c0,1.2-1,2.1-2.8,2.1c-1.1,0-2.2-0.4-2.9-1L955,76.5z"/>
			<path class="st8" d="M960.9,70.3c0-0.6,0.5-1,1-1c0.6,0,1,0.5,1,1s-0.5,1-1,1C961.3,71.3,960.9,70.8,960.9,70.3z M961.1,72.1h1.7
				v6.5h-1.7V72.1z"/>
			<path class="st8" d="M964.9,79c0.5,0.6,1.2,0.8,2,0.8c0.8,0,1.8-0.4,1.8-1.6v-0.7c-0.5,0.6-1.2,1-2,1c-1.6,0-2.9-1.1-2.9-3.3
				c0-2.1,1.2-3.3,2.9-3.3c0.8,0,1.5,0.3,2,1v-0.8h1.7v6c0,2.5-1.9,3.1-3.5,3.1c-1.1,0-2-0.3-2.8-1L964.9,79z M968.7,74.2
				c-0.3-0.4-0.9-0.7-1.5-0.7c-1,0-1.6,0.7-1.6,1.8s0.7,1.8,1.6,1.8c0.6,0,1.2-0.3,1.5-0.7V74.2z"/>
			<path class="st8" d="M976.4,74.6c0-0.9-0.5-1.2-1.2-1.2c-0.7,0-1.2,0.4-1.5,0.8v4.4H972v-8.9h1.7v3.3c0.4-0.5,1.2-1,2.3-1
				c1.4,0,2.1,0.8,2.1,2v4.6h-1.7V74.6z"/>
			<path class="st8" d="M980,77v-3.4h-1.1v-1.5h1.1v-1.8h1.7v1.8h1.3v1.5h-1.3v2.9c0,0.4,0.2,0.7,0.6,0.7c0.3,0,0.5-0.1,0.6-0.2
				l0.4,1.3c-0.3,0.2-0.7,0.4-1.4,0.4C980.6,78.7,980,78.1,980,77z"/>
			<path class="st8" d="M984.2,76.5c0.5,0.4,1.4,0.9,2.2,0.9c0.7,0,1.1-0.3,1.1-0.7c0-0.5-0.6-0.6-1.3-0.8c-1.1-0.2-2.5-0.5-2.5-2
				c0-1.1,1-2,2.7-2c1.1,0,2,0.4,2.6,0.9l-0.7,1.2c-0.4-0.4-1.1-0.8-1.9-0.8c-0.6,0-1,0.2-1,0.6c0,0.4,0.5,0.5,1.2,0.7
				c1.1,0.2,2.6,0.5,2.6,2.1c0,1.2-1,2.1-2.8,2.1c-1.1,0-2.2-0.4-2.9-1L984.2,76.5z"/>
		</g>
	</g>
</g>
<g>
	<path class="st9" d="M1054.7,32.6c-0.3-0.7-0.7-1.5-1.3-2.5s-1.2-1.7-1.8-2.2c-0.6-0.5-1.2-0.9-1.7-0.9c-0.9-0.1-2-0.2-3.3-0.2
		h-2.3V38h0.7h0.2c1,0,1.8-0.2,2.5-0.6c0.6-0.4,1.2-1,1.6-1.9c0.4-0.9,0.7-1.7,0.8-2.5h1.5v12h-1.5c-0.1-0.6-0.3-1.3-0.6-2.2
		c-0.3-0.9-0.6-1.4-0.9-1.7c-0.2-0.4-0.7-0.7-1.3-0.9c-0.6-0.2-1.4-0.4-2.2-0.4h-0.7v9.4c0,0.8,0.3,1.4,0.8,1.8
		c0.6,0.4,1.5,0.7,2.9,0.8v1.6h-14.3V52c1.5-0.2,2.5-0.4,3-0.8c0.4-0.3,0.7-0.9,0.7-1.7V29.4c0-0.7-0.3-1.3-0.8-1.8s-1.5-0.8-2.8-1
		V25h22.4v7.6H1054.7z"/>
	<path class="st9" d="M1070.7,51c-1.1,1.1-2.1,1.8-2.9,2.3s-1.9,0.7-3.1,0.7c-1.7,0-3.1-0.5-4.1-1.5c-1.1-1-1.6-2.6-1.6-4.8V36.6
		c0-1.2-0.7-2-2.2-2.2v-0.9h9.5v14c0,1.1,0.1,1.9,0.3,2.4c0.2,0.5,0.7,0.7,1.3,0.7c0.5,0,1-0.2,1.5-0.5c0.5-0.3,0.8-0.7,1.2-1.2
		V36.6c0-0.7-0.1-1.2-0.4-1.5c-0.3-0.3-0.7-0.6-1.2-0.7v-0.9h9v16.9c0,1.2,0.7,2,2.2,2.2v0.9h-9.5V51z"/>
	<path class="st9" d="M1094,35.4h-3.9v13.2c0,1.6,0.4,2.4,1.3,2.4c0.4,0,0.8-0.1,1.3-0.3c0.4-0.2,0.8-0.5,1.1-0.9l0.9,0.9
		c-0.8,1-1.8,1.8-2.9,2.4c-1.1,0.6-2.3,0.9-3.5,0.9c-1.8,0-3.1-0.5-4-1.5c-0.9-1-1.3-2.4-1.3-4v-13h-2.2v-1.2c1.1-0.4,2-0.9,2.7-1.3
		c0.8-0.5,1.4-1,2-1.6c0.6-0.6,1.1-1.3,1.6-2.1c0.5-0.8,1-1.7,1.4-2.8h1.7v7h3.9V35.4z"/>
	<path class="st9" d="M1108.6,51c-1.1,1.1-2.1,1.8-2.9,2.3s-1.9,0.7-3.1,0.7c-1.7,0-3.1-0.5-4.1-1.5c-1.1-1-1.6-2.6-1.6-4.8V36.6
		c0-1.2-0.7-2-2.2-2.2v-0.9h9.5v14c0,1.1,0.1,1.9,0.3,2.4c0.2,0.5,0.7,0.7,1.3,0.7c0.5,0,1-0.2,1.5-0.5c0.5-0.3,0.8-0.7,1.2-1.2
		V36.6c0-0.7-0.1-1.2-0.4-1.5c-0.3-0.3-0.7-0.6-1.2-0.7v-0.9h9v16.9c0,1.2,0.7,2,2.2,2.2v0.9h-9.5V51z"/>
	<path class="st9" d="M1118.7,53.5v-0.9c0.9-0.1,1.5-0.4,1.9-0.7c0.4-0.3,0.5-0.8,0.5-1.5V36.6c0-0.7-0.2-1.2-0.5-1.5
		c-0.4-0.3-1-0.6-1.9-0.7v-0.9h9.3v3.1h0.1c0.5-1,1.2-1.9,1.9-2.5c0.8-0.7,1.9-1.1,3-1.1c0.9,0,1.6,0.3,2.2,0.8s0.8,1.4,0.8,2.5
		c0,1-0.3,1.7-0.9,2.4c-0.6,0.6-1.3,0.9-2.2,0.9c-0.4,0-0.8-0.1-1.1-0.2c-0.3-0.1-0.6-0.3-0.9-0.6c-0.2-0.2-0.5-0.4-0.7-0.5
		c-0.2-0.1-0.5-0.2-0.8-0.2c-0.8,0-1.2,0.8-1.2,2.5v7.9c0,1.5,0.2,2.5,0.5,3.1c0.4,0.6,1.1,0.9,2.3,1.1v0.9H1118.7z"/>
	<path class="st9" d="M1143.2,42.9c0.1,1,0.2,1.9,0.5,2.8c0.3,0.9,0.7,1.7,1.2,2.3c0.5,0.7,1,1.2,1.7,1.6c0.6,0.4,1.3,0.6,2,0.6
		c1.1,0,2-0.3,2.7-0.9c0.8-0.6,1.4-1.4,2-2.4l1.2,0.5c-0.8,2.1-2,3.7-3.6,4.8c-1.6,1.2-3.5,1.7-5.8,1.7c-1.3,0-2.5-0.3-3.7-0.9
		c-1.1-0.6-2.1-1.4-3-2.4c-0.8-1-1.5-2.2-2-3.4c-0.5-1.3-0.7-2.5-0.7-3.8c0-1.3,0.2-2.6,0.7-3.8c0.5-1.3,1.1-2.4,2-3.4
		c0.8-1,1.8-1.8,3-2.4c1.1-0.6,2.4-0.9,3.7-0.9c1.6,0,3,0.3,4.2,0.8s2.1,1.3,2.9,2.2c0.8,0.9,1.3,2,1.6,3.2c0.3,1.2,0.5,2.4,0.5,3.7
		H1143.2z M1147.8,41.4c0-2.6-0.2-4.4-0.6-5.4c-0.4-1-1-1.5-1.7-1.5c-0.7,0-1.3,0.5-1.7,1.5s-0.6,2.8-0.6,5.4H1147.8z"/>
	<path class="st10" d="M1176.8,45.2c0,1.7-0.4,3.3-1.3,4.7c-0.8,1.4-2.1,2.5-3.6,3.3c-1.6,0.8-3.3,1.2-5.3,1.2
		c-2.9,0-5.4-0.7-7.6-2.2l-1.3,1.4h-1.6l-0.3-10.3h1.7c1,3,2.2,5.2,3.6,6.7c1.4,1.5,2.9,2.3,4.6,2.3c1.5,0,2.6-0.4,3.5-1.3
		c0.8-0.9,1.3-2,1.3-3.4c0-1.1-0.3-2-0.9-2.7c-0.6-0.7-1.5-1.3-2.7-1.8l-3.3-1.3c-1.8-0.7-3-1.2-3.8-1.8c-0.7-0.5-1.3-1.1-1.8-1.8
		s-0.9-1.5-1.1-2.4c-0.3-0.9-0.4-1.9-0.4-3c0-1.6,0.4-3,1.2-4.3c0.8-1.3,1.9-2.4,3.3-3.1c1.4-0.7,3-1.1,4.8-1.1
		c2.3,0,4.5,0.6,6.6,1.9l1.1-1.2h1.7l0.2,9.7h-1.7c-0.7-2.2-1.4-3.9-2-5s-1.3-2-2.1-2.6c-0.8-0.6-1.7-0.9-2.7-0.9
		c-1.2,0-2.1,0.4-2.9,1.2c-0.8,0.8-1.1,1.8-1.1,3.1c0,1.2,0.3,2.1,1,2.8c0.6,0.7,1.6,1.3,2.9,1.8l2.8,1.1c2,0.7,3.5,1.5,4.4,2.3
		s1.7,1.7,2.2,2.8C1176.5,42.4,1176.8,43.7,1176.8,45.2z"/>
	<path class="st10" d="M1197.3,47.4c-0.8,2.1-2,3.7-3.6,4.8c-1.6,1.2-3.5,1.7-5.8,1.7c-1.3,0-2.6-0.3-3.8-0.8
		c-1.2-0.5-2.2-1.3-3.1-2.2c-0.9-1-1.6-2.1-2-3.4c-0.5-1.3-0.7-2.7-0.7-4.2c0-1.3,0.2-2.6,0.7-3.9c0.5-1.3,1.1-2.4,2-3.4
		c0.9-1,2-1.8,3.2-2.4c1.3-0.6,2.7-0.9,4.3-0.9c1.3,0,2.5,0.2,3.5,0.5c1,0.3,1.8,0.8,2.4,1.3c0.6,0.5,1.1,1.1,1.4,1.8
		c0.3,0.6,0.5,1.3,0.5,1.9c0,1.1-0.3,2-0.9,2.6c-0.6,0.6-1.4,0.9-2.4,0.9c-1,0-1.7-0.3-2.3-0.9c-0.6-0.6-0.9-1.3-0.9-2.1
		c0-0.3,0-0.7,0.1-1.3c0.1-0.5,0.1-0.9,0.1-1.2c0-0.6-0.2-1.1-0.5-1.5c-0.3-0.4-0.6-0.6-1-0.6c-0.8,0-1.4,0.5-1.9,1.5
		c-0.5,1-0.7,2.7-0.7,5.1c0,2.9,0.5,5.1,1.5,6.7c1,1.6,2.4,2.4,4.2,2.4c0.8,0,1.7-0.3,2.6-0.9c0.9-0.6,1.6-1.4,2.1-2.3L1197.3,47.4z
		"/>
	<path class="st10" d="M1217.1,47.4c-0.5,1.3-1.2,2.4-2.1,3.4c-0.9,1-2,1.8-3.3,2.4c-1.3,0.6-2.8,0.9-4.4,0.9s-3.1-0.3-4.4-0.9
		c-1.3-0.6-2.4-1.4-3.3-2.4c-0.9-1-1.6-2.1-2.1-3.4c-0.5-1.3-0.7-2.5-0.7-3.9c0-1.3,0.2-2.6,0.7-3.9c0.5-1.3,1.2-2.4,2.1-3.4
		c0.9-1,2-1.8,3.3-2.4c1.3-0.6,2.8-0.9,4.4-0.9s3.1,0.3,4.4,0.9c1.3,0.6,2.4,1.4,3.3,2.4c0.9,1,1.6,2.2,2.1,3.4
		c0.5,1.3,0.7,2.5,0.7,3.9C1217.8,44.8,1217.6,46.1,1217.1,47.4z M1209.9,38.9c-0.1-1.2-0.3-2.1-0.5-2.8c-0.2-0.6-0.5-1.1-0.8-1.3
		c-0.3-0.2-0.7-0.4-1.2-0.4s-0.9,0.1-1.2,0.4c-0.3,0.2-0.6,0.7-0.8,1.3c-0.2,0.6-0.4,1.6-0.5,2.8c-0.1,1.2-0.2,2.7-0.2,4.6
		s0.1,3.4,0.2,4.6c0.1,1.2,0.3,2.1,0.5,2.8s0.5,1.1,0.8,1.4c0.3,0.2,0.7,0.4,1.2,0.4s0.9-0.1,1.2-0.4c0.3-0.2,0.6-0.7,0.8-1.4
		c0.2-0.7,0.4-1.6,0.5-2.8c0.1-1.2,0.2-2.7,0.2-4.6S1210,40.1,1209.9,38.9z"/>
	<path class="st10" d="M1231.8,35.4h-3.9v13.2c0,1.6,0.4,2.4,1.3,2.4c0.4,0,0.8-0.1,1.3-0.3c0.4-0.2,0.8-0.5,1.1-0.9l0.9,0.9
		c-0.8,1-1.8,1.8-2.9,2.4c-1.1,0.6-2.3,0.9-3.5,0.9c-1.8,0-3.1-0.5-4-1.5c-0.9-1-1.3-2.4-1.3-4v-13h-2.2v-1.2c1.1-0.4,2-0.9,2.7-1.3
		c0.8-0.5,1.4-1,2-1.6c0.6-0.6,1.1-1.3,1.6-2.1c0.5-0.8,1-1.7,1.4-2.8h1.7v7h3.9V35.4z"/>
</g>
<g class="st11">
	<path class="st12" d="M609.8,147c-2.8,0-5.2,0-7.9,0c-1.4-2.5-2.8-5.2-4.3-7.9c-1.3,1.3-2.5,2.5-3.6,3.6c-0.4,1.4-0.8,2.8-1.1,4.2
		c-2.2,0-4.1,0-6.2,0c0-9.2,0-18.3,0-27.6c2.2,0,4.5,0,6.9,0c0,4.3,0,8.6,0,12.8c0.5,0.5,0.9,0.9,1.3,1.3c1.8-2.2,3.6-4.3,5.2-6.3
		c3.1,0,5.8,0,8.4,0c-2.1,2.1-4.2,4.2-6.5,6.5C604.7,138.3,607.1,142.5,609.8,147z"/>
	<path class="st12" d="M575.8,140.9c2.1-4.6,0.9-9.1,1.3-13.6c2,0,4.1,0,6.2,0c0,6.5,0,13,0,19.6c-2,0-3.9,0-6.1,0
		c-0.1-0.8-0.2-1.8-0.3-2.9c-0.2,0.1-0.5,0-0.6,0.2c-1,0.9-1.9,1.9-2.6,2.6c-1.2,0.3-2.2,0.5-3.1,0.8c-2.5,0.8-4.5-0.3-6.2-1.8
		c-1.3-1.2-1.7-3-1.7-4.8c0-4.5,0-9,0-13.7c2.4,0,4.7,0,7.1,0c0,4.4,0,8.7,0,13.1c1,0.6,2,1.2,3.1,1.9
		C573.8,141.9,574.8,141.4,575.8,140.9z"/>
	<path class="st12" d="M532.1,127.1c3.6,0.4,7.5-0.8,11.1,0.8c0.2,0.2,0.4,0.4,0.6,0.5c2.9,2.3,4.4,5.2,3.9,9.1
		c-0.2,1.4,0,2.9,0,4.3c-5.5,5.2-3.2,5.6-16,5.2c-1.2-0.8-2.3-1.2-3.1-2c-0.7-0.7-1.2-1.6-1.7-2.4c-1.8-3.4-2.2-6.9-0.6-10.4
		c0.5-1.1,2.1-1.5,2.8-2.7C529.7,128.5,531,127.9,532.1,127.1z M539.3,142.2c0.4-0.8,0.7-1.2,0.9-1.7c1.6-4,1.1-6.7-1.8-8.6
		c-0.6-0.4-1.3-0.5-1.8-0.7c-4.8,1.2-4.1,4.9-4,8.4c0.9,1.2,1.8,2.4,2.7,3.8C536.7,142.9,538,142.6,539.3,142.2z"/>
	<path class="st12" d="M518.1,127.1c1.5,1.3,3.1,2.7,4.8,4.1c0,0.7,0,1.3,0,2.1c-2,0-3.9,0-5.4,0c-1.8-0.9-3.2-1.6-4.6-2.3
		c-2.2,0.8-4.1,1.9-4.8,4.4c-0.3,2-0.4,4.1,0.9,5.8c0.6,0.8,1.8,1.4,2.8,1.7c1.8,0.6,3.9-0.7,5.2-3.3c2.1,0.3,4.3,0.7,6.7,1.1
		c-0.5,1.1-1,2.1-1.5,3.2c-0.7,1.5-2.1,2.3-3.4,2.8c-1.9,0.6-3.9,1-5.9,1c-2.1,0-4.3-0.3-6.3-1c-1.8-0.6-3.4-1.8-4.2-3.7
		c-1.2-3-2.6-5.9-0.9-9.4c1.2-2.4,2.3-4.1,5.2-5.8c0.3-0.2,0.6-0.5,0.9-0.8C510.9,127.1,514.3,127.1,518.1,127.1z"/>
	<path class="st12" d="M491.2,139.4c0-0.9,0-1.9,0-3.2c0.6-0.5,1.3-1.2,2-1.9c1.9-0.5,2.4,1.2,3.5,1.9c0,0.9,0,1.7,0,2.5
		c-0.7,0.7-1.3,1.3-2,2C493.4,140.6,492,141.1,491.2,139.4z"/>
	<path class="st12" d="M554.5,140.8c-0.8-0.8-1.4-1.4-2.1-2.1c0-0.8,0-1.5,0-2.4c1-0.9,1.6-2.4,3.6-2c0.5,0.6,1.2,1.3,1.9,2
		c0,0.8,0,1.6,0,2.3C556.7,139.4,555.6,140.1,554.5,140.8z"/>
	<path class="st13" d="M464.8,129.6c-0.2-3.2-0.2-5.7,3.3-6.9c2.7-0.9,4.6-3.3,3.9-6.2c-0.4-1.7-2.5-4.2-3.9-4.2
		c-2.1-0.1-4.6,1.3-6.3,2.8c-2,1.7-8.1,2.6-10,0.6c-0.4-0.4-0.5-1.5-0.3-2.1c0.4-1.1,1.1-2.1,1.9-3c5.1-5.9,20.2-6.8,26.1-1.7
		c4.3,3.8,4.4,10,0.4,14.1c-0.7,0.7-1.5,1.4-2.5,2.3c0.6,0.6,1,1.4,1.6,1.7c8.5,3.3,7.1,14.5,1.8,19.3c-6.5,6-21.5,5.6-27.4-0.9
		c-1.4-1.5-2.2-3.4-3.9-6c3.8-0.6,6.7-1.3,9.6-1.4c0.8,0,1.9,1.5,2.5,2.6c1.8,3.1,4.5,4,7.8,3.3c3.1-0.7,4.9-4.3,4.4-8.4
		c-0.4-3.4-2.3-5.2-5.6-5.6C467.2,129.9,466.1,129.8,464.8,129.6z"/>
	<path class="st13" d="M419.1,111.5c2.5,0,4.8,0.2,7,0c3.2-0.3,4.9,1,5.7,4.1c1.3,4.9,2.8,9.7,4.2,14.5c0.4,1.2,0.9,2.4,1.7,4.7
		c1-2,1.7-3,2-4.1c1.6-5.3,3-10.7,4.8-16c0.5-1.4,1.9-2.4,2.9-3.6c0.3,0.2,0.6,0.5,0.9,0.7c-0.2,2-1.2,4.4-0.5,5.9
		c0.7,1.3,3.4,1.6,5.7,2.6c-1.4,3.7-2.8,7.3-4.2,11c-1.7,4.3-3.5,8.6-5.1,12.9c-1,2.8-3.3,2.7-5.6,2.5c-2.6-0.2-5.8,1.3-7.3-2.3
		c-4.1-10.3-8.1-20.7-12.2-31C419,113,419.1,112.6,419.1,111.5z"/>
</g>
<g class="st11">
	<path class="st13" d="M7.3,100.8c0-6.6,0-7.8-0.1-9.2c-0.1-1.5-0.4-2.2-1.9-2.5C5,89,4.3,88.9,3.7,88.9c-0.5,0-0.7-0.1-0.7-0.4
		c0-0.3,0.3-0.4,1-0.4c2.3,0,5.1,0.1,5.9,0.1c2.1,0,3.8-0.1,5.3-0.1c7.9,0,9.3,4.2,9.3,6.5c0,3.6-2,5.7-4.4,7.6
		c3.6,1.2,7.9,4.3,7.9,9.4c0,4.7-3.6,9.5-11.6,9.5c-0.5,0-1.8-0.1-3.1-0.1c-1.3-0.1-2.6-0.1-3.3-0.1c-0.5,0-1.4,0-2.5,0
		c-1,0-2.1,0.1-3,0.1c-0.6,0-0.9-0.1-0.9-0.4c0-0.2,0.2-0.3,0.7-0.3c0.7,0,1.2-0.1,1.6-0.2c0.9-0.2,1.1-1.1,1.3-2.4
		c0.2-1.8,0.2-5.3,0.2-9.3V100.8z M12.6,101.5c0,0.3,0.1,0.4,0.3,0.5c0.4,0.1,1,0.1,2,0.1c1.4,0,2.4-0.2,3.1-0.8
		c1.1-0.9,1.8-2.5,1.8-4.6c0-2.9-1.7-6.8-5.4-6.8c-0.6,0-1,0-1.4,0.1c-0.3,0.1-0.4,0.3-0.4,0.7V101.5z M18.3,105
		c-0.9-0.7-1.9-1-3.6-1c-0.8,0-1.2,0-1.9,0c-0.2,0-0.3,0.1-0.3,0.3v10.3c0,2.9,0.1,3.6,1.5,4.2c1.2,0.5,2.2,0.5,3.2,0.5
		c2,0,5.3-1,5.3-5.6C22.5,111,21.6,107.3,18.3,105z"/>
	<path class="st13" d="M33.8,103.8c0-5.6,0-6.7,0-7.8c-0.1-1.3-0.4-1.7-1.7-2c-0.3-0.1-1-0.1-1.5-0.1c-0.4,0-0.7-0.1-0.7-0.4
		c0-0.3,0.3-0.3,0.8-0.3c2,0,4.6,0.1,5.8,0.1c1,0,3.5-0.1,4.9-0.1c0.6,0,0.8,0.1,0.8,0.3c0,0.3-0.2,0.4-0.6,0.4
		c-0.4,0-0.7,0-1.1,0.1c-1,0.2-1.3,0.7-1.4,2c-0.1,1.2-0.1,2.2-0.1,7.8v5.2c0,5.4,1,7.5,2.9,9c1.7,1.4,3.5,1.5,4.8,1.5
		c1.7,0,3.6-0.5,5.1-2c2.1-2,2.2-5.2,2.2-9v-4.7c0-5.6,0-6.7-0.1-7.8c-0.1-1.3-0.4-1.7-1.6-2c-0.3-0.1-1-0.1-1.4-0.1
		c-0.4,0-0.7-0.1-0.7-0.4c0-0.3,0.3-0.3,0.8-0.3c2,0,4.5,0.1,4.6,0.1c0.4,0,3-0.1,4.5-0.1c0.5,0,0.8,0.1,0.8,0.3
		c0,0.3-0.2,0.4-0.7,0.4c-0.4,0-0.7,0-1.1,0.1c-1,0.2-1.3,0.7-1.4,2c0,1.2-0.1,2.2-0.1,7.8v4c0,4.1-0.4,8.5-3.7,11.2
		c-2.7,2.3-5.6,2.7-8.1,2.7c-2,0-6-0.1-8.8-2.5c-2-1.7-3.5-4.4-3.5-9.8V103.8z"/>
	<path class="st13" d="M64.6,120.6c-0.6-0.3-0.7-0.4-0.7-1.3c0-2,0.2-4.3,0.2-4.9c0-0.6,0.2-1,0.5-1c0.3,0,0.4,0.3,0.4,0.6
		c0,0.5,0.1,1.3,0.3,1.9c0.8,2.7,3.7,3.7,6.1,3.7c3.3,0,5.3-2.1,5.3-4.7c0-1.6-0.4-3.2-3.8-5.2l-2.2-1.3c-4.5-2.7-6-5.1-6-8.4
		c0-4.5,4.4-7.5,9.7-7.5c2.5,0,4.4,0.3,5.4,0.6c0.3,0.1,0.5,0.2,0.5,0.5c0,0.5-0.1,1.5-0.1,4.4c0,0.8-0.2,1.2-0.5,1.2
		c-0.3,0-0.4-0.2-0.4-0.7c0-0.3-0.2-1.5-1-2.4c-0.6-0.7-1.8-1.7-4.3-1.7c-2.7,0-5.2,1.4-5.2,4c0,1.7,0.6,3,4.1,4.9l1.6,0.9
		c5.1,2.8,6.6,5.6,6.6,9c0,2.7-1,5-3.8,6.9c-1.8,1.3-4.4,1.5-6.4,1.5C68.7,121.6,66.3,121.4,64.6,120.6z"/>
	<path class="st13" d="M87.6,103.8c0-5.6,0-6.7,0-7.8c-0.1-1.3-0.5-1.7-1.3-2c-0.4-0.1-0.9-0.2-1.4-0.2c-0.4,0-0.6-0.1-0.6-0.4
		c0-0.2,0.3-0.3,0.9-0.3c1.4,0,4.1,0.1,5.1,0.1c1,0,3.4-0.1,4.9-0.1c0.5,0,0.8,0.1,0.8,0.3c0,0.3-0.2,0.4-0.6,0.4
		c-0.4,0-0.7,0-1.1,0.1c-1,0.2-1.4,0.7-1.4,2c-0.1,1.2-0.1,2.2-0.1,7.8v6.5c0,3.6,0,6.5,0.2,8.1c0.1,1,0.4,1.6,1.5,1.7
		c0.5,0.1,1.4,0.1,2,0.1c0.4,0,0.6,0.2,0.6,0.4c0,0.3-0.3,0.4-0.7,0.4c-2.5,0-5.1-0.1-6.2-0.1c-0.9,0-3.5,0.1-5,0.1
		c-0.5,0-0.7-0.1-0.7-0.4c0-0.2,0.1-0.4,0.6-0.4c0.6,0,1,0,1.4-0.1c0.8-0.2,1-0.7,1.1-1.8c0.2-1.5,0.2-4.5,0.2-8.1V103.8z"/>
	<path class="st13" d="M105.9,116.1c0.1,2.9,0.6,3.7,1.3,4c0.7,0.2,1.4,0.3,2,0.3c0.4,0,0.7,0.2,0.7,0.4c0,0.3-0.3,0.4-0.9,0.4
		c-2.5,0-4.3-0.1-5-0.1c-0.3,0-2.2,0.1-4.1,0.1c-0.5,0-0.9,0-0.9-0.4c0-0.2,0.3-0.4,0.6-0.4c0.5,0,1.2,0,1.7-0.2
		c1-0.3,1.1-1.3,1.2-4.5l0.3-22c0-0.7,0.3-1.3,0.7-1.3c0.5,0,1,0.6,1.7,1.2c0.5,0.5,6.2,6.4,11.8,11.8c2.6,2.6,7.7,7.8,8.3,8.3h0.2
		l-0.4-16.5c0-2.3-0.4-2.9-1.3-3.3c-0.6-0.2-1.5-0.2-2-0.2c-0.5,0-0.6-0.2-0.6-0.4c0-0.3,0.4-0.3,1-0.3c2,0,4.1,0.1,4.9,0.1
		c0.4,0,1.9-0.1,3.7-0.1c0.5,0,0.9,0,0.9,0.3c0,0.2-0.2,0.4-0.7,0.4c-0.4,0-0.7,0-1.2,0.1c-1,0.3-1.4,1-1.4,3.1l-0.4,23.4
		c0,0.8-0.3,1.2-0.6,1.2c-0.7,0-1.2-0.4-1.6-0.8c-2.4-2.2-7.2-6.8-11.2-10.7c-4.2-4-8.2-8.5-9-9.2h-0.1L105.9,116.1z"/>
	<path class="st13" d="M138.3,103.8c0-5.6,0-6.7,0-7.8c-0.1-1.3-0.4-1.7-1.7-2c-0.3-0.1-1-0.1-1.5-0.1c-0.4,0-0.7-0.1-0.7-0.4
		c0-0.3,0.3-0.3,0.9-0.3c2,0,4.4,0.1,5.5,0.1c1.2,0,9.7,0,10.5,0c0.7,0,1.3-0.2,1.6-0.2c0.2,0,0.4-0.2,0.6-0.2
		c0.2,0,0.3,0.2,0.3,0.3c0,0.3-0.2,0.7-0.3,2.4c0,0.4-0.1,2-0.2,2.4c0,0.2-0.1,0.6-0.4,0.6c-0.3,0-0.3-0.2-0.3-0.5
		c0-0.3,0-0.9-0.3-1.4c-0.3-0.7-0.6-1.2-2.5-1.4c-0.7-0.1-5.2-0.2-6-0.2c-0.2,0-0.3,0.1-0.3,0.3v9.2c0,0.2,0,0.4,0.3,0.4
		c0.9,0,5.8,0,6.7-0.1c0.9-0.1,1.5-0.2,1.8-0.6c0.3-0.3,0.4-0.5,0.6-0.5c0.2,0,0.3,0.2,0.3,0.4c0,0.2-0.1,0.8-0.3,2.7
		c-0.1,0.7-0.2,2.2-0.2,2.5c0,0.3,0,0.8-0.4,0.8c-0.3,0-0.3-0.1-0.3-0.3c0-0.4,0-0.9-0.1-1.4c-0.2-0.7-0.7-1.3-2.1-1.4
		c-0.7-0.1-5.1-0.2-6-0.2c-0.2,0-0.2,0.2-0.2,0.4v3c0,1.3,0,4.4,0,5.5c0.1,2.5,1.3,3.1,5.2,3.1c1,0,2.6,0,3.6-0.5
		c1-0.4,1.4-1.2,1.7-2.7c0.1-0.4,0.2-0.6,0.4-0.6c0.3,0,0.3,0.5,0.3,0.9c0,0.8-0.3,3.4-0.5,4.1c-0.3,1-0.6,1-2,1
		c-2.9,0-5.2,0-7.1-0.1c-1.9,0-3.3-0.1-4.4-0.1c-0.4,0-1.3,0-2.2,0c-0.9,0-1.9,0.1-2.7,0.1c-0.5,0-0.7-0.1-0.7-0.4
		c0-0.2,0.1-0.4,0.6-0.4c0.6,0,1,0,1.4-0.1c0.8-0.2,1-0.9,1.1-2c0.2-1.6,0.2-4.5,0.2-7.9V103.8z"/>
	<path class="st13" d="M159.5,120.6c-0.6-0.3-0.7-0.4-0.7-1.3c0-2,0.2-4.3,0.2-4.9c0-0.6,0.2-1,0.5-1c0.3,0,0.4,0.3,0.4,0.6
		c0,0.5,0.1,1.3,0.3,1.9c0.8,2.7,3.7,3.7,6.1,3.7c3.3,0,5.3-2.1,5.3-4.7c0-1.6-0.4-3.2-3.8-5.2l-2.2-1.3c-4.5-2.7-6-5.1-6-8.4
		c0-4.5,4.4-7.5,9.7-7.5c2.5,0,4.4,0.3,5.4,0.6c0.3,0.1,0.5,0.2,0.5,0.5c0,0.5-0.1,1.5-0.1,4.4c0,0.8-0.2,1.2-0.5,1.2
		c-0.3,0-0.4-0.2-0.4-0.7c0-0.3-0.2-1.5-1-2.4c-0.6-0.7-1.8-1.7-4.3-1.7c-2.7,0-5.2,1.4-5.2,4c0,1.7,0.6,3,4.1,4.9l1.6,0.9
		c5.1,2.8,6.6,5.6,6.6,9c0,2.7-1,5-3.8,6.9c-1.8,1.3-4.4,1.5-6.4,1.5C163.5,121.6,161.2,121.4,159.5,120.6z"/>
	<path class="st13" d="M181.2,120.6c-0.6-0.3-0.7-0.4-0.7-1.3c0-2,0.2-4.3,0.2-4.9c0-0.6,0.2-1,0.5-1c0.3,0,0.4,0.3,0.4,0.6
		c0,0.5,0.1,1.3,0.3,1.9c0.8,2.7,3.7,3.7,6.1,3.7c3.3,0,5.3-2.1,5.3-4.7c0-1.6-0.4-3.2-3.8-5.2l-2.2-1.3c-4.5-2.7-6-5.1-6-8.4
		c0-4.5,4.4-7.5,9.7-7.5c2.5,0,4.4,0.3,5.4,0.6c0.3,0.1,0.5,0.2,0.5,0.5c0,0.5-0.1,1.5-0.1,4.4c0,0.8-0.2,1.2-0.5,1.2
		c-0.3,0-0.4-0.2-0.4-0.7c0-0.3-0.2-1.5-1-2.4c-0.6-0.7-1.8-1.7-4.3-1.7c-2.7,0-5.2,1.4-5.2,4c0,1.7,0.6,3,4.1,4.9l1.6,0.9
		c5.1,2.8,6.6,5.6,6.6,9c0,2.7-1,5-3.8,6.9c-1.8,1.3-4.4,1.5-6.4,1.5C185.2,121.6,182.9,121.4,181.2,120.6z"/>
	<path class="st13" d="M9.1,147.4c0-6.6,0-7.8-0.1-9.2c-0.1-1.5-0.5-2.2-1.5-2.4c-0.5-0.1-1-0.2-1.6-0.2c-0.4,0-0.7-0.1-0.7-0.4
		c0-0.3,0.3-0.3,1-0.3c1.7,0,4.4,0.1,5.7,0.1c1.1,0,3.7-0.1,5.3-0.1c0.6,0,0.9,0.1,0.9,0.3c0,0.3-0.3,0.4-0.7,0.4
		c-0.4,0-0.8,0-1.3,0.1c-1.2,0.2-1.5,1-1.6,2.5c-0.1,1.4-0.1,2.6-0.1,9.2v7.7c0,4.2,0,7.7,0.2,9.5c0.1,1.2,0.4,2,1.7,2.1
		c0.6,0.1,1.6,0.2,2.2,0.2c0.5,0,0.7,0.1,0.7,0.3c0,0.3-0.3,0.4-0.8,0.4c-2.9,0-5.6-0.1-6.8-0.1c-1,0-3.7,0.1-5.5,0.1
		c-0.6,0-0.9-0.1-0.9-0.4c0-0.2,0.2-0.3,0.7-0.3c0.7,0,1.2-0.1,1.6-0.2c0.9-0.2,1.1-0.9,1.3-2.2c0.2-1.8,0.2-5.3,0.2-9.5V147.4z"/>
	<path class="st13" d="M31.3,162.6c0.1,2.9,0.6,3.7,1.3,4c0.7,0.2,1.4,0.3,2,0.3c0.4,0,0.7,0.2,0.7,0.4c0,0.3-0.3,0.4-0.9,0.4
		c-2.5,0-4.3-0.1-5-0.1c-0.3,0-2.2,0.1-4.1,0.1c-0.5,0-0.9,0-0.9-0.4c0-0.2,0.3-0.4,0.6-0.4c0.5,0,1.2,0,1.7-0.2
		c1-0.3,1.1-1.3,1.2-4.5l0.3-22c0-0.7,0.3-1.3,0.7-1.3c0.5,0,1,0.6,1.7,1.2c0.5,0.5,6.2,6.4,11.8,11.8c2.6,2.6,7.7,7.8,8.3,8.3h0.2
		l-0.4-16.5c0-2.3-0.4-2.9-1.3-3.3c-0.6-0.2-1.5-0.2-2-0.2c-0.5,0-0.6-0.2-0.6-0.4c0-0.3,0.4-0.3,1-0.3c2,0,4.1,0.1,4.9,0.1
		c0.4,0,1.9-0.1,3.7-0.1c0.5,0,0.9,0,0.9,0.3c0,0.2-0.2,0.4-0.7,0.4c-0.4,0-0.7,0-1.2,0.1c-1,0.3-1.4,1-1.4,3.1l-0.4,23.4
		c0,0.8-0.3,1.2-0.6,1.2c-0.7,0-1.2-0.4-1.6-0.8c-2.4-2.2-7.2-6.8-11.2-10.7c-4.2-4-8.2-8.5-9-9.2h-0.1L31.3,162.6z"/>
	<path class="st13" d="M65.3,167.2c-0.6-0.3-0.7-0.4-0.7-1.3c0-2,0.2-4.3,0.2-4.9c0-0.6,0.2-1,0.5-1c0.3,0,0.4,0.3,0.4,0.6
		c0,0.5,0.1,1.3,0.3,1.9c0.8,2.7,3.7,3.7,6.1,3.7c3.3,0,5.3-2.1,5.3-4.7c0-1.6-0.4-3.2-3.8-5.2l-2.2-1.3c-4.5-2.7-6-5.1-6-8.4
		c0-4.5,4.4-7.5,9.7-7.5c2.5,0,4.4,0.3,5.4,0.6c0.3,0.1,0.5,0.2,0.5,0.5c0,0.5-0.1,1.5-0.1,4.4c0,0.8-0.2,1.2-0.5,1.2
		c-0.3,0-0.4-0.2-0.4-0.7c0-0.3-0.2-1.5-1-2.4c-0.6-0.7-1.8-1.7-4.3-1.7c-2.7,0-5.2,1.4-5.2,4c0,1.7,0.6,3,4.1,4.9l1.6,0.9
		c5.1,2.8,6.6,5.6,6.6,9c0,2.7-1,5-3.8,6.9c-1.8,1.3-4.4,1.5-6.4,1.5C69.3,168.2,67,167.9,65.3,167.2z"/>
	<path class="st13" d="M91.9,150.4c0-5.6,0-6.7,0-7.8c-0.1-1.3-0.5-1.7-1.3-2c-0.4-0.1-0.9-0.2-1.4-0.2c-0.4,0-0.6-0.1-0.6-0.4
		c0-0.2,0.3-0.3,0.9-0.3c1.4,0,4.1,0.1,5.1,0.1c1,0,3.4-0.1,4.9-0.1c0.5,0,0.8,0.1,0.8,0.3c0,0.3-0.2,0.4-0.6,0.4s-0.7,0-1.1,0.1
		c-1,0.2-1.4,0.7-1.4,2c-0.1,1.2-0.1,2.2-0.1,7.8v6.5c0,3.6,0,6.5,0.2,8.1c0.1,1,0.4,1.6,1.5,1.7c0.5,0.1,1.4,0.1,2,0.1
		c0.4,0,0.6,0.2,0.6,0.4c0,0.3-0.3,0.4-0.7,0.4c-2.5,0-5.1-0.1-6.2-0.1c-0.9,0-3.5,0.1-5,0.1c-0.5,0-0.7-0.1-0.7-0.4
		c0-0.2,0.1-0.4,0.6-0.4c0.6,0,1,0,1.4-0.1c0.8-0.2,1-0.7,1.1-1.8c0.2-1.5,0.2-4.5,0.2-8.1V150.4z"/>
	<path class="st13" d="M111.5,150.4c0-5.6,0-6.7,0-7.8c-0.1-1.3-0.4-1.7-1.7-2c-0.3-0.1-1-0.1-1.5-0.1c-0.4,0-0.7-0.1-0.7-0.4
		c0-0.3,0.3-0.3,0.9-0.3c2,0,4.4,0.1,5.5,0.1c1.2,0,3.9-0.1,6.2-0.1c4.8,0,11.2,0,15.4,4.2c1.9,1.9,3.6,5,3.6,9.4
		c0,4.7-2,8.2-4.2,10.3c-1.7,1.7-5.8,4.4-12.9,4.4c-1.4,0-3.1-0.1-4.6-0.2c-1.5-0.1-2.9-0.2-3.9-0.2c-0.4,0-1.3,0-2.2,0
		c-0.9,0-1.9,0.1-2.7,0.1c-0.5,0-0.7-0.1-0.7-0.4c0-0.2,0.1-0.4,0.6-0.4c0.6,0,1,0,1.4-0.1c0.8-0.2,1-0.9,1.1-2
		c0.2-1.6,0.2-4.5,0.2-7.9V150.4z M116.6,154.5c0,3.9,0,6.8,0.1,7.5c0,0.9,0.1,2.2,0.4,2.6c0.5,0.7,2,1.5,5,1.5
		c3.5,0,6.1-0.6,8.4-2.5c2.5-2,3.3-5.4,3.3-9.2c0-4.7-1.9-7.8-3.6-9.2c-3.5-3.1-7.7-3.5-10.7-3.5c-0.8,0-2,0.1-2.4,0.3
		c-0.3,0.1-0.5,0.3-0.5,0.7c0,1.3,0,4.3,0,7.2V154.5z"/>
	<path class="st13" d="M149.1,150.4c0-5.6,0-6.7,0-7.8c-0.1-1.3-0.4-1.7-1.7-2c-0.3-0.1-1-0.1-1.5-0.1c-0.4,0-0.7-0.1-0.7-0.4
		c0-0.3,0.3-0.3,0.9-0.3c2,0,4.4,0.1,5.5,0.1c1.2,0,9.7,0,10.5,0c0.7,0,1.3-0.2,1.6-0.2c0.2,0,0.4-0.2,0.6-0.2
		c0.2,0,0.3,0.2,0.3,0.3c0,0.3-0.2,0.7-0.3,2.4c0,0.4-0.1,2-0.2,2.4c0,0.2-0.1,0.6-0.4,0.6c-0.3,0-0.3-0.2-0.3-0.5
		c0-0.3,0-0.9-0.3-1.4c-0.3-0.7-0.6-1.2-2.5-1.4c-0.7-0.1-5.2-0.2-6-0.2c-0.2,0-0.3,0.1-0.3,0.3v9.2c0,0.2,0,0.4,0.3,0.4
		c0.9,0,5.8,0,6.7-0.1c0.9-0.1,1.5-0.2,1.8-0.6c0.3-0.3,0.4-0.5,0.6-0.5c0.2,0,0.3,0.2,0.3,0.4c0,0.2-0.1,0.8-0.3,2.7
		c-0.1,0.7-0.2,2.2-0.2,2.5c0,0.3,0,0.8-0.4,0.8c-0.3,0-0.3-0.1-0.3-0.3c0-0.4,0-0.9-0.1-1.4c-0.2-0.7-0.7-1.3-2.1-1.4
		c-0.7-0.1-5.1-0.2-6-0.2c-0.2,0-0.2,0.2-0.2,0.4v3c0,1.3,0,4.4,0,5.5c0.1,2.5,1.3,3.1,5.2,3.1c1,0,2.6,0,3.6-0.5
		c1-0.4,1.4-1.2,1.7-2.7c0.1-0.4,0.2-0.6,0.4-0.6c0.3,0,0.3,0.5,0.3,0.9c0,0.8-0.3,3.4-0.5,4.1c-0.3,1-0.6,1-2,1
		c-2.9,0-5.2,0-7.1-0.1c-1.9,0-3.3-0.1-4.4-0.1c-0.4,0-1.3,0-2.2,0c-0.9,0-1.9,0.1-2.7,0.1c-0.5,0-0.7-0.1-0.7-0.4
		c0-0.2,0.1-0.4,0.6-0.4c0.6,0,1,0,1.4-0.1c0.8-0.2,1-0.9,1.1-2c0.2-1.6,0.2-4.5,0.2-7.9V150.4z"/>
	<path class="st13" d="M175.2,150.4c0-5.6,0-6.7,0-7.8c-0.1-1.3-0.4-1.7-1.7-2c-0.3-0.1-1-0.1-1.5-0.1c-0.4,0-0.7-0.1-0.7-0.4
		c0-0.3,0.3-0.3,0.9-0.3c2,0,4.4,0.1,5.2,0.1c1.3,0,4.8-0.1,6-0.1c2.4,0,5.2,0.2,7.3,1.6c1.1,0.7,2.7,2.6,2.7,5.1
		c0,2.7-1.6,5.2-5.3,8.2c3.4,4.2,6.1,7.5,8.4,9.9c2.1,2.1,3.5,2.3,4.1,2.4c0.4,0.1,0.6,0.1,0.9,0.1c0.3,0,0.5,0.2,0.5,0.4
		c0,0.3-0.3,0.4-0.7,0.4h-3.7c-2.1,0-3.2-0.2-4.2-0.7c-1.7-0.8-3.1-2.6-5.2-5.4c-1.5-2-3.1-4.5-3.6-5.1c-0.2-0.2-0.4-0.3-0.7-0.3
		l-3.4-0.1c-0.2,0-0.3,0.1-0.3,0.3v0.5c0,3.4,0,6.3,0.2,7.9c0.1,1.1,0.3,1.8,1.5,2c0.6,0.1,1.4,0.1,1.9,0.1c0.3,0,0.5,0.2,0.5,0.4
		c0,0.3-0.3,0.4-0.8,0.4c-2.2,0-5.4-0.1-6-0.1c-0.7,0-3.2,0.1-4.7,0.1c-0.5,0-0.7-0.1-0.7-0.4c0-0.2,0.1-0.4,0.6-0.4
		c0.6,0,1,0,1.4-0.1c0.8-0.2,1-0.9,1.1-2c0.2-1.6,0.2-4.5,0.2-7.9V150.4z M180,153.2c0,0.4,0.1,0.5,0.3,0.7c0.8,0.3,2,0.3,2.9,0.3
		c1.5,0,2-0.1,2.7-0.6c1.2-0.8,2.5-2.4,2.5-5.5c0-5.2-3.6-6.6-5.8-6.6c-1,0-1.9,0-2.3,0.1c-0.3,0.1-0.3,0.2-0.3,0.5V153.2z"/>
</g>
<g class="st11">
	<g>
		<path class="st13" d="M283.6,124.5v12.4h-4.5v-12.4h-4.6v-3.9h13.7v3.9H283.6z"/>
		<path class="st13" d="M298.8,132h-7.2c0.1,1.4,0.9,2,2.1,2c1.1,0,2-0.2,3.2-0.9l1.6,2.7c-1.5,0.9-3.1,1.4-5,1.4
			c-3.7,0-5.7-2.6-5.7-6.4c0-4.2,2.4-6.4,5.6-6.4c3.4,0,5.5,2.2,5.5,6.8C298.8,131.5,298.8,131.8,298.8,132z M293.2,127.5
			c-1,0-1.5,0.7-1.6,1.9h3.5C294.9,128.1,294.5,127.5,293.2,127.5z"/>
		<path class="st13" d="M306.6,137.2c-3.6,0-5.7-2.3-5.7-6.4c0-3.8,1.9-6.3,5.8-6.3c2.3,0,3.6,1.1,4.7,2.8l-2.9,2.2
			c-0.6-1.1-1-1.6-1.9-1.6c-1.1,0-1.6,1.1-1.6,3c0,1.9,0.6,2.9,1.7,2.9c0.8,0,1.4-0.4,2.1-1.6l2.7,2.1
			C310.1,136.3,308.7,137.2,306.6,137.2z"/>
		<path class="st13" d="M320.9,136.9V130c0-1.6-0.5-2-1.4-2c-0.9,0-1.4,0.4-1.4,2v7h-4.2v-15.3l4.2-1.7v5.6c0.8-0.6,1.6-1.1,3.1-1.1
			c2.7,0,4,1.8,4,5v7.5H320.9z"/>
		<path d="M335.1,137.2c-4.8,0-7.4-3.6-7.4-8.4c0-5.2,3.1-8.4,7.5-8.4c4,0,5.6,1.7,6.7,4.8l-4.1,1.6c-0.6-1.5-1.1-2.5-2.6-2.5
			c-1.9,0-2.7,1.9-2.7,4.5c0,2.5,0.8,4.5,2.8,4.5c1.4,0,2-0.8,2.9-2.3l3.8,2C340.8,135.1,339,137.2,335.1,137.2z"/>
		<path d="M352.3,129.3c-0.5-0.6-1.1-1-2-1c-1,0-1.7,0.5-1.7,2v6.7h-4.2v-12.2h4.2v0.9c0.7-0.7,1.5-1.1,2.6-1.1c0.9,0,1.5,0.2,2,0.5
			L352.3,129.3z"/>
		<path d="M362.2,136.9v-0.8c-0.7,0.6-1.6,1.1-3.1,1.1c-2.7,0-4-1.8-4-5v-7.5h4.2v6.9c0,1.6,0.5,2,1.4,2s1.4-0.4,1.4-2v-7h4.2v12.2
			H362.2z"/>
		<path d="M376.5,136.9V130c0-1.6-0.5-2-1.4-2c-0.9,0-1.4,0.4-1.4,2v7h-4.2v-12.2h4.2v0.8c0.8-0.6,1.6-1.1,3.1-1.1c2.7,0,4,1.8,4,5
			v7.5H376.5z"/>
		<path d="M388.9,137.2c-3.6,0-5.7-2.3-5.7-6.4c0-3.8,1.9-6.3,5.8-6.3c2.3,0,3.6,1.1,4.7,2.8l-2.9,2.2c-0.6-1.1-1-1.6-1.9-1.6
			c-1.1,0-1.6,1.1-1.6,3c0,1.9,0.6,2.9,1.7,2.9c0.8,0,1.4-0.4,2.1-1.6l2.7,2.1C392.4,136.3,391.1,137.2,388.9,137.2z"/>
		<path d="M403.2,136.9V130c0-1.6-0.5-2-1.4-2c-0.9,0-1.4,0.4-1.4,2v7h-4.2v-15.3l4.2-1.7v5.6c0.8-0.6,1.6-1.1,3.1-1.1
			c2.7,0,4,1.8,4,5v7.5H403.2z"/>
	</g>
	<g>
		<polygon class="st13" points="209,114 209,123 218,123 218,142 228,142 228,123 237,123 237,114 		"/>
		<polygon class="st13" points="246,133 246,123 237,123 237,142 264,142 264,133 		"/>
		<rect x="246" y="114" class="st13" width="18" height="9"/>
	</g>
</g>
<g class="st11">
	<path class="st4" d="M647.4,124.5c-1.7,0.7-2.7,2.5-3.1,4.3c3.2,0,6.5,0,9.7,0c-0.2-1-0.4-2-1.1-2.9
		C651.7,124.1,649.3,123.6,647.4,124.5z"/>
	<path class="st4" d="M735.7,135.9c-0.3,1.2,0.4,2.6,1.7,2.9c1.7,0.5,3.9,0.3,5.1-1.2c1.1-1.5,1.1-3.5,1.1-5.4
		c-2,0.9-4.2,0.8-6.1,1.6C736.7,134.3,735.9,135,735.7,135.9z"/>
	<path class="st4" d="M786.4,138.7c1.7,0.6,4.1,0.4,5.3-1.1c1.1-1.5,1.1-3.5,1.1-5.4c-2.2,1-4.9,0.7-6.9,2.1
		C784.4,135.4,784.6,138.1,786.4,138.7z"/>
	<path class="st4" d="M763.4,125.1c-1,0.3-1.8,0.9-2.4,1.8c-1.1,1.7-1.2,3.8-1,5.8c0.2,1.5,0.7,3.2,1.9,4.2c1.7,1.6,4.7,1.3,6.1-0.5
		c1-1.3,1.2-3.1,1.3-4.7c0-1.8-0.3-3.8-1.4-5.3C766.8,125.1,764.9,124.6,763.4,125.1z"/>
	<path class="st14" d="M633.1,137.1c-1-0.5-1-1.7-1-2.7c0-3.3,0-6.6,0-9.9c1.6,0,3.2,0,4.8,0c0-1.7,0-3.4,0-5.1c-1.6,0-3.2,0-4.8,0
		c0-2.3,0-4.6,0-6.9c-2.6,0-5.1,0-7.7,0c0,2.3,0,4.6,0,6.9c-1.3,0-2.6,0-3.9,0c0,1.7,0,3.4,0,5.1c1.3,0,2.6,0,4,0c0,4,0,8.1,0,12.1
		c0.1,2.1,0.6,4.7,2.7,5.8c3.1,1.4,6.5,0.8,9.8,0.7c0-1.9,0-3.9,0-5.8C635.6,137.4,634.3,137.7,633.1,137.1z"/>
	<path class="st14" d="M702,118.8c-2.9,0-5.9,1.4-7.3,3.9c0.1-3.4,0-6.8,0-10.2c-2.6,0-5.2,0-7.7,0c0,6.9,0,13.7-0.1,20.6
		c0,0.3-0.1,0.6-0.3,0.8c-2.4-0.3-4.8-0.1-7.2-0.1c-0.3,1.2-0.7,2.5-1.8,3.2c-1.6,1.1-4.1,1.1-5.5-0.4c-1.4-1.3-1.7-3.3-1.8-5.1
		c0-1.7,0.2-3.6,1.2-5c1.5-2.1,4.9-2.4,6.7-0.5c0.6,0.6,0.7,1.4,0.9,2.1c2.5,0,5,0,7.6,0c-0.2-1.9-0.8-3.8-2.1-5.3
		c-1.8-2.3-4.6-3.5-7.4-3.9c-2.4-0.3-5-0.2-7.3,0.7c-2.2,0.8-4.1,2.4-5.3,4.4c-1.9,3-2.4,6.6-1.8,10.1c0.6,3.5,2.9,6.7,6.1,8.3
		c5,2.4,11.6,1.7,15.5-2.4c0.2-0.3,0.3-0.7,0.6-1c1.1-1.2,1.1-2.9,1.9-4.2c0.1,2.8,0,5.6,0,8.3c2.6,0,5.2,0,7.7,0
		c0-4.1,0-8.2,0-12.2c0-1.5,0.2-3,1.1-4.2c1.2-1.6,3.8-1.8,5.4-0.8c1.3,0.9,1.4,2.7,1.5,4.1c0,4.4,0,8.8,0,13.2c2.6,0,5.1,0,7.7,0
		c0-5.4,0-10.7,0-16.1c-0.1-2.2-0.6-4.6-2.3-6.2C706.6,119.2,704.2,118.8,702,118.8z"/>
	<path class="st14" d="M656.9,121c-5.1-3.5-12.8-2.8-17,1.7c-2.2,2.2-3.4,5.4-3.3,8.5c-0.1,2.9,0.7,5.9,2.6,8.2
		c1.9,2.4,4.9,3.8,7.9,4.2c3.4,0.4,7,0.1,10-1.7c2.2-1.3,3.8-3.5,4.4-6c-2.4,0-4.8,0-7.3,0c-1.5,3-6.1,3.4-8.4,1.1
		c-1-1-1.3-2.5-1.5-3.8c5.8,0,11.7,0,17.5,0C662,128.6,660.7,123.7,656.9,121z M644.3,128.8c0.3-1.8,1.3-3.6,3.1-4.3
		c1.9-0.8,4.4-0.3,5.6,1.4c0.6,0.8,0.9,1.9,1.1,2.9C650.8,128.8,647.6,128.8,644.3,128.8z"/>
	<path class="st6" d="M769,122.2c-3.1-4.4-10.3-4.3-13.8-0.4c-2.3,2.5-3.2,6-3.1,9.3c0,3.6,0.9,7.3,3.4,10c2,2.1,4.9,3.1,7.8,2.9
		c2.4,0,4.7-1.4,6.1-3.3c0,0.9,0,1.8,0,2.7c2.5,0,4.9,0,7.4,0c0-10.3,0-20.6,0-30.9c-2.6,0-5.1,0-7.7,0
		C769,115.6,769,118.9,769,122.2z M768,136.4c-1.4,1.8-4.4,2.1-6.1,0.5c-1.2-1.1-1.7-2.7-1.9-4.2c-0.2-2-0.1-4.1,1-5.8
		c0.5-0.9,1.4-1.5,2.4-1.8c1.6-0.5,3.5,0,4.5,1.3c1.2,1.5,1.4,3.4,1.4,5.3C769.2,133.3,769,135.1,768,136.4z"/>
	<path class="st6" d="M728.3,119.2c-1.7-0.3-3.5-0.2-5.2,0.4c-1.8,0.7-3.1,2.2-3.9,3.9c0-1.3,0-2.6,0-4c-2.5,0-5,0-7.6,0
		c0,7.9,0,15.8,0,23.6c2.6,0,5.1,0,7.7,0c0-3.9,0-7.7,0-11.6c0-1.9,0.9-3.8,2.6-4.8c1.9-1.2,4.2-1,6.3-0.4
		C728.3,124,728.3,121.6,728.3,119.2z"/>
	<path class="st6" d="M751.1,125.9c-0.1-1.7-0.8-3.3-2-4.5c-2-1.8-4.8-2.3-7.4-2.4c-3.3-0.1-6.9,0.1-9.8,2c-2,1.3-3,3.6-3.1,6
		c2.4,0,4.9,0,7.3,0c0.3-1.2,1.1-2.3,2.3-2.7c1.6-0.4,3.5-0.3,4.7,0.9c1,1,0.6,3-0.8,3.3c-3.7,1-7.7,0.7-11.1,2.5
		c-1.6,0.8-2.8,2.4-3.1,4.2c-0.3,2-0.2,4.3,1.1,6c1.2,1.7,3.2,2.6,5.2,2.8c3.3,0.4,6.9-0.3,9.4-2.7c0.2,0.7,0,1.6,0.5,2.1
		c2.6,0.1,5.2,0,7.8,0c-0.5-1.2-0.8-2.5-0.8-3.9C751,134.9,751.2,130.4,751.1,125.9z M742.5,137.7c-1.2,1.4-3.4,1.7-5.1,1.2
		c-1.2-0.3-1.9-1.7-1.7-2.9c0.1-0.9,0.9-1.6,1.8-2c2-0.8,4.2-0.8,6.1-1.6C743.6,134.1,743.6,136.1,742.5,137.7z"/>
	<path class="st6" d="M800.3,125.9c-0.1-1.5-0.6-3-1.7-4.2c-1.9-2-4.8-2.5-7.4-2.7c-3.4-0.1-7.1,0-10.1,2c-2,1.3-3.1,3.6-3.1,6
		c2.4,0,4.9,0,7.3,0c0.3-1.2,1.1-2.3,2.3-2.7c1.6-0.4,3.5-0.3,4.7,0.9c1,1,0.6,3-0.8,3.3c-3.7,0.9-7.7,0.7-11.1,2.5
		c-1.6,0.8-2.8,2.4-3.1,4.2c-0.3,2-0.2,4.3,1.1,6c1.2,1.7,3.2,2.6,5.2,2.8c3.3,0.4,7-0.3,9.4-2.7c0.1,0.7,0.2,1.4,0.3,2.1
		c2.7,0.1,5.3,0,8,0.1c-0.5-1.2-0.8-2.5-0.9-3.9C800.2,134.9,800.4,130.4,800.3,125.9z M791.7,137.6c-1.2,1.5-3.6,1.7-5.3,1.1
		c-1.8-0.6-2-3.3-0.5-4.3c2.1-1.4,4.7-1.1,6.9-2.1C792.8,134.1,792.8,136.1,791.7,137.6z"/>
	<path class="st6" d="M818.7,126.4c0-2.4,0-4.8,0-7.2c-1.7-0.3-3.5-0.2-5.1,0.4c-1.8,0.7-3.1,2.2-3.9,3.9c0-1.3,0-2.6,0-4
		c-2.5,0-5,0-7.6,0c0,7.9,0,15.8,0,23.6c2.6,0,5.1,0,7.7,0c0-4-0.1-8,0-11.9c0-2.3,1.6-4.4,3.8-5.1
		C815.4,125.7,817.1,126,818.7,126.4z"/>
	<path class="st15" d="M820.4,134.7c-2.8,0-5.7,0-8.5,0c0,2.9,0,5.7,0,8.6c2.8,0,5.7,0,8.5,0C820.4,140.5,820.4,137.6,820.4,134.7z"
		/>
</g>
<g class="st11">
	<g>
		<g>
			<path d="M844.7,97.7H866c2,0,3.9,0.1,5.9,0.4c2,0.3,3.7,1,5.3,1.9c1.6,0.9,2.8,2.2,3.8,3.9c1,1.7,1.5,3.8,1.5,6.4
				c0,2.3-0.6,4.3-1.7,6.1c-1.1,1.8-2.5,3.2-4.3,4.1c2.4,0.8,4.3,2.3,5.7,4.4c1.4,2.1,2.1,4.7,2.1,7.5c0,3-0.5,5.5-1.4,7.5
				c-0.9,2-2.2,3.6-3.8,4.8c-1.6,1.2-3.5,2.1-5.6,2.6c-2.2,0.5-4.5,0.8-6.9,0.8h-21.9V97.7z M856.5,117.6h9.2c0.5,0,1.1-0.1,1.6-0.2
				c0.6-0.2,1.1-0.4,1.6-0.8c0.5-0.4,0.9-0.9,1.2-1.5c0.3-0.6,0.5-1.4,0.5-2.3c0-1.8-0.5-3.1-1.5-3.8c-1-0.7-2.1-1.1-3.3-1.1h-9.2
				V117.6z M856.5,137.7h9.5c1.9,0,3.4-0.4,4.6-1.3c1.2-0.8,1.8-2.3,1.8-4.4c0-2.2-0.6-3.8-1.8-4.6c-1.2-0.9-2.7-1.3-4.5-1.3h-9.5
				V137.7z"/>
		</g>
	</g>
	<g>
		<path d="M931.4,134.9c-1.7-4.7-2.5-9.8-2.5-15.2c0-5.4,0.8-10.5,2.5-15.2c0.8-2.4,1.8-4.6,3-6.6h-11.3v27.6l-19.4-27.5h-12.2v50.4
			h12.2v-30.6l21.6,30.6h12.1v-2.4C934.8,142.6,932.9,139,931.4,134.9z"/>
	</g>
	<g>
		<path class="st16" d="M974.5,129.1c-0.5,2-1.4,3.7-2.8,5.1c-1.9,1.9-4.6,2.9-8,2.9c-2.3,0-4.3-0.5-6-1.5c-1.6-1-3-2.3-4-3.9
			c-1-1.6-1.8-3.5-2.3-5.6c-0.5-2.1-0.7-4.2-0.7-6.4c0-2.2,0.2-4.3,0.7-6.4c0.5-2.1,1.2-3.9,2.3-5.6c1-1.6,2.4-3,4-3.9
			c1.6-1,3.6-1.5,6-1.5c3.1,0,5.6,0.8,7.6,2.3c1.7,1.3,2.8,3.2,3.4,5.5h14.7c-0.2-3-1-5.7-2.4-8.2c-1.5-2.8-3.5-5.1-5.9-7
			c-2.4-1.9-5.1-3.3-8.1-4.3c-3-1-6-1.5-9-1.5c-4.2,0-8,0.8-11.5,2.4c-3.4,1.6-6.4,3.8-8.8,6.5c-2.4,2.8-4.3,6-5.6,9.7
			c-1.3,3.7-1.9,7.7-1.9,11.9c0,4.3,0.6,8.2,1.9,11.9c1.3,3.7,3.2,6.9,5.6,9.7c2.4,2.8,5.3,4.9,8.8,6.5c3.4,1.6,7.3,2.4,11.5,2.4
			c3.5,0,6.8-0.5,9.8-1.6c3-1.1,5.6-2.6,7.9-4.7c2.2-2.1,4-4.6,5.4-7.6c1-2.2,1.7-4.6,2.1-7.2H974.5z"/>
	</g>
	<g>
		<circle class="st16" cx="1000.1" cy="141.9" r="8.3"/>
	</g>
	<g>
		<path class="st16" d="M844.5,155.6h3.5c2.8,0,4.7,1.8,4.7,4.5s-1.9,4.5-4.7,4.5h-3.5V155.6z M848,162.9c1.8,0,2.8-1.3,2.8-2.8
			c0-1.6-1-2.8-2.8-2.8h-1.6v5.6H848z"/>
		<path class="st16" d="M853.8,156.3c0-0.6,0.5-1,1-1c0.6,0,1,0.5,1,1s-0.5,1-1,1C854.2,157.3,853.8,156.8,853.8,156.3z
			 M853.9,158.1h1.7v6.5h-1.7V158.1z"/>
		<path class="st16" d="M857.8,165c0.5,0.6,1.2,0.8,2,0.8c0.8,0,1.8-0.4,1.8-1.6v-0.7c-0.5,0.6-1.2,1-2,1c-1.6,0-2.9-1.1-2.9-3.3
			c0-2.1,1.2-3.3,2.9-3.3c0.8,0,1.5,0.3,2,1v-0.8h1.7v6c0,2.5-1.9,3.1-3.5,3.1c-1.1,0-2-0.3-2.8-1L857.8,165z M861.6,160.2
			c-0.3-0.4-0.9-0.7-1.5-0.7c-1,0-1.6,0.7-1.6,1.8s0.7,1.8,1.6,1.8c0.6,0,1.2-0.3,1.5-0.7V160.2z"/>
		<path class="st16" d="M864.7,156.3c0-0.6,0.5-1,1-1c0.6,0,1,0.5,1,1s-0.5,1-1,1C865.2,157.3,864.7,156.8,864.7,156.3z
			 M864.9,158.1h1.7v6.5h-1.7V158.1z"/>
		<path class="st16" d="M868.5,163v-3.4h-1.1v-1.5h1.1v-1.8h1.7v1.8h1.3v1.5h-1.3v2.9c0,0.4,0.2,0.7,0.6,0.7c0.3,0,0.5-0.1,0.6-0.2
			l0.4,1.3c-0.3,0.2-0.7,0.4-1.4,0.4C869.1,164.7,868.5,164.1,868.5,163z"/>
		<path class="st16" d="M876.4,163.9c-0.4,0.5-1.2,0.8-2.1,0.8c-1,0-2.3-0.7-2.3-2.1c0-1.5,1.2-2.1,2.3-2.1c0.9,0,1.6,0.3,2.1,0.8
			v-0.9c0-0.7-0.6-1.1-1.4-1.1c-0.7,0-1.3,0.3-1.9,0.8l-0.6-1.1c0.8-0.7,1.8-1,2.8-1c1.5,0,2.8,0.6,2.8,2.5v4.2h-1.7V163.9z
			 M876.4,162.2c-0.3-0.4-0.8-0.6-1.4-0.6c-0.7,0-1.2,0.3-1.2,1c0,0.6,0.6,1,1.2,1c0.5,0,1.1-0.2,1.4-0.6V162.2z"/>
		<path class="st16" d="M879.6,155.6h1.7v8.9h-1.7V155.6z"/>
		<path class="st16" d="M885.8,160.1c0-2.7,2.1-4.6,4.7-4.6c2,0,3.2,1.1,3.8,2.2l-1.6,0.8c-0.4-0.7-1.2-1.3-2.2-1.3
			c-1.6,0-2.7,1.2-2.7,2.9s1.2,2.9,2.7,2.9c1,0,1.8-0.6,2.2-1.3l1.6,0.8c-0.6,1.1-1.8,2.2-3.8,2.2
			C887.9,164.7,885.8,162.9,885.8,160.1z"/>
		<path class="st16" d="M899.6,163.8c-0.4,0.5-1.2,1-2.3,1c-1.4,0-2.1-0.8-2.1-2v-4.6h1.7v3.9c0,0.9,0.5,1.2,1.2,1.2
			c0.7,0,1.2-0.4,1.5-0.7v-4.4h1.7v6.5h-1.7V163.8z"/>
		<path class="st16" d="M902.9,158.1h1.7v0.9c0.5-0.6,1.3-1,2.1-1v1.7c-0.1,0-0.3-0.1-0.5-0.1c-0.6,0-1.3,0.3-1.6,0.7v4.3h-1.7
			V158.1z"/>
		<path class="st16" d="M907.5,158.1h1.7v0.9c0.5-0.6,1.3-1,2.1-1v1.7c-0.1,0-0.3-0.1-0.5-0.1c-0.6,0-1.3,0.3-1.6,0.7v4.3h-1.7
			V158.1z"/>
		<path class="st16" d="M915.2,157.9c1.9,0,3.2,1.4,3.2,3.6v0.4h-4.8c0.1,0.8,0.8,1.5,1.9,1.5c0.6,0,1.3-0.2,1.7-0.6l0.8,1.1
			c-0.6,0.6-1.7,0.9-2.7,0.9c-2,0-3.5-1.3-3.5-3.4C911.8,159.5,913.2,157.9,915.2,157.9z M913.6,160.7h3.2c0-0.6-0.5-1.4-1.6-1.4
			C914.1,159.3,913.6,160.1,913.6,160.7z"/>
		<path class="st16" d="M923.9,160.7c0-0.9-0.5-1.2-1.2-1.2c-0.7,0-1.2,0.4-1.5,0.8v4.4h-1.7v-6.5h1.7v0.8c0.4-0.5,1.2-1,2.3-1
			c1.4,0,2.1,0.8,2.1,2.1v4.6h-1.7V160.7z"/>
		<path class="st16" d="M930.1,157.9c1.3,0,2.1,0.6,2.6,1.2l-1.1,1c-0.3-0.5-0.8-0.7-1.4-0.7c-1,0-1.8,0.8-1.8,1.9
			c0,1.1,0.7,1.9,1.8,1.9c0.6,0,1.1-0.3,1.4-0.7l1.1,1c-0.4,0.6-1.2,1.2-2.6,1.2c-2,0-3.4-1.4-3.4-3.4
			C926.7,159.3,928.1,157.9,930.1,157.9z"/>
		<path class="st16" d="M934.2,165.7c0.4,0,0.7-0.1,0.9-0.5l0.2-0.6l-2.6-6.6h1.8l1.7,4.5l1.7-4.5h1.8l-3,7.5
			c-0.5,1.2-1.3,1.5-2.5,1.6c-0.2,0-0.6,0-0.8-0.1l0.3-1.5C933.8,165.7,934,165.7,934.2,165.7z"/>
		<path class="st16" d="M943.7,155.6h1.9v8.9h-1.9V155.6z"/>
		<path class="st16" d="M951.6,160.7c0-0.9-0.5-1.2-1.2-1.2c-0.7,0-1.2,0.4-1.5,0.8v4.4h-1.7v-6.5h1.7v0.8c0.4-0.5,1.2-1,2.3-1
			c1.4,0,2.1,0.8,2.1,2.1v4.6h-1.7V160.7z"/>
		<path class="st16" d="M955,162.5c0.5,0.4,1.4,0.9,2.2,0.9c0.7,0,1.1-0.3,1.1-0.7c0-0.5-0.6-0.6-1.3-0.8c-1.1-0.2-2.5-0.5-2.5-2
			c0-1.1,1-2,2.7-2c1.1,0,2,0.4,2.6,0.9L959,160c-0.4-0.4-1.1-0.8-1.9-0.8c-0.6,0-1,0.2-1,0.6c0,0.4,0.5,0.5,1.2,0.7
			c1.1,0.2,2.6,0.5,2.6,2.1c0,1.2-1,2.1-2.8,2.1c-1.1,0-2.2-0.4-2.9-1L955,162.5z"/>
		<path class="st16" d="M960.9,156.3c0-0.6,0.5-1,1-1c0.6,0,1,0.5,1,1s-0.5,1-1,1C961.3,157.3,960.9,156.8,960.9,156.3z
			 M961.1,158.1h1.7v6.5h-1.7V158.1z"/>
		<path class="st16" d="M964.9,165c0.5,0.6,1.2,0.8,2,0.8c0.8,0,1.8-0.4,1.8-1.6v-0.7c-0.5,0.6-1.2,1-2,1c-1.6,0-2.9-1.1-2.9-3.3
			c0-2.1,1.2-3.3,2.9-3.3c0.8,0,1.5,0.3,2,1v-0.8h1.7v6c0,2.5-1.9,3.1-3.5,3.1c-1.1,0-2-0.3-2.8-1L964.9,165z M968.7,160.2
			c-0.3-0.4-0.9-0.7-1.5-0.7c-1,0-1.6,0.7-1.6,1.8s0.7,1.8,1.6,1.8c0.6,0,1.2-0.3,1.5-0.7V160.2z"/>
		<path class="st16" d="M976.4,160.6c0-0.9-0.5-1.2-1.2-1.2c-0.7,0-1.2,0.4-1.5,0.8v4.4H972v-8.9h1.7v3.3c0.4-0.5,1.2-1,2.3-1
			c1.4,0,2.1,0.8,2.1,2v4.6h-1.7V160.6z"/>
		<path class="st16" d="M980,163v-3.4h-1.1v-1.5h1.1v-1.8h1.7v1.8h1.3v1.5h-1.3v2.9c0,0.4,0.2,0.7,0.6,0.7c0.3,0,0.5-0.1,0.6-0.2
			l0.4,1.3c-0.3,0.2-0.7,0.4-1.4,0.4C980.6,164.7,980,164.1,980,163z"/>
		<path class="st16" d="M984.2,162.5c0.5,0.4,1.4,0.9,2.2,0.9c0.7,0,1.1-0.3,1.1-0.7c0-0.5-0.6-0.6-1.3-0.8c-1.1-0.2-2.5-0.5-2.5-2
			c0-1.1,1-2,2.7-2c1.1,0,2,0.4,2.6,0.9l-0.7,1.2c-0.4-0.4-1.1-0.8-1.9-0.8c-0.6,0-1,0.2-1,0.6c0,0.4,0.5,0.5,1.2,0.7
			c1.1,0.2,2.6,0.5,2.6,2.1c0,1.2-1,2.1-2.8,2.1c-1.1,0-2.2-0.4-2.9-1L984.2,162.5z"/>
	</g>
</g>
<g class="st11">
	<path class="st17" d="M1054.7,118.6c-0.3-0.7-0.7-1.5-1.3-2.5s-1.2-1.7-1.8-2.2c-0.6-0.5-1.2-0.9-1.7-0.9c-0.9-0.1-2-0.2-3.3-0.2
		h-2.3V124h0.7h0.2c1,0,1.8-0.2,2.5-0.6c0.6-0.4,1.2-1,1.6-1.9c0.4-0.9,0.7-1.7,0.8-2.5h1.5v12h-1.5c-0.1-0.6-0.3-1.3-0.6-2.2
		c-0.3-0.9-0.6-1.4-0.9-1.7c-0.2-0.4-0.7-0.7-1.3-0.9c-0.6-0.2-1.4-0.4-2.2-0.4h-0.7v9.4c0,0.8,0.3,1.4,0.8,1.8
		c0.6,0.4,1.5,0.7,2.9,0.8v1.6h-14.3V138c1.5-0.2,2.5-0.4,3-0.8c0.4-0.3,0.7-0.9,0.7-1.7v-20.1c0-0.7-0.3-1.3-0.8-1.8
		s-1.5-0.8-2.8-1V111h22.4v7.6H1054.7z"/>
	<path class="st17" d="M1070.7,137c-1.1,1.1-2.1,1.8-2.9,2.3s-1.9,0.7-3.1,0.7c-1.7,0-3.1-0.5-4.1-1.5c-1.1-1-1.6-2.6-1.6-4.8v-11.2
		c0-1.2-0.7-2-2.2-2.2v-0.9h9.5v14c0,1.1,0.1,1.9,0.3,2.4c0.2,0.5,0.7,0.7,1.3,0.7c0.5,0,1-0.2,1.5-0.5c0.5-0.3,0.8-0.7,1.2-1.2
		v-12.3c0-0.7-0.1-1.2-0.4-1.5c-0.3-0.3-0.7-0.6-1.2-0.7v-0.9h9v16.9c0,1.2,0.7,2,2.2,2.2v0.9h-9.5V137z"/>
	<path class="st17" d="M1094,121.4h-3.9v13.2c0,1.6,0.4,2.4,1.3,2.4c0.4,0,0.8-0.1,1.3-0.3c0.4-0.2,0.8-0.5,1.1-0.9l0.9,0.9
		c-0.8,1-1.8,1.8-2.9,2.4c-1.1,0.6-2.3,0.9-3.5,0.9c-1.8,0-3.1-0.5-4-1.5c-0.9-1-1.3-2.4-1.3-4v-13h-2.2v-1.2c1.1-0.4,2-0.9,2.7-1.3
		c0.8-0.5,1.4-1,2-1.6c0.6-0.6,1.1-1.3,1.6-2.1c0.5-0.8,1-1.7,1.4-2.8h1.7v7h3.9V121.4z"/>
	<path class="st17" d="M1108.6,137c-1.1,1.1-2.1,1.8-2.9,2.3s-1.9,0.7-3.1,0.7c-1.7,0-3.1-0.5-4.1-1.5c-1.1-1-1.6-2.6-1.6-4.8v-11.2
		c0-1.2-0.7-2-2.2-2.2v-0.9h9.5v14c0,1.1,0.1,1.9,0.3,2.4c0.2,0.5,0.7,0.7,1.3,0.7c0.5,0,1-0.2,1.5-0.5c0.5-0.3,0.8-0.7,1.2-1.2
		v-12.3c0-0.7-0.1-1.2-0.4-1.5c-0.3-0.3-0.7-0.6-1.2-0.7v-0.9h9v16.9c0,1.2,0.7,2,2.2,2.2v0.9h-9.5V137z"/>
	<path class="st17" d="M1118.7,139.5v-0.9c0.9-0.1,1.5-0.4,1.9-0.7c0.4-0.3,0.5-0.8,0.5-1.5v-13.8c0-0.7-0.2-1.2-0.5-1.5
		c-0.4-0.3-1-0.6-1.9-0.7v-0.9h9.3v3.1h0.1c0.5-1,1.2-1.9,1.9-2.5c0.8-0.7,1.9-1.1,3-1.1c0.9,0,1.6,0.3,2.2,0.8s0.8,1.4,0.8,2.5
		c0,1-0.3,1.7-0.9,2.4c-0.6,0.6-1.3,0.9-2.2,0.9c-0.4,0-0.8-0.1-1.1-0.2c-0.3-0.1-0.6-0.3-0.9-0.6c-0.2-0.2-0.5-0.4-0.7-0.5
		c-0.2-0.1-0.5-0.2-0.8-0.2c-0.8,0-1.2,0.8-1.2,2.5v7.9c0,1.5,0.2,2.5,0.5,3.1c0.4,0.6,1.1,0.9,2.3,1.1v0.9H1118.7z"/>
	<path class="st17" d="M1143.2,128.9c0.1,1,0.2,1.9,0.5,2.8c0.3,0.9,0.7,1.7,1.2,2.3c0.5,0.7,1,1.2,1.7,1.6c0.6,0.4,1.3,0.6,2,0.6
		c1.1,0,2-0.3,2.7-0.9c0.8-0.6,1.4-1.4,2-2.4l1.2,0.5c-0.8,2.1-2,3.7-3.6,4.8c-1.6,1.2-3.5,1.7-5.8,1.7c-1.3,0-2.5-0.3-3.7-0.9
		c-1.1-0.6-2.1-1.4-3-2.4c-0.8-1-1.5-2.2-2-3.4c-0.5-1.3-0.7-2.5-0.7-3.8c0-1.3,0.2-2.6,0.7-3.8c0.5-1.3,1.1-2.4,2-3.4
		c0.8-1,1.8-1.8,3-2.4c1.1-0.6,2.4-0.9,3.7-0.9c1.6,0,3,0.3,4.2,0.8s2.1,1.3,2.9,2.2c0.8,0.9,1.3,2,1.6,3.2c0.3,1.2,0.5,2.4,0.5,3.7
		H1143.2z M1147.8,127.4c0-2.6-0.2-4.4-0.6-5.4c-0.4-1-1-1.5-1.7-1.5c-0.7,0-1.3,0.5-1.7,1.5s-0.6,2.8-0.6,5.4H1147.8z"/>
	<path class="st10" d="M1176.8,131.2c0,1.7-0.4,3.3-1.3,4.7c-0.8,1.4-2.1,2.5-3.6,3.3c-1.6,0.8-3.3,1.2-5.3,1.2
		c-2.9,0-5.4-0.7-7.6-2.2l-1.3,1.4h-1.6l-0.3-10.3h1.7c1,3,2.2,5.2,3.6,6.7c1.4,1.5,2.9,2.3,4.6,2.3c1.5,0,2.6-0.4,3.5-1.3
		c0.8-0.9,1.3-2,1.3-3.4c0-1.1-0.3-2-0.9-2.7c-0.6-0.7-1.5-1.3-2.7-1.8l-3.3-1.3c-1.8-0.7-3-1.2-3.8-1.8c-0.7-0.5-1.3-1.1-1.8-1.8
		s-0.9-1.5-1.1-2.4c-0.3-0.9-0.4-1.9-0.4-3c0-1.6,0.4-3,1.2-4.3c0.8-1.3,1.9-2.4,3.3-3.1c1.4-0.7,3-1.1,4.8-1.1
		c2.3,0,4.5,0.6,6.6,1.9l1.1-1.2h1.7l0.2,9.7h-1.7c-0.7-2.2-1.4-3.9-2-5s-1.3-2-2.1-2.6c-0.8-0.6-1.7-0.9-2.7-0.9
		c-1.2,0-2.1,0.4-2.9,1.2c-0.8,0.8-1.1,1.8-1.1,3.1c0,1.2,0.3,2.1,1,2.8c0.6,0.7,1.6,1.3,2.9,1.8l2.8,1.1c2,0.7,3.5,1.5,4.4,2.3
		s1.7,1.7,2.2,2.8C1176.5,128.4,1176.8,129.7,1176.8,131.2z"/>
	<path class="st10" d="M1197.3,133.4c-0.8,2.1-2,3.7-3.6,4.8c-1.6,1.2-3.5,1.7-5.8,1.7c-1.3,0-2.6-0.3-3.8-0.8
		c-1.2-0.5-2.2-1.3-3.1-2.2c-0.9-1-1.6-2.1-2-3.4c-0.5-1.3-0.7-2.7-0.7-4.2c0-1.3,0.2-2.6,0.7-3.9c0.5-1.3,1.1-2.4,2-3.4
		c0.9-1,2-1.8,3.2-2.4c1.3-0.6,2.7-0.9,4.3-0.9c1.3,0,2.5,0.2,3.5,0.5c1,0.3,1.8,0.8,2.4,1.3c0.6,0.5,1.1,1.1,1.4,1.8
		c0.3,0.6,0.5,1.3,0.5,1.9c0,1.1-0.3,2-0.9,2.6c-0.6,0.6-1.4,0.9-2.4,0.9c-1,0-1.7-0.3-2.3-0.9c-0.6-0.6-0.9-1.3-0.9-2.1
		c0-0.3,0-0.7,0.1-1.3c0.1-0.5,0.1-0.9,0.1-1.2c0-0.6-0.2-1.1-0.5-1.5c-0.3-0.4-0.6-0.6-1-0.6c-0.8,0-1.4,0.5-1.9,1.5
		c-0.5,1-0.7,2.7-0.7,5.1c0,2.9,0.5,5.1,1.5,6.7c1,1.6,2.4,2.4,4.2,2.4c0.8,0,1.7-0.3,2.6-0.9c0.9-0.6,1.6-1.4,2.1-2.3L1197.3,133.4
		z"/>
	<path class="st10" d="M1217.1,133.4c-0.5,1.3-1.2,2.4-2.1,3.4c-0.9,1-2,1.8-3.3,2.4c-1.3,0.6-2.8,0.9-4.4,0.9s-3.1-0.3-4.4-0.9
		c-1.3-0.6-2.4-1.4-3.3-2.4c-0.9-1-1.6-2.1-2.1-3.4c-0.5-1.3-0.7-2.5-0.7-3.9c0-1.3,0.2-2.6,0.7-3.9c0.5-1.3,1.2-2.4,2.1-3.4
		c0.9-1,2-1.8,3.3-2.4c1.3-0.6,2.8-0.9,4.4-0.9s3.1,0.3,4.4,0.9c1.3,0.6,2.4,1.4,3.3,2.4c0.9,1,1.6,2.2,2.1,3.4
		c0.5,1.3,0.7,2.5,0.7,3.9C1217.8,130.8,1217.6,132.1,1217.1,133.4z M1209.9,124.9c-0.1-1.2-0.3-2.1-0.5-2.8
		c-0.2-0.6-0.5-1.1-0.8-1.3c-0.3-0.2-0.7-0.4-1.2-0.4s-0.9,0.1-1.2,0.4c-0.3,0.2-0.6,0.7-0.8,1.3c-0.2,0.6-0.4,1.6-0.5,2.8
		c-0.1,1.2-0.2,2.7-0.2,4.6s0.1,3.4,0.2,4.6c0.1,1.2,0.3,2.1,0.5,2.8s0.5,1.1,0.8,1.4c0.3,0.2,0.7,0.4,1.2,0.4s0.9-0.1,1.2-0.4
		c0.3-0.2,0.6-0.7,0.8-1.4c0.2-0.7,0.4-1.6,0.5-2.8c0.1-1.2,0.2-2.7,0.2-4.6S1210,126.1,1209.9,124.9z"/>
	<path class="st10" d="M1231.8,121.4h-3.9v13.2c0,1.6,0.4,2.4,1.3,2.4c0.4,0,0.8-0.1,1.3-0.3c0.4-0.2,0.8-0.5,1.1-0.9l0.9,0.9
		c-0.8,1-1.8,1.8-2.9,2.4c-1.1,0.6-2.3,0.9-3.5,0.9c-1.8,0-3.1-0.5-4-1.5c-0.9-1-1.3-2.4-1.3-4v-13h-2.2v-1.2c1.1-0.4,2-0.9,2.7-1.3
		c0.8-0.5,1.4-1,2-1.6c0.6-0.6,1.1-1.3,1.6-2.1c0.5-0.8,1-1.7,1.4-2.8h1.7v7h3.9V121.4z"/>
</g>
</svg>
