<?xml version="1.0" encoding="utf-8"?>
<!-- Generator: Adobe Illustrator 19.1.0, SVG Export Plug-In . SVG Version: 6.00 Build 0)  -->
<svg version="1.1" id="Layer_1" xmlns="http://www.w3.org/2000/svg" xmlns:xlink="http://www.w3.org/1999/xlink" x="0px" y="0px"
	 viewBox="0 0 200 80" style="enable-background:new 0 0 200 80;" xml:space="preserve">
<style type="text/css">
	.st0{opacity:0.8;}
	.st1{fill:#5B5B5B;}
</style>
<g class="st0">
	<g>
		<path class="st1" d="M75.4,36.9v12.4h-4.5V36.9h-4.6V33H80v3.9H75.4z"/>
		<path class="st1" d="M90.6,44.4h-7.2c0.1,1.4,0.9,2,2.1,2c1.1,0,2-0.2,3.2-0.9l1.6,2.7c-1.5,0.9-3.1,1.4-5,1.4
			c-3.7,0-5.7-2.6-5.7-6.4c0-4.2,2.4-6.4,5.6-6.4c3.4,0,5.5,2.2,5.5,6.8C90.6,43.9,90.6,44.2,90.6,44.4z M85,39.9
			c-1,0-1.5,0.7-1.6,1.9h3.5C86.7,40.5,86.2,39.9,85,39.9z"/>
		<path class="st1" d="M98.4,49.6c-3.6,0-5.7-2.3-5.7-6.4c0-3.8,1.9-6.3,5.8-6.3c2.3,0,3.6,1.1,4.7,2.8l-2.9,2.2
			c-0.6-1.1-1-1.6-1.9-1.6c-1.1,0-1.6,1.1-1.6,3c0,1.9,0.6,2.9,1.7,2.9c0.8,0,1.4-0.4,2.1-1.6l2.7,2.1
			C101.9,48.7,100.5,49.6,98.4,49.6z"/>
		<path class="st1" d="M112.7,49.3v-6.9c0-1.6-0.5-2-1.4-2c-0.9,0-1.4,0.4-1.4,2v7h-4.2V34l4.2-1.7v5.6c0.8-0.6,1.6-1.1,3.1-1.1
			c2.7,0,4,1.8,4,5v7.5H112.7z"/>
		<path d="M126.9,49.6c-4.8,0-7.4-3.6-7.4-8.4c0-5.2,3.1-8.4,7.5-8.4c4,0,5.6,1.7,6.7,4.8l-4.1,1.6c-0.6-1.5-1.1-2.5-2.6-2.5
			c-1.9,0-2.7,1.9-2.7,4.5c0,2.5,0.8,4.5,2.8,4.5c1.4,0,2-0.8,2.9-2.3l3.8,2C132.6,47.5,130.8,49.6,126.9,49.6z"/>
		<path d="M144,41.7c-0.5-0.6-1.1-1-2-1c-1,0-1.7,0.5-1.7,2v6.7h-4.2V37.1h4.2v0.9c0.7-0.7,1.5-1.1,2.6-1.1c0.9,0,1.5,0.2,2,0.5
			L144,41.7z"/>
		<path d="M154,49.3v-0.8c-0.7,0.6-1.6,1.1-3.1,1.1c-2.7,0-4-1.8-4-5v-7.5h4.2V44c0,1.6,0.5,2,1.4,2s1.4-0.4,1.4-2v-7h4.2v12.2H154z
			"/>
		<path d="M168.3,49.3v-6.9c0-1.6-0.5-2-1.4-2c-0.9,0-1.4,0.4-1.4,2v7h-4.2V37.1h4.2v0.8c0.8-0.6,1.6-1.1,3.1-1.1c2.7,0,4,1.8,4,5
			v7.5H168.3z"/>
		<path d="M180.7,49.6c-3.6,0-5.7-2.3-5.7-6.4c0-3.8,1.9-6.3,5.8-6.3c2.3,0,3.6,1.1,4.7,2.8l-2.9,2.2c-0.6-1.1-1-1.6-1.9-1.6
			c-1.1,0-1.6,1.1-1.6,3c0,1.9,0.6,2.9,1.7,2.9c0.8,0,1.4-0.4,2.1-1.6l2.7,2.1C184.2,48.7,182.8,49.6,180.7,49.6z"/>
		<path d="M195,49.3v-6.9c0-1.6-0.5-2-1.4-2c-0.9,0-1.4,0.4-1.4,2v7H188V34l4.2-1.7v5.6c0.8-0.6,1.6-1.1,3.1-1.1c2.7,0,4,1.8,4,5
			v7.5H195z"/>
	</g>
	<g>
		<polygon class="st1" points="1,26 1,35 10,35 10,54 20,54 20,35 29,35 29,26 		"/>
		<polygon class="st1" points="38,45 38,35 29,35 29,54 56,54 56,45 		"/>
		<rect x="38" y="26" class="st1" width="18" height="9"/>
	</g>
</g>
</svg>
