<?xml version="1.0" encoding="utf-8"?>
<!-- Generator: Adobe Illustrator 19.1.0, SVG Export Plug-In . SVG Version: 6.00 Build 0)  -->
<svg version="1.1" id="Layer_1" xmlns="http://www.w3.org/2000/svg" xmlns:xlink="http://www.w3.org/1999/xlink" x="0px" y="0px"
	 viewBox="0 0 200 80" style="enable-background:new 0 0 200 80;" xml:space="preserve">
<style type="text/css">
	.st0{opacity:0.8;}
	.st1{fill:none;}
	.st2{fill:#5F5F5F;}
	.st3{fill:#343334;}
	.st4{fill:#6A6A6A;}
</style>
<g class="st0">
	<path class="st1" d="M27,36.3c-1.7,0.7-2.7,2.5-3.1,4.3c3.2,0,6.5,0,9.7,0c-0.2-1-0.4-2-1.1-2.9C31.3,36,28.9,35.5,27,36.3z"/>
	<path class="st1" d="M115.3,47.8c-0.3,1.2,0.4,2.6,1.7,2.9c1.7,0.5,3.9,0.3,5.1-1.2c1.1-1.5,1.1-3.5,1.1-5.4
		c-2,0.9-4.2,0.8-6.1,1.6C116.2,46.1,115.5,46.8,115.3,47.8z"/>
	<path class="st1" d="M166,50.6c1.7,0.6,4.1,0.4,5.3-1.1c1.1-1.5,1.1-3.5,1.1-5.4c-2.2,1-4.9,0.7-6.9,2.1
		C164,47.3,164.2,50,166,50.6z"/>
	<path class="st1" d="M143,37c-1,0.3-1.8,0.9-2.4,1.8c-1.1,1.7-1.2,3.8-1,5.8c0.2,1.5,0.7,3.2,1.9,4.2c1.7,1.6,4.7,1.3,6.1-0.5
		c1-1.3,1.2-3.1,1.3-4.7c0-1.8-0.3-3.8-1.4-5.3C146.4,36.9,144.5,36.5,143,37z"/>
	<path class="st2" d="M12.6,48.9c-1-0.5-1-1.7-1-2.7c0-3.3,0-6.6,0-9.9c1.6,0,3.2,0,4.8,0c0-1.7,0-3.4,0-5.1c-1.6,0-3.2,0-4.8,0
		c0-2.3,0-4.6,0-6.9c-2.6,0-5.1,0-7.7,0c0,2.3,0,4.6,0,6.9c-1.3,0-2.6,0-3.9,0c0,1.7,0,3.4,0,5.1c1.3,0,2.6,0,4,0c0,4,0,8.1,0,12.1
		c0.1,2.1,0.6,4.7,2.7,5.8c3.1,1.4,6.5,0.8,9.8,0.7c0-1.9,0-3.9,0-5.8C15.2,49.2,13.8,49.5,12.6,48.9z"/>
	<path class="st2" d="M81.6,30.6c-2.9,0-5.9,1.4-7.3,3.9c0.1-3.4,0-6.8,0-10.2c-2.6,0-5.2,0-7.7,0c0,6.9,0,13.7-0.1,20.6
		c0,0.3-0.1,0.6-0.3,0.8c-2.4-0.3-4.8-0.1-7.2-0.1c-0.3,1.2-0.7,2.5-1.8,3.2c-1.6,1.1-4.1,1.1-5.5-0.4c-1.4-1.3-1.7-3.3-1.8-5.1
		c0-1.7,0.2-3.6,1.2-5c1.5-2.1,4.9-2.4,6.7-0.5c0.6,0.6,0.7,1.4,0.9,2.1c2.5,0,5,0,7.6,0c-0.2-1.9-0.8-3.8-2.1-5.3
		c-1.8-2.3-4.6-3.5-7.4-3.9c-2.4-0.3-5-0.2-7.3,0.7c-2.2,0.8-4.1,2.4-5.3,4.4c-1.9,3-2.4,6.6-1.8,10.1c0.6,3.5,2.9,6.7,6.1,8.3
		c5,2.4,11.6,1.7,15.5-2.4c0.2-0.3,0.3-0.7,0.6-1c1.1-1.2,1.1-2.9,1.9-4.2c0.1,2.8,0,5.6,0,8.3c2.6,0,5.2,0,7.7,0
		c0-4.1,0-8.2,0-12.2c0-1.5,0.2-3,1.1-4.2c1.2-1.6,3.8-1.8,5.4-0.8c1.3,0.9,1.4,2.7,1.5,4.1c0,4.4,0,8.8,0,13.2c2.6,0,5.1,0,7.7,0
		c0-5.4,0-10.7,0-16.1c-0.1-2.2-0.6-4.6-2.3-6.2C86.2,31.1,83.8,30.6,81.6,30.6z"/>
	<path class="st2" d="M36.5,32.8c-5.1-3.5-12.8-2.8-17,1.7c-2.2,2.2-3.4,5.4-3.3,8.5c-0.1,2.9,0.7,5.9,2.6,8.2
		c1.9,2.4,4.9,3.8,7.9,4.2c3.4,0.4,7,0.1,10-1.7c2.2-1.3,3.8-3.5,4.4-6c-2.4,0-4.8,0-7.3,0c-1.5,3-6.1,3.4-8.4,1.1
		c-1-1-1.3-2.5-1.5-3.8c5.8,0,11.7,0,17.5,0C41.6,40.5,40.3,35.5,36.5,32.8z M23.9,40.6c0.3-1.8,1.3-3.6,3.1-4.3
		c1.9-0.8,4.4-0.3,5.6,1.4c0.6,0.8,0.9,1.9,1.1,2.9C30.4,40.6,27.1,40.6,23.9,40.6z"/>
	<path class="st3" d="M148.6,34.1c-3.1-4.4-10.3-4.3-13.8-0.4c-2.3,2.5-3.2,6-3.1,9.3c0,3.6,0.9,7.3,3.4,10c2,2.1,4.9,3.1,7.8,2.9
		c2.4,0,4.7-1.4,6.1-3.3c0,0.9,0,1.8,0,2.7c2.5,0,4.9,0,7.4,0c0-10.3,0-20.6,0-30.9c-2.6,0-5.1,0-7.7,0
		C148.6,27.5,148.6,30.8,148.6,34.1z M147.6,48.2c-1.4,1.8-4.4,2.1-6.1,0.5c-1.2-1.1-1.7-2.7-1.9-4.2c-0.2-2-0.1-4.1,1-5.8
		c0.5-0.9,1.4-1.5,2.4-1.8c1.6-0.5,3.5,0,4.5,1.3c1.2,1.5,1.4,3.4,1.4,5.3C148.8,45.2,148.6,46.9,147.6,48.2z"/>
	<path class="st3" d="M107.9,31.1c-1.7-0.3-3.5-0.2-5.2,0.4c-1.8,0.7-3.1,2.2-3.9,3.9c0-1.3,0-2.6,0-4c-2.5,0-5,0-7.6,0
		c0,7.9,0,15.8,0,23.6c2.6,0,5.1,0,7.7,0c0-3.9,0-7.7,0-11.6c0-1.9,0.9-3.8,2.6-4.8c1.9-1.2,4.2-1,6.3-0.4
		C107.9,35.9,107.9,33.5,107.9,31.1z"/>
	<path class="st3" d="M130.7,37.7c-0.1-1.7-0.8-3.3-2-4.5c-2-1.8-4.8-2.3-7.4-2.4c-3.3-0.1-6.9,0.1-9.8,2c-2,1.3-3,3.6-3.1,6
		c2.4,0,4.9,0,7.3,0c0.3-1.2,1.1-2.3,2.3-2.7c1.6-0.4,3.5-0.3,4.7,0.9c1,1,0.6,3-0.8,3.3c-3.7,1-7.7,0.7-11.1,2.5
		c-1.6,0.8-2.8,2.4-3.1,4.2c-0.3,2-0.2,4.3,1.1,6c1.2,1.7,3.2,2.6,5.2,2.8c3.3,0.4,6.9-0.3,9.4-2.7c0.2,0.7,0,1.6,0.5,2.1
		c2.6,0.1,5.2,0,7.8,0c-0.5-1.2-0.8-2.5-0.8-3.9C130.6,46.7,130.8,42.2,130.7,37.7z M122.1,49.5c-1.2,1.4-3.4,1.7-5.1,1.2
		c-1.2-0.3-1.9-1.7-1.7-2.9c0.1-0.9,0.9-1.6,1.8-2c2-0.8,4.2-0.8,6.1-1.6C123.2,46,123.2,48,122.1,49.5z"/>
	<path class="st3" d="M179.9,37.7c-0.1-1.5-0.6-3-1.7-4.2c-1.9-2-4.8-2.5-7.4-2.7c-3.4-0.1-7.1,0-10.1,2c-2,1.3-3.1,3.6-3.1,6
		c2.4,0,4.9,0,7.3,0c0.3-1.2,1.1-2.3,2.3-2.7c1.6-0.4,3.5-0.3,4.7,0.9c1,1,0.6,3-0.8,3.3c-3.7,0.9-7.7,0.7-11.1,2.5
		c-1.6,0.8-2.8,2.4-3.1,4.2c-0.3,2-0.2,4.3,1.1,6c1.2,1.7,3.2,2.6,5.2,2.8c3.3,0.4,7-0.3,9.4-2.7c0.1,0.7,0.2,1.4,0.3,2.1
		c2.7,0.1,5.3,0,8,0.1c-0.5-1.2-0.8-2.5-0.9-3.9C179.8,46.7,180,42.2,179.9,37.7z M171.3,49.5c-1.2,1.5-3.6,1.7-5.3,1.1
		c-1.8-0.6-2-3.3-0.5-4.3c2.1-1.4,4.7-1.1,6.9-2.1C172.4,45.9,172.4,48,171.3,49.5z"/>
	<path class="st3" d="M198.3,38.3c0-2.4,0-4.8,0-7.2c-1.7-0.3-3.5-0.2-5.1,0.4c-1.8,0.7-3.1,2.2-3.9,3.9c0-1.3,0-2.6,0-4
		c-2.5,0-5,0-7.6,0c0,7.9,0,15.8,0,23.6c2.6,0,5.1,0,7.7,0c0-4-0.1-8,0-11.9c0-2.3,1.6-4.4,3.8-5.1
		C194.9,37.6,196.7,37.9,198.3,38.3z"/>
	<path class="st4" d="M200,46.6c-2.8,0-5.7,0-8.5,0c0,2.9,0,5.7,0,8.6c2.8,0,5.7,0,8.5,0C200,52.3,200,49.4,200,46.6z"/>
</g>
</svg>
