<?xml version="1.0" encoding="utf-8"?>
<!-- Generator: Adobe Illustrator 19.1.0, SVG Export Plug-In . SVG Version: 6.00 Build 0)  -->
<svg version="1.1" id="Layer_1" xmlns="http://www.w3.org/2000/svg" xmlns:xlink="http://www.w3.org/1999/xlink" x="0px" y="0px"
	 viewBox="0 0 200 80" style="enable-background:new 0 0 200 80;" xml:space="preserve">
<style type="text/css">
	.st0{fill:#85B0E4;}
	.st1{fill:#2860C9;}
</style>
<g>
	<g id="v3_2_">
		<path class="st0" d="M195.4,58.9c-2.8,0-5.2,0-7.9,0c-1.4-2.5-2.8-5.2-4.3-7.9c-1.3,1.3-2.5,2.5-3.6,3.6c-0.4,1.4-0.8,2.8-1.1,4.2
			c-2.2,0-4.1,0-6.2,0c0-9.2,0-18.3,0-27.6c2.2,0,4.5,0,6.9,0c0,4.3,0,8.6,0,12.8c0.5,0.5,0.9,0.9,1.3,1.3c1.8-2.2,3.6-4.3,5.2-6.3
			c3.1,0,5.8,0,8.4,0c-2.1,2.1-4.2,4.2-6.5,6.5C190.3,50.1,192.7,54.3,195.4,58.9z"/>
		<path class="st0" d="M161.4,52.7c2.1-4.6,0.9-9.1,1.3-13.6c2,0,4.1,0,6.2,0c0,6.5,0,13,0,19.6c-2,0-3.9,0-6.1,0
			c-0.1-0.8-0.2-1.8-0.3-2.9c-0.2,0.1-0.5,0-0.6,0.2c-1,0.9-1.9,1.9-2.6,2.6c-1.2,0.3-2.2,0.5-3.1,0.8c-2.5,0.8-4.5-0.3-6.2-1.8
			c-1.3-1.2-1.7-3-1.7-4.8c0-4.5,0-9,0-13.7c2.4,0,4.7,0,7.1,0c0,4.4,0,8.7,0,13.1c1,0.6,2,1.2,3.1,1.9
			C159.4,53.8,160.4,53.2,161.4,52.7z"/>
		<path class="st0" d="M117.7,39c3.6,0.4,7.5-0.8,11.1,0.8c0.2,0.2,0.4,0.4,0.6,0.5c2.9,2.3,4.4,5.2,3.9,9.1c-0.2,1.4,0,2.9,0,4.3
			c-5.5,5.2-3.2,5.6-16,5.2c-1.2-0.8-2.3-1.2-3.1-2c-0.7-0.7-1.2-1.6-1.7-2.4c-1.8-3.4-2.2-6.9-0.6-10.4c0.5-1.1,2.1-1.5,2.8-2.7
			C115.3,40.3,116.6,39.8,117.7,39z M124.8,54.1c0.4-0.8,0.7-1.2,0.9-1.7c1.6-4,1.1-6.7-1.8-8.6c-0.6-0.4-1.3-0.5-1.8-0.7
			c-4.8,1.2-4.1,4.9-4,8.4c0.9,1.2,1.8,2.4,2.7,3.8C122.3,54.8,123.6,54.4,124.8,54.1z"/>
		<path class="st0" d="M103.7,39c1.5,1.3,3.1,2.7,4.8,4.1c0,0.7,0,1.3,0,2.1c-2,0-3.9,0-5.4,0c-1.8-0.9-3.2-1.6-4.6-2.3
			c-2.2,0.8-4.1,1.9-4.8,4.4c-0.3,2-0.4,4.1,0.9,5.8c0.6,0.8,1.8,1.4,2.8,1.7c1.8,0.6,3.9-0.7,5.2-3.3c2.1,0.3,4.3,0.7,6.7,1.1
			c-0.5,1.1-1,2.1-1.5,3.2c-0.7,1.5-2.1,2.3-3.4,2.8c-1.9,0.6-3.9,1-5.9,1c-2.1,0-4.3-0.3-6.3-1c-1.8-0.6-3.4-1.8-4.2-3.7
			c-1.2-3-2.6-5.9-0.9-9.4c1.2-2.4,2.3-4.1,5.2-5.8c0.3-0.2,0.6-0.5,0.9-0.8C96.4,39,99.9,39,103.7,39z"/>
		<path class="st0" d="M76.7,51.3c0-0.9,0-1.9,0-3.2c0.6-0.5,1.3-1.2,2-1.9c1.9-0.5,2.4,1.2,3.5,1.9c0,0.9,0,1.7,0,2.5
			c-0.7,0.7-1.3,1.3-2,2C79,52.5,77.6,52.9,76.7,51.3z"/>
		<path class="st0" d="M140.1,52.7c-0.8-0.8-1.4-1.4-2.1-2.1c0-0.8,0-1.5,0-2.4c1-0.9,1.6-2.4,3.6-2c0.5,0.6,1.2,1.3,1.9,2
			c0,0.8,0,1.6,0,2.3C142.3,51.3,141.2,52,140.1,52.7z"/>
		<path class="st1" d="M50.4,41.5c-0.2-3.2-0.2-5.7,3.3-6.9c2.7-0.9,4.6-3.3,3.9-6.2c-0.4-1.7-2.5-4.2-3.9-4.2
			c-2.1-0.1-4.6,1.3-6.3,2.8c-2,1.7-8.1,2.6-10,0.6c-0.4-0.4-0.5-1.5-0.3-2.1c0.4-1.1,1.1-2.1,1.9-3c5.1-5.9,20.2-6.8,26.1-1.7
			c4.3,3.8,4.4,10,0.4,14.1c-0.7,0.7-1.5,1.4-2.5,2.3c0.6,0.6,1,1.4,1.6,1.7c8.5,3.3,7.1,14.5,1.8,19.3c-6.5,6-21.5,5.6-27.4-0.9
			c-1.4-1.5-2.2-3.4-3.9-6c3.8-0.6,6.7-1.3,9.6-1.4c0.8,0,1.9,1.5,2.5,2.6c1.8,3.1,4.5,4,7.8,3.3c3.1-0.7,4.9-4.3,4.4-8.4
			c-0.4-3.4-2.3-5.2-5.6-5.6C52.8,41.7,51.7,41.6,50.4,41.5z"/>
		<path class="st1" d="M4.7,23.4c2.5,0,4.8,0.2,7,0c3.2-0.3,4.9,1,5.7,4.1c1.3,4.9,2.8,9.7,4.2,14.5c0.4,1.2,0.9,2.4,1.7,4.7
			c1-2,1.7-3,2-4.1c1.6-5.3,3-10.7,4.8-16c0.5-1.4,1.9-2.4,2.9-3.6c0.3,0.2,0.6,0.5,0.9,0.7c-0.2,2-1.2,4.4-0.5,5.9
			c0.7,1.3,3.4,1.6,5.7,2.6c-1.4,3.7-2.8,7.3-4.2,11c-1.7,4.3-3.5,8.6-5.1,12.9c-1,2.8-3.3,2.7-5.6,2.5c-2.6-0.2-5.8,1.3-7.3-2.3
			c-4.1-10.3-8.1-20.7-12.2-31C4.6,24.9,4.7,24.4,4.7,23.4z"/>
	</g>
</g>
</svg>
