<svg xmlns="http://www.w3.org/2000/svg" viewBox="0 0 200 80" enable-background="new 0 0 200 80"><style type="text/css">.st0{fill:#F25E1E;}</style><path d="M18.3 9.6h21.3c2 0 3.9.1 5.9.4 2 .3 3.7 1 5.3 1.9 1.6.9 2.8 2.2 3.8 3.9 1 1.7 1.5 3.8 1.5 6.4 0 2.3-.6 4.3-1.7 6.1-1.1 1.8-2.5 3.2-4.3 4.1 2.4.8 4.3 2.3 5.7 4.4 1.4 2.1 2.1 4.7 2.1 7.5 0 3-.5 5.5-1.4 7.5-.9 2-2.2 3.6-3.8 4.8-1.6 1.2-3.5 2.1-5.6 2.6-2.2.5-4.5.8-6.9.8H18.3V9.6zm11.8 19.9h9.2c.5 0 1.1-.1 1.6-.2.6-.2 1.1-.4 1.6-.8s.9-.9 1.2-1.5c.3-.6.5-1.4.5-2.3 0-1.8-.5-3.1-1.5-3.8-1-.7-2.1-1.1-3.3-1.1h-9.2v9.7zm0 20.1h9.5c1.9 0 3.4-.4 4.6-1.3 1.2-.8 1.8-2.3 1.8-4.4 0-2.2-.6-3.8-1.8-4.6-1.2-.9-2.7-1.3-4.5-1.3h-9.5v11.6zM105 46.7c-1.7-4.7-2.5-9.8-2.5-15.2s.8-10.5 2.5-15.2c.8-2.4 1.8-4.6 3-6.6H96.7v27.6L77.3 9.7H65.1v50.4h12.2V29.5l21.6 30.6H111v-2.4c-2.6-3.2-4.6-6.9-6-11z"/><path class="st0" d="M148 40.9c-.5 2-1.4 3.7-2.8 5.1-1.9 1.9-4.6 2.9-8 2.9-2.3 0-4.3-.5-6-1.5-1.6-1-3-2.3-4-3.9s-1.8-3.5-2.3-5.6c-.5-2.1-.7-4.2-.7-6.4s.2-4.3.7-6.4c.5-2.1 1.2-3.9 2.3-5.6 1-1.6 2.4-3 4-3.9 1.6-1 3.6-1.5 6-1.5 3.1 0 5.6.8 7.6 2.3 1.7 1.3 2.8 3.2 3.4 5.5h14.7c-.2-3-1-5.7-2.4-8.2-1.5-2.8-3.5-5.1-5.9-7-2.4-1.9-5.1-3.3-8.1-4.3s-6-1.5-9-1.5c-4.2 0-8 .8-11.5 2.4-3.4 1.6-6.4 3.8-8.8 6.5-2.4 2.8-4.3 6-5.6 9.7-1.3 3.7-1.9 7.7-1.9 11.9s.6 8.2 1.9 11.9c1.3 3.7 3.2 6.9 5.6 9.7 2.4 2.8 5.3 4.9 8.8 6.5 3.4 1.6 7.3 2.4 11.5 2.4 3.5 0 6.8-.5 9.8-1.6 3-1.1 5.6-2.6 7.9-4.7 2.2-2.1 4-4.6 5.4-7.6 1-2.2 1.7-4.6 2.1-7.2H148z"/><circle class="st0" cx="173.6" cy="53.7" r="8.3"/><path class="st0" d="M18.1 67.5h3.5c2.8 0 4.7 1.8 4.7 4.5s-1.9 4.5-4.7 4.5h-3.5v-9zm3.5 7.2c1.8 0 2.8-1.3 2.8-2.8 0-1.6-1-2.8-2.8-2.8H20v5.6h1.6zM27.3 68.1c0-.6.5-1 1-1 .6 0 1 .5 1 1s-.5 1-1 1-1-.4-1-1zm.2 1.8h1.7v6.5h-1.7v-6.5zM31.4 76.9c.5.6 1.2.8 2 .8s1.8-.4 1.8-1.6v-.7c-.5.6-1.2 1-2 1-1.6 0-2.9-1.1-2.9-3.3 0-2.1 1.2-3.3 2.9-3.3.8 0 1.5.3 2 1V70h1.7v6c0 2.5-1.9 3.1-3.5 3.1-1.1 0-2-.3-2.8-1l.8-1.2zm3.8-4.9c-.3-.4-.9-.7-1.5-.7-1 0-1.6.7-1.6 1.8s.7 1.8 1.6 1.8c.6 0 1.2-.3 1.5-.7V72zM38.3 68.1c0-.6.5-1 1-1 .6 0 1 .5 1 1s-.5 1-1 1-1-.4-1-1zm.2 1.8h1.7v6.5h-1.7v-6.5zM42 74.8v-3.4h-1v-1.5h1v-1.8h1.7v1.8H45v1.5h-1.3v2.9c0 .4.2.7.6.7.3 0 .5-.1.6-.2l.4 1.3c-.3.2-.7.4-1.4.4-1.2.1-1.9-.5-1.9-1.7zM50 75.8c-.4.5-1.2.8-2.1.8-1 0-2.3-.7-2.3-2.1 0-1.5 1.2-2.1 2.3-2.1.9 0 1.6.3 2.1.8v-.9c0-.7-.6-1.1-1.4-1.1-.7 0-1.3.3-1.9.8l-.7-1.2c.8-.7 1.8-1 2.8-1 1.5 0 2.8.6 2.8 2.5v4.2H50v-.7zm0-1.7c-.3-.4-.8-.6-1.4-.6-.7 0-1.2.3-1.2 1 0 .6.6 1 1.2 1 .5 0 1.1-.2 1.4-.6v-.8zM53.2 67.5h1.7v8.9h-1.7v-8.9zM59.4 72c0-2.7 2.1-4.6 4.7-4.6 2 0 3.2 1.1 3.8 2.2l-1.6.8c-.4-.7-1.2-1.3-2.2-1.3-1.6 0-2.7 1.2-2.7 2.9s1.2 2.9 2.7 2.9c1 0 1.8-.6 2.2-1.3l1.6.8c-.6 1.1-1.8 2.2-3.8 2.2-2.7 0-4.7-1.9-4.7-4.6zM73.2 75.6c-.4.5-1.2 1-2.3 1-1.4 0-2.1-.8-2.1-2V70h1.7v3.9c0 .9.5 1.2 1.2 1.2s1.2-.4 1.5-.7V70h1.7v6.5h-1.7v-.9zM76.4 69.9h1.7v.9c.5-.6 1.3-1 2.1-1v1.7c-.1 0-.3-.1-.5-.1-.6 0-1.3.3-1.6.7v4.3h-1.7v-6.5zM81.1 69.9h1.7v.9c.5-.6 1.3-1 2.1-1v1.7c-.1 0-.3-.1-.5-.1-.6 0-1.3.3-1.6.7v4.3h-1.7v-6.5zM88.7 69.8c1.9 0 3.2 1.4 3.2 3.6v.4h-4.8c.1.8.8 1.5 1.9 1.5.6 0 1.3-.2 1.7-.6l.8 1.1c-.6.6-1.7.9-2.7.9-2 0-3.5-1.3-3.5-3.4.1-2 1.5-3.5 3.4-3.5zm-1.6 2.8h3.2c0-.6-.5-1.4-1.6-1.4-1-.1-1.5.7-1.6 1.4zM97.4 72.5c0-.9-.5-1.2-1.2-1.2s-1.2.4-1.5.8v4.4H93V70h1.7v.8c.4-.5 1.2-1 2.3-1 1.4 0 2.1.8 2.1 2.1v4.6h-1.7v-4zM103.7 69.8c1.3 0 2.1.6 2.6 1.2l-1.1 1c-.3-.5-.8-.7-1.4-.7-1 0-1.8.8-1.8 1.9 0 1.1.7 1.9 1.8 1.9.6 0 1.1-.3 1.4-.7l1.1 1c-.4.6-1.2 1.2-2.6 1.2-2 0-3.4-1.4-3.4-3.4s1.4-3.4 3.4-3.4zM107.8 77.5c.4 0 .7-.1.9-.5l.2-.6-2.6-6.6h1.8l1.7 4.5 1.7-4.5h1.8l-3 7.5c-.5 1.2-1.3 1.5-2.5 1.6-.2 0-.6 0-.8-.1l.3-1.5c.1.2.3.2.5.2zM117.3 67.5h1.9v8.9h-1.9v-8.9zM125.1 72.5c0-.9-.5-1.2-1.2-1.2s-1.2.4-1.5.8v4.4h-1.7V70h1.7v.8c.4-.5 1.2-1 2.3-1 1.4 0 2.1.8 2.1 2.1v4.6h-1.7v-4zM128.6 74.4c.5.4 1.4.9 2.2.9.7 0 1.1-.3 1.1-.7 0-.5-.6-.6-1.3-.8-1.1-.2-2.5-.5-2.5-2 0-1.1 1-2 2.7-2 1.1 0 2 .4 2.6.9l-.7 1.2c-.4-.4-1.1-.8-1.9-.8-.6 0-1 .2-1 .6 0 .4.5.5 1.2.7 1.1.2 2.6.5 2.6 2.1 0 1.2-1 2.1-2.8 2.1-1.1 0-2.2-.4-2.9-1l.7-1.2zM134.5 68.1c0-.6.5-1 1-1 .6 0 1 .5 1 1s-.5 1-1 1c-.6 0-1-.4-1-1zm.1 1.8h1.7v6.5h-1.7v-6.5zM138.5 76.9c.5.6 1.2.8 2 .8s1.8-.4 1.8-1.6v-.7c-.5.6-1.2 1-2 1-1.6 0-2.9-1.1-2.9-3.3 0-2.1 1.2-3.3 2.9-3.3.8 0 1.5.3 2 1V70h1.7v6c0 2.5-1.9 3.1-3.5 3.1-1.1 0-2-.3-2.8-1l.8-1.2zm3.8-4.9c-.3-.4-.9-.7-1.5-.7-1 0-1.6.7-1.6 1.8s.7 1.8 1.6 1.8c.6 0 1.2-.3 1.5-.7V72zM150 72.5c0-.9-.5-1.2-1.2-1.2s-1.2.4-1.5.8v4.4h-1.7v-8.9h1.7v3.3c.4-.5 1.2-1 2.3-1 1.4 0 2.1.8 2.1 2v4.6H150v-4zM153.5 74.8v-3.4h-1.1v-1.5h1.1v-1.8h1.7v1.8h1.3v1.5h-1.3v2.9c0 .4.2.7.6.7.3 0 .5-.1.6-.2l.4 1.3c-.3.2-.7.4-1.4.4-1.2.1-1.9-.5-1.9-1.7zM157.8 74.4c.5.4 1.4.9 2.2.9.7 0 1.1-.3 1.1-.7 0-.5-.6-.6-1.3-.8-1.1-.2-2.5-.5-2.5-2 0-1.1 1-2 2.7-2 1.1 0 2 .4 2.6.9l-.7 1.2c-.4-.4-1.1-.8-1.9-.8-.6 0-1 .2-1 .6 0 .4.5.5 1.2.7 1.1.2 2.6.5 2.6 2.1 0 1.2-1 2.1-2.8 2.1-1.1 0-2.2-.4-2.9-1l.7-1.2z"/></svg>