<svg xmlns="http://www.w3.org/2000/svg" viewBox="0 0 200 80" enable-background="new 0 0 200 80"><style type="text/css">.st0{fill:#1C5A7D;}</style><g id="business_insider_2_"><path class="st0" d="M4.9 12.6c0-6.6 0-7.8-.1-9.2-.1-1.5-.4-2.2-1.9-2.5-.3-.1-1-.1-1.7-.1C.7.8.5.7.5.4c0-.3.3-.4 1-.4 2.3 0 5.1.1 5.9.1 2.1 0 3.8-.1 5.3-.1C20.6 0 22 4.2 22 6.5c0 3.6-2 5.7-4.4 7.6 3.6 1.2 7.9 4.3 7.9 9.4 0 4.7-3.6 9.5-11.6 9.5-.5 0-1.8-.1-3.1-.1-1.3-.1-2.6-.1-3.3-.1H5c-1 0-2.1.1-3 .1-.6 0-.9-.1-.9-.4 0-.2.2-.3.7-.3.7 0 1.2-.1 1.6-.2.9-.2 1.1-1.1 1.3-2.4.2-1.8.2-5.3.2-9.3v-7.7zm5.2.8c0 .3.1.4.3.5.4.1 1 .1 2 .1 1.4 0 2.4-.2 3.1-.8 1.1-.9 1.8-2.5 1.8-4.6 0-2.9-1.7-6.8-5.4-6.8-.6 0-1 0-1.4.1-.3.1-.4.3-.4.7v10.8zm5.8 3.5c-.9-.7-1.9-1-3.6-1h-1.9c-.2 0-.3.1-.3.3v10.3c0 2.9.1 3.6 1.5 4.2 1.2.5 2.2.5 3.2.5 2 0 5.3-1 5.3-5.6 0-2.8-.9-6.4-4.2-8.7zM31.4 15.6V7.8c-.1-1.3-.4-1.7-1.7-2-.3-.1-1-.1-1.5-.1-.4 0-.7-.1-.7-.4 0-.3.3-.3.8-.3 2 0 4.6.1 5.8.1 1 0 3.5-.1 4.9-.1.6 0 .8.1.8.3 0 .3-.2.4-.6.4-.4 0-.7 0-1.1.1-1 .2-1.3.7-1.4 2-.1 1.2-.1 2.2-.1 7.8v5.2c0 5.4 1 7.5 2.9 9 1.7 1.4 3.5 1.5 4.8 1.5 1.7 0 3.6-.5 5.1-2 2.1-2 2.2-5.2 2.2-9v-4.7c0-5.6 0-6.7-.1-7.8-.1-1.3-.4-1.7-1.6-2-.3-.1-1-.1-1.4-.1-.4 0-.7-.1-.7-.4 0-.3.3-.3.8-.3 2 0 4.5.1 4.6.1.4 0 3-.1 4.5-.1.5 0 .8.1.8.3 0 .3-.2.4-.7.4s-.7 0-1.1.1c-1 .2-1.3.7-1.4 2 0 1.2-.1 2.2-.1 7.8v4c0 4.1-.4 8.5-3.7 11.2-2.7 2.3-5.6 2.7-8.1 2.7-2 0-6-.1-8.8-2.5-2-1.7-3.5-4.4-3.5-9.8v-5.6zM62.2 32.5c-.6-.3-.7-.4-.7-1.3 0-2 .2-4.3.2-4.9 0-.6.2-1 .5-1s.4.3.4.6c0 .5.1 1.3.3 1.9.8 2.7 3.7 3.7 6.1 3.7 3.3 0 5.3-2.1 5.3-4.7 0-1.6-.4-3.2-3.8-5.2l-2.2-1.3c-4.5-2.7-6-5.1-6-8.4 0-4.5 4.4-7.5 9.7-7.5 2.5 0 4.4.3 5.4.6.4.1.6.2.6.5 0 .5-.2 1.5-.2 4.4 0 .8-.2 1.2-.5 1.2s-.4-.2-.4-.7c0-.3-.2-1.5-1-2.4-.6-.7-1.8-1.7-4.3-1.7-2.7 0-5.2 1.4-5.2 4 0 1.7.6 3 4.1 4.9l1.6.9c5.1 2.8 6.6 5.6 6.6 9 0 2.7-1 5-3.8 6.9-1.8 1.3-4.4 1.5-6.4 1.5-2.3-.1-4.6-.3-6.3-1zM85.2 15.6V7.8c-.1-1.3-.5-1.7-1.3-2-.4-.1-.9-.2-1.4-.2-.4 0-.6-.1-.6-.4 0-.2.3-.3.9-.3 1.4 0 4.1.1 5.1.1s3.4-.1 4.9-.1c.5 0 .8.1.8.3 0 .3-.2.4-.6.4s-.7 0-1.1.1c-1 .2-1.4.7-1.4 2-.1 1.2-.1 2.2-.1 7.8V22c0 3.6 0 6.5.2 8.1.1 1 .4 1.6 1.5 1.7.5.1 1.4.1 2 .1.4 0 .6.2.6.4 0 .3-.3.4-.7.4-2.5 0-5.1-.1-6.2-.1-.9 0-3.5.1-5 .1-.5 0-.7-.1-.7-.4 0-.2.1-.4.6-.4.6 0 1 0 1.4-.1.8-.2 1-.7 1.1-1.8.2-1.5.2-4.5.2-8.1v-6.3zM103.5 27.9c.1 2.9.6 3.7 1.3 4 .7.2 1.4.3 2 .3.4 0 .7.2.7.4 0 .3-.3.4-.9.4-2.5 0-4.3-.1-5-.1-.3 0-2.2.1-4.1.1-.5 0-.9 0-.9-.4 0-.2.3-.4.6-.4.5 0 1.2 0 1.7-.2 1-.3 1.1-1.3 1.2-4.5l.3-22c0-.7.3-1.3.7-1.3.5 0 1 .6 1.7 1.2.5.5 6.2 6.4 11.8 11.8 2.6 2.6 7.7 7.8 8.3 8.3h.2L122.7 9c0-2.3-.4-2.9-1.3-3.3-.6-.2-1.5-.2-2-.2s-.6-.2-.6-.4c0-.3.4-.3 1-.3 2 0 4.1.1 4.9.1.4 0 1.9-.1 3.7-.1.5 0 .9 0 .9.3 0 .2-.2.4-.7.4-.4 0-.7 0-1.2.1-1 .3-1.4 1-1.4 3.1l-.4 23.4c0 .8-.3 1.2-.6 1.2-.7 0-1.2-.4-1.6-.8-2.4-2.2-7.2-6.8-11.2-10.7-4.2-4-8.2-8.5-9-9.2h-.2l.5 15.3zM135.9 15.6V7.8c-.1-1.3-.4-1.7-1.7-2-.3-.1-1-.1-1.5-.1-.4 0-.7-.1-.7-.4 0-.3.3-.3.9-.3 2 0 4.4.1 5.5.1h10.5c.7 0 1.3-.2 1.6-.2.2 0 .4-.2.6-.2.2 0 .3.2.3.3 0 .3-.2.7-.3 2.4 0 .4-.1 2-.2 2.4 0 .2-.1.6-.4.6-.3 0-.3-.2-.3-.5s0-.9-.3-1.4c-.3-.7-.6-1.2-2.5-1.4-.7-.1-5.2-.2-6-.2-.2 0-.3.1-.3.3v9.2c0 .2 0 .4.3.4.9 0 5.8 0 6.7-.1.9-.1 1.5-.2 1.8-.6.3-.3.4-.5.6-.5.2 0 .3.2.3.4s-.1.8-.3 2.7c-.1.7-.2 2.2-.2 2.5 0 .3 0 .8-.4.8-.3 0-.3-.1-.3-.3 0-.4 0-.9-.1-1.4-.2-.7-.7-1.3-2.1-1.4-.7-.1-5.1-.2-6-.2-.2 0-.2.2-.2.4v8.5c.1 2.5 1.3 3.1 5.2 3.1 1 0 2.6 0 3.6-.5 1-.4 1.4-1.2 1.7-2.7.1-.4.2-.6.4-.6.3 0 .3.5.3.9 0 .8-.3 3.4-.5 4.1-.3 1-.6 1-2 1-2.9 0-5.2 0-7.1-.1-1.9 0-3.3-.1-4.4-.1h-2.2c-.9 0-1.9.1-2.7.1-.5 0-.7-.1-.7-.4 0-.2.1-.4.6-.4.6 0 1 0 1.4-.1.8-.2 1-.9 1.1-2 .2-1.6.2-4.5.2-7.9v-6.4zM157.1 32.5c-.6-.3-.7-.4-.7-1.3 0-2 .2-4.3.2-4.9 0-.6.2-1 .5-1s.4.3.4.6c0 .5.1 1.3.3 1.9.8 2.7 3.7 3.7 6.1 3.7 3.3 0 5.3-2.1 5.3-4.7 0-1.6-.4-3.2-3.8-5.2l-2.2-1.3c-4.5-2.7-6-5.1-6-8.4 0-4.5 4.4-7.5 9.7-7.5 2.5 0 4.4.3 5.4.6.3.1.5.2.5.5 0 .5-.1 1.5-.1 4.4 0 .8-.2 1.2-.5 1.2s-.4-.2-.4-.7c0-.3-.2-1.5-1-2.4-.6-.7-1.8-1.7-4.3-1.7-2.7 0-5.2 1.4-5.2 4 0 1.7.6 3 4.1 4.9l1.6.9c5.1 2.8 6.6 5.6 6.6 9 0 2.7-1 5-3.8 6.9-1.8 1.3-4.4 1.5-6.4 1.5-2.3-.1-4.7-.3-6.3-1zM178.8 32.5c-.6-.3-.7-.4-.7-1.3 0-2 .2-4.3.2-4.9 0-.6.2-1 .5-1s.4.3.4.6c0 .5.1 1.3.3 1.9.8 2.7 3.7 3.7 6.1 3.7 3.3 0 5.3-2.1 5.3-4.7 0-1.6-.4-3.2-3.8-5.2l-2.2-1.3c-4.5-2.7-6-5.1-6-8.4 0-4.5 4.4-7.5 9.7-7.5 2.5 0 4.4.3 5.4.6.3.1.5.2.5.5 0 .5-.1 1.5-.1 4.4 0 .8-.2 1.2-.5 1.2s-.4-.2-.4-.7c0-.3-.2-1.5-1-2.4-.6-.7-1.8-1.7-4.3-1.7-2.7 0-5.2 1.4-5.2 4 0 1.7.6 3 4.1 4.9l1.6.9c5.1 2.8 6.6 5.6 6.6 9 0 2.7-1 5-3.8 6.9-1.8 1.3-4.4 1.5-6.4 1.5-2.3-.1-4.7-.3-6.3-1zM6.7 59.2c0-6.6 0-7.8-.1-9.2-.1-1.5-.5-2.2-1.5-2.4-.5-.1-1-.2-1.6-.2-.4 0-.7-.1-.7-.4 0-.3.3-.3 1-.3 1.7 0 4.4.1 5.7.1 1.1 0 3.7-.1 5.3-.1.6 0 .9.1.9.3 0 .3-.3.4-.7.4-.4 0-.8 0-1.3.1-1.2.2-1.5 1-1.6 2.5-.1 1.4-.1 2.6-.1 9.2v7.7c0 4.2 0 7.7.2 9.5.1 1.2.4 2 1.7 2.1.6.1 1.6.2 2.2.2.5 0 .7.1.7.3 0 .3-.3.4-.8.4-2.9 0-5.6-.1-6.8-.1-1 0-3.7.1-5.5.1-.6 0-.9-.1-.9-.4 0-.2.2-.3.7-.3.7 0 1.2-.1 1.6-.2.9-.2 1.1-.9 1.3-2.2.2-1.8.2-5.3.2-9.5v-7.6zM28.9 74.5c.1 2.9.6 3.7 1.3 4 .7.2 1.4.3 2 .3.4 0 .7.2.7.4 0 .3-.3.4-.9.4-2.5 0-4.3-.1-5-.1-.3 0-2.2.1-4.1.1-.5 0-.9 0-.9-.4 0-.2.3-.4.6-.4.5 0 1.2 0 1.7-.2 1-.3 1.1-1.3 1.2-4.5l.3-22c0-.7.3-1.3.7-1.3.5 0 1 .6 1.7 1.2.5.5 6.2 6.4 11.8 11.8 2.6 2.6 7.7 7.8 8.3 8.3h.2l-.4-16.5c0-2.3-.4-2.9-1.3-3.3-.6-.2-1.5-.2-2-.2s-.6-.2-.6-.4c0-.3.4-.3 1-.3 2 0 4.1.1 4.9.1.4 0 1.9-.1 3.7-.1.5 0 .9 0 .9.3 0 .2-.2.4-.7.4-.4 0-.7 0-1.2.1-1 .3-1.4 1-1.4 3.1L51 78.7c0 .8-.3 1.2-.6 1.2-.7 0-1.2-.4-1.6-.8-2.4-2.2-7.2-6.8-11.2-10.7-4.2-4-8.2-8.5-9-9.2h-.1l.4 15.3zM62.9 79c-.6-.3-.7-.4-.7-1.3 0-2 .2-4.3.2-4.9 0-.6.2-1 .5-1s.4.3.4.6c0 .5.1 1.3.3 1.9.8 2.7 3.7 3.7 6.1 3.7 3.3 0 5.3-2.1 5.3-4.7 0-1.6-.4-3.2-3.8-5.2L69 66.8c-4.5-2.7-6-5.1-6-8.4 0-4.5 4.4-7.5 9.7-7.5 2.5 0 4.4.3 5.4.6.3.1.5.2.5.5 0 .5-.1 1.5-.1 4.4 0 .8-.2 1.2-.5 1.2s-.4-.2-.4-.7c0-.3-.2-1.5-1-2.4-.6-.7-1.8-1.7-4.3-1.7-2.7 0-5.2 1.4-5.2 4 0 1.7.6 3 4.1 4.9l1.6.9c5.1 2.8 6.6 5.6 6.6 9 0 2.7-1 5-3.8 6.9-1.8 1.3-4.4 1.5-6.4 1.5-2.3 0-4.7-.2-6.3-1zM89.5 62.2v-7.8c-.1-1.3-.5-1.7-1.3-2-.4-.1-.9-.2-1.4-.2-.4 0-.6-.1-.6-.4 0-.2.3-.3.9-.3 1.4 0 4.1.1 5.1.1s3.4-.1 4.9-.1c.5 0 .8.1.8.3 0 .3-.2.4-.6.4s-.7 0-1.1.1c-1 .2-1.4.7-1.4 2-.1 1.2-.1 2.2-.1 7.8v6.5c0 3.6 0 6.5.2 8.1.1 1 .4 1.6 1.5 1.7.5.1 1.4.1 2 .1.4 0 .6.2.6.4 0 .3-.3.4-.7.4-2.5 0-5.1-.1-6.2-.1-.9 0-3.5.1-5 .1-.5 0-.7-.1-.7-.4 0-.2.1-.4.6-.4.6 0 1 0 1.4-.1.8-.2 1-.7 1.1-1.8.2-1.5.2-4.5.2-8.1v-6.3zM109 62.2v-7.8c-.1-1.3-.4-1.7-1.7-2-.3-.1-1-.1-1.5-.1-.4 0-.7-.1-.7-.4 0-.3.3-.3.9-.3 2 0 4.4.1 5.5.1 1.2 0 3.9-.1 6.2-.1 4.8 0 11.2 0 15.4 4.2 1.9 1.9 3.6 5 3.6 9.4 0 4.7-2 8.2-4.2 10.3-1.7 1.7-5.8 4.4-12.9 4.4-1.4 0-3.1-.1-4.6-.2-1.5-.1-2.9-.2-3.9-.2h-2.2c-.9 0-1.9.1-2.7.1-.5 0-.7-.1-.7-.4 0-.2.1-.4.6-.4.6 0 1 0 1.4-.1.8-.2 1-.9 1.1-2 .2-1.6.2-4.5.2-7.9v-6.6zm5.2 4.1c0 3.9 0 6.8.1 7.5 0 .9.1 2.2.4 2.6.5.7 2 1.5 5 1.5 3.5 0 6.1-.6 8.4-2.5 2.5-2 3.3-5.4 3.3-9.2 0-4.7-1.9-7.8-3.6-9.2-3.5-3.1-7.7-3.5-10.7-3.5-.8 0-2 .1-2.4.3-.3.1-.5.3-.5.7v11.8zM146.7 62.2v-7.8c-.1-1.3-.4-1.7-1.7-2-.3-.1-1-.1-1.5-.1-.4 0-.7-.1-.7-.4 0-.3.3-.3.9-.3 2 0 4.4.1 5.5.1h10.5c.7 0 1.3-.2 1.6-.2.2 0 .4-.2.6-.2.2 0 .3.2.3.3 0 .3-.2.7-.3 2.4 0 .4-.1 2-.2 2.4 0 .2-.1.6-.4.6-.3 0-.3-.2-.3-.5s0-.9-.3-1.4c-.3-.7-.6-1.2-2.5-1.4-.7-.1-5.2-.2-6-.2-.2 0-.3.1-.3.3V63c0 .2 0 .4.3.4.9 0 5.8 0 6.7-.1.9-.1 1.5-.2 1.8-.6.3-.3.4-.5.6-.5.2 0 .3.2.3.4s-.1.8-.3 2.7c-.1.7-.2 2.2-.2 2.5 0 .3 0 .8-.4.8-.3 0-.3-.1-.3-.3 0-.4 0-.9-.1-1.4-.2-.7-.7-1.3-2.1-1.4-.7-.1-5.1-.2-6-.2-.2 0-.2.2-.2.4v8.5c.1 2.5 1.3 3.1 5.2 3.1 1 0 2.6 0 3.6-.5 1-.4 1.4-1.2 1.7-2.7.1-.4.2-.6.4-.6.3 0 .3.5.3.9 0 .8-.3 3.4-.5 4.1-.3 1-.6 1-2 1-2.9 0-5.2 0-7.1-.1-1.9 0-3.3-.1-4.4-.1H147c-.9 0-1.9.1-2.7.1-.5 0-.7-.1-.7-.4 0-.2.1-.4.6-.4.6 0 1 0 1.4-.1.8-.2 1-.9 1.1-2 .2-1.6.2-4.5.2-7.9v-6.4zM172.7 62.2v-7.8c-.1-1.3-.4-1.7-1.7-2-.3-.1-1-.1-1.5-.1-.4 0-.7-.1-.7-.4 0-.3.3-.3.9-.3 2 0 4.4.1 5.2.1 1.3 0 4.8-.1 6-.1 2.4 0 5.2.2 7.3 1.6 1.1.7 2.7 2.6 2.7 5.1 0 2.7-1.6 5.2-5.3 8.2 3.4 4.2 6.1 7.5 8.4 9.9 2.1 2.1 3.5 2.3 4.1 2.4.4.1.6.1.9.1.3 0 .5.2.5.4 0 .3-.3.4-.7.4h-3.7c-2.1 0-3.2-.2-4.2-.7-1.7-.8-3.1-2.6-5.2-5.4-1.5-2-3.1-4.5-3.6-5.1-.2-.2-.4-.3-.7-.3l-3.4-.1c-.2 0-.3.1-.3.3v.5c0 3.4 0 6.3.2 7.9.1 1.1.3 1.8 1.5 2 .6.1 1.4.1 1.9.1.3 0 .5.2.5.4 0 .3-.3.4-.8.4-2.2 0-5.4-.1-6-.1-.7 0-3.2.1-4.7.1-.5 0-.7-.1-.7-.4 0-.2.1-.4.6-.4.6 0 1 0 1.4-.1.8-.2 1-.9 1.1-2 .2-1.6.2-4.5.2-7.9v-6.7zm4.9 2.9c0 .4.1.5.3.7.8.3 2 .3 2.9.3 1.5 0 2-.1 2.7-.6 1.2-.8 2.5-2.4 2.5-5.5 0-5.2-3.6-6.6-5.8-6.6-1 0-1.9 0-2.3.1-.3.1-.3.2-.3.5v11.1z"/></g></svg>