<svg xmlns="http://www.w3.org/2000/svg" viewBox="0 0 200 80" enable-background="new 0 0 200 80"><style type="text/css">.st0{fill:#3265AB;} .st1{fill:#636363;}</style><path class="st0" d="M21.6 33.3c-.3-.7-.7-1.5-1.3-2.5s-1.2-1.7-1.8-2.2c-.6-.5-1.2-.9-1.7-.9-.9-.1-2-.2-3.3-.2h-2.3v11.2H12.1c1 0 1.8-.2 2.5-.6.6-.4 1.2-1 1.6-1.9.4-.9.7-1.7.8-2.5h1.5v12H17c-.1-.6-.3-1.3-.6-2.2-.3-.9-.6-1.4-.9-1.7-.2-.4-.7-.7-1.3-.9-.6-.2-1.4-.4-2.2-.4h-.7V50c0 .8.3 1.4.8 1.8.6.4 1.5.7 2.9.8v1.6H.7v-1.6c1.5-.2 2.5-.4 3-.8.4-.3.7-.9.7-1.7v-20c0-.7-.3-1.3-.8-1.8s-1.5-.8-2.8-1v-1.6h22.4v7.6h-1.6zM37.6 51.7c-1.1 1.1-2.1 1.8-2.9 2.3s-1.9.7-3.1.7c-1.7 0-3.1-.5-4.1-1.5-1.1-1-1.6-2.6-1.6-4.8V37.3c0-1.2-.7-2-2.2-2.2v-.9h9.5v14c0 1.1.1 1.9.3 2.4.2.5.7.7 1.3.7.5 0 1-.2 1.5-.5s.8-.7 1.2-1.2V37.3c0-.7-.1-1.2-.4-1.5-.3-.3-.7-.6-1.2-.7v-.9h9v16.9c0 1.2.7 2 2.2 2.2v.9h-9.5v-2.5zM60.9 36.1H57v13.2c0 1.6.4 2.4 1.3 2.4.4 0 .8-.1 1.3-.3.4-.2.8-.5 1.1-.9l.9.9c-.8 1-1.8 1.8-2.9 2.4-1.1.6-2.3.9-3.5.9-1.8 0-3.1-.5-4-1.5-.9-1-1.3-2.4-1.3-4v-13h-2.2V35c1.1-.4 2-.9 2.7-1.3.8-.5 1.4-1 2-1.6.6-.6 1.1-1.3 1.6-2.1s1-1.7 1.4-2.8H57v7h3.9v1.9zM75.5 51.7c-1.1 1.1-2.1 1.8-2.9 2.3s-1.9.7-3.1.7c-1.7 0-3.1-.5-4.1-1.5-1.1-1-1.6-2.6-1.6-4.8V37.3c0-1.2-.7-2-2.2-2.2v-.9H71v14c0 1.1.1 1.9.3 2.4.2.5.7.7 1.3.7.5 0 1-.2 1.5-.5s.8-.7 1.2-1.2V37.3c0-.7-.1-1.2-.4-1.5-.3-.3-.7-.6-1.2-.7v-.9h9v16.9c0 1.2.7 2 2.2 2.2v.9h-9.5v-2.5zM85.6 54.2v-.9c.9-.1 1.5-.4 1.9-.7.4-.3.5-.8.5-1.5V37.3c0-.7-.2-1.2-.5-1.5-.4-.3-1-.6-1.9-.7v-.9h9.3v3.1h.1c.5-1 1.2-1.9 1.9-2.5.8-.7 1.9-1.1 3-1.1.9 0 1.6.3 2.2.8s.8 1.4.8 2.5c0 1-.3 1.7-.9 2.4-.6.6-1.3.9-2.2.9-.4 0-.8-.1-1.1-.2-.3-.1-.6-.3-.9-.6-.2-.2-.5-.4-.7-.5-.2-.1-.5-.2-.8-.2-.8 0-1.2.8-1.2 2.5v7.9c0 1.5.2 2.5.5 3.1.4.6 1.1.9 2.3 1.1v.9H85.6zM110.1 43.6c.1 1 .2 1.9.5 2.8.3.9.7 1.7 1.2 2.3.5.7 1 1.2 1.7 1.6.6.4 1.3.6 2 .6 1.1 0 2-.3 2.7-.9.8-.6 1.4-1.4 2-2.4l1.2.5c-.8 2.1-2 3.7-3.6 4.8-1.6 1.2-3.5 1.7-5.8 1.7-1.3 0-2.5-.3-3.7-.9-1.1-.6-2.1-1.4-3-2.4-.8-1-1.5-2.2-2-3.4-.5-1.3-.7-2.5-.7-3.8 0-1.3.2-2.6.7-3.8.5-1.3 1.1-2.4 2-3.4.8-1 1.8-1.8 3-2.4 1.1-.6 2.4-.9 3.7-.9 1.6 0 3 .3 4.2.8s2.1 1.3 2.9 2.2c.8.9 1.3 2 1.6 3.2.3 1.2.5 2.4.5 3.7h-11.1zm4.6-1.5c0-2.6-.2-4.4-.6-5.4-.4-1-1-1.5-1.7-1.5s-1.3.5-1.7 1.5-.6 2.8-.6 5.4h4.6z"/><path class="st1" d="M143.7 45.9c0 1.7-.4 3.3-1.3 4.7-.8 1.4-2.1 2.5-3.6 3.3-1.6.8-3.3 1.2-5.3 1.2-2.9 0-5.4-.7-7.6-2.2l-1.3 1.4H123l-.3-10.3h1.7c1 3 2.2 5.2 3.6 6.7s2.9 2.3 4.6 2.3c1.5 0 2.6-.4 3.5-1.3.8-.9 1.3-2 1.3-3.4 0-1.1-.3-2-.9-2.7-.6-.7-1.5-1.3-2.7-1.8l-3.3-1.3c-1.8-.7-3-1.2-3.8-1.8-.7-.5-1.3-1.1-1.8-1.8s-.9-1.5-1.1-2.4c-.3-.9-.4-1.9-.4-3 0-1.6.4-3 1.2-4.3.8-1.3 1.9-2.4 3.3-3.1 1.4-.7 3-1.1 4.8-1.1 2.3 0 4.5.6 6.6 1.9l1.1-1.2h1.7l.2 9.7h-1.7c-.7-2.2-1.4-3.9-2-5s-1.3-2-2.1-2.6c-.8-.6-1.7-.9-2.7-.9-1.2 0-2.1.4-2.9 1.2-.8.8-1.1 1.8-1.1 3.1 0 1.2.3 2.1 1 2.8.6.7 1.6 1.3 2.9 1.8l2.8 1.1c2 .7 3.5 1.5 4.4 2.3s1.7 1.7 2.2 2.8c.3 1.2.6 2.5.6 3.9zM164.2 48.1c-.8 2.1-2 3.7-3.6 4.8-1.6 1.2-3.5 1.7-5.8 1.7-1.3 0-2.6-.3-3.8-.8-1.2-.5-2.2-1.3-3.1-2.2-.9-1-1.6-2.1-2-3.4-.5-1.3-.7-2.7-.7-4.2 0-1.3.2-2.6.7-3.9.5-1.3 1.1-2.4 2-3.4.9-1 2-1.8 3.2-2.4 1.3-.6 2.7-.9 4.3-.9 1.3 0 2.5.2 3.5.5s1.8.8 2.4 1.3c.6.5 1.1 1.1 1.4 1.8.3.6.5 1.3.5 1.9 0 1.1-.3 2-.9 2.6-.6.6-1.4.9-2.4.9s-1.7-.3-2.3-.9c-.6-.6-.9-1.3-.9-2.1 0-.3 0-.7.1-1.3.1-.5.1-.9.1-1.2 0-.6-.2-1.1-.5-1.5-.3-.4-.6-.6-1-.6-.8 0-1.4.5-1.9 1.5s-.7 2.7-.7 5.1c0 2.9.5 5.1 1.5 6.7 1 1.6 2.4 2.4 4.2 2.4.8 0 1.7-.3 2.6-.9.9-.6 1.6-1.4 2.1-2.3l1 .8zM184 48.1c-.5 1.3-1.2 2.4-2.1 3.4-.9 1-2 1.8-3.3 2.4-1.3.6-2.8.9-4.4.9s-3.1-.3-4.4-.9c-1.3-.6-2.4-1.4-3.3-2.4-.9-1-1.6-2.1-2.1-3.4-.5-1.3-.7-2.5-.7-3.9 0-1.3.2-2.6.7-3.9.5-1.3 1.2-2.4 2.1-3.4.9-1 2-1.8 3.3-2.4 1.3-.6 2.8-.9 4.4-.9s3.1.3 4.4.9c1.3.6 2.4 1.4 3.3 2.4.9 1 1.6 2.2 2.1 3.4.5 1.3.7 2.5.7 3.9 0 1.3-.2 2.6-.7 3.9zm-7.2-8.5c-.1-1.2-.3-2.1-.5-2.8-.2-.6-.5-1.1-.8-1.3-.3-.2-.7-.4-1.2-.4s-.9.1-1.2.4c-.3.2-.6.7-.8 1.3-.2.6-.4 1.6-.5 2.8-.1 1.2-.2 2.7-.2 4.6s.1 3.4.2 4.6c.1 1.2.3 2.1.5 2.8s.5 1.1.8 1.4c.3.2.7.4 1.2.4s.9-.1 1.2-.4c.3-.2.6-.7.8-1.4.2-.7.4-1.6.5-2.8.1-1.2.2-2.7.2-4.6s-.1-3.4-.2-4.6zM198.7 36.1h-3.9v13.2c0 1.6.4 2.4 1.3 2.4.4 0 .8-.1 1.3-.3.4-.2.8-.5 1.1-.9l.9.9c-.8 1-1.8 1.8-2.9 2.4-1.1.6-2.3.9-3.5.9-1.8 0-3.1-.5-4-1.5-.9-1-1.3-2.4-1.3-4v-13h-2.2V35c1.1-.4 2-.9 2.7-1.3.8-.5 1.4-1 2-1.6.6-.6 1.1-1.3 1.6-2.1s1-1.7 1.4-2.8h1.7v7h3.9v1.9z"/></svg>