<svg xmlns="http://www.w3.org/2000/svg" viewBox="0 0 200 80" enable-background="new 0 0 200 80"><style type="text/css">.st0{fill:#0A9600;}</style><g id="techcrunch_2_"><path class="st0" d="M75.4 36.9v12.4h-4.5V36.9h-4.6V33H80v3.9h-4.6zM90.6 44.4h-7.2c.1 1.4.9 2 2.1 2 1.1 0 2-.2 3.2-.9l1.6 2.7c-1.5.9-3.1 1.4-5 1.4-3.7 0-5.7-2.6-5.7-6.4 0-4.2 2.4-6.4 5.6-6.4 3.4 0 5.5 2.2 5.5 6.8-.1.3-.1.6-.1.8zM85 39.9c-1 0-1.5.7-1.6 1.9h3.5c-.2-1.3-.7-1.9-1.9-1.9zM98.4 49.6c-3.6 0-5.7-2.3-5.7-6.4 0-3.8 1.9-6.3 5.8-6.3 2.3 0 3.6 1.1 4.7 2.8l-2.9 2.2c-.6-1.1-1-1.6-1.9-1.6-1.1 0-1.6 1.1-1.6 3s.6 2.9 1.7 2.9c.8 0 1.4-.4 2.1-1.6l2.7 2.1c-1.4 2-2.8 2.9-4.9 2.9zM112.7 49.3v-6.9c0-1.6-.5-2-1.4-2-.9 0-1.4.4-1.4 2v7h-4.2V34l4.2-1.7v5.6c.8-.6 1.6-1.1 3.1-1.1 2.7 0 4 1.8 4 5v7.5h-4.3z"/><path d="M126.9 49.6c-4.8 0-7.4-3.6-7.4-8.4 0-5.2 3.1-8.4 7.5-8.4 4 0 5.6 1.7 6.7 4.8l-4.1 1.6c-.6-1.5-1.1-2.5-2.6-2.5-1.9 0-2.7 1.9-2.7 4.5 0 2.5.8 4.5 2.8 4.5 1.4 0 2-.8 2.9-2.3l3.8 2c-1.2 2.1-3 4.2-6.9 4.2zM144 41.7c-.5-.6-1.1-1-2-1-1 0-1.7.5-1.7 2v6.7h-4.2V37.1h4.2v.9c.7-.7 1.5-1.1 2.6-1.1.9 0 1.5.2 2 .5l-.9 4.3zM154 49.3v-.8c-.7.6-1.6 1.1-3.1 1.1-2.7 0-4-1.8-4-5v-7.5h4.2V44c0 1.6.5 2 1.4 2s1.4-.4 1.4-2v-7h4.2v12.2H154zM168.3 49.3v-6.9c0-1.6-.5-2-1.4-2-.9 0-1.4.4-1.4 2v7h-4.2V37.1h4.2v.8c.8-.6 1.6-1.1 3.1-1.1 2.7 0 4 1.8 4 5v7.5h-4.3zM180.7 49.6c-3.6 0-5.7-2.3-5.7-6.4 0-3.8 1.9-6.3 5.8-6.3 2.3 0 3.6 1.1 4.7 2.8l-2.9 2.2c-.6-1.1-1-1.6-1.9-1.6-1.1 0-1.6 1.1-1.6 3s.6 2.9 1.7 2.9c.8 0 1.4-.4 2.1-1.6l2.7 2.1c-1.4 2-2.8 2.9-4.9 2.9zM195 49.3v-6.9c0-1.6-.5-2-1.4-2-.9 0-1.4.4-1.4 2v7H188V34l4.2-1.7v5.6c.8-.6 1.6-1.1 3.1-1.1 2.7 0 4 1.8 4 5v7.5H195z"/><path class="st0" d="M1 26v9h9v19h10V35h9v-9zM38 45V35h-9v19h27v-9zM38 26h18v9H38z"/></g></svg>