<svg xmlns="http://www.w3.org/2000/svg" viewBox="0 0 200 80" enable-background="new 0 0 200 80"><style type="text/css">.st0{opacity:0.8;} .st1{fill:none;} .st2{fill:#5F5F5F;} .st3{fill:#343334;} .st4{fill:#6A6A6A;}</style><g class="st0"><path class="st1" d="M27 36.3c-1.7.7-2.7 2.5-3.1 4.3h9.7c-.2-1-.4-2-1.1-2.9-1.2-1.7-3.6-2.2-5.5-1.4zM115.3 47.8c-.3 1.2.4 2.6 1.7 2.9 1.7.5 3.9.3 5.1-1.2 1.1-1.5 1.1-3.5 1.1-5.4-2 .9-4.2.8-6.1 1.6-.9.4-1.6 1.1-1.8 2.1zM166 50.6c1.7.6 4.1.4 5.3-1.1 1.1-1.5 1.1-3.5 1.1-5.4-2.2 1-4.9.7-6.9 2.1-1.5 1.1-1.3 3.8.5 4.4zM143 37c-1 .3-1.8.9-2.4 1.8-1.1 1.7-1.2 3.8-1 5.8.2 1.5.7 3.2 1.9 4.2 1.7 1.6 4.7 1.3 6.1-.5 1-1.3 1.2-3.1 1.3-4.7 0-1.8-.3-3.8-1.4-5.3-1.1-1.4-3-1.8-4.5-1.3z"/><path class="st2" d="M12.6 48.9c-1-.5-1-1.7-1-2.7v-9.9h4.8v-5.1h-4.8v-6.9H3.9v6.9H0v5.1h4v12.1c.1 2.1.6 4.7 2.7 5.8 3.1 1.4 6.5.8 9.8.7v-5.8c-1.3.1-2.7.4-3.9-.2zM81.6 30.6c-2.9 0-5.9 1.4-7.3 3.9.1-3.4 0-6.8 0-10.2h-7.7c0 6.9 0 13.7-.1 20.6 0 .3-.1.6-.3.8-2.4-.3-4.8-.1-7.2-.1-.3 1.2-.7 2.5-1.8 3.2-1.6 1.1-4.1 1.1-5.5-.4-1.4-1.3-1.7-3.3-1.8-5.1 0-1.7.2-3.6 1.2-5 1.5-2.1 4.9-2.4 6.7-.5.6.6.7 1.4.9 2.1h7.6c-.2-1.9-.8-3.8-2.1-5.3-1.8-2.3-4.6-3.5-7.4-3.9-2.4-.3-5-.2-7.3.7-2.2.8-4.1 2.4-5.3 4.4-1.9 3-2.4 6.6-1.8 10.1.6 3.5 2.9 6.7 6.1 8.3 5 2.4 11.6 1.7 15.5-2.4.2-.3.3-.7.6-1 1.1-1.2 1.1-2.9 1.9-4.2.1 2.8 0 5.6 0 8.3h7.7V42.7c0-1.5.2-3 1.1-4.2 1.2-1.6 3.8-1.8 5.4-.8 1.3.9 1.4 2.7 1.5 4.1V55h7.7V38.9c-.1-2.2-.6-4.6-2.3-6.2-1.4-1.6-3.8-2.1-6-2.1zM36.5 32.8c-5.1-3.5-12.8-2.8-17 1.7-2.2 2.2-3.4 5.4-3.3 8.5-.1 2.9.7 5.9 2.6 8.2 1.9 2.4 4.9 3.8 7.9 4.2 3.4.4 7 .1 10-1.7 2.2-1.3 3.8-3.5 4.4-6h-7.3c-1.5 3-6.1 3.4-8.4 1.1-1-1-1.3-2.5-1.5-3.8h17.5c.2-4.5-1.1-9.5-4.9-12.2zm-12.6 7.8c.3-1.8 1.3-3.6 3.1-4.3 1.9-.8 4.4-.3 5.6 1.4.6.8.9 1.9 1.1 2.9h-9.8z"/><path class="st3" d="M148.6 34.1c-3.1-4.4-10.3-4.3-13.8-.4-2.3 2.5-3.2 6-3.1 9.3 0 3.6.9 7.3 3.4 10 2 2.1 4.9 3.1 7.8 2.9 2.4 0 4.7-1.4 6.1-3.3v2.7h7.4V24.4h-7.7c-.1 3.1-.1 6.4-.1 9.7zm-1 14.1c-1.4 1.8-4.4 2.1-6.1.5-1.2-1.1-1.7-2.7-1.9-4.2-.2-2-.1-4.1 1-5.8.5-.9 1.4-1.5 2.4-1.8 1.6-.5 3.5 0 4.5 1.3 1.2 1.5 1.4 3.4 1.4 5.3-.1 1.7-.3 3.4-1.3 4.7zM107.9 31.1c-1.7-.3-3.5-.2-5.2.4-1.8.7-3.1 2.2-3.9 3.9v-4h-7.6V55h7.7V43.4c0-1.9.9-3.8 2.6-4.8 1.9-1.2 4.2-1 6.3-.4.1-2.3.1-4.7.1-7.1zM130.7 37.7c-.1-1.7-.8-3.3-2-4.5-2-1.8-4.8-2.3-7.4-2.4-3.3-.1-6.9.1-9.8 2-2 1.3-3 3.6-3.1 6h7.3c.3-1.2 1.1-2.3 2.3-2.7 1.6-.4 3.5-.3 4.7.9 1 1 .6 3-.8 3.3-3.7 1-7.7.7-11.1 2.5-1.6.8-2.8 2.4-3.1 4.2-.3 2-.2 4.3 1.1 6 1.2 1.7 3.2 2.6 5.2 2.8 3.3.4 6.9-.3 9.4-2.7.2.7 0 1.6.5 2.1 2.6.1 5.2 0 7.8 0-.5-1.2-.8-2.5-.8-3.9-.3-4.6-.1-9.1-.2-13.6zm-8.6 11.8c-1.2 1.4-3.4 1.7-5.1 1.2-1.2-.3-1.9-1.7-1.7-2.9.1-.9.9-1.6 1.8-2 2-.8 4.2-.8 6.1-1.6 0 1.8 0 3.8-1.1 5.3zM179.9 37.7c-.1-1.5-.6-3-1.7-4.2-1.9-2-4.8-2.5-7.4-2.7-3.4-.1-7.1 0-10.1 2-2 1.3-3.1 3.6-3.1 6h7.3c.3-1.2 1.1-2.3 2.3-2.7 1.6-.4 3.5-.3 4.7.9 1 1 .6 3-.8 3.3-3.7.9-7.7.7-11.1 2.5-1.6.8-2.8 2.4-3.1 4.2-.3 2-.2 4.3 1.1 6 1.2 1.7 3.2 2.6 5.2 2.8 3.3.4 7-.3 9.4-2.7l.3 2.1c2.7.1 5.3 0 8 .1-.5-1.2-.8-2.5-.9-3.9-.2-4.7 0-9.2-.1-13.7zm-8.6 11.8c-1.2 1.5-3.6 1.7-5.3 1.1-1.8-.6-2-3.3-.5-4.3 2.1-1.4 4.7-1.1 6.9-2.1 0 1.7 0 3.8-1.1 5.3zM198.3 38.3v-7.2c-1.7-.3-3.5-.2-5.1.4-1.8.7-3.1 2.2-3.9 3.9v-4h-7.6V55h7.7c0-4-.1-8 0-11.9 0-2.3 1.6-4.4 3.8-5.1 1.7-.4 3.5-.1 5.1.3z"/><path class="st4" d="M200 46.6h-8.5v8.6h8.5v-8.6z"/></g></svg>