<svg xmlns="http://www.w3.org/2000/svg" viewBox="0 0 200 80" enable-background="new 0 0 200 80"><style type="text/css">.st0{opacity:0.8;} .st1{fill:#A9A9A9;} .st2{fill:#5B5B5B;}</style><g class="st0"><path class="st1" d="M195.4 58.9h-7.9c-1.4-2.5-2.8-5.2-4.3-7.9l-3.6 3.6c-.4 1.4-.8 2.8-1.1 4.2h-6.2V31.2h6.9V44l1.3 1.3c1.8-2.2 3.6-4.3 5.2-6.3h8.4l-6.5 6.5c2.7 4.6 5.1 8.8 7.8 13.4zM161.4 52.7c2.1-4.6.9-9.1 1.3-13.6h6.2v19.6h-6.1c-.1-.8-.2-1.8-.3-2.9-.2.1-.5 0-.6.2-1 .9-1.9 1.9-2.6 2.6-1.2.3-2.2.5-3.1.8-2.5.8-4.5-.3-6.2-1.8-1.3-1.2-1.7-3-1.7-4.8V39.1h7.1v13.1c1 .6 2 1.2 3.1 1.9.9-.3 1.9-.9 2.9-1.4zM117.7 39c3.6.4 7.5-.8 11.1.8.2.2.4.4.6.5 2.9 2.3 4.4 5.2 3.9 9.1-.2 1.4 0 2.9 0 4.3-5.5 5.2-3.2 5.6-16 5.2-1.2-.8-2.3-1.2-3.1-2-.7-.7-1.2-1.6-1.7-2.4-1.8-3.4-2.2-6.9-.6-10.4.5-1.1 2.1-1.5 2.8-2.7.6-1.1 1.9-1.6 3-2.4zm7.1 15.1c.4-.8.7-1.2.9-1.7 1.6-4 1.1-6.7-1.8-8.6-.6-.4-1.3-.5-1.8-.7-4.8 1.2-4.1 4.9-4 8.4.9 1.2 1.8 2.4 2.7 3.8 1.5-.5 2.8-.9 4-1.2zM103.7 39c1.5 1.3 3.1 2.7 4.8 4.1v2.1h-5.4l-4.6-2.3c-2.2.8-4.1 1.9-4.8 4.4-.3 2-.4 4.1.9 5.8.6.8 1.8 1.4 2.8 1.7 1.8.6 3.9-.7 5.2-3.3 2.1.3 4.3.7 6.7 1.1-.5 1.1-1 2.1-1.5 3.2-.7 1.5-2.1 2.3-3.4 2.8-1.9.6-3.9 1-5.9 1-2.1 0-4.3-.3-6.3-1-1.8-.6-3.4-1.8-4.2-3.7-1.2-3-2.6-5.9-.9-9.4 1.2-2.4 2.3-4.1 5.2-5.8.3-.2.6-.5.9-.8 3.2.1 6.7.1 10.5.1zM76.7 51.3v-3.2c.6-.5 1.3-1.2 2-1.9 1.9-.5 2.4 1.2 3.5 1.9v2.5l-2 2c-1.2-.1-2.6.3-3.5-1.3zM140.1 52.7l-2.1-2.1v-2.4c1-.9 1.6-2.4 3.6-2 .5.6 1.2 1.3 1.9 2v2.3c-1.2.8-2.3 1.5-3.4 2.2z"/><path class="st2" d="M50.4 41.5c-.2-3.2-.2-5.7 3.3-6.9 2.7-.9 4.6-3.3 3.9-6.2-.4-1.7-2.5-4.2-3.9-4.2-2.1-.1-4.6 1.3-6.3 2.8-2 1.7-8.1 2.6-10 .6-.4-.4-.5-1.5-.3-2.1.4-1.1 1.1-2.1 1.9-3 5.1-5.9 20.2-6.8 26.1-1.7 4.3 3.8 4.4 10 .4 14.1-.7.7-1.5 1.4-2.5 2.3.6.6 1 1.4 1.6 1.7 8.5 3.3 7.1 14.5 1.8 19.3-6.5 6-21.5 5.6-27.4-.9-1.4-1.5-2.2-3.4-3.9-6 3.8-.6 6.7-1.3 9.6-1.4.8 0 1.9 1.5 2.5 2.6 1.8 3.1 4.5 4 7.8 3.3 3.1-.7 4.9-4.3 4.4-8.4-.4-3.4-2.3-5.2-5.6-5.6-1-.1-2.1-.2-3.4-.3zM4.7 23.4c2.5 0 4.8.2 7 0 3.2-.3 4.9 1 5.7 4.1 1.3 4.9 2.8 9.7 4.2 14.5.4 1.2.9 2.4 1.7 4.7 1-2 1.7-3 2-4.1 1.6-5.3 3-10.7 4.8-16 .5-1.4 1.9-2.4 2.9-3.6.3.2.6.5.9.7-.2 2-1.2 4.4-.5 5.9.7 1.3 3.4 1.6 5.7 2.6-1.4 3.7-2.8 7.3-4.2 11-1.7 4.3-3.5 8.6-5.1 12.9-1 2.8-3.3 2.7-5.6 2.5-2.6-.2-5.8 1.3-7.3-2.3-4.1-10.3-8.1-20.7-12.2-31-.1-.4 0-.9 0-1.9z"/></g></svg>