<svg xmlns="http://www.w3.org/2000/svg" viewBox="0 0 836.99 208.05"><defs><style>.cls-1{isolation:isolate;}.cls-2,.cls-3,.cls-9{fill:#00e9d0;}.cls-3{opacity:0.42;}.cls-4,.cls-5,.cls-7,.cls-8{fill:#4b86d0;}.cls-4{opacity:0.62;}.cls-4,.cls-5,.cls-6,.cls-8{mix-blend-mode:multiply;}.cls-8{opacity:0.52;}.cls-9{opacity:0.54;}</style></defs><title>LAPTOP-BUBBLES</title><g class="cls-1"><g id="Layer_2" data-name="Layer 2"><g id="Layer_1-2" data-name="Layer 1"><path class="cls-2" d="M433.11,92.17h-6.06l-4.68,2.7c0,.11,0,.23,0,.34s0,.23,0,.34l6,3.47a4.27,4.27,0,1,1-1.85,3.51c0-.12,0-.23,0-.34l-6-3.47a4.26,4.26,0,0,1-4.85,0l-6,3.47c0,.11,0,.23,0,.34a4.27,4.27,0,0,1-2.44,3.85v6.93a4.45,4.45,0,0,1,.59.34l6-3.47c0-.11,0-.23,0-.34a4.27,4.27,0,1,1,8.54,0c0,.12,0,.23,0,.34l6,3.47a4.27,4.27,0,1,1-1.85,3.51c0-.12,0-.23,0-.34l-6-3.47a4.26,4.26,0,0,1-4.85,0l-6,3.47c0,.11,0,.23,0,.34a4.27,4.27,0,0,1-2.44,3.85V128a4.3,4.3,0,0,1,.59.34l6-3.47c0-.11,0-.23,0-.34a4.27,4.27,0,1,1,1.85,3.51l-6,3.47c0,.11,0,.23,0,.34a4.27,4.27,0,1,1-6.1-3.85V121a4.32,4.32,0,0,1-.59-.34l-6,3.47c0,.11,0,.23,0,.34a4.27,4.27,0,1,1-1.85-3.51l6-3.47c0-.11,0-.23,0-.34a4.27,4.27,0,0,1,2.44-3.86v-6.93a4.27,4.27,0,0,1-2.44-3.85c0-.12,0-.23,0-.34l-6-3.47a4.18,4.18,0,0,1-.6.34V106a4.27,4.27,0,1,1-4.26,7.37l-6,3.47c0,.11,0,.23,0,.34a4.27,4.27,0,1,1-1.85-3.51l6-3.47c0-.11,0-.23,0-.34a4.27,4.27,0,0,1,2.44-3.86V99.07a4.27,4.27,0,0,1-2.44-3.85c0-.12,0-.23,0-.34l-4.68-2.7H381.9v6.51a4.27,4.27,0,1,1-3.66,0V92.17H343.63a8.28,8.28,0,0,0-8.26,8.26v55.75a8.28,8.28,0,0,0,8.26,8.26H347a15.87,15.87,0,0,1-8.24,9.75,15.49,15.49,0,0,0,21-9.75h73.35a8.28,8.28,0,0,0,8.26-8.26V100.43A8.28,8.28,0,0,0,433.11,92.17Z"/><path class="cls-2" d="M397,95.22c0,.12,0,.23,0,.34L403,99a4.26,4.26,0,0,1,4.85,0l6-3.47c0-.11,0-.23,0-.34s0-.23,0-.34l-4.68-2.7H395.73A4.24,4.24,0,0,1,397,95.22Z"/><path class="cls-2" d="M215.76,60.36h-76a7,7,0,0,0-7,7v47.37a7,7,0,0,0,7,7h56.7a13.16,13.16,0,0,0,17.8,8.28,13.49,13.49,0,0,1-7-8.28h8.52a7,7,0,0,0,7-7V67.37A7,7,0,0,0,215.76,60.36Z"/><path class="cls-3" d="M260.16,129.29h63.48a5.88,5.88,0,0,1,5.86,5.86v39.56a5.88,5.88,0,0,1-5.86,5.86h-2.43a11.26,11.26,0,0,0,5.84,6.92,11,11,0,0,1-14.87-6.92h-52a5.88,5.88,0,0,1-5.86-5.86V135.15A5.88,5.88,0,0,1,260.16,129.29Z"/><path class="cls-4" d="M212.26,88.93c-31.44,0-56.92,17.11-56.92,38.22,0,11.49,7.56,21.79,19.52,28.8a17.34,17.34,0,0,1-9.72,15.43,17,17,0,0,0,22.63-9.72,80.5,80.5,0,0,0,24.49,3.71c31.44,0,56.92-17.11,56.92-38.22S243.7,88.93,212.26,88.93Z"/><path class="cls-5" d="M755.34,97.44c-15.09,0-27.32,8.21-27.32,18.34,0,5.52,3.63,10.46,9.37,13.82a8.32,8.32,0,0,1-4.67,7.4,8.15,8.15,0,0,0,10.86-4.66,38.63,38.63,0,0,0,11.75,1.78c15.09,0,27.32-8.21,27.32-18.34S770.42,97.44,755.34,97.44Z"/><g class="cls-6"><path class="cls-2" d="M583.78,140.17a18.64,18.64,0,0,0,1.46-7.17c0-14.67-17.6-26.56-39.31-26.56-17.65,0-32.59,7.86-37.55,18.69-14.32,1.58-25.4,12.08-25.4,24.8,0,13.82,13,25,29.14,25a33.63,33.63,0,0,0,8.09-1c4.6,7,13.77,11.76,24.35,11.76,11,0,20.44-5.13,24.85-12.54A17.13,17.13,0,0,0,577,175a17.85,17.85,0,0,0,17.59-18.09A18.1,18.1,0,0,0,583.78,140.17Z"/><ellipse class="cls-2" cx="509.09" cy="188.04" rx="7.97" ry="5.39"/><ellipse class="cls-2" cx="517.89" cy="204.2" rx="5.22" ry="3.85"/></g><g class="cls-6"><path class="cls-7" d="M345.46,98.75a13.34,13.34,0,0,0,1.22-5.54c0-10.43-12.52-18.89-28-18.89-12.56,0-23.19,5.59-26.72,13.29-10.19,1.12-18.07,8.59-18.07,17.65,0,9.83,9.28,17.8,20.73,17.8a23.93,23.93,0,0,0,5.75-.7c3.27,5,9.8,8.37,17.33,8.37s14.21-3.48,17.44-8.55a12.18,12.18,0,0,0,4.54.88,12.7,12.7,0,0,0,12.52-12.87A12.91,12.91,0,0,0,345.46,98.75Z"/><ellipse class="cls-7" cx="292.5" cy="132.37" rx="5.67" ry="3.83"/><ellipse class="cls-7" cx="298.76" cy="143.87" rx="3.72" ry="2.74"/></g><path class="cls-2" d="M49.85,17a9.3,9.3,0,0,0,.85-3.86C50.7,5.89,42,0,31.21,0,22.46,0,15.05,3.9,12.59,9.26,5.49,10,0,15.25,0,21.56,0,28.41,6.47,34,14.45,34a16.67,16.67,0,0,0,4-.49c2.28,3.47,6.83,5.83,12.07,5.83s9.9-2.42,12.15-6a8.49,8.49,0,0,0,3.17.61,8.85,8.85,0,0,0,8.72-9A9,9,0,0,0,49.85,17Z"/><ellipse class="cls-2" cx="12.95" cy="40.45" rx="3.95" ry="2.67"/><ellipse class="cls-2" cx="17.31" cy="48.47" rx="2.59" ry="1.91"/><path class="cls-8" d="M599.31,69.13a34.89,34.89,0,0,0-22.09,62.11,12.75,12.75,0,0,1-7,9.41,12.46,12.46,0,0,0,15.24-4.45,35,35,0,1,0,13.83-67.07Z"/><path class="cls-2" d="M810,24.22a26.76,26.76,0,0,0-16.95,47.64,9.78,9.78,0,0,1-5.35,7.22,9.56,9.56,0,0,0,11.69-3.42A26.84,26.84,0,1,0,810,24.22Z"/><path class="cls-5" d="M121.27,84.16a27,27,0,0,0-17.09,48,9.86,9.86,0,0,1-5.4,7.28A9.64,9.64,0,0,0,110.57,136a27.07,27.07,0,1,0,10.7-51.88Z"/><path class="cls-9" d="M706.53,157.06c-.11,0-.22,0-.33,0a3.74,3.74,0,0,1-3.74-3.74c0-.1,0-.2,0-.3l-5.26-3a3.74,3.74,0,0,1-4.25,0l-5.26,3c0,.1,0,.2,0,.3a3.74,3.74,0,0,1-2.14,3.38v6.08a3.91,3.91,0,0,1,.52.3l5.26-3c0-.1,0-.2,0-.3a3.74,3.74,0,1,1,7.48,0c0,.1,0,.2,0,.3l5.26,3a3.73,3.73,0,0,1,2-.65,6.59,6.59,0,0,0,.47-2.43Z"/><path class="cls-9" d="M704.07,150.27a3.73,3.73,0,0,1,2.13-.66c.11,0,.22,0,.33,0v-5.41c-.11,0-.22,0-.33,0a3.72,3.72,0,0,1-2.13-.66l-5.26,3c0,.1,0,.2,0,.3s0,.2,0,.3Z"/><path class="cls-9" d="M680.23,166.18a3.74,3.74,0,0,1,2.14-3.38v-6.08a3.74,3.74,0,0,1-2.14-3.38c0-.1,0-.2,0-.3L675,150a3.64,3.64,0,0,1-.52.3v6.08a3.74,3.74,0,1,1-3.73,6.46l-5.26,3c0,.1,0,.2,0,.3a3.73,3.73,0,0,1,0,.49h14.47l.33-.19C680.23,166.38,680.23,166.28,680.23,166.18Z"/><path class="cls-9" d="M658,166.18a3.74,3.74,0,0,1,5.87-3.08l5.26-3c0-.1,0-.2,0-.3a3.74,3.74,0,0,1,2.14-3.38v-6.08a3.74,3.74,0,0,1-2.14-3.38c0-.1,0-.2,0-.3l-5.26-3a3.67,3.67,0,0,1-.52.3V150a3.74,3.74,0,1,1-3.21,0V143.9a3.74,3.74,0,1,1,5.35-3.38c0,.1,0,.2,0,.3l5.26,3a3.78,3.78,0,0,1,.52-.3v-6.08a3.74,3.74,0,1,1,3.21,0v6.08a3.74,3.74,0,0,1,2.14,3.38c0,.1,0,.2,0,.3l5.26,3a3.74,3.74,0,0,1,4.25,0l5.26-3c0-.1,0-.2,0-.3s0-.2,0-.3l-5.26-3a3.74,3.74,0,1,1-3.73-6.46v-6.08a3.74,3.74,0,1,1,3.21,0v6.08a3.74,3.74,0,0,1,2.14,3.38c0,.1,0,.2,0,.3l5.26,3a3.74,3.74,0,0,1,4.25,0l5.26-3c0-.1,0-.2,0-.3s0-.2,0-.3l-5.26-3a3.74,3.74,0,1,1,1.62-3.08c0,.1,0,.2,0,.3l5.26,3a3.72,3.72,0,0,1,2.13-.66c.11,0,.22,0,.33,0V115.07a6.68,6.68,0,0,0-6.66-6.66H627.73a6.68,6.68,0,0,0-6.66,6.66V160a6.68,6.68,0,0,0,6.66,6.66h2.76a12.8,12.8,0,0,1-6.64,7.86,12.49,12.49,0,0,0,16.89-7.86h17.31A3.67,3.67,0,0,1,658,166.18Z"/><path class="cls-9" d="M702.47,165.88l-5.26-3a3.73,3.73,0,0,1-4.25,0l-5.26,3c0,.1,0,.2,0,.3a3.73,3.73,0,0,1,0,.49h12.19a6.6,6.6,0,0,0,2.58-.52C702.45,166.06,702.46,166,702.47,165.88Z"/><path class="cls-5" d="M424.4,86.31a27.8,27.8,0,0,0-2.27,4.47l4.41-2.55c0-.11,0-.23,0-.34s0-.23,0-.34Z"/><path class="cls-5" d="M510.24,123.65c8.72-6.24,14.07-14.63,14.07-23.86,0-19.27-23.27-34.9-52-34.9-19.83,0-37.06,7.46-45.82,18.42l1.85,1.07a4.27,4.27,0,1,1,0,7l-6,3.47c0,.11,0,.23,0,.34s0,.23,0,.34l6,3.47a4.27,4.27,0,1,1-1.85,3.51c0-.12,0-.23,0-.34l-6-3.47-.13.08c0,.33,0,.65,0,1a24.11,24.11,0,0,0,1.28,7.68,4.25,4.25,0,0,1,.69,1.83c.17.4.34.81.54,1.2l5.49,3.17a4.27,4.27,0,1,1,3.17,7.72c9.52,8.1,24.25,13.3,40.81,13.3a71.75,71.75,0,0,0,26.88-5,15.49,15.49,0,0,0,19.86,7.07A15.84,15.84,0,0,1,510.24,123.65Z"/><path class="cls-5" d="M51.56,88.12a3.35,3.35,0,0,1,1.91-3V79.66a3.35,3.35,0,0,1-1.91-3c0-.09,0-.18,0-.27l-4.71-2.72a3.29,3.29,0,0,1-.47.27v5.44a3.35,3.35,0,1,1-3.34,5.78l-1.79,1a30,30,0,0,0,6.65,4.33l3.65-2.11C51.57,88.3,51.56,88.21,51.56,88.12Z"/><path class="cls-5" d="M48.32,59.41a3.34,3.34,0,0,1-1.91,3v5.44a3.35,3.35,0,0,1,1.91,3c0,.09,0,.18,0,.27L53,73.88a3.34,3.34,0,0,1,3.8,0l4.71-2.72c0-.09,0-.18,0-.27s0-.18,0-.27l-4.71-2.72a3.35,3.35,0,1,1-3.34-5.78V56.69a3.35,3.35,0,0,1-1.88-2.55,36.13,36.13,0,0,0-5.13,2.29A3.34,3.34,0,0,1,48.32,59.41Z"/><path class="cls-5" d="M53,90.87l-1.78,1c.73.27,1.48.52,2.25.75V91.14A3.37,3.37,0,0,1,53,90.87Z"/><path class="cls-5" d="M89.92,87.77c5.36-3.84,8.65-9,8.65-14.68,0-11.85-14.31-21.46-32-21.46a46.76,46.76,0,0,0-8.6.79,3.33,3.33,0,0,1-1.67,4.27v5.44a3.35,3.35,0,0,1,1.91,3c0,.09,0,.18,0,.27L63,68.14a3.34,3.34,0,0,1,3.8,0l4.71-2.72c0-.09,0-.18,0-.27s0-.18,0-.27l-4.71-2.72a3.35,3.35,0,1,1,1.45-2.76c0,.09,0,.18,0,.27L72.9,62.4a3.35,3.35,0,1,1,0,5.51l-4.71,2.72c0,.09,0,.18,0,.27s0,.18,0,.27l4.71,2.72a3.35,3.35,0,1,1-1.45,2.76c0-.09,0-.18,0-.27l-4.71-2.72a3.34,3.34,0,0,1-3.8,0l-4.71,2.72c0,.09,0,.18,0,.27a3.35,3.35,0,0,1-1.91,3v5.44a3.5,3.5,0,0,1,.47.27l4.71-2.72c0-.09,0-.18,0-.27a3.35,3.35,0,1,1,6.7,0c0,.09,0,.18,0,.27l4.71,2.72a3.35,3.35,0,1,1-1.45,2.76c0-.09,0-.18,0-.27l-4.71-2.72a3.34,3.34,0,0,1-3.8,0l-4.71,2.72c0,.09,0,.18,0,.27a3.34,3.34,0,0,1-1.91,3v2.27a44.9,44.9,0,0,0,5,.84l.22-.12c0-.09,0-.18,0-.27a3.35,3.35,0,1,1,6.63.66,43.7,43.7,0,0,0,15-3.06,9.53,9.53,0,0,0,12.21,4.35A9.74,9.74,0,0,1,89.92,87.77Z"/><path class="cls-5" d="M38.37,65.15c0,.09,0,.18,0,.27l4.71,2.72a3.38,3.38,0,0,1,.47-.27V62.43a3.34,3.34,0,0,1-1.89-2.73A22.67,22.67,0,0,0,38,63.58,3.31,3.31,0,0,1,38.37,65.15Z"/><path class="cls-5" d="M41.62,82.38a3.35,3.35,0,0,1,1.91-3V73.92a3.34,3.34,0,0,1-1.91-3c0-.09,0-.18,0-.27l-4.71-2.72a3.28,3.28,0,0,1-.47.27v5.44a3.34,3.34,0,0,1-.23,6.14,19.07,19.07,0,0,0,2.93,4.32l2.47-1.43C41.62,82.56,41.62,82.47,41.62,82.38Z"/><g class="cls-6"><path class="cls-7" d="M731.39,74.27a12,12,0,0,0,1.1-5c0-9.41-11.3-17-25.23-17-11.33,0-20.92,5-24.1,12-9.19,1-16.3,7.75-16.3,15.92,0,8.87,8.37,16.06,18.7,16.06a21.58,21.58,0,0,0,5.19-.63c3,4.49,8.84,7.55,15.63,7.55s12.82-3.14,15.73-7.71a11,11,0,0,0,4.1.79A11.45,11.45,0,0,0,737.5,84.59,11.65,11.65,0,0,0,731.39,74.27Z"/><ellipse class="cls-7" cx="683.62" cy="104.6" rx="5.12" ry="3.46"/><ellipse class="cls-7" cx="689.26" cy="114.97" rx="3.35" ry="2.47"/></g></g></g></g></svg>