<svg xmlns="http://www.w3.org/2000/svg" viewBox="0 0 1162.49 278.85"><defs><style>.cls-1{isolation:isolate;}.cls-2,.cls-3,.cls-9{fill:#00e9d0;}.cls-3{opacity:0.42;}.cls-4,.cls-5,.cls-7,.cls-8{fill:#4b86d0;}.cls-4{opacity:0.62;}.cls-4,.cls-5,.cls-6,.cls-8{mix-blend-mode:multiply;}.cls-8{opacity:0.52;}.cls-9{opacity:0.54;}</style></defs><title>LARGE-BUBBLES</title><g class="cls-1"><g id="Layer_2" data-name="Layer 2"><g id="Layer_1-2" data-name="Layer 1"><path class="cls-2" d="M601.55,128h-8.42l-6.51,3.76c0,.16,0,.32,0,.48s0,.32,0,.47l8.34,4.81a5.93,5.93,0,1,1-2.56,4.88c0-.16,0-.32,0-.48l-8.34-4.81a5.92,5.92,0,0,1-6.74,0L569,141.94c0,.16,0,.32,0,.48a5.92,5.92,0,0,1-3.39,5.35v9.63a6.18,6.18,0,0,1,.83.47l8.34-4.81c0-.16,0-.31,0-.47a5.93,5.93,0,1,1,11.86,0c0,.16,0,.32,0,.47l8.34,4.81a5.93,5.93,0,1,1-2.56,4.88c0-.16,0-.32,0-.48l-8.34-4.81a5.92,5.92,0,0,1-6.74,0L569,162.28c0,.16,0,.32,0,.48a5.92,5.92,0,0,1-3.39,5.35v9.63a6,6,0,0,1,.83.47l8.34-4.81c0-.16,0-.31,0-.48a5.94,5.94,0,1,1,2.56,4.88L569,182.62c0,.16,0,.31,0,.47a5.93,5.93,0,1,1-8.47-5.35v-9.63a6,6,0,0,1-.83-.47l-8.34,4.81c0,.16,0,.31,0,.47a5.94,5.94,0,1,1-2.56-4.88l8.34-4.81c0-.16,0-.31,0-.47a5.93,5.93,0,0,1,3.39-5.35v-9.63a5.93,5.93,0,0,1-3.39-5.35c0-.16,0-.32,0-.48l-8.34-4.81a5.81,5.81,0,0,1-.83.47v9.63a5.93,5.93,0,1,1-5.91,10.23l-8.34,4.81c0,.16,0,.32,0,.48a5.94,5.94,0,1,1-2.56-4.88l8.34-4.81c0-.16,0-.31,0-.47a5.93,5.93,0,0,1,3.39-5.35V137.6a5.92,5.92,0,0,1-3.39-5.35c0-.16,0-.32,0-.48L533.07,128h-2.66v9a5.93,5.93,0,1,1-5.08,0v-9H477.26a11.51,11.51,0,0,0-11.47,11.47v77.44a11.51,11.51,0,0,0,11.47,11.47H482a22,22,0,0,1-11.44,13.54,21.52,21.52,0,0,0,29.11-13.54H601.55A11.51,11.51,0,0,0,613,216.93V139.49A11.51,11.51,0,0,0,601.55,128Z"/><path class="cls-2" d="M551.42,132.25c0,.16,0,.32,0,.47l8.34,4.81a5.92,5.92,0,0,1,6.74,0l8.34-4.81c0-.16,0-.31,0-.47s0-.32,0-.48L568.3,128H549.62A5.89,5.89,0,0,1,551.42,132.25Z"/><path class="cls-2" d="M299.67,83.83H194.09a9.78,9.78,0,0,0-9.75,9.75v65.79a9.78,9.78,0,0,0,9.75,9.75h78.75a18.28,18.28,0,0,0,24.73,11.51,18.73,18.73,0,0,1-9.72-11.51h11.83a9.78,9.78,0,0,0,9.75-9.75V93.58A9.78,9.78,0,0,0,299.67,83.83Z"/><path class="cls-3" d="M361.34,179.57h88.17a8.16,8.16,0,0,1,8.14,8.14v54.94a8.16,8.16,0,0,1-8.14,8.14h-3.37a15.64,15.64,0,0,0,8.12,9.61,15.27,15.27,0,0,1-20.65-9.61H361.34a8.16,8.16,0,0,1-8.14-8.14V187.71A8.16,8.16,0,0,1,361.34,179.57Z"/><path class="cls-4" d="M294.81,123.51c-43.66,0-79.05,23.77-79.05,53.08,0,16,10.51,30.27,27.11,40A24.08,24.08,0,0,1,229.37,238a23.57,23.57,0,0,0,31.43-13.5,111.8,111.8,0,0,0,34,5.15c43.66,0,79.05-23.77,79.05-53.08S338.47,123.51,294.81,123.51Z"/><path class="cls-5" d="M1049.08,135.33c-21,0-37.94,11.41-37.94,25.48,0,7.66,5,14.53,13,19.2a11.56,11.56,0,0,1-6.48,10.28,11.31,11.31,0,0,0,15.09-6.48,53.65,53.65,0,0,0,16.32,2.47c21,0,37.94-11.41,37.94-25.48S1070,135.33,1049.08,135.33Z"/><g class="cls-6"><path class="cls-2" d="M806.33,191.33a24,24,0,0,0,1.88-9.24c0-18.91-22.69-34.24-50.69-34.24-22.76,0-42,10.14-48.42,24.09-18.47,2-32.75,15.57-32.75,32,0,17.81,16.82,32.26,37.57,32.26a43.36,43.36,0,0,0,10.43-1.27c5.93,9,17.76,15.16,31.4,15.16,14.14,0,26.35-6.61,32-16.17a22.08,22.08,0,0,0,9.79,2.28c12.53,0,22.68-10.44,22.68-23.32A23.34,23.34,0,0,0,806.33,191.33Z"/><ellipse class="cls-2" cx="710.03" cy="253.05" rx="10.28" ry="6.95"/><ellipse class="cls-2" cx="721.37" cy="273.89" rx="6.73" ry="4.96"/></g><g class="cls-6"><path class="cls-7" d="M479.8,137.15a18.53,18.53,0,0,0,1.7-7.69c0-14.49-17.39-26.24-38.84-26.24-17.45,0-32.2,7.77-37.11,18.46-14.15,1.56-25.1,11.93-25.1,24.51,0,13.65,12.89,24.72,28.79,24.72a33.23,33.23,0,0,0,8-1c4.54,6.91,13.61,11.62,24.06,11.62s19.73-4.83,24.22-11.87a16.92,16.92,0,0,0,6.31,1.22A17.63,17.63,0,0,0,489.22,153,17.93,17.93,0,0,0,479.8,137.15Z"/><ellipse class="cls-7" cx="406.26" cy="183.84" rx="7.88" ry="5.32"/><ellipse class="cls-7" cx="414.95" cy="199.82" rx="5.16" ry="3.8"/></g><path class="cls-2" d="M69.24,23.65a12.91,12.91,0,0,0,1.19-5.36C70.42,8.19,58.3,0,43.35,0,31.19,0,20.91,5.41,17.49,12.87,7.63,14,0,21.18,0,29.95c0,9.51,9,17.23,20.07,17.23a23.16,23.16,0,0,0,5.57-.68c3.17,4.81,9.48,8.1,16.77,8.1s13.75-3.36,16.88-8.27a11.79,11.79,0,0,0,4.4.85A12.29,12.29,0,0,0,75.8,34.72,12.5,12.5,0,0,0,69.24,23.65Z"/><ellipse class="cls-2" cx="17.98" cy="56.19" rx="5.49" ry="3.71"/><ellipse class="cls-2" cx="24.04" cy="67.32" rx="3.6" ry="2.65"/><path class="cls-8" d="M832.38,96a48.46,48.46,0,0,0-30.69,86.27A17.71,17.71,0,0,1,792,195.36a17.31,17.31,0,0,0,21.17-6.19A48.61,48.61,0,1,0,832.38,96Z"/><path class="cls-2" d="M1125,33.64A37.17,37.17,0,0,0,1101.5,99.8a13.58,13.58,0,0,1-7.43,10,13.28,13.28,0,0,0,16.24-4.74A37.28,37.28,0,1,0,1125,33.64Z"/><path class="cls-5" d="M168.43,116.89a37.49,37.49,0,0,0-23.74,66.73,13.7,13.7,0,0,1-7.5,10.11A13.39,13.39,0,0,0,153.57,189a37.6,37.6,0,1,0,14.86-72.06Z"/><path class="cls-9" d="M981.29,218.14c-.16,0-.31,0-.46,0a5.2,5.2,0,0,1-5.2-5.2c0-.14,0-.28,0-.42l-7.31-4.22a5.19,5.19,0,0,1-5.9,0l-7.31,4.22c0,.14,0,.28,0,.42a5.19,5.19,0,0,1-3,4.69v8.44a5.43,5.43,0,0,1,.72.41l7.31-4.22c0-.14,0-.28,0-.42a5.2,5.2,0,1,1,10.4,0c0,.14,0,.28,0,.42l7.31,4.22a5.18,5.18,0,0,1,2.76-.91,9.15,9.15,0,0,0,.65-3.38Z"/><path class="cls-9" d="M977.87,208.71a5.18,5.18,0,0,1,3-.92c.16,0,.31,0,.46,0v-7.52c-.16,0-.31,0-.46,0a5.17,5.17,0,0,1-3-.92l-7.31,4.22c0,.14,0,.28,0,.42s0,.28,0,.42Z"/><path class="cls-9" d="M944.76,230.81a5.19,5.19,0,0,1,3-4.69v-8.44a5.19,5.19,0,0,1-3-4.69c0-.14,0-.28,0-.42l-7.31-4.22a5,5,0,0,1-.72.41v8.44a5.19,5.19,0,1,1-5.18,9l-7.31,4.22c0,.14,0,.28,0,.42a5.18,5.18,0,0,1-.07.68h20.1l.46-.27C944.77,231.09,944.76,230.95,944.76,230.81Z"/><path class="cls-9" d="M913.89,230.81a5.19,5.19,0,0,1,8.15-4.28l7.31-4.22c0-.14,0-.28,0-.42a5.19,5.19,0,0,1,3-4.69v-8.44a5.19,5.19,0,0,1-3-4.69c0-.14,0-.28,0-.42L922,199.44a5.1,5.1,0,0,1-.72.41v8.44a5.2,5.2,0,1,1-4.46,0v-8.44a5.2,5.2,0,1,1,7.42-4.69c0,.14,0,.28,0,.42l7.31,4.22a5.25,5.25,0,0,1,.72-.42v-8.44a5.2,5.2,0,1,1,4.46,0v8.44a5.19,5.19,0,0,1,3,4.69c0,.14,0,.28,0,.42l7.31,4.22a5.19,5.19,0,0,1,5.9,0l7.31-4.22c0-.14,0-.28,0-.42s0-.28,0-.42l-7.31-4.22a5.2,5.2,0,1,1-5.18-9V182a5.2,5.2,0,1,1,4.46,0v8.44a5.19,5.19,0,0,1,3,4.69c0,.14,0,.28,0,.42l7.31,4.22a5.19,5.19,0,0,1,5.9,0l7.31-4.22c0-.14,0-.28,0-.42s0-.28,0-.42l-7.31-4.22a5.2,5.2,0,1,1,2.25-4.28c0,.14,0,.28,0,.42l7.31,4.22a5.17,5.17,0,0,1,3-.92c.16,0,.31,0,.46,0v-30.2a9.28,9.28,0,0,0-9.25-9.25H871.85a9.28,9.28,0,0,0-9.25,9.25v62.43a9.28,9.28,0,0,0,9.25,9.25h3.83a17.77,17.77,0,0,1-9.22,10.92,17.35,17.35,0,0,0,23.46-10.92h24A5.1,5.1,0,0,1,913.89,230.81Z"/><path class="cls-9" d="M975.65,230.39l-7.31-4.22a5.19,5.19,0,0,1-5.9,0l-7.31,4.22c0,.14,0,.28,0,.42a5.18,5.18,0,0,1-.05.68H972a9.16,9.16,0,0,0,3.59-.73C975.63,230.64,975.64,230.51,975.65,230.39Z"/><path class="cls-5" d="M589.44,119.88a38.61,38.61,0,0,0-3.15,6.21l6.13-3.54c0-.16,0-.31,0-.47s0-.32,0-.48Z"/><path class="cls-5" d="M708.67,171.74c12.11-8.67,19.54-20.32,19.54-33.15,0-26.77-32.32-48.47-72.18-48.47-27.54,0-51.47,10.36-63.64,25.59L595,117.2a5.93,5.93,0,1,1,0,9.76l-8.34,4.81c0,.16,0,.32,0,.48s0,.32,0,.47l8.34,4.81a5.93,5.93,0,1,1-2.56,4.88c0-.16,0-.32,0-.48l-8.34-4.81-.18.1c0,.45-.05.91-.05,1.36a33.49,33.49,0,0,0,1.78,10.67,5.91,5.91,0,0,1,1,2.54c.24.56.48,1.12.74,1.67l7.63,4.4a5.93,5.93,0,1,1,4.4,10.72C612.58,179.84,633,187.06,656,187.06a99.65,99.65,0,0,0,37.33-7,21.52,21.52,0,0,0,27.58,9.82A22,22,0,0,1,708.67,171.74Z"/><path class="cls-5" d="M71.61,122.39a4.65,4.65,0,0,1,2.66-4.2v-7.55a4.65,4.65,0,0,1-2.66-4.2c0-.13,0-.25,0-.37l-6.54-3.77a4.57,4.57,0,0,1-.65.37v7.55a4.65,4.65,0,1,1-4.64,8l-2.48,1.43a41.71,41.71,0,0,0,9.23,6l5.07-2.93C71.62,122.63,71.61,122.51,71.61,122.39Z"/><path class="cls-5" d="M67.1,82.51a4.65,4.65,0,0,1-2.66,4.2v7.55a4.65,4.65,0,0,1,2.66,4.2c0,.13,0,.25,0,.37l6.54,3.77a4.64,4.64,0,0,1,5.28,0l6.54-3.77c0-.12,0-.25,0-.37s0-.25,0-.37l-6.54-3.77a4.65,4.65,0,1,1-4.64-8V78.74a4.65,4.65,0,0,1-2.61-3.54,50.18,50.18,0,0,0-7.12,3.18A4.63,4.63,0,0,1,67.1,82.51Z"/><path class="cls-5" d="M73.62,126.21l-2.48,1.43c1,.38,2.06.72,3.12,1v-2.1A4.69,4.69,0,0,1,73.62,126.21Z"/><path class="cls-5" d="M124.9,121.9c7.45-5.33,12-12.5,12-20.38,0-16.46-19.87-29.81-44.39-29.81a64.94,64.94,0,0,0-11.95,1.1,4.63,4.63,0,0,1-2.32,5.93v7.55a4.65,4.65,0,0,1,2.66,4.2c0,.13,0,.25,0,.37l6.54,3.77a4.65,4.65,0,0,1,5.28,0l6.54-3.78c0-.12,0-.25,0-.37s0-.25,0-.37l-6.54-3.77a4.65,4.65,0,1,1,2-3.83c0,.13,0,.25,0,.37l6.54,3.78a4.65,4.65,0,1,1,0,7.65l-6.54,3.77c0,.12,0,.25,0,.37s0,.25,0,.37l6.54,3.77a4.65,4.65,0,1,1-2,3.83c0-.13,0-.25,0-.37l-6.54-3.77a4.64,4.64,0,0,1-5.28,0l-6.54,3.77c0,.12,0,.25,0,.37a4.65,4.65,0,0,1-2.66,4.2v7.55a4.86,4.86,0,0,1,.65.37l6.54-3.77c0-.12,0-.25,0-.37a4.65,4.65,0,1,1,9.3,0c0,.13,0,.25,0,.37l6.54,3.77a4.65,4.65,0,1,1-2,3.83c0-.13,0-.25,0-.37l-6.54-3.77a4.64,4.64,0,0,1-5.28,0L80.9,122c0,.12,0,.25,0,.37a4.65,4.65,0,0,1-2.66,4.2v3.16a62.37,62.37,0,0,0,6.89,1.16l.3-.17c0-.12,0-.25,0-.37a4.65,4.65,0,1,1,9.21.91A60.7,60.7,0,0,0,115.48,127a13.23,13.23,0,0,0,17,6A13.53,13.53,0,0,1,124.9,121.9Z"/><path class="cls-5" d="M53.29,90.49c0,.13,0,.25,0,.37l6.54,3.78a4.69,4.69,0,0,1,.65-.37V86.71a4.64,4.64,0,0,1-2.63-3.79,31.49,31.49,0,0,0-5.11,5.38A4.6,4.6,0,0,1,53.29,90.49Z"/><path class="cls-5" d="M57.8,114.41a4.65,4.65,0,0,1,2.66-4.2v-7.55a4.65,4.65,0,0,1-2.66-4.2c0-.13,0-.25,0-.37l-6.54-3.77a4.56,4.56,0,0,1-.65.37v7.55a4.64,4.64,0,0,1-.31,8.53,26.49,26.49,0,0,0,4.06,6l3.44-2C57.81,114.66,57.8,114.54,57.8,114.41Z"/><g class="cls-6"><path class="cls-7" d="M1015.81,103.16a16.71,16.71,0,0,0,1.53-6.94c0-13.07-15.69-23.67-35-23.67-15.74,0-29.05,7-33.48,16.66-12.77,1.41-22.64,10.77-22.64,22.11,0,12.32,11.63,22.3,26,22.3a30,30,0,0,0,7.21-.88c4.1,6.23,12.28,10.48,21.71,10.48s17.8-4.35,21.85-10.71a15.26,15.26,0,0,0,5.69,1.1,15.91,15.91,0,0,0,15.68-16.12A16.18,16.18,0,0,0,1015.81,103.16Z"/><ellipse class="cls-7" cx="949.47" cy="145.28" rx="7.11" ry="4.8"/><ellipse class="cls-7" cx="957.31" cy="159.69" rx="4.66" ry="3.43"/></g></g></g></g></svg>