<svg xmlns="http://www.w3.org/2000/svg" viewBox="0 0 361.29 418.34">
    <defs>
        <style>
            .cls-1{fill:#4b87d0;}.cls-2{fill:#fff;}.cls-3{fill:#fe9;}.cls-4{fill:#fece68;}.cls-5{fill:#f2b74e;}.cls-6{fill:#043942;}.cls-7{fill:none;}.cls-8{fill:#18343a;}.cls-9{fill:#4b6568;stroke: #4b6568;}.cls-10{fill:#edc298;stroke: #edc298;}.cls-11{fill:#f9deb2;}.cls-12{fill:#4c88d0;stroke: #4c88d0;}
        </style>
    </defs>
    <title>large right</title>
    <g id="Layer_2" data-name="Layer 2">
        <g id="Layer_1-2" data-name="Layer 1">
            <circle class="cls-1" cx="46.97" cy="369.25" r="46.96"/>
            <path class="cls-2"
                  d="M57.76,385.9c.16.25,7,20.94,7.27,21.52S45.15,393,45.15,393,57.41,385.34,57.76,385.9Z"/>
            <path class="cls-2"
                  d="M57.76,385.9s-.07,0-.16,0c-1.48.27-12.46,7.16-12.46,7.16S64.6,407.52,65,407.44a0,0,0,0,0,0,0C64.8,406.84,57.92,386.15,57.76,385.9Z"/>
            <path class="cls-2"
                  d="M14.4,365.4a31,31,0,1,0,30.92-31A31,31,0,0,0,14.4,365.4Zm11.73,8.24a2.51,2.51,0,0,1,2.51-2.51l33.46,0a2.51,2.51,0,0,1,0,5l-33.46,0A2.51,2.51,0,0,1,26.12,373.64Zm0-8.74a2.51,2.51,0,0,1,2.51-2.51l33.46,0a2.51,2.51,0,1,1,0,5l-33.46,0A2.51,2.51,0,0,1,26.11,364.91Zm0-8.74a2.51,2.51,0,0,1,2.51-2.51l33.46,0a2.51,2.51,0,0,1,0,5l-33.46,0A2.51,2.51,0,0,1,26.1,356.17Z"/>
            <polygon class="cls-2" points="139.17 360.67 126.11 313.76 166.92 340.32 139.17 360.67"/>
            <path class="cls-2" d="M139,361.14l-13.36-48,41.78,27.2Zm-12.41-46.73,12.74,45.78,27.09-19.85Z"/>
            <polygon class="cls-3" points="191.39 411 181.37 418.34 139.06 360.6 149.06 353.26 191.39 411"/>
            <rect class="cls-4" x="169.02" y="342.67" width="12.41" height="71.58"
                  transform="translate(-189.93 176.98) rotate(-36.27)"/>
            <rect class="cls-5" x="179.3" y="336.14" width="9.69" height="71.58"
                  transform="translate(-184.25 180.81) rotate(-36.24)"/>
            <path class="cls-6"
                  d="M134.9,319.59l-4.84-5.16c-1-1.31-2.49-1.83-3.42-1.15l-1.13.83c-.93.68-.9,2.3.06,3.61l3.46,6.17Z"/>
            <path class="cls-2"
                  d="M105.84,185.31l-.18-4.06-5.38.25.18,4.06a16.57,16.57,0,0,0-6.86,3.22l-3-2.74L87,190l3,2.74a16.55,16.55,0,0,0-2.59,7.13l-4.06.19.24,5.39,4.06-.19a16.48,16.48,0,0,0,3.2,6.86l-2.74,3,4,3.63,2.74-3a16.47,16.47,0,0,0,7.12,2.57l.18,4.06,5.39-.25-.18-4.06a16.54,16.54,0,0,0,6.87-3.22l3,2.74,3.64-4-3-2.73a16.63,16.63,0,0,0,2.59-7.13l4.06-.19-.24-5.39-4.06.19a16.57,16.57,0,0,0-3.2-6.86l2.74-3-4-3.63-2.74,3A16.5,16.5,0,0,0,105.84,185.31Zm4.47,9.47a9.55,9.55,0,1,1-13.48.62A9.54,9.54,0,0,1,110.31,194.78Z"/>
            <path class="cls-7"
                  d="M332.16,89.9H315.73V87.31H297a8.31,8.31,0,0,1-3.46,5.21l-37.4,25.39,0,53.59,37.36,25.44a8.31,8.31,0,0,1,3.45,5.21h18.78V200.3h32.08a13.63,13.63,0,0,0,3.53.54,6.5,6.5,0,0,0,2.69-.53h7.33V89.92l-29.13,0Z"/>
            <polygon class="cls-8" points="237.65 158.95 256.05 171.49 256.09 117.9 237.67 130.4 237.65 158.95"/>
            <path class="cls-8" d="M174.06,201.91v1.6a1.38,1.38,0,0,1-.89,1.28l48.87,0v-2.89Z"/>
            <path class="cls-8"
                  d="M233.22,257.47l-60.24,0a7.75,7.75,0,0,1-4.4-1.37H156.22a1.38,1.38,0,0,1-1.38-1.38V238.24a1.38,1.38,0,0,1,1.38-1.38h11.58a7.76,7.76,0,0,1-2.6-5.81c0-.2,0-.39,0-.59h-9a1.38,1.38,0,0,1-1.38-1.38V212.66a1.38,1.38,0,0,1,1.38-1.38h9.09a7.78,7.78,0,0,1,6.54-6.39H156.25a1.38,1.38,0,0,1-1.38-1.38V187.07a1.38,1.38,0,0,1,1.38-1.38H172.7a1.38,1.38,0,0,1,1.15.62l61.12,0h12.76l-11.85-8.07a4.58,4.58,0,0,1-2.88,1l-42.23,0a4.63,4.63,0,0,1-4.62-4.63l0-61.18a4.62,4.62,0,0,1,4.63-4.62l42.23,0a4.6,4.6,0,0,1,3.53,1.66L247.79,103H235l-61.94,0a7.78,7.78,0,0,1-2.42-.39H156.33a1.38,1.38,0,0,1-1.38-1.38V84.73a1.38,1.38,0,0,1,1.38-1.38h16.43a1.38,1.38,0,0,1,1.38,1.38v2.61l48,0V84.06a7.79,7.79,0,0,1,0-15.49V65.19a7.79,7.79,0,0,1,0-15.49V46.33A7.79,7.79,0,0,1,223,30.79h11.84l21.31,0V26.4a11.54,11.54,0,0,0-11.53-11.55l-170-.12A11.54,11.54,0,0,0,63,26.26l-.17,235.57A11.54,11.54,0,0,0,74.4,273.38l170,.12A11.54,11.54,0,0,0,256,262v-4.41l-21.31,0C234.19,257.55,233.7,257.52,233.22,257.47ZM155,33.55a1.38,1.38,0,0,1,1.38-1.38h16.43a1.38,1.38,0,0,1,1.38,1.38V50a1.38,1.38,0,0,1-1.38,1.38H156.36A1.38,1.38,0,0,1,155,50Zm0,25.59a1.38,1.38,0,0,1,1.38-1.38h16.43a1.38,1.38,0,0,1,1.38,1.38V75.58A1.38,1.38,0,0,1,172.78,77H156.34A1.38,1.38,0,0,1,155,75.57Zm-.07,93.19V126.75h0V110.31a1.38,1.38,0,0,1,1.38-1.38h16.43a1.38,1.38,0,0,1,1.38,1.38v16.43h0v25.59h0l0,25.59a1.38,1.38,0,0,1-1.38,1.38H156.27a1.38,1.38,0,0,1-1.38-1.38l0-25.58ZM95.52,254.63A1.38,1.38,0,0,1,94.14,256H77.71a1.38,1.38,0,0,1-1.38-1.38V238.18a1.38,1.38,0,0,1,1.38-1.38H94.15a1.38,1.38,0,0,1,1.38,1.38Zm0-25.59a1.38,1.38,0,0,1-1.38,1.38H77.73A1.38,1.38,0,0,1,76.35,229V212.6a1.38,1.38,0,0,1,1.38-1.38H94.17a1.38,1.38,0,0,1,1.38,1.38Zm0-25.58a1.38,1.38,0,0,1-1.38,1.38H77.75a1.38,1.38,0,0,1-1.38-1.38V187a1.38,1.38,0,0,1,1.38-1.38H94.19A1.38,1.38,0,0,1,95.57,187Zm0-25.59a1.38,1.38,0,0,1-1.38,1.38H77.77a1.38,1.38,0,0,1-1.38-1.38V161.43A1.38,1.38,0,0,1,77.78,160H94.21a1.38,1.38,0,0,1,1.38,1.38Zm0-25.59a1.38,1.38,0,0,1-1.38,1.38H77.79a1.38,1.38,0,0,1-1.38-1.38V135.84a1.38,1.38,0,0,1,1.38-1.38H94.23a1.38,1.38,0,0,1,1.38,1.38Zm0-25.59a1.38,1.38,0,0,1-1.38,1.38H77.8a1.38,1.38,0,0,1-1.38-1.38V110.25a1.38,1.38,0,0,1,1.38-1.38H94.25a1.38,1.38,0,0,1,1.38,1.38Zm0-25.59a1.38,1.38,0,0,1-1.38,1.38H77.82a1.38,1.38,0,0,1-1.38-1.38V84.67a1.38,1.38,0,0,1,1.38-1.38H94.27a1.38,1.38,0,0,1,1.38,1.38Zm0-25.59a1.38,1.38,0,0,1-1.38,1.38H77.84a1.38,1.38,0,0,1-1.38-1.38V59.08a1.38,1.38,0,0,1,1.38-1.38H94.28a1.38,1.38,0,0,1,1.38,1.38Zm0-25.59a1.38,1.38,0,0,1-1.38,1.38H77.86a1.38,1.38,0,0,1-1.38-1.38V33.49a1.38,1.38,0,0,1,1.38-1.38H94.3a1.38,1.38,0,0,1,1.38,1.38Zm26,204.71a1.38,1.38,0,0,1-1.38,1.38H103.88a1.38,1.38,0,0,1-1.38-1.38V238.2a1.38,1.38,0,0,1,1.38-1.38h16.43a1.38,1.38,0,0,1,1.38,1.38Zm0-25.58a1.38,1.38,0,0,1-1.38,1.38H103.9a1.38,1.38,0,0,1-1.38-1.38V212.62a1.38,1.38,0,0,1,1.38-1.38h16.43a1.38,1.38,0,0,1,1.38,1.38Zm0-25.59a1.38,1.38,0,0,1-1.38,1.38H103.92a1.38,1.38,0,0,1-1.38-1.38V187a1.38,1.38,0,0,1,1.38-1.38h16.43a1.38,1.38,0,0,1,1.38,1.38Zm0-25.58a1.38,1.38,0,0,1-1.38,1.38H103.93a1.38,1.38,0,0,1-1.38-1.38V161.44a1.38,1.38,0,0,1,1.38-1.38h16.43a1.38,1.38,0,0,1,1.38,1.38Zm0-25.59a1.38,1.38,0,0,1-1.38,1.38H104a1.38,1.38,0,0,1-1.38-1.38V135.86a1.38,1.38,0,0,1,1.38-1.38h16.43a1.38,1.38,0,0,1,1.38,1.38Zm0-25.59a1.38,1.38,0,0,1-1.38,1.38H104a1.38,1.38,0,0,1-1.38-1.38V110.27a1.38,1.38,0,0,1,1.38-1.38h16.43a1.38,1.38,0,0,1,1.38,1.38Zm0-25.58a1.38,1.38,0,0,1-1.38,1.38H104a1.38,1.38,0,0,1-1.38-1.38V84.69A1.38,1.38,0,0,1,104,83.31h16.43a1.38,1.38,0,0,1,1.38,1.38Zm0-25.59a1.38,1.38,0,0,1-1.38,1.38H104a1.38,1.38,0,0,1-1.38-1.38V59.1A1.38,1.38,0,0,1,104,57.72h16.43a1.38,1.38,0,0,1,1.38,1.38Zm26,179.12a1.38,1.38,0,0,1-1.38,1.38H130a1.38,1.38,0,0,1-1.38-1.38V238.22a1.38,1.38,0,0,1,1.38-1.38h16.43a1.38,1.38,0,0,1,1.38,1.38Zm0-25.59a1.38,1.38,0,0,1-1.38,1.38H130.07a1.38,1.38,0,0,1-1.38-1.38V212.64a1.38,1.38,0,0,1,1.38-1.38h16.43a1.38,1.38,0,0,1,1.38,1.38Zm0-25.59a1.38,1.38,0,0,1-1.38,1.38H130.08a1.38,1.38,0,0,1-1.38-1.38V187a1.38,1.38,0,0,1,1.38-1.38h16.43a1.38,1.38,0,0,1,1.38,1.38Zm0-25.58a1.38,1.38,0,0,1-1.38,1.38H130.1a1.38,1.38,0,0,1-1.38-1.38V161.46a1.38,1.38,0,0,1,1.38-1.38h16.43a1.38,1.38,0,0,1,1.38,1.38Zm0-25.59a1.38,1.38,0,0,1-1.38,1.38H130.12a1.38,1.38,0,0,1-1.38-1.38V135.88a1.38,1.38,0,0,1,1.38-1.38h16.43a1.38,1.38,0,0,1,1.38,1.38Zm0-25.59a1.38,1.38,0,0,1-1.38,1.38H130.14a1.38,1.38,0,0,1-1.38-1.38V110.29a1.38,1.38,0,0,1,1.38-1.38h16.43a1.38,1.38,0,0,1,1.38,1.38Zm0-25.59a1.38,1.38,0,0,1-1.38,1.38H130.16a1.38,1.38,0,0,1-1.38-1.38V84.71a1.38,1.38,0,0,1,1.38-1.38H146.6A1.38,1.38,0,0,1,148,84.72Zm0-25.59a1.38,1.38,0,0,1-1.38,1.38H130.18a1.38,1.38,0,0,1-1.38-1.38V59.12a1.38,1.38,0,0,1,1.38-1.38h16.43A1.38,1.38,0,0,1,148,59.13ZM148,50a1.38,1.38,0,0,1-1.38,1.38H136.51l-32.48,0a1.38,1.38,0,0,1-1.38-1.38V33.51A1.38,1.38,0,0,1,104,32.14l26.17,0h16.43A1.38,1.38,0,0,1,148,33.55Z"/>
            <rect class="cls-8" x="174.04" y="238.88" width="47.97" height="2.98"/>
            <rect class="cls-8" x="174.05" y="220.4" width="47.98" height="2.89"/>
            <rect class="cls-9" x="76.34" y="236.81" width="19.19" height="19.19" rx="1.38" ry="1.38"/>
            <path class="cls-9"
                  d="M94.17,211.23H77.74a1.38,1.38,0,0,0-1.38,1.38V229a1.38,1.38,0,0,0,1.38,1.38H94.16A1.38,1.38,0,0,0,95.54,229V212.61A1.38,1.38,0,0,0,94.17,211.23Z"/>
            <path class="cls-9"
                  d="M94.19,185.65H77.76A1.38,1.38,0,0,0,76.38,187v16.43a1.38,1.38,0,0,0,1.38,1.38H94.18a1.38,1.38,0,0,0,1.38-1.38V187A1.38,1.38,0,0,0,94.19,185.65Z"/>
            <path class="cls-9"
                  d="M94.21,160.06H77.78a1.38,1.38,0,0,0-1.38,1.38v16.43a1.38,1.38,0,0,0,1.38,1.38H94.2a1.38,1.38,0,0,0,1.38-1.38V161.44A1.38,1.38,0,0,0,94.21,160.06Z"/>
            <path class="cls-9"
                  d="M94.23,134.47H77.8a1.38,1.38,0,0,0-1.38,1.38v16.43a1.38,1.38,0,0,0,1.38,1.38H94.22a1.38,1.38,0,0,0,1.38-1.38V135.85A1.38,1.38,0,0,0,94.23,134.47Z"/>
            <path class="cls-9"
                  d="M94.25,108.89H77.82a1.38,1.38,0,0,0-1.38,1.38v16.43a1.38,1.38,0,0,0,1.38,1.38H94.23a1.38,1.38,0,0,0,1.38-1.38V110.27A1.38,1.38,0,0,0,94.25,108.89Z"/>
            <path class="cls-9"
                  d="M94.27,83.3H77.84a1.38,1.38,0,0,0-1.38,1.38V101.1a1.38,1.38,0,0,0,1.38,1.38H94.25a1.38,1.38,0,0,0,1.38-1.38V84.68A1.38,1.38,0,0,0,94.27,83.3Z"/>
            <path class="cls-9"
                  d="M94.28,57.72H77.86a1.38,1.38,0,0,0-1.38,1.38V75.51a1.38,1.38,0,0,0,1.38,1.38H94.27a1.38,1.38,0,0,0,1.38-1.38V59.1A1.38,1.38,0,0,0,94.28,57.72Z"/>
            <path class="cls-9"
                  d="M94.3,32.13H77.87a1.38,1.38,0,0,0-1.38,1.38V49.93a1.38,1.38,0,0,0,1.38,1.38H94.29a1.38,1.38,0,0,0,1.38-1.38V33.51A1.38,1.38,0,0,0,94.3,32.13Z"/>
            <path class="cls-9"
                  d="M120.32,236.84H103.89a1.38,1.38,0,0,0-1.38,1.38v16.43a1.38,1.38,0,0,0,1.38,1.38h16.43a1.38,1.38,0,0,0,1.38-1.38V238.22A1.38,1.38,0,0,0,120.32,236.84Z"/>
            <path class="cls-9"
                  d="M120.34,211.25H103.91a1.38,1.38,0,0,0-1.38,1.38V229a1.38,1.38,0,0,0,1.38,1.38h16.43a1.38,1.38,0,0,0,1.38-1.38V212.63A1.38,1.38,0,0,0,120.34,211.25Z"/>
            <path class="cls-9"
                  d="M120.36,185.67H103.93a1.38,1.38,0,0,0-1.38,1.38v16.43a1.38,1.38,0,0,0,1.38,1.38h16.43a1.38,1.38,0,0,0,1.38-1.38V187A1.38,1.38,0,0,0,120.36,185.67Z"/>
            <path class="cls-9"
                  d="M120.38,160.08H103.95a1.38,1.38,0,0,0-1.38,1.38v16.43a1.38,1.38,0,0,0,1.38,1.38h16.43a1.38,1.38,0,0,0,1.38-1.38V161.46A1.38,1.38,0,0,0,120.38,160.08Z"/>
            <path class="cls-9"
                  d="M120.39,134.49H104a1.38,1.38,0,0,0-1.38,1.38v16.43a1.38,1.38,0,0,0,1.38,1.38h16.43a1.38,1.38,0,0,0,1.38-1.38V135.87A1.38,1.38,0,0,0,120.39,134.49Z"/>
            <path class="cls-9"
                  d="M120.41,108.91H104a1.38,1.38,0,0,0-1.38,1.38V126.7a1.38,1.38,0,0,0,1.38,1.38H120.4a1.38,1.38,0,0,0,1.38-1.38V110.29A1.38,1.38,0,0,0,120.41,108.91Z"/>
            <path class="cls-9"
                  d="M120.43,83.32H104a1.38,1.38,0,0,0-1.38,1.38v16.43A1.38,1.38,0,0,0,104,102.5h16.43a1.38,1.38,0,0,0,1.38-1.38V84.7A1.38,1.38,0,0,0,120.43,83.32Z"/>
            <path class="cls-9"
                  d="M120.45,57.73H104a1.38,1.38,0,0,0-1.38,1.38V75.53A1.38,1.38,0,0,0,104,76.91h16.43a1.38,1.38,0,0,0,1.38-1.38V59.11A1.38,1.38,0,0,0,120.45,57.73Z"/>
            <path class="cls-9"
                  d="M128.82,50V33.53a1.38,1.38,0,0,1,1.38-1.38l-26.17,0a1.38,1.38,0,0,0-1.38,1.38V49.95A1.38,1.38,0,0,0,104,51.33l32.48,0H130.2A1.38,1.38,0,0,1,128.82,50Z"/>
            <polygon class="cls-9" points="136.53 32.16 132.29 32.16 136.53 32.16 136.53 32.16"/>
            <path class="cls-9"
                  d="M146.49,236.86H130.06a1.38,1.38,0,0,0-1.38,1.38v16.43A1.38,1.38,0,0,0,130,256h16.43a1.38,1.38,0,0,0,1.38-1.38V238.24A1.38,1.38,0,0,0,146.49,236.86Z"/>
            <path class="cls-9"
                  d="M146.51,211.27H130.08a1.38,1.38,0,0,0-1.38,1.38v16.43a1.38,1.38,0,0,0,1.38,1.38h16.43a1.38,1.38,0,0,0,1.38-1.38V212.65A1.38,1.38,0,0,0,146.51,211.27Z"/>
            <path class="cls-9"
                  d="M146.53,185.69H130.1a1.38,1.38,0,0,0-1.38,1.38v16.43a1.38,1.38,0,0,0,1.38,1.38h16.43a1.38,1.38,0,0,0,1.38-1.38V187.06A1.38,1.38,0,0,0,146.53,185.69Z"/>
            <path class="cls-9"
                  d="M146.55,160.1H130.12a1.38,1.38,0,0,0-1.38,1.38V177.9a1.38,1.38,0,0,0,1.38,1.38h16.43a1.38,1.38,0,0,0,1.38-1.38V161.48A1.38,1.38,0,0,0,146.55,160.1Z"/>
            <path class="cls-9"
                  d="M146.56,134.51H130.14a1.38,1.38,0,0,0-1.38,1.38v16.43a1.38,1.38,0,0,0,1.38,1.38h16.43a1.38,1.38,0,0,0,1.38-1.38V135.89A1.38,1.38,0,0,0,146.56,134.51Z"/>
            <path class="cls-9"
                  d="M146.58,108.93H130.15a1.38,1.38,0,0,0-1.38,1.38v16.43a1.38,1.38,0,0,0,1.38,1.38h16.43a1.38,1.38,0,0,0,1.38-1.38V110.31A1.38,1.38,0,0,0,146.58,108.93Z"/>
            <path class="cls-9"
                  d="M146.6,83.34H130.17a1.38,1.38,0,0,0-1.38,1.38v16.43a1.38,1.38,0,0,0,1.38,1.38h16.43a1.38,1.38,0,0,0,1.38-1.38V84.72A1.38,1.38,0,0,0,146.6,83.34Z"/>
            <path class="cls-9"
                  d="M146.62,57.75H130.19a1.38,1.38,0,0,0-1.38,1.38V75.55a1.38,1.38,0,0,0,1.38,1.38h16.43A1.38,1.38,0,0,0,148,75.56V59.13A1.38,1.38,0,0,0,146.62,57.75Z"/>
            <path class="cls-9"
                  d="M146.64,32.17H136.53a1.38,1.38,0,0,1,1.38,1.38V50a1.38,1.38,0,0,1-1.37,1.38h10.11A1.38,1.38,0,0,0,148,50V33.55A1.38,1.38,0,0,0,146.64,32.17Z"/>
            <polygon class="cls-9" points="130.21 32.16 130.21 32.16 132.29 32.16 130.21 32.16"/>
            <path class="cls-9"
                  d="M137.89,50V33.54a1.38,1.38,0,0,0-1.37-1.38h-6.32a1.38,1.38,0,0,0-1.38,1.38V50a1.38,1.38,0,0,0,1.38,1.38h6.32A1.38,1.38,0,0,0,137.89,50Z"/>
            <path class="cls-9"
                  d="M165.19,249.63a7.79,7.79,0,0,1,7.8-7.79h1v-3h-1a7.76,7.76,0,0,1-5.18-2H156.23a1.38,1.38,0,0,0-1.38,1.38v16.43a1.38,1.38,0,0,0,1.38,1.38h12.36A7.78,7.78,0,0,1,165.19,249.63Z"/>
            <path class="cls-9"
                  d="M173,223.28h1v-2.89h-1a7.75,7.75,0,0,1-7.67-9.1h-9.09a1.38,1.38,0,0,0-1.38,1.38v16.43a1.38,1.38,0,0,0,1.38,1.38h9A7.78,7.78,0,0,1,173,223.28Z"/>
            <path class="cls-9"
                  d="M173.17,204.8a1.38,1.38,0,0,0,.89-1.28v-1.6h-1a7.79,7.79,0,1,1,0-15.58h.82a1.38,1.38,0,0,0-1.15-.62H156.27a1.38,1.38,0,0,0-1.38,1.38V203.5a1.38,1.38,0,0,0,1.38,1.38h15.63a7.84,7.84,0,0,1,1.14-.09Z"/>
            <path class="cls-9"
                  d="M156.3,134.52h16.43a1.38,1.38,0,0,1,1.38,1.36v-9.14a1.38,1.38,0,0,1-1.38,1.38H156.31a1.38,1.38,0,0,1-1.38-1.37v9.14A1.38,1.38,0,0,1,156.3,134.52Z"/>
            <path class="cls-9"
                  d="M156.27,179.3H172.7a1.38,1.38,0,0,0,1.38-1.38l0-25.59a1.38,1.38,0,0,1-1.38,1.38H156.29a1.38,1.38,0,0,1-1.38-1.37l0,25.58A1.38,1.38,0,0,0,156.27,179.3Z"/>
            <polygon class="cls-9" points="154.91 152.33 154.91 152.34 154.92 143.11 154.91 152.33"/>
            <path class="cls-9" d="M174.1,152.34v0Z"/>
            <path class="cls-9"
                  d="M156.29,153.71h16.43a1.38,1.38,0,0,0,1.38-1.38V135.89a1.38,1.38,0,0,0-1.38-1.36H156.3a1.38,1.38,0,0,0-1.38,1.38v16.44A1.38,1.38,0,0,0,156.29,153.71Z"/>
            <path class="cls-9"
                  d="M156.32,113.62h16.43a1.38,1.38,0,0,1,1.38,1.38v11.74h0V110.32a1.38,1.38,0,0,0-1.38-1.38H156.32a1.38,1.38,0,0,0-1.38,1.38v16.43h0V115A1.38,1.38,0,0,1,156.32,113.62Z"/>
            <path class="cls-9"
                  d="M156.31,128.12h16.43a1.38,1.38,0,0,0,1.38-1.38V115a1.38,1.38,0,0,0-1.38-1.38H156.32a1.38,1.38,0,0,0-1.38,1.38v11.76A1.38,1.38,0,0,0,156.31,128.12Z"/>
            <path class="cls-9"
                  d="M165.31,95.14a7.79,7.79,0,0,1,7.8-7.79h1V84.74a1.38,1.38,0,0,0-1.38-1.38H156.34A1.38,1.38,0,0,0,155,84.73v16.43a1.38,1.38,0,0,0,1.38,1.38h14.35A7.79,7.79,0,0,1,165.31,95.14Z"/>
            <path class="cls-9"
                  d="M156.34,77h16.43a1.38,1.38,0,0,0,1.38-1.38V59.15a1.38,1.38,0,0,0-1.38-1.38H156.36A1.38,1.38,0,0,0,155,59.14V75.57A1.38,1.38,0,0,0,156.34,77Z"/>
            <path class="cls-9"
                  d="M156.36,51.36h16.43A1.38,1.38,0,0,0,174.17,50V33.57a1.38,1.38,0,0,0-1.38-1.38H156.38A1.38,1.38,0,0,0,155,33.55V50A1.38,1.38,0,0,0,156.36,51.36Z"/>
            <path class="cls-9"
                  d="M218.09,155.93a8.49,8.49,0,0,1,7.25-3.72h0a8.48,8.48,0,0,1,1.12.11h.09a8.4,8.4,0,0,1,1.12.27l.05,0a8.44,8.44,0,0,1,1,.38l.26.12a8.48,8.48,0,0,1,1,.56l5,3.39h0l2.76,1.88,0-28.55-7.75,5.26a8.55,8.55,0,0,1-1,.56l-.26.12a8.39,8.39,0,0,1-.95.37l-.06,0a8.46,8.46,0,0,1-1.12.26h-.08a8.5,8.5,0,0,1-6.1-15.43l16.2-11a4.6,4.6,0,0,0-3.53-1.66l-42.23,0a4.62,4.62,0,0,0-4.63,4.62l0,61.18a4.63,4.63,0,0,0,4.62,4.63l42.23,0a4.58,4.58,0,0,0,2.88-1l-15.54-10.58A8.5,8.5,0,0,1,218.09,155.93Z"/>
            <path class="cls-8"
                  d="M33.9,11.53l-.19,265a11.54,11.54,0,0,0,11.53,11.55H55.59L55.8,0H45.45A11.54,11.54,0,0,0,33.9,11.53Z"/>
            <path class="cls-10"
                  d="M222.12,90.28V87.39l-48,0v2.18h2.29v11.25h-2.29v.38a1.38,1.38,0,0,1-1.38,1.38h-2.08a7.78,7.78,0,0,0,2.42.39L235,103h-.24A12.68,12.68,0,0,1,222.12,90.28Z"/>
            <path class="cls-10"
                  d="M174.14,101.17v-.38h-2.6A3.52,3.52,0,0,1,168,97.27V93a3.51,3.51,0,0,1,3.52-3.51h2.6V87.35h-1a7.79,7.79,0,0,0-2.43,15.2h2.08A1.38,1.38,0,0,0,174.14,101.17Z"/>
            <path class="cls-10" d="M215.18,76.31a7.79,7.79,0,0,0,6.95,7.75V68.57A7.79,7.79,0,0,0,215.18,76.31Z"/>
            <path class="cls-10" d="M215.19,57.44a7.79,7.79,0,0,0,6.95,7.75V49.7A7.8,7.8,0,0,0,215.19,57.44Z"/>
            <path class="cls-10" d="M234.77,30.8H223a7.79,7.79,0,0,0-.85,15.54V43.47A12.68,12.68,0,0,1,234.77,30.8Z"/>
            <path class="cls-10"
                  d="M269,55.52A28.06,28.06,0,0,1,293.61,70l0-30.76h2.8a12.68,12.68,0,0,0-11.94-8.45l-28.35,0,0,27.83A28.09,28.09,0,0,1,269,55.52Z"/>
            <path class="cls-10"
                  d="M241.86,91.43a28.15,28.15,0,0,1-1.07-7.71c0-.76,0-1.51.1-2.25A7.76,7.76,0,0,1,235,84.12H223a7.86,7.86,0,0,1-.84,0v3.33H235A7.79,7.79,0,0,1,241.86,91.43Z"/>
            <path class="cls-10" d="M242.73,94a7.73,7.73,0,0,1-7.48,9h12.54l.36-.25A28.33,28.33,0,0,1,242.73,94Z"/>
            <path class="cls-10"
                  d="M234.77,30.8h.32a7.79,7.79,0,0,1,0,15.59H223a7.87,7.87,0,0,1-.84,0V49.7a7.88,7.88,0,0,1,.84,0h12.08a7.79,7.79,0,0,1,0,15.59H223a7.85,7.85,0,0,1-.84,0v3.38a7.87,7.87,0,0,1,.84,0h12.08A7.8,7.8,0,0,1,242.5,74a28.31,28.31,0,0,1,13.63-15.41l0-27.83-21.31,0Z"/>
            <path class="cls-10"
                  d="M242.83,95.19a7.77,7.77,0,0,0-.1-1.18q-.5-1.27-.87-2.59a7.79,7.79,0,0,0-6.82-4H222.12v2.89A12.68,12.68,0,0,0,234.8,103h.46A7.79,7.79,0,0,0,242.83,95.19Z"/>
            <path class="cls-10"
                  d="M235,84.12a7.76,7.76,0,0,0,5.85-2.65A28.09,28.09,0,0,1,242.5,74a7.8,7.8,0,0,0-7.45-5.51H223a7.87,7.87,0,0,0-.84,0V84.06a7.86,7.86,0,0,0,.84,0Z"/>
            <path class="cls-10"
                  d="M235.06,65.25a7.79,7.79,0,0,0,0-15.59H223a7.88,7.88,0,0,0-.84,0V65.19a7.85,7.85,0,0,0,.84,0Z"/>
            <path class="cls-10"
                  d="M235.07,46.38a7.79,7.79,0,0,0,0-15.59h-.32a12.68,12.68,0,0,0-12.61,12.67v2.86a7.87,7.87,0,0,0,.84,0Z"/>
            <path class="cls-10" d="M272.08,103h-16V117.9l37.4-25.39A8.31,8.31,0,0,0,297,87.3H295.2Z"/>
            <path class="cls-10" d="M237.67,130.4l18.42-12.51V103h-8.31l-11.21,7.61a4.58,4.58,0,0,1,1.1,3Z"/>
            <path class="cls-10" d="M228.69,136.34a8.35,8.35,0,0,1-.95.37A8.39,8.39,0,0,0,228.69,136.34Z"/>
            <path class="cls-10"
                  d="M218.11,133.39a8.49,8.49,0,0,0,8.38,3.62,8.6,8.6,0,0,1-1.13.1l-2.77-4a4.44,4.44,0,0,1,1.13-6.18l5.08-3.51,6.12,8.85-5,3.39,7.75-5.26V113.55a4.58,4.58,0,0,0-1.1-3l-16.2,11A8.5,8.5,0,0,0,218.11,133.39Z"/>
            <path class="cls-10" d="M227.69,136.74a8.48,8.48,0,0,1-1.12.26A8.46,8.46,0,0,0,227.69,136.74Z"/>
            <path class="cls-10" d="M229.91,135.67a8.36,8.36,0,0,1-1,.56A8.55,8.55,0,0,0,229.91,135.67Z"/>
            <path class="cls-10" d="M272.08,103,295.2,87.3h-1.6V70a28.13,28.13,0,0,0-37.48-11.4l0,44.35Z"/>
            <path class="cls-10"
                  d="M256.13,58.63A28.31,28.31,0,0,0,242.5,74a7.76,7.76,0,0,1-1.61,7.42c-.06.74-.1,1.49-.1,2.25a28.15,28.15,0,0,0,1.07,7.71,7.73,7.73,0,0,1,.87,2.59,28.33,28.33,0,0,0,5.42,8.71l-.36.25h8.31Z"/>
            <path class="cls-10" d="M241.86,91.43q.38,1.32.87,2.59A7.73,7.73,0,0,0,241.86,91.43Z"/>
            <path class="cls-10"
                  d="M242.85,76.33A7.78,7.78,0,0,0,242.5,74a28.09,28.09,0,0,0-1.61,7.42A7.76,7.76,0,0,0,242.85,76.33Z"/>
            <rect class="cls-11" x="174.14" y="89.54" width="2.29" height="11.25"/>
            <path class="cls-11" d="M168,93v4.22a3.52,3.52,0,0,0,3.51,3.52h2.6V89.54h-2.6A3.51,3.51,0,0,0,168,93Z"/>
            <path class="cls-10"
                  d="M297.15,83.78c0,.45,0,.89,0,1.33,0,.22,0,.44,0,.65v.09h0V86h0A8.75,8.75,0,0,1,297,87.3h18.78l0-48H296.44a12.64,12.64,0,0,1,.74,4.24Z"/>
            <path class="cls-10"
                  d="M293.61,70a28.24,28.24,0,0,1,3.54,13.74h0l0-40.26a12.64,12.64,0,0,0-.74-4.24h-2.8Z"/>
            <path class="cls-10" d="M297.15,86v-.09s0,.07,0,.1Z"/>
            <path class="cls-10" d="M297.15,85.85h0v-.09c0-.22,0-.44,0-.65,0-.44,0-.88,0-1.33v2.08Z"/>
            <path class="cls-10" d="M297,87.3a8.75,8.75,0,0,0,.18-1.31L295.2,87.3Z"/>
            <path class="cls-10" d="M295.2,87.3,297.14,86s0-.07,0-.1V83.78h0A28.24,28.24,0,0,0,293.61,70V87.3Z"/>
            <path class="cls-11" d="M226.57,137h0Z"/>
            <path class="cls-11" d="M227.74,136.72l-.06,0Z"/>
            <path class="cls-11" d="M228.95,136.22l-.26.12Z"/>
            <path class="cls-11"
                  d="M228.78,123.43l-5.08,3.51a4.44,4.44,0,0,0-1.13,6.18l2.77,4a8.6,8.6,0,0,0,1.13-.1h.08a8.48,8.48,0,0,0,1.12-.26l.06,0a8.35,8.35,0,0,0,.95-.37l.26-.12a8.36,8.36,0,0,0,1-.56l5-3.39Z"/>
            <path class="cls-10"
                  d="M174.07,188.47h2.29v11.26h-2.29v2.18l48,0v-2.89a12.68,12.68,0,0,1,12.69-12.67H235l-61.12,0a1.37,1.37,0,0,1,.23.76Z"/>
            <path class="cls-10"
                  d="M165.23,194.11a7.79,7.79,0,0,0,7.79,7.8h1v-2.18h-2.6a3.51,3.51,0,0,1-3.51-3.52V192a3.52,3.52,0,0,1,3.52-3.51h2.61v-1.39a1.37,1.37,0,0,0-.23-.76H173A7.79,7.79,0,0,0,165.23,194.11Z"/>
            <path class="cls-10"
                  d="M293.51,219.4A28.13,28.13,0,0,1,256,230.75l0,26.82,28.35,0a12.68,12.68,0,0,0,11.54-7.42h-2.39Z"/>
            <path class="cls-10"
                  d="M235,202H222v2.89H235a7.76,7.76,0,0,1,5.81,2.62c0-.6-.06-1.21-.06-1.83a28.16,28.16,0,0,1,1.08-7.71A7.79,7.79,0,0,1,235,202Z"/>
            <path class="cls-10"
                  d="M242.76,194.17a7.81,7.81,0,0,1-.1,1.17,28.29,28.29,0,0,1,5.43-8.7l-.37-.25H235.21A7.79,7.79,0,0,1,242.76,194.17Z"/>
            <path class="cls-10"
                  d="M242.34,215.12a7.79,7.79,0,0,1-7.39,5.31H222v2.89h12.92a7.79,7.79,0,0,1,0,15.59H222v3h12.92a7.79,7.79,0,0,1,0,15.58h-1.7c.48,0,1,.08,1.46.08l21.31,0,0-26.82A28.3,28.3,0,0,1,242.34,215.12Z"/>
            <path class="cls-10"
                  d="M222,199.05v2.89H235a7.79,7.79,0,0,0,6.83-4q.38-1.32.88-2.59a7.73,7.73,0,0,0-7.46-9h-.47A12.68,12.68,0,0,0,222,199.05Z"/>
            <path class="cls-10"
                  d="M293.42,196.93l-37.36-25.44V186.4h16l23.1,15.73h1.75A8.31,8.31,0,0,0,293.42,196.93Z"/>
            <path class="cls-10" d="M256.05,171.49,237.65,159v15.78a4.6,4.6,0,0,1-1.75,3.59l11.85,8.07H256Z"/>
            <path class="cls-10" d="M225.35,152.22a8.64,8.64,0,0,1,1.12.11A8.48,8.48,0,0,0,225.35,152.22Z"/>
            <path class="cls-10" d="M227.73,152.62a8.42,8.42,0,0,1,1,.38A8.44,8.44,0,0,0,227.73,152.62Z"/>
            <path class="cls-10"
                  d="M237.63,174.73V159l-2.76-1.88-6.13,8.85-5.07-3.52a4.44,4.44,0,0,1-1.12-6.18l2.78-4a8.5,8.5,0,0,0-5,15.52l15.54,10.58A4.6,4.6,0,0,0,237.63,174.73Z"/>
            <path class="cls-10" d="M226.56,152.34a8.48,8.48,0,0,1,1.12.27A8.4,8.4,0,0,0,226.56,152.34Z"/>
            <path class="cls-10" d="M228.94,153.12a8.36,8.36,0,0,1,1,.56A8.48,8.48,0,0,0,228.94,153.12Z"/>
            <path class="cls-10" d="M295.12,202.14,272,186.41H256l0,44.35a28.13,28.13,0,0,0,37.5-11.35V202.14Z"/>
            <path class="cls-10"
                  d="M247.73,186.39l.37.25a28.29,28.29,0,0,0-5.43,8.7,7.74,7.74,0,0,1-.88,2.59,28.16,28.16,0,0,0-1.08,7.71c0,.61,0,1.22.06,1.83a7.74,7.74,0,0,1,1.56,7.65A28.3,28.3,0,0,0,256,230.75l0-44.35Z"/>
            <path class="cls-10" d="M242.66,195.34q-.5,1.27-.88,2.59A7.74,7.74,0,0,0,242.66,195.34Z"/>
            <rect class="cls-11" x="174.07" y="188.47" width="2.29" height="11.26"/>
            <path class="cls-11" d="M171.47,188.47A3.52,3.52,0,0,0,168,192v4.23a3.51,3.51,0,0,0,3.51,3.52h2.6V188.47Z"/>
            <path class="cls-10"
                  d="M173.17,204.8a1.37,1.37,0,0,1-.49.09h-.8a7.78,7.78,0,0,0-6.54,6.39h2.6v-.83a3.52,3.52,0,0,1,3.52-3.51h4.89V218.2h-2.29v2.18l48,0V204.84Z"/>
            <path class="cls-10"
                  d="M173,220.38h1V218.2h-2.61a3.51,3.51,0,0,1-3.51-3.52v-3.4h-2.6a7.75,7.75,0,0,0,7.67,9.1Z"/>
            <path class="cls-10" d="M173.17,204.8H173a7.84,7.84,0,0,0-1.14.09h.8A1.37,1.37,0,0,0,173.17,204.8Z"/>
            <path class="cls-10"
                  d="M235,204.84H222v15.58h12.92a7.79,7.79,0,0,0,7.39-5.31,28.09,28.09,0,0,1-1.56-7.65A7.76,7.76,0,0,0,235,204.84Z"/>
            <path class="cls-10" d="M240.77,207.47a28.09,28.09,0,0,0,1.56,7.65,7.74,7.74,0,0,0-1.56-7.65Z"/>
            <path class="cls-11"
                  d="M174.06,212.67v5.53h2.29V206.95h-4.89a3.52,3.52,0,0,0-3.52,3.51v.83h4.74A1.38,1.38,0,0,1,174.06,212.67Z"/>
            <path class="cls-11"
                  d="M171.45,218.2h2.61v-5.53a1.38,1.38,0,0,0-1.38-1.38h-4.74v3.4A3.51,3.51,0,0,0,171.45,218.2Z"/>
            <path class="cls-10"
                  d="M174,225.42h2.29v11.25h-4.89a3.51,3.51,0,0,1-3.51-3.52v-2.68h-2.68c0,.19,0,.39,0,.59a7.76,7.76,0,0,0,2.6,5.81h4.85a1.38,1.38,0,0,1,1.38,1.38v.61l48,0V223.31l-48,0Z"/>
            <path class="cls-10" d="M174,238.86v-.61a1.38,1.38,0,0,0-1.38-1.38h-4.85a7.76,7.76,0,0,0,5.18,2Z"/>
            <path class="cls-10"
                  d="M167.92,228.94a3.51,3.51,0,0,1,3.52-3.51H174v-2.15h-1a7.78,7.78,0,0,0-7.77,7.2h2.68Z"/>
            <path class="cls-10" d="M234.93,238.91a7.79,7.79,0,0,0,0-15.59H222V238.9Z"/>
            <path class="cls-11"
                  d="M172.66,230.48h-4.74v2.68a3.51,3.51,0,0,0,3.51,3.52h4.89V225.43H174v3.68A1.38,1.38,0,0,1,172.66,230.48Z"/>
            <path class="cls-11"
                  d="M167.92,228.94v1.54h4.74A1.38,1.38,0,0,0,174,229.1v-3.68h-2.61A3.51,3.51,0,0,0,167.92,228.94Z"/>
            <path class="cls-10"
                  d="M174,243.9h2.28v11.25h-2.37a1.37,1.37,0,0,1-1.29.91h-4.07a7.75,7.75,0,0,0,4.4,1.37l60.24,0c-6.31-.61-11.21-5.1-11.21-11.61v-4l-48,0Z"/>
            <path class="cls-10"
                  d="M173.94,255.15h-2.52a3.52,3.52,0,0,1-3.51-3.52v-4.23a3.52,3.52,0,0,1,3.52-3.51H174v-2.05h-1a7.79,7.79,0,0,0-4.41,14.22h4.07A1.37,1.37,0,0,0,173.94,255.15Z"/>
            <path class="cls-10"
                  d="M233.22,257.47h1.7a7.79,7.79,0,0,0,0-15.58H222v4C222,252.37,226.91,256.87,233.22,257.47Z"/>
            <path class="cls-11" d="M173.94,255.15h2.37V243.9H174v10.79A1.37,1.37,0,0,1,173.94,255.15Z"/>
            <path class="cls-11"
                  d="M167.91,247.41v4.23a3.52,3.52,0,0,0,3.51,3.52h2.52a1.37,1.37,0,0,0,.09-.47V243.9h-2.61A3.52,3.52,0,0,0,167.91,247.41Z"/>
            <path class="cls-10"
                  d="M296.87,202.14a8.75,8.75,0,0,1,.18,1.31h0v.13h0s0,.06,0,.09c0,.22,0,.44,0,.65,0,.44,0,.88,0,1.33,0,0,0,0,0,.06l0,39.18a12.62,12.62,0,0,1-1.15,5.25h19.74l0-48Z"/>
            <path class="cls-10" d="M297.06,203.46h0s0,.06,0,.1Z"/>
            <path class="cls-10"
                  d="M297.06,205.73a28.23,28.23,0,0,1-3.56,13.67l0,30.76h2.39a12.62,12.62,0,0,0,1.15-5.25Z"/>
            <path class="cls-10"
                  d="M297.06,205.67c0-.45,0-.89,0-1.33,0-.22,0-.44,0-.65,0,0,0-.06,0-.09h0v2.14S297.06,205.69,297.06,205.67Z"/>
            <path class="cls-10" d="M297.05,203.46a8.75,8.75,0,0,0-.18-1.31h-1.75Z"/>
            <path class="cls-10" d="M293.52,202.14V219.4a28.23,28.23,0,0,0,3.56-13.67v-2.17s0-.06,0-.1l-1.93-1.32Z"/>
            <path class="cls-11" d="M226.47,152.32h0Z"/>
            <path class="cls-11" d="M228.68,153l.26.12Z"/>
            <polygon class="cls-11" points="229.9 153.68 234.88 157.07 234.88 157.07 229.9 153.68"/>
            <path class="cls-11" d="M227.68,152.6l.05,0Z"/>
            <polygon class="cls-11" points="225.34 152.22 225.34 152.22 225.35 152.22 225.34 152.22"/>
            <path class="cls-11"
                  d="M228.94,153.12l-.26-.12a8.42,8.42,0,0,0-1-.38l-.05,0a8.48,8.48,0,0,0-1.12-.27h-.09a8.64,8.64,0,0,0-1.12-.11h0l-2.78,4a4.44,4.44,0,0,0,1.12,6.18l5.07,3.52,6.13-8.85-5-3.39A8.36,8.36,0,0,0,228.94,153.12Z"/>
            <path class="cls-2"
                  d="M329.39,60.51c0,10.34-4.56,16.92-6.18,26.81h-7.48v2.57h16.43l0-56.34H315.77v5.75h12.69C329,45.11,329.4,54.56,329.39,60.51Z"/>
            <path class="cls-2"
                  d="M323.21,87.32c1.61-9.89,6.16-16.46,6.18-26.81,0-5.95-.4-15.4-.93-21.21H315.77l0,48Z"/>
            <path class="cls-12"
                  d="M334.37,89.9h-2.22l29.13,0V27.1l-29.08,0v6.48h2.22Zm12.1-56.18a5.73,5.73,0,1,1-5.73,5.73A5.73,5.73,0,0,1,346.47,33.72Z"/>
            <rect class="cls-12" x="332.18" y="33.55" width="2.22" height="56.34"/>
            <polygon class="cls-2" points="334.23 200.31 334.29 200.31 334.29 200.31 334.23 200.31"/>
            <path class="cls-2"
                  d="M315.65,200.3v1.86h7.48c1.6,9.89,6.13,16.48,6.14,26.82,0,5.94-.42,15.4-1,21.21H315.62v6.46H332l0-56.34Z"/>
            <path class="cls-2"
                  d="M329.27,229c0-10.34-4.54-16.93-6.14-26.82h-7.48l0,48H328.3C328.84,244.38,329.27,234.93,329.27,229Z"/>
            <path class="cls-12"
                  d="M354,200.33a6.5,6.5,0,0,1-2.69.53,13.63,13.63,0,0,1-3.53-.54H334.29l0,56.34H332v6.48l29.25,0V200.33Zm-7.49,54.17a5.73,5.73,0,1,1,5.73-5.73A5.73,5.73,0,0,1,346.47,254.5Z"/>
            <polygon class="cls-12" points="332.08 200.31 334.23 200.31 332.08 200.31 332.08 200.31"/>
            <polygon class="cls-12"
                     points="334.29 200.31 334.23 200.31 332.08 200.31 332.04 256.65 334.25 256.65 334.29 200.31"/>
            <circle class="cls-2" cx="346.47" cy="248.77" r="5.73"/>
            <circle class="cls-2" cx="346.47" cy="39.44" r="5.73"/>
        </g>
    </g>
</svg>