<svg xmlns="http://www.w3.org/2000/svg" viewBox="0 0 267.08 464.82"><defs><style>.cls-1{fill:#18343a;}.cls-2{fill:#62badd;}.cls-3{fill:#fff;}.cls-4{fill:#fabf37;}.cls-5{fill:#e25230;}.cls-6{fill:#999;}.cls-7{fill:#4b6568;}.cls-8{fill:#edc298;}.cls-9{fill:#f9deb2;}.cls-10{fill:#754c24;}</style></defs><title>max left</title><g id="Layer_2" data-name="Layer 2"><g id="Layer_1-2" data-name="Layer 1"><path class="cls-1" d="M0,314.16a11.91,11.91,0,0,1,11.9-11.92L255,302A11.91,11.91,0,0,1,267,313.93l.12,138.76a11.91,11.91,0,0,1-11.9,11.92L12,464.82A11.91,11.91,0,0,1,.12,452.92Z"/><rect class="cls-2" x="13.3" y="319.41" width="240.49" height="131.42"/><rect class="cls-3" x="22.96" y="329.3" width="221.15" height="99.66"/><rect class="cls-1" x="143.28" y="340.78" width="66.43" height="76.22"/><path class="cls-2" d="M156.86,350.81V375.3a3.67,3.67,0,0,0,3.78,3.55L176.31,381l15.16-2.1a3.67,3.67,0,0,0,3.78-3.55V350.82Z"/><path class="cls-4" d="M165.06,399.08c.42,7.1,3.15,12.56,11,12.56s10.55-5.45,11-12.55a1.74,1.74,0,0,0,1.56-1.73v-3.07a1.73,1.73,0,0,0-1.73-1.73l-.26,0a15.18,15.18,0,0,0-4.25-7.73v-4.79L181,374.45l-9.86-.16L169.75,380v4.82a15.17,15.17,0,0,0-4.26,7.73l-.26,0a1.74,1.74,0,0,0-1.74,1.73v3.07A1.73,1.73,0,0,0,165.06,399.08Z"/><rect class="cls-5" x="23.01" y="428.27" width="221.15" height="16.38"/><rect class="cls-3" x="167.29" y="435.24" width="70.86" height="2.59"/><circle class="cls-3" cx="88.51" cy="395.33" r="18.19"/><path class="cls-4" d="M97.36,380.87c.11-.18,5-14.81,5.12-15.22s-14,10.18-14,10.18S97.12,381.26,97.36,380.87Z"/><path class="cls-2" d="M97.36,380.87s-.05,0-.11,0c-1-.19-8.81-5.06-8.81-5.06s13.74-10.24,14-10.19c0,0,0,0,0,0C102.33,366.06,97.47,380.69,97.36,380.87Z"/><path class="cls-2" d="M88.6,417.27a21.88,21.88,0,1,0-21.88-21.89A21.88,21.88,0,0,0,88.6,417.27ZM76.78,387.78h23.65a1.77,1.77,0,1,1,0,3.55H76.78a1.77,1.77,0,1,1,0-3.55Zm0,6.18h23.65a1.77,1.77,0,0,1,0,3.55H76.78a1.77,1.77,0,1,1,0-3.54Zm0,6.17h23.65a1.78,1.78,0,0,1,0,3.55H76.78a1.77,1.77,0,1,1,0-3.55Z"/><rect class="cls-6" x="57.87" y="341.8" width="71.06" height="3.27"/><rect class="cls-6" x="57.88" y="351.85" width="71.06" height="3.27"/><rect class="cls-6" x="71.06" y="103.64" width="73.24" height="24.23"/><path class="cls-1" d="M.13,111.46A11.9,11.9,0,0,1,12,99.57l242.87.17a11.9,11.9,0,0,1,11.89,11.91L266.66,287a11.9,11.9,0,0,1-11.9,11.89l-242.87-.17A11.9,11.9,0,0,1,0,286.77Z"/><path class="cls-7" d="M229,266.59a1.42,1.42,0,0,1,1.42-1.42h16.94a1.42,1.42,0,0,1,1.42,1.42v16.94a1.42,1.42,0,0,1-1.42,1.42H230.38a1.42,1.42,0,0,1-1.42-1.42Z"/><path class="cls-7" d="M202.59,266.57a1.42,1.42,0,0,1,1.42-1.42H221a1.42,1.42,0,0,1,1.42,1.42v16.94a1.42,1.42,0,0,1-1.42,1.42H204a1.42,1.42,0,0,1-1.42-1.42Z"/><path class="cls-7" d="M176.21,266.55a1.42,1.42,0,0,1,1.42-1.42h16.94a1.42,1.42,0,0,1,1.42,1.42v16.94a1.42,1.42,0,0,1-1.42,1.42H177.62a1.42,1.42,0,0,1-1.42-1.42Z"/><path class="cls-7" d="M149.83,266.54a1.42,1.42,0,0,1,1.42-1.42H168.2a1.42,1.42,0,0,1,1.42,1.42v16.94a1.42,1.42,0,0,1-1.42,1.42H151.24a1.42,1.42,0,0,1-1.42-1.42Z"/><path class="cls-7" d="M123.45,266.52a1.42,1.42,0,0,1,1.42-1.42h16.94a1.42,1.42,0,0,1,1.42,1.42v16.94a1.42,1.42,0,0,1-1.42,1.42H124.86a1.42,1.42,0,0,1-1.42-1.42Z"/><path class="cls-7" d="M97.08,266.5a1.42,1.42,0,0,1,1.42-1.42h16.94a1.42,1.42,0,0,1,1.42,1.42v16.94a1.42,1.42,0,0,1-1.42,1.42H98.49a1.42,1.42,0,0,1-1.42-1.42Z"/><path class="cls-7" d="M70.7,266.48a1.42,1.42,0,0,1,1.42-1.42H89.06a1.42,1.42,0,0,1,1.42,1.42v16.94A1.42,1.42,0,0,1,89,284.85H72.11a1.42,1.42,0,0,1-1.42-1.42Z"/><path class="cls-7" d="M44.32,266.46A1.42,1.42,0,0,1,45.74,265H62.68a1.42,1.42,0,0,1,1.42,1.42v16.94a1.42,1.42,0,0,1-1.42,1.42H45.73a1.42,1.42,0,0,1-1.42-1.43Z"/><path class="cls-7" d="M17.94,266.44A1.42,1.42,0,0,1,19.36,265H36.3a1.42,1.42,0,0,1,1.42,1.42v16.94a1.42,1.42,0,0,1-1.42,1.42H19.35a1.42,1.42,0,0,1-1.42-1.42Z"/><path class="cls-7" d="M229,239.62a1.42,1.42,0,0,1,1.42-1.42h16.94a1.42,1.42,0,0,1,1.42,1.42v16.94a1.42,1.42,0,0,1-1.42,1.42H230.4a1.42,1.42,0,0,1-1.42-1.42Z"/><path class="cls-7" d="M202.61,239.6a1.42,1.42,0,0,1,1.43-1.42H221a1.42,1.42,0,0,1,1.42,1.43v16.94A1.42,1.42,0,0,1,221,258H204a1.42,1.42,0,0,1-1.42-1.42Z"/><path class="cls-7" d="M176.23,239.58a1.42,1.42,0,0,1,1.42-1.42H194.6a1.42,1.42,0,0,1,1.42,1.43v16.94a1.42,1.42,0,0,1-1.42,1.42H177.64a1.42,1.42,0,0,1-1.42-1.42Z"/><path class="cls-7" d="M149.85,239.56a1.42,1.42,0,0,1,1.42-1.42h16.94a1.42,1.42,0,0,1,1.42,1.43v16.94a1.42,1.42,0,0,1-1.42,1.42H151.26a1.42,1.42,0,0,1-1.42-1.42Z"/><path class="cls-7" d="M123.47,239.54a1.43,1.43,0,0,1,1.42-1.42h16.94a1.42,1.42,0,0,1,1.42,1.43v16.94a1.42,1.42,0,0,1-1.42,1.42H124.88a1.42,1.42,0,0,1-1.42-1.42Z"/><path class="cls-7" d="M97.1,239.52a1.42,1.42,0,0,1,1.42-1.42h16.94a1.42,1.42,0,0,1,1.42,1.43v16.94a1.42,1.42,0,0,1-1.43,1.42H98.5a1.42,1.42,0,0,1-1.42-1.42Z"/><path class="cls-7" d="M70.72,239.5a1.42,1.42,0,0,1,1.42-1.42H89.08a1.42,1.42,0,0,1,1.42,1.43v16.94a1.42,1.42,0,0,1-1.42,1.42H72.13a1.42,1.42,0,0,1-1.42-1.42Z"/><path class="cls-7" d="M44.34,239.48a1.42,1.42,0,0,1,1.42-1.42H62.7a1.42,1.42,0,0,1,1.42,1.43v16.94a1.43,1.43,0,0,1-1.43,1.42H45.75a1.42,1.42,0,0,1-1.42-1.42Z"/><path class="cls-7" d="M18,222.91a1.42,1.42,0,0,1,1.42-1.42H36.34a1.42,1.42,0,0,1,1.42,1.42l0,33.49a1.42,1.42,0,0,1-1.42,1.42H19.37a1.42,1.42,0,0,1-1.42-1.42Z"/><path class="cls-7" d="M229,212.64a1.42,1.42,0,0,1,1.42-1.42h16.94a1.42,1.42,0,0,1,1.42,1.42v16.94a1.43,1.43,0,0,1-1.43,1.42H230.42a1.42,1.42,0,0,1-1.42-1.42Z"/><path class="cls-7" d="M202.63,212.62a1.42,1.42,0,0,1,1.42-1.42H221a1.42,1.42,0,0,1,1.42,1.42v16.94A1.42,1.42,0,0,1,221,231H204a1.42,1.42,0,0,1-1.42-1.43Z"/><path class="cls-7" d="M176.25,212.6a1.42,1.42,0,0,1,1.42-1.42h16.94a1.42,1.42,0,0,1,1.42,1.42v16.94A1.42,1.42,0,0,1,194.6,231H177.66a1.42,1.42,0,0,1-1.42-1.42Z"/><path class="cls-7" d="M149.87,212.58a1.42,1.42,0,0,1,1.42-1.42h16.94a1.42,1.42,0,0,1,1.42,1.42v16.94a1.42,1.42,0,0,1-1.42,1.42H151.28a1.42,1.42,0,0,1-1.42-1.42Z"/><path class="cls-7" d="M123.49,212.56a1.42,1.42,0,0,1,1.42-1.42h16.94a1.42,1.42,0,0,1,1.42,1.43v16.94a1.42,1.42,0,0,1-1.42,1.42H124.9a1.43,1.43,0,0,1-1.42-1.43Z"/><path class="cls-7" d="M97.11,212.54a1.42,1.42,0,0,1,1.42-1.42h16.94a1.42,1.42,0,0,1,1.42,1.42v16.94a1.42,1.42,0,0,1-1.42,1.42H98.52a1.42,1.42,0,0,1-1.42-1.42Z"/><path class="cls-7" d="M70.74,212.52a1.42,1.42,0,0,1,1.43-1.42H89.1a1.42,1.42,0,0,1,1.42,1.42v16.94a1.42,1.42,0,0,1-1.42,1.42H72.14a1.42,1.42,0,0,1-1.42-1.42Z"/><path class="cls-7" d="M44.36,212.5a1.42,1.42,0,0,1,1.42-1.42H62.72a1.42,1.42,0,0,1,1.42,1.42v16.94a1.42,1.42,0,0,1-1.42,1.42H45.77a1.42,1.42,0,0,1-1.42-1.42Z"/><path class="cls-7" d="M18,212.48a1.42,1.42,0,0,1,1.42-1.42H36.34a1.42,1.42,0,0,1,1.42,1.42v16.94a1.42,1.42,0,0,1-1.42,1.42H19.39A1.42,1.42,0,0,1,18,229.42Z"/><path class="cls-7" d="M229,185.66a1.42,1.42,0,0,1,1.42-1.42h16.94a1.42,1.42,0,0,1,1.42,1.42v16.94a1.42,1.42,0,0,1-1.42,1.42H230.44A1.42,1.42,0,0,1,229,202.6Z"/><path class="cls-7" d="M202.65,185.64a1.42,1.42,0,0,1,1.42-1.42H221a1.42,1.42,0,0,1,1.42,1.42v16.94A1.42,1.42,0,0,1,221,204H204.06a1.42,1.42,0,0,1-1.42-1.42Z"/><path class="cls-7" d="M176.27,185.62a1.42,1.42,0,0,1,1.42-1.42h16.94a1.42,1.42,0,0,1,1.42,1.42v16.94a1.42,1.42,0,0,1-1.42,1.42H177.68a1.42,1.42,0,0,1-1.42-1.42Z"/><path class="cls-7" d="M102,185.56a1.42,1.42,0,0,1,1.42-1.42l64.87,0a1.42,1.42,0,0,1,1.42,1.42v16.94a1.42,1.42,0,0,1-1.42,1.42l-64.87,0A1.42,1.42,0,0,1,102,202.5Z"/><path class="cls-7" d="M123.51,185.58a1.42,1.42,0,0,1,1.42-1.42h16.94a1.42,1.42,0,0,1,1.42,1.42v16.94a1.42,1.42,0,0,1-1.42,1.42H124.92a1.42,1.42,0,0,1-1.42-1.42Z"/><path class="cls-7" d="M97.13,185.56a1.42,1.42,0,0,1,1.42-1.42H115.5a1.42,1.42,0,0,1,1.42,1.42v16.94a1.42,1.42,0,0,1-1.42,1.42H98.54a1.42,1.42,0,0,1-1.42-1.42Z"/><path class="cls-7" d="M70.76,185.54a1.42,1.42,0,0,1,1.42-1.42H89.12a1.42,1.42,0,0,1,1.42,1.42V202.5a1.42,1.42,0,0,1-1.42,1.42H72.17a1.42,1.42,0,0,1-1.42-1.42Z"/><path class="cls-7" d="M44.38,185.52a1.42,1.42,0,0,1,1.42-1.42H62.74a1.43,1.43,0,0,1,1.42,1.42v16.94a1.42,1.42,0,0,1-1.43,1.42H45.79a1.42,1.42,0,0,1-1.42-1.42Z"/><path class="cls-7" d="M18,185.5a1.42,1.42,0,0,1,1.42-1.42H36.36a1.42,1.42,0,0,1,1.42,1.42v16.94a1.42,1.42,0,0,1-1.42,1.42H19.41A1.42,1.42,0,0,1,18,202.44Z"/><path class="cls-7" d="M97.12,123.39a4.77,4.77,0,0,1,4.77-4.77l63.07,0a4.77,4.77,0,0,1,4.77,4.77l0,43.54a4.77,4.77,0,0,1-4.77,4.76l-63.07,0a4.77,4.77,0,0,1-4.76-4.77Z"/><path class="cls-8" d="M137.88,160.11A10.08,10.08,0,0,1,148,150h0A10.07,10.07,0,0,1,158,160.09l.07,80.11A10.08,10.08,0,0,1,148,250.29h0A10.08,10.08,0,0,1,138,240.22Z"/><path class="cls-8" d="M113.48,160.13A10.08,10.08,0,0,1,123.55,150h0a10.08,10.08,0,0,1,10.09,10.07v15.62a10.08,10.08,0,0,1-10.07,10.09h0a10.08,10.08,0,0,1-10.09-10.07Z"/><path class="cls-8" d="M89.08,160.15a10.08,10.08,0,0,1,10.07-10.09h0a10.08,10.08,0,0,1,10.09,10.07v15.62a10.08,10.08,0,0,1-10.07,10.09h0a10.08,10.08,0,0,1-10.09-10.07Z"/><path class="cls-8" d="M64.67,160.17a10.08,10.08,0,0,1,10.07-10.09h0a10.08,10.08,0,0,1,10.09,10.07v15.62a10.08,10.08,0,0,1-10.07,10.09h0A10.08,10.08,0,0,1,64.69,175.8Z"/><path class="cls-8" d="M81.09,176.87l60.55-.05A16.4,16.4,0,0,0,158,160.4l0-48.22L135.92,79.79,81,79.83A16.41,16.41,0,0,0,64.61,96.25l.06,64.23A16.4,16.4,0,0,0,81.09,176.87Z"/><path class="cls-8" d="M133.12,152.68a36.34,36.34,0,0,0,24.57-9.56L182.13,179a11,11,0,0,0,18.19-12.36l-56-82.14a10.88,10.88,0,0,0-8.62-4.72h-.12c-.28,0-.56,0-.85,0h-1.72a36.45,36.45,0,1,0,0,72.89Z"/><path class="cls-9" d="M140.77,235.91v6.33a4.55,4.55,0,0,0,4.55,4.54h5.47a4.55,4.55,0,0,0,4.54-4.55V235.9Z"/><path class="cls-8" d="M137.6,46.07c-12.8-2.07-21.31-7.93-34.69-7.94-7.69,0-19.92.56-27.43,1.25l0,45,62.11-.05Z"/><path class="cls-9" d="M200.33,166.64l-4.39-6.45-11.44,7.93,4.55,6.56a5.74,5.74,0,0,0,8,1.44l5.18-3.59A10.93,10.93,0,0,0,200.33,166.64Z"/><rect class="cls-10" x="68.48" y="27.18" width="78.37" height="33.47"/><rect class="cls-1" x="82.87" y="6.9" width="4.1" height="52.94"/><circle class="cls-1" cx="96.14" cy="46.75" r="5.79"/><rect class="cls-10" x="68.52" width="78.19" height="28.27"/></g></g></svg>