<svg xmlns="http://www.w3.org/2000/svg" viewBox="0 0 299.53 83.24"><defs><style>.cls-1{isolation:isolate;}.cls-2,.cls-3,.cls-8{fill:#00e9d0;}.cls-3{opacity:0.42;}.cls-4,.cls-6,.cls-7,.cls-9{fill:#4b86d0;}.cls-4{opacity:0.62;}.cls-4,.cls-5,.cls-7,.cls-9{mix-blend-mode:multiply;}.cls-7{opacity:0.52;}.cls-8{opacity:0.54;}</style></defs><title>MOBILE-BUBBLES</title><g class="cls-1"><g id="Layer_2" data-name="Layer 2"><g id="Layer_1-2" data-name="Layer 1"><path class="cls-2" d="M136.91,21.34h-3.24l-2.5,1.44c0,.06,0,.12,0,.18s0,.12,0,.18L134.38,25a2.28,2.28,0,1,1-1,1.88c0-.06,0-.12,0-.18l-3.21-1.85a2.28,2.28,0,0,1-2.59,0l-3.21,1.85c0,.06,0,.12,0,.18a2.28,2.28,0,0,1-1.3,2.06v3.7a2.38,2.38,0,0,1,.32.18L126.63,31c0-.06,0-.12,0-.18a2.28,2.28,0,1,1,4.56,0c0,.06,0,.12,0,.18l3.21,1.85a2.28,2.28,0,1,1-1,1.88c0-.06,0-.12,0-.18l-3.21-1.85a2.28,2.28,0,0,1-2.59,0l-3.21,1.85c0,.06,0,.12,0,.18a2.28,2.28,0,0,1-1.3,2.06v3.7a2.3,2.3,0,0,1,.32.18l3.21-1.85c0-.06,0-.12,0-.18a2.28,2.28,0,1,1,1,1.88l-3.21,1.85c0,.06,0,.12,0,.18a2.28,2.28,0,1,1-3.26-2.06v-3.7a2.31,2.31,0,0,1-.32-.18l-3.21,1.85c0,.06,0,.12,0,.18a2.28,2.28,0,1,1-1-1.88l3.21-1.85c0-.06,0-.12,0-.18a2.28,2.28,0,0,1,1.3-2.06v-3.7a2.28,2.28,0,0,1-1.3-2.06c0-.06,0-.12,0-.18l-3.21-1.85a2.24,2.24,0,0,1-.32.18v3.7a2.28,2.28,0,1,1-2.27,3.94l-3.21,1.85c0,.06,0,.12,0,.18a2.28,2.28,0,1,1-1-1.88L113.08,31c0-.06,0-.12,0-.18a2.28,2.28,0,0,1,1.3-2.06V25a2.28,2.28,0,0,1-1.3-2.06c0-.06,0-.12,0-.18l-2.5-1.44h-1v3.48a2.28,2.28,0,1,1-2,0V21.34H89.11a4.43,4.43,0,0,0-4.41,4.41V55.54a4.43,4.43,0,0,0,4.41,4.41h1.83a8.48,8.48,0,0,1-4.4,5.21,8.28,8.28,0,0,0,11.2-5.21h39.18a4.43,4.43,0,0,0,4.41-4.41V25.75A4.43,4.43,0,0,0,136.91,21.34Z"/><path class="cls-2" d="M117.63,23c0,.06,0,.12,0,.18L120.83,25a2.28,2.28,0,0,1,2.59,0l3.21-1.85c0-.06,0-.12,0-.18s0-.12,0-.18l-2.5-1.44h-7.19A2.26,2.26,0,0,1,117.63,23Z"/><path class="cls-3" d="M44.52,41.17H78.43a3.14,3.14,0,0,1,3.13,3.13V65.43a3.14,3.14,0,0,1-3.13,3.13h-1.3a6,6,0,0,0,3.12,3.7,5.87,5.87,0,0,1-7.94-3.7H44.52a3.14,3.14,0,0,1-3.13-3.13V44.3A3.14,3.14,0,0,1,44.52,41.17Z"/><path class="cls-4" d="M24.67,23.83C11,23.83,0,31.25,0,40.4c0,5,3.28,9.44,8.46,12.48a7.51,7.51,0,0,1-4.21,6.69,7.36,7.36,0,0,0,9.81-4.21A34.89,34.89,0,0,0,24.67,57c13.62,0,24.67-7.42,24.67-16.56S38.29,23.83,24.67,23.83Z"/><g class="cls-5"><path class="cls-2" d="M217.41,47a10,10,0,0,0,.78-3.83c0-7.84-9.4-14.19-21-14.19-9.43,0-17.41,4.2-20.06,10-7.65.84-13.57,6.45-13.57,13.25,0,7.38,7,13.36,15.57,13.36a18,18,0,0,0,4.32-.53c2.46,3.73,7.36,6.28,13,6.28,5.86,0,10.92-2.74,13.27-6.7a9.15,9.15,0,0,0,4.06.94,9.53,9.53,0,0,0,9.4-9.66A9.67,9.67,0,0,0,217.41,47Z"/><ellipse class="cls-2" cx="177.51" cy="72.55" rx="4.26" ry="2.88"/><ellipse class="cls-2" cx="182.21" cy="81.19" rx="2.79" ry="2.06"/></g><g class="cls-5"><path class="cls-6" d="M90.09,24.85a7.13,7.13,0,0,0,.65-3C90.74,16.32,84,11.8,75.8,11.8c-6.71,0-12.39,3-14.27,7.1-5.44.6-9.65,4.59-9.65,9.43,0,5.25,5,9.51,11.08,9.51A12.78,12.78,0,0,0,66,37.46a11,11,0,0,0,9.26,4.47,11,11,0,0,0,9.32-4.57,6.51,6.51,0,0,0,2.43.47A6.78,6.78,0,0,0,93.71,31,6.9,6.9,0,0,0,90.09,24.85Z"/><ellipse class="cls-6" cx="61.8" cy="42.81" rx="3.03" ry="2.05"/><ellipse class="cls-6" cx="65.14" cy="48.95" rx="1.99" ry="1.46"/></g><path class="cls-7" d="M225.71,9a18.64,18.64,0,0,0-11.8,33.18,6.81,6.81,0,0,1-3.73,5,6.66,6.66,0,0,0,8.14-2.38A18.7,18.7,0,1,0,225.71,9Z"/><path class="cls-8" d="M283,56l-.18,0a2,2,0,0,1-2-2c0-.05,0-.11,0-.16L278,52.24a2,2,0,0,1-2.27,0l-2.81,1.62c0,.05,0,.11,0,.16a2,2,0,0,1-1.14,1.8v3.25l.28.16,2.81-1.62c0-.05,0-.11,0-.16a2,2,0,1,1,4,0c0,.05,0,.11,0,.16l2.81,1.62a2,2,0,0,1,1.06-.35,3.52,3.52,0,0,0,.25-1.3Z"/><path class="cls-8" d="M281.67,52.38a2,2,0,0,1,1.14-.35l.18,0V49.15l-.18,0a2,2,0,0,1-1.14-.35l-2.81,1.62c0,.05,0,.11,0,.16s0,.11,0,.16Z"/><path class="cls-8" d="M268.93,60.88a2,2,0,0,1,1.14-1.8V55.83a2,2,0,0,1-1.14-1.8c0-.05,0-.11,0-.16l-2.81-1.62a1.94,1.94,0,0,1-.28.16v3.25a2,2,0,1,1-2,3.45l-2.81,1.62c0,.05,0,.11,0,.16a2,2,0,0,1,0,.26h7.73l.18-.1C268.94,61,268.93,60.93,268.93,60.88Z"/><path class="cls-8" d="M257.06,60.88a2,2,0,0,1,3.13-1.65L263,57.61c0-.05,0-.11,0-.16a2,2,0,0,1,1.14-1.8V52.4a2,2,0,0,1-1.14-1.8c0-.05,0-.11,0-.16l-2.81-1.62a2,2,0,0,1-.28.16v3.25a2,2,0,1,1-1.71,0V49a2,2,0,1,1,2.86-1.8c0,.05,0,.11,0,.16l2.81,1.62a2,2,0,0,1,.28-.16V45.54a2,2,0,1,1,1.71,0v3.25a2,2,0,0,1,1.14,1.8c0,.05,0,.11,0,.16l2.81,1.62a2,2,0,0,1,2.27,0l2.81-1.62c0-.05,0-.11,0-.16s0-.11,0-.16l-2.81-1.62a2,2,0,1,1-2-3.45V42.11a2,2,0,1,1,1.71,0v3.25a2,2,0,0,1,1.14,1.8c0,.05,0,.11,0,.16l2.81,1.62a2,2,0,0,1,2.27,0l2.81-1.62c0-.05,0-.11,0-.16s0-.11,0-.16L278,45.38a2,2,0,1,1,.86-1.64c0,.05,0,.11,0,.16l2.81,1.62a2,2,0,0,1,1.14-.35l.18,0V33.57A3.57,3.57,0,0,0,279.43,30H240.89a3.57,3.57,0,0,0-3.56,3.56v24a3.57,3.57,0,0,0,3.56,3.56h1.47a6.84,6.84,0,0,1-3.55,4.2,6.67,6.67,0,0,0,9-4.2h9.25A2,2,0,0,1,257.06,60.88Z"/><path class="cls-8" d="M280.81,60.72,278,59.09a2,2,0,0,1-2.27,0l-2.81,1.62c0,.05,0,.11,0,.16a2,2,0,0,1,0,.26h6.51a3.52,3.52,0,0,0,1.38-.28S280.81,60.76,280.81,60.72Z"/><path class="cls-9" d="M132.26,18.21A14.85,14.85,0,0,0,131,20.6l2.36-1.36c0-.06,0-.12,0-.18s0-.12,0-.18Z"/><path class="cls-9" d="M178.12,38.16c4.66-3.33,7.52-7.82,7.52-12.75,0-10.3-12.43-18.64-27.76-18.64-10.59,0-19.8,4-24.48,9.84l1,.57a2.28,2.28,0,1,1,0,3.75l-3.21,1.85c0,.06,0,.12,0,.18s0,.12,0,.18L134.38,25a2.28,2.28,0,1,1-1,1.88c0-.06,0-.12,0-.18l-3.21-1.85-.07,0c0,.17,0,.35,0,.52a12.88,12.88,0,0,0,.68,4.1,2.27,2.27,0,0,1,.37,1c.09.22.18.43.29.64l2.93,1.69a2.28,2.28,0,1,1,1.69,4.12c5.08,4.33,13,7.11,21.8,7.11a38.33,38.33,0,0,0,14.36-2.68,8.28,8.28,0,0,0,10.61,3.78A8.46,8.46,0,0,1,178.12,38.16Z"/><g class="cls-5"><path class="cls-6" d="M296.26,11.78a6.43,6.43,0,0,0,.59-2.67c0-5-6-9.11-13.48-9.11-6.05,0-11.17,2.7-12.88,6.41-4.91.54-8.71,4.14-8.71,8.51,0,4.74,4.47,8.58,10,8.58a11.53,11.53,0,0,0,2.77-.34,10.65,10.65,0,0,0,16.76-.09,5.87,5.87,0,0,0,2.19.42,6.12,6.12,0,0,0,6-6.2A6.22,6.22,0,0,0,296.26,11.78Z"/><ellipse class="cls-6" cx="270.74" cy="27.98" rx="2.73" ry="1.85"/><ellipse class="cls-6" cx="273.76" cy="33.52" rx="1.79" ry="1.32"/></g></g></g></g></svg>