<svg xmlns="http://www.w3.org/2000/svg" viewBox="0 0 585.89 131.87"><defs><style>.cls-1{isolation:isolate;}.cls-2,.cls-3,.cls-9{fill:#00e9d0;}.cls-3{opacity:0.42;}.cls-4,.cls-5,.cls-7,.cls-8{fill:#4b86d0;}.cls-4{opacity:0.62;}.cls-4,.cls-5,.cls-6,.cls-8{mix-blend-mode:multiply;}.cls-8{opacity:0.52;}.cls-9{opacity:0.54;}</style></defs><title>SMALL-BUBBLES</title><g class="cls-1"><g id="Layer_2" data-name="Layer 2"><g id="Layer_1-2" data-name="Layer 1"><path class="cls-2" d="M303.18,64.52h-4.24l-3.28,1.89c0,.08,0,.16,0,.24s0,.16,0,.24l4.2,2.43a3,3,0,1,1-1.29,2.46c0-.08,0-.16,0-.24l-4.2-2.43a3,3,0,0,1-3.4,0l-4.2,2.43c0,.08,0,.16,0,.24a3,3,0,0,1-1.71,2.7v4.85a3.11,3.11,0,0,1,.42.24l4.2-2.43c0-.08,0-.16,0-.24a3,3,0,1,1,6,0c0,.08,0,.16,0,.24l4.2,2.43A3,3,0,1,1,298.57,82c0-.08,0-.16,0-.24l-4.2-2.43a3,3,0,0,1-3.4,0l-4.2,2.43c0,.08,0,.16,0,.24a3,3,0,0,1-1.71,2.7v4.85a3,3,0,0,1,.42.24l4.2-2.43c0-.08,0-.16,0-.24A3,3,0,1,1,291,89.61L286.78,92c0,.08,0,.16,0,.24a3,3,0,1,1-4.27-2.7V84.73a3,3,0,0,1-.42-.24l-4.2,2.43c0,.08,0,.16,0,.24a3,3,0,1,1-1.29-2.46l4.2-2.43c0-.08,0-.16,0-.24a3,3,0,0,1,1.71-2.7V74.48a3,3,0,0,1-1.71-2.7c0-.08,0-.16,0-.24l-4.2-2.43a2.93,2.93,0,0,1-.42.24V74.2a3,3,0,1,1-3,5.16L269,81.79c0,.08,0,.16,0,.24a3,3,0,1,1-1.29-2.46l4.2-2.43c0-.08,0-.16,0-.24a3,3,0,0,1,1.71-2.7V69.35a3,3,0,0,1-1.71-2.7c0-.08,0-.16,0-.24l-3.28-1.89h-1.34v4.56a3,3,0,1,1-2.56,0V64.52H240.54a5.8,5.8,0,0,0-5.78,5.78v39a5.8,5.8,0,0,0,5.78,5.78h2.39a11.11,11.11,0,0,1-5.77,6.83,10.85,10.85,0,0,0,14.67-6.83h51.34a5.8,5.8,0,0,0,5.78-5.78v-39A5.8,5.8,0,0,0,303.18,64.52Z"/><path class="cls-2" d="M277.92,66.65c0,.08,0,.16,0,.24l4.2,2.43a3,3,0,0,1,3.4,0l4.2-2.43c0-.08,0-.16,0-.24s0-.16,0-.24l-3.28-1.89H277A3,3,0,0,1,277.92,66.65Z"/><path class="cls-2" d="M151,42.25H97.82a4.93,4.93,0,0,0-4.91,4.91V80.32a4.93,4.93,0,0,0,4.91,4.91h39.69A9.21,9.21,0,0,0,150,91a9.44,9.44,0,0,1-4.9-5.8h6a4.93,4.93,0,0,0,4.91-4.91V47.16A4.93,4.93,0,0,0,151,42.25Z"/><path class="cls-3" d="M182.12,90.51h44.44a4.11,4.11,0,0,1,4.1,4.1V122.3a4.11,4.11,0,0,1-4.1,4.1h-1.7a7.88,7.88,0,0,0,4.09,4.84,7.69,7.69,0,0,1-10.41-4.84H182.12a4.11,4.11,0,0,1-4.1-4.1V94.61A4.11,4.11,0,0,1,182.12,90.51Z"/><path class="cls-4" d="M148.58,62.25c-22,0-39.84,12-39.84,26.75,0,8,5.3,15.26,13.66,20.16a12.14,12.14,0,0,1-6.8,10.8,11.88,11.88,0,0,0,15.84-6.8,56.35,56.35,0,0,0,17.14,2.6c22,0,39.84-12,39.84-26.75S170.59,62.25,148.58,62.25Z"/><path class="cls-5" d="M528.74,68.21c-10.56,0-19.12,5.75-19.12,12.84,0,3.86,2.54,7.32,6.56,9.68a5.82,5.82,0,0,1-3.27,5.18,5.7,5.7,0,0,0,7.6-3.26,27,27,0,0,0,8.23,1.25c10.56,0,19.12-5.75,19.12-12.84S539.3,68.21,528.74,68.21Z"/><g class="cls-6"><path class="cls-2" d="M401.94,93.09a10.27,10.27,0,0,0,.81-3.95c0-8.08-9.7-14.63-21.66-14.63-9.73,0-18,4.33-20.69,10.29-7.89.87-14,6.65-14,13.66,0,7.61,7.19,13.78,16.05,13.78a18.53,18.53,0,0,0,4.45-.54c2.53,3.85,7.59,6.48,13.41,6.48,6,0,11.26-2.83,13.69-6.91a9.43,9.43,0,0,0,4.18,1,9.83,9.83,0,0,0,9.69-10A10,10,0,0,0,401.94,93.09Z"/><ellipse class="cls-2" cx="360.79" cy="119.46" rx="4.39" ry="2.97"/><ellipse class="cls-2" cx="365.64" cy="128.37" rx="2.88" ry="2.12"/></g><g class="cls-6"><path class="cls-7" d="M241.82,69.13a9.34,9.34,0,0,0,.86-3.88c0-7.3-8.77-13.23-19.58-13.23-8.79,0-16.23,3.92-18.7,9.31-7.13.79-12.65,6-12.65,12.35,0,6.88,6.5,12.46,14.51,12.46a16.75,16.75,0,0,0,4-.49c2.29,3.48,6.86,5.86,12.13,5.86s9.95-2.43,12.21-6a8.53,8.53,0,0,0,3.18.61,8.89,8.89,0,0,0,8.76-9A9,9,0,0,0,241.82,69.13Z"/><ellipse class="cls-7" cx="204.75" cy="92.66" rx="3.97" ry="2.68"/><ellipse class="cls-7" cx="209.13" cy="100.71" rx="2.6" ry="1.92"/></g><path class="cls-2" d="M34.9,11.92a6.51,6.51,0,0,0,.6-2.7C35.49,4.13,29.38,0,21.85,0c-6.13,0-11.31,2.73-13,6.49C3.84,7,0,10.68,0,15.09c0,4.8,4.53,8.68,10.11,8.68a11.67,11.67,0,0,0,2.81-.34,10.05,10.05,0,0,0,8.45,4.08,10,10,0,0,0,8.51-4.17,5.94,5.94,0,0,0,2.22.43A6.19,6.19,0,0,0,38.2,17.5,6.3,6.3,0,0,0,34.9,11.92Z"/><ellipse class="cls-2" cx="9.06" cy="28.32" rx="2.77" ry="1.87"/><ellipse class="cls-2" cx="12.12" cy="33.93" rx="1.81" ry="1.34"/><path class="cls-8" d="M419.52,48.39a24.42,24.42,0,0,0-15.47,43.48,8.92,8.92,0,0,1-4.88,6.59,8.73,8.73,0,0,0,10.67-3.12,24.5,24.5,0,1,0,9.68-46.95Z"/><path class="cls-2" d="M567,17A18.73,18.73,0,0,0,555.15,50.3a6.84,6.84,0,0,1-3.75,5.05A6.69,6.69,0,0,0,559.59,53,18.79,18.79,0,1,0,567,17Z"/><path class="cls-5" d="M84.89,58.91a18.89,18.89,0,0,0-12,33.63,6.9,6.9,0,0,1-3.78,5.1,6.75,6.75,0,0,0,8.25-2.41,18.95,18.95,0,1,0,7.49-36.32Z"/><path class="cls-9" d="M494.57,109.94l-.23,0a2.62,2.62,0,0,1-2.62-2.62c0-.07,0-.14,0-.21L488,105a2.62,2.62,0,0,1-3,0l-3.68,2.13c0,.07,0,.14,0,.21a2.62,2.62,0,0,1-1.5,2.36V114a2.74,2.74,0,0,1,.36.21l3.68-2.13c0-.07,0-.14,0-.21a2.62,2.62,0,1,1,5.24,0c0,.07,0,.14,0,.21l3.68,2.13a2.61,2.61,0,0,1,1.39-.46,4.61,4.61,0,0,0,.33-1.7Z"/><path class="cls-9" d="M492.85,105.19a2.61,2.61,0,0,1,1.49-.46l.23,0V101l-.23,0a2.61,2.61,0,0,1-1.49-.46l-3.68,2.13c0,.07,0,.14,0,.21s0,.14,0,.21Z"/><path class="cls-9" d="M476.16,116.33a2.62,2.62,0,0,1,1.5-2.36v-4.25a2.62,2.62,0,0,1-1.5-2.36c0-.07,0-.14,0-.21L472.49,105a2.54,2.54,0,0,1-.36.21v4.25a2.62,2.62,0,1,1-2.61,4.52l-3.68,2.13c0,.07,0,.14,0,.21a2.61,2.61,0,0,1,0,.34h10.13l.23-.14C476.16,116.47,476.16,116.4,476.16,116.33Z"/><path class="cls-9" d="M460.6,116.33a2.62,2.62,0,0,1,4.11-2.16l3.68-2.13c0-.07,0-.14,0-.21a2.62,2.62,0,0,1,1.5-2.36v-4.25a2.62,2.62,0,0,1-1.5-2.36c0-.07,0-.14,0-.21l-3.68-2.13a2.57,2.57,0,0,1-.36.21V105a2.62,2.62,0,1,1-2.25,0v-4.25a2.62,2.62,0,1,1,3.74-2.36c0,.07,0,.14,0,.21l3.68,2.13a2.65,2.65,0,0,1,.36-.21V96.24a2.62,2.62,0,1,1,2.25,0v4.25a2.62,2.62,0,0,1,1.5,2.36c0,.07,0,.14,0,.21l3.68,2.13a2.62,2.62,0,0,1,3,0l3.68-2.13c0-.07,0-.14,0-.21s0-.14,0-.21l-3.68-2.13A2.62,2.62,0,1,1,477.66,96V91.74a2.62,2.62,0,1,1,2.25,0V96a2.62,2.62,0,0,1,1.5,2.36c0,.07,0,.14,0,.21l3.68,2.13a2.62,2.62,0,0,1,3,0l3.68-2.13c0-.07,0-.14,0-.21s0-.14,0-.21L488,96a2.62,2.62,0,1,1,1.13-2.16c0,.07,0,.14,0,.21l3.68,2.13a2.6,2.6,0,0,1,1.49-.46l.23,0V80.55a4.67,4.67,0,0,0-4.66-4.66h-50.5a4.68,4.68,0,0,0-4.66,4.66V112a4.68,4.68,0,0,0,4.66,4.66h1.93a9,9,0,0,1-4.65,5.5,8.74,8.74,0,0,0,11.83-5.5h12.12A2.57,2.57,0,0,1,460.6,116.33Z"/><path class="cls-9" d="M491.73,116.12,488,114a2.61,2.61,0,0,1-3,0l-3.68,2.13c0,.07,0,.14,0,.21a2.61,2.61,0,0,1,0,.34h8.54a4.62,4.62,0,0,0,1.81-.37C491.72,116.24,491.72,116.18,491.73,116.12Z"/><path class="cls-5" d="M297.08,60.42a19.46,19.46,0,0,0-1.59,3.13l3.09-1.78c0-.08,0-.16,0-.24s0-.16,0-.24Z"/><path class="cls-5" d="M357.17,86.56c6.1-4.37,9.85-10.24,9.85-16.71,0-13.49-16.29-24.43-36.38-24.43-13.88,0-25.94,5.22-32.07,12.9l1.29.75a3,3,0,1,1,0,4.92l-4.2,2.43c0,.08,0,.16,0,.24s0,.16,0,.24l4.2,2.43a3,3,0,1,1-1.29,2.46c0-.08,0-.16,0-.24l-4.2-2.43-.09.05c0,.23,0,.46,0,.69a16.88,16.88,0,0,0,.9,5.38,3,3,0,0,1,.48,1.28c.12.28.24.56.37.84l3.84,2.22a3,3,0,1,1,2.22,5.4c6.66,5.67,17,9.31,28.56,9.31a50.22,50.22,0,0,0,18.81-3.52,10.84,10.84,0,0,0,13.9,4.95A11.09,11.09,0,0,1,357.17,86.56Z"/><path class="cls-5" d="M36.09,61.68a2.34,2.34,0,0,1,1.34-2.12V55.76a2.34,2.34,0,0,1-1.34-2.12c0-.06,0-.13,0-.19l-3.29-1.9a2.3,2.3,0,0,1-.33.19v3.81a2.34,2.34,0,1,1-2.34,4l-1.25.72a21,21,0,0,0,4.65,3l2.56-1.48C36.1,61.81,36.09,61.75,36.09,61.68Z"/><path class="cls-5" d="M33.82,41.59a2.34,2.34,0,0,1-1.34,2.12v3.81a2.34,2.34,0,0,1,1.34,2.12c0,.06,0,.13,0,.19l3.29,1.9a2.34,2.34,0,0,1,2.66,0l3.29-1.9c0-.06,0-.12,0-.19s0-.13,0-.19l-3.29-1.9a2.34,2.34,0,1,1-2.34-4V39.68a2.34,2.34,0,0,1-1.32-1.78,25.29,25.29,0,0,0-3.59,1.6A2.34,2.34,0,0,1,33.82,41.59Z"/><path class="cls-5" d="M37.11,63.61l-1.25.72c.51.19,1,.36,1.57.53V63.8A2.36,2.36,0,0,1,37.11,63.61Z"/><path class="cls-5" d="M62.95,61.44C66.7,58.75,69,55.14,69,51.16c0-8.3-10-15-22.37-15a32.73,32.73,0,0,0-6,.55,2.33,2.33,0,0,1-1.17,3v3.81a2.34,2.34,0,0,1,1.34,2.12c0,.06,0,.13,0,.19l3.3,1.9a2.34,2.34,0,0,1,2.66,0L50,45.79c0-.06,0-.12,0-.19s0-.13,0-.19l-3.29-1.9a2.34,2.34,0,1,1,1-1.93c0,.06,0,.13,0,.19L51,43.68a2.34,2.34,0,1,1,0,3.86l-3.29,1.9c0,.06,0,.12,0,.19s0,.13,0,.19L51,51.71a2.34,2.34,0,1,1-1,1.93c0-.06,0-.13,0-.19l-3.29-1.9a2.34,2.34,0,0,1-2.66,0l-3.3,1.9c0,.06,0,.12,0,.19a2.34,2.34,0,0,1-1.34,2.12v3.81a2.45,2.45,0,0,1,.33.19l3.29-1.9c0-.06,0-.12,0-.19a2.34,2.34,0,1,1,4.69,0c0,.06,0,.13,0,.19L51,59.75a2.34,2.34,0,1,1-1,1.93c0-.06,0-.13,0-.19l-3.29-1.9a2.34,2.34,0,0,1-2.66,0l-3.3,1.9c0,.06,0,.12,0,.19a2.34,2.34,0,0,1-1.34,2.12v1.59a31.43,31.43,0,0,0,3.47.59l.15-.09c0-.06,0-.12,0-.19a2.34,2.34,0,1,1,4.64.46A30.59,30.59,0,0,0,58.2,64a6.67,6.67,0,0,0,8.55,3A6.82,6.82,0,0,1,62.95,61.44Z"/><path class="cls-5" d="M26.86,45.61c0,.06,0,.13,0,.19l3.3,1.9a2.37,2.37,0,0,1,.33-.19V43.7a2.34,2.34,0,0,1-1.32-1.91,15.87,15.87,0,0,0-2.57,2.71A2.32,2.32,0,0,1,26.86,45.61Z"/><path class="cls-5" d="M29.13,57.66a2.34,2.34,0,0,1,1.34-2.12V51.74a2.34,2.34,0,0,1-1.34-2.12c0-.06,0-.13,0-.19l-3.29-1.9a2.3,2.3,0,0,1-.33.19v3.81a2.34,2.34,0,0,1-.16,4.3,13.35,13.35,0,0,0,2,3l1.73-1C29.14,57.79,29.13,57.73,29.13,57.66Z"/><g class="cls-6"><path class="cls-7" d="M512,52a8.42,8.42,0,0,0,.77-3.5c0-6.59-7.91-11.93-17.66-11.93-7.93,0-14.64,3.53-16.87,8.4-6.44.71-11.41,5.43-11.41,11.14,0,6.21,5.86,11.24,13.09,11.24a15.11,15.11,0,0,0,3.63-.44c2.07,3.14,6.19,5.28,10.94,5.28s9-2.19,11-5.4a7.69,7.69,0,0,0,2.87.55,8,8,0,0,0,7.9-8.13A8.15,8.15,0,0,0,512,52Z"/><ellipse class="cls-7" cx="478.53" cy="73.22" rx="3.58" ry="2.42"/><ellipse class="cls-7" cx="482.48" cy="80.48" rx="2.35" ry="1.73"/></g></g></g></g></svg>