<svg xmlns="http://www.w3.org/2000/svg" viewBox="0 0 470.3 162.49"><defs><style>.cls-1{fill:#4b87d0;}.cls-2{fill:#fff;}.cls-3{fill:#69f9e4;}.cls-4{fill:#63bbaf;}.cls-5{fill:#ace5db;}.cls-6{fill:#18343a;}.cls-7{fill:#c03e31;}.cls-8{fill:none;}.cls-9{fill:#4b6568;}.cls-10{fill:#edc298;}.cls-11{fill:#f9deb2;}.cls-12{fill:#d04f44;}.cls-13{fill:#6a9bcc;}</style></defs><title>tablet</title><g id="Layer_2" data-name="Layer 2"><g id="Layer_1-2" data-name="Layer 1"><circle class="cls-1" cx="405.52" cy="67.1" r="38.21"/><rect class="cls-2" x="389.35" y="42.24" width="32.34" height="46.69" transform="translate(339.47 471.04) rotate(-89.94)"/><path class="cls-3" d="M429.93,82.87l-48.87-.05,0-34.52,48.87.06Zm-46.69-2.23,44.52,0,0-30.17-44.52,0Z"/><polygon class="cls-2" points="382.16 81.72 405.52 63.77 428.84 81.77 382.16 81.72"/><path class="cls-3" d="M428.84,82.86h0l-46.68-.05a1.09,1.09,0,0,1-.66-2l23.36-17.95a1.08,1.08,0,0,1,1.33,0l23.26,18a1.09,1.09,0,0,1-.61,2Zm-43.48-2.23,40.29,0L405.52,65.14Z"/><polygon class="cls-2" points="382.2 49.39 405.52 69.04 428.88 49.44 382.2 49.39"/><path class="cls-3" d="M405.52,70.13a1.09,1.09,0,0,1-.7-.26L381.5,50.22a1.09,1.09,0,0,1,.7-1.92h0l46.68.05a1.09,1.09,0,0,1,.7,1.92L406.22,69.88A1.09,1.09,0,0,1,405.52,70.13ZM385.18,50.48l20.34,17.14,20.37-17.1Z"/><path class="cls-2" d="M458.69,15.7l2.58-4.16-5.53-3.41-2.58,4.17a20,20,0,0,0-9-1.46L443,6.07l-6.34,1.5,1.13,4.76a19.93,19.93,0,0,0-7.43,5.34l-4.17-2.57-3.43,5.53,4.17,2.56a19.89,19.89,0,0,0-1.48,9l-4.77,1.13,1.49,6.32L427,38.53a19.89,19.89,0,0,0,5.35,7.4l-2.58,4.17,5.54,3.41,2.58-4.17a20,20,0,0,0,9,1.46L448,55.57l6.34-1.49-1.13-4.76A20,20,0,0,0,460.63,44l4.18,2.57L468.23,41l-4.18-2.57a20,20,0,0,0,1.48-9l4.77-1.13L468.81,22,464,23.11A20,20,0,0,0,458.69,15.7Zm-2,12.47a11.52,11.52,0,1,1-13.85-8.54A11.5,11.5,0,0,1,456.7,28.18Z"/><path class="cls-1" d="M43.32,60.5l-.84-3.59L37.72,58l.84,3.59a15.05,15.05,0,0,0-5.58,4l-3.12-1.94-2.58,4.16L30.4,69.8a15.05,15.05,0,0,0-1.11,6.79l-3.58.85,1.11,4.76,3.59-.85a14.91,14.91,0,0,0,4,5.58l-1.94,3.13,4.15,2.57,1.94-3.13a15,15,0,0,0,6.78,1.1l.84,3.59,4.76-1.13-.84-3.59a15,15,0,0,0,5.58-4l3.13,1.93,2.58-4.16L58.24,81.3a15,15,0,0,0,1.11-6.79l3.58-.85L61.83,68.9l-3.58.85a15,15,0,0,0-4-5.58L56.18,61,52,58.47,50.09,61.6A15,15,0,0,0,43.32,60.5Zm5.57,7.69A8.66,8.66,0,1,1,37,71,8.64,8.64,0,0,1,48.88,68.19Z"/><path class="cls-2" d="M7.25,41.12,4.12,39.17,1.55,43.33l3.13,1.94a15,15,0,0,0-1.11,6.79L0,52.9l1.12,4.76,3.58-.84a15,15,0,0,0,4,5.58L6.78,65.55l4.15,2.58L12.86,65a14.92,14.92,0,0,0,6.77,1.11l.84,3.59,4.75-1.12L24.39,65A15,15,0,0,0,30,61l3.13,1.94,2.57-4.16-3.13-1.94A15,15,0,0,0,33.63,50l3.58-.84-1.12-4.76-3.58.84a15,15,0,0,0-4-5.59l1.94-3.13L26.28,34,24.35,37.1A14.92,14.92,0,0,0,17.57,36l-.84-3.59L12,33.51l.84,3.59A15,15,0,0,0,7.25,41.12Zm9.37,1.5A8.66,8.66,0,1,1,10.2,53,8.65,8.65,0,0,1,16.63,42.61Z"/><circle class="cls-4" cx="156.47" cy="26.14" r="21.42" transform="translate(-0.34 2.1) rotate(-0.77)"/><path class="cls-5" d="M156.18,4.72a21.41,21.41,0,0,0-17.76,9.87,27.94,27.94,0,0,0,20.49,8.52,27.89,27.89,0,0,0,17-6A21.42,21.42,0,0,0,156.18,4.72Z"/><path class="cls-6" d="M181.36,25.81a24.94,24.94,0,1,0-24.6,25.27A24.94,24.94,0,0,0,181.36,25.81Zm-44.05.59a19.11,19.11,0,1,1,19.37,18.85A19.11,19.11,0,0,1,137.31,26.4Z"/><rect class="cls-6" x="91.44" y="22.17" width="43.69" height="9.1" transform="translate(-0.35 1.53) rotate(-0.77)"/><rect class="cls-7" x="88.53" y="19.49" width="36.04" height="14.64" transform="translate(-0.35 1.43) rotate(-0.77)"/><circle class="cls-2" cx="161.61" cy="14.31" r="4.11" transform="translate(-0.18 2.18) rotate(-0.77)"/><polygon class="cls-8" points="307.41 153.69 307.39 142.04 307.68 142.04 307.68 140.57 282.7 162.49 306.02 162.49 306.01 153.7 307.41 153.69"/><path class="cls-6" d="M188.35,157.93a.9.9,0,0,1,1.26.08l3.93,4.48h5.52l-6.33-7.21a.89.89,0,0,1,.08-1.26l8-7a.89.89,0,0,1,1.26.08l7,8a.9.9,0,0,1-.08,1.26l-7,6.15h41.2l-10.77-12.28a3,3,0,0,1,.28-4.24l29.84-26.18a3,3,0,0,1,4.24.28l18.07,20.6a3,3,0,0,1-.27,4.24l-20,17.58H282.7l25-21.91,0-11.15a6.84,6.84,0,0,1-5.34-2.1L262.27,85.24h0l-3.41-3.58a7,7,0,0,1-.58-.71l-.13-.18a7,7,0,0,1-.43-.72l0,0a7,7,0,0,1-.36-.87l0-.08a7,7,0,0,1-.34-1.62l-.55-.62a.89.89,0,0,1,.08-1.26l.72-.63a6.94,6.94,0,0,1,5.65-5l1.65-1.45a.9.9,0,0,1,1.26.08l2.46,2.8a7,7,0,0,1,.73.66l18.74,19.68-.9-5.47-6.7-7.64a.9.9,0,0,1,.08-1.26l4.49-3.94-.87-5.26L277.2,74a.89.89,0,0,1-1.26-.08l-4.33-4.93h0l-13.9-15.85a.89.89,0,0,1,.08-1.26l8-7a.89.89,0,0,1,1.26.08l11.2,12.77h0l.46.53L281,60.73h0L283,63l-3.48-21.07L262.94,23.06a7.49,7.49,0,0,0-10.57-.69L137.45,123.19a7.49,7.49,0,0,0-.69,10.57L162,162.49h21.19Zm9.5-14.35-8,7a.89.89,0,0,1-1.26-.08l-7-8a.9.9,0,0,1,.08-1.26l8-7a.9.9,0,0,1,1.27.08l7,8A.9.9,0,0,1,197.85,143.57ZM219,109.66a.9.9,0,0,1,.08-1.26l8-7a.9.9,0,0,1,1.26.08l7,8a.9.9,0,0,1-.08,1.26l-8,7a.9.9,0,0,1-1.26-.08Zm3.83,12-8,7a.89.89,0,0,1-1.26-.08l-7-8a.89.89,0,0,1,.08-1.26l8-7a.9.9,0,0,1,1.26.08l7,8A.89.89,0,0,1,222.81,121.67Zm8.65-23a.9.9,0,0,1,.08-1.26l8-7a.9.9,0,0,1,1.26.08l7,8a.9.9,0,0,1-.08,1.26l-8,7a.9.9,0,0,1-1.26-.08ZM239.78,83l-7-8a.9.9,0,0,1,.08-1.26l8-7a.9.9,0,0,1,1.26.08l7,8a.9.9,0,0,1-.08,1.26l-8,7A.89.89,0,0,1,239.78,83Zm-3.12,2.74a.89.89,0,0,1-.08,1.26l-8,7a.9.9,0,0,1-1.27-.08l-7-8a.9.9,0,0,1,.08-1.26l8-7a.9.9,0,0,1,1.26.08ZM224.17,96.69a.9.9,0,0,1-.08,1.26l-8,7a.89.89,0,0,1-1.26-.08l-7-8a.9.9,0,0,1,.08-1.26l8-7a.9.9,0,0,1,1.26.08Zm-12.48,11a.9.9,0,0,1-.08,1.26l-8,7a.89.89,0,0,1-1.26-.09l-7-8a.9.9,0,0,1,.08-1.26l8-7a.9.9,0,0,1,1.26.08Zm-12.48,11a.9.9,0,0,1-.08,1.26l-8,7a.9.9,0,0,1-1.26-.08l-7-8a.89.89,0,0,1,.08-1.26l8-7a.9.9,0,0,1,1.26.08Zm-12.48,10.95a.9.9,0,0,1-.08,1.27l-8,7a.89.89,0,0,1-1.26-.08l-7-8a.89.89,0,0,1,.08-1.26l8-7a.9.9,0,0,1,1.26.08Zm14.32,10-7-8a.89.89,0,0,1,.08-1.26l8-7a.89.89,0,0,1,1.26.08l7,8a.89.89,0,0,1-.08,1.26l-8,7A.89.89,0,0,1,201,139.57Zm20.48,5.82-8,7a.89.89,0,0,1-1.26-.08l-7-8a.89.89,0,0,1,.08-1.26l8-7a.9.9,0,0,1,1.26.08l7,8A.89.89,0,0,1,221.53,145.39ZM259,112.54l-8,7h0l-4.46,3.91h0l-8,7h0l-12.48,11a.89.89,0,0,1-1.26-.08l-7-8a.89.89,0,0,1,.08-1.26l12.48-10.95h0l4.64-4.07,7.84-6.88h0l8-7a.9.9,0,0,1,1.26.08l7,8A.89.89,0,0,1,259,112.54Zm4.27-20.31a.9.9,0,0,1,1.26.08l7,8a.89.89,0,0,1-.08,1.26l-8,7a.9.9,0,0,1-1.26-.08l-7-8a.89.89,0,0,1,.08-1.26Zm-2.9-4.67a.9.9,0,0,1-.08,1.26l-8,7a.89.89,0,0,1-1.26-.08l-7-8a.9.9,0,0,1,.08-1.26l8-7a.89.89,0,0,1,1.26.08Zm1.28-23.72a.89.89,0,0,1-.08,1.26l-8,7a.9.9,0,0,1-1.26-.08l-7-8a.9.9,0,0,1,.08-1.26l8-7a.9.9,0,0,1,1.26.08Zm-15-24.78,8-7a.9.9,0,0,1,1.26.08l7,8a.9.9,0,0,1-.08,1.26l-8,7a.9.9,0,0,1-1.26-.08l-7-8A.89.89,0,0,1,246.59,39.06ZM234.11,50l8-7a.9.9,0,0,1,1.26.08l7,8a.9.9,0,0,1-.08,1.26l-8,7a.9.9,0,0,1-1.26-.08l-7-8A.9.9,0,0,1,234.11,50ZM221.63,61l8-7a.9.9,0,0,1,1.26.08l7,8a.9.9,0,0,1-.08,1.26l-8,7a.9.9,0,0,1-1.26-.08l-7-8A.9.9,0,0,1,221.63,61ZM209.15,71.91l8-7a.89.89,0,0,1,1.26.08l7,8a.9.9,0,0,1-.08,1.26l-8,7a.9.9,0,0,1-1.26-.08l-7-8A.9.9,0,0,1,209.15,71.91Zm-12.48,11,8-7a.89.89,0,0,1,1.26.08l7,8a.9.9,0,0,1-.08,1.26l-8,7a.9.9,0,0,1-1.26-.08l-7-8A.9.9,0,0,1,196.66,82.86Zm-12.48,11,8-7a.9.9,0,0,1,1.26.08l7,8a.9.9,0,0,1-.08,1.26l-8,7a.9.9,0,0,1-1.26-.08l-7-8A.89.89,0,0,1,184.18,93.81ZM171.7,104.76l8-7a.9.9,0,0,1,1.26.08l7,8a.9.9,0,0,1-.08,1.26l-8,7a.9.9,0,0,1-1.26-.08l-7-8A.9.9,0,0,1,171.7,104.76Zm-12.48,10.95,8-7a.9.9,0,0,1,1.26.08l7,8a.9.9,0,0,1-.08,1.26l-8,7a.9.9,0,0,1-1.26-.08l-7-8A.89.89,0,0,1,159.22,115.71Zm-5.53,20.23-7-8a.9.9,0,0,1,.08-1.26l8-7a.9.9,0,0,1,1.26.08l7,8A.9.9,0,0,1,163,129l-8,7A.89.89,0,0,1,153.69,135.94Zm11.2,12.77-7-8a.9.9,0,0,1,.08-1.26l8-7a.9.9,0,0,1,1.26.08l7,8a.9.9,0,0,1-.08,1.26l-8,7A.89.89,0,0,1,164.88,148.71Zm11.2,12.77-7-8a.9.9,0,0,1,.08-1.27l8-7a.9.9,0,0,1,1.26.08l7,8a.9.9,0,0,1-.08,1.27l-8,7A.89.89,0,0,1,176.08,161.47Z"/><path class="cls-6" d="M299.58,68.43a6.36,6.36,0,0,1,.55-3l-4.69-5.34,1.45,8.76Z"/><rect class="cls-9" x="148.62" y="121.6" width="12.45" height="12.45" rx="0.9" ry="0.9" transform="translate(-45.85 133.86) rotate(-41.26)"/><path class="cls-9" d="M162,110.65h10.66a.9.9,0,0,1,.9.9v10.66a.9.9,0,0,1-.9.9H162a.89.89,0,0,1-.89-.89V111.55a.9.9,0,0,1,.9-.9Z" transform="translate(-35.53 139.38) rotate(-41.26)"/><path class="cls-9" d="M174.48,99.7h10.66a.9.9,0,0,1,.9.9v10.66a.89.89,0,0,1-.89.89H174.49a.9.9,0,0,1-.9-.9V100.6a.9.9,0,0,1,.9-.9Z" transform="translate(-25.21 144.88) rotate(-41.26)"/><path class="cls-9" d="M187,88.75h10.66a.89.89,0,0,1,.89.89v10.66a.9.9,0,0,1-.9.9H187a.89.89,0,0,1-.89-.89V89.65A.9.9,0,0,1,187,88.75Z" transform="translate(-14.89 150.4) rotate(-41.26)"/><path class="cls-9" d="M203.61,92.14a.9.9,0,0,0,1.26.08l8-7a.9.9,0,0,0,.08-1.26l-7-8a.89.89,0,0,0-1.26-.08l-8,7a.9.9,0,0,0-.08,1.26Z"/><rect class="cls-9" x="211.03" y="66.85" width="12.45" height="12.45" rx="0.9" ry="0.9" transform="matrix(0.75, -0.66, 0.66, 0.75, 5.74, 161.4)"/><path class="cls-9" d="M228.58,70.24a.9.9,0,0,0,1.26.08l8-7a.9.9,0,0,0,.08-1.26l-7-8a.9.9,0,0,0-1.26-.08l-8,7a.9.9,0,0,0-.08,1.26Z"/><rect class="cls-9" x="236" y="44.95" width="12.45" height="12.45" rx="0.9" ry="0.9" transform="translate(26.39 172.45) rotate(-41.26)"/><path class="cls-9" d="M249.38,34H260a.89.89,0,0,1,.89.89V45.56a.89.89,0,0,1-.89.89H249.38a.9.9,0,0,1-.9-.9V34.9A.9.9,0,0,1,249.38,34Z" transform="translate(36.7 177.95) rotate(-41.26)"/><path class="cls-9" d="M160.72,134.37h10.66a.9.9,0,0,1,.9.9v10.66a.9.9,0,0,1-.9.9H160.72a.9.9,0,0,1-.9-.9V135.26A.89.89,0,0,1,160.72,134.37Z" transform="translate(-51.49 144.39) rotate(-41.25)"/><path class="cls-9" d="M173.2,123.41h10.66a.9.9,0,0,1,.9.9V135a.89.89,0,0,1-.89.89H173.2a.9.9,0,0,1-.9-.9V124.31a.9.9,0,0,1,.9-.9Z" transform="translate(-41.17 149.92) rotate(-41.26)"/><path class="cls-9" d="M185.68,112.47h10.66a.89.89,0,0,1,.89.89V124a.9.9,0,0,1-.9.9H185.68a.9.9,0,0,1-.9-.9V113.36A.89.89,0,0,1,185.68,112.47Z" transform="translate(-30.85 155.46) rotate(-41.27)"/><path class="cls-9" d="M203.4,99.55l-8,7a.9.9,0,0,0-.08,1.26l7,8a.89.89,0,0,0,1.26.09l8-7a.9.9,0,0,0,.08-1.26l-7-8A.9.9,0,0,0,203.4,99.55Z"/><rect class="cls-9" x="209.75" y="90.57" width="12.45" height="12.45" rx="0.9" ry="0.9" transform="translate(-10.22 166.44) rotate(-41.25)"/><rect class="cls-9" x="222.23" y="79.62" width="12.45" height="12.45" rx="0.9" ry="0.9" transform="translate(0.11 171.97) rotate(-41.26)"/><rect class="cls-9" x="234.72" y="68.67" width="12.45" height="12.45" rx="0.9" ry="0.9" transform="translate(10.43 177.49) rotate(-41.26)"/><rect class="cls-9" x="247.2" y="57.72" width="12.45" height="12.45" rx="0.9" ry="0.9" transform="translate(20.75 183) rotate(-41.26)"/><polygon class="cls-9" points="280.97 60.73 278.73 58.17 280.97 60.73 280.97 60.73"/><path class="cls-9" d="M269,64.6l8-7a.89.89,0,0,1,1.26.08l-11.2-12.77a.89.89,0,0,0-1.26-.08l-8,7a.89.89,0,0,0-.08,1.26l13.9,15.85h0l-2.7-3.08A.89.89,0,0,1,269,64.6Z"/><path class="cls-9" d="M185.36,154.52a.9.9,0,0,0,.08-1.27l-7-8a.9.9,0,0,0-1.26-.08l-8,7a.9.9,0,0,0-.08,1.27l7,8a.89.89,0,0,0,1.26.08Z"/><path class="cls-9" d="M184.4,136.18h10.66a.89.89,0,0,1,.89.89v10.66a.9.9,0,0,1-.9.9H184.4a.9.9,0,0,1-.9-.9V137.08A.9.9,0,0,1,184.4,136.18Z" transform="translate(-46.81 160.48) rotate(-41.26)"/><path class="cls-9" d="M196.88,125.23h10.66a.89.89,0,0,1,.89.89v10.66a.89.89,0,0,1-.89.89H196.88a.89.89,0,0,1-.89-.89V126.13a.9.9,0,0,1,.9-.9Z" transform="translate(-36.49 165.97) rotate(-41.26)"/><path class="cls-9" d="M209.36,114.28H220a.89.89,0,0,1,.89.89v10.66a.89.89,0,0,1-.89.89H209.36a.9.9,0,0,1-.9-.9V115.18A.89.89,0,0,1,209.36,114.28Z" transform="translate(-26.17 171.5) rotate(-41.26)"/><path class="cls-9" d="M221.85,103.33h10.66a.9.9,0,0,1,.9.9v10.66a.89.89,0,0,1-.89.89H221.85a.9.9,0,0,1-.9-.9V104.23A.9.9,0,0,1,221.85,103.33Z" transform="translate(-15.85 177.01) rotate(-41.26)"/><rect class="cls-9" x="233.43" y="92.38" width="12.45" height="12.45" rx="0.9" ry="0.9" transform="translate(-5.53 182.53) rotate(-41.26)"/><path class="cls-9" d="M246.81,81.43h10.66a.9.9,0,0,1,.9.9V93a.89.89,0,0,1-.89.89H246.81a.9.9,0,0,1-.9-.9V82.33a.89.89,0,0,1,.89-.89Z" transform="translate(4.78 188.02) rotate(-41.25)"/><path class="cls-9" d="M257.22,74.92l-.72.63a.89.89,0,0,0-.08,1.26l.55.62A7,7,0,0,1,257.22,74.92Z"/><path class="cls-9" d="M268.25,71.4l-2.46-2.8a.9.9,0,0,0-1.26-.08L262.87,70A7,7,0,0,1,268.25,71.4Z"/><polygon class="cls-9" points="278.27 57.65 278.27 57.65 278.73 58.17 278.27 57.65"/><path class="cls-9" d="M281,60.73a.89.89,0,0,1-.08,1.26l-8,7a.89.89,0,0,1-1.26-.08l4.33,4.93a.89.89,0,0,0,1.26.08l6.61-5.8L283,63Z"/><path class="cls-9" d="M272.87,69l8-7a.89.89,0,0,0,.08-1.26l-2.24-2.55-.46-.53a.89.89,0,0,0-1.26-.08l-8,7a.89.89,0,0,0-.08,1.26l2.7,3.08A.89.89,0,0,0,272.87,69Z"/><path class="cls-9" d="M188.35,157.93l-5.2,4.56h10.39L189.61,158A.9.9,0,0,0,188.35,157.93Z"/><path class="cls-9" d="M209.13,155.08l-7-8a.89.89,0,0,0-1.26-.08l-8,7a.89.89,0,0,0-.08,1.26l6.33,7.21h3l7-6.15A.9.9,0,0,0,209.13,155.08Z"/><path class="cls-9" d="M208.08,138h10.66a.89.89,0,0,1,.89.89v10.66a.9.9,0,0,1-.9.9H208.08a.9.9,0,0,1-.9-.9V138.89a.89.89,0,0,1,.89-.89Z" transform="translate(-42.13 176.55) rotate(-41.26)"/><path class="cls-9" d="M237.21,130.44l-7-8a.9.9,0,0,1,.08-1.26l-12.48,10.95a.89.89,0,0,0-.08,1.26l7,8a.89.89,0,0,0,1.26.08l12.48-11A.89.89,0,0,1,237.21,130.44Z"/><path class="cls-9" d="M249.69,119.49l-7-8a.9.9,0,0,1,.08-1.26l-7.84,6.88,3.38-3a.9.9,0,0,1,1.26.08l7,8a.9.9,0,0,1-.08,1.26l4.46-3.91A.89.89,0,0,1,249.69,119.49Z"/><polygon class="cls-9" points="238.47 130.52 246.49 123.49 246.49 123.48 238.47 130.52 238.47 130.52"/><polygon class="cls-9" points="230.26 121.16 230.26 121.16 234.9 117.09 230.26 121.16"/><path class="cls-9" d="M246.57,122.23l-7-8a.9.9,0,0,0-1.26-.08l-3.38,3-4.64,4.07a.9.9,0,0,0-.08,1.26l7,8a.89.89,0,0,0,1.26.08l8-7A.9.9,0,0,0,246.57,122.23Z"/><path class="cls-9" d="M252,103.26a.9.9,0,0,0-1.26-.08l-8,7h0l5.73-5a.9.9,0,0,1,1.26.08l7,8a.89.89,0,0,1-.08,1.26l-5.73,5h0l8-7a.89.89,0,0,0,.08-1.26Z"/><path class="cls-9" d="M256.77,113.28l-7-8a.9.9,0,0,0-1.26-.08l-5.73,5a.9.9,0,0,0-.08,1.26l7,8a.89.89,0,0,0,1.26.08l5.73-5A.89.89,0,0,0,256.77,113.28Z"/><rect class="cls-9" x="257.11" y="94.2" width="12.45" height="12.45" rx="0.9" ry="0.9" transform="translate(-0.85 198.6) rotate(-41.26)"/><path class="cls-9" d="M286,81.41l-1.32-8-4.49,3.94a.9.9,0,0,0-.08,1.26l6.7,7.64L286,81.59C286,81.53,286,81.47,286,81.41Z"/><path class="cls-9" d="M284.89,140.67l-18.07-20.6a3,3,0,0,0-4.24-.28L232.74,146a3,3,0,0,0-.28,4.24l10.77,12.28h21.34l20-17.58A3,3,0,0,0,284.89,140.67Z"/><path class="cls-6" d="M121.54,130.88,262.07,7.6l-4.43-5.05a7.49,7.49,0,0,0-10.57-.69L117.8,115.26a7.49,7.49,0,0,0-.69,10.57Z"/><path class="cls-10" d="M290.34,29.2a6.39,6.39,0,1,0-12.61,2.08l1.76,10.64,16,18.2Zm-10.43,4.49-.65-4a2.88,2.88,0,0,1,2.38-3.32l3.42-.57a2.88,2.88,0,0,1,3.31,2.38l.65,4Z"/><path class="cls-10" d="M285.3,65.66a.89.89,0,0,1-.08,1.26l-1.41,1.23.87,5.26,3.53-3.09a.89.89,0,0,1,1.26.08l.63.72a10.35,10.35,0,0,1,4.45-1.88l2.34-.39-1.45-8.76-16-18.2L283,63Z"/><path class="cls-10" d="M285.3,65.66,283,63l.85,5.17,1.41-1.23A.89.89,0,0,0,285.3,65.66Z"/><path class="cls-10" d="M286,81.59l-.06-.37a10.4,10.4,0,0,1,4.13-10.08l-.63-.72a.89.89,0,0,0-1.26-.08l-3.53,3.09,1.32,8C286,81.47,286,81.53,286,81.59Z"/><path class="cls-10" d="M312.12,66.36a6.39,6.39,0,0,0-12-.9L302.34,68Z"/><path class="cls-10" d="M299.58,68.43l2.76-.46-2.21-2.52A6.36,6.36,0,0,0,299.58,68.43Z"/><path class="cls-10" d="M320.19,59.25a6.39,6.39,0,0,0-5.34,6.66l12.54-2.07A6.39,6.39,0,0,0,320.19,59.25Z"/><path class="cls-10" d="M344.38,71.51,342.81,62a6.39,6.39,0,0,0-12.69,1.4l2.31-.38A10.4,10.4,0,0,1,344.38,71.51Z"/><path class="cls-10" d="M313.88,76.81a6.36,6.36,0,0,1-.51,3.74l5.91,6.74a23.15,23.15,0,0,1,7.47,8.52l9,10.21a7.44,7.44,0,0,1,1.73,3.63h7.48l0,13.35A10.4,10.4,0,0,0,351,111.77l-6.63-40.19v-.07l0,.26a6.39,6.39,0,0,1-12.62,2.08l-1.61-9.78a6.45,6.45,0,0,1-.07-.69l-2.73.45a6.5,6.5,0,0,1,.15.67l1.61,9.78a6.39,6.39,0,1,1-12.61,2.08l-1.61-9.78a6.43,6.43,0,0,1-.07-.69l-2.73.45a6.46,6.46,0,0,1,.15.67Z"/><path class="cls-10" d="M329,109.65h8.4a7.44,7.44,0,0,0-1.73-3.62l-9-10.21A23.19,23.19,0,0,1,329,109.65Z"/><path class="cls-10" d="M294.29,86.44a6.26,6.26,0,0,1-5-.46l-.85.74a.89.89,0,0,1-1.26-.08l-.33-.38.9,5.47L288,92A23.24,23.24,0,0,1,294.29,86.44Z"/><path class="cls-10" d="M310.42,83.58a23.15,23.15,0,0,1,8.86,3.71l-5.91-6.74A6.4,6.4,0,0,1,310.42,83.58Z"/><path class="cls-10" d="M296.25,85.4a23.07,23.07,0,0,1,6.1-1.91c.61-.1,1.23-.17,1.84-.22a6.37,6.37,0,0,1-2.93-4.38l-1.61-9.78a6.46,6.46,0,0,1-.07-.69l-2.69.44,1.73,10.46A6.39,6.39,0,0,1,296.25,85.4Z"/><path class="cls-10" d="M288.4,86.72l.85-.74A6.37,6.37,0,0,1,286,81.59l.77,4.68.33.38A.89.89,0,0,0,288.4,86.72Z"/><path class="cls-10" d="M296.42,79.69,289.25,86a6.26,6.26,0,0,0,5,.46c.63-.38,1.29-.72,2-1a6.39,6.39,0,0,0,2.36-6.07l-1.73-10.46-2.34.39a10.35,10.35,0,0,0-4.45,1.88l6.4,7.29A.89.89,0,0,1,296.42,79.69Z"/><path class="cls-10" d="M286,81.22l.06.37A6.37,6.37,0,0,0,289.25,86l7.17-6.29a.89.89,0,0,0,.08-1.26l-6.4-7.29A10.4,10.4,0,0,0,286,81.22Z"/><path class="cls-10" d="M313.37,80.55a6.36,6.36,0,0,0,.51-3.74L312.27,67a6.46,6.46,0,0,0-.15-.67L302.34,68Z"/><path class="cls-10" d="M301.27,78.89a6.37,6.37,0,0,0,2.93,4.38,23,23,0,0,1,6.22.31,6.4,6.4,0,0,0,3-3L302.34,68l-2.76.46a6.46,6.46,0,0,0,.07.69Z"/><path class="cls-10" d="M316.54,76.37a6.39,6.39,0,1,0,12.61-2.08l-1.61-9.78a6.5,6.5,0,0,0-.15-.67l-12.54,2.07a6.43,6.43,0,0,0,.07.69Z"/><path class="cls-10" d="M331.81,73.85a6.39,6.39,0,0,0,12.62-2.08l0-.26A10.4,10.4,0,0,0,332.43,63l-2.31.38a6.45,6.45,0,0,0,.07.69Z"/><path class="cls-10" d="M258.15,80.76a6.89,6.89,0,0,1-.43-.72A7,7,0,0,0,258.15,80.76Z"/><path class="cls-10" d="M258.86,81.66a7,7,0,0,1-.58-.71A7,7,0,0,0,258.86,81.66Z"/><path class="cls-10" d="M257.37,77.88l-.39-.45a7,7,0,0,0,.34,1.62,7,7,0,0,1-.23-.89Z"/><path class="cls-10" d="M259.12,71.8a6.93,6.93,0,0,0-1.89,3.12l5.65-5A6.93,6.93,0,0,0,259.12,71.8Z"/><path class="cls-10" d="M291,111.39l-3.24-19.66L269,72.05a7,7,0,0,0-.73-.66l4.57,5.21a.9.9,0,0,1-.08,1.26l-8,7a.9.9,0,0,1-1.26-.08l-.35-.4-.84.81,40.05,42.08a6.84,6.84,0,0,0,5.34,2.1v-.48Zm-7-20.75-8,7a.9.9,0,0,1-1.26-.08l-7-8a.89.89,0,0,1,.08-1.26l8-7a.89.89,0,0,1,1.26.08l7,8A.9.9,0,0,1,283.94,90.64Z"/><path class="cls-10" d="M257.69,80a7,7,0,0,1-.36-.87A7,7,0,0,0,257.69,80Z"/><path class="cls-10" d="M259.95,75.38a3.64,3.64,0,0,1,5.15.08l3.52,3.64-5.5,5.33.35.4a.9.9,0,0,0,1.26.08l8-7a.9.9,0,0,0,.08-1.26l-4.57-5.21A7,7,0,0,0,262.87,70l-5.65,5a7,7,0,0,0-.25,2.51l.39.45Z"/><path class="cls-10" d="M277,81.36a.89.89,0,0,0-1.26-.08l-8,7a.89.89,0,0,0-.08,1.26l7,8a.9.9,0,0,0,1.26.08l8-7a.9.9,0,0,0,.08-1.26Z"/><path class="cls-10" d="M319.28,87.29l7.47,8.52A23.15,23.15,0,0,0,319.28,87.29Z"/><path class="cls-10" d="M307.66,128.94l0-19.26,21.41,0a23.19,23.19,0,0,0-2.29-13.85l-7.47-8.52a23.15,23.15,0,0,0-8.86-3.71,6.38,6.38,0,0,1-6.22-.31c-.61.05-1.22.12-1.84.22a23.07,23.07,0,0,0-6.1,1.91,6.35,6.35,0,0,1-2,1A23.24,23.24,0,0,0,288,92l-.25-.26L291,111.39Z"/><path class="cls-10" d="M296.25,85.4c-.67.32-1.33.66-2,1A6.35,6.35,0,0,0,296.25,85.4Z"/><path class="cls-10" d="M304.19,83.27a6.38,6.38,0,0,0,6.22.31A23,23,0,0,0,304.19,83.27Z"/><path class="cls-11" d="M285,25.85l-3.42.57a2.88,2.88,0,0,0-2.38,3.32l.65,4,9.11-1.5-.65-4A2.88,2.88,0,0,0,285,25.85Z"/><path class="cls-11" d="M258.28,80.94l-.13-.18Z"/><polygon class="cls-11" points="262.27 85.24 262.27 85.24 258.86 81.66 262.27 85.24"/><path class="cls-11" d="M257.33,79.13l0-.08Z"/><path class="cls-11" d="M257.72,80l0,0Z"/><path class="cls-11" d="M257.37,77.88l-.29.28a7,7,0,0,0,.23.89l0,.08a7,7,0,0,0,.36.87l0,0a6.89,6.89,0,0,0,.43.72l.13.18a7,7,0,0,0,.58.71l3.41,3.58.84-.81Z"/><path class="cls-11" d="M265.09,75.46a3.64,3.64,0,0,0-5.15-.08l-2.58,2.5,5.75,6.55,5.5-5.33Z"/><path class="cls-10" d="M323.27,126.89l-15.59,13.68V142L345,142l0-19a10.39,10.39,0,0,1-2.49.75Z"/><path class="cls-10" d="M309.9,129.1h0l-1.08.18-.53.09h-.19l-.43,0,0,11.15,15.59-13.68Z"/><path class="cls-10" d="M337.45,109.64a7.48,7.48,0,0,1-2.43,6.94l-11.75,10.31,19.19-3.17a10.39,10.39,0,0,0,2.49-.75l0-13.35Z"/><path class="cls-10" d="M308.09,129.4h0Z"/><path class="cls-10" d="M309.9,129.1l13.37-2.21L335,116.58a7.48,7.48,0,0,0,2.43-6.94H329A23.14,23.14,0,0,1,309.9,129.1Z"/><path class="cls-10" d="M307.66,128.94v.48l.43,0Z"/><path class="cls-10" d="M308.2,129.38h.08l.53-.09,1.08-.18h0l-1.72.28Z"/><path class="cls-10" d="M329,109.65l-21.41,0,0,19.26.43.45h.09l1.72-.28A23.14,23.14,0,0,0,329,109.65Z"/><rect class="cls-12" x="307.4" y="142.04" width="0.29" height="11.66" transform="matrix(1, 0, 0, 1, -0.22, 0.46)"/><rect class="cls-12" x="344.98" y="141.98" width="2.4" height="11.66" transform="translate(-0.21 0.49) rotate(-0.08)"/><rect class="cls-12" x="307.69" y="142.01" width="37.3" height="11.66" transform="translate(-0.22 0.48) rotate(-0.08)"/><path class="cls-13" d="M345,155.21v6h-.42s0,.07,0,.11a3.25,3.25,0,0,1-.22,1.18h4.43v-8.85h-1.4v1.57Z"/><path class="cls-13" d="M339.49,161.3s0-.06,0-.1l-31.79,0v-6h-.29v-1.57H306v8.79h33.69A3.26,3.26,0,0,1,339.49,161.3Z"/><path class="cls-13" d="M307.7,161.25l31.79,0a2.56,2.56,0,1,1,5.09,0H345v-6l-37.3.05Z"/><rect class="cls-13" x="344.99" y="153.64" width="2.4" height="1.57" transform="translate(-0.22 0.5) rotate(-0.08)"/><rect class="cls-13" x="307.41" y="153.69" width="0.29" height="1.57" transform="matrix(1, 0, 0, 1, -0.23, 0.46)"/><rect class="cls-13" x="307.69" y="153.67" width="37.3" height="1.57" transform="translate(-0.24 0.51) rotate(-0.09)"/><path class="cls-6" d="M339.49,161.3a3.26,3.26,0,0,0,.22,1.18h4.66a3.25,3.25,0,0,0,.22-1.18s0-.07,0-.11H339.5S339.49,161.27,339.49,161.3Z"/><path class="cls-6" d="M342,158.38a2.74,2.74,0,0,0-2.54,2.82h5.09A2.74,2.74,0,0,0,342,158.38Z"/></g></g></svg>