<?xml version="1.0" encoding="utf-8"?>
<!-- Generator: Adobe Illustrator 19.2.0, SVG Export Plug-In . SVG Version: 6.00 Build 0)  -->
<svg version="1.1" id="Layer_1" xmlns="http://www.w3.org/2000/svg" xmlns:xlink="http://www.w3.org/1999/xlink" x="0px" y="0px"
	 viewBox="0 0 254.6 49.9" style="enable-background:new 0 0 254.6 49.9;" xml:space="preserve">
<style type="text/css">
	.st0{fill:#FFFFFF;}
</style>
<path class="st0" d="M0,2c0.2-0.1,0.1-0.4,0.1-0.4l0.3-0.3c0.1,0,0.1-0.3,0.2-0.4c-0.1-0.3,0.2,0,0.3-0.4C0.9,0.4,1,0.3,1,0.2
	c0.2-0.1,0.5-0.1,0.9,0C2,0.3,2.1,0.4,2.2,0.4c-0.1,0,0,0,0.3-0.1c0.1,0.1,0.1,0.1,0.3,0.1C3,0.3,3.2,0.3,3.4,0.3
	c-0.1,0,0.9,0,2.8-0.1h1c0.4,0.1,0.5,0.1,0.3,0.1h0.4C7.9,0.2,8,0.2,8.1,0.2h0.6c0.1,0,0.4,0.1,0.9,0.2c0,0,0.1-0.1,0.5-0.1h0.2
	c0.1-0.1,0.3-0.1,0.4-0.1c0.5,0.1,0.5,0.6,0.7,0.6c0.4,0-0.4-0.5,1.1-0.5c0.5-0.1,0.8,0,0.9,0.2l0.2,0.2h0.1v0.1h0.1l0.6,0.3
	c0.1,0,0.2-0.1,0.4-0.1c0.2-0.1,0.4-0.1,0.4,0c0.2,0-0.2,0.2,1.7,0.7c-0.1,0.1-0.1,0.4,0,0.6L17.4,3c0.1,0,0.1,0.1,0.2,0.5l0.7,0.7
	l0.1,1.6c0,0,0,0-0.1,0.1v1.2c0,0,0,0.1,0,0.1c0.1,0.1,0.1,0.1,0.1,0.2c-0.1,0-0.1,0.1-0.1,0.1c0-0.2,0.1,0.1,0.1,1v0.8
	c0,0,0,0.1,0,0.3c0.1,0.1,0.1,0.3,0.1,0.4c0,0.1,0,0.3-0.1,0.5v1c0.1,0.2,0.1,0.4,0.1,0.5c0,0.3-0.1,0.8-0.1,1.1
	c0,0.3,0.2,1.1,0.2,1.3c0,0.3-0.1,0.7-0.1,1c0,0.4,0,0.9,0.1,1.5c-0.1,0.8-0.3,1.6-0.6,2.7v0.2c-0.1,0.1-0.1,0.3-0.3,0.6
	c0,0,0,0-0.1,0.1v0.1c-0.1,0.2-0.3,0.4-0.5,0.6c0,0-0.3,0.3-0.8,0.8c-0.5,0.1-0.8,0.4-0.9,0.6c-0.1,0.1,0.1,0.2,0.4,0.4
	c0.1,0.1,0.2,0.1,0.4,0.1c0,0.1,0.1,0.2,0.4,0.5c0.2,0,0.3,0.2,0.9,0.5c0.1,0.1,0.4,0.4,0.7,0.8l0.1,0.3c0.1,0,0.1,0,0.1,0.1v0.2
	c0.1,0,0.1,0,0.1,0.1c0.1,0.4,0.4,1.1,0.4,2.3c-0.1,3.4-0.1,6.3,0,8.8c0,0,0,0.1,0,0.4c0.1,0.1,0.1,0.3,0.1,0.4c0,0.1,0,0.2-0.1,0.3
	v0.4c0,1.6,0,2.5,0,2.5c0,0.4,0,0.8-0.1,1.1c0,0.2,0,0.3,0,0.2c0.1,1,0.1,1.5,0,1.6c0,0.2-0.1,0.4-0.1,1c-0.1,0.2-0.1,0.6-0.6,1.6
	c-0.2,0.4-0.4,0.9-1.5,1.8l-0.2,0.2l-0.4,0.4h-0.2v0.1c0,0-0.1,0-0.1,0L14.6,49c0.1,0.1,0.1,0.1,0,0.1h-0.1c-0.1,0-0.1,0-0.1,0.1
	l-0.6,0.1c0,0.1,0,0.1-0.1,0.1h-0.1c-0.1,0.1-0.2,0.1-0.4,0.1h-1.6c-0.4,0-1.2,0.1-1.5,0.1c-0.1,0-0.3,0-0.4-0.1H9.5H8
	c0,0-0.2,0-0.6,0c-0.4,0.1-0.6,0.1-0.7,0.1c-0.1,0-0.4,0-0.7-0.1H5.2H4.9c-0.1,0.1-0.1,0.1-0.2,0.1c-0.1,0-0.2,0-0.3-0.1
	c-1.8,0-2.6,0-2.6,0H1.5c-0.2,0-0.6-0.1-1-0.2c-0.1-0.1-0.2-0.6-0.4-1.6v-0.6v-0.4v-0.9v-0.6c-0.1-2-0.1-3.4-0.1-4l0.1-1.5
	c0-0.2,0-0.4-0.1-0.7c-0.1-0.3-0.1-0.5,0-0.7c0.1-0.1,0.1-0.4,0.1-0.9c0.1-0.7,0.1-1.5,0-2.3v-1.3v-2.4c0-0.8,0-1.5,0-1.3l0.1-0.8
	v-1l-0.1-0.8c0-0.2,0.1-0.8,0.1-0.8c0.1-1.1,0.1-2,0-2.8c0-0.2-0.1-0.6-0.1-0.8c0-0.2,0.1-0.6,0.1-0.8l-0.2-3.2l0.2-1.5
	c0.1-0.5,0.1-0.9,0-1.3c-0.1-0.1-0.1-0.4-0.1-0.7c-0.1-0.8,0-2.7,0-3.5V8.2V7.9c0-0.2,0.2-1.3,0-2.3c0-0.4,0-1-0.1-1.8
	c0,0,0-0.4,0-1.3 M11.5,16.5c0-0.1,0-0.4,0.1-0.8c0-0.2,0-0.6-0.1-0.9c0.1-0.8,0.1-2.1,0-3.7c0-0.1-0.1-0.2-0.1-0.3v-0.3l0.1-0.4
	V7.6c-0.1-0.4-0.1-0.7-0.1-0.9c0.1-0.2,0.1-0.4,0.1-0.5c-0.1-0.1-0.1-0.1-0.1-0.1c-0.1-0.4-0.4-0.7-0.7-0.8l-0.4-0.3
	C9.8,5,9.2,5,8.3,4.9C8.1,4.8,8.1,4.8,8.1,4.6c-0.1,0-0.1,0-0.2-0.1H7.7L7.4,4.6L7.3,4.7C7.2,4.8,7,4.8,6.7,4.8
	C6.6,4.8,6.6,4.7,6.4,4.6H5.8C5.7,4.8,5.9,5.1,6.1,5.1C6.2,5.1,6.5,5,6.9,4.9c0.3,0.1,0.6,0.2,1,0.4c0,0.2-0.1,0.6-0.1,0.8
	c0,0.1,0,0.4,0.1,0.9c0,0,0,0.2,0,0.6l0.1,0.7L7.8,8.6c0.1-0.1,0.1,0,0.1,0.1v1.1c0,0,0,0-0.1,0.1c0,0.1,0,0.1,0.1,0.1
	c0,0.6-0.1,1.1-0.3,1.3c0,0.4,0,0.9,0.1,1.6V13c0,0.2,0,0.6,0.1,0.9c-0.1,0.1-0.1,0.1-0.1,0.3l0.1,0.2c0.1,0.1,0.1,0.2,0.1,0.4
	c0-0.1,0,0-0.1,0.2v0.3c0,0,0,0.2,0.1,0.6c0,0.4-0.1-0.2,0,1.5c0,0.1-0.1,0.6-0.1,1.2c0,0.3,0,0.7-0.1,1.2c-0.1,0.2-0.2,0.4-0.2,0.6
	c0,0.1,0,0.2,0.1,0.3c0.1,0.1,0.2,0.1,0.5,0c0.1,0,0.1,0,0.1-0.1c0.2,0.1,0.6,0.1,0.9,0.1l0.8,0.4c0-0.2,0.1-0.4,0.1-0.6
	c0.1,0.1,0.2,0.1,0.5,0.1c0.1-0.1,0.2-0.2,0.6-0.3v-0.4l0.5-2c0-0.2,0.1-0.5,0.1-0.8C11.5,17.2,11.5,17,11.5,16.5z M11.3,40.4
	c0-0.2,0.1-0.6,0.1-0.8c-0.1-0.2-0.1-0.5-0.1-1c-0.1-0.3-0.1-0.8,0-1.6c0-0.1,0.1-0.4,0.1-0.4c0-0.2-0.1-0.6-0.1-0.8
	c0-0.4,0.1-1.3,0.1-1.6c0-0.3-0.1-1.1-0.1-1.4c0.1-0.1,0.1-0.4,0.1-0.6c-0.1-0.6-0.1-1.6-0.1-2.8c0-0.2,0.1-0.5,0.1-0.8l-0.1-0.8
	c0-0.2,0.1-0.6,0.1-0.6L11,25.9l-0.2-0.3l-0.1-0.2c-0.3-0.2-0.9-0.4-1.6-0.3c-0.1,0.1-0.1,0.1-0.1,0.1c-0.6,0.1-0.9,0.1-0.9,0.1
	c-0.1-0.1-0.3-0.1-0.5-0.1c0,0-0.1,0-0.1-0.1C7.5,25,7.5,25,7.4,25c-0.1-0.1-0.1-0.2-0.3-0.1v0.3c0,0.3,0.6,0.2,0.6,0.4v0.8
	c0.1,0.1,0.1,0.1,0.1,0.1c0-0.1,0-0.1-0.1,0.1c0.1-0.1,0.1,0.3,0.1,1.3c0,0.1,0,0.6-0.1,1.6v0.7c0.1,0.4,0.1,0.6,0.1,0.7
	c0,0.3-0.1,1.1-0.1,1.4c0,0.2,0,0.7,0.1,1.6c0.1,2,0.1,4.2-0.1,6.3c0,0.1,0,0.4,0.1,0.7v1c-0.1,0.2-0.1,0.3-0.1,0.4v1.2
	c0,0.2-0.1,0.5-0.1,0.5c0,0.1,0.3,0.3,0.3,0.4c0.4-0.1,0.7-0.2,1.1-0.1c0.4,0.1,0.6,0.1,0.6,0.1l0.8-0.4c0.1,0.1,0.3,0.1,0.4,0.1
	c0.2,0,0.5,0,0.5-0.8l0.1-0.1V42v-0.1v-0.4c0.1-0.6,0.1-0.8,0.1-0.6C11.5,40.8,11.3,40.5,11.3,40.4z"/>
<path class="st0" d="M30,0.4c0.8,0.1,1.3,0.4,1.5,0.7c0.1,0.1,0.1,0.3,0,0.5c0,0,0.1,0.4,0.1,1l0.1,0.1v0.4l0.1,0.5
	c-0.1,0.5,0,1.2,0.2,2.8l0.4,2.1c0,0.3,0,0.6,0.1,1.1c0.1,0.2,0.3,1.3,0.5,3.1c0-0.2,0.1,0.1,0.2,0.9c0,0.4,0,1,0.1,1.9l0.2,0.6v0.5
	l0.2,0.1v0.3c0.1,0.6,0.2,1.1,0.4,1.6l0.4,1c0.1,0.4,0,0.6-0.1,0.7c-0.1,0.1,0,0.1,0.1,0.2c0,0.2-0.1,0.5-0.2,0.7v0.1h-0.1l-0.4,0.2
	c-0.1,0.1-0.3,0.3-0.5,0.6l0.3,0.1h0.4c0.2-0.1,0.5,0,0.9,0.1l0.4,0.4c-0.1,0.1-0.1,0.3-0.1,0.7c0.1,0.1,0.1,0.2,0.1,0.4
	c-0.2,0.1-0.5,0.2-0.8,0.4c0,0.2,0.6,0.5,0.6,0.6c0.1,0.2,0.4,0.4,0.6,0.3c0.1-0.1,0.1-0.2,0.1-0.4l-0.1-0.6c0-0.2-0.1-0.5-0.1-0.9
	c0.1-0.2,0.1-0.4,0.1-0.6c0.1-0.1,0.1-0.1,0.1-0.1h-0.3c0-0.1-0.1-0.2-0.2-0.4c0.2-0.8,0.3-1.1,0.3-1.1c0.1-0.1,0.1-0.1-0.1-0.1V21
	h-0.2c0,0-0.1-0.1-0.1-0.2v-0.1l0.1-0.7c0.1,0,0.1,0,0.2-0.1c-0.1,0.1-0.1-0.1-0.4-0.8c0-0.3,0.1-0.9,0.1-1.2V17l0.1-0.2
	c0.1-0.9,0-1.8-0.2-2.5v-0.6c0,0.1,0,0,0-0.1v-0.8l0.1-0.1c0.1-0.4,0.1-0.6,0-1v-0.4c0-0.1-0.1-0.4-0.1-0.6c0.1-0.4,0.1-0.9,0.1-1.4
	V9c0-0.2-0.1-0.4-0.1-0.7V8.1c0-0.2,0.2-1.2,0.2-1.6c-0.1-0.1-0.1-0.2-0.1-0.4V5.4c0,0,0,0.1,0-0.2c0.1-0.7,0.1-1.3,0-1.8
	c0-0.3-0.1-0.6-0.1-1.1c0-0.4,0.1-0.6,0.5-0.7c0-0.1,0-0.1-0.1-0.1c-0.1-0.2-0.1-0.4-0.1-0.6l0.2-0.4c0.8-0.1,1.8-0.1,3.2-0.4H39
	L40,0.1l0.4,0.2h0.1c0.1,0.1,0.3,0.4,0.4,0.8v0.3l0.1,0.1c0.1,0.2,0.1,0.4,0,0.8c-0.1,1.5-0.2,2.3-0.2,2.4V5
	c0.1,0.8,0.1,1.3,0.1,1.5c0,0.1-0.1,0.4-0.1,1v0.4h-0.1v0.5l0.1,0.1l0.1,3.6c0.1,0.1,0.1,0.1,0.1,0.2c0,0.1,0,0.5-0.1,1V14
	c-0.1,0.4-0.1,0.7-0.1,0.9v3C41,18,41,18.1,41,18c-0.1,0.8-0.1,2,0,3.5l0.2,1c0,0.1-0.1,0.6-0.2,1.3V24c-0.1,1.1-0.1,1.5-0.1,1.1
	c0,0.1,0,0.1,0.1,0.2v0.8c0.1,0.1,0.1,0.1,0.1,0.1l-0.1,1.1c0.1,0,0.1,0,0.1,0.1v1.4c0,0.1,0,0.1-0.1,0.3c0.1,0.1,0.1,0.1,0.1,0.1
	c0.1,0.3,0.1,0.5,0,0.6c-0.2,0.6-0.2,1.2-0.1,1.6v0.3c0.1,0.1,0.1,0.1,0.1,0.3c0.1,0.2,0,0.8-0.1,1.6c-0.1,0.3-0.1,1.4-0.1,3.2v2.1
	v0.6c0,0.2-0.1,0.7-0.1,0.9c0,0.1,0,0.1,0.1,0.2v0.4c0,0.1,0,0.4-0.1,0.7v0.8v0.1v0.3c0,0.5-0.1,1.1-0.2,1.6c0,0.2,0.2,0.3,0.2,0.4
	c-0.1-0.2-0.1,0.5-0.1,2.1c0,0.5,0,1.1-0.1,1.6c0.1,0.1,0.1,0.4,0,0.6c-0.2,0.1-0.3,0.1-0.3,0.4c-0.4,0.2-0.8,0.3-1.1,0.3
	c-0.3,0.1-0.7,0.1-1.2,0l-2.6-0.2c0,0-0.4-0.3-0.6-0.3c-0.4,0-0.4,0.1-1.2,0.4c-0.3,0.1-0.5,0.1-0.6,0l-0.4-0.3
	c-0.1,0-0.1-0.1-0.2-0.2l-0.4-4.7c-0.1-0.1-0.1-0.4-0.1-0.7c0.1-0.1,0.1-0.4,0.1-0.8l-0.2-0.4l-0.2-2l-0.2-0.6v-0.2L31,38.6
	c0-0.1-0.1-0.1-0.1-0.2c0-1.5-0.1-1.5-0.2-1.6c0.1,0,0.1,0,0.1-0.1c-0.1-0.4,0-0.8,0.1-1.3c0.1,0,0.3-0.1,0.5-0.1v-0.2
	c-0.4-0.1-0.1-0.4-0.4-0.6c-0.1-0.1-0.1-0.1-0.1,0c-0.4-0.2-0.5-0.8-0.6-1.7c0-0.2-0.1-0.4-0.1-0.7l-0.2-0.4l-0.1-0.4v-0.1
	c-0.1-0.5-0.2-1.1-0.2-1.6c0.1-0.3,0.3-0.6,0.4-1.1L30,28.1c0.1-0.1,0-0.2-0.1-0.3c0.1-0.4-0.1-1-0.7-1.6v-0.1H29
	c0-0.1,0-0.1-0.1-0.2l-0.2-0.4c0.1-0.4,0-1-0.2-1.6v-0.3l-0.1-0.1c-0.2-0.6-0.5-1-0.9-0.9l-0.1,0.3c-0.1,0.1,0,0.2,0.2,0.4
	c0,0,0.2,0.3,0.6,0.8v1.7L28,26.2c-0.5,1-0.8,1.5-0.8,1.6c0.2,0.6,0.3,1,0.3,1.1c-0.1,0-0.1,0-0.1,0.1c-0.1,0.2-0.1,0.4-0.1,0.5
	c0,0.1,0.1,0.2,0.1,0.3l0.2,2.8c0,0,0,0.1,0,0.4l-0.2,1.1c0-0.3,0-0.1,0.1,0.4c0,0,0,0.1,0,0.5l0.1,0.3c-0.1,0.2-0.1,0.4-0.1,0.8
	c0,0.1,0,0.1,0.1,0.1v0.1c0,0,0,0,0,0.1c0.1,0.4,0.2,0.7,0.1,1c0,0.1-0.1,0.2-0.1,0.4v0.2c0,0.4,0.1,1.3,0.1,2.9
	c0,0.1-0.1,0.6-0.1,1.3c0.1,0.5,0,1.2-0.1,2.3c-0.1,0.1,0,0.4,0.1,0.8c-0.1,0.5-0.1,1.3,0,2.3c0.1,0.8,0.1,1.3,0,1.6
	c-0.4,0.4-1,0.5-1.6,0.5c-0.3,0-0.9-0.1-2-0.2c0-0.1-0.1-0.1-0.1-0.1c0,0.1-0.4,0.2-0.8,0.5c-0.6,0.1-0.9,0-1.1-0.1v-0.9
	c0.1-0.1,0.1-0.1,0.1-0.2l0.1-0.2c0.1-0.3,0.2-0.6,0.4-0.9v-0.3c-0.1-0.6-0.1-1-0.1-1.3c0-0.1,0.1-0.1,0.1-0.1c0,0,0-0.1-0.1-0.2
	c0-0.1,0-0.2,0.1-0.4c-0.1-0.1-0.1-0.2-0.1-0.3c0.1-0.1,0.1-0.3,0.2-0.6c-0.1-0.2-0.3-0.6-0.4-1.1c0.1-0.1,0.1-0.3,0.1-0.6v-0.6
	c-0.1-0.5-0.1-0.7-0.1-0.8c0.1-0.1,0.3-0.4,0.4-1.1c0-0.3-0.3-2.4-0.2-4.8c0.1-1.2,0.1-1.7,0.1-1.6c0-0.1-0.1-0.4-0.1-0.9v-0.2v-0.4
	l0.1-0.1c0.1-0.5,0.1-0.9,0-1.1h-0.1v-0.4c-0.1-0.3-0.1-0.6,0.1-0.9l0.3-0.3v-0.4c-0.2-0.8-0.3-1.3-0.3-1.5c0.1-0.1,0.1-0.1,0.1-0.1
	c0.1-0.1,0.1-0.2,0-0.6c0,0-0.1-0.1,0-0.1c0-0.1,0-0.1-0.1-0.1c-0.1-0.1-0.1-0.3,0-0.7c0-0.1,0-0.1,0.1-0.1c0-0.1,0-0.3-0.1-0.5
	v-0.5c0-0.2,0-0.6,0.1-1.1c0.1-0.5,0.1-0.9,0-1.1v-0.2c-0.1-0.5,0-1.1,0.2-1.8c-0.2-0.1-0.3-0.6-0.3-1.2c0-0.1,0.1-0.2,0.1-0.3
	c0.1-0.3-0.4-0.3-0.3-0.6c0-0.2,0.5-0.4,0.4-0.7c-0.2-0.1-0.3-0.2-0.3-0.4c-0.1-0.2,0.2-0.6,0.2-0.7c-0.1-0.1-0.2-0.2-0.1-0.4
	c0.1-0.1,0.1-0.7,0-1.6v-1.6c0.1-0.8,0.1-1.1,0.1-0.8c-0.1-0.1-0.1-0.2-0.1-0.4v-1.1c-0.1-0.1-0.1-0.2-0.1-0.4
	c0-0.2,0.1-0.8,0.3-1.7c0-0.1,0-0.2,0.1-0.3h0.1c0.1-0.2,0.1-0.4,0-0.7c-0.1-0.4-0.2-0.6-0.1-0.7c-0.1,0-0.2-0.3-0.3-0.4
	c-0.1-0.3-0.1-0.6,0-0.9c0.2-0.5,0.3-0.8,0.3-0.8c-0.1-0.2-0.2-0.6-0.3-0.9c0-0.1,0.1-0.3,0.2-0.6V2.7c0,0,0-0.3,0.2-1.2
	c0.3-0.1,0.9-0.2,1.7-0.3c0.4,0,0.6,0.1,0.7,0.2c0.1,0.1,0.1,0.1,0.1-0.1l0.3-0.1c0.1,0,0.4,0,0.7,0.1c0.4,0.1,0.6,0,0.9-0.1
	c0.1-0.2,0.4-0.5,0.8-0.8C29.2,0.4,29.8,0.4,30,0.4z"/>
<path class="st0" d="M63.2,49.6h-3.6c-1.5,0-2.2,0-2.2,0c0-0.1,0-0.1-0.1-0.1c-0.1,0.1-0.1,0.1-0.3,0.1c-0.1-0.1-0.2-0.1-0.3-0.1
	c-0.2-0.1-0.4-0.6-0.6-1.7c0-0.1-0.1-0.2-0.1-0.6l0.1-0.8c-0.1-0.2-0.1-0.6-0.4-0.9l-0.3-2V43c-0.1-0.1-0.1-0.3-0.1-0.5
	c-0.1,0-0.2-0.6-0.2-0.6v-0.1l0.1-0.1L55,41.6c-0.1-1.1-0.3-2.1-0.4-2.7c-0.1-0.1-0.1-0.4-0.1-0.7v-1.1l-0.4-1c0-0.1-0.1-0.4-0.2-1
	v-0.7l-0.4-1.3L53.2,31c-0.1-0.2-0.1-0.4-0.1-0.6c-0.1-0.1-0.1-0.3-0.2-0.5c0-0.1,0-0.3-0.1-0.5c-0.1-0.6-0.1-0.9,0-1.1l0.1-0.1
	c-0.1-0.1-0.1-0.1-0.1-0.4c0-0.1,0-0.1,0.1-0.1c0.1-0.2,0.1-0.4,0.1-0.4c0,0.1-0.1,0-0.3-0.4c0-0.1-0.1-0.2-0.1-0.4
	c0-0.1,0-0.1-0.1-0.1c0.1-0.2,0.1-0.6,0.1-1c0-0.1,0-0.2-0.1-0.4v-0.1c-0.1-0.1,0-0.5,0.1-1.2c0.1-0.3,0.1-0.5-0.1-0.6
	c-0.3,0-0.4,0.1-0.4,0.5v0.8L52,25.5v0.4v0.8c0,0.5,0,0.6,0,0.4c0,0.3,0.3,0.4,0.4,0.8c0,0.1,0,0.4-0.1,1.1v0.8l0.1,0.1V30
	c0,0,0,0-0.1,0.1c0,0.9,0.1,1.6,0.2,1.9c0,0.2-0.1,0.7-0.1,1c0,0.2,0.1,0.5,0.1,0.6l-0.1,0.1l0.1,0.1c0.1,1.2,0,2-0.2,2.4
	c0.2,0.4,0.3,1,0.2,1.7c0,0-0.1,0.1,0,0.1v0.6c0.1,0.5,0.1,0.9,0,1.1c0,0,0,0.1-0.1,0.4c-0.1,0.6-0.1,1.1,0.1,1.2v0.4v0.1v0.4
	l-0.2,1.5c0.1,0.1,0.1,0.6,0.1,1.3c0.1,0.6,0.1,1.8,0,3.4c0,0.1,0,0.1,0,0.1c0,0.1-0.1,0.4-0.1,0.9c-0.2,0.1-0.6,0.2-1.1,0.3
	l-0.1-0.1c0.1,0.1,0,0.1-0.3,0.1c-0.1-0.1-0.3-0.1-0.6-0.1l-1.1,0.2l-1.3-0.4l-1.8,0.2c0-0.1-0.1-0.1-0.2-0.2l-0.1-0.1v-0.3
	c-0.1-0.1-0.2-0.4-0.3-1.1c0-0.2,0-0.4-0.1-0.6h-0.1l0.1-0.5c0-2.6,0-4.5,0.1-5.5l0.1-0.8c0,0,0-0.5,0-1.6v-8.6l0.1-3.1l-0.1-0.8
	c-0.1-0.8,0.1-2.3,0.1-2.8c0-0.1,0-0.5-0.1-1.1c-0.1-0.4-0.1-0.8,0-1.1c0-0.1,0.1-0.4,0.1-0.8c0-0.2,0-0.7-0.1-1.6c0,0,0-0.6,0-1.6
	c-0.1-0.3-0.1-1.1-0.1-2.3c0-0.1,0-0.2-0.1-0.4v-0.4c0-0.4,0.1-1.3,0.1-1.7V12c-0.1-0.4-0.1-0.6-0.1-0.9V7.4c0.1-0.8,0.1-1.3,0-1.8
	V2.5V2.3c-0.1-0.1-0.1-0.3-0.1-0.5c0.1-0.1,0.1-0.2,0.1-0.1c-0.1,0-0.1,0-0.1-0.1c-0.1-0.8,0.2-1.3,1.1-1.3h2.8
	c0.5-0.1,1.2-0.1,2.2,0c0.1,0,0.4,0,0.6,0.1l0.1,0.1l0.5,0.3l0.2,1.1v0.1c0.1,0.1,0.1,0.2,0.1,0.4c0.1,0.3,0,0.6-0.1,0.9l-0.1,0.6
	c-0.1,1.1,0.1,1.1,0.1,2.6v0.6c-0.1,0.3-0.1,0.5-0.1,0.6c0.1,0.1,0.1,0.2,0.1,0.1c0,0.1,0,0.1-0.1,0.1l0.2,0.8v0.4
	c-0.1,0.2-0.1,0.4-0.1,0.5l-0.2,5.5c0,0.1-0.1,0.6-0.1,1.2l-0.2,0.5c0,0-0.1,0.1-0.1,0.4l0.1,0.6c0,0.1-0.1,0.4-0.3,0.6
	c0,0.1,0,0.2,0,0.2v0.7c0,0.1,0.1,0.4,0.1,0.6c0,0.1,0,0.3-0.1,0.5c-0.1,0.2-0.1,0.4,0,0.5c0.1,0.1,0.1,0.2,0.3,0.3
	c0.1,0.1,0.4-0.1,0.6-0.6v-0.3l-0.2-1.2c0-0.4,0.1-0.8,0.5-1.3c-0.1,0-0.1-0.1-0.1-0.2c0,0,0-0.1-0.1-0.1v-0.1l0.2-3.6
	c0.1-0.1,0.1-0.4,0.2-0.7l0.1-0.4v-0.2c0.1-0.1,0.1-0.4,0.3-1.1v-0.2C54,11,54,10.8,54,10.6c0.1,0,0.1,0,0.1-0.1
	c-0.1-0.1-0.1-0.2,0-0.4c0,0,0-0.1,0.1-0.1V9.8c0.1,0,0.1,0,0.1-0.1c0.1-0.6,0.2-1.3,0.3-2.1C54.8,7.6,54.9,7,55,6V5.8
	c0.1,0,0.1-0.1,0.1-0.8h0.1c0-0.4,0-0.8,0.1-1.4c0,0,0.1-0.2,0.1-0.6C55.6,3,55.6,3,55.6,2.9V2.7c0.1-0.5,0.2-1.1,0.6-2l0.4-0.4h1.3
	c0.2-0.1,0.5-0.1,0.9-0.1c-0.5,0-0.2,0,0.8,0.1c0.9,0.1,1.7,0.1,2.6,0.1l0.3,0.2L62.7,1v0.1c0.1,0.1,0,0.6-0.1,1.3
	c0,0.3,0,0.7-0.1,1.2l-0.4,1c0.1,0.1,0.1,0.4,0.1,0.7l-0.4,1.8c-0.1,0.1-0.1,0.4-0.1,0.6v1.1c-0.1,0.1-0.1,0.3-0.2,0.6v0.4
	c-0.1,0.1-0.1,0.1-0.1,0.2v1.1c-0.1,0.5-0.4,1.3-0.6,2.3c-0.4,0.1-0.6,0.1-0.7,0.1c0.1,2,0.1,3.2,0,3.6l-0.1,0.1
	c0,0.2-0.1,0.6-0.2,1.1v0.4c0,0.1-0.1,0.5-0.2,1.1c0,0.1-0.1,0.3-0.1,0.5c-0.1,0.4-0.3,1-0.4,1.9c0,0.1,0.1,0.4,0.4,1
	c0.1,0.1,0.2,0.6,0.3,1.6c0.1,0.1,0.1,0.5,0.1,1l0.2,0.4v0.6l0.4,1.1v1.3c0.1,0.3,0.2,0.7,0.3,1.2c0,0.2,0,0.5,0.1,0.9
	c0.1,0,0.1,0,0.1,0.1c0,0.1,0,0.1-0.1,0.1c0.1,0.1,0.1,0.4,0.1,0.7v0.2l0.1,0.3l0.4,1.8c0,0.2,0,0.6,0.1,1.3c0,0,0,0.1,0,0.2
	c0.1,0.1,0.1,0.4,0.1,0.6v0.6c0.1,0.2,0.2,0.5,0.3,0.9c0,0.1,0.1,0.5,0.3,1.1c0.1,0.1,0.1,0.4,0.1,0.4c0,0.4,0.1,1.1,0.2,2l0.1,0.2
	v0.2l0.1,1.1l0.4,1.5c0,0.2,0,0.5,0.1,0.9c0,0.1,0.1,0.6,0.3,1.2c0,0.1,0,0.1,0.1,0.2l0.1,0.1c-0.1,0.1-0.1,0.3-0.1,0.5
	c0.4,0.6,0.5,1.1,0.5,1.3C64,49.3,63.7,49.6,63.2,49.6z"/>
<path class="st0" d="M68.4,41.5c0,0,0.1,0.1,0.3,0.2l0.2,0.1c0,0.2,0.1,0.6,0.1,0.8l-0.1,0.5c0,0,0,0.1,0,0.3c0,0.3,0.2,0.4,0.4,0.5
	c0,0,0.1,0,0.3,0l0.2,0.1c0.1,0,0.5-0.1,0.6-0.1c0.1,0,0.2,0,0.5,0c0,0,0.1,0,0.2,0c0,0,0,0,0.1,0c0,0,0.1,0,0.1,0
	c0.1,0,0.5-0.1,0.6-0.1l0.6,0.1l1-0.1c0.1,0,0.2,0,0.4,0.1c0.1,0,0.3,0,0.4,0c0,0,0,0,0,0h1.2h0.2c0.1,0,0.2,0,0.2,0
	c0,0,0.1,0,0.2,0h0.2h0.7h0.6c0.2,0,0.3-0.1,0.2-0.1l0.5,0.2h0.1c0.1,0,0.1,0,0.2,0c0.1,0,0.1,0,0.3,0c0.1-0.1,0.2-0.1,0.4-0.2
	c0.1,0,0.3,0.1,0.5,0.1l0.6-0.1c0.2,0,0.3,0.1,0.5,0.1c0.1,0,0.3-0.1,0.4-0.1c-0.1,0,0.1,0,0.3,0.1c0.1,0,0.2,0,0.2,0
	c0.3,0,0.7,0,1.3-0.1c0.3,0,0.6-0.1,0.7-0.1c0.1,0,0.1,0,0.3,0h0.3c0.1,0,0.1,0,0.3,0h0.3l0.4,0.1c0.1,0,0.2,0,0.4,0.1
	c0,0.1,0.1,0.3,0,0.5l0.1,0.8v0.2c0,0.1-0.1,0.2-0.1,0.4c0,0.1,0.1,0.4,0.1,0.5c0,0.1,0,0.2-0.1,0.4v0.3c-0.1,0.2-0.2,0.2-0.4,0.3
	c-0.2,0-0.4,0-0.7,0c-0.3,0-0.4,0-0.3,0H84h-0.2c-0.2,0-0.2-0.1-0.2-0.1c-0.1,0-0.2,0.1-0.4,0.1c-0.1,0-0.2,0-0.3-0.1c0,0,0,0,0,0
	c-0.2,0-0.4,0-0.7,0h-0.6c-0.2-0.1-0.4-0.1-0.5-0.1c0,0-0.2,0.1-0.6,0.1c0,0,0,0-0.1,0h-0.4c-0.1,0-0.2,0-0.3,0c-0.1,0-0.2,0-0.2,0
	h-0.1l-0.3-0.1c0.1,0-0.1,0-0.5,0c-0.1,0-0.2,0-0.3,0c-0.1,0-0.1,0-0.3,0.1c0,0-0.1,0-0.1,0c0,0-0.1,0-0.1,0c-0.1,0-0.2,0-0.4,0
	c0,0-0.1,0-0.2,0c0,0-0.1-0.1-0.1-0.1c0,0-0.1,0-0.1,0c-0.1,0-0.1,0-0.2-0.1c-0.1,0-0.3,0.1-0.6,0.1h-0.7c-0.2,0-0.3,0-0.5,0h-0.8
	c0,0-0.2,0.1-0.2,0.1l-0.6-0.1c0.1,0,0,0-0.2,0c0,0-0.1,0-0.2,0c-0.2,0-0.3,0.1-0.5,0.1L72,47.2c-0.1,0-0.3,0-0.5,0
	c-0.3,0-0.5,0-0.5,0c-0.4,0-0.6,0-0.5,0c-0.1,0-0.2,0-0.3,0.1l-0.1-0.1c0,0,0,0,0,0c-0.1,0-0.1,0-0.1,0H70c-0.1,0-0.2,0-0.3,0.1
	c-0.2,0-0.4,0-0.7,0c-0.1,0-0.1,0.1-0.2,0.3c0,0.1,0,0.2,0,0.3c0,0,0,0.1,0,0.1c0,0.4,0,0.8,0,1.2l-0.1,0.1v0
	c-0.1,0-0.1,0.1-0.2,0.3c-0.1,0-0.2,0-0.4,0.1c0,0-0.1,0.1-0.2,0.1c0,0-0.1,0-0.2-0.1l-0.3-0.1l-0.1-0.1h-0.1c0,0,0,0,0-0.1
	c0,0-0.1,0-0.1,0l-0.2-0.2c0-0.1,0-0.4,0-0.8c0-0.7,0-1.3,0-2c0,0,0-0.2,0-0.4c0-0.1,0-0.2,0-0.3c0,0,0-0.1-0.1-0.6
	c0-0.2,0-0.4,0-0.8l0.1-0.5c0-0.4,0-0.9,0-1.7c0-0.1,0.1-0.2,0.2-0.4c0.1,0,0.2-0.1,0.3-0.2c0.1,0,0.2,0,0.3,0c0,0,0.1,0,0.1,0.1
	L68.4,41.5z"/>
<path class="st0" d="M68.4,18.8c0,0,0.1,0.1,0.3,0.2l0.2,0.1c0,0.2,0.1,0.6,0.1,0.8l-0.1,0.5c0,0,0,0.1,0,0.3c0,0.3,0.2,0.4,0.4,0.5
	c0,0,0.1,0,0.3,0l0.2,0.1c0.1,0,0.5-0.1,0.6-0.1c0.1,0,0.2,0,0.5,0c0,0,0.1,0,0.2,0c0,0,0,0,0.1,0c0,0,0.1,0,0.1,0
	c0.1,0,0.5-0.1,0.6-0.1l0.6,0.1l1-0.1c0.1,0,0.2,0,0.4,0.1c0.1,0,0.3,0,0.4,0c0,0,0,0,0,0h1.2h0.2c0.1,0,0.2,0,0.2,0
	c0,0,0.1,0,0.2,0h0.2h0.7h0.6c0.2,0,0.3-0.1,0.2-0.1l0.5,0.2h0.1c0.1,0,0.1,0,0.2,0c0.1,0,0.1,0,0.3,0c0.1-0.1,0.2-0.1,0.4-0.2
	c0.1,0,0.3,0.1,0.5,0.1l0.6-0.1c0.2,0,0.3,0.1,0.5,0.1c0.1,0,0.3-0.1,0.4-0.1c-0.1,0,0.1,0,0.3,0.1c0.1,0,0.2,0,0.2,0
	c0.3,0,0.7,0,1.3-0.1c0.3,0,0.6-0.1,0.7-0.1c0.1,0,0.1,0,0.3,0h0.3c0.1,0,0.1,0,0.3,0h0.3l0.4,0.1c0.1,0,0.2,0,0.4,0.1
	c0,0.1,0.1,0.3,0,0.5l0.1,0.8v0.2c0,0.1-0.1,0.2-0.1,0.4c0,0.1,0.1,0.4,0.1,0.5c0,0.1,0,0.2-0.1,0.4v0.3c-0.1,0.2-0.2,0.2-0.4,0.3
	c-0.2,0-0.4,0-0.7,0c-0.3,0-0.4,0-0.3,0H84h-0.2c-0.2,0-0.2-0.1-0.2-0.1c-0.1,0-0.2,0.1-0.4,0.1c-0.1,0-0.2,0-0.3-0.1c0,0,0,0,0,0
	c-0.2,0-0.4,0-0.7,0h-0.6c-0.2-0.1-0.4-0.1-0.5-0.1c0,0-0.2,0.1-0.6,0.1c0,0,0,0-0.1,0h-0.4c-0.1,0-0.2,0-0.3,0c-0.1,0-0.2,0-0.2,0
	h-0.1l-0.3-0.1c0.1,0-0.1,0-0.5,0c-0.1,0-0.2,0-0.3,0c-0.1,0-0.1,0-0.3,0.1c0,0-0.1,0-0.1,0c0,0-0.1,0-0.1,0c-0.1,0-0.2,0-0.4,0
	c0,0-0.1,0-0.2,0c0,0-0.1-0.1-0.1-0.1c0,0-0.1,0-0.1,0c-0.1,0-0.1,0-0.2-0.1c-0.1,0-0.3,0.1-0.6,0.1h-0.7c-0.2,0-0.3,0-0.5,0h-0.8
	c0,0-0.2,0.1-0.2,0.1l-0.6-0.1c0.1,0,0,0-0.2,0c0,0-0.1,0-0.2,0c-0.2,0-0.3,0.1-0.5,0.1L72,24.5c-0.1,0-0.3,0-0.5,0
	c-0.3,0-0.5,0-0.5,0c-0.4,0-0.6,0-0.5,0c-0.1,0-0.2,0-0.3,0.1l-0.1-0.1c0,0,0,0,0,0c-0.1,0-0.1,0-0.1,0H70c-0.1,0-0.2,0-0.3,0.1
	c-0.2,0-0.4,0-0.7,0c-0.1,0-0.1,0.1-0.2,0.3c0,0.1,0,0.2,0,0.3c0,0,0,0.1,0,0.1c0,0.4,0,0.8,0,1.2l-0.1,0.1v0
	c-0.1,0-0.1,0.1-0.2,0.3c-0.1,0-0.2,0-0.4,0.1c0,0-0.1,0.1-0.2,0.1c0,0-0.1,0-0.2-0.1l-0.3-0.1l-0.1-0.1h-0.1c0,0,0,0,0-0.1
	c0,0-0.1,0-0.1,0l-0.2-0.2c0-0.1,0-0.4,0-0.8c0-0.7,0-1.3,0-2c0,0,0-0.2,0-0.4c0-0.1,0-0.2,0-0.3c0,0,0-0.1-0.1-0.6
	c0-0.2,0-0.4,0-0.8l0.1-0.5c0-0.4,0-0.9,0-1.7c0-0.1,0.1-0.2,0.2-0.4c0.1,0,0.2-0.1,0.3-0.2c0.1,0,0.2,0,0.3,0c0,0,0.1,0,0.1,0.1
	L68.4,18.8z"/>
<path class="st0" d="M67.7,49.4c0,0,0.1,0,0.2,0c0.1,0,0.2,0,0.3,0c0,0,0.1,0,0.1,0c-0.1-0.1-0.5-0.2-0.5-0.2
	C67.7,49.2,67.7,49.3,67.7,49.4z"/>
<path class="st0" d="M68.2,48.4c0,0.2,0.1,0.3,0.2,0.6c0-0.1,0.1-0.3,0.1-0.5C68.4,48.4,68.3,48.4,68.2,48.4
	C68.2,48.3,68.2,48.3,68.2,48.4z"/>
<path class="st0" d="M67.5,48.4v0.1c0.1,0,0.2,0.1,0.2,0.1c0,0,0-0.1,0-0.2H67.5z"/>
<path class="st0" d="M67.8,48.2c0-0.1,0-0.1,0-0.2c0-0.1,0-0.1-0.1-0.1C67.7,48.1,67.8,48.1,67.8,48.2z"/>
<path class="st0" d="M68.3,47.6v0.1c0,0,0.1,0,0.1,0c0-0.1,0.1-0.2,0.3-0.3c0-0.1,0-0.1-0.1-0.1c-0.1,0-0.2,0-0.2,0
	C68.4,47.5,68.4,47.6,68.3,47.6z"/>
<path class="st0" d="M67.6,47.2c0,0.3-0.1,0.5-0.1,0.4c0,0,0.1,0.1,0.2,0.1c0-0.2,0.1-0.5,0.1-0.6c0,0,0-0.1,0-0.2
	c0,0,0.1-0.2,0.1-0.3c0,0-0.1-0.1-0.1-0.1C67.7,46.7,67.6,46.9,67.6,47.2z"/>
<path class="st0" d="M68.2,47.4c0.1,0,0.1,0,0.1-0.1l-0.1-0.1c0,0,0-0.1-0.1-0.2L68.2,47.4z"/>
<path class="st0" d="M69.5,46.5c0,0.1-0.1,0.3-0.1,0.4c0,0.2,0,0.3,0.1,0.3c0-0.1,0-0.2,0-0.3c0-0.1,0.1-0.4,0.1-0.4H69.5z"/>
<path class="st0" d="M78.7,46.5c-0.1,0.1-0.2,0.3-0.2,0.5h-0.2c0,0.1,0,0.2,0,0.2c0.1,0,0.3-0.3,0.3-0.3v-0.2
	c0.1-0.1,0.2-0.1,0.2-0.1c0-0.1,0-0.1-0.1-0.1c0,0-0.1,0-0.1,0.1L78.7,46.5z"/>
<path class="st0" d="M76.7,47.1c0.1,0,0.2,0,0.2,0c0,0,0-0.1-0.1-0.1C76.8,47,76.7,47.1,76.7,47.1z"/>
<path class="st0" d="M75.7,47.1c0.1,0,0.2,0,0.5-0.1v-0.2c0.1,0,0,0-0.1-0.1C76,46.9,75.8,47,75.7,47.1z"/>
<path class="st0" d="M74.5,47.1c0,0,0-0.1,0.1-0.2c0,0-0.1-0.1-0.2-0.1l-0.1-0.1c0,0-0.1,0-0.1,0C74.3,46.8,74.4,47.1,74.5,47.1z"/>
<path class="st0" d="M70.9,46.9c0,0-0.2,0-0.4,0.1c-0.2-0.1-0.2-0.1-0.2-0.1c0,0.1,0.1,0.2,0.3,0.2c0.2,0,0.4,0,0.6-0.1c0,0,0,0,0,0
	s0,0,0.1,0c0,0,0,0,0,0c0,0,0.1,0,0.1,0c0.1,0,0.1,0,0.1,0c-0.1,0-0.1-0.1-0.1-0.2C71.1,46.7,71,46.8,70.9,46.9z"/>
<path class="st0" d="M68.7,46.9c-0.1,0-0.1,0-0.1,0.1c0,0,0.1,0.1,0.1,0V46.9z"/>
<path class="st0" d="M71.6,47c0.1,0,0.2,0,0.3,0c0,0-0.1-0.1-0.2-0.1C71.7,46.9,71.7,46.9,71.6,47z"/>
<path class="st0" d="M83.8,46.5c0,0.4-0.1,0.3-0.3,0.4c0,0,0.1-0.1,0.4-0.2l0.1,0.1c0.1,0,0.2,0,0.2,0c0.1,0.1,0.2,0.2,0.4,0.2
	c0-0.1,0.3-0.3,0.3-0.3c0,0-0.2-0.1-0.2-0.1l-0.2,0.1c-0.1-0.1-0.3-0.2-0.3-0.2c-0.1,0-0.1,0-0.2,0.1L83.8,46.5z"/>
<path class="st0" d="M75.1,46.7c-0.1,0-0.1,0-0.1,0.1l0.2,0.1c0,0,0,0.1,0,0.1c0.1,0,0.1-0.1,0.2-0.2c0,0,0-0.1-0.1-0.2
	C75.2,46.7,75.1,46.7,75.1,46.7z"/>
<path class="st0" d="M79.3,47c0,0,0-0.1,0.1-0.1c0-0.1,0-0.1-0.1-0.1C79.3,46.9,79.3,47,79.3,47z"/>
<path class="st0" d="M85,46.9c0,0,0,0.1,0.1,0.1c0,0,0,0,0-0.1C85.1,46.9,85.1,46.9,85,46.9C85,46.9,85,46.9,85,46.9z"/>
<path class="st0" d="M79.9,46.9C79.9,47,79.9,47,79.9,46.9c0.1,0.1,0.2,0,0.2-0.1C80,46.8,80,46.8,79.9,46.9z"/>
<path class="st0" d="M83,47c0.1,0,0.2,0,0.2-0.1c-0.1-0.1-0.2-0.1-0.2-0.1V47z"/>
<path class="st0" d="M77.9,46.3C77.8,46.3,77.8,46.4,77.9,46.3l-0.1,0.2v0.1c-0.2,0.1-0.3,0.1-0.3,0.1v0.1c0,0,0,0,0,0.1
	c0.1,0,0.2,0.1,0.3,0c0,0,0,0,0.1,0c0.1,0,0.3,0,0.5,0c-0.1,0-0.2,0-0.3-0.1L78,46.8l-0.1-0.1L77.9,46.3z"/>
<path class="st0" d="M82,46.9C82,47,82,47,82,46.9c0.1,0,0.1,0,0.1-0.1"/>
<path class="st0" d="M69.9,47c0.1-0.2,0.1-0.3,0.1-0.3c-0.1,0-0.2-0.1-0.3-0.1c0,0-0.1,0-0.1,0.1C69.7,46.6,69.9,47,69.9,47z"/>
<path class="st0" d="M72.4,46.8c0,0.1,0.1,0.2,0.2,0.2c0.1,0,0.2-0.1,0.2-0.2c0-0.1-0.1-0.1-0.2-0.1c-0.1,0-0.2,0-0.2,0.1
	C72.4,46.7,72.4,46.8,72.4,46.8z"/>
<path class="st0" d="M80.2,46.9c0.1,0,0.3,0,0.4-0.1c0-0.1,0-0.2-0.1-0.2C80.3,46.6,80.2,47,80.2,46.9z"/>
<path class="st0" d="M69.1,46.7c-0.1,0-0.2,0-0.2,0.1c0,0.1,0.1,0.1,0.2,0.2V46.7z"/>
<path class="st0" d="M77,46.5c0,0,0.1,0.1,0.3,0.2c0-0.2,0-0.3-0.1-0.3C77.1,46.4,77.1,46.4,77,46.5z"/>
<path class="st0" d="M75.9,46.1c0-0.1,0-0.1-0.1-0.1c-0.1,0-0.1,0-0.1,0.1C75.9,46.1,75.9,46.1,75.9,46.1z"/>
<path class="st0" d="M68.2,46.5C68.2,46.5,68.2,46.4,68.2,46.5C68.2,46.4,68.2,46.6,68.2,46.5z"/>
<path class="st0" d="M68.7,46.5c0,0,0,0-0.1-0.1C68.6,46.4,68.6,46.5,68.7,46.5z"/>
<path class="st0" d="M72.1,46.1C72,46.1,72,46.1,72.1,46.1c-0.1,0.1-0.1,0.1-0.1,0.1c0,0.1,0,0.2,0.1,0.3c0.1,0,0.2-0.2,0.2-0.5
	C72.2,46,72.1,46.1,72.1,46.1z"/>
<path class="st0" d="M74.4,45.5c-0.2,0-0.3,0.1-0.2,0.3l-0.1,0.2c0,0.1,0,0.3,0.1,0.4c0,0,0,0,0.1-0.1c0-0.1,0-0.2,0-0.2
	c0.2-0.1,0.2,0,0.3-0.3L74.4,45.5z"/>
<path class="st0" d="M73.5,46.2c0,0.2,0.1,0.2,0.2,0.2c0,0,0-0.1,0-0.2H73.5z"/>
<path class="st0" d="M70.5,46.3l0.2,0.2c0-0.1,0.1-0.1,0.1-0.2C70.6,46.2,70.5,46.2,70.5,46.3z"/>
<path class="st0" d="M80.1,46.1l-0.3,0.3L80.1,46.1c0.2-0.1,0-0.3-0.1-0.2C80.1,46,80.1,46,80.1,46.1z"/>
<path class="st0" d="M76.4,45.9c-0.1,0-0.2,0.1-0.2,0.1c0.1,0.3,0.2,0.4,0.5,0.3c0.1-0.1,0.1-0.2,0.1-0.4c0,0.1,0,0.1-0.1,0.1
	c-0.2-0.1-0.2-0.1-0.3-0.3V45.9z"/>
<path class="st0" d="M75.2,46.3c0.1,0,0.1-0.1,0.1-0.2c0-0.1-0.1-0.2-0.1-0.2C75.1,46.2,75.1,46.3,75.2,46.3z"/>
<path class="st0" d="M70.3,45.8c-0.1,0-0.2,0-0.3,0c0,0.1,0,0.3,0,0.5c0.1,0,0.1,0,0.2-0.1L70.3,45.8z"/>
<path class="st0" d="M85,46.1c0,0.1,0,0.1,0.1,0.2c0-0.1,0-0.2,0-0.2c0-0.1,0-0.1,0-0.2C85,45.9,85,46,85,46.1z"/>
<path class="st0" d="M81.5,46.3c0.2,0,0.3,0,0.3-0.1C81.6,46.2,81.5,46.2,81.5,46.3z"/>
<path class="st0" d="M83.6,46.3c0,0,0.1,0,0.1-0.1c0-0.1,0-0.2-0.1-0.2C83.6,46,83.6,46.1,83.6,46.3z"/>
<path class="st0" d="M71.4,45.8c-0.1,0-0.1,0-0.2,0c0,0.1,0.1,0.3,0.1,0.4c0.1,0,0.2,0,0.3,0c-0.1,0-0.1-0.1-0.1-0.2L71.4,45.8z"/>
<path class="st0" d="M84.2,46.2c0.3,0,0.4-0.2,0.3-0.4c0-0.1-0.1-0.1-0.2-0.1C84.3,45.8,84.2,45.9,84.2,46.2z"/>
<path class="st0" d="M68.9,45.8l0.1,0.3c0.2,0,0.3-0.1,0.3-0.2l-0.2-0.2c0,0,0-0.1-0.1,0C69,45.7,68.9,45.7,68.9,45.8z"/>
<path class="st0" d="M78.7,46.1c0,0,0-0.1,0-0.2c0,0,0,0-0.1,0C78.7,46,78.7,46.1,78.7,46.1z"/>
<path class="st0" d="M78.1,45.7L78.1,45.7c0.1,0.1,0.1,0.2,0.1,0.2l0.1-0.4c0,0-0.1,0-0.2-0.1C78.2,45.5,78.2,45.6,78.1,45.7z"/>
<path class="st0" d="M81.1,46h0.1c0,0,0-0.1-0.1-0.1C81.1,45.9,81.1,45.9,81.1,46z"/>
<path class="st0" d="M75.6,45.8c0.1,0,0.2,0,0.4,0.1c0-0.1,0-0.2,0-0.3c-0.1-0.1-0.2-0.1-0.4-0.2C75.6,45.5,75.6,45.7,75.6,45.8z"/>
<path class="st0" d="M82.5,45.8c0.1,0,0.2,0,0.2-0.1c-0.2,0-0.3,0-0.3,0C82.5,45.7,82.5,45.8,82.5,45.8z"/>
<rect x="77.6" y="45.7" class="st0" width="0.1" height="0.1"/>
<path class="st0" d="M68.6,45.5c0,0.1,0.1,0.1,0.2,0.2c0-0.2,0-0.3-0.1-0.3C68.6,45.4,68.6,45.5,68.6,45.5z"/>
<path class="st0" d="M69.4,45.5c0.1,0,0.2,0.1,0.3,0.2v-0.1h0.1v-0.1c0,0,0.1,0,0.1-0.1c-0.1-0.1-0.2-0.1-0.3-0.1
	c-0.1,0-0.1,0-0.2,0.1V45.5z"/>
<path class="st0" d="M80.3,45.6c0,0.1,0,0.1,0.1,0.1c0,0,0.1-0.1,0.1-0.2c0-0.1,0-0.1-0.1-0.1C80.3,45.5,80.3,45.5,80.3,45.6z"/>
<path class="st0" d="M71.5,45.5c0.1,0,0.2,0,0.2,0C71.6,45.5,71.5,45.5,71.5,45.5z"/>
<path class="st0" d="M75.3,45.1c0,0.3,0.1,0.4,0.2,0.4c0-0.2,0-0.3,0-0.4H75.3z"/>
<path class="st0" d="M73.4,45.2v0.2c0,0-0.1,0,0,0.1c0.1,0,0.1,0.1,0.2,0c0,0-0.1-0.2-0.1-0.4C73.4,45.1,73.4,45.1,73.4,45.2z"/>
<path class="st0" d="M84.9,45.1c-0.1,0-0.1,0-0.1,0c-0.1,0.2-0.1,0.3-0.1,0.4c0.1,0,0.1-0.2,0.3-0.4C85,45.1,84.9,45.1,84.9,45.1z"
	/>
<path class="st0" d="M70.6,44.9c0,0,0,0.1-0.1,0.1c0,0.1,0.1,0.3,0.1,0.3h0.2l0.1,0c0,0,0,0-0.1,0l-0.1-0.1c0,0,0,0,0-0.1
	c0-0.1,0-0.2,0-0.3H70.6z"/>
<path class="st0" d="M83.8,45c-0.1,0-0.1,0.1-0.1,0.2c0,0,0,0.1,0,0.1c0.1,0.1,0.1,0.1,0.2,0.1c0.1,0,0.1-0.1,0.1-0.3
	C84,45,83.9,45,83.8,45z"/>
<path class="st0" d="M67.7,44.9c0,0.1,0,0.3,0,0.4c0.1,0,0.1-0.1,0.1-0.3L67.7,44.9z"/>
<path class="st0" d="M77.7,45.3c0,0,0.1,0,0.2,0c0-0.1,0-0.2,0-0.4L77.7,45.3z"/>
<path class="st0" d="M72,45.2c0.1,0,0.1,0,0.1-0.1c0-0.1-0.1-0.1-0.1-0.2C72,44.9,72,45.2,72,45.2z"/>
<path class="st0" d="M77.1,44.9c0,0-0.1,0-0.1,0.1c0,0.1,0,0.1,0,0.2c0,0,0.1-0.1,0.2-0.2C77.2,45,77.2,45,77.1,44.9
	c0.1,0,0.1-0.1,0.1-0.2L77.1,44.9z"/>
<path class="st0" d="M76.5,45l0.1,0.2c0,0,0.1-0.1,0.1-0.2C76.5,45,76.5,45,76.5,45z"/>
<path class="st0" d="M81.3,45.1C81.4,45.1,81.4,45.1,81.3,45.1c0.1,0.1,0.1,0,0.2,0C81.4,45,81.3,45,81.3,45.1z"/>
<path class="st0" d="M74.5,44.9l0.2,0.1c0-0.2,0-0.2,0.1-0.1c-0.1,0-0.2-0.1-0.2-0.1L74.5,44.9z"/>
<path class="st0" d="M79.6,45.1c0,0,0,0-0.1-0.1C79.5,45,79.5,45,79.6,45.1z"/>
<path class="st0" d="M78.5,44.9c0.1,0.1,0.2,0.1,0.3,0.1v-0.3c0,0-0.1,0-0.2,0L78.5,44.9z"/>
<path class="st0" d="M85,44.8c0,0,0,0.2,0.1,0.2c0,0,0.1-0.2,0.1-0.3C85,44.6,85,44.7,85,44.8z"/>
<path class="st0" d="M82.2,44.9C82.2,44.9,82.3,44.9,82.2,44.9C82.2,44.8,82.2,44.8,82.2,44.9z"/>
<path class="st0" d="M84.5,44.6c-0.1,0-0.2,0-0.2,0.1h0.1L84.5,44.6z"/>
<path class="st0" d="M68.4,44.6c0.1,0,0.2-0.1,0.2-0.2c0,0-0.1-0.1-0.2-0.2C68.3,44.2,68.3,44.3,68.4,44.6z"/>
<path class="st0" d="M67.9,43.7c0,0-0.1,0-0.2,0.1c0,0-0.1,0.1-0.1,0.2c0,0,0,0.1,0,0.1c0.1,0.1,0.2,0.2,0.4,0.1c0,0,0-0.1,0.1-0.1
	c0-0.1,0-0.2-0.1-0.2L67.9,43.7z"/>
<path class="st0" d="M68.6,43.1c-0.1,0-0.1,0-0.2,0c0,0.2,0.2,0.4,0.3,0.3c0-0.2,0-0.5,0-0.9C68.6,42.7,68.5,42.8,68.6,43.1z"/>
<path class="st0" d="M67.5,43.4C67.6,43.4,67.6,43.4,67.5,43.4c0.1-0.2,0-0.2,0-0.2V43.4z"/>
<path class="st0" d="M67.5,42.6C67.5,42.6,67.6,42.7,67.5,42.6C67.6,42.6,67.6,42.5,67.5,42.6c0.1-0.1,0.1-0.1,0.1-0.1
	C67.6,42.5,67.5,42.5,67.5,42.6z"/>
<path class="st0" d="M74.2,41l0.1,0.1c0.1,0,0.1,0,0.2-0.1c0,0-0.1-0.1-0.2-0.1C74.2,40.9,74.2,41,74.2,41z"/>
<path class="st0" d="M73.8,41.1C73.9,41,73.9,41,73.8,41.1C73.8,41,73.8,41,73.8,41.1L73.8,41.1z"/>
<path class="st0" d="M80.1,41.1c0.1,0,0.1,0,0.1-0.1c0,0,0,0,0-0.1C80.1,40.9,80.1,41,80.1,41.1z"/>
<path class="st0" d="M81.1,40.4c-0.1,0-0.1,0-0.2,0.1c0,0.1,0,0.2,0,0.2l-0.3,0.2c0,0,0,0.1,0,0.1c0,0,0.1,0.1,0.2,0.1l0.1,0
	c0.1,0,0.1,0,0.2-0.1c-0.1,0-0.1,0-0.1-0.1L81.1,40.4z"/>
<path class="st0" d="M70.5,40.9c0.1,0,0.2,0.1,0.2,0.1c0.1,0,0.1-0.1,0.1-0.3c0-0.1,0-0.1-0.1-0.2C70.6,40.6,70.5,40.8,70.5,40.9z"
	/>
<path class="st0" d="M77.2,40.7c0,0.1,0,0.2,0.1,0.2c0,0,0-0.1,0.1,0c0-0.1,0-0.2,0-0.3C77.2,40.5,77.2,40.6,77.2,40.7z"/>
<path class="st0" d="M71.5,40.6l0.1,0.2c0.2,0,0.3,0,0.4,0c0-0.4-0.1-0.3-0.4-0.4C71.6,40.5,71.5,40.6,71.5,40.6z"/>
<path class="st0" d="M71.1,40.9L71.1,40.9L71.1,40.9L71.1,40.9C71.2,40.8,71.2,40.8,71.1,40.9L71.1,40.9z"/>
<path class="st0" d="M83.2,40.8v0.1c0,0,0.1,0,0.1,0c0.1,0,0.1,0,0.1,0c0-0.1,0-0.2-0.1-0.3L83.2,40.8z"/>
<path class="st0" d="M72.3,40.7l0,0.1c-0.1,0-0.1,0-0.1,0.1c0.1,0,0.2,0,0.3-0.1c0,0,0.1-0.1,0.1-0.2c0,0-0.1-0.1-0.2-0.1
	C72.3,40.6,72.3,40.6,72.3,40.7z"/>
<path class="st0" d="M78.5,40.8c0,0,0,0,0.1,0c0.1,0,0.2-0.1,0.2-0.1C78.6,40.6,78.5,40.7,78.5,40.8z"/>
<path class="st0" d="M83.6,40.7C83.6,40.8,83.6,40.8,83.6,40.7l0,0.1C83.6,40.8,83.6,40.8,83.6,40.7L83.6,40.7z"/>
<path class="st0" d="M75.6,40.5c0.2,0,0.3,0.1,0.3,0.3h0.2c0,0,0.1-0.1,0.1-0.3c-0.1,0-0.2,0-0.3-0.1C75.7,40.3,75.7,40.4,75.6,40.5
	z"/>
<path class="st0" d="M77.5,40.7C77.5,40.7,77.5,40.7,77.5,40.7c0.2,0.1,0.3,0,0.3-0.1c0,0,0-0.1-0.1-0.2L77.5,40.7z"/>
<path class="st0" d="M74.7,40.4c0,0,0,0.1,0,0.3c0.1,0,0.2-0.2,0.2-0.2c0.1,0,0.3,0,0.5,0c-0.1-0.1-0.2-0.1-0.3-0.2
	C75,40.4,74.8,40.4,74.7,40.4z"/>
<path class="st0" d="M79.1,40.5c-0.1,0-0.1,0-0.1,0c0.1,0,0.1,0.1,0.1,0.1C79.1,40.7,79.1,40.6,79.1,40.5
	C79.1,40.5,79,40.5,79.1,40.5L79.1,40.5z"/>
<path class="st0" d="M69.7,40.4l-0.1,0.1c0.1,0.1,0.1,0.1,0.3,0.2v-0.2L69.7,40.4z"/>
<path class="st0" d="M72.7,40.6c0.1,0,0.1,0,0.1,0C72.8,40.5,72.7,40.5,72.7,40.6z"/>
<path class="st0" d="M73.9,40.5c0,0,0-0.1-0.1-0.1c-0.1,0-0.1,0-0.1,0.1H73.9z"/>
<path class="st0" d="M74.3,40.4C74.3,40.5,74.3,40.4,74.3,40.4C74.3,40.4,74.3,40.4,74.3,40.4z"/>
<path class="st0" d="M79.3,39.9c0,0,0,0.1-0.1,0.1l0.1,0.5c0.1,0,0.2,0,0.2-0.1l-0.1-0.2h0v-0.1L79.3,39.9z"/>
<path class="st0" d="M69,40.1c0,0-0.1,0-0.2,0c0,0.2,0.1,0.3,0.2,0.2C69,40.3,69.1,40.2,69,40.1L69,40.1z"/>
<path class="st0" d="M84.3,40.4L84.3,40.4c0.1-0.2,0-0.2-0.1-0.2C84.2,40.2,84.3,40.4,84.3,40.4z"/>
<path class="st0" d="M76.4,40.3l0.2-0.1c0.1,0,0.1,0,0.1-0.1l-0.3,0l0-0.1c0,0,0,0-0.1,0V40.3z"/>
<path class="st0" d="M74.1,40l0.2,0.2c0.1,0,0.3-0.2,0.3-0.3c-0.1,0-0.2,0-0.4-0.1C74.1,39.9,74.1,40,74.1,40z"/>
<path class="st0" d="M71.7,40.2C71.7,40.2,71.7,40.1,71.7,40.2c0.1-0.1,0.1-0.1,0.1-0.2C71.7,39.9,71.7,40,71.7,40.2z"/>
<path class="st0" d="M82.5,40C82.6,40,82.6,40,82.5,40c0,0.1,0.1,0.2,0.1,0.2c0,0,0-0.1,0-0.2H82.5C82.5,39.9,82.5,39.9,82.5,40
	L82.5,40z"/>
<path class="st0" d="M73.1,40C73.1,40,73,40,73.1,40c0,0,0.1,0.1,0.1,0.1c0,0,0.1,0,0.2,0c0,0,0.1,0,0.1,0c0.1,0,0.4-0.1,0.4-0.1
	c-0.2,0-0.4,0-0.6-0.1L73.1,40z"/>
<path class="st0" d="M69.6,39.8c0,0-0.1,0.1-0.1,0.2c0.1,0.1,0.2,0,0.2-0.1C69.7,39.9,69.6,39.8,69.6,39.8z"/>
<path class="st0" d="M76.7,32.7L76.7,32.7h0.5c0.4,0.1,0.7,0.1,1,0c0.1,0,0.1,0,0.1,0c0.1,0,0.2,0,0.3,0c-0.1,0,0,0,0.2,0h0.4h0.2
	h0.5h0.5h0.3h0.7h0.7c0.1,0,0.3,0,0.7,0c0,0,0.1,0,0.2,0.1h0.1c0,0,0.1,0,0.1,0.1c0,0,0.1,0,0.2,0.1l0.3,0.1c0,0,0,0,0.1,0
	c0.2,0,0.2,0,0.8,0.6c0,0.1,0.1,0.1,0.2,0.2l0.5,0.9c0,0,0,0,0,0.1v0.1h0V35c0,0,0,0.1,0.1,0.2c0,0,0,0,0,0c0.1,0.6,0.2,1.2,0.2,1.7
	c0,0.2,0,0.4-0.1,0.8v0.2l-0.1,0.8c0,0.2,0,0.3-0.1,0.3v0l-0.1,0.1c0,0,0,0,0,0.1l-0.1,0.2c0,0,0,0.1,0,0.2c0,0-0.1,0-0.1,0v0.1v0.1
	l-0.1,0.1l-0.1,0.1c0,0.1-0.4,0.6-0.6,0.8h-0.1v0h0l-0.1,0.1h-0.1v0h-0.1v0h-0.1V41H84H84c-0.1,0.1-0.1,0.2-0.3,0.2
	c0,0-0.2,0-0.7,0.1H83c0,0,0,0,0,0c0,0-0.1,0-0.1,0c0,0-0.1,0-0.1,0c0,0,0,0-0.1,0c-0.3,0-0.5,0-0.6,0c-0.1,0-0.1,0-0.1,0
	c0,0-0.1,0-0.1,0h-0.2c0,0,0,0-0.1,0h-0.2c0,0-0.1,0-0.1,0c0.1,0,0.1,0-0.2,0c-0.3,0-0.5,0-0.6,0l-0.5,0.1c-0.1,0-0.3,0-0.6,0h-0.1
	c0,0-0.1,0-0.1,0c-0.1,0-0.2,0-0.4,0l0,0h0c-0.1,0-0.2-0.1-0.2-0.1c-0.1,0-0.2,0-0.3,0.1l-0.2,0.1c-0.2,0-0.6,0-1,0
	c-0.4,0-0.5,0-0.5,0h-0.5c-0.1,0-0.4,0-0.8,0c-0.3,0-0.6-0.1-0.8,0c-0.1,0-0.2,0-0.5,0.1h-0.8c-0.1,0-0.2,0-0.3,0c0,0-0.1,0-0.2,0
	h-0.7c0,0,0,0-0.1,0c-0.1,0-0.3,0-0.4,0c0,0,0,0,0,0c-0.1,0-0.2,0-0.3,0c-0.1,0-0.2-0.1-0.3-0.1c-0.1,0-0.4,0.1-0.5,0.1
	c0.2,0,0,0-0.6,0c-0.3,0-0.6,0-0.9-0.1l-0.6-0.2c-0.1-0.3-0.2-0.2-0.6-0.4c0,0-0.1-0.1-0.3-0.4c0,0-0.1,0-0.1-0.1
	c0-0.1-0.1-0.3-0.1-0.5l-0.1-0.3c-0.1-0.2-0.2-0.5-0.3-1v-0.1c0-0.1,0-0.3,0-0.6v-0.1l0,0c0-0.1,0-0.1,0-0.2v-0.2c0,0,0-0.1,0-0.2
	c0-0.1,0-0.3,0-0.7c0-0.1,0-0.3,0-0.4c0,0,0,0,0-0.1c0,0,0,0,0.1,0l0.1-0.6l0.1-0.1v0l0,0c0-0.1,0.1-0.3,0.2-0.6l0.1-0.1l0.1-0.1
	c0,0,0,0,0.1-0.1v-0.1c0.1,0,0.2-0.1,0.2-0.3l0.3-0.3l0.3-0.2l0-0.1c0,0,0.1-0.1,0.3-0.1c0.1,0,0.3-0.1,0.7-0.2l0.5-0.1
	c0.1,0,0.5,0.1,0.7,0.1h0.6c0,0,0.1,0,0.2,0H72c0,0,0.1-0.1,0.2-0.1c0,0,0.1,0,0.2,0.1h0.5l0.1-0.1l0.1,0.1h0.3
	c0.1,0,0.1-0.1,0.2-0.1c0,0,0.1,0.1,0.2,0.1h1c0.1,0,0.5-0.1,0.7-0.1c0.1,0,0.4,0.1,0.5,0.1c0.1,0,0.4-0.1,0.5-0.1
	C76.2,32.7,76.3,32.7,76.7,32.7z M82.4,36.2c-0.1,0-0.1,0-0.2-0.1H82c-0.1,0-0.5,0.1-0.6,0.1c-0.1,0-0.3-0.1-0.4-0.1
	s-0.4,0.1-0.5,0.1c-0.6,0-0.8,0-0.8-0.1l-0.7,0.1h-0.1h-0.1c-0.1,0-0.4,0-0.8,0c0,0,0,0,0,0h-0.5h-0.2c-0.3,0-0.7,0-1,0l-0.1-0.1
	h-1.6l-0.4,0.1c0,0-0.1,0,0-0.1c-0.1,0-0.2,0.1-0.3,0.1c-0.1,0-0.3,0-0.7-0.1c-0.1,0-0.4,0.1-0.5,0.1h-0.2h-0.2h-1.2l0,0
	c-0.1,0-0.2,0-0.3,0c-0.2-0.1-0.3-0.1-0.5,0h-0.1c-0.5,0.1-0.7,0.4-0.7,0.9c0-0.1-0.1,0.4,0.3,0.8c0,0.2,0.1,0.2,1.1,0.2
	c0.3,0,0.9,0,1.6,0.1c0.3,0,1-0.1,1.2-0.1c0.1,0,0.1,0,0.2,0h0.2c0.2,0,0.3,0,0.3,0c0.2,0,0.3,0,0.3,0l0.5,0.1c0,0,0,0,0.1,0h0.1
	c0,0,0.1,0,0.1,0h0.2c0,0,0.1,0,0.1,0c0,0,0,0,0.1,0c1.3,0,1.9,0,1.9,0c0.4,0,0.5,0,0.4,0c0.1,0,0.5,0.1,0.6,0.1H79
	c0.1,0,0.1,0,0.2,0c0.2,0,0.6,0,1.1,0.1h0.2c0.1,0,0.2,0,0.2,0c0.1,0,0.1,0,0.2,0h0.2c0,0,0.2,0,0.4,0c0.5,0,0.9-0.1,1.3,0
	c0.1,0,0.2,0,0.1,0l0,0c0.3,0,0.6,0,0.7,0c0,0,0.1-0.1,0.3-0.1c0.1-0.5,0.2-0.8,0.2-0.8c0-0.1-0.1-0.3-0.1-0.4
	c0-0.2-0.2-0.1-0.5-0.5c-0.1,0-0.2,0-0.3,0c-0.2,0-0.3-0.1-0.3-0.1C82.7,36.1,82.3,36.2,82.4,36.2z"/>
<path class="st0" d="M69.4,8.9c0,0,0.1,0,0.2,0c0.2,0,0.4,0,0.8,0C70.5,9,70.7,9,70.9,9c0,0,0.1,0,0.4,0c0,0,0.2,0.1,0.3,0.1
	C71.6,9,71.8,9,71.9,9c0,0,0.1,0,0.3,0.1c0,0,0.1,0,0.2,0l0.1,0l0.1,0c0.3-0.1,0.4,0,0.5,0c0.7-0.1,1.1-0.1,1.1-0.1c0,0,0.1,0,0.1,0
	l0.2,0l0.1,0c0.1,0,0.2,0,0.3,0c0.1,0,0.2,0,0.4,0c0,0,0.1,0,0.2,0c0,0,0.3,0,0.2,0l0.1,0l0.1,0C76,9,76.1,9,76.4,9c0,0,0,0,0,0
	l0.1,0c0,0,0.1,0,0.2,0l0.2,0c0.1,0,0.2,0,0.3,0c0,0,0.1,0,0.1,0l0.1,0c0.1,0,0.1,0,0.1,0c0.1,0,0.2,0,0.3,0.1c0,0,0.1,0,0.2,0
	l0.1,0c0,0,0.1,0,0.1,0c-0.1,0,0,0,0.1,0l0.1,0c0,0,0.1,0,0.2,0l0.1,0c0.1,0,0.1,0,0.1,0c0,0,0.1,0,0.2,0l0.2,0l1,0l0.6,0
	C81.5,9,81.6,9,82,9c0.1,0,0.2,0,0.3,0.1c0.2,0,0.6-0.1,1.1,0c0,0,0.1,0,0.2,0.1c0.1,0,0.2,0,0.3,0c0.1,0,0.1,0,0.3,0.1
	c0.3,0,0.7,0,1.2,0.1c0.1,0.1,0.1,0.3,0.1,0.7l0,0.1c0,0,0,0.1,0,0.1l0,0l0,0.1c0,0,0,0.1,0,0.2c0,0,0,0.2,0,0.5c0,0,0,0.2,0,0.7
	l0,0c0,0.1,0,0.2,0,0.3l-0.1,0.3c0,0,0,0,0,0l-0.1,0.1c0,0,0,0-0.1,0c0,0-0.2,0.1-0.3,0.1c-0.2,0-0.4,0-0.7,0
	c-0.2,0-0.3,0.1-0.4,0.1l-0.6-0.1c-0.2,0-0.5,0-0.8,0.1c0,0-0.1,0-0.2,0l-0.1-0.1l-0.2,0c-0.1,0.1-0.3,0.1-0.7,0.1c0,0,0,0-0.1,0
	c0,0,0,0,0,0c-0.1,0-0.3,0-0.6-0.1c0,0-0.1,0-0.3,0c0,0-0.1,0-0.1,0c-0.2,0-0.4,0-0.7,0.1l-0.3-0.1c-0.1,0-0.1,0-0.2,0v0
	c-0.1,0-0.4,0-0.9,0c-0.2,0-0.4,0-0.5,0c-0.1,0-0.1,0-0.1,0l-0.3,0.1c-0.2,0-0.3,0-0.4,0l0,0.3c0,0,0,0.1,0.1,0.2c0,0,0,0.1-0.1,0.2
	c0,0-0.1,0.1-0.1,0.2c0,0,0.1,0,0.1,0c0,0,0.1-0.2,0.1-0.2l0,0c0.1,0,0.4,0.5,0.3,0.6c0,0-0.1,0-0.2,0c0,0,0-0.2-0.1-0.2
	c0,0,0,0.2,0,0.4c0.1,0.1,0.2,0.1,0.3,0.1c0.1,0,0.2,0,0.3-0.1c0.1,0,0.3,0.1,0.4,0.1c0.2,0,0.4,0,0.8,0c0.1,0,0.2,0,0.3,0
	c0,0,0,0,0,0c-0.1,0,0.1,0,0.5,0.1c0,0,0.1,0,0.1,0l0.2,0c0,0,0.1,0,0.1,0c0.1,0,0.3,0,0.5,0.1l0.3-0.1c0.1,0,0.2,0,0.4,0.1
	c-0.1,0,0,0,0.3,0l0.4,0c0.2,0,0.5,0,0.6,0l0.3,0.1c0,0,0.1,0,0.2,0l0.1,0c0.1,0,0.1,0,0.1,0c0,0,0.1,0,0.1,0l0.1,0l0.3,0.1
	c0.1,0,0.2,0,0.4,0c0.3,0,0.5-0.1,0.6,0c0,0,0.1,0,0.1,0c0.2,0,0.5,0.1,0.5,0.6c0,0,0,0.3,0,0.9c0,0.1,0.1,0.5,0.1,0.6l0,0.5
	c0,0.3,0,0.5-0.2,0.7l0,0.1c-0.1,0.1-0.2,0.1-0.4,0.1l-0.2,0c0,0-0.1,0-0.2,0c-0.5,0-0.8,0-0.8,0c-0.2,0-0.4,0-0.6,0
	c-0.2,0-0.3,0-0.3,0c0,0-0.2,0.1-0.3,0.1c-0.1,0-0.2,0-0.6,0c0,0,0,0-0.2,0c0,0,0,0-0.1-0.1l-0.1,0c0,0,0,0-0.1,0c0.1,0,0,0-0.2,0
	c0,0-0.1,0-0.2,0c0,0-0.1,0-0.1,0l-0.2,0c-0.1,0-0.1,0-0.1,0c-0.2,0-0.3,0-0.3,0c-0.2,0-0.3,0-0.4,0c-0.1,0-0.1,0-0.1,0l-0.4-0.1
	c0,0-0.1,0-0.4,0c-0.1,0-0.2,0-0.3,0c0,0-0.1,0-0.1,0l-0.3,0c-0.1,0-0.1,0-0.2,0l-0.7,0c0,0,0,0-0.1,0c-0.2,0-0.6,0-1,0.1
	c-0.1,0-0.2,0-0.3,0c0,0,0,0,0,0c0,0-0.1,0-0.2,0c0,0-0.2,0-0.6,0c0,0,0,0-0.1,0c0,0-0.1,0-0.2,0c-0.1,0-0.2,0-0.2,0l-0.4-0.1
	c-0.1,0-0.2,0-0.4,0l-0.3-0.1c-0.1,0-0.3,0.1-0.4,0.1l-0.4,0c0,0-0.1,0-0.1,0c0,0-0.1,0-0.2-0.1l-0.3,0c0,0-0.1,0-0.2,0.1
	c-1,0-1.6,0-1.6,0c-0.2,0-0.3,0-0.6-0.1c-0.1,0-0.2-0.1-0.2-0.2c0-0.3-0.1-0.4-0.1-0.3c0-0.1,0-0.2,0-0.1c-0.1,0-0.2-0.1-0.3-0.1
	c0,0,0,0.1,0,0.1c0.1,0,0.1,0.1,0.1,0.3c0,0,0,0.1-0.1,0.1c0,0,0,0-0.1,0c-0.2,0-0.3,0-0.5-0.1c-0.1,0-0.1,0-0.2,0c0,0,0,0,0,0
	l-0.1,0c0,0-0.1,0-0.2,0.1c0,0-0.1,0-0.3,0.1c-0.1,0-0.1,0-0.2,0l-0.4,0l-0.2,0c-0.1-0.1-0.3-0.1-0.3-0.1c-0.1,0-0.2-0.4-0.2-1.2
	c0,0,0,0,0-0.1l0,0c0,0,0-0.1,0-0.1l0-0.4c0-0.1,0-0.2,0-0.3c0-0.2,0-0.6,0-1.1l0.4-0.2c0,0,0,0,0,0l0,0c0,0,0.2-0.1,0.3-0.1l1.3,0
	c0.1,0,0.1,0,0.2,0.1c-0.1,0,0.2,0,0.8,0l0.5,0l0.6-0.1l0.5,0.1c0,0,0.1,0,0.3,0l0.2,0c0.2,0,0.3,0,0.2,0c0.1,0,0.2,0,0.3,0l0.5,0
	c0.1,0,0.2,0,0.3,0.1l0.2-0.1C74,14,74.1,14,74.1,14c0.1,0,0.2,0.1,0.3,0.2c0.1,0,0.2-0.2,0.3-0.3c0-0.1-0.1-0.2-0.1-0.5
	c0-0.2,0-0.3,0.2-0.4c0,0,0-0.1-0.1-0.1l-0.1,0l0-0.1l-0.2-0.2l-0.1-0.1c0,0-0.1,0-0.2,0.1l-0.2,0l-0.3-0.1c0,0-0.1,0-0.2,0
	c-0.1-0.1-0.3-0.1-0.5,0c-0.1,0-0.2,0-0.2,0l-0.4-0.1l-0.2,0.1c0,0,0,0-0.1,0l-0.1,0c0,0,0,0,0,0c0.1,0-0.1,0-0.4-0.1l-0.5-0.1
	c0,0-0.1,0-0.2,0l-0.2,0c-0.1,0-0.3,0-0.5,0c-0.5,0-0.7-0.1-0.6-0.1c-0.1,0-0.3,0.1-0.5,0.1c-0.1,0-0.2,0-0.4-0.1c0,0-0.1,0-0.2,0
	c-0.1,0-0.2,0-0.2,0c0,0-0.1,0-0.1,0l-0.1,0.1c-0.1,0-0.2,0-0.2,0c-0.1,0-0.2,0-0.3,0l0-0.1c-0.1,0-0.2,0-0.3,0l-0.2-0.2
	c-0.1-0.1-0.2-0.3-0.2-0.3l0-0.2c0-0.1,0-0.2,0-0.6l0-0.6c0,0,0,0,0,0l0-0.1l0-0.1l0.1,0c0,0,0,0,0-0.1h0l0-0.2l0,0l0-0.2l-0.1-0.1
	l0-0.1C67.1,9.5,67,9.3,67,9.3l0.1-0.1l0.1-0.1l0.1,0L67.4,9c0,0,0.1,0,0.1,0c0.1,0,0.2,0,0.5,0c0.5,0,0.8-0.1,1,0L69.4,8.9z"/>
<path class="st0" d="M82.6,17.4c0,0,0,0.1,0,0.2c-0.1,0-0.1,0.1-0.1,0.3c0,0,0.1,0,0.2,0l0.3-0.2c0.1,0,0.2,0,0.2-0.1H83
	c-0.1-0.1-0.2-0.2-0.3-0.2C82.7,17.3,82.7,17.3,82.6,17.4z"/>
<path class="st0" d="M84.2,17c0,0.1,0,0.2,0,0.4L84,17.5v0.1c0,0.1,0.1,0.1,0.2,0.2c0-0.1,0.1-0.2,0.1-0.3v-0.6l0.1-0.1
	c-0.1-0.1-0.1-0.4-0.2-0.4C84.2,16.5,84.2,16.7,84.2,17z"/>
<path class="st0" d="M84.7,17.4c-0.1,0-0.2,0.1-0.1,0.1v0.1c0,0,0.1,0.1,0.1,0.1c0,0,0.1,0,0.2-0.1c0-0.1,0-0.2,0-0.3
	C84.8,17.2,84.8,17.4,84.7,17.4z"/>
<path class="st0" d="M76.2,17.5c0,0,0.1,0.1,0.1,0c0-0.1,0-0.2,0-0.2C76.3,17.5,76.3,17.5,76.2,17.5z"/>
<path class="st0" d="M73,17.2l-0.1,0.1c-0.1,0.1-0.1,0.2-0.1,0.1c0.1,0,0.1,0,0.2,0c0.1,0,0.1,0,0.2-0.1L73,17.2z"/>
<path class="st0" d="M72.2,17c0,0-0.1,0-0.2,0.1c0,0.1,0,0.1,0.1,0.2c0,0,0-0.1,0.1-0.2V17z"/>
<path class="st0" d="M78.2,16.9c-0.1,0-0.1,0-0.2,0c0,0,0,0.1,0,0.1h-0.1c0,0,0,0,0,0.1l-0.1,0.1c0.1,0.1,0.2,0.2,0.3,0.2l0.1-0.1
	c0.1,0,0.1-0.1,0.1-0.1L78.2,16.9z"/>
<path class="st0" d="M76.9,17.3c0.1,0,0.2,0,0.3,0c0-0.1-0.1-0.3-0.3-0.3C76.9,17,76.8,17.1,76.9,17.3z"/>
<path class="st0" d="M78.7,17c0,0.1,0,0.2,0,0.2h0.1C78.8,17.2,78.8,17.2,78.7,17L78.7,17z"/>
<path class="st0" d="M74.3,16.7l0,0.2c0,0.1,0.1,0.1,0.1,0.1C74.5,16.8,74.4,16.7,74.3,16.7c0.1,0,0.1,0,0.2-0.1
	c0.1-0.3,0-0.4-0.3-0.4C74.2,16.3,74.2,16.4,74.3,16.7z"/>
<path class="st0" d="M80.7,16.8c0,0,0,0.1,0,0.2h0.1c0-0.2,0-0.2,0-0.2H80.7z"/>
<path class="st0" d="M83.4,16.8l0.1,0.1c0.1,0.1,0.2,0.1,0.3,0c0-0.1,0-0.2,0-0.3C83.3,16.7,83.4,16.8,83.4,16.8z"/>
<path class="st0" d="M67.4,16.2v0.2l-0.1,0.1v0.2c0,0,0.1,0.1,0.2,0.1c0-0.2,0.1-0.3,0.1-0.6c0.1-0.1,0.1-0.1,0.1-0.1
	c0.1,0,0.1,0.1,0.2,0.2v0.2l0.1,0.1c0,0.2,0.1,0.2,0.1,0.2c0-0.1,0-0.2,0-0.6c0,0-0.1-0.1-0.1-0.1c-0.1,0-0.2-0.1-0.2-0.2
	c0-0.2,0-0.3-0.1-0.4C67.5,15.9,67.5,16,67.4,16.2z"/>
<path class="st0" d="M70.5,16.4c0,0,0,0.1,0,0.1c0,0,0,0.1,0.1,0.2c0,0,0,0,0,0.1c0,0,0.1,0.1,0.1,0.1c0,0,0,0,0.1-0.1
	c0,0,0.1-0.1,0.1-0.2l0-0.2C70.7,16.3,70.6,16.3,70.5,16.4C70.5,16.4,70.5,16.4,70.5,16.4z"/>
<path class="st0" d="M68.1,16.5c0,0.2,0.1,0.4,0.2,0.3c0-0.1,0.1-0.2,0-0.3c0,0,0,0,0,0c0-0.2-0.1-0.3-0.1-0.2
	C68.2,16.3,68.1,16.4,68.1,16.5z"/>
<path class="st0" d="M75.6,16.6c-0.2,0-0.2,0-0.2,0l-0.1,0c0,0,0,0.1,0,0.1h0.4c-0.1,0,0.1,0,0.5,0c0.1,0,0.1,0,0.2-0.1
	c-0.1,0-0.4,0-0.6,0L75.6,16.6z"/>
<path class="st0" d="M70,16.8c0,0,0.1-0.2,0.1-0.3c-0.1,0-0.1-0.1-0.2-0.1C70,16.4,70,16.7,70,16.8z"/>
<path class="st0" d="M76.8,16.5c-0.1,0-0.2,0.1-0.2,0.2c0.1,0,0.1,0,0.2-0.1V16.5z"/>
<path class="st0" d="M73.5,16.2L73.5,16.2l-0.1,0.4c0,0,0.1,0.1,0.2,0.1c0-0.1,0.1-0.3,0.1-0.4c0-0.1,0-0.2-0.1-0.2L73.5,16.2z"/>
<path class="st0" d="M72.1,16.5c-0.1,0-0.1,0-0.1,0.1c0.1,0,0.1,0,0.1,0c0.1,0,0.1,0,0.1-0.1C72.3,16.5,72.2,16.5,72.1,16.5z"/>
<path class="st0" d="M79.3,16.7c0-0.1,0-0.1-0.1-0.1C79.2,16.6,79.2,16.6,79.3,16.7z"/>
<path class="st0" d="M82.7,16.5C82.6,16.5,82.6,16.5,82.7,16.5c-0.1,0.1,0,0.1,0,0.2c0.1,0,0.1,0,0.2-0.1
	C82.7,16.5,82.7,16.5,82.7,16.5z"/>
<path class="st0" d="M78.3,16.5C78.3,16.5,78.3,16.6,78.3,16.5c0.2,0.1,0.2,0,0.2,0.1l0.1-0.3c-0.1-0.1-0.1-0.1-0.3-0.1
	C78.3,16.4,78.3,16.5,78.3,16.5z"/>
<path class="st0" d="M73,16.6h0.2c0,0,0-0.1,0-0.1C73.1,16.5,73,16.5,73,16.6z"/>
<path class="st0" d="M77.4,16.4L77.4,16.4L77.4,16.4c-0.1,0-0.2,0.1-0.2,0.1c0,0.1,0.1,0.1,0.1,0.1c0,0,0.1,0,0.1-0.1h0.1
	c0,0,0.1,0,0.1-0.1l0.1-0.1C77.6,16.3,77.6,16.3,77.4,16.4L77.4,16.4z"/>
<path class="st0" d="M84.7,16.4v0.1c0,0,0.1,0.1,0.2,0.1c0,0,0-0.1,0-0.1c0,0,0-0.1,0-0.1C84.8,16.4,84.8,16.4,84.7,16.4z"/>
<path class="st0" d="M71.4,16.4c0,0.1,0.1,0.1,0.1,0.1c0,0,0-0.1,0.1-0.1c0.1,0,0.1,0,0.1-0.1c0-0.1-0.1-0.1-0.3-0.1
	C71.4,16.3,71.4,16.4,71.4,16.4z"/>
<path class="st0" d="M79.9,16.3L79.9,16.3l-0.1,0c0,0-0.1,0-0.2,0c0,0-0.1,0-0.1,0.1l0.2,0.1c0.1,0,0.1,0,0.1,0
	c0.1,0,0.2-0.1,0.2-0.2L79.9,16.3z"/>
<path class="st0" d="M69.6,16.3L69.6,16.3l0,0.1c0.1,0,0.2,0,0.3-0.1c0,0,0-0.1,0-0.1C69.7,16.2,69.7,16.2,69.6,16.3z"/>
<path class="st0" d="M75.1,16.1L75,16.3l0.1,0.1l0.2-0.1c0-0.1,0-0.1,0-0.1H75.1z"/>
<path class="st0" d="M75.9,16.1c-0.1,0-0.1,0.1,0,0.2l0.5-0.1l0-0.1c0,0,0,0-0.1-0.1c-0.1-0.1-0.2-0.2-0.3-0.2
	C76,15.8,76,15.9,75.9,16.1z"/>
<path class="st0" d="M76.9,16.1c0,0,0,0.1,0,0.1c0,0,0.1,0,0.1,0c0,0,0.1-0.1,0.1-0.1c0-0.2-0.1-0.2-0.2-0.2
	C76.9,15.9,76.9,16,76.9,16.1z"/>
<path class="st0" d="M71.2,15.9c-0.1,0-0.1,0.1-0.3,0.2v0.1c0.1,0,0.2,0.1,0.1,0.1c0,0,0,0,0.1,0c0-0.1,0-0.2,0-0.2L71.2,15.9z"/>
<path class="st0" d="M68.9,15.9c0,0.1-0.1,0.1-0.1,0.2H69c0.1-0.1,0-0.2,0.3-0.2c0-0.3,0.1-0.4,0.1-0.3c0-0.1-0.1-0.1-0.2-0.1
	c-0.1,0-0.2,0-0.2,0.1C68.9,15.6,68.9,15.7,68.9,15.9z"/>
<path class="st0" d="M83.1,15.9v0.2c0.1,0,0.2,0,0.3,0c0.1,0,0.1-0.1,0.1-0.3C83.4,15.8,83.3,15.8,83.1,15.9z"/>
<path class="st0" d="M81.8,16c0,0,0,0.1,0.1,0.1c0,0,0,0,0-0.1C81.9,15.9,81.9,15.9,81.8,16C81.8,15.9,81.8,16,81.8,16z"/>
<path class="st0" d="M80.4,16.1L80.4,16.1c0.1,0.1,0.1,0,0.1,0H80.4z"/>
<path class="st0" d="M82.3,16c0,0,0,0.1,0,0.1c0.1,0,0.1,0,0.2-0.1l0.1-0.1c0,0-0.1-0.1-0.2,0C82.3,15.9,82.3,15.9,82.3,16z"/>
<path class="st0" d="M84.4,15.4c0,0-0.1-0.1-0.1-0.1c0,0-0.1,0-0.1,0.1c0,0.1,0.1,0.2,0.1,0.3c0,0.1-0.1,0.2-0.2,0.3
	c0,0,0.1,0.1,0.2,0.1c0.1,0,0.1-0.1,0.1-0.3L84.4,15.4z"/>
<path class="st0" d="M81.3,15.9c0,0-0.1,0.1-0.1,0.2c0.1,0,0.2,0,0.3,0L81.3,15.9z"/>
<path class="st0" d="M78.9,15.7c-0.1,0-0.1,0.1-0.2,0.2l0.1,0.2C78.8,16,79,15.9,78.9,15.7C78.9,15.7,78.9,15.7,78.9,15.7z"/>
<path class="st0" d="M84.6,15.6L84.6,15.6c0,0.2,0.1,0.3,0.2,0.4c0.1-0.1,0.1-0.2,0.2-0.4C84.8,15.6,84.7,15.6,84.6,15.6
	C84.6,15.6,84.6,15.6,84.6,15.6z"/>
<path class="st0" d="M77.9,15.8L77.9,15.8c-0.2,0.1-0.2,0.1-0.1,0.1c0,0,0-0.1,0.1,0c0,0,0,0,0,0c0.1,0,0.2,0,0.3,0
	c0,0,0.1,0,0.1-0.1c0,0-0.1,0-0.3-0.1H77.9z"/>
<path class="st0" d="M72.1,15.3c0,0,0.1,0,0.2,0.1c0,0,0,0,0,0.1c0,0.1-0.1,0.2-0.1,0.3c0,0.1,0.1,0.1,0.1,0.2c0,0,0.1-0.1,0.3-0.1
	c0.1,0,0.1-0.1,0.2-0.2c0,0-0.1,0-0.1-0.1c0,0-0.1,0-0.2,0.1c-0.1,0-0.2-0.1-0.1-0.2c0,0,0,0,0.2-0.1c0.1,0,0.1,0,0.2,0
	c0,0-0.1,0-0.1-0.1C72.5,15.2,72.4,15.2,72.1,15.3L72.1,15.3z"/>
<path class="st0" d="M79.4,15.8l0.2,0.1c0,0,0,0-0.1-0.2C79.5,15.7,79.5,15.7,79.4,15.8z"/>
<path class="st0" d="M80,15.9C80,15.8,79.9,15.8,80,15.9c-0.1-0.1-0.1,0-0.1,0C79.9,15.9,80,15.9,80,15.9z"/>
<path class="st0" d="M75,15.6c0,0.1,0,0.1,0.1,0.2c0.1,0,0.2,0,0.2-0.2H75z"/>
<path class="st0" d="M73.2,15.7c0,0-0.1,0-0.1,0.1c0,0,0,0,0.1,0C73.3,15.8,73.3,15.8,73.2,15.7C73.2,15.7,73.2,15.7,73.2,15.7z"/>
<path class="st0" d="M83.7,15.6v0.1c0,0,0.1,0,0.1,0c0-0.1,0.1-0.1,0-0.2C83.8,15.6,83.8,15.6,83.7,15.6z"/>
<path class="st0" d="M70.3,15.3c0,0.1-0.1,0.1-0.1,0.1c0.1,0,0.1,0.1,0.1,0c0.1,0,0.1,0.1,0.2,0.1l0.2-0.1c0,0,0.2,0.3,0.3,0.3
	c0.1,0,0.1,0,0.1-0.1h-0.1c0,0-0.1,0-0.1,0v-0.1c0.1-0.1,0-0.1-0.5-0.1H70.3z"/>
<path class="st0" d="M74.6,15.6c0.1,0,0.1,0,0.1-0.1c0-0.1-0.1-0.1-0.2-0.1C74.6,15.4,74.6,15.5,74.6,15.6z"/>
<path class="st0" d="M76.6,15.1c0,0.1,0,0.3,0.1,0.4v0.1c0,0,0,0,0,0c0.1-0.1,0.1-0.2,0.1-0.4c0-0.2-0.1-0.3-0.2-0.3
	C76.6,14.9,76.6,15,76.6,15.1z"/>
<path class="st0" d="M80.6,15.4C80.6,15.4,80.6,15.4,80.6,15.4c0.1,0.1,0.1,0.2,0.1,0.2l0.1-0.1c0-0.1-0.1-0.3-0.2-0.3
	c0,0-0.1,0-0.1,0.1C80.5,15.3,80.6,15.3,80.6,15.4z"/>
<path class="st0" d="M81.4,15.5v0.1c0,0,0.1,0,0.1,0c0,0,0.1,0,0.1,0c0.1,0,0.2,0,0.3,0c0-0.1,0.1-0.1,0.1-0.2
	C81.7,15.4,81.5,15.4,81.4,15.5z"/>
<path class="st0" d="M82.4,15.6c0,0,0.1,0,0.1-0.1C82.5,15.5,82.5,15.5,82.4,15.6z"/>
<path class="st0" d="M73.7,15.2c-0.1,0.1-0.1,0.2-0.1,0.3c0.1,0,0.1,0.1,0.2,0.1c0,0,0.1-0.1,0.1-0.1c0,0,0.1,0,0.1,0.1
	c0,0,0.1,0,0.1,0c0,0,0-0.1,0-0.2c-0.2-0.1-0.3-0.2-0.3-0.2C73.8,15.2,73.7,15.2,73.7,15.2z"/>
<path class="st0" d="M82.6,15.5c0,0,0.1,0,0.1,0c0,0,0-0.1,0-0.1C82.7,15.5,82.6,15.5,82.6,15.5z"/>
<path class="st0" d="M78.8,15.4c0,0,0.1,0.2,0.2,0.2c0,0,0.1-0.1,0.1-0.2c0,0-0.1-0.1-0.1-0.1c0,0-0.1,0-0.1,0V15.4z"/>
<path class="st0" d="M67.9,15.2C67.9,15.3,67.9,15.3,67.9,15.2l0,0.1l0.1,0.1c0,0,0.1,0,0.2,0c0.1-0.1,0.2-0.1,0.3-0.3
	c0,0-0.1,0-0.3-0.1c-0.1,0-0.1,0-0.2,0C67.9,15.1,67.9,15.2,67.9,15.2z"/>
<path class="st0" d="M79.5,15.4c0,0,0,0.1,0,0.1C79.5,15.4,79.5,15.4,79.5,15.4C79.5,15.3,79.5,15.3,79.5,15.4z"/>
<path class="st0" d="M77.1,15.4L77.1,15.4c0.2,0.1,0.3,0,0.3,0C77.4,15.3,77.3,15.3,77.1,15.4C77.1,15.4,77.1,15.4,77.1,15.4z"/>
<path class="st0" d="M67.5,15.2c0,0.1,0,0.2,0.1,0.3c0.1-0.1,0.1-0.2,0.1-0.3C67.6,15.1,67.6,15.1,67.5,15.2z"/>
<path class="st0" d="M77.9,15.3c-0.1,0-0.1,0-0.2,0.1H78v0h0.1c0,0,0,0,0.1,0C78.1,15.3,78,15.3,77.9,15.3z"/>
<path class="st0" d="M80.2,15.3c0,0-0.1-0.1-0.1-0.1L80,15.3c0,0,0.1,0.1,0.1,0.1L80.2,15.3z"/>
<path class="st0" d="M73.2,15.3c0.1,0,0.1,0,0.1-0.1C73.2,15.2,73.2,15.2,73.2,15.3z"/>
<path class="st0" d="M69.7,15c0,0.1,0,0.2,0.1,0.3c0.1,0,0.1-0.1,0.1-0.3H69.7z"/>
<path class="st0" d="M75.7,14.2c0.1,0,0.1,0,0.2,0c0.1,0,0.1-0.1,0.1-0.2C75.7,14,75.7,14.1,75.7,14.2z"/>
<path class="st0" d="M76.2,14v0.1c0.1,0.1,0.2,0.1,0.3,0c0.1,0,0.2-0.1,0.2-0.2C76.6,13.9,76.4,14,76.2,14z"/>
<path class="st0" d="M74.9,13.8c0,0.1,0,0.1,0.1,0.2c0,0,0.1-0.1,0.1-0.2c0-0.1,0-0.1-0.1-0.2L74.9,13.8z"/>
<path class="st0" d="M76.1,13.5c-0.1,0-0.1,0.1-0.1,0.1l0.1,0.2V13.5z"/>
<path class="st0" d="M75.2,13.4l0.3,0.3c0.1-0.1,0.1-0.2,0.1-0.3c0,0,0-0.1-0.1-0.2c0,0,0,0-0.1,0C75,13.2,75.2,13.3,75.2,13.4z"/>
<path class="st0" d="M76.7,12.8c0-0.1,0-0.2,0-0.3C76.7,12.7,76.7,12.8,76.7,12.8z"/>
<path class="st0" d="M84,12.6c0,0,0-0.1,0-0.2c0-0.1,0-0.2-0.1-0.1C84,12.4,84,12.5,84,12.6z"/>
<path class="st0" d="M84.6,12.6h0.1c0-0.1,0.1-0.2,0.1-0.2c0-0.1-0.1-0.1-0.2-0.1C84.6,12.3,84.6,12.4,84.6,12.6z"/>
<path class="st0" d="M77.1,12.4C77.1,12.4,77.1,12.5,77.1,12.4c0,0.1,0.1,0.1,0.2,0.1C77.3,12.5,77.3,12.4,77.1,12.4
	C77.2,12.4,77.1,12.4,77.1,12.4z"/>
<path class="st0" d="M78.7,12.5c0.1,0,0.1,0,0.1,0c0.1,0,0.2,0,0.3-0.1C78.9,12.4,78.8,12.4,78.7,12.5z"/>
<path class="st0" d="M83.4,12c0,0.1,0,0.2,0,0.3v0.1l0.2,0.1c0.1-0.2,0.1-0.3,0.1-0.3C83.7,12.1,83.6,12,83.4,12
	C83.5,12,83.5,12,83.4,12z"/>
<path class="st0" d="M79.8,12.3L79.8,12.3c0.1,0.1,0.1,0.1,0.2,0.1c0.1,0,0.1,0,0.1-0.1C80,12.4,80,12.3,79.8,12.3
	C79.9,12.3,79.9,12.3,79.8,12.3z"/>
<path class="st0" d="M82.2,12.3c0,0-0.1,0-0.2,0.1L82.2,12.3L82.2,12.3z"/>
<path class="st0" d="M70,12.1c-0.1,0-0.1,0-0.2,0.1c0,0,0.1,0,0.2,0c0.1,0,0.1,0,0.1-0.1C70.1,12.1,70,12.1,70,12.1z"/>
<path class="st0" d="M68,12c0,0-0.1,0-0.1,0.1c0,0,0.1,0,0.1,0L68,12L68,12z"/>
<path class="st0" d="M71.8,12.1c0-0.1-0.1-0.1-0.1-0.1c0,0-0.1,0.1-0.1,0.1H71.8z"/>
<path class="st0" d="M74,11.8c-0.1,0-0.1,0.1-0.1,0.2c0.1,0.1,0.2,0.1,0.2,0.1c0.1,0,0.1,0,0.1-0.1C74.2,11.9,74.1,11.8,74,11.8z"/>
<path class="st0" d="M72.7,12C72.7,12,72.7,12.1,72.7,12c0.1,0.1,0.2,0,0.3,0c-0.1-0.1-0.2-0.1-0.3-0.1C72.7,11.9,72.7,12,72.7,12z"
	/>
<path class="st0" d="M69.3,12c0.1,0.1,0.1,0.1,0.2,0c0.1-0.1,0.1-0.1,0.1-0.2c0,0-0.1-0.1-0.2-0.1c0,0-0.1,0-0.1,0
	C69.3,11.8,69.3,11.9,69.3,12z"/>
<path class="st0" d="M77.3,11.8c-0.1,0-0.1,0.1-0.1,0.2c0.2,0,0.3,0,0.2-0.1C77.5,11.8,77.4,11.8,77.3,11.8z"/>
<path class="st0" d="M77.8,11.9c0,0.1,0,0.1,0.1,0.1c0.1,0,0.1,0,0.1-0.1H77.8z"/>
<path class="st0" d="M78.3,11.4h-0.2l0.1,0.3c0,0-0.1,0.1-0.1,0.2c0.1,0,0.2,0.1,0.3,0.1c0,0,0.1-0.1,0.1-0.2
	c-0.1,0-0.1-0.1-0.2-0.2L78.3,11.4z"/>
<path class="st0" d="M85.1,11.6c-0.1,0-0.1,0.1-0.1,0.1c0,0,0.1,0.2,0.1,0.2V11.6z"/>
<path class="st0" d="M67.5,11.5l0.1,0.4l0.2-0.1c0-0.1-0.1-0.3-0.1-0.4c0,0,0-0.1,0-0.1C67.5,11.3,67.5,11.4,67.5,11.5z"/>
<path class="st0" d="M74.9,11.4v0.1c0,0-0.1,0.1-0.1,0.2c0,0-0.1,0-0.1,0c0,0,0.1,0,0.1,0.1h0.1c-0.1,0,0-0.1,0.2-0.1
	c0-0.1,0-0.2,0-0.3H74.9z"/>
<path class="st0" d="M79.6,11.7c0,0,0,0.1,0.1,0.1c0,0,0.1,0,0.1,0c0,0,0.1,0,0.1,0c0,0,0-0.1,0-0.1C79.8,11.7,79.7,11.7,79.6,11.7z
	"/>
<path class="st0" d="M68.4,11.4c0,0.1,0,0.2,0,0.4c0.2,0,0.5-0.1,0.4-0.4H68.4z"/>
<path class="st0" d="M74.6,11.7c0,0,0.1,0,0.1-0.1c0,0,0-0.1-0.1-0.1C74.6,11.6,74.6,11.6,74.6,11.7z"/>
<path class="st0" d="M80.9,11.6c0.1,0.1,0.1,0.1,0.2,0c0,0,0-0.1,0-0.2C81,11.5,80.9,11.5,80.9,11.6z"/>
<path class="st0" d="M71.7,10.8c0,0.1,0,0.1,0,0.2c0,0.1,0,0.1,0,0.2c0.1,0,0.2,0.1,0.2,0.2c0,0,0.1-0.1,0.2-0.1
	c0,0.1,0.1,0.2,0.1,0.2c0.1,0,0.1,0,0.2-0.1c0-0.1,0-0.1-0.1-0.2c0,0-0.1,0-0.1,0c-0.1,0-0.1,0-0.1,0c-0.1,0-0.1,0.1-0.2,0
	c0,0,0-0.1-0.1-0.2c0,0,0-0.1,0-0.2H71.7z"/>
<path class="st0" d="M69.7,11.4c0,0.1,0,0.1,0.1,0.2c0.1,0,0.2,0,0.3,0c0-0.1-0.1-0.3-0.2-0.5C69.7,11.2,69.7,11.3,69.7,11.4z"/>
<path class="st0" d="M73.4,11.3c0,0-0.1,0-0.2,0c0,0.1,0,0.2,0,0.3c0,0,0.1,0,0.2,0V11.3z"/>
<path class="st0" d="M77.4,11.4l0.1,0.1c0,0,0.1,0,0.1,0c0-0.2-0.1-0.2-0.2-0.2L77.4,11.4z"/>
<path class="st0" d="M75.2,10.9v0.2c0,0.1,0,0.1,0,0.2c0.1-0.3,0.1-0.5,0.1-0.5C75.3,10.7,75.3,10.8,75.2,10.9z"/>
<path class="st0" d="M77.4,10.9c0,0,0,0.1,0,0.1c0,0,0,0.1,0.1,0.1c0-0.1,0.1-0.2,0.1-0.3c0,0,0,0,0,0
	C77.6,10.8,77.5,10.8,77.4,10.9z"/>
<path class="st0" d="M80.4,11.2c0-0.1,0-0.1-0.1-0.2c0,0-0.1,0-0.1,0C80.3,11,80.4,11.1,80.4,11.2z"/>
<path class="st0" d="M81.1,11.1c0,0,0.1,0.1,0.1,0.1c0.1,0,0.2,0,0.3-0.1c-0.2,0-0.3,0-0.3-0.1L81.1,11.1z"/>
<path class="st0" d="M82,11c0.1,0,0.2,0.1,0.3,0.1c0.1-0.1,0.1-0.4,0.1-0.3c0,0-0.1-0.1-0.3-0.1c0-0.1,0-0.1-0.1-0.2
	C82,10.6,82,10.8,82,11z"/>
<path class="st0" d="M83.1,10.9l0.1,0.2c0.1,0,0.2,0,0.4,0c0,0,0.1,0.1,0.1,0c0,0,0.2,0,0.2-0.1c-0.1,0-0.2,0-0.3,0
	c0-0.1,0-0.1-0.1-0.2C83.5,10.7,83.3,10.7,83.1,10.9z"/>
<path class="st0" d="M82.7,11c0.1,0,0.1,0,0.2-0.1C82.8,11,82.8,11,82.7,11z"/>
<path class="st0" d="M85.1,10.9c0,0-0.1,0-0.1,0.1c0,0,0.1,0,0.1,0.1V10.9z"/>
<path class="st0" d="M84.3,10.9c-0.1,0-0.2,0-0.2,0.1c0.5,0,0.7,0,0.7-0.1c0,0-0.1-0.1-0.1-0.1L84.3,10.9z"/>
<path class="st0" d="M77,10.4l-0.1,0.1l-0.2,0.1c0,0-0.1,0-0.1-0.1c0,0.1,0,0.2,0,0.3c0,0,0,0.1,0,0.1c0,0,0,0,0.1,0
	c0-0.1,0-0.2,0-0.2c0.1,0,0.2,0,0.3,0V10.4z"/>
<path class="st0" d="M78.5,10C78.4,10,78.4,10,78.5,10c-0.1,0.2,0,0.3-0.1,0.5c0,0.1-0.2,0.1-0.2,0.2c0,0.1,0,0.2,0.1,0.2
	c0-0.1,0.1-0.2,0.2-0.4c0.1,0,0.1,0,0.1,0c0,0-0.1-0.1-0.1-0.2C78.5,10.3,78.5,10.2,78.5,10C78.5,10,78.5,10,78.5,10z"/>
<path class="st0" d="M80,10.8c0.1,0,0.2,0.1,0.2,0.1c0,0,0.1-0.1,0.1-0.2v-0.1c0,0-0.1,0-0.1-0.1C80,10.4,79.9,10.6,80,10.8z"/>
<path class="st0" d="M78.8,10.6c0,0.1,0.1,0.1,0.1,0.2c0.1,0,0.2-0.1,0.2-0.2c0,0-0.2-0.2-0.3-0.1C78.8,10.5,78.8,10.5,78.8,10.6z"
	/>
<path class="st0" d="M80.8,10.3c0,0-0.2,0-0.3,0.3c0.2,0.1,0.3,0.1,0.4,0.1c0.1,0,0.1,0,0.1,0h0.1c0,0,0.1-0.1,0.1-0.1l-0.1-0.1
	L81,10.3L80.8,10.3L80.8,10.3z"/>
<path class="st0" d="M68.1,9.8c-0.1,0-0.1,0-0.2,0c0,0.2,0.1,0.3,0.1,0.4h0.2v-0.1c0.1,0,0.1,0,0.2,0c0.1,0,0.2,0.2,0.1,0.5
	c0.1,0,0.2,0,0.3,0c0.1,0.1,0.2,0.1,0.2,0.1c0,0,0-0.2,0-0.4c-0.2,0-0.2-0.1-0.5-0.3c0,0-0.1,0-0.2,0L68.1,9.8z"/>
<path class="st0" d="M69.8,9.9L69.8,9.9c-0.2,0-0.2,0-0.3,0.1c0.1,0,0.1,0,0.1,0.1c0.1,0,0.1,0,0.2,0c0,0.1,0.1,0.2,0.1,0.4h0.2
	c0.1-0.2,0.1-0.3,0-0.3v-0.1L69.8,9.9z"/>
<path class="st0" d="M70.6,10.3c-0.1,0.1-0.1,0.2-0.1,0.4c0.1,0,0.2,0,0.4-0.1c0-0.3,0-0.4,0-0.2c-0.1,0-0.2-0.1-0.2-0.2
	c0,0,0-0.1,0-0.1C70.6,10.1,70.6,10.2,70.6,10.3z"/>
<path class="st0" d="M81.5,10.6C81.5,10.6,81.5,10.6,81.5,10.6c-0.1-0.1-0.2-0.1-0.2-0.1C81.3,10.6,81.4,10.6,81.5,10.6z"/>
<path class="st0" d="M72.5,10.2c-0.1,0-0.2,0-0.5,0l0,0.3c0.1,0,0.2,0,0.4-0.2h0.1V10.2z"/>
<path class="st0" d="M73.1,10.3c0.1,0,0.3,0.2,0.4,0.3c0-0.1,0-0.2,0-0.2c0,0.1-0.1,0.1-0.1,0c-0.1,0-0.1-0.1-0.1-0.2
	C73.2,10.1,73.2,10.2,73.1,10.3z"/>
<path class="st0" d="M74.8,10.2c0,0.2-0.1,0.3-0.1,0.3c0,0,0,0,0.1,0c0.2,0,0.3-0.1,0.3-0.4C75,10.1,74.8,10.1,74.8,10.2z"/>
<path class="st0" d="M75.5,10.4c0,0.1,0.1,0.1,0.1,0.1c0.1-0.1,0.1-0.1,0.1-0.2c0-0.1-0.1-0.1-0.1-0.1
	C75.5,10.3,75.5,10.3,75.5,10.4z"/>
<path class="st0" d="M73.9,10.2c0,0-0.1,0-0.2,0v0.1c0,0,0.1,0.1,0.2,0.1V10.2z"/>
<path class="st0" d="M82.4,10.1c-0.1,0-0.2,0-0.2,0.1c0.2,0,0.4,0,0.4-0.1C82.6,10.2,82.5,10.1,82.4,10.1z"/>
<path class="st0" d="M76.9,10.2l0.1,0.1c0,0,0.1,0,0.2-0.1c0,0,0.1,0,0.1-0.1l-0.1,0c-0.1,0-0.1,0-0.2,0
	C76.9,10.2,76.9,10.3,76.9,10.2z"/>
<path class="st0" d="M83.4,10.2c0,0,0.1,0.1,0.1,0.1c0,0,0.1,0,0.1-0.1C83.5,10.1,83.4,10.2,83.4,10.2z"/>
<path class="st0" d="M83.7,10.3c0.1,0,0.1,0,0.1-0.1C83.8,10.2,83.7,10.2,83.7,10.3z"/>
<path class="st0" d="M82.9,10.3c0.1,0,0.2,0,0.2-0.1C82.9,10.2,82.9,10.2,82.9,10.3z"/>
<path class="st0" d="M73.8,10C73.8,10,73.8,10,73.8,10c0.1,0,0.1,0,0.1-0.1C73.9,9.9,73.8,9.9,73.8,10z"/>
<path class="st0" d="M67.3,9.8c0,0,0.1,0,0.1,0c0.1,0,0.1,0,0.1-0.1C67.4,9.8,67.4,9.8,67.3,9.8z"/>
<path class="st0" d="M69.1,9.7c-0.1,0-0.1,0-0.1,0.1c0.1,0,0.1,0,0.1,0c0.1,0,0.1,0,0.1-0.1C69.2,9.7,69.2,9.7,69.1,9.7z"/>
<path class="st0" d="M85.4,0.2c0.1,0.1,0.1,0.5,0.1,1.1c0,0.2,0.1,0.8,0.1,1.1l-0.1,0.5c0,0,0,0.1,0,0.2v0.2c0,0,0,0,0,0.3
	c0,0.1,0,0.3,0,0.5c0,0,0,0.1,0.1,0.2c0,0.1-0.1,0.3-0.1,0.4v0.2c0,0.1,0,0.2,0.1,0.4c0,0,0,0.1,0,0.2v0.9c0,0,0,0.1-0.1,0.2
	c0,0.1,0,0.2,0,0.4c0,0-0.1,0.1-0.1,0.3c-0.1,0-0.1,0.1-0.3,0.1h-0.1l0,0c0,0-0.1,0-0.2,0c-0.2,0-0.3,0-0.3,0h-0.2
	c-0.3,0-0.6,0-1.1,0c0,0-0.1,0-0.2,0h-0.1c-0.1,0-0.1,0-0.1,0c-0.2-0.1-0.4-0.1-0.5-0.1h-0.2c-0.1,0-0.2,0-0.2,0c-0.3,0-0.6,0-0.8,0
	c-0.4,0-0.6,0-0.6,0c-0.1,0-0.2,0-0.1,0c-0.1,0-0.6,0.1-0.8,0.1c-0.1,0-0.3-0.1-0.5-0.1c0.1,0,0,0-0.3,0c0,0-0.1,0-0.3,0l-0.3,0.1
	h-0.2c-0.1,0-0.2,0-0.2,0h-0.2c-0.1,0-0.2,0-0.2,0c-1,0-1.9,0-2.6,0c-0.8,0-1.3,0-1.3,0l-0.8,0c0,0-0.1,0-0.1,0h-0.1
	c0.1,0,0,0-0.2,0h-3c-0.1,0-0.4,0-1,0.1c-0.2,0-0.6,0-1.3-0.1c0-0.1-0.1-0.1-0.1-0.2c0-0.1,0-0.1,0-0.2c-0.1,0-0.2-0.1-0.3-0.2
	L67,6.3c0-0.2-0.1-0.5,0-0.7V5.4c0,0,0-0.1,0-0.1V5.2c0,0,0-0.1,0-0.1c0-0.3,0-0.5,0-0.5c0-0.6,0-0.9,0-0.8c0-0.2,0-0.2,0-0.2
	c0,0,0,0,0,0c0,0,0-0.1,0-0.1l0-0.6c0,0,0-0.1,0-0.1c0-0.2,0-0.2,0-0.2V2.2C66.9,2,67,1.8,67,1.7c0.1,0,0.2-0.1,0.2-0.2
	c-0.1,0-0.2,0-0.3,0c0-0.1-0.1-0.1-0.1-0.2c-0.1-0.2,0.1-0.2,0.2-0.3c-0.1,0-0.2-0.1-0.2-0.3c0-0.2,0.1-0.3,0.3-0.4
	c0.1,0,0.5-0.1,0.6-0.1c0,0,0.1,0.1,0.1,0.3l0.2-0.1l0.1-0.1h0.1c0,0,0.1-0.1,0.1,0c0.1,0,0.2,0.1,0.2,0.3v0.4c0,0,0,0.1,0,0.3
	c0,0.1,0,0.2,0,0.3c0,0.1,0.1,0.3,0.1,0.6v0.3v0.1v0.1v0.2v0.2v0.1v0.1c0,0.1,0.1,0.1,0.1,0.2h0.1c0,0,0,0,0,0H69
	c0.2,0,0.4,0,0.8,0.1c0,0,0,0,0.1,0c-0.1,0-0.1,0,0.2,0c0.3,0,0.7,0,1.2,0l0.1,0c0,0,0.1,0,0.1,0c0.1,0,0.2,0,0.4,0.1
	c0,0,0.1,0,0.2,0h0.2c0.3,0,0.5,0,0.7,0c0.1,0,0.2,0,0.4-0.1c0.2,0,0.4,0,0.8,0l0.3-0.1V3.6c0-0.3,0-0.6,0-0.8c0-0.5,0-0.8,0.1-0.7
	V2c-0.1,0-0.1-0.1-0.1-0.2c0-0.1,0.1-0.2,0.1-0.2c0-0.1,0-0.3,0.1-0.4c0.1-0.1,0.4-0.2,0.4-0.2c0.1,0,0.2,0,0.3,0
	c0.5-0.1,0.8,0,0.9,0.1c0,0,0,0,0,0c0.1,0,0.2,0.2,0.2,0.5v0.1c0,0,0,0.4,0.1,1.2c0,0,0,0.1,0,0.1V3c0,0,0,0.1,0,0.1
	c0,0.1,0,0.7,0.3,0.8l0,0h0.2c0,0,0,0,0,0c-0.1,0,0.1,0,0.5-0.1c0,0,0.1,0,0.2,0L77.9,4c-0.1,0,0,0,0.3,0c0,0,0.1,0,0.2,0
	c0.1,0,0.2-0.1,0.4-0.1H79c0,0,0,0,0.1,0h0.2c0.1,0,0.1,0,0.1,0L80,4H80l0,0c-0.2,0,0.4-0.1,0.7-0.1c0.6,0,0.9-0.1,0.8-0.1L81.9,4
	c0,0,0.2,0,0.7-0.1c0,0,0,0,0,0h0.1l0,0h0.1c0,0,0.1,0,0.1,0h0.2c0,0,0.1,0,0.1,0c0,0,0,0,0.1,0c0.1,0,0.2,0.1,0.2,0.2
	c0,0,0.1,0,0.1,0c0,0,0-0.1,0-0.1c0,0-0.1,0-0.2-0.1c0,0,0,0,0-0.1V2.9c0-0.2,0-0.6,0.1-1c0-0.1,0-0.1,0.1-0.1
	c0-0.1-0.1-0.2-0.1-0.3c0,0,0-0.1,0.1-0.4c0-0.1,0-0.3,0-0.6c0,0,0,0,0-0.1l0.1-0.1V0.3c0.1,0,0.1,0,0.1-0.1h0.1v0H84
	c0,0,0.2,0,0.6-0.1C84.8,0,85.1,0.1,85.4,0.2z"/>
<path class="st0" d="M67.8,6.8c0.1,0,0.2,0,0.2,0C67.9,6.7,67.8,6.7,67.8,6.8z"/>
<path class="st0" d="M78.9,6.7c0.2,0,0.3,0,0.3,0C79,6.7,78.9,6.7,78.9,6.7z"/>
<path class="st0" d="M73.8,6.5c-0.1,0-0.2,0-0.3,0l-0.1,0.1c0.1,0,0.2,0,0.4,0c0.2,0,0.3,0,0.4,0c0,0-0.1,0-0.1-0.1H73.8z"/>
<path class="st0" d="M68.6,6c0,0,0.2,0.1,0.2,0.2l0,0.1c-0.1,0-0.1,0.1-0.2,0.2c0,0,0.1,0.1,0.1,0.1c0.1,0,0.1-0.2,0.5-0.3
	c0-0.1-0.1-0.2-0.1-0.2h-0.3c0-0.2-0.1-0.2-0.1-0.2L68.6,6z"/>
<path class="st0" d="M72.9,6.6c0.1,0,0.1,0,0.1-0.1C73,6.5,72.9,6.6,72.9,6.6z"/>
<path class="st0" d="M72,6.5c-0.1,0-0.1,0-0.1,0.1c0.1,0,0.2,0,0.3,0C72.1,6.5,72.1,6.5,72,6.5z"/>
<path class="st0" d="M79.7,6.4l-0.1,0.1L80,6.5c0,0,0.1,0,0.2-0.1l-0.1-0.1h0c0,0,0,0,0,0C79.8,6.4,79.8,6.4,79.7,6.4z"/>
<path class="st0" d="M82.2,6.5C82.2,6.5,82.2,6.5,82.2,6.5c0.1,0.1,0.2,0.1,0.3,0.1c0-0.1,0-0.1-0.1-0.1H82.2z"/>
<path class="st0" d="M84,6.5c0.1,0,0.1,0,0.2,0c0.1,0,0.1,0,0.2,0c0,0,0-0.1,0-0.1C84.2,6.4,84,6.4,84,6.5z"/>
<path class="st0" d="M84.8,5.7l0.1,0.1c0,0.1-0.1,0.1,0,0.2h-0.1C84.8,5.9,84.8,5.8,84.8,5.7l-0.5,0.2c0,0,0,0.1-0.1,0.2h0.3
	c0,0.2,0.1,0.3,0.2,0.5l0.1-0.4c0.1,0,0.2-0.2,0.1-0.5c0-0.1,0-0.2-0.1-0.2C85,5.6,84.9,5.6,84.8,5.7z"/>
<path class="st0" d="M78.3,6.4c0,0,0.2,0.1,0.2,0.1c0.1,0,0.1,0,0.1,0c0-0.1-0.2-0.1-0.2-0.2C78.4,6.2,78.3,6.3,78.3,6.4z"/>
<path class="st0" d="M74.4,5.8L74.4,5.8C74.2,5.8,74,6,74,6l0,0v0c0.1,0,0.3,0,0.6,0c0,0.1,0,0.2,0.1,0.3c0,0,0.1,0,0.2,0
	c0.1-0.1,0-0.2,0.2-0.4h-0.4L74.4,5.8z"/>
<path class="st0" d="M75.3,6.3C75.3,6.3,75.3,6.3,75.3,6.3l0.2,0.2h0.2h0.1h0.1c0,0,0.2,0,0.4-0.1c-0.1,0-0.1,0-0.2,0
	c-0.1,0-0.2,0-0.2,0l-0.1-0.2c-0.1,0-0.1,0-0.1-0.1L75.3,6.3z"/>
<path class="st0" d="M70.2,6.4c0.1,0,0.2,0,0.2-0.1c0,0-0.4-0.1-0.3-0.1C70,6.2,70.1,6.3,70.2,6.4z"/>
<path class="st0" d="M67.4,6.3c0.4,0,0.7,0,0.8-0.1c0-0.1-0.1-0.1-0.1-0.2C67.8,6.1,67.6,6.1,67.4,6.3z"/>
<path class="st0" d="M80.4,5.9V6C80.5,6,80.6,6,80.7,6C80.9,6,81,5.9,81,6c0,0.2,0.1,0.3,0.1,0.3c0,0,0.1-0.1,0.1-0.1
	c0,0-0.1-0.2-0.1-0.3c-0.1,0-0.2,0-0.4-0.1C80.5,5.7,80.4,5.8,80.4,5.9z"/>
<path class="st0" d="M78.7,6.1c-0.1,0-0.1,0-0.1,0.1c0.1,0,0.2,0,0.2-0.1C78.8,6.1,78.8,6.1,78.7,6.1z"/>
<path class="st0" d="M79.4,6.2h0.2c0-0.1-0.1-0.1-0.2-0.1V6.2z"/>
<path class="st0" d="M81.8,6.2c0.1,0,0.1-0.1,0.1-0.2c0-0.1-0.1-0.1-0.2-0.1C81.8,6.1,81.8,6.2,81.8,6.2z"/>
<path class="st0" d="M73.7,6C73.6,6,73.6,6,73.7,6c0,0.1,0,0.1,0.1,0.1c0.1,0,0.1,0,0.1-0.1C73.8,6,73.7,6,73.7,6z"/>
<path class="st0" d="M73.2,6.1c0.1,0,0.1,0,0.1,0C73.2,6,73.2,6,73.2,6.1z"/>
<path class="st0" d="M71.8,6C71.8,6.1,71.8,6.1,71.8,6c0.1,0,0.2,0,0.2,0c0,0-0.1-0.1-0.1-0.2C71.8,5.9,71.8,5.9,71.8,6z"/>
<path class="st0" d="M83.3,6C83.4,6,83.4,6,83.6,6c0-0.1-0.1-0.1-0.1-0.2C83.4,5.9,83.3,5.9,83.3,6z"/>
<path class="st0" d="M67,6C67.1,6,67.1,6,67,6c0.1-0.1,0.1-0.2,0-0.2C67,5.8,67,5.9,67,6z"/>
<path class="st0" d="M78.1,6c0-0.1,0-0.1-0.1-0.2C78,5.9,78.1,6,78.1,6z"/>
<path class="st0" d="M83.9,6c0.1-0.1,0.2-0.1,0.3-0.2V5.6H84c-0.1-0.1-0.1-0.2-0.2-0.2c0,0-0.1,0-0.1,0C83.8,5.5,83.8,5.7,83.9,6z"
	/>
<path class="st0" d="M77.6,5.8l0,0.1c0,0,0.1,0,0.2,0C77.6,5.8,77.6,5.8,77.6,5.8z"/>
<path class="st0" d="M69.9,5.9c0.1,0,0.2-0.1,0.5-0.1l-0.1-0.1h-0.1c0-0.1-0.1-0.1-0.2-0.1c-0.1,0-0.2,0-0.2,0.1
	C69.8,5.7,69.8,5.8,69.9,5.9z"/>
<path class="st0" d="M72.8,5.9c0.1,0,0.2-0.1,0.1-0.2c-0.1,0-0.2-0.1-0.2,0C72.6,5.8,72.7,5.9,72.8,5.9z"/>
<path class="st0" d="M78.9,5.8L79,5.9L78.9,5.8z"/>
<path class="st0" d="M80,5.9C80,5.8,80,5.8,80,5.9c-0.1-0.1-0.1-0.1-0.1-0.1C80,5.8,80,5.9,80,5.9z"/>
<path class="st0" d="M72.3,5.5c-0.1,0-0.2-0.1-0.3-0.1v0.1l0.2,0.2c0,0.1,0,0.1,0.1,0.1C72.2,5.7,72.3,5.6,72.3,5.5
	c0.2,0,0.3,0,0.3-0.1C72.5,5.4,72.4,5.4,72.3,5.5z"/>
<path class="st0" d="M67.3,5.7c0.1,0,0.1,0,0.1,0c0-0.1,0-0.1-0.1-0.1C67.3,5.5,67.3,5.6,67.3,5.7z"/>
<path class="st0" d="M68.8,5.2c0,0-0.1,0-0.3,0c0,0.1-0.1,0.1-0.3,0.2c0,0,0-0.1-0.1-0.2H68c0,0.1-0.1,0.2-0.1,0.3
	c0.1,0,0.1,0,0.3,0l0.1,0.1c0.1,0,0.1,0.1,0.1,0.1C68.8,5.3,68.7,5.3,68.8,5.2C68.9,5.4,69,5.5,69,5.6h0.1c0,0-0.1-0.1-0.1-0.3
	l0.1-0.2c0,0,0-0.1-0.1-0.2C69,5,68.9,5.1,68.8,5.2z"/>
<path class="st0" d="M71.6,5.6l0.1-0.1l0.1-0.1c-0.2,0-0.3-0.1-0.3-0.1C71.5,5.4,71.5,5.5,71.6,5.6z"/>
<path class="st0" d="M81,5.4l-0.6-0.1c-0.1,0.1-0.2,0.1-0.2,0.1c-0.1,0-0.1-0.2-0.2-0.2c0,0.1-0.1,0.1-0.2,0.2c-0.2,0-0.4,0-0.5,0
	c-0.1,0-0.1-0.1-0.2-0.1c-0.1,0-0.1,0-0.1,0.1c0,0,0.1,0,0.2,0.1c0,0,0,0.1,0.1,0.2c-0.1,0,0-0.1,0.2-0.2h0.2l0.1,0.2
	c0-0.1,0.1-0.2,0.2-0.2c0.1,0,0.2,0,0.2,0c0,0,0.1,0,0.1-0.1h0.1l0.3,0.1c0,0,0-0.1,0.1-0.1H81c0,0,0.1,0,0.1,0
	c0.1,0,0.2,0.1,0.3,0.1c0.1,0,0.2,0,0.2-0.1c0-0.1-0.2-0.1-0.3-0.1c-0.2-0.1-0.3-0.1-0.2-0.1C81.1,5.2,81.1,5.3,81,5.4z"/>
<path class="st0" d="M82.7,5.2c-0.2,0-0.3,0-0.4,0h-0.2c-0.1,0-0.2,0.1-0.2,0.1l0.2,0.2c0,0,0.2,0,0.3-0.1h0.1c0.2,0,0.3,0,0.2,0
	L82.7,5.2z"/>
<path class="st0" d="M73.9,5.2c0,0-0.1-0.1-0.2-0.1c-0.1,0-0.1,0-0.3,0.1c0,0,0,0.1-0.1,0.2c0.1,0.1,0.3,0.1,0.5,0.1
	C73.9,5.5,73.9,5.3,73.9,5.2l0.2,0.1c0,0,0.1-0.1,0.1-0.2c0,0-0.1,0-0.1,0C74,5.2,74,5.2,73.9,5.2z"/>
<path class="st0" d="M83.4,5.3h-0.3L83,5.4l0.1,0.1c0.1,0,0.2,0,0.4,0L83.4,5.3z"/>
<path class="st0" d="M70.9,5.4c0,0,0.1,0,0.2,0.1c0,0,0-0.1,0-0.1C71.1,5.2,71,5.2,70.9,5.4z"/>
<path class="st0" d="M76.3,5.3c0,0.1,0,0.1,0.1,0.1c0,0,0.1,0,0.2-0.1c0-0.2-0.1-0.2-0.3-0.2C76.3,5.1,76.3,5.2,76.3,5.3z"/>
<path class="st0" d="M78.4,5.2c-0.1,0-0.1,0-0.2,0c0,0-0.1,0-0.2,0.1v0.1h0.1h0.2C78.3,5.3,78.5,5.3,78.4,5.2
	C78.5,5.2,78.5,5.2,78.4,5.2C78.4,5.2,78.4,5.2,78.4,5.2z"/>
<path class="st0" d="M77.5,5.3c0,0-0.1-0.1-0.1-0.1C77.4,5.2,77.5,5.3,77.5,5.3z"/>
<path class="st0" d="M72.6,4.9c0,0.1,0,0.2,0.1,0.3h0.1c0,0,0.1,0,0.2,0l-0.1-0.1c0,0,0-0.1-0.1-0.3C72.7,4.8,72.6,4.8,72.6,4.9z"/>
<path class="st0" d="M67.7,5c-0.1,0-0.1,0-0.2,0.1c0.1,0,0.2,0.1,0.2,0.1V5z"/>
<path class="st0" d="M74.6,4.5c0,0,0,0.1,0,0.2v0.5c0.1,0,0.2-0.2,0.2-0.2c0,0-0.1-0.2-0.1-0.2V4.7l0-0.1c0,0,0-0.1-0.1-0.2
	C74.6,4.4,74.6,4.5,74.6,4.5z"/>
<path class="st0" d="M70.4,4.7c-0.1,0.1-0.2,0.1-0.3,0.2c0,0,0.1,0,0.2,0c0.1,0,0.1,0.1,0.1,0.1c0.1,0.1,0.1,0.1,0.2,0.1
	c0.1,0,0.2-0.1,0.2-0.3c0,0-0.1-0.1-0.1-0.1H70.4z"/>
<path class="st0" d="M84.9,4.8c0,0-0.1,0-0.2-0.1c0,0-0.1,0.1-0.1,0.1c0,0-0.1,0-0.1,0c0,0,0,0-0.1,0v0.1
	C84.4,4.9,84.6,4.9,84.9,4.8L85,5.1c0.1-0.1,0.1-0.3,0.1-0.4C85,4.6,85,4.5,85,4.6L84.9,4.8z"/>
<path class="st0" d="M75.5,4.8c0.1,0,0.2,0.1,0.2,0.1C75.7,5,75.8,5,75.8,5l0.1-0.1c-0.1,0-0.1,0-0.2-0.1c0,0,0-0.1-0.1-0.2
	C75.5,4.6,75.5,4.7,75.5,4.8z"/>
<path class="st0" d="M72.2,5c0,0,0.1,0,0.2,0c0-0.1,0-0.2-0.1-0.2C72.3,4.8,72.1,4.8,72.2,5z"/>
<path class="st0" d="M71.5,4.9c0.1,0,0.2,0,0.3,0c0-0.1-0.1-0.1-0.2-0.1C71.5,4.9,71.5,5,71.5,4.9z"/>
<path class="st0" d="M83.1,4.8c0.2,0.1,0.3,0.1,0.4,0c0-0.3-0.2-0.3-0.3-0.3C83.2,4.6,83.1,4.7,83.1,4.8z"/>
<path class="st0" d="M69.7,4.8L69.7,4.8c-0.2-0.1-0.2,0-0.2,0H69.7z"/>
<path class="st0" d="M78.9,4.8c0.1,0,0.1,0,0.1,0c0.1,0,0.1,0,0.1-0.1C79.1,4.7,79,4.7,78.9,4.8z"/>
<path class="st0" d="M73.4,4.5c-0.1,0-0.2,0.1-0.3,0.2c0,0,0.1,0,0.2,0.1c0.1,0,0.1,0,0.2,0c0,0,0.1,0,0.1-0.1c0.1,0,0.3,0,0.5,0
	c0-0.1-0.1-0.1-0.2-0.1c-0.1,0-0.1,0-0.2,0C73.6,4.5,73.5,4.5,73.4,4.5z"/>
<path class="st0" d="M80,4.5c0,0,0,0.1,0.1,0.2c0,0,0-0.1,0.1-0.1c0,0-0.1-0.1-0.1-0.2C80,4.5,80,4.5,80,4.5z"/>
<path class="st0" d="M68.5,4.5c0,0-0.1,0-0.1,0c-0.1,0-0.2,0-0.3,0.1l0.3,0C68.5,4.6,68.5,4.6,68.5,4.5L68.5,4.5z"/>
<path class="st0" d="M71.3,4.4c0.1,0.1,0.2,0.1,0.2,0.1c0,0,0.1,0,0.1-0.1C71.6,4.3,71.6,4.3,71.3,4.4C71.4,4.4,71.3,4.4,71.3,4.4z"
	/>
<path class="st0" d="M70.4,4.3C70.4,4.3,70.3,4.3,70.4,4.3c-0.1,0,0,0.1,0.1,0.1c0.2,0,0.3,0,0.3-0.1c-0.1,0-0.2,0-0.3,0H70.4z"/>
<path class="st0" d="M69.7,4.3C69.7,4.2,69.7,4.2,69.7,4.3c-0.2,0-0.4,0-0.7,0c0,0.1,0,0.1,0,0.2c0,0,0.1,0,0.2-0.1h0.3
	c0,0,0.1,0,0.1,0L69.7,4.3C69.7,4.3,69.7,4.3,69.7,4.3l0.2,0.1L70,4.3h-0.1c0,0-0.1,0-0.1,0C69.8,4.3,69.8,4.3,69.7,4.3z"/>
<path class="st0" d="M84.5,3.3c0,0.1,0,0.2,0,0.2l0.4-0.1C85,3.6,85,3.7,85,3.9L84.9,4c-0.4,0-0.6,0-0.5-0.1c0,0-0.2,0.1-0.2,0.2
	h0.4c0,0,0,0,0.1,0c0.1,0,0.1,0,0.2,0L85,4.2V3.3c0,0-0.1,0-0.2,0.1c0,0-0.1-0.1-0.1-0.1C84.6,3.3,84.6,3.3,84.5,3.3z"/>
<path class="st0" d="M75.3,4.2c0,0,0.1-0.1,0-0.1c0,0,0-0.1,0-0.1C75.3,4.1,75.3,4.1,75.3,4.2z"/>
<path class="st0" d="M75.7,3.7l-0.1,0.1v0.1c0.1,0,0.1,0,0.2,0C75.8,4,75.9,4,76.1,4.1c0,0-0.1-0.1-0.1-0.2V3.8
	c-0.1,0-0.1-0.2-0.2-0.3C75.8,3.6,75.8,3.7,75.7,3.7z"/>
<path class="st0" d="M68,1.7c-0.1,0.2-0.1,0.5-0.1,0.7c0,0,0,0.1,0,0.2c0,0,0,0.1,0,0.2c0,0,0.1,0,0.1,0v0.1H68V3c0,0,0,0,0,0.1
	c0,0-0.1,0.2-0.2,0.5c-0.1,0-0.1,0-0.2-0.2c-0.1,0-0.2,0.1-0.2,0.4h0c0,0,0,0.1,0,0.2c0,0,0,0,0,0.1c0,0,0.1-0.1,0.1-0.1
	c0.3,0,0.2-0.1,0.3-0.3c0,0,0,0,0.1,0c0.1,0,0.2,0,0.3,0l0-0.2c0,0-0.1-0.1-0.1-0.2V2.8V2.7V2.6c0-0.1,0-0.3,0-0.4
	c0,0,0-0.1,0.1-0.3c0-0.2,0-0.3-0.1-0.5C68,1.4,68,1.5,68,1.7z"/>
<path class="st0" d="M75,3.9c0.1,0,0.1,0,0.1-0.1C75.1,3.8,75.1,3.8,75,3.9z"/>
<path class="st0" d="M68.2,3.7c0,0,0.1,0,0.1,0.1c0,0,0.1,0,0.1-0.1c0,0,0,0,0-0.1C68.3,3.6,68.2,3.7,68.2,3.7z"/>
<path class="st0" d="M75.3,1.8c0,0.1-0.1,0.3-0.1,0.5c0,0,0,0.1,0.1,0.2c-0.1,0-0.1,0.1,0,0.2c0.1,0.1,0.1,0.3,0.1,0.6v0.2
	c0,0,0,0.1,0,0.1c0,0,0,0,0,0.1h0.1c0.2,0,0.2-0.2,0.2-0.5c-0.1-0.6-0.2-0.9-0.2-1c0,0,0-0.1,0-0.1h0c0-0.1,0-0.2,0-0.4
	C75.4,1.7,75.3,1.8,75.3,1.8z"/>
<path class="st0" d="M75.8,3c0,0,0,0.1,0,0.1c0,0.1,0,0.2,0,0.3V3z"/>
<path class="st0" d="M83.9,3.3c0,0.1,0,0.1,0.1,0.1c0-0.2,0-0.3-0.1-0.3C83.8,3.1,83.8,3.2,83.9,3.3z"/>
<path class="st0" d="M84.7,1.4c0,0,0.2,0.1,0.1,0.2c0,0.1-0.3,0.1-0.3,0.2c0.1,0,0.1,0,0.1,0.1c0.2,0,0.3,0.3,0.3,0.6l-0.1,0.2
	C85,2.8,85,2.8,85,2.8c0-0.3,0.1-0.5,0-0.7c0,0,0-0.1,0-0.2c0,0,0-0.1,0-0.1V1.7c0,0,0-0.1,0-0.3c0-0.1-0.1-0.1-0.2-0.2
	C84.7,1.2,84.7,1.3,84.7,1.4z"/>
<path class="st0" d="M67.1,2.3c-0.1,0.1-0.1,0.2,0,0.3c0.1,0,0.1,0,0.1-0.2L67.1,2.3z"/>
<path class="st0" d="M84.2,1.3c0.1,0.1,0.1,0.2,0.1,0.4c-0.1,0-0.1,0.1-0.1,0.1c-0.1,0-0.2,0-0.4-0.1v0.2c0.1,0,0.2,0,0.3,0
	c0.2,0,0.3-0.1,0.4-0.1c0,0-0.1-0.1-0.1-0.2c0-0.2,0-0.3,0-0.2c0,0,0-0.2-0.1-0.4c0,0,0-0.1,0.1-0.3c-0.1-0.1-0.2-0.2-0.1-0.2
	C84.2,0.6,84.3,1.2,84.2,1.3z"/>
<path class="st0" d="M74.6,1.5c0,0-0.1,0-0.1,0.1l0.1,0.1c0.1,0,0.1,0,0.1-0.1C74.7,1.5,74.7,1.5,74.6,1.5z"/>
<path class="st0" d="M75.1,1.2c-0.1,0-0.2,0-0.2,0l0.4,0.2c0,0,0-0.1,0-0.2C75.3,1.2,75.2,1.2,75.1,1.2z"/>
<path class="st0" d="M83.8,1.1c0,0.1,0,0.2,0.1,0.2c0,0,0-0.1,0.1-0.1c0-0.2,0-0.3-0.1-0.3C83.8,1,83.8,1,83.8,1.1z"/>
<path class="st0" d="M67.7,1h-0.2v0.1c0,0,0.1,0,0.1,0.1h0.2L68,0.9c0,0-0.1-0.1-0.1-0.1C67.8,0.9,67.8,0.9,67.7,1z"/>
<path class="st0" d="M67.3,0.6c0,0,0,0.1,0,0.2c0,0,0,0.1,0.1,0.1c0-0.1,0.1-0.2,0.1-0.3H67.3z"/>
<path class="st0" d="M84.6,0.7c0,0,0.1,0.1,0.2,0.1c0.1,0,0.1-0.1,0.1-0.1H85c0,0,0,0,0,0c0,0-0.1-0.1-0.3-0.1
	C84.7,0.6,84.6,0.6,84.6,0.7z"/>
<path class="st0" d="M103.8,2.4L103.8,2.4c-0.1,0.6-0.1,1.4-0.3,2.6c-0.2,0.1-0.7,0.1-1.5,0.1c-2.4-0.1-3.8-0.1-4.2,0
	c-0.6,0-0.9,0.2-0.9,0.7c0,0.1,0,0.1,0,0c0,1.6-0.1,1.3,0,1.6v2.3l0.1,1c0.1,0.1,0.1,0.1,0.1,0.1c0.1,0.2,0.1,0.5,0,0.7L97,13.4
	c0,0.1,0,0.4,0.1,0.8c0.1,0.1,0.1,0.1,0.1,0.3c0-0.1,0-0.1-0.1,0.3c-0.1,0.5-0.1,0.9,0,1.2c0.1,0.4,0.2,0.6,0.2,0.8
	c0,0.3-0.3,0.4-0.3,1.1v0.9c0,0.5-0.1,0.8-0.3,0.8c0,0.1,0.1,0.1,0.3,0.3l0.1,0.1c0.3,0,1-0.1,1.3-0.1h0.2h0.6
	c1.1,0.1,1.6,0.1,1.7,0.1c0.7-0.1,1-0.1,0.9-0.1c0.2,0.1,0.4,0.3,0.6,0.5c0.2-0.1,0.4-0.1,0.4-0.1c0.2,0,0.3,0.1,0.4,0.3
	c-0.1,0.4-0.1,0.8-0.1,1.3c0.1,0.1,0.1,0.1,0.1,0.1v0.8c0,0,0,0-0.1,0l-0.1,0.7c0.1,0,0.1,0.1,0.4,0.4c0.1,0.1,0.1,0.4,0,0.8
	l-0.6,0.7l-0.2,0.1l-0.6,0.1c-0.7,0.1-1.8,0.1-3.4,0h-1.1C97,25.6,97,25.7,97,25.7L96.9,26c-0.1,0.1-0.1,0.1,0,0.1
	c0,0.9,0,1.3,0,1.3c0,0.6,0,0.8,0,0.6C97,28.6,97,29,97,29.3v0.5v0.4v1.2c-0.1,0-0.1,0.1-0.1,0.2v0.5c0,0-0.1,0.3-0.1,0.4l0.1,0.3
	V33c0.1,1.1,0.1,2.4,0.1,4v5.2v0.3l0.1,0.2L97.1,44c0.1,0.6,0,1.3-0.1,2.4l-0.1,0.4C97,47,97,47.2,97,47.5c-0.1,0.1-0.1,0.4-0.1,0.6
	v0.2c0,0.1,0,0.1,0,0.1c0,0.6-0.4,0.8-1,1.3c-0.1,0.1-1,0.1-2.9,0c-0.8,0-1.7,0-2.6-0.1c0-0.1-0.1-0.1-0.3-0.2
	c-0.2-0.6-0.3-1.1-0.3-1.5c0,0.1,0,0.1,0-0.1c0.1-0.2,0.1-0.4,0.1-0.8v-1.8c0-0.9,0-1.2,0.1-0.9c0-0.1-0.1-0.3-0.1-0.6
	c-0.1-0.2-0.1-0.4,0-0.7c0.1-0.1,0.1-0.4,0.1-0.8c0,0.1,0,0-0.1-0.4c0.1-0.2,0.1-0.6,0.1-1.1h-0.1v-0.2c0,0,0-0.1-0.1-0.1v-0.1
	c0,0.1,0,0,0-0.1c0.1-0.2,0.1-0.5,0.1-0.9c0,0,0-0.6,0-1.7c0.1-0.4,0.1-0.8,0.1-1.6c0-0.5-0.2-1.7-0.2-2.2c0.1,0.2,0.1-1.4,0.1-4.6
	c0-1.1,0-2.3-0.1-3.7c-0.1-0.5-0.1-0.8,0-1.2c0,0,0-0.1,0-0.4c0.1-0.4,0.1-1,0.1-1.8v-1H90v-0.1c-0.1,0.4-0.1-0.2-0.1-1.7
	c0-0.3,0-0.9,0.1-1.7c0.1-0.7,0.1-1.3,0.1-1.6c0,0,0-0.1,0-0.3C90,15.6,90,15.5,90,15.4c0.1-0.1,0.1-0.2,0.1-0.4l0.1-0.1
	c0.1-0.4,0-0.8-0.1-1.3v-1.8c-0.1-0.2-0.1-0.6-0.1-1.1c0,0.3,0,0.1,0.1-0.6c0.1-0.3,0.1-1,0-2.1v-2c0-0.8,0-1.3-0.1-1.8
	c0-0.4,0-0.4,0-0.2c0.1-0.3,0.1-0.4,0.1-0.3V3.6c0.1-0.1,0-0.1-0.1-0.2V3.1c0-0.1,0-0.1-0.1-0.1c0-0.5,0.3-1.1,0.2-1.7
	c-0.1-0.4-0.1-0.7-0.1-0.9c0.1-0.1,0.2-0.1,0.4-0.1l0.2-0.1l0.1-0.1l0.1-0.1c0.1-0.1,0.4-0.1,0.8,0c0.4,0,1.3,0.2,1.5,0.1H93
	l0.1-0.1h0.4c0.1,0.1,0.1,0.1,0.4,0.1h0.4c0.6,0.1,0.9,0,0.9-0.1c0.4-0.1,0.6-0.1,0.7-0.1v0.1h0.3c0.1,0,0.4,0.1,0.7,0.4
	c0,0.1,0.1,0,0.1,0l0.2-0.1l0.4-0.2h0.3c0.1,0,0.2-0.1,0.5,0.1c0.1-0.1,0.5-0.1,1.3-0.1c1-0.1,1.8-0.1,2.3,0
	c0.1,0.1,0.3,0.1,0.6,0.1c0.2-0.1,0.4-0.1,0.7-0.1c0.2,0,0.4,0.1,0.6,0.2v1.1h-0.1c-0.1,0.1-0.1,0.1-0.1,0.4c-0.1,0.1,0,0.2,0.1,0.4
	V2.4z"/>
<path class="st0" d="M125.5,31.7c0,0.2,0,0.4-0.1,0.5v2.6c-0.1,0.1-0.1,0.3-0.1,0.5c0.1,0.1,0.1,0.1,0.1,0.4c-0.1,0.4-0.1,0.8,0,1.4
	c0,0,0,0,0,0.1v0.1v0.8c0,1.2,0,1.6,0,1.3c0,0.4,0,0.6,0,0.4v0.3v0.2c0.1,0.9,0.1,1.9-0.1,3.3v0.2l-0.1,0.1c0,0.3,0,0.6-0.1,1.1
	c-0.1,0-0.1,0.1-0.1,0.1v0.1c-0.4,0.4-0.4,0.7-0.5,1.3c-0.1,0-0.2,0.1-0.4,0.4c-0.2,0.1-0.4,0.4-0.7,0.8c-0.1,0.1-0.4,0.3-0.6,0.6
	c-0.3,0.1-0.6,0.4-1.5,0.7c0,0.1,0,0.1-0.1,0.1h-0.2c0,0.1-0.2,0.1-0.6,0.2l-0.1,0.1h-0.1l-0.9,0.2h-0.2c-0.4,0-1.2,0-2.4,0.1
	c-0.1,0-0.1,0-0.1,0c-0.5,0.1-0.9,0.1-1.3,0.1c-0.1,0-0.1,0-0.1-0.1c-0.4,0-0.9-0.1-1.7-0.2l-0.1-0.1c-0.6-0.1-1.3-0.4-2.1-0.7h-0.1
	c-0.1,0-0.3-0.1-0.4-0.2h-0.1h-0.3v-0.1c-0.1,0-0.2-0.1-0.4-0.4c-0.1,0-0.4-0.2-0.6-0.6c0,0-0.3-0.4-0.9-1.1v-0.1
	c-0.1,0-0.1,0-0.1-0.1l-0.1-0.3c0-0.1,0-0.1-0.1-0.1v-0.1l-0.5-1c0-0.4-0.1-0.8-0.1-1.3c0-0.1,0-0.1-0.1-0.2V43
	c0.1-0.1,0.1-0.1,0.1-0.1v-0.1l-0.1-0.1v-0.6c-0.1-0.2-0.1-0.6-0.1-1c0,0,0-0.1,0-0.2c-0.1-0.1-0.1-0.2-0.1-0.3c0-0.1,0-0.1,0.1-0.3
	v-0.2v-1.7c0-0.4,0-0.4-0.1-0.4c0.1-0.1,0.1-0.7,0.1-1.7c0-1.9,0-3.4-0.1-4.5c-0.1-1.1-0.1-1.7,0-2c0.1-0.1,0.1-0.1,0.1-0.1
	c0-0.2,0-0.6-0.1-1.1c0.1-0.2,0.1-0.6,0.1-1c0,0.2,0,0.1-0.1-0.4v-0.5l-0.1-1.5l0.1-0.6c-0.1-0.2-0.1-0.6-0.1-1.1V23
	c0,0.6,0.1-0.6,0.1-3.7v-0.9c-0.1-0.8-0.1-1.1-0.1-0.9V17c0.1-0.3,0.1-0.5,0.1-0.6v-2.3c0-0.1,0-0.1,0.1-0.2v-0.3
	c0-0.1,0-0.3-0.1-0.5V12c0-0.1,0-0.4,0.1-0.6V11c-0.1-0.2-0.1-0.6-0.1-1.1c0.1-0.1,0.1-0.2,0.1-0.4V9.2c-0.1-0.1-0.1-0.1-0.1-0.2
	c0.1-0.1,0.1-0.4,0.1-0.6V6.7V6.6c-0.1-0.1-0.1-0.1-0.1-0.1c0.1-0.2,0.1-0.4,0.1-0.8l-0.1-3.6c0-0.1,0.1-0.4,0.1-0.9
	c0-0.2,0.1-0.6,0.2-0.9c0.1-0.2,0.8-0.4,2.1-0.3c0,0.1,0,0.1,0.1,0.1h0.6c0.4-0.1,0.6-0.1,0.7-0.1c0.1,0,0.2,0,0.3,0.1
	c0.3,0,0.4,0,0.4,0c0.5-0.1,1.2,0,2.1,0.1c0.2,0.5,0.3,0.8,0.2,1c-0.1,0.1-0.1,0.1-0.1,0.1l0.2,1c-0.1,0.4,0,0.9,0,1.6
	c0.1,0.1,0.1,0.1,0.1,0.1c0-0.1,0,0,0,0.3c0,0.4,0,0.8-0.1,1.3c0,0,0,0.6,0,1.6c0,0,0,0-0.1,0.1c0.1,0.4,0.1,0.9,0.1,1.5
	c0.1,0.1,0,0.4-0.1,0.8c-0.1,0.3-0.1,0.6,0,1c0.1,0.1,0.1,0.1,0.1,0.1c0-0.1,0,0-0.1,0.2c0.1,0.1,0.1,0.1,0,0.3
	c-0.1,0.3-0.1,0.4-0.1,0.4c0.1,0.1,0.1,0.1,0.1,0.2c0.1,0.3,0.1,0.5,0.1,0.7c-0.1,0.3-0.1,0.7-0.1,1.2c0,0.3,0.1,0.9,0.1,1.2
	c0.1,0.2,0.1,1,0,2.3c0,0.4-0.1,1.1-0.1,2.1c0-0.5,0-0.1,0.1,1.1v1.1c0.1,1.5,0.1,2.5,0,2.8c0,0.1,0,0.1-0.1,0.3V26
	c0.1,0.2,0.1,0.5,0.1,0.9c-0.1,1.3-0.1,3.3-0.1,5.8c0.1,0.1,0.1,0.5,0.1,1c0.1,0.4,0.1,0.8,0,1.3c-0.1,0.8-0.1,1.3-0.1,1.4v1.4
	c0,0.1,0,0.2,0.1,0.4v0.3c0,0.1,0,0.2-0.1,0.3c0.1,0.4,0.1,1.1,0.1,2V41c-0.1,0.4-0.1,0.6-0.1,0.7l0.3,1.4l0.4,0.4
	c0.1,0.1,0.1,0.1,0.1,0.1v0.1c0.4,0.4,0.6,0.5,0.9,0.5c0.4,0.1,0.7,0,1.1-0.1l0.1-0.1c0.1-0.1,0.1-0.1,0.4-0.2l0.2-0.4
	c0.1,0,0.1,0,0.1-0.1c0.2-0.4,0.3-0.9,0.4-1.8c0-0.1,0-0.1,0.1-0.2V41c-0.1,0-0.1,0-0.1-0.1c0,0.3,0,0.2,0-0.3
	c0.1-0.5,0.1-1.1,0.1-1.8c0-0.1,0-0.4-0.1-0.9v-1.2v-0.2l0.1-0.6c0,0,0-0.1-0.1-0.5v-0.3c-0.1-0.4-0.1-0.7-0.1-1.2
	c0-0.2,0-0.6-0.1-1v-1c0.1-0.4,0.1-0.8,0.1-1.6v-3.1c0-0.1,0-0.5-0.1-1v-1.3c0,0.1,0-0.3,0.1-1.3c0,0,0-0.7,0-2.1v-0.1
	c0.1,0,0.1,0,0.1-0.1c-0.1-0.3-0.1-0.4-0.1-0.4c-0.1-0.5-0.1-1.1,0-2.1c0.1-0.7,0.1-1.7,0-2.9c0-0.4,0-0.8,0.1-1.4
	c-0.1,0-0.1,0-0.1-0.1V14c0.1-0.1,0.1-1.1,0.1-3.2c0,0,0-0.2,0-0.7c0.1-0.4,0.1-0.6,0.1-0.7c0-0.1,0-0.4-0.1-0.7c0-0.5,0-1,0.1-1.4
	V4c-0.1-0.1-0.2-0.2-0.2-0.2V3.2c0-0.4,0-0.6,0.1-0.8c0.1,0,0.1,0,0.1-0.1V2.1c0.1-0.1,0.2-0.4,0.1-0.7c-0.1-0.4-0.1-0.7,0-0.8
	c0.3-0.4,0.7-0.5,1.2-0.5c0.4,0,1.3,0.1,1.6,0.1c0.6-0.1,1.4-0.1,2.6,0c0,0,0.1,0,0.4,0l0.6,0.4c0.1,0.1,0.1,0.4,0.1,1
	c0.1,0,0.1,0,0.1,0.1v1.1c-0.1,0.4-0.1,0.9-0.2,1.5c0.1,0.5,0.1,1.1,0.1,2.1c-0.1,0.3-0.1,0.5-0.1,0.6c-0.1,0.4-0.1,0.7,0,0.8
	c0.3,1.3,0.4,2.3,0.3,3.2c-0.1,0.1-0.1,0.2-0.1,0.4v0.2c0,0,0-0.1,0,0.4c0.1,0.6,0.1,1.3,0,1.9c-0.1,0-0.1,0,0,0.1
	c0,0.6,0.1,1.5,0.1,2v0.4c-0.1,0.1-0.1,0.3-0.1,0.6v0.3v0.1v0.6c0.1,0.1,0.1,0.3,0.1,0.7c-0.1,0.6-0.1,1.5,0,2.5c0,0.2,0,0.3,0,0.2
	c-0.1,0.2-0.1,0.3,0,0.4v0.1v0.4c-0.1,0-0.1,0-0.1,0.1v0.2c-0.1,0.1-0.1,0.3,0,0.6c0,0.2,0.1,0.5,0.1,0.8c0,0.3-0.1,1-0.1,1.3
	c0,0.5,0.1,2,0.1,2.6c-0.1,0.4-0.1,0.6-0.1,0.8c-0.1,0.1-0.1,0.1-0.1-0.1l0.1,1.4c0,0,0,0,0,0.1c0.1-0.2,0.1,0.2,0.1,1.3V31.7z"/>
<path class="st0" d="M145.2,3.8c0,0-0.1,0.3-0.4,0.8l-0.2,0.6c-0.4,0-1.3,0.4-1.6,0.4l-1-0.4c-0.1-0.1-0.2-0.1-0.6,0
	c-0.6,0.1-0.9,0.4-1.1,1.1c0,0.1,0,0.4-0.1,0.7l-0.1,0.6c0,0.4,0.1,1.4,0.1,1.6c0,0.1,0,0.6-0.1,1.2c0,0,0,0.2,0,0.6
	c0,0,0,0.1,0,0.2c-0.1,0.1-0.1,0.2-0.1,0.3c0,0.4,0.1,1.3,0.1,1.7l-0.2,1.7l0.1,2.6c0,0.1-0.1,0.5-0.1,1.1c-0.1,0.4,0,0.7,0.1,1.1
	c0.1,0,0.1,0,0.1,0.1v3.1v0.4c-0.1,0.2-0.1,0.4-0.1,0.5c0,0.1,0,0.3,0.1,0.6v0.6v1.9v1.5c0.1,0.5,0.1,0.7,0.1,0.6l-0.4,1.3v0.4
	c0.1,0.2,0.1,0.4,0.1,0.4c-0.1,0.1-0.1,0.4-0.1,0.7c0.1,0.3,0.3,0.6,0.4,1.1c0,0.2-0.2,0.9-0.2,1.2l0.2,1.6
	c-0.1,0.5-0.1,0.9-0.3,1.2c0,0.2,0.2,0.8,0.2,1c0-0.1-0.1,0.1-0.1,0.9c-0.1,0.2-0.1,0.4,0,0.6c0,0.8,0.1,1.9,0.1,3.4
	c0.1,0.9,0,2.3,0,2.3c-0.2,1.4,0.1,2.8-0.1,3.2c-0.2,0.5,0.1,1.6-0.2,1.5l-2.4,0.2h-0.4c-0.1-0.1-0.4-0.2-0.7-0.3
	c-0.2,0-0.8,0.3-1.1,0.3c-0.2,0-0.5-0.1-0.9-0.3H134c-0.4-0.1-0.5-0.5-0.6-1c0.1-0.5,0.1-1.1,0-2c-0.1-0.7-0.1-1-0.1-0.9v-0.1v-0.4
	c0.1-0.5,0.1-0.6,0.1-0.4c-0.1-0.3-0.2-0.6-0.3-1.1c0-0.4,0.1-0.6,0.1-0.8c0.1,0,0.1,0,0.1-0.1c0.1-0.5,0.1-1.1,0.1-1.8v-1.5
	c0.1-0.6,0.2-1.1,0.2-1.4c-0.1-0.1-0.1-0.5-0.2-1.7c0-0.1,0-0.1-0.1-0.1v-1c0.1-0.4,0.1-0.6,0-0.7c-0.1-0.3-0.1-0.5-0.1-0.6v-0.1
	l0.1-0.9c0,0.2,0-0.2-0.1-1.4c0.1-0.2,0.1-0.5,0.1-0.9c0-0.1-0.1-0.4-0.1-0.7c0.1-0.1,0.1-0.1,0.1-0.4c0-0.1,0-0.1-0.1-0.2
	c0-0.2,0-0.6,0.1-1.1c0-0.1,0-0.3-0.1-0.6c0,0,0.1-0.1,0.1-0.4c-0.1-0.1-0.1-0.2-0.1-0.4c0-0.1,0.1-0.4,0.1-0.6
	c-0.1-0.2-0.1-0.7-0.2-1.6v-1.8c0.1-0.4,0.1-0.9,0-1.4v-2.3c0-0.1-0.1-0.4-0.1-0.5l0.2-1.5c0,0.2,0,0-0.1-0.6c0.1-0.1,0.1-0.3,0-0.5
	c-0.1-0.4-0.1-0.9-0.1-1.3l0.2-1.4c0.1-0.4,0.1-0.8,0-1.3c-0.1-0.8-0.1-1.3-0.1-1.3c0-1.1,0-1.5,0.1-1.3c0-0.2-0.1-0.5-0.2-0.7
	l0.1-0.4c0-0.1,0-0.1,0-0.1c0-0.2,0-0.3,0-0.2V8.1c0-0.2-0.1-0.4-0.1-0.8c0.1-0.4,0.1-1.1,0-1.8c-0.1-0.1-0.3-0.4-0.6-0.6
	c-0.1-0.1-0.4-0.1-0.6,0C132,5,131.9,5,131.8,5c-0.8,0-1.6,0-2.4-0.1l-0.1-0.1h-0.1c-0.1-0.2-0.3-0.4-0.6-0.5c0-0.3-0.1-0.6-0.1-1.1
	c0,0-0.1-0.3-0.1-0.5c0,0.1,0.1-0.1,0.1-0.5l0.3-0.8l0.1-0.2V1c0.1,0,0.1,0,0.1-0.1c-0.1-0.1-0.1-0.1,0-0.3l0.4-0.4
	c0.3-0.1,0.8-0.1,1.6-0.1c1.3-0.1,2.8-0.1,4.2,0c0.1,0,0.4,0,0.8,0.1c0.2,0.1,0.4,0.1,0.6,0c0-0.1,0.3-0.1,1.1-0.1
	c0.4-0.1,0.8-0.1,1.6,0l1,0.2c0.8-0.1,1.9-0.1,3.5,0c0.1,0.1,0.4,0.3,0.9,0.5c0.1,0.2,0.1,0.4,0.4,0.8c0,0.4,0,0.6-0.1,0.9
	C145,2.5,145,2.6,145,2.8L145.2,3.8z"/>
<path class="st0" d="M166.7,31.7c0,0.2,0,0.4-0.1,0.5v2.6c-0.1,0.1-0.1,0.3-0.1,0.5c0.1,0.1,0.1,0.1,0.1,0.4c-0.1,0.4-0.1,0.8,0,1.4
	c0,0,0,0,0,0.1v0.1v0.8c0,1.2,0,1.6,0,1.3c0,0.4,0,0.6,0,0.4v0.3v0.2c0.1,0.9,0.1,1.9-0.1,3.3v0.2l-0.1,0.1c0,0.3,0,0.6-0.1,1.1
	c-0.1,0-0.1,0.1-0.1,0.1v0.1c-0.4,0.4-0.4,0.7-0.5,1.3c-0.1,0-0.2,0.1-0.4,0.4c-0.2,0.1-0.4,0.4-0.7,0.9c-0.1,0.1-0.4,0.3-0.6,0.6
	c-0.3,0.1-0.6,0.4-1.5,0.7c0,0.1,0,0.1-0.1,0.1h-0.2c0,0.1-0.2,0.1-0.6,0.2l-0.1,0.1h-0.1l-0.8,0.2h-0.2c-0.4,0-1.2,0-2.4,0.1
	c-0.1,0-0.1,0-0.1,0c-0.5,0.1-0.9,0.1-1.3,0.1c-0.1,0-0.1,0-0.1-0.1c-0.4,0-0.9-0.1-1.7-0.2l-0.1-0.1c-0.6-0.1-1.3-0.4-2.1-0.7h-0.1
	c-0.1,0-0.3-0.1-0.4-0.2H152h-0.3v-0.1c-0.1,0-0.2-0.1-0.4-0.4c-0.1,0-0.4-0.2-0.6-0.6c0,0-0.3-0.4-0.9-1.1v-0.1
	c-0.1,0-0.1,0-0.1-0.1l-0.1-0.3c0-0.1,0-0.1-0.1-0.1v-0.1l-0.5-1c0-0.4-0.1-0.8-0.1-1.3c0-0.1,0-0.1-0.1-0.2V43
	c0.1-0.1,0.1-0.1,0.1-0.1v-0.1l-0.1-0.1v-0.6c-0.1-0.2-0.1-0.6-0.1-1c0,0,0-0.1,0-0.2c-0.1-0.1-0.1-0.2-0.1-0.3c0-0.1,0-0.1,0.1-0.3
	v-0.2v-1.7c0-0.4,0-0.4-0.1-0.4c0.1-0.1,0.1-0.7,0.1-1.7c0-1.9,0-3.4-0.1-4.5c-0.1-1.1-0.1-1.7,0-2c0.1-0.1,0.1-0.1,0.1-0.1
	c0-0.2,0-0.6-0.1-1.1c0.1-0.2,0.1-0.6,0.1-1c0,0.2,0,0.1-0.1-0.4v-0.5l-0.1-1.5l0.1-0.6c-0.1-0.2-0.1-0.6-0.1-1.1V23
	c0,0.6,0.1-0.6,0.1-3.7v-0.9c-0.1-0.8-0.1-1.1-0.1-0.9V17c0.1-0.3,0.1-0.5,0.1-0.6v-2.3c0-0.1,0-0.1,0.1-0.2v-0.3
	c0-0.1,0-0.3-0.1-0.5V12c0-0.1,0-0.4,0.1-0.6V11c-0.1-0.2-0.1-0.6-0.1-1.1c0.1-0.1,0.1-0.2,0.1-0.4V9.2c-0.1-0.1-0.1-0.1-0.1-0.2
	c0.1-0.1,0.1-0.4,0.1-0.6V6.7V6.6c-0.1-0.1-0.1-0.1-0.1-0.1c0.1-0.2,0.1-0.4,0.1-0.8V2.3c0-0.1,0.1-0.4,0.1-0.9
	c0-0.2,0.1-0.6,0.2-0.9c0.1-0.2,0.8-0.4,2.1-0.3c0,0.1,0,0.1,0.1,0.1h0.6c0.4-0.1,0.6-0.1,0.7-0.1c0.1,0,0.2,0,0.3,0.1
	c0.3,0,0.4,0,0.4,0c0.5-0.1,1.2,0,2.1,0.1c0.2,0.5,0.3,0.9,0.2,1c-0.1,0.1-0.1,0.1-0.1,0.1l0.2,1c-0.1,0.4-0.1,0.8-0.1,1.4
	c0.1,0.1,0.1,0.1,0.1,0.1c0-0.1,0,0,0,0.3c0,0.4,0,0.8-0.1,1.3c0,0,0,0.6,0,1.6c0,0,0,0-0.1,0.1c0.1,0.4,0.1,0.9,0.1,1.5
	c0.1,0.1,0,0.4-0.1,0.8c-0.1,0.3-0.1,0.6,0,1c0.1,0.1,0.1,0.1,0.1,0.1c0-0.1,0,0-0.1,0.2c0.1,0.1,0.1,0.1,0,0.3
	c-0.1,0.3-0.1,0.4-0.1,0.4c0.1,0.1,0.1,0.1,0.1,0.2c0.1,0.3,0.1,0.5,0.1,0.7c-0.1,0.3-0.1,0.7-0.1,1.2c0,0.3,0.1,0.9,0.1,1.2
	c0.1,0.2,0.1,1,0,2.3c0,0.4-0.1,1.1-0.1,2.1c0-0.5,0-0.1,0.1,1.1v1.1c0.1,1.5,0.1,2.5,0,2.8c0,0.1,0,0.1-0.1,0.3V26
	c0.1,0.2,0.1,0.5,0.1,0.9c-0.1,1.3-0.1,3.3-0.1,5.8c0.1,0.1,0.1,0.5,0.1,1c0.1,0.4,0.1,0.8,0,1.3c-0.1,0.9-0.1,1.3-0.1,1.4v1.4
	c0,0.1,0,0.2,0.1,0.4v0.3c0,0.1,0,0.2-0.1,0.3c0.1,0.4,0.1,1.1,0.1,2V41c-0.1,0.4-0.1,0.6-0.1,0.7l0.3,1.4l0.4,0.4
	c0.1,0.1,0.1,0.1,0.1,0.1v0.1c0.4,0.4,0.6,0.5,0.9,0.5c0.4,0.1,0.7,0,1.1-0.1l0.1-0.1c0.1-0.1,0.1-0.1,0.4-0.2l0.2-0.4
	c0.1,0,0.1,0,0.1-0.1c0.2-0.4,0.3-0.9,0.4-1.8c0-0.1,0-0.1,0.1-0.2V41c-0.1,0-0.1,0-0.1-0.1c0,0.3,0,0.2,0-0.3
	c0.1-0.5,0.1-1.1,0.1-1.8c0-0.1,0-0.4-0.1-0.9v-1.2v-0.2l0.1-0.6c0,0,0-0.1-0.1-0.5v-0.3c-0.1-0.4-0.1-0.7-0.1-1.2
	c0-0.2,0-0.6-0.1-1v-1c0.1-0.4,0.1-0.9,0.1-1.6v-3c0-0.1,0-0.5-0.1-1v-1.3c0,0.1,0-0.3,0.1-1.3c0,0,0-0.7,0-2.1v-0.1
	c0.1,0,0.1,0,0.1-0.1c-0.1-0.3-0.1-0.4-0.1-0.4c-0.1-0.5-0.1-1.1,0-2.1c0.1-0.7,0.1-1.7,0-2.9c0-0.4,0-0.8,0.1-1.4
	c-0.1,0-0.1,0-0.1-0.1V14c0.1-0.1,0.1-1.1,0.1-3.2c0,0,0-0.2,0-0.7c0.1-0.4,0.1-0.6,0.1-0.7c0-0.1,0-0.4-0.1-0.7c0-0.5,0-1,0.1-1.4
	V4c-0.1-0.1-0.1-0.1-0.1-0.1V3.4c0-0.4,0-0.6,0.1-0.8c0.1,0,0.1,0,0.1-0.1V2.3c0.1-0.1,0.2-0.4,0.1-0.7c-0.1-0.4-0.1-0.7,0-0.8
	c0.3-0.4,0.7-0.5,1.2-0.5c0.4,0,1.3,0.1,1.6,0.1c0.6-0.1,1.4-0.1,2.6,0c0,0,0.1,0,0.4,0l0.6,0.4c0.1,0.1,0.1,0.4,0.1,1
	c0.1,0,0.1,0,0.1,0.1v1.1c-0.1,0.4-0.2,0.8-0.3,1.4c0.1,0.5,0.1,1.1,0.1,2.1c-0.1,0.3-0.1,0.5-0.1,0.6c-0.1,0.4-0.1,0.7,0,0.8
	c0.3,1.3,0.4,2.3,0.3,3.2c-0.1,0.1-0.1,0.2-0.1,0.4v0.2c0,0,0-0.1,0,0.4c0.1,0.6,0.1,1.3,0,1.9c-0.1,0-0.1,0,0,0.1
	c0,0.6,0.1,1.5,0.1,2v0.4c-0.1,0.1-0.1,0.3-0.1,0.6v0.3v0.1v0.6c0.1,0.1,0.1,0.3,0.1,0.7c-0.1,0.6-0.1,1.5,0,2.5c0,0.2,0,0.3,0,0.2
	c-0.1,0.2-0.1,0.3,0,0.4v0.1v0.4c-0.1,0-0.1,0-0.1,0.1v0.2c-0.1,0.1-0.1,0.3,0,0.6c0,0.2,0.1,0.5,0.1,0.9c0,0.3-0.1,1-0.1,1.3
	c0,0.5,0.1,2,0.1,2.6c-0.1,0.4-0.1,0.6-0.1,0.8c-0.1,0.1-0.1,0.1-0.1-0.1l0.1,1.4c0,0,0,0,0,0.1c0.1-0.2,0.1,0.2,0.1,1.3V31.7z"/>
<path class="st0" d="M188.8,49.7c-1.1-0.1-2.1-0.1-3.3-0.1c-1.2,0.1-2,0.1-2.1,0c0,0,0,0,0-0.1c-0.3,0-0.6,0.1-1,0.1l-0.3-0.3
	c-0.1,0-0.1,0-0.1-0.1c-0.2-0.6-0.2-1.8-0.3-3.5c0,0,0,0,0-0.1c-0.1-0.1-0.1-0.1-0.1-0.2c0.1-0.1,0.1-0.1,0.1-0.1l-0.1-0.6
	c0.1-0.3,0.1-0.7,0.1-1.3l-0.4-1.6c0-0.1,0-0.3,0.1-0.6c0-0.1,0.1-0.3,0.1-0.6c0.1-0.2,0.1-0.4,0-0.5c0-0.1,0-0.2-0.1-0.4l0.1-0.1
	c0-0.1,0-0.3-0.1-0.6v-0.8c0-0.1,0-0.4,0.1-0.7c-0.1-0.2-0.1-0.4-0.1-0.8c0-0.1,0-0.2,0.1-0.4c-0.1-2.3-0.1-4.5,0-6.5
	c0-1.3-0.1-2.2-0.2-2.7c-0.3-0.2-0.7-0.5-1.3-0.8h-1.6c-0.4-0.1-0.7,0.1-0.8,0.3c0,0.1,0,0.1,0,0.1c-0.1,0.2-0.1,0.4,0,0.5
	c0.1,0.6,0.1,1.3,0.1,2.1v0.1c0.1,0.5,0.1,1,0,1.4v0.4v0.3c0-0.2,0,0.5-0.1,2.3c-0.1,1.1-0.1,1.8,0,2.2c0.1,0,0.1,0,0.1,0.1
	c-0.1,0.1-0.1,0.3,0,0.5l-0.2,2.6v0.2c0.1,0.4,0.1,0.8,0.1,1.1c-0.1,0.4-0.1,1-0.1,1.7c0.1,0.4,0.1,0.8,0,1.3c0,0.4,0,0.6,0.1,1
	c0.1,0.1,0.1,0.2,0.1,0.8c0,0.4-0.3,1.3-0.3,1.8c0.1,0.4,0.2,1.4,0.1,2c-0.1,0.4-1.1,0.1-3,0.4l-0.1-0.1l-0.2,0.1
	c-0.2-0.1-1.3-0.1-0.9-0.1c-0.4,0-2,0.4-2.6-0.1c-0.3-0.2-0.3-2.4-0.2-2.8v-2.5c0.1-0.7,0.1-1.2,0-1.5v-1.5c0,0,0,0,0.1-0.1
	c-0.1-0.1-0.1-0.5-0.1-1.1c0,0,0-0.1,0-0.4c-0.1-0.1-0.1-0.3-0.1-0.4l0.1-0.9c0-0.1,0-0.5-0.1-1.4c-0.1-0.5-0.1-0.8,0-0.8
	c0.1-0.4,0.1-1.5,0.1-3.5c0-0.1,0-0.2,0.1-0.4c0-0.1,0-0.1-0.1-0.2V32l0.1-0.9c0-0.2-0.1-0.6-0.1-0.9c0-0.1,0-0.2,0.1-0.3
	c0,0,0,0-0.1-0.1c-0.1-0.1-0.1-0.7,0-1.8l0.1-0.1c-0.1-0.1-0.1-0.1-0.1-0.1c0.1-0.1,0.1-0.6,0.3-1.7l0.4-1.1c0-0.2-0.1-0.6-0.2-1
	c-0.1-0.1-0.1-0.1,0-0.1c0.1-0.1,0.1-0.2,0.1-0.3c0-0.2-0.1-0.6-0.2-1c-0.1-0.3-0.1-0.6,0-1.1l0.1-1.8c0-0.2,0-0.4-0.1-0.8
	c0.1,0.2,0.1-0.3,0.1-1.3c0-0.4,0-0.8-0.1-1.3c-0.1-0.5-0.1-0.9,0-1.1c0.1-0.4,0.1-0.8,0.3-1c-0.1-0.2-0.1-0.6-0.1-0.9
	c0.1-0.4,0.1-0.8,0.1-1.1l-0.2-0.4l0.1-0.2l-0.1-0.1v-0.9c0.1-0.1,0.1-0.2,0.1-0.3c-0.1,0-0.1-0.6-0.1-1.6c0,0,0-0.4,0-1l-0.1-1.5
	V5.2c0.1-0.3,0.1-0.5,0.1-0.6V3.5c-0.1-1.4-0.1-2.3,0.2-2.8c0.4-0.2,1.1-0.4,2.2-0.4c0.6,0.1,1.6,0.1,2.8,0c0.1-0.1,0.3-0.1,0.4-0.1
	c-0.1,0,0.4,0,1.3,0.1h0.1l0.6,0.1h0.1c0.1-0.1,0.1-0.1,0.2-0.1h1.1c0.2,0,0.5,0,1,0.1c0,0,0.1,0,0.3,0c0,0.1,0.1,0.1,0.1,0.1
	c0.1-0.1,0.2-0.1,0.4,0c0.6,0,1.8,0.4,2,0.6c0.3,0.2,0.8,0.8,2,0.8c0.1,0.2,0.4,0.4,0.7,0.7c0.1-0.1,0.1-0.1,0.2,0v0.1
	c0.2,0.2,0.4,0.4,0.6,0.5l0.6,1.3c0.1,0.1,0.1,0.1,0.1,0.1c-0.1,0.1-0.1,0.2,0,0.4c0.1,0,0.1,0.1,0.1,0.1v0.1l0.1,0.2v0.1
	c0.1,0.1,0.2,0.6,0.3,1.4c0.1,0.2,0.1,0.6,0.1,1c-0.1,0.2-0.1,0.5-0.1,1c0.1,0.1,0.1,0.5,0.2,1c0.1,0.2,0.1,0.6,0,1
	c-0.1,0.1-0.1,0.4-0.1,0.9c0.1,1.3,0,3.4-0.1,6.2c0,0.4-0.1,1-0.2,1.8c0,0.1-0.1,0.1-0.1,0.2l-0.4,1.2c-0.1-0.1-0.1-0.1-0.1,0v0.1
	c-0.1,0.2-0.3,0.3-0.4,0.3l-0.3,0.5c0,0.2-0.1,0.3-0.2,0.4v0.1c-0.3,0.2-0.8,0.4-1.4,0.7c-0.1,0-0.3,0.1-0.5,0.2
	c0.1-0.1,0.4,0.3,1.1,1.1c0.4,0.3,0.6,0.6,0.8,0.9c0,0.1,0.3,0.3,0.6,1.1l0.4,0.4c-0.1,0.1,0,0.3,0.1,0.4c0,0.3,0.4,1.5,0.4,1.8
	c0,0.6,0,1.1,0.1,1.3c-0.1,0.1-0.1,0.4-0.1,0.7c0,0.1,0,0.4,0.1,0.7c0,0.1,0,0.5-0.1,1.3c0.1,0.1,0.1,0.2,0.1,0.4
	c-0.1,0.2-0.1,0.4-0.1,0.7l0.1,1c-0.1,0-0.1,0-0.1,0.1v0.4c-0.1,1.9,0,4.3,0.1,6.9l0.5,3.4c0.1,0.4,0.3,0.8,0.4,1.1
	c0.3,1.8,0.1,2.5,0.2,2.3C189.5,49.5,189.3,49.6,188.8,49.7z M181.6,14V13c0.1-0.2,0.1-0.4,0.1-0.5c0-0.2,0-0.7-0.1-1.5
	c0-0.2,0-0.7,0.1-1.5c0-0.5,0-1-0.1-1.5c0.1-0.2,0.1-0.6,0-1.1l-0.5-1.6c-0.2-0.2-0.6-0.4-1-0.7c-0.1,0.1-0.4,0.2-0.8,0.2
	c-0.2,0-0.8-0.3-1.1-0.3L177.5,5c0.1,0.7,0,1.5-0.1,2.3v1.1c0,0.2,0,0.4,0.1,0.5v0.5c0,0.1,0,0.1-0.1,0.2v0.3c0,0.8,0.1,2.8,0.1,3.6
	c-0.1,0.2-0.1,0.6-0.1,1c0,0.1,0,0.2,0.1,0.4v0.6c-0.1,0.1-0.1,0.1-0.1,0.2c-0.1,0.8-0.1,1.6,0,2.4c-0.1,0.3-0.1,0.6-0.1,1.1
	c0.1,0.1,0.1,0.1,0.1,0.1v0.3c0,0.3-0.2,1-0.2,1.3c0.5,0,1.1,0,1.7-0.1c0.2,0.1,0.6,0.1,1.1,0l0.8-0.5c0-0.2,0.6-1.7,0.6-2.5v-1.2
	v-1.2c0.1-0.6,0.1-1,0.1-1.2C181.6,14.3,181.6,14.2,181.6,14z"/>
<path class="st0" d="M208.6,49.3c-0.2,0.1-0.9,0.2-2.3,0.3c-0.4,0-1.7,0.2-2.3,0.2l-0.9-0.1c-0.1,0-0.2,0-0.4,0.1h-0.4
	c0.1,0-0.1,0-0.6-0.1c-0.2,0-0.6-0.1-0.9,0c-0.1,0.1-0.3,0.1-0.5,0.1c-0.2,0-0.6-0.1-0.8-0.1h-0.5c-0.1,0.1-0.4,0.1-0.8,0.1
	c-0.1,0-0.3,0-0.5-0.1h-1.9c-0.1-0.1-0.1-0.1-0.4-0.1c-0.2,0.1-0.5,0.1-0.9,0.1c-0.1-0.1-0.3-0.2-0.6-0.3c-0.1-0.1-0.1-0.4-0.1-0.7
	v-0.1l-0.1-0.1c0.1-0.1,0.1-0.2,0.1-0.5c0-0.6,0-0.9-0.1-0.7v-0.6c0.1-0.7,0.1-1.7,0.1-3c-0.1-0.1-0.1-0.3-0.1-0.5v-0.4
	c-0.1-0.3-0.1-0.4-0.1-0.2c0.1-0.6,0.2-1.1,0.2-1.4v-0.5c-0.1-0.4-0.1-0.5-0.1-0.6c0.1-0.8,0.1-1.5,0.1-2.1
	c-0.1-1.1-0.1-1.6-0.1-1.6c0.1-0.4,0.1-0.4,0.1-0.2c0-0.4-0.3-1.6-0.3-2.2c0.1-0.3,0.2-0.7,0.3-1.3c0,0.4,0,0.1-0.1-0.7
	c0,0,0-0.2,0-0.7l-0.1-0.8v-0.5c0.1-0.2,0.1-0.4,0.1-0.5v-0.5c-0.1-0.2-0.1-0.4-0.1-0.5c0.1-2.8,0.1-5,0-6.8
	c-0.1-2.2-0.1-3.3-0.1-3.4l0.1-2.1c0-0.1,0-0.1-0.1-0.4v-0.4c0,0.3,0,0.1,0.1-0.6V6.9c0-0.2-0.1-1.1-0.1-2.6c-0.1-0.4,0-2.2,0.2-2.9
	c0-0.2,0-0.7,0.2-0.9c0.1-0.2,0.4-0.4,0.5-0.3c0.1-0.2,0.4,0,0.9-0.1l0.7,0c0.4-0.1,0.9,0,1.5,0h0.3c0.1,0.1,0.1,0.1,0.2,0.1h0.3
	c0.1-0.1,0.1-0.1,0.2-0.1c0.7,0,1.1,0,1.1,0c1.3-0.1,1.8-0.1,1.6-0.1c0.4,0.1,0.5,0.1,0.5,0.1c0.1-0.1,0.1-0.1,0.1-0.1
	c0.1,0,0.1,0,0.3,0.1l1.3-0.1c0.1,0.1,0.1,0.1,0.1,0.1c0.4-0.1,0.5-0.1,0.4-0.1h0.8c0.3,0,0.7,0.1,0.7,0.2c0.1,0.2,0.4,0.2,0.5,0
	c0.1-0.1,0.3-0.1,0.4-0.1c0.4-0.2,0.9,0.2,1.2,0.1c0.4,0,0.6,0.3,0.9,0.9c0,0.3,0.1,1.2,0.1,1.6c-0.1,0.3-0.1,1.3-0.1,1.5
	c-0.1,0.3-0.2,0.6-0.6,0.7h-0.9c-0.1,0.1-0.3,0.1-0.6,0.1c-0.2,0-0.5-0.1-0.7-0.1c-0.3,0.1-0.7,0.1-1.2,0.2h-0.6h-0.3H203h-0.4h-0.4
	H202h-0.3c-0.1,0.1-0.3,0.2-0.4,0.4v0.2c-0.1-0.1,0,0.1-0.1,0.1v0.2c0,0.5-0.1,1.1-0.1,2C201,8,201,8,201,8c0-0.4,0-0.1,0.1,0.5
	c0.1,0.8,0.1,1.8,0,3.1l-0.1,0.1c0.1,0.1,0.1,0.1,0.1,0.4c-0.1,0.2-0.1,0.6-0.1,1c0,0.1,0,0.2,0.1,0.4V14c-0.1,0.7-0.1,1.3-0.1,1.8
	c0.1,0.2,0.1,0.6,0.1,1.1C201,17.4,201,18,201,19l0.2,0.8h0.4c0.7-0.1,1.3-0.1,1.6,0c1.1,0.1,1.6,0.1,1.5,0.1h0.1
	c0.1-0.1,0.2-0.2,0.4-0.2c0.2,0,0.4,0.2,0.5,0.3c0.2,0,0.6,0.1,0.9,0.3c0.3,0.3,0.4,1,0.4,1.1c-0.1,0.3-0.1,0.6,0,0.8
	c0.1,1.2,0.1,2-0.1,2.3c0,0,0,0,0,0.1c-0.1,0.2-0.4,0.4-1,0.6h-0.1c-0.1,0.1-0.9,0.1-2.6,0.2c-0.1,0.1-0.1,0.1-0.2,0.1h-0.2
	c-0.1-0.1-0.2-0.1-0.3-0.1c-0.2,0-1.5-0.1-1.7,0.7l-0.1,0.1v0.6c0,0,0,0-0.1,0.1c0.1-0.1,0.1,0.3,0.1,1.3c0,0,0,0.1,0,0.5l-0.1,1
	c0-0.2,0,0.1,0.1,0.9c0,0,0,0.2,0,0.6c0.1,0.4,0.1,0.6,0.1,0.9v0.4c0,0.1,0,0.1,0.1,0.1v0.5c-0.1,0.1-0.1,0.3-0.1,0.4l-0.1,1.6V35
	l-0.1,0.1c0-0.6,0.1,1,0.1,1.8c0.1,1.6,0.1,2.3,0.1,2.1l-0.2,1c0-0.1,0.1,0.6,0.1,1.9c0.1,0,0.1,0,0.1,0.1v0.4l0.1,0.1v0.2
	c-0.1,0.1-0.1,0.1-0.1,0.2v0.4c0,0.1,0,0.1-0.1,0.4c0-0.1,0,0,0.1,0.4c-0.1,0.2,0.1,0.4,0.2,0.4h1.7c0.5,0,1.2,0.1,2.1,0.1
	c0.2,0,0.4,0,0.4,0.1c0.2,0,0.4-0.1,0.6-0.1c0,0,0.3,0,0.8,0.2c0.2-0.1,0.6,0,1.1,0.1c0.1,0,0.1,0,0.1,0.1l0.1,0.1h0.1
	c0.1,0.1,0.1,0.3,0.1,0.4l0,0.2l0-0.1l0.1,0.3c0,0.1,0,0.5,0.1,1.4C208.9,47.8,208.8,48.6,208.6,49.3z"/>
<path class="st0" d="M240.4,46c0.2,0,0,0,1.1,0c0.2,0,0.5,0,0.9,0.1c0,0.1,0.1,0.3,0,0.5l-0.1,0.5c0,0.5,0,0.7,0,0.7
	c0,0.2,0,0.3,0,0.5c0,0.1,0,0.2,0,0.1c0,0,0.1,0.3,0.1,0.5c0,0,0,0.1-0.1,0.2c0,0,0,0,0,0c0,0.1-0.1,0.2-0.1,0.2l-0.1,0
	c-0.1,0-0.2,0.1-0.2,0.2c-0.1,0-0.3,0-0.6,0h-1.5c-0.4,0-0.5,0-0.4,0l-0.7,0.1c-0.3-0.1-0.8-0.1-1.4-0.2c-0.2-0.3-0.3-0.5-0.3-0.8
	c0,0,0-0.1,0-0.2v-0.1c0-0.2,0-0.5,0-0.8c0.1-0.1,0.4-0.1,0.9-0.1c0-0.1,0-0.3-0.1-0.4c-0.1,0-0.1,0-0.2,0.1l0,0.1
	c-0.1,0-0.2,0.1-0.3,0.1c-0.3,0-0.4-0.2-0.4-0.5c0-0.1,0-0.1,0-0.2l0.1,0v-0.1l0.3-0.3c0.1,0,0.3,0,0.7,0c0.3,0,0.5,0,0.6-0.1
	c0,0,0.1-0.2,0.3-0.2C239.6,46,240.1,46,240.4,46z"/>
<path class="st0" d="M221.6,32.8h0.5c0.4,0,0.6,0.2,0.7,0.3v0.2h0.1v0.2c0-0.1,0,0.5-0.1,1.7c0,0.1,0,0.3,0,0.6l-0.1,0.5v0.5
	c-0.1,0.2-0.2,0.3-0.4,0.3c0,0-0.2,0-0.7-0.1c-0.4,0-0.9,0-1.6,0c-0.7,0-1,0-0.8,0c-0.2,0-0.4,0-0.8,0.1h-0.7c-0.1,0-0.2,0-0.4,0
	H217c-0.8,0-1.1,0-1,0c-0.1,0-0.3,0.2-0.7,0.5c0,0-0.2,0.3-0.2,0.6c0,0.2,0,0.3,0.2,0.6c0,0,0,0,0.1,0c0,0,0,0,0,0l0.5,0.5l0.3,0.2
	c0.1,0,0.2,0,0.4,0c0,0,0.1,0,0.1,0c0,0,0,0,0.1,0h0.1l0.6,0.1c0,0,0.3,0,0.7,0c0,0,0.2,0,0.5,0.1l0.5-0.2c-0.1,0,0,0.1,0.5,0.1
	c0,0,0,0,0.1,0c0.1,0,0.3,0,0.8,0c0,0,0,0,0,0h0.1c0,0,0,0,0.1,0l2.2,0c0,0,0,0,0.1,0c0,0,0.2,0,0.3,0h0.6c0.1,0,0.2,0,0.3,0h0.3
	c0.1,0,0.2,0,0.3,0c-0.2,0,0.2,0,1.2,0c-0.1,0,0.3,0,1.1,0c0,0,0,0,0.1,0c0,0,0.1,0,0.1,0c0,0,0.1,0,0.3,0c0.1,0,0.3,0,0.6-0.1
	c0,0,0.1,0,0.1,0h0.3c0.1,0,0.1,0,0.2,0c0.1,0,0.2,0,0.3,0h0.4c0.3,0,0.5,0,0.7,0c0.1,0,0.2,0,0.3,0c0.2,0,0.3,0,0.4,0
	c0,0,0.1,0,0.2,0h0.2c0.4,0,0.9,0,1.4,0c0.2,0,0.4,0,0.8-0.1c0,0,0,0,0.3,0c0.7,0.1,1.9,0.1,3.6,0c0.1,0,0.3,0,0.7,0
	c0.3,0,0.6-0.1,0.6-0.3c0,0,0-0.1,0.1-0.1c0,0,0.2-0.2,0.2-0.3c0.1-0.3,0-0.5-0.1-0.7l-0.1-0.1V38c0,0,0-0.1-0.1-0.3
	c0,0,0-0.2,0-0.3c-0.3,0-0.6,0-0.7-0.1h0h-0.2h-0.1c-0.3-0.1-0.7-0.1-1.2-0.1c0,0-0.2,0.1-0.5,0.1c-0.2,0-0.3,0-0.4-0.1H234
	c-0.1,0-0.2,0.1-0.2,0.1c0,0-0.1,0-0.2-0.1c-0.6,0-1.3,0-2.2,0c-0.2,0-0.3,0-0.2,0c-0.1,0,0,0-1.1,0c-0.1,0-0.3,0-0.8,0
	c-0.3,0-0.5,0-0.5,0h-0.1c-0.1,0-0.3-0.2-0.4-0.3c0-0.4,0-0.6,0-0.7c0-0.1-0.3-0.3-0.3-0.6c0-0.1,0-0.2,0-0.3v-0.1
	c0-0.1,0-0.2,0-0.3v-0.2c0-0.6-0.1-1-0.1-1c0-0.2,0-0.4,0.2-0.7c0.1,0,0.5-0.1,0.5-0.1c0,0,0,0,0.1,0c0.5,0,0.9,0.1,1.2,0
	c0,0,0.1,0,0.2,0c-0.2,0,0.2,0,1.1,0c0.2,0,0.5,0,0.8,0c0,0,0,0,0.1,0c0,0,0.1,0,0.1,0l0.7-0.1c0.2,0,0.6,0.1,0.8,0.1
	c0.5,0,1,0,1.7,0h0.4c0.2,0,0.3,0,0.4,0s0.2,0,0.4,0h0.4c0.1,0,0.4,0,1,0c0.1,0,0.2,0,0.3,0.1h0.1l0.2,0.1c0.2,0,0.4,0,0.7,0.1
	c0.1,0,0.2,0.1,0.4,0.2c0,0,0.1,0.1,0.3,0.1l0.1,0.1h0c0,0,0.1,0.2,0.3,0.3c0.2,0.1,0.5,0.4,0.8,0.9c0.1,0.1,0.3,0.5,0.4,0.7v0.1
	c0,0,0,0,0,0l0,0.1c0,0,0.1,0.2,0.1,0.4c0,0,0,0.1,0,0.1v0.2c0,0,0,0.2,0,0.3c0,0,0.1,0.3,0.1,1.4c0,0.6,0,1.4-0.2,2.3
	c0,0.2-0.2,0.5-0.4,1.1h0v0c0,0,0,0.1-0.1,0.1v0.1l-0.1,0.1c-0.1,0.1-0.4,0.5-0.9,1c-0.1,0-0.3,0.2-0.5,0.4c-0.1,0-0.2,0-0.4,0.2
	c-0.1,0-0.2,0.2-0.6,0.2v0c0,0-0.1,0-0.1,0h-0.1l-0.4,0.2l-0.8,0c0,0,0,0,0,0c-0.7,0-1.2,0.1-1.6,0.1c0,0-0.1,0-0.1,0
	c-0.1,0-0.2,0-0.4,0c0,0-0.1,0-0.2,0c-0.2,0-0.4,0-0.7,0c-0.1,0-0.3,0-0.5,0c0,0,0,0-0.1,0c-0.1,0-0.2,0-0.3,0c0,0-0.1,0-0.1,0h-0.1
	c0,0-0.1,0-0.1,0H232c-0.5,0-0.7,0-0.7,0c-0.7,0-0.9,0-0.8,0l-4.5,0c-0.1,0-0.2,0-0.2,0c-0.6,0-0.8,0-0.7,0c0,0-0.1,0-0.3,0h-1.7
	c-0.1,0-0.3,0-0.5,0c-0.2,0-0.5,0-0.9,0l0,0c0.1,0,0,0-0.2,0c0,0-0.1,0-0.3,0c-0.1,0-0.3,0-0.5,0h-0.5l-2,0.1c-0.2,0-0.7-0.1-1-0.1
	c-0.1,0-0.4,0-0.8,0.1c-0.3,0-0.5,0-0.6,0v-0.1l-0.1-0.1c-0.3,0-0.5,0-0.7-0.2l-0.4,0.1c0,0-0.1,0-0.3-0.1c0,0,0,0,0,0h-0.1
	c0,0-0.2-0.2-0.5-0.3c-0.1,0-0.3-0.7-0.5-1H213c0,0-0.1-0.3-0.2-0.6c0-0.1-0.3-0.2-0.3-0.3c0-0.1,0-0.2,0.1-0.3l-0.2-1
	c-0.1,0-0.2-0.5-0.3-1.3c0,0,0-0.1,0-0.2v-0.5c0-0.2,0-0.6,0.1-1.1c0,0,0-0.6,0-0.6c0-0.2,0.3-0.3,0.3-0.3c0,0,0-0.1,0.2-0.5
	c0.1,0,0.2-0.2,0.2-0.7c0,0,0.1-0.3,0.1-0.5h0.1l0.1,0c0.1,0,0.1,0,0.1-0.1c0-0.3,0.1-0.5,0.2-0.6c0.1,0,0.3,0,0.6-0.1
	c0,0,0.1-0.1,0.2-0.2c0,0,0.1,0,0.2-0.1l0,0c0.2-0.2,0.4-0.3,0.7-0.3c0.1,0,0.3,0,0.5,0.1c0,0,0.3-0.1,0.9-0.2c0.1,0,0.3,0,0.5,0
	h1.8c0,0,0,0,0,0h0.4c0,0,0,0,0,0c0.1,0,0.3,0,0.5,0c0,0,0.1,0,0.2,0h0.3c-0.1,0,0,0,0.2,0c0.1,0,0.5,0,1,0
	C221.5,32.8,221.5,32.8,221.6,32.8z"/>
<path class="st0" d="M227.9,18.9h0.1h0.7c0.6,0.1,1.1,0.1,1.6,0c0.1,0,0.2,0,0.2,0c0.1,0,0.3,0,0.6,0c-0.1,0,0,0,0.3,0h0.7h0.4h0.7
	h0.8h0.6h1.1h1.1c0.2,0,0.6,0,1.1,0c0,0,0.2,0,0.4,0.1h0.1c0,0,0.1,0,0.2,0.1c0,0,0.1,0,0.3,0.1l0.6,0.1c0,0,0,0,0.1,0
	c0.3,0,0.4,0,1.3,0.7c0,0.1,0.2,0.2,0.3,0.3l0.8,1.1c0,0,0,0,0,0.1v0.1h0v0.1c0,0,0,0.1,0.1,0.3c0,0,0,0,0,0
	c0.2,0.8,0.3,1.5,0.3,2.1c0,0.2,0,0.6-0.1,1v0.2l-0.2,1c0,0.2,0,0.4-0.1,0.4v0l-0.1,0.1c0,0,0,0,0,0.1l-0.2,0.3c0,0,0,0.1,0,0.2
	c0,0-0.1,0-0.1,0v0.1v0.1l-0.1,0.1l-0.1,0.1c0,0.2-0.7,0.8-0.9,1h-0.1v0h0l-0.2,0.1h-0.1v0H240v0H240v0.1h-0.1h-0.1
	c-0.1,0.1-0.2,0.3-0.4,0.3c0,0-0.4,0-1.1,0.2h-0.1c0,0,0,0,0,0c0,0-0.1,0-0.1,0c0,0-0.1,0-0.1,0c0,0,0,0-0.1,0c-0.5,0-0.8,0-0.9,0
	c-0.1,0-0.2,0-0.1,0c0,0-0.1,0-0.1,0h-0.3c0,0,0,0-0.1,0H236c0,0-0.1,0-0.2,0c0.2,0,0.1,0-0.4,0c-0.5,0-0.8,0-0.9,0l-0.9,0.1
	c-0.2,0-0.5,0-1,0h-0.1c0,0-0.1,0-0.1,0c-0.1,0-0.3,0-0.7,0l0,0h0c-0.1,0-0.3-0.1-0.3-0.1c-0.1,0-0.3,0-0.5,0.1l-0.4,0.1
	c-0.4,0-1,0-1.7,0c-0.6,0-0.9,0-0.8,0h-0.9c-0.2,0-0.6,0-1.3,0c-0.5,0-0.9-0.1-1.2,0c-0.1,0-0.4,0-0.8,0.1h-1.3c-0.2,0-0.3,0-0.4,0
	c0,0-0.2,0-0.3,0h-1.1c0,0,0,0-0.1,0c-0.2,0-0.4,0-0.7,0c0,0,0,0,0,0c-0.1,0-0.3,0-0.5,0c-0.2,0-0.4-0.1-0.5-0.1
	c-0.2,0-0.7,0.1-0.8,0.1c0.3,0,0,0-1,0c-0.5,0-1,0-1.5-0.2l-1-0.2c-0.2-0.3-0.3-0.3-1-0.6c0,0-0.2-0.2-0.6-0.5c0,0-0.1,0-0.2-0.1
	c0-0.1-0.1-0.3-0.2-0.6l-0.1-0.4c-0.1-0.3-0.3-0.7-0.4-1.2v-0.1c0-0.2,0-0.4,0-0.8v-0.1l0,0c0-0.1,0-0.2,0-0.3v-0.3c0,0,0-0.1,0-0.3
	c0-0.1,0-0.4,0-0.9c0-0.2,0-0.3,0-0.6c0,0,0,0,0-0.1c0,0,0,0,0.1,0l0.2-0.7l0.1-0.1v0l0,0c0-0.2,0.2-0.4,0.3-0.7l0.1-0.2l0.2-0.2
	c0,0,0,0,0.1-0.1v-0.1c0.1,0,0.3-0.2,0.4-0.3l0.5-0.3l0.6-0.2l0-0.1c0,0,0.2-0.1,0.5-0.2c0.1,0,0.5-0.1,1.1-0.3l0.8-0.1
	c0.2,0,0.9,0.1,1.1,0.1h1c0,0,0.1,0,0.3,0h0.8c0,0,0.2-0.1,0.3-0.1c0,0,0.1,0,0.3,0.1h0.8l0.1-0.1l0.1,0.1h0.5
	c0.1,0,0.2-0.1,0.3-0.1c0,0,0.2,0.1,0.3,0.1h1.7c0.2,0,0.9-0.1,1.1-0.1c0.2,0,0.6,0.1,0.8,0.1c0.2,0,0.7-0.1,0.8-0.1
	C227.1,18.8,227.2,18.9,227.9,18.9z M236.4,23.2c-0.1,0-0.2,0-0.4-0.1h-0.1c-0.2,0-0.8,0.1-1,0.1c-0.2,0-0.5-0.1-0.7-0.1
	s-0.7,0.1-0.8,0.1c-0.9,0-1.3,0-1.2-0.1l-1.1,0.1h-0.2h-0.1c-0.2,0-0.7,0-1.3,0c0,0,0,0,0,0h-0.7h-0.3c-0.6,0-1.1,0-1.7,0l-0.1-0.1
	h-2.7l-0.7,0.1c0,0-0.1,0,0-0.1c-0.1,0-0.4,0.1-0.5,0.1c-0.2,0-0.6,0-1.1-0.1c-0.2,0-0.7,0.1-0.8,0.1h-0.3h-0.3H218l-0.1,0
	c-0.1,0-0.3,0-0.5,0c-0.3-0.1-0.5-0.1-0.8,0h-0.1c-0.7,0.1-1.1,0.5-1.2,1.1c0-0.2-0.1,0.5,0.5,1c0,0.2,0.2,0.3,1.7,0.3
	c0.5,0,1.4,0,2.7,0.1c0.5,0,1.6-0.1,2-0.1c0.1,0,0.2,0,0.3,0h0.3c0.3,0,0.5,0,0.5,0c0.4,0,0.6,0,0.5,0l0.7,0.1c0,0,0,0,0.1,0h0.1
	c0,0,0.1,0,0.2,0h0.3c0,0,0.1,0,0.2,0c0,0,0,0,0.1,0c2.1,0,3.1,0,3.1,0c0.6,0,0.8,0,0.7,0c0.2,0,0.8,0.1,1,0.1h0.3
	c0.1,0,0.2,0,0.3,0c0.4,0,1,0,1.8,0.1h0.3c0.1,0,0.3,0,0.3,0c0.1,0,0.2,0,0.3,0h0.3c0,0,0.3,0,0.6,0c0.7,0,1.5-0.1,2.1,0
	c0.2,0,0.3,0,0.2,0l0,0c0.6,0,1,0,1.1,0c0,0,0.2-0.1,0.4-0.2c0.2-0.7,0.3-1,0.3-1c0-0.1-0.1-0.3-0.2-0.6c0-0.2-0.3-0.2-0.9-0.7
	c-0.1,0-0.3,0-0.5,0c-0.3,0-0.4-0.1-0.5-0.1C236.9,23.1,236.3,23.2,236.4,23.2z"/>
<path class="st0" d="M213.8,0.1c0.2,0,0.5-0.1,0.5,0c0-0.1,0.2-0.1,0.5-0.1c0.3,0,0.6-0.1,0.8,0.2c0.3,0,0.5-0.1,0.8,0.1l0.4,0
	c0,0,0.1,0,0.1,0c0,0,0.1,0,0.1,0h0.4c0,0,0.2,0.1,0.3,0.1l0.5-0.1l0.4,0.1h0.5c0.1,0,0.3,0.1,0.5,0.1h1.7h0.2l0.7-0.1l0.5,0.1
	c0.6,0,1.3,0,2.3,0c0.1,0,0.3,0,0.3,0c0.1,0,0.1-0.1,0.5-0.1c-0.1,0,0.2,0.1,0.2-0.1c0,0,0.3,0,0.3-0.1l1,0c0.1,0,0.2,0,0.3,0
	c0.1,0,0.5,0.1,0.7,0.1l1.5-0.1c0.2,0,0.4,0.1,0.7,0.1h0.5c0.1,0,0.4,0,0.7,0.1c0.2,0,0.6-0.1,0.7-0.1l0.6,0c0,0,0.7,0,0.8,0
	c0.6,0,1.1,0,1.7,0c1,0,1.5,0,1.5,0c0.7,0,1.6,0,2.8,0c0,0,0,0,0,0.1c0,0,0,0,0-0.1c0.1,0,0.2,0,0.4,0c0.1,0,0.5,0,0.4,0l0.3,0
	c0.2,0,0.3,0,0.7,0c0.1,0,0.2,0,0.2,0c0,0,0.2,0,0.2,0c0.1,0,0.2,0,0.2,0.1c0,0.2,0.1,0.3,0,0.2l0,0.4c0,0,0,0.2,0.1,0.3
	c0,0.6,0,0.9,0,0.9c0,1,0,1.6,0,1.7L242.3,4v0.2c0,0,0,0.1-0.1,0.2l-0.3,0.1c0,0-0.2,0-0.5,0h-0.3c-0.2,0-0.6-0.1-0.8-0.1h-0.2h-0.6
	h-0.7h-0.3c-0.7,0-1.5,0-2.3,0.1c-0.3,0-0.8,0-1.4,0h-0.5c-0.3,0-0.4-0.1-0.3-0.1c0,0-0.3,0.1-0.4,0.1l-0.9-0.1h-1
	c-0.8,0-1.7,0-2.5,0c-0.6,0-0.9,0-1.1,0h-1.1c0,0-0.2-0.1-0.3-0.1c-0.1,0-0.3,0.1-0.5,0.1c-0.1,0-0.3,0-0.6,0c-0.8,0-1.2,0-1,0
	c-0.3,0-1.1-0.1-2.2-0.2h-1.1c-0.1,0-0.2,0-0.3,0c-0.2,0-0.3,0-0.4,0c0,0-0.1,0-0.1,0c-0.3,0-0.4,0-0.6,0C219.8,4,219.6,4,219.5,4
	h-0.1c0,0.1-0.1,0.1-0.1,0.1c0,0.2-0.2,0.3-0.6,0.2c0,0.1-0.1,0.2-0.2,0.3c0,0.1,0.2,0.1,0.2,0.2l0.1-0.4c0.5,0,0.8,0,1,0.1
	c0.2,0,0.4,0,0.6,0c0.3,0,0.6,0.1,0.7,0.1h0.1c0,0,0.3,0,0.7,0h1.4c0,0,0.3,0.1,0.7,0.1h0.2h0.2l1,0.2c0,0,0.2,0,0.3,0
	c0.3,0,0.7,0.1,1.5,0.2c0,0,0,0,0,0h0.2c0,0,0.1,0.1,0.3,0.1l0,0c0.1,0,0.3,0,0.6,0c0.2,0,0.5,0,0.9,0l1.8,0.2l0.9,0.2
	c0.3,0,0.9,0,1.5,0l0.4,0.1h0.6c0,0,0.2,0.1,0.3,0.1c0.3,0,0.6,0,1.1,0.1l1.3,0.2c0.4,0,0.8,0,1.2,0c0.7,0,1,0,0.8,0.1
	c0.3,0,0.7,0.1,1.2,0.2c0.2,0,0.5,0,0.9,0c0.1,0,0.4,0,0.9,0.1c0,0.1,0.1,0.3,0.2,0.6c0,0.2,0,0.4,0,0.8l0.1,0.5c0,0.3,0,0.6,0,1
	c0.1,0.5-0.7,0.7-2.2,0.7h-0.4c-0.3,0.1-0.9,0.2-1.9,0.3h-0.1c0,0,0,0,0,0c-0.2,0-0.5,0-0.8,0.1c0,0-0.1,0.1-0.1,0
	c-0.3,0.1-0.6,0.1-1.2,0.1l-0.8,0l-0.4,0.1c-0.2,0-0.6,0-1,0c0,0-0.2,0-0.3,0l-1.9,0.2c0,0-0.1-0.1-0.1,0c0,0,0,0-0.1,0H230l-1,0.2
	h-0.4c-0.1,0-0.3,0-0.6,0.1h-0.5l-0.7,0.1h-0.1l-0.5,0c-0.1,0-0.2,0.2-0.3,0.1c0,0,0,0-0.1,0l-0.6,0.1c-0.2,0-0.6,0-1,0
	c-0.1,0.1-0.4,0-0.7,0.1c0,0-0.3,0.1-0.6,0.1c0,0-0.2,0-0.5,0c-0.5-0.1-1-0.2-1.2,0.1c-0.1,0-0.2,0.1-0.6,0.1h-0.3
	c-0.1,0-0.3,0-0.6,0.2c-0.1,0-0.2,0-0.2,0c0,0-0.1,0-0.1,0.1c0,0.1,0,0.1,0.1,0.1c0,0,0,0.1,0,0.1c0,0,0.1,0,0.2-0.1
	c0,0,0.1,0,0.2,0l0.1,0c0,0,0.2,0,0.3,0c0,0,0.1,0,0.2,0c0,0,0.1,0,0.2,0l0.2-0.2c0.1,0,0.2,0,0.2-0.1c0.1,0,0.3,0.1,0.5,0.2
	c-0.1,0,0,0,0.3,0c0,0,0,0,0.1,0c0.1,0,0.2,0,0.4,0h0.1c0,0,0,0,0,0c0,0,0.3,0,0.7,0c0.3,0,0.4,0,0.6,0c0.1,0,0.2,0,0.4,0l0.1-0.1
	h0.1l0.6-0.1c0,0,0,0,0.1,0c-0.1,0,0.1,0,0.7,0c0,0,0.2,0,0.3,0h0.3l1.8,0.1c0.1,0,0.3,0,0.7,0c0,0,0,0,0,0c0,0,0,0,0,0h0.5
	c0.2,0,0.4,0,0.6,0h3.6h0.2c0.1,0,0.2,0,0.2,0c0.1,0,0.2,0,0.4,0h0.4c0.1,0,0.3,0,0.5,0.1c0.5,0,0.9,0,1.4,0c0.1,0,0.3,0,0.4,0
	c0.5,0,1.2,0,2.2,0c0,0,0.1,0,0.2,0h0.2c0,0,0.3,0,0.7-0.1c0.2,0,0.4,0,0.7,0c0.4,0,0.5,0.1,0.5,0.1c0,0,0.1,0,0.1,0
	c0,0,0.2,0,0.3,0c0.2,0.2,0.3,0.8,0.3,1.6c0,0.6,0,0.9,0,1l-0.2,1c-0.2,0.1-0.4,0.1-0.7,0.1h-0.1c0,0,0,0-0.1,0c0,0,0,0-0.1,0h-0.1
	c-1.1,0-1.5,0-1.3,0c0,0,0,0,0,0c0,0-0.3-0.1-0.7-0.1c-0.1,0-0.2,0-0.3,0h-0.3c0,0-0.2,0-0.6,0c-0.2,0-0.4,0-0.6,0h-0.1
	c-0.1,0.1-0.1,0.1-0.2,0c0,0-0.6,0-1.8-0.1c-0.8,0-1.7,0-2.7,0l0,0c-0.1,0-0.5,0-1,0c-0.6,0-1.1,0-1.7,0.1c-0.2-0.1-0.6-0.1-1,0
	c0,0-0.1,0-0.1,0c0,0-0.1,0-0.1,0h-0.4c-0.2,0-0.3,0-0.4,0c-0.1,0-0.3,0-0.5,0h-0.5c0,0,0,0,0,0l-0.1,0c-0.3,0-0.6,0-1.1,0
	c0,0,0,0-0.1,0c-0.1,0-0.3,0-0.6,0c0,0-0.3,0-0.9,0c0,0,0,0-0.1,0h-0.7l-0.5,0.1c-0.2,0-0.6,0-1,0c0,0-0.1,0-0.4,0
	c-0.3,0-0.9,0-1.6,0.1c0,0,0,0-0.2,0c0,0-0.1,0-0.2,0h-0.8H217c-0.1,0-0.2,0-0.3,0c-1,0-2,0-3,0c-0.2,0-0.7,0-1.2,0l-0.3-0.3
	c0-0.1,0-0.2,0-0.3c0,0,0-0.1-0.1-0.2c0-0.7,0-1.3,0-1.6c0-2.3,0-3.6,0-3.9c0,0,0.4-0.2,1-0.4c0.2,0,0.6,0,1,0c0,0,0.1,0,0.2-0.1
	l2.2-0.3h0.1h0c0.1,0,0.3,0,0.5,0c0.1,0,0.2,0,0.4,0h0.4c0,0,0,0,0-0.1c0.2,0,0.5,0,0.9,0c0.2,0,0.4-0.1,0.8-0.2c0.2,0,0.5,0,1,0
	c0.1,0,0.3,0,0.6-0.1c0.1,0,0.3,0,0.5,0h0.4c0.8,0.1,1.5,0.1,1.9,0.1c0,0,0.1,0,0,0h0.4l0.2-0.1l0.2,0.1h0.1V8.3c0,0-0.1,0-0.1,0
	c-0.1,0.1-0.1,0.1-0.1,0.1c-0.1,0,0-0.2-0.3-0.2c0,0-0.2,0-0.3,0c0,0-0.1,0-0.3,0c-0.3,0-0.5,0-0.7,0c0,0-0.1,0-0.3,0
	c-0.8,0.1-1.6,0.1-2.1,0h-0.5c0,0-0.1,0-0.1,0L219.4,8L218.9,8c0,0-0.1,0-0.3-0.1c-0.3,0-0.7,0-1.3-0.1l-0.2-0.1
	c-0.3,0-1.1-0.1-2.3-0.2c-0.1,0-0.3,0-0.5-0.2c-0.4,0-0.8,0-1.2,0c-0.3,0-0.9,0-0.9-0.4c0,0.3-0.1-0.3,0-1.1V5.6c0-0.1,0-0.2,0-0.3
	c0-0.3,0-0.6,0-0.9V4.3c0,0,0,0,0-0.1c0,0,0-0.1,0-0.2V3.8c0-0.4,0-0.6,0-0.6c0-0.6,0-0.8,0-0.6c0,0-0.1-1.4,0-1.7
	c0.1-0.3,0.4-0.6,0.7-0.6c0.1,0,0.3-0.1,0.7,0C213.4,0.2,213.7,0.1,213.8,0.1z"/>
<g>
	<path class="st0" d="M254.6,4.6c0,2.6-2,4.6-4.7,4.6c-2.6,0-4.7-2-4.7-4.6c0-2.5,2.1-4.6,4.7-4.6C252.5,0,254.6,2.1,254.6,4.6z
		 M246.3,4.6c0,2,1.5,3.7,3.6,3.7c2,0,3.5-1.6,3.5-3.6c0-2-1.5-3.7-3.5-3.7C247.8,1,246.3,2.6,246.3,4.6z M249.2,7h-1.1V2.4
		c0.4-0.1,1-0.1,1.8-0.1c0.9,0,1.3,0.1,1.6,0.3c0.3,0.2,0.4,0.6,0.4,1c0,0.5-0.4,0.9-0.9,1.1v0.1c0.4,0.2,0.7,0.5,0.8,1.1
		c0.1,0.7,0.2,1,0.3,1.1H251c-0.1-0.2-0.2-0.6-0.4-1.1c-0.1-0.5-0.4-0.7-0.9-0.7h-0.5V7z M249.2,4.4h0.5c0.6,0,1.1-0.2,1.1-0.7
		c0-0.4-0.3-0.7-1-0.7c-0.3,0-0.5,0-0.6,0.1V4.4z"/>
</g>
</svg>
