<?xml version="1.0" encoding="utf-8"?>
<!-- Generator: Adobe Illustrator 19.1.0, SVG Export Plug-In . SVG Version: 6.00 Build 0)  -->
<svg version="1.1" id="Layer_1" xmlns="http://www.w3.org/2000/svg" xmlns:xlink="http://www.w3.org/1999/xlink" x="0px" y="0px"
	 viewBox="0 0 431 335" style="enable-background:new 0 0 431 335;" xml:space="preserve">
<style type="text/css">
	.st0{fill:#FFFFFF;}
	.st1{fill:#5592D7;}
	.st2{opacity:0.5;fill:url(#SVGID_1_);}
</style>
<g>
	<g>
		<g>
			<path class="st0" d="M98,31.7L3.7,126.1c-2.2,2.2-2.2,5.7,0,7.9L65,195.2c2.2,2.2,5.7,2.2,7.9,0l94.3-94.3c2.2-2.2,2.2-5.7,0-7.9
				l-61.3-61.3C103.7,29.6,100.2,29.6,98,31.7z"/>
			<g>
				<path class="st1" d="M98,31.7L3.7,126.1c-2.2,2.2-2.2,5.7,0,7.9L65,195.2c2.2,2.2,5.7,2.2,7.9,0l94.3-94.3
					c2.2-2.2,2.2-5.7,0-7.9l-61.3-61.3C103.7,29.6,100.2,29.6,98,31.7z M17.5,120.1c1.3-1.3,3.4-1.3,4.7,0c1.3,1.3,1.3,3.4,0,4.7
					c-1.3,1.3-3.4,1.3-4.7,0C16.2,123.6,16.2,121.5,17.5,120.1z M10.1,127.6c1.3-1.3,3.4-1.3,4.7,0c1.3,1.3,1.3,3.4,0,4.7
					c-1.3,1.3-3.4,1.3-4.7,0C8.8,131,8.8,128.9,10.1,127.6z M164.8,97l-95.9,95.9l-54.2-54.2l95.9-95.9L164.8,97z M29.6,117.5
					c-1.3,1.3-3.4,1.3-4.7,0c-1.3-1.3-1.3-3.4,0-4.7c1.3-1.3,3.4-1.3,4.7,0C30.9,114,30.9,116.2,29.6,117.5z"/>
			</g>
		</g>
		<g>
			<path class="st0" d="M188,2.9L64.8,54c-2.8,1.2-4.2,4.4-3,7.3L95,141.3c1.2,2.8,4.4,4.2,7.3,3l123.2-51.1c2.8-1.2,4.2-4.4,3-7.3
				L195.3,5.9C194.1,3.1,190.8,1.7,188,2.9z"/>
			<g>
				<path class="st1" d="M188,2.9L64.8,54c-2.8,1.2-4.2,4.4-3,7.3L95,141.3c1.2,2.8,4.4,4.2,7.3,3l123.2-51.1c2.8-1.2,4.2-4.4,3-7.3
					L195.3,5.9C194.1,3.1,190.8,1.7,188,2.9z M79.8,53.8c1.7-0.7,3.7,0.1,4.4,1.8c0.7,1.7-0.1,3.7-1.8,4.4c-1.7,0.7-3.7-0.1-4.4-1.8
					C77.3,56.4,78.1,54.5,79.8,53.8z M70.1,57.8c1.7-0.7,3.7,0.1,4.4,1.8s-0.1,3.7-1.8,4.4s-3.7-0.1-4.4-1.8
					C67.6,60.4,68.4,58.5,70.1,57.8z M224.8,88.8L99.5,140.7L70.1,69.8l125.3-51.9L224.8,88.8z M92,55.9c-1.7,0.7-3.7-0.1-4.4-1.8
					c-0.7-1.7,0.1-3.7,1.8-4.4c1.7-0.7,3.7,0.1,4.4,1.8C94.5,53.3,93.7,55.2,92,55.9z"/>
			</g>
		</g>
		<g>
			<path class="st0" d="M282.2,10.7H148.8c-3.1,0-5.6,2.5-5.6,5.6V103c0,3.1,2.5,5.6,5.6,5.6h133.4c3.1,0,5.6-2.5,5.6-5.6V16.3
				C287.8,13.2,285.3,10.7,282.2,10.7z"/>
			<g>
				<path class="st1" d="M282.2,10.7H148.8c-3.1,0-5.6,2.5-5.6,5.6V103c0,3.1,2.5,5.6,5.6,5.6h133.4c3.1,0,5.6-2.5,5.6-5.6V16.3
					C287.8,13.2,285.3,10.7,282.2,10.7z M162.7,16.3c1.8,0,3.3,1.5,3.3,3.3c0,1.8-1.5,3.3-3.3,3.3c-1.8,0-3.3-1.5-3.3-3.3
					C159.4,17.8,160.9,16.3,162.7,16.3z M152.2,16.3c1.8,0,3.3,1.5,3.3,3.3c0,1.8-1.5,3.3-3.3,3.3s-3.3-1.5-3.3-3.3
					C148.9,17.8,150.4,16.3,152.2,16.3z M283.3,104.1H147.7V27.4h135.6V104.1z M173.2,22.9c-1.8,0-3.3-1.5-3.3-3.3
					c0-1.8,1.5-3.3,3.3-3.3s3.3,1.5,3.3,3.3C176.5,21.4,175,22.9,173.2,22.9z"/>
			</g>
		</g>
		<g>
			<path class="st0" d="M366.2,54L243,2.9c-2.8-1.2-6.1,0.2-7.3,3L202.5,86c-1.2,2.8,0.2,6.1,3,7.3l123.2,51.1
				c2.8,1.2,6.1-0.2,7.3-3l33.2-80.1C370.4,58.4,369,55.1,366.2,54z"/>
			<g>
				<path class="st1" d="M366.2,54L243,2.9c-2.8-1.2-6.1,0.2-7.3,3L202.5,86c-1.2,2.8,0.2,6.1,3,7.3l123.2,51.1
					c2.8,1.2,6.1-0.2,7.3-3l33.2-80.1C370.4,58.4,369,55.1,366.2,54z M253.7,13.4c1.7,0.7,2.5,2.7,1.8,4.4c-0.7,1.7-2.7,2.5-4.4,1.8
					s-2.5-2.7-1.8-4.4S252,12.7,253.7,13.4z M244,9.4c1.7,0.7,2.5,2.7,1.8,4.4s-2.7,2.5-4.4,1.8c-1.7-0.7-2.5-2.7-1.8-4.4
					S242.3,8.6,244,9.4z M331.5,140.7L206.2,88.8l29.4-70.9l125.3,51.9L331.5,140.7z M260.8,23.5c-1.7-0.7-2.5-2.7-1.8-4.4
					c0.7-1.7,2.7-2.5,4.4-1.8c1.7,0.7,2.5,2.7,1.8,4.4C264.5,23.4,262.5,24.2,260.8,23.5z"/>
			</g>
		</g>
		<g>
			<path class="st0" d="M427.3,126.1L333,31.7c-2.2-2.2-5.7-2.2-7.9,0l-61.3,61.3c-2.2,2.2-2.2,5.7,0,7.9l94.3,94.3
				c2.2,2.2,5.7,2.2,7.9,0l61.3-61.3C429.5,131.8,429.5,128.2,427.3,126.1z"/>
			<g>
				<path class="st1" d="M427.3,126.1L333,31.7c-2.2-2.2-5.7-2.2-7.9,0l-61.3,61.3c-2.2,2.2-2.2,5.7,0,7.9l94.3,94.3
					c2.2,2.2,5.7,2.2,7.9,0l61.3-61.3C429.5,131.8,429.5,128.2,427.3,126.1z M338.9,45.5c1.3,1.3,1.3,3.4,0,4.7
					c-1.3,1.3-3.4,1.3-4.7,0c-1.3-1.3-1.3-3.4,0-4.7S337.6,44.2,338.9,45.5z M331.5,38.1c1.3,1.3,1.3,3.4,0,4.7s-3.4,1.3-4.7,0
					s-1.3-3.4,0-4.7S330.2,36.8,331.5,38.1z M362.1,192.9L266.2,97l54.2-54.2l95.9,95.9L362.1,192.9z M341.6,57.6
					c-1.3-1.3-1.3-3.4,0-4.7s3.4-1.3,4.7,0s1.3,3.4,0,4.7C345,58.9,342.9,58.9,341.6,57.6z"/>
			</g>
		</g>
	</g>
	<linearGradient id="SVGID_1_" gradientUnits="userSpaceOnUse" x1="217.1054" y1="332.5197" x2="217.1054" y2="138.6953">
		<stop  offset="0" style="stop-color:#5592D7;stop-opacity:0"/>
		<stop  offset="1" style="stop-color:#5592D7"/>
	</linearGradient>
	<path class="st2" d="M17.7,283.1c3.8,1.3,7.8,0.7,11-1.3l31.6,41c-1.5,1.4-2.7,3.1-3.4,5.1c-0.5,1.5-0.7,3.1-0.7,4.7h25.8
		c0-1.8-0.3-3.5-0.9-5.1l49.8-25.6c1.5,2.3,3.7,4.2,6.6,5.2c1.2,0.4,2.5,0.6,3.7,0.6l1.6,24.9h2.6l-1.6-25c2.4-0.4,4.7-1.5,6.5-3.1
		l30.9,28.2h3.8l-33-30.1c0.8-1,1.4-2.2,1.9-3.4c0.1-0.4,0.2-0.8,0.3-1.2l73,9.8c-0.2,5.5,3.1,10.8,8.6,12.7
		c0.8,0.3,1.6,0.4,2.3,0.6l-0.6,11.7h2.6l0.5-11.6c3.2-0.2,6.1-1.5,8.3-3.7l18.5,15.3h4.1l-20.9-17.3c0.6-0.9,1.2-1.9,1.5-3
		c1-2.9,0.9-5.9-0.1-8.6l52.4-25.2c1.5,2.5,3.8,4.5,6.8,5.5c0.5,0.2,1,0.3,1.5,0.4l-5.3,48.2h2.6l5.3-47.9c3.3,0,6.4-1.2,8.8-3.4
		l50.4,44.8c-0.7,1-1.4,2.1-1.8,3.3c-0.4,1.1-0.6,2.1-0.7,3.2h25.8c-0.4-4.6-3.2-8.8-7.7-10.8l19.2-58.8c6.3,1.4,12.8-2.1,15-8.4
		c2.3-6.8-1.2-14.1-8-16.5c-5.3-1.8-10.9,0-14.2,4.1l-65.5-43.3c0.3-0.6,0.6-1.1,0.8-1.8c2.3-6.8-1.2-14.1-8-16.5
		c-6.6-2.3-13.7,1.1-16.2,7.5l-123.1-34.4c1.1-6.1-2.4-12.3-8.5-14.4c-6.8-2.3-14.1,1.2-16.5,8c-1.4,3.9-0.7,8.1,1.4,11.3
		l-51.6,41.8c-1.3-1.3-3-2.4-4.9-3.1c-6.8-2.3-14.1,1.2-16.5,8c-1.3,3.7-0.7,7.5,1.1,10.7l-63.4,46.2c-1.4-1.6-3.2-2.9-5.4-3.6
		c-6.8-2.3-14.1,1.2-16.5,8C7.3,273.4,10.9,280.7,17.7,283.1z M227.9,303.8c-0.1,0.4-0.2,0.8-0.3,1.2l-73-9.8
		c0.1-2.6-0.6-5.1-1.9-7.2l54.3-41.8c1.4,1.5,3.1,2.7,5.1,3.4c2.4,0.8,4.8,0.9,7.1,0.4l15.6,46.3
		C231.7,297.6,229.1,300.3,227.9,303.8z M251.1,301.3c-1.5-2.5-3.8-4.5-6.8-5.5c-2.4-0.8-4.8-0.9-7.1-0.4l-15.6-46.3
		c2.8-1.3,5.1-3.5,6.4-6.4l75,26c-0.6,2.5-0.4,5.1,0.4,7.4L251.1,301.3z M407.1,262.1l-19.2,58.8c-4.2-0.9-8.4,0.3-11.5,3.1
		l-50.4-44.8c0.7-1,1.4-2.1,1.8-3.3c0.7-1.9,0.8-3.9,0.6-5.7l71.6-15.8C401.2,257.8,403.7,260.6,407.1,262.1z M335.4,201.1
		l65.5,43.3c-0.3,0.6-0.6,1.1-0.8,1.8c-0.7,1.9-0.8,3.9-0.6,5.7l-71.6,15.8c-1.2-3.7-4-6.8-8-8.2c-0.5-0.2-0.9-0.2-1.4-0.3l6.6-53.4
		C329.1,205.9,332.9,204.1,335.4,201.1z M314,199c1.5,2.8,3.9,5.1,7.2,6.2c0.5,0.2,0.9,0.2,1.4,0.3l-6.6,53.4c-5-0.1-9.8,2.7-12,7.5
		l-75.1-26c0.5-2.2,0.5-4.5-0.2-6.5L314,199z M189.6,156.3l123.1,34.4c-0.3,2-0.2,4,0.3,5.9l-85.2,34.7c-1.5-2.8-3.9-5.1-7.2-6.2
		c-2.8-1-5.7-0.9-8.3,0L184,162.8C186.5,161.4,188.5,159.2,189.6,156.3z M168.4,160.7c1.4,1.4,3,2.5,4.9,3.2c2.8,1,5.7,0.9,8.3,0
		l28.2,62.4c-2.5,1.5-4.6,3.7-5.6,6.7l-85.4-21.5c0.4-3.2-0.4-6.3-2.1-8.9L168.4,160.7z M118.3,213.9l85.4,21.5
		c-0.5,3.1,0.2,6.2,1.8,8.8l-54.3,41.8c-1.4-1.5-3.1-2.7-5.1-3.4c-2.7-0.9-5.5-0.9-8-0.1l-25.8-61.5
		C114.9,219.4,117.1,217,118.3,213.9z M109.8,221.9l25.8,61.5c-2.7,1.5-5,3.9-6.1,7.1c-1,3-0.9,6.2,0.2,8.9L80,325.1
		c-1.4-2.1-3.4-3.9-5.9-4.9l29.5-98C105.7,222.7,107.8,222.5,109.8,221.9z M34.1,275.1c1.3-3.7,0.7-7.6-1.1-10.7l63.4-46.2
		c1.3,1.4,2.8,2.6,4.7,3.4l-29.5,98c-3.3-0.6-6.5,0-9.3,1.7l-31.6-41C32.2,278.8,33.4,277.1,34.1,275.1z"/>
</g>
</svg>
