<?xml version="1.0" encoding="utf-8"?>
<!-- Generator: Adobe Illustrator 19.1.0, SVG Export Plug-In . SVG Version: 6.00 Build 0)  -->
<svg version="1.1" id="Layer_1" xmlns="http://www.w3.org/2000/svg" xmlns:xlink="http://www.w3.org/1999/xlink" x="0px" y="0px"
	 viewBox="0 0 128 128" style="enable-background:new 0 0 128 128;" xml:space="preserve">
<style type="text/css">
	.st0{fill:#FFFFFF;}
	.st1{fill:#9ABCE2;}
	.st2{fill:#5892CD;}
	.st3{fill:#2B588A;}
</style>
<g>
	<g>
		<circle id="XMLID_482_" class="st0" cx="64" cy="64" r="63.5"/>
	</g>
	<g>
		<path class="st1" d="M75.5,55.5V97L40.6,76.8l0,0c-10.4-6-9.6-9.7-9.7-18.1l35.9,20.7V60.5L75.5,55.5z"/>
		<path class="st2" d="M66.8,79.4L31,58.7l34.9-20.1l0,0c10.4-6,13.2-3.4,20.5,0.7L50.5,60l16.4,9.5L66.8,79.4z"/>
		<path class="st3" d="M50.5,60l35.9-20.7l0,40.3l0,0c0,12-3.6,13.2-10.8,17.4l0-41.4L59.1,65L50.5,60z"/>
	</g>
</g>
</svg>
