<?xml version="1.0" encoding="utf-8"?>
<!-- Generator: Adobe Illustrator 19.1.0, SVG Export Plug-In . SVG Version: 6.00 Build 0)  -->
<svg version="1.1" id="Layer_1" xmlns="http://www.w3.org/2000/svg" xmlns:xlink="http://www.w3.org/1999/xlink" x="0px" y="0px"
	 viewBox="0 0 570 360" style="enable-background:new 0 0 570 360;" xml:space="preserve">
<style type="text/css">
	.st0{fill:#232323;}
	.st1{fill:#99BBE1;}
	.st2{fill:#434343;}
	.st3{fill:#C8C7CA;}
	.st4{fill:#FFFFFF;}
	.st5{fill:#5790CC;}
	.st6{fill:#2A5788;}
	.st7{fill:#E9E9E9;}
	.st8{opacity:0.1;}
	.st9{opacity:0.54;}
	.st10{fill:#010101;}
	.st11{clip-path:url(#SVGID_2_);fill:#EC5F52;}
	.st12{opacity:0.2;clip-path:url(#SVGID_2_);}
	.st13{fill:#FFFFFF;stroke:#FFFFFF;stroke-width:2;stroke-miterlimit:10;enable-background:new    ;}
	.st14{fill:#FFFFFF;enable-background:new    ;}
	.st15{fill:none;stroke:#FFFFFF;stroke-width:2;stroke-miterlimit:10;}
	.st16{fill:none;stroke:#FFFFFF;stroke-width:5.1231;stroke-miterlimit:10;}
	.st17{clip-path:url(#SVGID_4_);fill:#4D4C4D;}
	.st18{opacity:0.2;clip-path:url(#SVGID_4_);}
	.st19{opacity:0.8;}
	.st20{fill:none;stroke:#000000;stroke-width:0.8889;stroke-miterlimit:10;}
</style>
<symbol  id="New_Symbol_1" viewBox="-111 -70.5 222 141">
	<g>
		<g>
			<path class="st0" d="M96-61.5H-96v127c0,2.8,2.2,5,5,5H91c2.8,0,5-2.2,5-5V-61.5z"/>
			<polygon class="st1" points="87,-46.5 -87,-46.5 -87,55.5 87,55.5 			"/>
			<path class="st2" d="M16.5-55.5V-57c0-1.7-1.3-3-3-3h-27c-1.7,0-3,1.3-3,3v1.5H-111V-63c0-4.1,3.4-7.5,7.5-7.5h207
				c4.1,0,7.5,3.4,7.5,7.5v7.5H16.5z"/>
			<path class="st0" d="M-6-65.2c0-2.1-1.7-3.8-3.8-3.8s-3.8,1.7-3.8,3.8c0,2.1,1.7,3.7,3.8,3.7S-6-63.2-6-65.2z"/>
			<path class="st0" d="M4.5-65.2c0-2.1-1.7-3.8-3.8-3.8S-3-67.3-3-65.2c0,2.1,1.7,3.7,3.8,3.7S4.5-63.2,4.5-65.2z"/>
			<path class="st0" d="M15-65.2c0-2.1-1.7-3.8-3.8-3.8s-3.8,1.7-3.8,3.8c0,2.1,1.7,3.7,3.8,3.7S15-63.2,15-65.2z"/>
			<path class="st3" d="M13.5-65.2c0-1.2-1-2.3-2.3-2.3S9-66.5,9-65.2C9-64,10-63,11.2-63S13.5-64,13.5-65.2z"/>
			<path class="st3" d="M3-65.2c0-1.2-1-2.3-2.3-2.3s-2.3,1-2.3,2.3c0,1.2,1,2.2,2.3,2.2S3-64,3-65.2z"/>
			<path class="st3" d="M-7.5-65.2c0-1.2-1-2.3-2.3-2.3s-2.3,1-2.3,2.3c0,1.2,1,2.2,2.3,2.2S-7.5-64-7.5-65.2z"/>
			<polygon class="st0" points="-9,-66 -10.5,-66 -10.5,-64.5 -9,-64.5 			"/>
			<polygon class="st0" points="1.5,-66 0,-66 0,-64.5 1.5,-64.5 			"/>
			<polygon class="st0" points="12,-66 10.5,-66 10.5,-64.5 12,-64.5 			"/>
			<g>
				<g>
					<g>
						<path id="XMLID_80_" class="st4" d="M39.8,8.1C37.6,30,17.9,46-4,43.8C-26,41.6-42,22-39.8,0C-37.6-22-17.9-38,4-35.8
							C26-33.5,42-13.9,39.8,8.1z"/>
					</g>
					<g>
						<path class="st1" d="M7.3,9.4v-26.1l-22,12.7l0,0c-6.5,3.8-6,6.1-6.1,11.4L1.8-5.7V6.2L7.3,9.4z"/>
						<path class="st5" d="M1.8-5.7L-20.8,7.4L1.2,20l0,0c6.6,3.8,8.3,2.2,12.9-0.4L-8.5,6.6l10.3-6L1.8-5.7z"/>
						<path class="st6" d="M-8.5,6.6l22.6,13.1l0-25.4l0,0c0-7.6-2.3-8.3-6.8-11l0,26.1l-10.3-6L-8.5,6.6z"/>
					</g>
				</g>
			</g>
		</g>
	</g>
</symbol>
<symbol  id="New_Symbol_2" viewBox="-229 -149.8 457.9 299.5">
	<g>
		
			<image style="overflow:visible;opacity:0.25;" width="1908" height="1248" xlink:href="EAE328A6.png"  transform="matrix(0.24 0 0 -0.24 -228.9602 149.76)">
		</image>
		<g>
			<polygon class="st7" points="209.9,-126.3 -209.8,-126.5 -210,134.5 209.7,134.8 			"/>
			<g class="st8">
				<path d="M209.7,134.8l0.1-261.1l-419.7-0.2l-0.1,261.1L209.7,134.8 M210.7,135.8l-1,0l-419.7-0.2l-1,0l0-1l0.1-261.1l0-1l1,0
					l419.7,0.2l1,0l0,1l-0.1,261.1L210.7,135.8L210.7,135.8z"/>
			</g>
		</g>
	</g>
	<g>
		<g>
			<g>
				
					<image style="overflow:visible;opacity:0.25;" width="638" height="346" xlink:href="EAE328AA.png"  transform="matrix(0.24 0 0 -0.24 3.4454 31.6963)">
				</image>
				<g>
					<path class="st4" d="M151.4-47.1L8.5-47.2c-1.1,0-2,0.9-2,2l0,72.8c0,1.1,0.9,2,2,2l142.9,0.1c1.1,0,2-0.9,2-2l0-72.8
						C153.4-46.2,152.5-47.1,151.4-47.1z"/>
				</g>
			</g>
			<g class="st9">
				<path class="st10" d="M15.1-35.1l1.7-4.1l1.7,4.1l0.9,0l0-5.1h-0.7l0,2l0.1,2.1L17-40.2l-0.5,0l-1.7,4.1l0.1-2.1l0-2h-0.7l0,5.1
					L15.1-35.1z"/>
				<path class="st10" d="M22.7-40.1c0,0.1-0.1,0.2-0.1,0.4c-0.3-0.3-0.7-0.5-1.1-0.5c-0.4,0-0.7,0.1-0.9,0.3
					c-0.2,0.2-0.4,0.5-0.4,0.8c0,0.4,0.1,0.7,0.4,0.9c0.3,0.2,0.7,0.3,1.3,0.3l0.6,0v0.3c0,0.2-0.1,0.4-0.2,0.5
					c-0.1,0.1-0.3,0.2-0.6,0.2c-0.2,0-0.4-0.1-0.6-0.2c-0.2-0.1-0.2-0.3-0.2-0.4h-0.6c0,0.2,0.1,0.4,0.2,0.5
					c0.1,0.2,0.3,0.3,0.5,0.4s0.5,0.2,0.8,0.2c0.4,0,0.8-0.1,1-0.3c0.2-0.2,0.4-0.5,0.4-0.9l0-1.7c0-0.3,0-0.6,0.1-0.8l0-0.1
					L22.7-40.1z M21.6-39.7c0.2,0,0.4,0.1,0.6,0.2c0.2,0.1,0.3,0.2,0.4,0.4l0,0.8h-0.5c-0.8,0-1.2-0.2-1.2-0.7
					c0-0.2,0.1-0.4,0.2-0.5C21.3-39.6,21.4-39.7,21.6-39.7z"/>
				<path class="st10" d="M24.9-36.4l0-0.5c0.3,0.4,0.7,0.5,1.1,0.5c0.8,0,1.2-0.4,1.2-1.3l0-2.5h-0.6l0,2.5c0,0.3-0.1,0.5-0.2,0.6
					c-0.1,0.1-0.3,0.2-0.6,0.2c-0.2,0-0.4-0.1-0.5-0.2c-0.2-0.1-0.3-0.3-0.4-0.4l0-2.7l-0.6,0l0,3.8L24.9-36.4z"/>
				<path class="st10" d="M30.5-40.1c0,0.1-0.1,0.2-0.1,0.4c-0.3-0.3-0.7-0.5-1.1-0.5c-0.4,0-0.7,0.1-0.9,0.3
					c-0.2,0.2-0.4,0.5-0.4,0.8c0,0.4,0.1,0.7,0.4,0.9c0.3,0.2,0.7,0.3,1.3,0.3l0.6,0v0.3c0,0.2-0.1,0.4-0.2,0.5
					c-0.1,0.1-0.3,0.2-0.6,0.2c-0.2,0-0.4-0.1-0.6-0.2c-0.2-0.1-0.2-0.3-0.2-0.4h-0.6c0,0.2,0.1,0.4,0.2,0.5
					c0.1,0.2,0.3,0.3,0.5,0.4s0.5,0.2,0.8,0.2c0.4,0,0.8-0.1,1-0.3c0.2-0.2,0.4-0.5,0.4-0.9l0-1.7c0-0.3,0-0.6,0.1-0.8l0-0.1
					L30.5-40.1z M29.5-39.7c0.2,0,0.4,0.1,0.6,0.2c0.2,0.1,0.3,0.2,0.4,0.4l0,0.8h-0.5c-0.8,0-1.2-0.2-1.2-0.7
					c0-0.2,0.1-0.4,0.2-0.5C29.1-39.6,29.3-39.7,29.5-39.7z"/>
				<path class="st10" d="M31.9-38.2c0,0.6,0.1,1.1,0.4,1.4c0.3,0.3,0.6,0.5,1.1,0.5c0.5,0,0.8-0.2,1.1-0.5l0,0.4h0.6l0-3.7
					c0-0.5-0.1-0.9-0.4-1.2c-0.3-0.3-0.7-0.4-1.2-0.4c-0.3,0-0.5,0.1-0.8,0.2c-0.3,0.1-0.5,0.3-0.6,0.5l0.3,0.4
					c0.3-0.3,0.6-0.5,1-0.5c0.3,0,0.6,0.1,0.7,0.3c0.2,0.2,0.3,0.4,0.3,0.7v0.3c-0.3-0.3-0.6-0.4-1.1-0.4c-0.4,0-0.8,0.2-1.1,0.5
					C32.1-39.3,31.9-38.8,31.9-38.2z M32.6-38.3c0-0.4,0.1-0.8,0.3-1c0.2-0.2,0.4-0.4,0.7-0.4c0.4,0,0.7,0.2,0.9,0.6l0,1.7
					c-0.2,0.4-0.5,0.5-0.9,0.5c-0.3,0-0.6-0.1-0.7-0.4C32.7-37.5,32.6-37.8,32.6-38.3z"/>
				<path class="st10" d="M37.7-40.2c-0.5,0-0.9,0.2-1.2,0.5c-0.3,0.3-0.5,0.8-0.5,1.3v0.1c0,0.4,0.1,0.7,0.2,1
					c0.1,0.3,0.3,0.5,0.6,0.7c0.3,0.2,0.5,0.2,0.8,0.2c0.5,0,0.9-0.2,1.1-0.5c0.3-0.3,0.4-0.8,0.4-1.4l0-0.3l-2.6,0
					c0-0.4,0.1-0.7,0.3-0.9s0.5-0.3,0.8-0.3c0.2,0,0.4,0,0.6,0.1s0.3,0.2,0.4,0.4l0.4-0.3C38.8-40,38.3-40.2,37.7-40.2z M37.6-36.8
					c-0.3,0-0.5-0.1-0.7-0.3c-0.2-0.2-0.3-0.5-0.3-0.8l1.9,0v0c0,0.3-0.1,0.6-0.3,0.8C38.1-36.9,37.8-36.8,37.6-36.8z"/>
				<path class="st10" d="M42.8-38.5l0.1-0.7l0.1,0.6l1,3.5h0.6l1-3.5l0.1-0.6l0.1,0.7l0.8,3.5h0.7l-1.2-5.1l-0.6,0l-1,3.7l-0.1,0.4
					l-0.1-0.4l-1.1-3.7l-0.6,0l-1.2,5.1H42L42.8-38.5z"/>
				<path class="st10" d="M49.4-40.2c-0.5,0-0.9,0.2-1.2,0.5c-0.3,0.3-0.5,0.8-0.5,1.3v0.1c0,0.4,0.1,0.7,0.2,1s0.3,0.5,0.6,0.7
					c0.3,0.2,0.5,0.2,0.8,0.2c0.5,0,0.9-0.2,1.1-0.5s0.4-0.8,0.4-1.4l0-0.3l-2.6,0c0-0.4,0.1-0.7,0.3-0.9c0.2-0.2,0.5-0.3,0.8-0.3
					c0.2,0,0.4,0,0.6,0.1c0.2,0.1,0.3,0.2,0.4,0.4l0.4-0.3C50.5-40,50.1-40.2,49.4-40.2z M49.3-36.8c-0.3,0-0.5-0.1-0.7-0.3
					c-0.2-0.2-0.3-0.5-0.3-0.8l1.9,0v0c0,0.3-0.1,0.6-0.3,0.8C49.8-36.9,49.6-36.8,49.3-36.8z"/>
				<path class="st10" d="M54.8-38.3c0-0.6-0.1-1-0.4-1.4c-0.3-0.4-0.6-0.5-1.1-0.5c-0.5,0-0.8,0.2-1.1,0.5l0-0.4l-0.6,0l0,5.4
					l0.6,0l0-2c0.3,0.3,0.6,0.5,1.1,0.5c0.5,0,0.8-0.2,1.1-0.5C54.7-37.2,54.8-37.6,54.8-38.3L54.8-38.3z M54.2-38.2
					c0,0.4-0.1,0.8-0.3,1c-0.2,0.2-0.4,0.4-0.7,0.4c-0.4,0-0.7-0.2-0.9-0.6l0-1.6c0.2-0.4,0.5-0.6,0.9-0.6c0.3,0,0.5,0.1,0.7,0.4
					S54.2-38.7,54.2-38.2z"/>
				<path class="st10" d="M57.8-39.1c0,0.2-0.1,0.3-0.2,0.4c-0.1,0.1-0.4,0.2-0.7,0.2c-0.3,0.1-0.6,0.2-0.8,0.3
					c-0.2,0.1-0.3,0.2-0.4,0.3s-0.1,0.3-0.1,0.5c0,0.3,0.1,0.6,0.4,0.8c0.3,0.2,0.6,0.3,1,0.3c0.4,0,0.8-0.1,1-0.3
					c0.3-0.2,0.4-0.5,0.4-0.8l-0.6,0c0,0.2-0.1,0.3-0.2,0.5c-0.2,0.1-0.3,0.2-0.6,0.2c-0.2,0-0.4-0.1-0.6-0.2
					c-0.1-0.1-0.2-0.2-0.2-0.4c0-0.2,0.1-0.3,0.2-0.4s0.3-0.2,0.7-0.2c0.3-0.1,0.6-0.2,0.8-0.3s0.3-0.2,0.4-0.4s0.1-0.3,0.1-0.5
					c0-0.3-0.1-0.6-0.4-0.8c-0.3-0.2-0.6-0.3-1-0.3c-0.3,0-0.6,0.1-0.8,0.2c-0.2,0.1-0.4,0.3-0.5,0.4c-0.1,0.2-0.2,0.4-0.2,0.6
					l0.6,0c0-0.2,0.1-0.4,0.3-0.5c0.2-0.1,0.4-0.2,0.6-0.2c0.2,0,0.4,0,0.6,0.1S57.8-39.3,57.8-39.1z"/>
				<path class="st10" d="M59.3-35.4c0,0.1,0,0.2,0.1,0.3c0.1,0.1,0.2,0.1,0.3,0.1c0.1,0,0.2,0,0.3-0.1c0.1-0.1,0.1-0.2,0.1-0.3
					s0-0.2-0.1-0.3c-0.1-0.1-0.2-0.1-0.3-0.1c-0.1,0-0.2,0-0.3,0.1C59.4-35.6,59.3-35.5,59.3-35.4z M60-40.1l-0.6,0l0,3.8l0.6,0
					L60-40.1z"/>
				<path class="st10" d="M61.9-35.4v-0.9l0.7,0l0-0.5l-0.7,0l0-2.3c0-0.2,0-0.3,0.1-0.3c0.1-0.1,0.2-0.1,0.3-0.1c0.1,0,0.2,0,0.3,0
					l0-0.5c-0.2,0-0.3-0.1-0.5-0.1c-0.3,0-0.5,0.1-0.7,0.3c-0.1,0.2-0.2,0.4-0.2,0.7l0,2.3h-0.7l0,0.5h0.7v0.9L61.9-35.4z"/>
				<path class="st10" d="M64.9-40.2c-0.5,0-0.9,0.2-1.2,0.5c-0.3,0.3-0.5,0.8-0.5,1.3v0.1c0,0.4,0.1,0.7,0.2,1s0.3,0.5,0.6,0.7
					c0.3,0.2,0.5,0.2,0.8,0.2c0.5,0,0.9-0.2,1.1-0.5s0.4-0.8,0.4-1.4l0-0.3l-2.6,0c0-0.4,0.1-0.7,0.3-0.9c0.2-0.2,0.5-0.3,0.8-0.3
					c0.2,0,0.4,0,0.6,0.1c0.2,0.1,0.3,0.2,0.4,0.4l0.4-0.3C66.1-40,65.6-40.2,64.9-40.2z M64.9-36.8c-0.3,0-0.5-0.1-0.7-0.3
					c-0.2-0.2-0.3-0.5-0.3-0.8l1.9,0v0c0,0.3-0.1,0.6-0.3,0.8C65.3-36.9,65.1-36.8,64.9-36.8z"/>
				<path class="st10" d="M69.4-39.1c0,0.2-0.1,0.3-0.2,0.4c-0.1,0.1-0.4,0.2-0.7,0.2c-0.3,0.1-0.6,0.2-0.8,0.3s-0.3,0.2-0.4,0.3
					s-0.1,0.3-0.1,0.5c0,0.3,0.1,0.6,0.4,0.8c0.3,0.2,0.6,0.3,1,0.3c0.4,0,0.8-0.1,1-0.3s0.4-0.5,0.4-0.8h-0.6
					c0,0.2-0.1,0.3-0.2,0.5c-0.2,0.1-0.3,0.2-0.6,0.2c-0.2,0-0.4-0.1-0.6-0.2c-0.1-0.1-0.2-0.2-0.2-0.4c0-0.2,0.1-0.3,0.2-0.4
					s0.3-0.2,0.7-0.2c0.3-0.1,0.6-0.2,0.8-0.3c0.2-0.1,0.3-0.2,0.4-0.4s0.1-0.3,0.1-0.5c0-0.3-0.1-0.6-0.4-0.8
					c-0.3-0.2-0.6-0.3-1-0.3c-0.3,0-0.6,0.1-0.8,0.2c-0.2,0.1-0.4,0.3-0.5,0.4C67.1-39.4,67-39.2,67-39l0.6,0c0-0.2,0.1-0.4,0.3-0.5
					c0.2-0.1,0.4-0.2,0.6-0.2c0.2,0,0.4,0,0.6,0.1C69.3-39.4,69.4-39.3,69.4-39.1z"/>
			</g>
			<g>
				<defs>
					<path id="SVGID_1_" d="M153.4-29.1L6.5-29.1l0,56.8c0,1.1,0.9,2,2,2l142.9,0.1c1.1,0,2-0.9,2-2L153.4-29.1z"/>
				</defs>
				<clipPath id="SVGID_2_">
					<use xlink:href="#SVGID_1_"  style="overflow:visible;"/>
				</clipPath>
				<polygon class="st11" points="161.9,-45.2 -2.3,-45.3 -2.4,35.8 161.9,35.9 				"/>
				<g class="st12">
					<line class="st13" x1="82" y1="20.3" x2="64.7" y2="-10.3"/>
					<line class="st13" x1="64.7" y1="-10.3" x2="66.3" y2="-49.1"/>
					<line class="st13" x1="66.3" y1="-49.1" x2="95.6" y2="-65.6"/>
					<line class="st13" x1="95.6" y1="-65.6" x2="122.1" y2="-85.5"/>
					<line class="st13" x1="122.1" y1="-85.5" x2="161.5" y2="-67.6"/>
					<line class="st13" x1="161.5" y1="-67.6" x2="180.6" y2="-33.2"/>
					<line class="st13" x1="180.6" y1="-33.2" x2="166" y2="-8.2"/>
					<line class="st13" x1="166" y1="-8.2" x2="154.2" y2="23.8"/>
					<line class="st13" x1="154.2" y1="23.8" x2="114.3" y2="33.5"/>
					<line class="st13" x1="114.3" y1="33.5" x2="82" y2="20.3"/>
					<line class="st13" x1="64.7" y1="-10.3" x2="90.1" y2="-15.8"/>
					<line class="st13" x1="90.1" y1="-15.8" x2="66.3" y2="-49.1"/>
					<line class="st13" x1="66.3" y1="-49.1" x2="96.4" y2="-42.8"/>
					<line class="st13" x1="96.4" y1="-42.8" x2="95" y2="-65.5"/>
					<line class="st13" x1="95" y1="-65.5" x2="125.8" y2="-54.1"/>
					<line class="st13" x1="125.8" y1="-54.1" x2="122.1" y2="-85.5"/>
					<line class="st13" x1="125.8" y1="-54.1" x2="152.3" y2="-34.2"/>
					<line class="st13" x1="152.6" y1="-34.2" x2="140.1" y2="-0.6"/>
					<line class="st13" x1="140.1" y1="-0.6" x2="166" y2="-8.2"/>
					<line class="st13" x1="166" y1="-8.2" x2="152.6" y2="-34.2"/>
					<line class="st13" x1="152.6" y1="-34.2" x2="180.6" y2="-33.2"/>
					<line class="st13" x1="152.6" y1="-34.2" x2="161.5" y2="-67.7"/>
					<line class="st13" x1="161.5" y1="-67.7" x2="125.8" y2="-54.1"/>
					<line class="st13" x1="140.1" y1="-0.6" x2="154.2" y2="23.8"/>
					<line class="st13" x1="140.1" y1="-0.6" x2="110.2" y2="4.6"/>
					<line class="st13" x1="110.2" y1="4.6" x2="114.3" y2="33.5"/>
					<line class="st13" x1="110.2" y1="4.6" x2="82" y2="20.3"/>
					<line class="st13" x1="110.2" y1="4.6" x2="90.1" y2="-15.8"/>
					<line class="st13" x1="90.1" y1="-15.8" x2="82" y2="20.3"/>
					<line class="st13" x1="90.1" y1="-15.8" x2="96.4" y2="-42.8"/>
					<line class="st13" x1="96.4" y1="-42.8" x2="125.8" y2="-54.1"/>
					<path class="st14" d="M63.5-14.6c-2.3,0.7-3.7,3.1-3,5.5c0.7,2.3,3.1,3.7,5.5,3c2.3-0.7,3.7-3.1,3-5.5S65.8-15.3,63.5-14.6z"/>
					<path class="st14" d="M65-53.3c-2.3,0.7-3.7,3.1-3,5.5s3.1,3.7,5.5,3c2.3-0.7,3.7-3.1,3-5.5C69.8-52.6,67.3-54,65-53.3z"/>
					<path class="st14" d="M92.9-70.1c-2.3,0.7-3.7,3.1-3,5.5c0.7,2.3,3.1,3.7,5.5,3c2.3-0.7,3.7-3.1,3-5.5
						C97.7-69.4,95.3-70.8,92.9-70.1z"/>
					<path class="st14" d="M120.9-89.7c-2.3,0.7-3.7,3.1-3,5.5c0.7,2.3,3.1,3.7,5.5,3c2.3-0.7,3.7-3.1,3-5.5
						C125.6-89.1,123.2-90.4,120.9-89.7z"/>
					<path class="st14" d="M160.2-71.8c-2.3,0.7-3.7,3.1-3,5.5c0.7,2.3,3.1,3.7,5.5,3c2.3-0.7,3.7-3.1,3-5.5
						C165-71.2,162.6-72.5,160.2-71.8z"/>
					<path class="st14" d="M178.5-37.2c-2.3,0.7-3.7,3.1-3,5.5c0.7,2.3,3.1,3.7,5.5,3c2.3-0.7,3.7-3.1,3-5.5
						C183.2-36.5,180.8-37.8,178.5-37.2z"/>
					<path class="st14" d="M164.7-12.4c-2.3,0.7-3.7,3.1-3,5.5c0.7,2.3,3.1,3.7,5.5,3s3.7-3.1,3-5.5C169.5-11.7,167-13.1,164.7-12.4
						z"/>
					<path class="st14" d="M152.9,19.6c-2.3,0.7-3.7,3.1-3,5.5c0.7,2.3,3.1,3.7,5.5,3c2.3-0.7,3.7-3.1,3-5.5
						C157.7,20.3,155.2,18.9,152.9,19.6z"/>
					<path class="st14" d="M113.1,29.3c-2.3,0.7-3.7,3.1-3,5.5s3.1,3.7,5.5,3c2.3-0.7,3.7-3.1,3-5.5
						C117.9,29.9,115.4,28.6,113.1,29.3z"/>
					<path class="st14" d="M80.7,16.1c-2.3,0.7-3.7,3.1-3,5.5s3.1,3.7,5.5,3c2.3-0.7,3.7-3.1,3-5.5S83.1,15.4,80.7,16.1z"/>
					<path class="st14" d="M108.3,0.5c-2.3,0.7-3.7,3.1-3,5.5s3.1,3.7,5.5,3c2.3-0.7,3.7-3.1,3-5.5S110.7-0.1,108.3,0.5z"/>
					<path class="st14" d="M88.9-20.1c-2.3,0.7-3.7,3.1-3,5.5s3.1,3.7,5.5,3c2.3-0.7,3.7-3.1,3-5.5S91.2-20.7,88.9-20.1z"/>
					<path class="st14" d="M117.3-28.3c-2.3,0.7-3.7,3.1-3,5.5s3.1,3.7,5.5,3s3.7-3.1,3-5.5S119.6-29,117.3-28.3z"/>
					<path class="st14" d="M95.2-47c-2.3,0.7-3.7,3.1-3,5.5s3.1,3.7,5.5,3c2.3-0.7,3.7-3.1,3-5.5C99.9-46.4,97.5-47.7,95.2-47z"/>
					<path class="st14" d="M124.5-58.3c-2.3,0.7-3.7,3.1-3,5.5c0.7,2.3,3.1,3.7,5.5,3c2.3-0.7,3.7-3.1,3-5.5
						C129.3-57.7,126.8-59,124.5-58.3z"/>
					<path class="st14" d="M151.3-38.4c-2.3,0.7-3.7,3.1-3,5.5s3.1,3.7,5.5,3c2.3-0.7,3.7-3.1,3-5.5
						C156.1-37.8,153.6-39.1,151.3-38.4z"/>
					<path class="st14" d="M138.9-4.8c-2.3,0.7-3.7,3.1-3,5.5c0.7,2.3,3.1,3.7,5.5,3s3.7-3.1,3-5.5C143.6-4.2,141.2-5.5,138.9-4.8z"
						/>
					<line class="st13" x1="118.6" y1="-24.1" x2="110.2" y2="4.6"/>
					<line class="st15" x1="118.6" y1="-24.1" x2="90.1" y2="-15.8"/>
					<line class="st15" x1="118.6" y1="-24.1" x2="96.4" y2="-42.8"/>
					<line class="st15" x1="118.6" y1="-24.1" x2="140.1" y2="-0.6"/>
					<line class="st15" x1="118.6" y1="-24.1" x2="152.3" y2="-34.2"/>
					<line class="st16" x1="118.6" y1="-24.1" x2="125.8" y2="-54.1"/>
					<line class="st13" x1="114.3" y1="33.5" x2="140.1" y2="-0.6"/>
				</g>
			</g>
		</g>
		<g>
			<g>
				
					<image style="overflow:visible;opacity:0.25;" width="638" height="346" xlink:href="EAE328AD.png"  transform="matrix(0.24 0 0 -0.24 -156.4626 31.6061)">
				</image>
				<g>
					<path class="st4" d="M-8.5-47.2l-142.9-0.1c-1.1,0-2,0.9-2,2l0,72.8c0,1.1,0.9,2,2,2l142.9,0.1c1.1,0,2-0.9,2-2l0-72.8
						C-6.5-46.3-7.4-47.2-8.5-47.2z"/>
				</g>
			</g>
			<g class="st9">
				<path class="st10" d="M-144.8-35.2l1.7-4.1l1.7,4.1l0.9,0l0-5.1l-0.7,0l0,2l0.1,2.1l-1.7-4.1h-0.5l-1.7,4.1l0.1-2.1l0-2l-0.7,0
					l0,5.1L-144.8-35.2z"/>
				<path class="st10" d="M-137.2-40.2c0,0.1-0.1,0.2-0.1,0.4c-0.3-0.3-0.7-0.5-1.1-0.5c-0.4,0-0.7,0.1-0.9,0.3
					c-0.2,0.2-0.4,0.5-0.4,0.8c0,0.4,0.1,0.7,0.4,0.9c0.3,0.2,0.7,0.3,1.3,0.3l0.6,0v0.3c0,0.2-0.1,0.4-0.2,0.5
					c-0.1,0.1-0.3,0.2-0.6,0.2c-0.2,0-0.4-0.1-0.6-0.2s-0.2-0.3-0.2-0.4l-0.6,0c0,0.2,0.1,0.4,0.2,0.5c0.1,0.2,0.3,0.3,0.5,0.4
					c0.2,0.1,0.5,0.2,0.8,0.2c0.4,0,0.8-0.1,1-0.3c0.2-0.2,0.4-0.5,0.4-0.9l0-1.7c0-0.3,0-0.6,0.1-0.8l0-0.1L-137.2-40.2z
					 M-138.3-39.7c0.2,0,0.4,0.1,0.6,0.2c0.2,0.1,0.3,0.2,0.4,0.4l0,0.8l-0.5,0c-0.8,0-1.2-0.2-1.2-0.7c0-0.2,0.1-0.4,0.2-0.5
					S-138.5-39.7-138.3-39.7z"/>
				<path class="st10" d="M-135-36.5l0-0.5c0.3,0.4,0.7,0.5,1.1,0.5c0.8,0,1.2-0.4,1.2-1.3l0-2.5l-0.6,0l0,2.5
					c0,0.3-0.1,0.5-0.2,0.6c-0.1,0.1-0.3,0.2-0.6,0.2c-0.2,0-0.4-0.1-0.5-0.2c-0.2-0.1-0.3-0.3-0.4-0.4l0-2.7h-0.6l0,3.8H-135z"/>
				<path class="st10" d="M-129.4-40.2c0,0.1-0.1,0.2-0.1,0.4c-0.3-0.3-0.7-0.5-1.1-0.5c-0.4,0-0.7,0.1-0.9,0.3
					c-0.2,0.2-0.4,0.5-0.4,0.8c0,0.4,0.1,0.7,0.4,0.9c0.3,0.2,0.7,0.3,1.3,0.3l0.6,0v0.3c0,0.2-0.1,0.4-0.2,0.5
					c-0.1,0.1-0.3,0.2-0.6,0.2c-0.2,0-0.4-0.1-0.6-0.2s-0.2-0.3-0.2-0.4l-0.6,0c0,0.2,0.1,0.4,0.2,0.5c0.1,0.2,0.3,0.3,0.5,0.4
					c0.2,0.1,0.5,0.2,0.8,0.2c0.4,0,0.8-0.1,1-0.3c0.2-0.2,0.4-0.5,0.4-0.9l0-1.7c0-0.3,0-0.6,0.1-0.8l0-0.1L-129.4-40.2z
					 M-130.5-39.7c0.2,0,0.4,0.1,0.6,0.2c0.2,0.1,0.3,0.2,0.4,0.4l0,0.8l-0.5,0c-0.8,0-1.2-0.2-1.2-0.7c0-0.2,0.1-0.4,0.2-0.5
					S-130.7-39.7-130.5-39.7z"/>
				<path class="st10" d="M-128-38.3c0,0.6,0.1,1.1,0.4,1.4c0.3,0.3,0.6,0.5,1.1,0.5c0.5,0,0.8-0.2,1.1-0.5l0,0.4l0.6,0l0-3.7
					c0-0.5-0.1-0.9-0.4-1.2c-0.3-0.3-0.7-0.4-1.2-0.4c-0.3,0-0.5,0.1-0.8,0.2c-0.3,0.1-0.5,0.3-0.6,0.5l0.3,0.4
					c0.3-0.3,0.6-0.5,1-0.5c0.3,0,0.6,0.1,0.7,0.3c0.2,0.2,0.3,0.4,0.3,0.7v0.3c-0.3-0.3-0.6-0.4-1.1-0.4c-0.4,0-0.8,0.2-1.1,0.5
					C-127.8-39.4-128-38.9-128-38.3z M-127.3-38.4c0-0.4,0.1-0.8,0.3-1c0.2-0.2,0.4-0.4,0.7-0.4c0.4,0,0.7,0.2,0.9,0.6l0,1.7
					c-0.2,0.4-0.5,0.5-0.9,0.5c-0.3,0-0.6-0.1-0.7-0.4C-127.2-37.6-127.3-37.9-127.3-38.4z"/>
				<path class="st10" d="M-122.3-40.3c-0.5,0-0.9,0.2-1.2,0.5s-0.5,0.8-0.5,1.3v0.1c0,0.4,0.1,0.7,0.2,1s0.3,0.5,0.6,0.7
					c0.3,0.2,0.5,0.2,0.8,0.2c0.5,0,0.9-0.2,1.1-0.5c0.3-0.3,0.4-0.8,0.4-1.4l0-0.3l-2.6,0c0-0.4,0.1-0.7,0.3-0.9
					c0.2-0.2,0.5-0.3,0.8-0.3c0.2,0,0.4,0,0.6,0.1c0.2,0.1,0.3,0.2,0.4,0.4l0.4-0.3C-121.2-40.1-121.6-40.3-122.3-40.3z
					 M-122.3-36.9c-0.3,0-0.5-0.1-0.7-0.3c-0.2-0.2-0.3-0.5-0.3-0.8l1.9,0v0c0,0.3-0.1,0.6-0.3,0.8C-121.9-37-122.1-36.9-122.3-36.9
					z"/>
				<path class="st10" d="M-114.3-40.2l-0.7,0l-2.6,3.9l0-3.9h-0.7l0,5.1h0.7l2.6-3.9l0,3.9l0.7,0L-114.3-40.2z"/>
				<path class="st10" d="M-111.6-40.3c-0.5,0-0.9,0.2-1.2,0.5s-0.5,0.8-0.5,1.3v0.1c0,0.4,0.1,0.7,0.2,1c0.1,0.3,0.3,0.5,0.6,0.7
					c0.3,0.2,0.5,0.2,0.8,0.2c0.5,0,0.9-0.2,1.1-0.5c0.3-0.3,0.4-0.8,0.4-1.4l0-0.3l-2.6,0c0-0.4,0.1-0.7,0.3-0.9
					c0.2-0.2,0.5-0.3,0.8-0.3c0.2,0,0.4,0,0.6,0.1s0.3,0.2,0.4,0.4l0.4-0.3C-110.5-40.1-111-40.3-111.6-40.3z M-111.7-36.9
					c-0.3,0-0.5-0.1-0.7-0.3c-0.2-0.2-0.3-0.5-0.3-0.8l1.9,0v0c0,0.3-0.1,0.6-0.3,0.8C-111.2-37-111.4-36.9-111.7-36.9z"/>
				<path class="st10" d="M-108.5-35.5v-0.9l0.7,0l0-0.5l-0.7,0l0-2.3c0-0.2,0-0.3,0.1-0.3c0.1-0.1,0.2-0.1,0.3-0.1
					c0.1,0,0.2,0,0.3,0l0-0.5c-0.2,0-0.3-0.1-0.5-0.1c-0.3,0-0.5,0.1-0.7,0.3c-0.1,0.2-0.2,0.4-0.2,0.7l0,2.3l-0.7,0l0,0.5l0.7,0
					v0.9L-108.5-35.5z"/>
				<path class="st10" d="M-103.7-39.3l0.7,2.9l0.6,0l-1.1-3.8l-0.5,0l-0.9,2.9l-0.9-2.9l-0.5,0l-1.1,3.8l0.6,0l0.7-2.8l0.9,2.8h0.5
					L-103.7-39.3z"/>
				<path class="st10" d="M-101.9-38.3c0,0.4,0.1,0.7,0.2,1c0.1,0.3,0.3,0.5,0.6,0.7c0.3,0.2,0.6,0.2,0.9,0.2c0.5,0,0.9-0.2,1.2-0.5
					c0.3-0.4,0.5-0.8,0.5-1.4v0c0-0.4-0.1-0.7-0.2-1s-0.3-0.5-0.6-0.7c-0.3-0.2-0.6-0.2-0.9-0.2c-0.5,0-0.9,0.2-1.2,0.5
					C-101.7-39.4-101.9-38.9-101.9-38.3L-101.9-38.3z M-101.2-38.4c0-0.4,0.1-0.8,0.3-1c0.2-0.3,0.5-0.4,0.8-0.4
					c0.3,0,0.6,0.1,0.8,0.4c0.2,0.3,0.3,0.6,0.3,1.1c0,0.4-0.1,0.7-0.3,1c-0.2,0.3-0.5,0.4-0.8,0.4c-0.3,0-0.6-0.1-0.8-0.4
					S-101.2-37.9-101.2-38.4z"/>
				<path class="st10" d="M-95.8-37c-0.1,0-0.2,0-0.3,0c-0.4,0-0.7-0.2-0.9-0.5l0-2.7l-0.6,0l0,3.8l0.6,0l0-0.4
					c0.2,0.3,0.5,0.5,0.9,0.5c0.1,0,0.2,0,0.3,0L-95.8-37z"/>
				<path class="st10" d="M-94.2-38.5l-0.4-0.4l0-1.3l-0.6,0l0,5.4l0.6,0l0-3.2l0.3,0.4l1.2,1.2l0.8,0l-1.5-1.6l1.6-2.2l-0.8,0
					L-94.2-38.5z"/>
				<path class="st10" d="M-89.8-40.2l0,5.1l1.4,0c0.4,0,0.8-0.1,1.2-0.3c0.3-0.2,0.6-0.5,0.8-0.8s0.3-0.8,0.3-1.2v-0.3
					c0-0.5-0.1-0.9-0.3-1.3c-0.2-0.4-0.4-0.6-0.8-0.8c-0.3-0.2-0.7-0.3-1.2-0.3L-89.8-40.2z M-89.1-35.7l0-4l0.7,0
					c0.5,0,0.9,0.2,1.2,0.5c0.3,0.3,0.4,0.8,0.4,1.4v0.3c0,0.6-0.1,1-0.4,1.3c-0.3,0.3-0.7,0.5-1.2,0.5L-89.1-35.7z"/>
				<path class="st10" d="M-82.8-40.2c0,0.1-0.1,0.2-0.1,0.4c-0.3-0.3-0.7-0.5-1.1-0.5c-0.4,0-0.7,0.1-0.9,0.3
					c-0.2,0.2-0.4,0.5-0.4,0.8c0,0.4,0.1,0.7,0.4,0.9c0.3,0.2,0.7,0.3,1.3,0.3l0.6,0v0.3c0,0.2-0.1,0.4-0.2,0.5
					c-0.1,0.1-0.3,0.2-0.6,0.2c-0.2,0-0.4-0.1-0.6-0.2c-0.2-0.1-0.2-0.3-0.2-0.4l-0.6,0c0,0.2,0.1,0.4,0.2,0.5
					c0.1,0.2,0.3,0.3,0.5,0.4s0.5,0.2,0.8,0.2c0.4,0,0.8-0.1,1-0.3c0.2-0.2,0.4-0.5,0.4-0.9l0-1.7c0-0.3,0-0.6,0.1-0.8l0-0.1
					L-82.8-40.2z M-83.9-39.7c0.2,0,0.4,0.1,0.6,0.2c0.2,0.1,0.3,0.2,0.4,0.4l0,0.8l-0.5,0c-0.8,0-1.2-0.2-1.2-0.7
					c0-0.2,0.1-0.4,0.2-0.5C-84.3-39.7-84.1-39.7-83.9-39.7z"/>
				<path class="st10" d="M-80.4-35.5v-0.9l0.7,0l0-0.5l-0.7,0l0-2.3c0-0.2,0-0.3,0.1-0.3c0.1-0.1,0.2-0.1,0.3-0.1
					c0.1,0,0.2,0,0.3,0l0-0.5c-0.2,0-0.3-0.1-0.5-0.1c-0.3,0-0.5,0.1-0.7,0.3c-0.1,0.2-0.2,0.4-0.2,0.7l0,2.3l-0.7,0l0,0.5l0.7,0
					v0.9L-80.4-35.5z"/>
				<path class="st10" d="M-76.6-40.2c0,0.1-0.1,0.2-0.1,0.4c-0.3-0.3-0.7-0.5-1.1-0.5c-0.4,0-0.7,0.1-0.9,0.3
					c-0.2,0.2-0.4,0.5-0.4,0.8c0,0.4,0.1,0.7,0.4,0.9c0.3,0.2,0.7,0.3,1.3,0.3l0.6,0v0.3c0,0.2-0.1,0.4-0.2,0.5
					c-0.1,0.1-0.3,0.2-0.6,0.2c-0.2,0-0.4-0.1-0.6-0.2c-0.2-0.1-0.2-0.3-0.2-0.4H-79c0,0.2,0.1,0.4,0.2,0.5c0.1,0.2,0.3,0.3,0.5,0.4
					s0.5,0.2,0.8,0.2c0.4,0,0.8-0.1,1-0.3c0.2-0.2,0.4-0.5,0.4-0.9l0-1.7c0-0.3,0-0.6,0.1-0.8l0-0.1L-76.6-40.2z M-77.7-39.7
					c0.2,0,0.4,0.1,0.6,0.2c0.2,0.1,0.3,0.2,0.4,0.4l0,0.8h-0.5c-0.8,0-1.2-0.2-1.2-0.7c0-0.2,0.1-0.4,0.2-0.5
					C-78.1-39.7-77.9-39.7-77.7-39.7z"/>
			</g>
			<g>
				<defs>
					<path id="SVGID_3_" d="M-6.5-29.1l-146.9-0.1l0,56.8c0,1.1,0.9,2,2,2l142.9,0.1c1.1,0,2-0.9,2-2L-6.5-29.1z"/>
				</defs>
				<clipPath id="SVGID_4_">
					<use xlink:href="#SVGID_3_"  style="overflow:visible;"/>
				</clipPath>
				<polygon class="st17" points="5.5,-35 -164.9,-35.1 -164.9,40.1 5.5,40.2 				"/>
				<g class="st18">
					<line class="st13" x1="-32" y1="17.4" x2="-28.5" y2="52.4"/>
					<line class="st13" x1="-28.5" y1="52.4" x2="-45.5" y2="87.2"/>
					<line class="st13" x1="-45.5" y1="87.2" x2="-79" y2="90.6"/>
					<line class="st13" x1="-79" y1="90.6" x2="-81.9" y2="98.1"/>
					<line class="st13" x1="-81.9" y1="98.1" x2="-140.2" y2="65.9"/>
					<line class="st13" x1="-140.2" y1="65.9" x2="-143.8" y2="26.7"/>
					<line class="st13" x1="-143.8" y1="26.7" x2="-120.3" y2="9.7"/>
					<line class="st13" x1="-120.3" y1="9.7" x2="-96.6" y2="-14.9"/>
					<line class="st13" x1="-96.6" y1="-14.9" x2="-56.3" y2="-7.7"/>
					<line class="st13" x1="-56.3" y1="-7.7" x2="-32" y2="17.4"/>
					<line class="st13" x1="-28.5" y1="52.4" x2="-54" y2="47.2"/>
					<line class="st13" x1="-54" y1="47.2" x2="-45.5" y2="87.2"/>
					<line class="st13" x1="-45.5" y1="87.2" x2="-70.6" y2="69.4"/>
					<line class="st13" x1="-70.6" y1="69.4" x2="-78.5" y2="90.7"/>
					<line class="st13" x1="-78.5" y1="90.7" x2="-102" y2="67.9"/>
					<line class="st13" x1="-102" y1="67.9" x2="-81.9" y2="98.1"/>
					<line class="st13" x1="-102" y1="67.9" x2="-118.3" y2="39"/>
					<line class="st13" x1="-118.5" y1="38.9" x2="-93.6" y2="13.1"/>
					<line class="st13" x1="-93.6" y1="13.1" x2="-120.3" y2="9.7"/>
					<line class="st13" x1="-120.3" y1="9.7" x2="-118.5" y2="38.9"/>
					<line class="st13" x1="-118.5" y1="38.9" x2="-143.8" y2="26.7"/>
					<line class="st13" x1="-118.5" y1="38.9" x2="-140.2" y2="65.9"/>
					<line class="st13" x1="-140.2" y1="65.9" x2="-102" y2="67.9"/>
					<line class="st13" x1="-93.6" y1="13.1" x2="-96.6" y2="-14.9"/>
					<line class="st13" x1="-93.6" y1="13.1" x2="-64.1" y2="20.5"/>
					<line class="st13" x1="-64.1" y1="20.5" x2="-56.3" y2="-7.7"/>
					<line class="st13" x1="-64.1" y1="20.5" x2="-32" y2="17.4"/>
					<line class="st13" x1="-64.1" y1="20.5" x2="-54" y2="47.2"/>
					<line class="st13" x1="-54" y1="47.2" x2="-32" y2="17.4"/>
					<line class="st13" x1="-54" y1="47.2" x2="-70.6" y2="69.4"/>
					<line class="st13" x1="-70.6" y1="69.4" x2="-102" y2="67.9"/>
					<path class="st14" d="M-29.1,56.8c2.4,0.3,4.6-1.4,4.9-3.8c0.3-2.4-1.4-4.6-3.8-4.9s-4.6,1.4-4.9,3.8
						C-33.2,54.3-31.5,56.5-29.1,56.8z"/>
					<path class="st14" d="M-46.1,91.6c2.4,0.3,4.6-1.4,4.9-3.8c0.3-2.4-1.4-4.6-3.8-4.9c-2.4-0.3-4.6,1.4-4.9,3.8
						C-50.2,89.1-48.5,91.3-46.1,91.6z"/>
					<path class="st14" d="M-49,95.8c2.4,0.3-24.8-1.4-24.5-3.8c0.3-2.4-1.4-4.6-3.8-4.9c-2.4-0.3-4.6,1.4-4.9,3.8
						C-82.5,93.2-51.4,95.4-49,95.8z"/>
					<path class="st14" d="M-82.5,102.5c2.4,0.3,4.6-1.4,4.9-3.8c0.3-2.4-1.4-4.6-3.8-4.9c-2.4-0.3-4.6,1.4-4.9,3.8
						C-86.6,100-84.9,102.2-82.5,102.5z"/>
					<path class="st14" d="M-140.7,70.2c2.4,0.3,4.6-1.4,4.9-3.8c0.3-2.4-1.4-4.6-3.8-4.9c-2.4-0.3-4.6,1.4-4.9,3.8
						C-144.8,67.7-143.1,69.9-140.7,70.2z"/>
					<path class="st14" d="M-143.4,31.2c2.4,0.3,4.6-1.4,4.9-3.8s-1.4-4.6-3.8-4.9c-2.4-0.3-4.6,1.4-4.9,3.8
						C-147.5,28.7-145.8,30.9-143.4,31.2z"/>
					<path class="st14" d="M-120.9,14c2.4,0.3,4.6-1.4,4.9-3.8s-1.4-4.6-3.8-4.9c-2.4-0.3-4.6,1.4-4.9,3.8
						C-125,11.5-123.3,13.7-120.9,14z"/>
					<path class="st14" d="M-97.2-10.5c2.4,0.3,4.6-1.4,4.9-3.8c0.3-2.4-1.4-4.6-3.8-4.9c-2.4-0.3-4.6,1.4-4.9,3.8
						C-101.3-13-99.6-10.8-97.2-10.5z"/>
					<path class="st14" d="M-56.8-3.3c2.4,0.3,4.6-1.4,4.9-3.8s-1.4-4.6-3.8-4.9c-2.4-0.3-4.6,1.4-4.9,3.8
						C-61-5.8-59.3-3.6-56.8-3.3z"/>
					<path class="st14" d="M-32.6,21.8c2.4,0.3,4.6-1.4,4.9-3.8c0.3-2.4-1.4-4.6-3.8-4.9c-2.4-0.3-4.6,1.4-4.9,3.8
						S-35,21.5-32.6,21.8z"/>
					<path class="st14" d="M-64.1,24.9c2.4,0.3,4.6-1.4,4.9-3.8c0.3-2.4-1.4-4.6-3.8-4.9c-2.4-0.3-4.6,1.4-4.9,3.8
						S-66.5,24.6-64.1,24.9z"/>
					<path class="st14" d="M-54.6,51.6c2.4,0.3,4.6-1.4,4.9-3.8c0.3-2.4-1.4-4.6-3.8-4.9c-2.4-0.3-4.6,1.4-4.9,3.8
						C-58.7,49.1-57,51.3-54.6,51.6z"/>
					<path class="st14" d="M-83.9,47.7c2.4,0.3,4.6-1.4,4.9-3.8s-1.4-4.6-3.8-4.9c-2.4-0.3-4.6,1.4-4.9,3.8
						C-88,45.2-86.3,47.4-83.9,47.7z"/>
					<path class="st14" d="M-71.1,73.7c2.4,0.3,4.6-1.4,4.9-3.8c0.3-2.4-1.4-4.6-3.8-4.9c-2.4-0.3-4.6,1.4-4.9,3.8
						C-75.3,71.2-73.6,73.4-71.1,73.7z"/>
					<path class="st14" d="M-102.6,72.2c2.4,0.3,4.6-1.4,4.9-3.8c0.3-2.4-1.4-4.6-3.8-4.9c-2.4-0.3-4.6,1.4-4.9,3.8
						C-106.7,69.7-105,71.9-102.6,72.2z"/>
					<path class="st14" d="M-119.1,43.2c2.4,0.3,4.6-1.4,4.9-3.8s-1.4-4.6-3.8-4.9c-2.4-0.3-4.6,1.4-4.9,3.8
						C-123.2,40.7-121.5,42.9-119.1,43.2z"/>
					<path class="st14" d="M-94.2,17.5c2.4,0.3,4.6-1.4,4.9-3.8c0.3-2.4-1.4-4.6-3.8-4.9c-2.4-0.3-4.6,1.4-4.9,3.8
						S-96.6,17.2-94.2,17.5z"/>
					<line class="st13" x1="-83.3" y1="43.3" x2="-64.1" y2="20.5"/>
					<line class="st15" x1="-83.3" y1="43.3" x2="-54" y2="47.2"/>
					<line class="st15" x1="-83.3" y1="43.3" x2="-70.6" y2="69.4"/>
					<line class="st15" x1="-83.3" y1="43.3" x2="-93.6" y2="13.1"/>
					<line class="st15" x1="-83.3" y1="43.3" x2="-118.3" y2="39"/>
					<line class="st15" x1="-83.3" y1="43.3" x2="-102" y2="67.9"/>
					<line class="st13" x1="-56.3" y1="-7.7" x2="-93.6" y2="13.1"/>
				</g>
			</g>
		</g>
	</g>
	<g class="st19">
		<path class="st10" d="M-56.7,63.1c0-0.8-0.3-1.4-0.9-1.8c-0.6-0.5-1.3-0.7-2.3-0.7c-1.1,0-2,0.1-2.6,0.4l0,0.6
			c0.7-0.3,1.5-0.4,2.6-0.4c0.8,0,1.4,0.2,1.8,0.5s0.7,0.8,0.7,1.4c0,0.4-0.1,0.6-0.2,0.9c-0.1,0.2-0.4,0.4-0.7,0.6
			c-0.3,0.2-0.8,0.4-1.5,0.6c-0.9,0.3-1.6,0.7-2,1.1c-0.4,0.4-0.5,0.9-0.5,1.5c0,0.7,0.3,1.3,0.8,1.7c0.5,0.4,1.2,0.7,2.1,0.7
			c0.9,0,1.7-0.2,2.5-0.5l-0.2-0.6c-0.8,0.3-1.5,0.5-2.2,0.5c-0.7,0-1.2-0.2-1.6-0.5c-0.4-0.3-0.6-0.7-0.6-1.3
			c0-0.3,0.1-0.6,0.2-0.8s0.3-0.4,0.6-0.6c0.3-0.2,0.8-0.4,1.5-0.6c0.7-0.2,1.3-0.5,1.6-0.7c0.4-0.2,0.6-0.5,0.8-0.8
			C-56.7,63.9-56.7,63.5-56.7,63.1z"/>
		<path class="st10" d="M-50.2,64l-3.8,0l-1.3-3.3l-0.7,0l3.7,9.3l0.4,0l3.7-9.3l-0.7,0L-50.2,64z M-53.8,64.5l3.3,0l-1.3,3.3
			c-0.1,0.3-0.2,0.6-0.4,1.1c-0.1-0.4-0.2-0.8-0.4-1.1L-53.8,64.5z"/>
		<path class="st10" d="M-46.2,60.7l-0.6,0l0,9.3l5.1,0l0-0.6l-4.4,0l0-3.9l4.2,0v-0.6l-4.2,0L-46.2,60.7z"/>
		<path class="st10" d="M-35.3,60.7l-5.1,0l0,9.3l5.1,0l0-0.6l-4.4,0l0-3.5l4.2,0v-0.6l-4.2,0l0-4l4.4,0L-35.3,60.7z"/>
		<path class="st10" d="M-23,60.7l-0.7,0l-5.5,8.2h-0.1c0.1-1,0.1-1.7,0.1-2.2l0-6l-0.6,0l0,9.3l0.6,0l5.5-8.2h0
			c0,0.8-0.1,1.5-0.1,2.2l0,6.1l0.6,0L-23,60.7z"/>
		<path class="st10" d="M-17.8,60.6c-1,0-1.8,0.3-2.3,0.9c-0.6,0.6-0.8,1.5-0.8,2.6c0,1.1,0.3,2,0.8,2.6c0.5,0.7,1.3,1,2.2,1
			c0.8,0,1.5-0.3,1.9-0.9c0.5-0.6,0.7-1.3,0.7-2.3l0-0.5l-5,0c0-0.9,0.2-1.7,0.7-2.2c0.4-0.5,1.1-0.7,1.9-0.7c0.4,0,0.7,0,1,0.1
			c0.3,0.1,0.7,0.2,1.1,0.4V61c-0.4-0.2-0.7-0.3-1.1-0.3C-17,60.6-17.4,60.6-17.8,60.6z M-18,67.2c-0.7,0-1.2-0.2-1.6-0.7
			c-0.4-0.4-0.6-1.1-0.7-1.9l4.3,0c0,0.8-0.2,1.4-0.5,1.9C-16.9,66.9-17.4,67.2-18,67.2z"/>
		<path class="st10" d="M-11.6,61.1c0.4,0,0.7,0,1,0.1l0-0.5c-0.3-0.1-0.7-0.2-1.1-0.2c-0.6,0-1.1,0.2-1.4,0.5
			c-0.3,0.3-0.4,0.8-0.4,1.5l0,4.5l-1,0v0.4l1,0.3l0.3,1.6l0.3,0l0-1.7l2,0v-0.5l-2,0l0-4.4c0-0.5,0.1-0.9,0.3-1.2
			C-12.3,61.3-12,61.1-11.6,61.1z"/>
		<path class="st10" d="M-3.6,60.7l-1.5,4.6c-0.1,0.3-0.2,0.8-0.4,1.4h0l-0.1-0.5l-0.3-0.9l-1.5-4.6l-0.6,0l-2,6.9l0.7,0l1.1-4
			c0.3-1,0.4-1.7,0.5-2.2h0c0.2,1,0.4,1.7,0.5,2l1.4,4.2h0.6l1.4-4.2c0.3-1,0.5-1.7,0.6-2h0c0,0.3,0.2,1,0.5,2.2l1.1,4l0.6,0
			l-1.9-6.9L-3.6,60.7z"/>
		<path class="st10" d="M6,64.2c0-1.1-0.3-2-0.8-2.6c-0.5-0.6-1.3-1-2.3-1c-0.6,0-1.1,0.1-1.6,0.4c-0.5,0.3-0.8,0.7-1.1,1.3
			c-0.2,0.5-0.4,1.2-0.4,1.9c0,1.1,0.3,2,0.8,2.6C1.3,67.4,2,67.7,3,67.7c0.9,0,1.7-0.3,2.2-1C5.8,66.2,6,65.3,6,64.2z M0.6,64.2
			c0-0.9,0.2-1.7,0.6-2.2c0.4-0.5,1-0.8,1.8-0.8c0.8,0,1.4,0.3,1.8,0.8c0.4,0.5,0.6,1.3,0.6,2.2c0,1-0.2,1.7-0.6,2.2
			c-0.4,0.5-1,0.8-1.8,0.8c-0.8,0-1.3-0.3-1.8-0.8C0.8,65.9,0.6,65.1,0.6,64.2z"/>
		<path class="st10" d="M10.7,67.8c0.3,0,0.6,0,0.9-0.1l-0.1-0.6c-0.3,0.1-0.6,0.1-0.9,0.1c-0.6,0-1.1-0.3-1.4-0.8
			c-0.4-0.5-0.6-1.1-0.6-1.9l0-3.8l-0.6,0l0,6.9l0.5,0l0.1-1.2h0c0.3,0.5,0.6,0.9,0.9,1.1C9.8,67.6,10.2,67.7,10.7,67.8z"/>
		<path class="st10" d="M13.6,63.7l3.5,3.9l0.8,0l-2.7-2.9l3-4l-0.8,0l-2.6,3.5l-1.1-1l0-2.5l-0.6,0l0,9.9l0.6,0l0-5L13.6,63.7
			L13.6,63.7z"/>
		<path class="st10" d="M29.9,65.5c0-1.6-0.4-2.7-1.2-3.5c-0.8-0.8-2-1.2-3.6-1.2l-2.2,0l0,9.3l2.5,0c1.5,0,2.6-0.4,3.4-1.2
			C29.5,68.1,29.9,66.9,29.9,65.5z M29.2,65.4c0,1.3-0.3,2.3-1,3c-0.7,0.7-1.7,1-3,1l-1.7,0l0-8.1l1.5,0
			C27.8,61.3,29.2,62.7,29.2,65.4z"/>
		<path class="st10" d="M34.7,60.6c-1,0-1.8,0.3-2.3,0.9c-0.6,0.6-0.8,1.5-0.8,2.6c0,1.1,0.3,2,0.8,2.6c0.5,0.7,1.3,1,2.2,1
			c0.8,0,1.5-0.3,1.9-0.9c0.5-0.6,0.7-1.3,0.7-2.3l0-0.5l-5,0c0-0.9,0.2-1.7,0.7-2.2c0.4-0.5,1.1-0.7,1.9-0.7c0.4,0,0.7,0,1,0.1
			c0.3,0.1,0.7,0.2,1.1,0.4V61c-0.4-0.2-0.7-0.3-1.1-0.3C35.4,60.6,35.1,60.6,34.7,60.6z M34.5,67.2c-0.7,0-1.2-0.2-1.6-0.7
			c-0.4-0.4-0.6-1.1-0.7-1.9l4.3,0c0,0.8-0.2,1.4-0.5,1.9C35.6,67,35.1,67.2,34.5,67.2z"/>
		<path class="st10" d="M47.7,60.7l0,4.5c0,0.7-0.1,1.2-0.4,1.5C47,67,46.6,67.2,46,67.2c-0.7,0-1.2-0.2-1.6-0.6
			c-0.3-0.4-0.5-1-0.5-1.8l0-4l-0.6,0l0,4.7c0,1.2-0.5,1.7-1.6,1.7c-0.7,0-1.3-0.2-1.6-0.6c-0.3-0.4-0.5-1.1-0.5-2l0-3.8l-0.6,0
			l0,6.9l0.5,0l0.1-0.9h0c0.2,0.3,0.5,0.6,0.8,0.8c0.4,0.2,0.7,0.3,1.2,0.3c1.1,0,1.8-0.4,2.1-1.2l0,0c0.2,0.4,0.5,0.7,0.9,0.9
			s0.8,0.3,1.3,0.3c0.8,0,1.3-0.2,1.7-0.6s0.6-1,0.6-1.9l0-4.5L47.7,60.7z"/>
		<path class="st10" d="M56.2,64.2c0-1.1-0.3-2-0.8-2.6c-0.5-0.6-1.3-1-2.3-1c-0.6,0-1.1,0.1-1.6,0.4c-0.5,0.3-0.8,0.7-1.1,1.3
			s-0.4,1.2-0.4,1.9c0,1.1,0.3,2,0.8,2.6c0.5,0.6,1.3,0.9,2.2,0.9c0.9,0,1.7-0.3,2.2-1C56,66.2,56.2,65.3,56.2,64.2z M50.8,64.2
			c0-0.9,0.2-1.7,0.6-2.2c0.4-0.5,1-0.8,1.8-0.8c0.8,0,1.4,0.3,1.8,0.8s0.6,1.3,0.6,2.2c0,1-0.2,1.7-0.6,2.2s-1,0.8-1.8,0.8
			c-0.8,0-1.3-0.3-1.8-0.8C51,65.9,50.8,65.2,50.8,64.2z"/>
		<path class="st10" d="M62.4,62.5c0-0.6-0.2-1.1-0.7-1.4s-1.1-0.5-2-0.5c-0.9,0-1.7,0.1-2.2,0.4v0.7c0.7-0.3,1.4-0.5,2.2-0.5
			c0.7,0,1.2,0.1,1.6,0.3c0.4,0.2,0.5,0.5,0.5,0.9c0,0.3-0.1,0.6-0.4,0.9c-0.3,0.2-0.7,0.5-1.4,0.7c-0.7,0.2-1.2,0.5-1.5,0.6
			c-0.3,0.2-0.5,0.4-0.6,0.6c-0.1,0.2-0.2,0.5-0.2,0.8c0,0.5,0.2,0.9,0.7,1.2c0.4,0.3,1,0.5,1.8,0.5c0.7,0,1.5-0.1,2.1-0.4L62,66.8
			c-0.7,0.3-1.3,0.4-1.9,0.4c-0.6,0-1-0.1-1.3-0.3c-0.3-0.2-0.5-0.4-0.5-0.8c0-0.4,0.1-0.6,0.4-0.9c0.3-0.2,0.8-0.5,1.5-0.7
			c0.6-0.2,1.1-0.4,1.4-0.6c0.3-0.2,0.5-0.4,0.6-0.6C62.3,63.1,62.4,62.8,62.4,62.5z"/>
	</g>
	<g>
		<g>
			<g class="st19">
				<path class="st10" d="M-119.2,49.9l1.5,0c0.7,0,1.2-0.1,1.5-0.3c0.3-0.2,0.5-0.6,0.5-1c0-0.3-0.1-0.6-0.3-0.8
					c-0.2-0.2-0.5-0.3-0.8-0.4v0c0.4-0.1,0.7-0.2,1-0.4c0.2-0.2,0.3-0.5,0.3-0.9c0-0.5-0.2-0.9-0.5-1.1c-0.3-0.3-0.8-0.4-1.4-0.4
					l-1.7,0L-119.2,49.9z M-118.8,47.5l1.2,0c0.5,0,0.9,0.1,1.1,0.3c0.2,0.2,0.3,0.4,0.3,0.8c0,0.4-0.1,0.6-0.4,0.8
					c-0.3,0.2-0.6,0.2-1.2,0.2l-1.1,0L-118.8,47.5z M-118.8,47.1l0-2.3l1.3,0c1,0,1.5,0.4,1.5,1.2c0,0.7-0.5,1.1-1.6,1.1
					L-118.8,47.1z"/>
				<path class="st10" d="M-112.9,44.4c-0.6,0-1,0.2-1.4,0.5c-0.3,0.4-0.5,0.9-0.5,1.5c0,0.6,0.2,1.2,0.5,1.5
					c0.3,0.4,0.7,0.6,1.3,0.6c0.5,0,0.8-0.2,1.1-0.5c0.3-0.3,0.4-0.8,0.4-1.3v-0.3l-2.9,0c0-0.6,0.1-1,0.4-1.3
					c0.3-0.3,0.6-0.4,1.1-0.4c0.2,0,0.4,0,0.6,0c0.2,0,0.4,0.1,0.7,0.2v-0.3c-0.2-0.1-0.4-0.2-0.6-0.2
					C-112.5,44.4-112.7,44.4-112.9,44.4z M-113,48.2c-0.4,0-0.7-0.1-0.9-0.4c-0.2-0.3-0.4-0.6-0.4-1.1l2.5,0c0,0.5-0.1,0.8-0.3,1.1
					C-112.4,48.1-112.7,48.2-113,48.2z"/>
				<path class="st10" d="M-110,44.5h-0.4l0,5.7h0.4L-110,44.5z"/>
				<path class="st10" d="M-105.4,46.5c0-0.7-0.2-1.2-0.5-1.5c-0.3-0.4-0.8-0.6-1.3-0.6c-0.4,0-0.7,0.1-0.9,0.3
					c-0.3,0.2-0.5,0.4-0.6,0.7c-0.1,0.3-0.2,0.7-0.2,1.1c0,0.7,0.2,1.2,0.5,1.5s0.8,0.5,1.3,0.5c0.6,0,1-0.2,1.3-0.6
					S-105.4,47.1-105.4,46.5z M-108.5,46.5c0-0.6,0.1-1,0.4-1.3c0.2-0.3,0.6-0.5,1-0.5c0.4,0,0.8,0.2,1,0.5c0.2,0.3,0.4,0.7,0.4,1.3
					c0,0.6-0.1,1-0.4,1.3c-0.2,0.3-0.6,0.5-1,0.5c-0.4,0-0.8-0.2-1-0.5C-108.4,47.5-108.5,47-108.5,46.5z"/>
				<path class="st10" d="M-101,44.5l-0.9,2.7c-0.1,0.2-0.1,0.4-0.2,0.8h0l-0.1-0.3l-0.2-0.5l-0.9-2.7l-0.4,0l-1.1,4h0.4l0.6-2.3
					c0.1-0.6,0.2-1,0.3-1.3h0c0.1,0.6,0.2,1,0.3,1.1l0.8,2.4h0.3l0.8-2.4c0.2-0.6,0.3-1,0.3-1.1h0c0,0.2,0.1,0.6,0.3,1.3l0.6,2.3
					h0.4l-1.1-4L-101,44.5z"/>
				<path class="st10" d="M-94.4,44.5l-0.1,0.6h0c-0.2-0.3-0.4-0.4-0.6-0.5c-0.2-0.1-0.5-0.2-0.8-0.2c-0.4,0-0.7,0.1-0.9,0.3
					s-0.3,0.5-0.3,0.8c0,0.4,0.2,0.7,0.5,0.9c0.3,0.2,0.8,0.3,1.4,0.3l0.8,0l0,0.3c0,0.4-0.1,0.7-0.2,0.9c-0.2,0.2-0.4,0.3-0.7,0.3
					c-0.4,0-0.8-0.1-1.2-0.3l-0.1,0.3c0.4,0.2,0.9,0.3,1.3,0.3c0.4,0,0.8-0.1,1-0.3s0.3-0.6,0.3-1.1l0-2.7H-94.4z M-95.9,44.7
					c0.4,0,0.8,0.1,1,0.4s0.4,0.6,0.4,1v0.4l-0.7,0c-0.6,0-1-0.1-1.2-0.3c-0.2-0.1-0.4-0.4-0.4-0.7c0-0.3,0.1-0.4,0.2-0.6
					C-96.4,44.8-96.1,44.7-95.9,44.7z"/>
				<path class="st10" d="M-91.2,48.6c0.2,0,0.4,0,0.5-0.1l-0.1-0.4c-0.2,0-0.3,0.1-0.5,0.1c-0.3,0-0.6-0.1-0.8-0.4
					c-0.2-0.3-0.3-0.7-0.3-1.1l0-2.2h-0.4l0,4h0.3l0-0.7h0c0.2,0.3,0.3,0.5,0.5,0.6S-91.5,48.6-91.2,48.6z"/>
				<path class="st10" d="M-88.3,44.4c-0.6,0-1,0.2-1.4,0.5c-0.3,0.4-0.5,0.9-0.5,1.5c0,0.6,0.2,1.2,0.5,1.5
					c0.3,0.4,0.7,0.6,1.3,0.6c0.5,0,0.8-0.2,1.1-0.5c0.3-0.3,0.4-0.8,0.4-1.3v-0.3l-2.9,0c0-0.6,0.1-1,0.4-1.3
					c0.3-0.3,0.6-0.4,1.1-0.4c0.2,0,0.4,0,0.6,0c0.2,0,0.4,0.1,0.7,0.2v-0.3c-0.2-0.1-0.4-0.2-0.6-0.2C-87.8,44.4-88,44.4-88.3,44.4
					z M-88.4,48.3c-0.4,0-0.7-0.1-0.9-0.4c-0.2-0.3-0.4-0.6-0.4-1.1l2.5,0c0,0.5-0.1,0.8-0.3,1.1C-87.7,48.1-88,48.3-88.4,48.3z"/>
				<path class="st10" d="M-81.3,45.5c0-0.4-0.1-0.6-0.4-0.8c-0.3-0.2-0.7-0.3-1.2-0.3c-0.5,0-1,0.1-1.3,0.2v0.4
					c0.4-0.2,0.8-0.3,1.3-0.3c0.4,0,0.7,0.1,0.9,0.2s0.3,0.3,0.3,0.5c0,0.2-0.1,0.4-0.2,0.5c-0.2,0.1-0.4,0.3-0.8,0.4
					c-0.4,0.1-0.7,0.3-0.8,0.4c-0.2,0.1-0.3,0.2-0.4,0.4c-0.1,0.1-0.1,0.3-0.1,0.5c0,0.3,0.1,0.5,0.4,0.7c0.3,0.2,0.6,0.3,1.1,0.3
					c0.4,0,0.8-0.1,1.2-0.2l-0.1-0.3c-0.4,0.2-0.8,0.2-1.1,0.2c-0.3,0-0.6-0.1-0.8-0.2c-0.2-0.1-0.3-0.3-0.3-0.5
					c0-0.2,0.1-0.4,0.2-0.5c0.1-0.1,0.4-0.3,0.9-0.4c0.4-0.1,0.6-0.2,0.8-0.4c0.2-0.1,0.3-0.2,0.4-0.4
					C-81.3,45.9-81.3,45.7-81.3,45.5z"/>
				<path class="st10" d="M-76.9,46.5c0-0.7-0.2-1.2-0.5-1.5c-0.3-0.4-0.8-0.6-1.3-0.6c-0.4,0-0.7,0.1-0.9,0.3
					c-0.3,0.2-0.5,0.4-0.6,0.7c-0.1,0.3-0.2,0.7-0.2,1.1c0,0.7,0.2,1.2,0.5,1.5c0.3,0.4,0.8,0.5,1.3,0.5c0.6,0,1-0.2,1.3-0.6
					C-77.1,47.7-76.9,47.2-76.9,46.5z M-80.1,46.5c0-0.6,0.1-1,0.4-1.3c0.2-0.3,0.6-0.5,1-0.5c0.4,0,0.8,0.2,1,0.5
					c0.2,0.3,0.4,0.7,0.4,1.3c0,0.6-0.1,1-0.4,1.3c-0.2,0.3-0.6,0.5-1,0.5c-0.4,0-0.8-0.2-1-0.5C-80,47.5-80.1,47.1-80.1,46.5z"/>
				<path class="st10" d="M-70.8,44.5l0,2.6c0,0.4-0.1,0.7-0.2,0.9s-0.4,0.3-0.7,0.3c-0.4,0-0.7-0.1-0.9-0.3
					c-0.2-0.2-0.3-0.6-0.3-1.1l0-2.3l-0.4,0l0,2.7c0,0.7-0.3,1-0.9,1c-0.4,0-0.7-0.1-0.9-0.4s-0.3-0.6-0.3-1.2l0-2.2l-0.4,0l0,4
					l0.3,0l0.1-0.5h0c0.1,0.2,0.3,0.4,0.5,0.5c0.2,0.1,0.4,0.2,0.7,0.2c0.6,0,1-0.2,1.2-0.7h0c0.1,0.2,0.3,0.4,0.5,0.5
					c0.2,0.1,0.5,0.2,0.8,0.2c0.4,0,0.8-0.1,1-0.4c0.2-0.2,0.3-0.6,0.3-1.1l0-2.6H-70.8z"/>
				<path class="st10" d="M-67.5,44.4c-0.6,0-1,0.2-1.4,0.5c-0.3,0.4-0.5,0.9-0.5,1.5c0,0.6,0.2,1.2,0.5,1.5
					c0.3,0.4,0.7,0.6,1.3,0.6c0.5,0,0.8-0.2,1.1-0.5c0.3-0.3,0.4-0.8,0.4-1.3v-0.3l-2.9,0c0-0.6,0.1-1,0.4-1.3
					c0.3-0.3,0.6-0.4,1.1-0.4c0.2,0,0.4,0,0.6,0c0.2,0,0.4,0.1,0.7,0.2v-0.3c-0.2-0.1-0.4-0.2-0.6-0.2
					C-67.1,44.4-67.3,44.4-67.5,44.4z M-67.6,48.3c-0.4,0-0.7-0.1-0.9-0.4c-0.2-0.3-0.4-0.6-0.4-1.1l2.5,0c0,0.5-0.1,0.8-0.3,1.1
					C-67,48.1-67.3,48.3-67.6,48.3z"/>
				<path class="st10" d="M-61.6,48.6c0.3,0,0.5-0.1,0.8-0.2c0.2-0.1,0.4-0.3,0.6-0.5h0c0,0.3,0,0.6,0,0.9v1.4l0.4,0l0-5.7l-0.2,0
					l-0.1,0.6h0c-0.3-0.5-0.7-0.7-1.3-0.7c-0.6,0-1,0.2-1.3,0.5c-0.3,0.3-0.4,0.8-0.4,1.5c0,0.7,0.1,1.2,0.4,1.6
					S-62.1,48.6-61.6,48.6z M-61.6,48.3c-0.4,0-0.8-0.2-1-0.5c-0.2-0.3-0.3-0.8-0.3-1.3c0-1.1,0.4-1.7,1.3-1.7c0.5,0,0.8,0.1,1,0.4
					s0.3,0.7,0.3,1.3v0.1c0,0.6-0.1,1.1-0.3,1.3C-60.8,48.1-61.1,48.3-61.6,48.3z"/>
				<path class="st10" d="M-56.9,44.4c-0.6,0-1,0.2-1.4,0.5c-0.3,0.4-0.5,0.9-0.5,1.5c0,0.6,0.2,1.2,0.5,1.5
					c0.3,0.4,0.7,0.6,1.3,0.6c0.5,0,0.8-0.2,1.1-0.5c0.3-0.3,0.4-0.8,0.4-1.3v-0.3l-2.9,0c0-0.6,0.1-1,0.4-1.3
					c0.3-0.3,0.6-0.4,1.1-0.4c0.2,0,0.4,0,0.6,0c0.2,0,0.4,0.1,0.7,0.2v-0.3c-0.2-0.1-0.4-0.2-0.6-0.2
					C-56.5,44.5-56.7,44.4-56.9,44.4z M-57,48.3c-0.4,0-0.7-0.1-0.9-0.4c-0.2-0.3-0.4-0.6-0.4-1.1l2.5,0c0,0.5-0.1,0.8-0.3,1.1
					C-56.4,48.1-56.7,48.3-57,48.3z"/>
				<path class="st10" d="M-49.4,44.5l0,2.6c0,0.4-0.1,0.7-0.2,0.9c-0.2,0.2-0.4,0.3-0.7,0.3c-0.4,0-0.7-0.1-0.9-0.3
					c-0.2-0.2-0.3-0.6-0.3-1.1l0-2.3h-0.4l0,2.7c0,0.7-0.3,1-0.9,1c-0.4,0-0.7-0.1-0.9-0.4c-0.2-0.2-0.3-0.6-0.3-1.2l0-2.2h-0.4l0,4
					h0.3L-54,48h0c0.1,0.2,0.3,0.4,0.5,0.5s0.4,0.2,0.7,0.2c0.6,0,1-0.2,1.2-0.7h0c0.1,0.2,0.3,0.4,0.5,0.5c0.2,0.1,0.5,0.2,0.8,0.2
					c0.4,0,0.8-0.1,1-0.4c0.2-0.2,0.3-0.6,0.3-1.1l0-2.6H-49.4z"/>
				<path class="st10" d="M-44.4,46.5c0-0.7-0.2-1.2-0.5-1.5c-0.3-0.4-0.8-0.6-1.3-0.6c-0.4,0-0.7,0.1-0.9,0.3
					c-0.3,0.2-0.5,0.4-0.6,0.7c-0.1,0.3-0.2,0.7-0.2,1.1c0,0.7,0.2,1.2,0.5,1.5c0.3,0.4,0.8,0.5,1.3,0.5c0.6,0,1-0.2,1.3-0.6
					C-44.6,47.7-44.4,47.2-44.4,46.5z M-47.6,46.5c0-0.6,0.1-1,0.4-1.3c0.2-0.3,0.6-0.5,1-0.5c0.4,0,0.8,0.2,1,0.5
					c0.2,0.3,0.4,0.7,0.4,1.3c0,0.6-0.1,1-0.4,1.3c-0.2,0.3-0.6,0.5-1,0.5c-0.4,0-0.8-0.2-1-0.5C-47.5,47.5-47.6,47.1-47.6,46.5z"/>
				<path class="st10" d="M-43,49.9L-43,49.9c-0.1-0.7-0.4-1.3-0.6-1.8h-0.2c0.1,0.2,0.1,0.5,0.2,0.9c0.1,0.4,0.1,0.7,0.2,1
					L-43,49.9z"/>
				<path class="st10" d="M-39.7,45.6c0-0.4-0.1-0.6-0.4-0.8c-0.3-0.2-0.7-0.3-1.2-0.3c-0.5,0-1,0.1-1.3,0.2v0.4
					c0.4-0.2,0.8-0.3,1.3-0.3c0.4,0,0.7,0.1,0.9,0.2s0.3,0.3,0.3,0.5c0,0.2-0.1,0.4-0.2,0.5s-0.4,0.3-0.8,0.4
					c-0.4,0.1-0.7,0.3-0.8,0.4c-0.2,0.1-0.3,0.2-0.4,0.4c-0.1,0.1-0.1,0.3-0.1,0.5c0,0.3,0.1,0.5,0.4,0.7c0.3,0.2,0.6,0.3,1.1,0.3
					c0.4,0,0.8-0.1,1.2-0.2l-0.1-0.3c-0.4,0.2-0.8,0.2-1.1,0.2c-0.3,0-0.6-0.1-0.8-0.2c-0.2-0.1-0.3-0.3-0.3-0.4
					c0-0.2,0.1-0.4,0.2-0.5c0.1-0.1,0.4-0.3,0.9-0.4c0.4-0.1,0.6-0.2,0.8-0.4s0.3-0.2,0.4-0.4C-39.8,45.9-39.7,45.7-39.7,45.6z"/>
				<path class="st10" d="M-35.7,44.8c0.2,0,0.4,0,0.6,0.1v-0.3c-0.2-0.1-0.4-0.1-0.6-0.1c-0.4,0-0.6,0.1-0.8,0.3
					c-0.2,0.2-0.3,0.5-0.3,0.9l0,2.6l-0.6,0v0.2l0.6,0.2l0.2,0.9l0.2,0l0-1l1.2,0v-0.3l-1.2,0l0-2.5c0-0.3,0.1-0.5,0.2-0.7
					S-35.9,44.8-35.7,44.8z"/>
				<path class="st10" d="M-30.9,46.5c0-0.7-0.2-1.2-0.5-1.5c-0.3-0.4-0.8-0.6-1.3-0.6c-0.4,0-0.7,0.1-0.9,0.3
					c-0.3,0.2-0.5,0.4-0.6,0.7c-0.1,0.3-0.2,0.7-0.2,1.1c0,0.7,0.2,1.2,0.5,1.5c0.3,0.4,0.8,0.5,1.3,0.5c0.6,0,1-0.2,1.3-0.6
					C-31,47.7-30.9,47.2-30.9,46.5z M-34,46.5c0-0.6,0.1-1,0.4-1.3c0.2-0.3,0.6-0.5,1-0.5c0.4,0,0.8,0.2,1,0.5
					c0.2,0.3,0.4,0.7,0.4,1.3c0,0.6-0.1,1-0.4,1.3c-0.2,0.3-0.6,0.5-1,0.5c-0.4,0-0.8-0.2-1-0.5C-33.9,47.5-34.1,47.1-34,46.5z"/>
				<path class="st10" d="M-25.3,45.6c0-0.4-0.1-0.6-0.4-0.8c-0.3-0.2-0.7-0.3-1.2-0.3c-0.5,0-1,0.1-1.3,0.2v0.4
					c0.4-0.2,0.8-0.3,1.3-0.3c0.4,0,0.7,0.1,0.9,0.2c0.2,0.1,0.3,0.3,0.3,0.5c0,0.2-0.1,0.4-0.2,0.5c-0.2,0.1-0.4,0.3-0.8,0.4
					c-0.4,0.1-0.7,0.3-0.8,0.4c-0.2,0.1-0.3,0.2-0.4,0.4c-0.1,0.1-0.1,0.3-0.1,0.5c0,0.3,0.1,0.5,0.4,0.7c0.3,0.2,0.6,0.3,1.1,0.3
					c0.4,0,0.8-0.1,1.2-0.2l-0.1-0.3c-0.4,0.2-0.8,0.2-1.1,0.2c-0.3,0-0.6-0.1-0.8-0.2c-0.2-0.1-0.3-0.3-0.3-0.5
					c0-0.2,0.1-0.4,0.2-0.5c0.1-0.1,0.4-0.3,0.9-0.4c0.4-0.1,0.6-0.2,0.8-0.4c0.2-0.1,0.3-0.2,0.4-0.4
					C-25.4,45.9-25.3,45.7-25.3,45.6z"/>
				<path class="st10" d="M-21.5,44.5l0,2.6c0,0.4-0.1,0.7-0.3,0.9s-0.4,0.3-0.8,0.3c-0.5,0-0.8-0.1-1.1-0.4
					c-0.2-0.2-0.3-0.6-0.3-1.2l0-2.2l-0.4,0l0,5.7l0.4,0l0-1.8l0-0.5h0c0.2,0.2,0.3,0.4,0.6,0.5c0.2,0.1,0.5,0.2,0.9,0.2
					c0.9,0,1.4-0.5,1.4-1.5l0-2.6H-21.5z"/>
				<path class="st10" d="M-16.5,46.5c0-0.7-0.2-1.2-0.5-1.5c-0.3-0.4-0.8-0.6-1.3-0.6c-0.4,0-0.7,0.1-0.9,0.3
					c-0.3,0.2-0.5,0.4-0.6,0.7c-0.1,0.3-0.2,0.7-0.2,1.1c0,0.7,0.2,1.2,0.5,1.5c0.3,0.4,0.8,0.5,1.3,0.5c0.6,0,1-0.2,1.3-0.6
					C-16.7,47.7-16.5,47.2-16.5,46.5z M-19.7,46.5c0-0.6,0.1-1,0.4-1.3c0.2-0.3,0.6-0.5,1-0.5c0.4,0,0.8,0.2,1,0.5
					c0.2,0.3,0.4,0.7,0.4,1.3c0,0.6-0.1,1-0.4,1.3c-0.2,0.3-0.6,0.5-1,0.5c-0.4,0-0.8-0.2-1-0.5C-19.6,47.5-19.7,47.1-19.7,46.5z"/>
				<path class="st10" d="M-12.2,44.5l-0.9,2.7c-0.1,0.2-0.1,0.4-0.2,0.8h0l-0.1-0.3l-0.2-0.5l-0.9-2.7l-0.4,0l-1.1,4h0.4l0.6-2.3
					c0.1-0.6,0.2-1,0.3-1.3h0c0.1,0.6,0.2,1,0.3,1.1l0.8,2.4h0.3l0.8-2.4c0.2-0.6,0.3-1,0.3-1.1h0c0,0.2,0.1,0.6,0.3,1.3l0.6,2.3
					h0.4l-1.1-4L-12.2,44.5z"/>
				<path class="st10" d="M-8.3,44.5c-0.6,0-1,0.2-1.3,0.5c-0.3,0.4-0.5,0.9-0.5,1.5c0,0.7,0.2,1.2,0.5,1.6c0.3,0.4,0.8,0.6,1.4,0.6
					c0.3,0,0.7-0.1,1-0.2l-0.1-0.3c-0.3,0.1-0.6,0.2-0.9,0.2c-0.5,0-0.9-0.2-1.1-0.5c-0.3-0.3-0.4-0.7-0.4-1.3c0-0.5,0.1-1,0.4-1.3
					c0.3-0.3,0.6-0.5,1.1-0.5c0.4,0,0.7,0.1,1,0.2v-0.3C-7.6,44.5-7.9,44.5-8.3,44.5z"/>
				<path class="st10" d="M-3.9,44.5L-4,45.2h0c-0.2-0.3-0.4-0.4-0.6-0.5c-0.2-0.1-0.5-0.2-0.8-0.2c-0.4,0-0.7,0.1-0.9,0.3
					s-0.3,0.5-0.3,0.8c0,0.4,0.2,0.7,0.5,0.9c0.3,0.2,0.8,0.3,1.4,0.3l0.8,0l0,0.3c0,0.4-0.1,0.7-0.2,0.9c-0.2,0.2-0.4,0.3-0.7,0.3
					c-0.4,0-0.8-0.1-1.2-0.3l-0.1,0.3c0.4,0.2,0.9,0.3,1.3,0.3c0.4,0,0.8-0.1,1-0.3c0.2-0.2,0.3-0.6,0.3-1.1l0-2.7H-3.9z M-5.4,44.8
					c0.4,0,0.8,0.1,1,0.4s0.4,0.6,0.4,1v0.4l-0.7,0c-0.6,0-1-0.1-1.2-0.3c-0.2-0.1-0.4-0.4-0.4-0.7c0-0.3,0.1-0.4,0.2-0.6
					C-5.9,44.9-5.7,44.8-5.4,44.8z"/>
				<path class="st10" d="M0.1,45.6c0-0.4-0.1-0.6-0.4-0.8c-0.3-0.2-0.7-0.3-1.2-0.3c-0.5,0-1,0.1-1.3,0.2v0.4
					c0.4-0.2,0.8-0.3,1.3-0.3c0.4,0,0.7,0.1,0.9,0.2c0.2,0.1,0.3,0.3,0.3,0.5c0,0.2-0.1,0.4-0.2,0.5s-0.4,0.3-0.8,0.4
					c-0.4,0.1-0.7,0.3-0.8,0.4c-0.2,0.1-0.3,0.2-0.4,0.4c-0.1,0.1-0.1,0.3-0.1,0.5c0,0.3,0.1,0.5,0.4,0.7c0.3,0.2,0.6,0.3,1.1,0.3
					c0.4,0,0.8-0.1,1.2-0.2l-0.1-0.3c-0.4,0.2-0.8,0.2-1.1,0.2c-0.3,0-0.6-0.1-0.8-0.2c-0.2-0.1-0.3-0.3-0.3-0.4
					c0-0.2,0.1-0.4,0.2-0.5c0.1-0.1,0.4-0.3,0.9-0.4c0.4-0.1,0.6-0.2,0.8-0.4s0.3-0.2,0.4-0.4C0.1,45.9,0.1,45.8,0.1,45.6z"/>
				<path class="st10" d="M2.8,44.5c-0.6,0-1,0.2-1.4,0.5c-0.3,0.4-0.5,0.9-0.5,1.5c0,0.6,0.2,1.2,0.5,1.5c0.3,0.4,0.7,0.6,1.3,0.6
					c0.5,0,0.8-0.2,1.1-0.5c0.3-0.3,0.4-0.8,0.4-1.3v-0.3l-2.9,0c0-0.6,0.1-1,0.4-1.3c0.3-0.3,0.6-0.4,1.1-0.4c0.2,0,0.4,0,0.6,0
					c0.2,0,0.4,0.1,0.7,0.2v-0.3c-0.2-0.1-0.4-0.2-0.6-0.2C3.2,44.5,3,44.5,2.8,44.5z M2.7,48.3c-0.4,0-0.7-0.1-0.9-0.4
					c-0.2-0.3-0.4-0.6-0.4-1.1l2.5,0c0,0.5-0.1,0.8-0.3,1.1C3.3,48.2,3,48.3,2.7,48.3z"/>
				<path class="st10" d="M9.8,45.6c0-0.4-0.1-0.6-0.4-0.8c-0.3-0.2-0.7-0.3-1.2-0.3c-0.5,0-1,0.1-1.3,0.2v0.4
					c0.4-0.2,0.8-0.3,1.3-0.3c0.4,0,0.7,0.1,0.9,0.2c0.2,0.1,0.3,0.3,0.3,0.5c0,0.2-0.1,0.4-0.2,0.5s-0.4,0.3-0.8,0.4
					c-0.4,0.1-0.7,0.3-0.8,0.4c-0.2,0.1-0.3,0.2-0.4,0.4C7.1,47.3,7,47.5,7,47.7c0,0.3,0.1,0.5,0.4,0.7c0.3,0.2,0.6,0.3,1.1,0.3
					c0.4,0,0.8-0.1,1.2-0.2l-0.1-0.3c-0.4,0.2-0.8,0.2-1.1,0.2c-0.3,0-0.6-0.1-0.8-0.2c-0.2-0.1-0.3-0.3-0.3-0.4
					c0-0.2,0.1-0.4,0.2-0.5c0.1-0.1,0.4-0.3,0.9-0.4c0.4-0.1,0.6-0.2,0.8-0.4s0.3-0.2,0.4-0.4C9.7,45.9,9.8,45.8,9.8,45.6z"/>
				<path class="st10" d="M14.1,46.6c0-0.7-0.2-1.2-0.5-1.5c-0.3-0.4-0.8-0.6-1.3-0.6c-0.4,0-0.7,0.1-0.9,0.3
					c-0.3,0.2-0.5,0.4-0.6,0.7c-0.1,0.3-0.2,0.7-0.2,1.1c0,0.7,0.2,1.2,0.5,1.5s0.8,0.5,1.3,0.5c0.6,0,1-0.2,1.3-0.6
					S14.1,47.2,14.1,46.6z M10.9,46.6c0-0.6,0.1-1,0.4-1.3c0.2-0.3,0.6-0.5,1-0.5c0.4,0,0.8,0.2,1,0.5c0.2,0.3,0.4,0.7,0.4,1.3
					c0,0.6-0.1,1-0.4,1.3c-0.2,0.3-0.6,0.5-1,0.5c-0.4,0-0.8-0.2-1-0.5C11.1,47.5,10.9,47.1,10.9,46.6z"/>
				<path class="st10" d="M20.2,44.5l0,2.6c0,0.4-0.1,0.7-0.2,0.9s-0.4,0.3-0.7,0.3c-0.4,0-0.7-0.1-0.9-0.3
					c-0.2-0.2-0.3-0.6-0.3-1.1l0-2.3h-0.4l0,2.7c0,0.7-0.3,1-0.9,1c-0.4,0-0.7-0.1-0.9-0.4c-0.2-0.2-0.3-0.6-0.3-1.2l0-2.2h-0.4l0,4
					h0.3l0.1-0.5h0c0.1,0.2,0.3,0.4,0.5,0.5c0.2,0.1,0.4,0.2,0.7,0.2c0.6,0,1-0.2,1.2-0.7h0c0.1,0.2,0.3,0.4,0.5,0.5
					c0.2,0.1,0.5,0.2,0.8,0.2c0.4,0,0.8-0.1,1-0.4s0.3-0.6,0.3-1.1l0-2.6L20.2,44.5z"/>
				<path class="st10" d="M23.5,44.5c-0.6,0-1,0.2-1.4,0.5c-0.3,0.4-0.5,0.9-0.5,1.5c0,0.6,0.2,1.2,0.5,1.5c0.3,0.4,0.7,0.6,1.3,0.6
					c0.5,0,0.8-0.2,1.1-0.5c0.3-0.3,0.4-0.8,0.4-1.3v-0.3l-2.9,0c0-0.6,0.1-1,0.4-1.3c0.3-0.3,0.6-0.4,1.1-0.4c0.2,0,0.4,0,0.6,0
					c0.2,0,0.4,0.1,0.7,0.2v-0.3c-0.2-0.1-0.4-0.2-0.6-0.2C24,44.5,23.7,44.5,23.5,44.5z M23.4,48.3c-0.4,0-0.7-0.1-0.9-0.4
					c-0.2-0.3-0.4-0.6-0.4-1.1l2.5,0c0,0.5-0.1,0.8-0.3,1.1C24,48.2,23.8,48.3,23.4,48.3z"/>
				<path class="st10" d="M31.3,46.6c0-0.7-0.2-1.2-0.5-1.5c-0.3-0.4-0.8-0.6-1.3-0.6c-0.4,0-0.7,0.1-0.9,0.3
					c-0.3,0.2-0.5,0.4-0.6,0.7c-0.1,0.3-0.2,0.7-0.2,1.1c0,0.7,0.2,1.2,0.5,1.5c0.3,0.4,0.8,0.5,1.3,0.5c0.6,0,1-0.2,1.3-0.6
					C31.2,47.7,31.3,47.2,31.3,46.6z M28.1,46.6c0-0.6,0.1-1,0.4-1.3c0.2-0.3,0.6-0.5,1-0.5c0.4,0,0.8,0.2,1,0.5
					c0.2,0.3,0.4,0.7,0.4,1.3c0,0.6-0.1,1-0.4,1.3c-0.2,0.3-0.6,0.5-1,0.5c-0.4,0-0.8-0.2-1-0.5C28.3,47.6,28.1,47.1,28.1,46.6z"/>
				<path class="st10" d="M33.9,48.3l-0.9,0l0-3.7h-0.4l0,3.7l-0.7,0v0.2l0.7,0.1l0,0.3c0,0.5,0.1,0.9,0.3,1.1s0.5,0.3,0.9,0.3
					c0.2,0,0.4,0,0.7-0.1l-0.1-0.3C34.1,50,33.9,50,33.8,50c-0.3,0-0.5-0.1-0.6-0.3S33,49.3,33,48.9l0-0.4l0.9,0V48.3z"/>
				<path class="st10" d="M37.7,44.8c0.2,0,0.4,0,0.6,0.1v-0.3c-0.2-0.1-0.4-0.1-0.6-0.1c-0.4,0-0.6,0.1-0.8,0.3
					c-0.2,0.2-0.3,0.5-0.3,0.9l0,2.6h-0.6v0.2l0.6,0.2l0.2,0.9H37l0-1l1.2,0v-0.3l-1.2,0l0-2.5c0-0.3,0.1-0.5,0.2-0.7
					S37.5,44.8,37.7,44.8z"/>
				<path class="st10" d="M42,44.6l0,2.6c0,0.4-0.1,0.7-0.3,0.9s-0.4,0.3-0.8,0.3c-0.5,0-0.8-0.1-1.1-0.4c-0.2-0.2-0.3-0.6-0.3-1.2
					l0-2.2l-0.4,0l0,5.7l0.4,0l0-1.8l0-0.5h0c0.2,0.2,0.3,0.4,0.6,0.5c0.2,0.1,0.5,0.2,0.9,0.2c0.9,0,1.4-0.5,1.4-1.5l0-2.6L42,44.6
					z"/>
				<path class="st10" d="M45.3,44.5c-0.6,0-1,0.2-1.4,0.5c-0.3,0.4-0.5,0.9-0.5,1.5c0,0.6,0.2,1.2,0.5,1.5c0.3,0.4,0.7,0.6,1.3,0.6
					c0.5,0,0.8-0.2,1.1-0.5c0.3-0.3,0.4-0.8,0.4-1.3v-0.3l-2.9,0c0-0.6,0.1-1,0.4-1.3c0.3-0.3,0.6-0.4,1.1-0.4c0.2,0,0.4,0,0.6,0
					c0.2,0,0.4,0.1,0.7,0.2v-0.3c-0.2-0.1-0.4-0.2-0.6-0.2C45.7,44.5,45.5,44.5,45.3,44.5z M45.1,48.3c-0.4,0-0.7-0.1-0.9-0.4
					c-0.2-0.3-0.4-0.6-0.4-1.1l2.5,0c0,0.5-0.1,0.8-0.3,1.1C45.8,48.2,45.5,48.3,45.1,48.3z"/>
				<path class="st10" d="M50.1,46.3l2,2.3l0.4,0L51,46.9l1.7-2.3l-0.4,0l-1.5,2L50.1,46l0-1.4l-0.4,0l0,5.7l0.4,0l0-2.9L50.1,46.3
					L50.1,46.3z"/>
				<path class="st10" d="M55,44.5c-0.6,0-1,0.2-1.4,0.5c-0.3,0.4-0.5,0.9-0.5,1.5c0,0.6,0.2,1.2,0.5,1.5c0.3,0.4,0.7,0.6,1.3,0.6
					c0.5,0,0.8-0.2,1.1-0.5c0.3-0.3,0.4-0.8,0.4-1.3v-0.3l-2.9,0c0-0.6,0.1-1,0.4-1.3c0.3-0.3,0.6-0.4,1.1-0.4c0.2,0,0.4,0,0.6,0
					c0.2,0,0.4,0.1,0.7,0.2v-0.3c-0.2-0.1-0.4-0.2-0.6-0.2C55.5,44.5,55.3,44.5,55,44.5z M54.9,48.3c-0.4,0-0.7-0.1-0.9-0.4
					c-0.2-0.3-0.4-0.6-0.4-1.1l2.5,0c0,0.5-0.1,0.8-0.3,1.1C55.5,48.2,55.3,48.3,54.9,48.3z"/>
				<path class="st10" d="M56.9,48.6l0.4,0l0.8-2.2c0.3-0.7,0.4-1.2,0.5-1.4h0c0.1,0.3,0.3,0.8,0.5,1.4l0.8,2.2h0.4l-1.8-4.7
					c-0.1-0.4-0.3-0.6-0.4-0.8s-0.2-0.2-0.3-0.3c-0.1-0.1-0.3-0.1-0.5-0.1c-0.1,0-0.3,0-0.5,0.1v0.3c0.1,0,0.3-0.1,0.5-0.1
					c0.1,0,0.2,0,0.3,0.1c0.1,0.1,0.2,0.2,0.3,0.3c0.1,0.1,0.2,0.3,0.3,0.6c0.1,0.3,0.2,0.4,0.2,0.5L56.9,48.6z"/>
				<path class="st10" d="M65.8,44.6l0,2.6c0,0.4-0.1,0.7-0.3,0.9c-0.2,0.2-0.4,0.3-0.8,0.3c-0.5,0-0.8-0.1-1.1-0.4
					s-0.3-0.6-0.3-1.2l0-2.2l-0.4,0l0,4l0.3,0l0.1-0.5h0c0.3,0.4,0.7,0.6,1.4,0.6c0.9,0,1.4-0.5,1.4-1.5l0-2.6H65.8z"/>
				<path class="st10" d="M69.1,44.5c-0.6,0-1,0.2-1.4,0.5c-0.3,0.4-0.5,0.9-0.5,1.5c0,0.6,0.2,1.2,0.5,1.5c0.3,0.4,0.7,0.6,1.3,0.6
					c0.5,0,0.8-0.2,1.1-0.5c0.3-0.3,0.4-0.8,0.4-1.3v-0.3l-2.9,0c0-0.6,0.1-1,0.4-1.3c0.3-0.3,0.6-0.4,1.1-0.4c0.2,0,0.4,0,0.6,0
					c0.2,0,0.4,0.1,0.7,0.2v-0.3c-0.2-0.1-0.4-0.2-0.6-0.2C69.5,44.5,69.3,44.5,69.1,44.5z M68.9,48.3c-0.4,0-0.7-0.1-0.9-0.4
					c-0.2-0.3-0.4-0.6-0.4-1.1l2.5,0c0,0.5-0.1,0.8-0.3,1.1C69.6,48.2,69.3,48.3,68.9,48.3z"/>
				<path class="st10" d="M72.6,44.8c0.2,0,0.4,0,0.6,0.1v-0.3c-0.2-0.1-0.4-0.1-0.6-0.1c-0.4,0-0.6,0.1-0.8,0.3
					c-0.2,0.2-0.3,0.5-0.3,0.9l0,2.6H71v0.2l0.6,0.2l0.2,0.9H72l0-1l1.2,0v-0.3l-1.2,0l0-2.5c0-0.3,0.1-0.5,0.2-0.7
					S72.4,44.8,72.6,44.8z"/>
				<path class="st10" d="M77.3,44.6l-0.9,2.7c-0.1,0.2-0.1,0.4-0.2,0.8h0l-0.1-0.3L76,47.3l-0.9-2.7h-0.4l-1.1,4h0.4l0.6-2.3
					c0.1-0.6,0.2-1,0.3-1.3h0c0.1,0.6,0.2,1,0.3,1.1l0.8,2.4l0.3,0l0.8-2.4c0.2-0.6,0.3-1,0.3-1.1h0c0,0.2,0.1,0.6,0.3,1.3l0.6,2.3
					l0.4,0l-1.1-4H77.3z"/>
				<path class="st10" d="M82.9,46.6c0-0.7-0.2-1.2-0.5-1.5c-0.3-0.4-0.8-0.6-1.3-0.6c-0.4,0-0.7,0.1-0.9,0.3
					c-0.3,0.2-0.5,0.4-0.6,0.7c-0.1,0.3-0.2,0.7-0.2,1.1c0,0.7,0.2,1.2,0.5,1.5c0.3,0.4,0.8,0.5,1.3,0.5c0.6,0,1-0.2,1.3-0.6
					C82.7,47.7,82.9,47.2,82.9,46.6z M79.7,46.6c0-0.6,0.1-1,0.4-1.3c0.2-0.3,0.6-0.5,1-0.5c0.4,0,0.8,0.2,1,0.5
					c0.2,0.3,0.4,0.7,0.4,1.3c0,0.6-0.1,1-0.4,1.3c-0.2,0.3-0.6,0.5-1,0.5c-0.4,0-0.8-0.2-1-0.5C79.8,47.6,79.7,47.1,79.7,46.6z"/>
				<path class="st10" d="M85.6,48.7c0.2,0,0.4,0,0.5-0.1l-0.1-0.4c-0.2,0-0.3,0.1-0.5,0.1c-0.3,0-0.6-0.1-0.8-0.4
					c-0.2-0.3-0.3-0.7-0.3-1.1l0-2.2H84l0,4h0.3l0-0.7h0c0.2,0.3,0.3,0.5,0.5,0.6C85.1,48.6,85.3,48.7,85.6,48.7z"/>
				<path class="st10" d="M87.3,46.3l2,2.3h0.4l-1.6-1.7l1.7-2.3h-0.4l-1.5,2L87.3,46l0-1.4h-0.4l0,5.7h0.4l0-2.9L87.3,46.3
					L87.3,46.3z"/>
				<path class="st10" d="M94,48.3l-0.9,0l0-3.7h-0.4l0,3.7l-0.7,0v0.2l0.7,0.1l0,0.3c0,0.5,0.1,0.9,0.3,1.1s0.5,0.3,0.9,0.3
					c0.2,0,0.4,0,0.7-0.1L94.5,50C94.3,50,94.1,50,93.9,50c-0.3,0-0.5-0.1-0.6-0.3s-0.2-0.4-0.2-0.8l0-0.4l0.9,0V48.3z"/>
				<path class="st10" d="M96.4,44.5c-0.6,0-1,0.2-1.4,0.5c-0.3,0.4-0.5,0.9-0.5,1.5c0,0.6,0.2,1.2,0.5,1.5c0.3,0.4,0.7,0.6,1.3,0.6
					c0.5,0,0.8-0.2,1.1-0.5c0.3-0.3,0.4-0.8,0.4-1.3v-0.3l-2.9,0c0-0.6,0.1-1,0.4-1.3c0.3-0.3,0.6-0.4,1.1-0.4c0.2,0,0.4,0,0.6,0
					c0.2,0,0.4,0.1,0.7,0.2v-0.3c-0.2-0.1-0.4-0.2-0.6-0.2C96.9,44.5,96.7,44.5,96.4,44.5z M96.3,48.4c-0.4,0-0.7-0.1-0.9-0.4
					c-0.2-0.3-0.4-0.6-0.4-1.1l2.5,0c0,0.5-0.1,0.8-0.3,1.1C97,48.2,96.7,48.4,96.3,48.4z"/>
				<path class="st10" d="M101.4,44.6l-0.1,0.6h0c-0.2-0.3-0.4-0.4-0.6-0.5c-0.2-0.1-0.5-0.2-0.8-0.2c-0.4,0-0.7,0.1-0.9,0.3
					s-0.3,0.5-0.3,0.8c0,0.4,0.2,0.7,0.5,0.9c0.3,0.2,0.8,0.3,1.4,0.3l0.8,0l0,0.3c0,0.4-0.1,0.7-0.2,0.9c-0.2,0.2-0.4,0.3-0.7,0.3
					c-0.4,0-0.8-0.1-1.2-0.3l-0.1,0.3c0.4,0.2,0.9,0.3,1.3,0.3c0.4,0,0.8-0.1,1-0.3c0.2-0.2,0.3-0.6,0.3-1.1l0-2.7H101.4z
					 M99.9,44.9c0.4,0,0.8,0.1,1,0.4c0.2,0.2,0.4,0.6,0.4,1v0.4l-0.7,0c-0.6,0-1-0.1-1.2-0.3C99.2,46.2,99,46,99,45.6
					c0-0.3,0.1-0.4,0.2-0.6C99.4,44.9,99.6,44.9,99.9,44.9z"/>
				<path class="st10" d="M104,44.8c0.2,0,0.4,0,0.6,0.1v-0.3c-0.2-0.1-0.4-0.1-0.6-0.1c-0.4,0-0.6,0.1-0.8,0.3
					c-0.2,0.2-0.3,0.5-0.3,0.9l0,2.6h-0.6v0.2l0.6,0.2l0.2,0.9h0.2l0-1l1.2,0v-0.3l-1.2,0l0-2.5c0-0.3,0.1-0.5,0.2-0.7
					S103.8,44.8,104,44.8z"/>
				<path class="st10" d="M105.8,48.6l0-2.6c0-0.4,0.1-0.7,0.3-0.9c0.2-0.2,0.4-0.3,0.8-0.3c0.5,0,0.8,0.1,1.1,0.4
					c0.2,0.2,0.3,0.6,0.3,1.2l0,2.2l0.4,0l0-4l-0.3,0l-0.1,0.6h0c-0.3-0.4-0.7-0.6-1.4-0.6c-0.9,0-1.4,0.5-1.4,1.5l0,2.6L105.8,48.6
					z"/>
				<path class="st10" d="M111.5,48.7c0.2,0,0.4,0,0.5-0.1l-0.1-0.4c-0.2,0-0.3,0.1-0.5,0.1c-0.3,0-0.6-0.1-0.8-0.4
					c-0.2-0.3-0.3-0.7-0.3-1.1l0-2.2l-0.4,0l0,4l0.3,0l0-0.7h0c0.2,0.3,0.3,0.5,0.5,0.6C111,48.6,111.3,48.7,111.5,48.7z"/>
				<path class="st10" d="M114.5,44.5c-0.6,0-1,0.2-1.4,0.5c-0.3,0.4-0.5,0.9-0.5,1.5c0,0.6,0.2,1.2,0.5,1.5s0.7,0.6,1.3,0.6
					c0.5,0,0.8-0.2,1.1-0.5c0.3-0.3,0.4-0.8,0.4-1.3v-0.3l-2.9,0c0-0.6,0.1-1,0.4-1.3c0.3-0.3,0.6-0.4,1.1-0.4c0.2,0,0.4,0,0.6,0
					c0.2,0,0.4,0.1,0.7,0.2v-0.3c-0.2-0.1-0.4-0.2-0.6-0.2C115,44.5,114.7,44.5,114.5,44.5z M114.4,48.4c-0.4,0-0.7-0.1-0.9-0.4
					c-0.2-0.3-0.4-0.6-0.4-1.1l2.5,0c0,0.5-0.1,0.8-0.3,1.1C115,48.2,114.8,48.4,114.4,48.4z"/>
				<path class="st10" d="M119.5,45.6c0-0.4-0.1-0.6-0.4-0.8c-0.3-0.2-0.7-0.3-1.2-0.3c-0.5,0-1,0.1-1.3,0.2v0.4
					c0.4-0.2,0.8-0.3,1.3-0.3c0.4,0,0.7,0.1,0.9,0.2c0.2,0.1,0.3,0.3,0.3,0.5c0,0.2-0.1,0.4-0.2,0.5c-0.2,0.1-0.4,0.3-0.8,0.4
					c-0.4,0.1-0.7,0.3-0.8,0.4c-0.2,0.1-0.3,0.2-0.4,0.4c-0.1,0.1-0.1,0.3-0.1,0.5c0,0.3,0.1,0.5,0.4,0.7c0.3,0.2,0.6,0.3,1.1,0.3
					c0.4,0,0.8-0.1,1.2-0.2l-0.1-0.3c-0.4,0.2-0.8,0.2-1.1,0.2c-0.3,0-0.6-0.1-0.8-0.2c-0.2-0.1-0.3-0.3-0.3-0.4
					c0-0.2,0.1-0.4,0.2-0.5c0.1-0.1,0.4-0.3,0.9-0.4c0.4-0.1,0.6-0.2,0.8-0.4s0.3-0.2,0.4-0.4C119.5,46,119.5,45.8,119.5,45.6z"/>
			</g>
		</g>
	</g>
	<g>
		<polygon class="st4" points="209.9,122.8 -210,122.8 -210,134.8 209.9,134.8 		"/>
		<g>
			<line class="st20" x1="202.4" y1="130.3" x2="205.4" y2="127.3"/>
			<line class="st20" x1="205.4" y1="130.3" x2="202.4" y2="127.3"/>
		</g>
		<path d="M193,130.3v-3h-3v3H193 M193.4,130.6H193h-3h-0.4v-0.4v-3v-0.4h0.4h3h0.4v0.4v3V130.6L193.4,130.6z"/>
		<g>
			<polygon points="180.6,128.8 176.9,128.8 176.9,129.1 180.6,129.1 			"/>
		</g>
	</g>
</symbol>
<g>
	
		<use xlink:href="#New_Symbol_2"  width="457.9" height="299.5" id="XMLID_57_" x="-229" y="-149.8" transform="matrix(1 0 0 -1 331.126 155.0878)" style="overflow:visible;"/>
	<g>
		
			<use xlink:href="#New_Symbol_1"  width="222" height="141" x="-111" y="-70.5" transform="matrix(1 0 0 -1 120.9147 284.172)" style="overflow:visible;"/>
	</g>
</g>
<g>
</g>
<g>
</g>
<g>
</g>
<g>
</g>
<g>
</g>
<g>
</g>
<g>
</g>
<g>
</g>
<g>
</g>
<g>
</g>
<g>
</g>
<g>
</g>
<g>
</g>
</svg>
