<?xml version="1.0" encoding="utf-8"?>
<!-- Generator: Adobe Illustrator 19.1.0, SVG Export Plug-In . SVG Version: 6.00 Build 0)  -->
<svg version="1.1" id="Layer_1" xmlns="http://www.w3.org/2000/svg" xmlns:xlink="http://www.w3.org/1999/xlink" x="0px" y="0px"
	 viewBox="0 0 25 25" style="enable-background:new 0 0 25 25;" xml:space="preserve">
<style type="text/css">
	.st0{fill-rule:evenodd;clip-rule:evenodd;fill:#5593d7;}
</style>
<path class="st0" d="M12.5,1C6,1,0.7,6.3,0.7,12.8c0,5.2,3.4,9.6,8.1,11.2c0.6,0.1,0.8-0.3,0.8-0.6c0-0.3,0-1,0-2
	c-3.3,0.7-4-1.6-4-1.6c-0.5-1.4-1.3-1.7-1.3-1.7c-1.1-0.7,0.1-0.7,0.1-0.7c1.2,0.1,1.8,1.2,1.8,1.2c1.1,1.8,2.8,1.3,3.4,1
	c0.1-0.8,0.4-1.3,0.7-1.6C7.7,17.7,5,16.7,5,12.2C5,10.9,5.4,9.8,6.2,9C6.1,8.7,5.7,7.5,6.3,5.9c0,0,1-0.3,3.2,1.2
	c0.9-0.3,1.9-0.4,3-0.4c1,0,2,0.1,3,0.4c2.3-1.5,3.2-1.2,3.2-1.2c0.6,1.6,0.2,2.8,0.1,3.1c0.8,0.8,1.2,1.9,1.2,3.2
	c0,4.5-2.8,5.5-5.4,5.8c0.4,0.4,0.8,1.1,0.8,2.2c0,1.6,0,2.8,0,3.2c0,0.3,0.2,0.7,0.8,0.6c4.7-1.6,8.1-6,8.1-11.2
	C24.3,6.3,19,1,12.5,1z"/>
</svg>
