<?xml version="1.0" encoding="utf-8"?>
<!-- Generator: Adobe Illustrator 19.1.0, SVG Export Plug-In . SVG Version: 6.00 Build 0)  -->
<svg version="1.1" id="Layer_1" xmlns="http://www.w3.org/2000/svg" xmlns:xlink="http://www.w3.org/1999/xlink" x="0px" y="0px"
	 viewBox="0 0 32 32" style="enable-background:new 0 0 32 32;" xml:space="preserve">
<style type="text/css">
	.st0{fill:#5593D7;}
	.st1{fill:#FFFFFF;}
</style>
<g>
	<path class="st0" d="M16,6C10.5,6,6,10.5,6,16c0,5.5,4.5,10,10,10s10-4.5,10-10C26,10.5,21.5,6,16,6z"/>
	<path class="st1" d="M16,6c5.5,0,10,4.5,10,10s-4.5,10-10,10S6,21.5,6,16S10.5,6,16,6 M16,1C7.7,1,1,7.7,1,16s6.7,15,15,15
		s15-6.7,15-15S24.3,1,16,1L16,1z"/>
</g>
</svg>
