<?xml version="1.0" encoding="utf-8"?>
<!-- Generator: Adobe Illustrator 19.1.0, SVG Export Plug-In . SVG Version: 6.00 Build 0)  -->
<svg version="1.1" id="Layer_1" xmlns="http://www.w3.org/2000/svg" xmlns:xlink="http://www.w3.org/1999/xlink" x="0px" y="0px"
	 viewBox="0 0 530 370" style="enable-background:new 0 0 530 370;" xml:space="preserve">
<style type="text/css">
	.st0{fill:#E9E9E9;}
	.st1{opacity:0.1;fill:none;stroke:#000000;stroke-miterlimit:10;}
	.st2{fill:url(#SVGID_1_);}
	.st3{fill:#F3F3F3;}
	.st4{opacity:0.25;}
	.st5{fill:#7D8087;}
	.st6{fill:#68696F;}
	.st7{fill:#5891CC;}
	.st8{fill:#FFFFFF;}
	.st9{fill:#5891CC;stroke:#5891CC;stroke-miterlimit:10;}
	.st10{opacity:0.5;fill:none;stroke:#FFFFFF;stroke-width:0.7483;stroke-miterlimit:10;}
	.st11{fill:none;stroke:#353535;stroke-width:1.1011;stroke-miterlimit:10;}
	.st12{fill:#745FA8;}
	.st13{fill:#FCBB59;}
	.st14{fill:#69C07F;}
	.st15{opacity:0.6;fill:#010101;}
	.st16{opacity:0.3;fill:none;stroke:#5E5E5E;stroke-miterlimit:10;}
	.st17{opacity:0.4;}
	.st18{fill:#4D4C4D;}
	.st19{fill:#595959;}
	.st20{fill:#838383;}
	.st21{fill:#99BBE1;}
	.st22{fill:#C8C7CA;}
	.st23{fill:#F7DC7B;}
</style>
<symbol  id="New_Symbol" viewBox="-210.6 -159.5 421.2 319">
	<g>
		<g id="XMLID_79_">
			<g id="XMLID_442_">
				
					<image style="overflow:visible;opacity:0.25;" width="1755" height="1329" xlink:href="59F7E0C.png"  transform="matrix(0.24 0 0 -0.24 -210.6 159.48)">
				</image>
				<g>
					<path class="st0" d="M189.4-136.9l-379-0.1c-1.4,0-2.6,1.1-2.6,2.6v276.8c0,1.4,1.1,2.6,2.6,2.6l379,0c1.4,0,2.6-1.1,2.6-2.6
						v-276.7C192-135.7,190.8-136.9,189.4-136.9z"/>
					<path class="st1" d="M189.4-136.9l-379-0.1c-1.4,0-2.6,1.1-2.6,2.6v276.8c0,1.4,1.1,2.6,2.6,2.6l379,0c1.4,0,2.6-1.1,2.6-2.6
						v-276.7C192-135.7,190.8-136.9,189.4-136.9z"/>
				</g>
			</g>
			<g id="XMLID_430_">
				<g id="XMLID_440_">
					
						<linearGradient id="SVGID_1_" gradientUnits="userSpaceOnUse" x1="-8.395486e-002" y1="144.9432" x2="-8.395486e-002" y2="134.2189">
						<stop  offset="0" style="stop-color:#E7E7E7"/>
						<stop  offset="1" style="stop-color:#D0D0D1"/>
					</linearGradient>
					<path class="st2" d="M191.9,134.2h-384v5.7c0,2.8,2.2,5,5,5h374c2.8,0,5-2.2,5-5V134.2z"/>
				</g>
				<g id="XMLID_438_">
					<path class="st3" d="M190.9,144.4c-0.4,0.3-0.9,0.5-1.5,0.5h-378.9c-0.6,0-1.1-0.2-1.5-0.5H190.9z"/>
				</g>
				<polygon id="XMLID_437_" class="st4" points="191.9,133.7 -192.1,133.7 -192.1,134.2 191.9,134.2 				"/>
				<g id="XMLID_435_">
					<path class="st5" d="M-164.5,136.4c-1.6,0-3,1.3-3,3c0,1.6,1.3,3,3,3c1.6,0,3-1.3,3-3C-161.6,137.7-162.9,136.4-164.5,136.4z"
						/>
					<path class="st6" d="M-164.5,141.9c1.4,0,2.6-1.1,2.6-2.6s-1.1-2.6-2.6-2.6c-1.4,0-2.6,1.1-2.6,2.6S-165.9,141.9-164.5,141.9
						 M-164.5,142.7c-1.9,0-3.4-1.5-3.4-3.4s1.5-3.4,3.4-3.4c1.9,0,3.4,1.5,3.4,3.4S-162.7,142.7-164.5,142.7L-164.5,142.7z"/>
				</g>
				<g id="XMLID_433_">
					<path class="st5" d="M-174.7,136.4c-1.6,0-3,1.3-3,3c0,1.6,1.3,3,3,3s3-1.3,3-3C-171.8,137.7-173.1,136.4-174.7,136.4z"/>
					<path class="st6" d="M-174.7,141.9c1.4,0,2.6-1.1,2.6-2.6s-1.1-2.6-2.6-2.6s-2.6,1.1-2.6,2.6S-176.1,141.9-174.7,141.9
						 M-174.7,142.7c-1.9,0-3.4-1.5-3.4-3.4s1.5-3.4,3.4-3.4s3.4,1.5,3.4,3.4S-172.9,142.7-174.7,142.7L-174.7,142.7z"/>
				</g>
				<g id="XMLID_431_">
					<path class="st5" d="M-185,136.4c-1.6,0-3,1.3-3,3c0,1.6,1.3,3,3,3c1.6,0,3-1.3,3-3C-182,137.7-183.3,136.4-185,136.4z"/>
					<path class="st6" d="M-185,141.9c1.4,0,2.6-1.1,2.6-2.6s-1.1-2.6-2.6-2.6c-1.4,0-2.6,1.1-2.6,2.6S-186.4,141.9-185,141.9
						 M-185,142.7c-1.9,0-3.4-1.5-3.4-3.4s1.5-3.4,3.4-3.4c1.9,0,3.4,1.5,3.4,3.4S-183.1,142.7-185,142.7L-185,142.7z"/>
				</g>
			</g>
			<g id="XMLID_374_">
				<g id="XMLID_427_">
					<g id="XMLID_428_">
						<polygon id="XMLID_429_" class="st7" points="192,110.2 -192.1,110.2 -192.1,133.7 192,133.7 						"/>
					</g>
				</g>
				<g id="XMLID_382_">
					<g id="XMLID_414_">
						<polygon id="XMLID_426_" class="st7" points="-128.4,110.2 -192.1,110.2 -192.1,133.7 -128.4,133.7 						"/>
						<g id="XMLID_415_">
							<g>
								<g id="XMLID_468_">
									<g>
										<path class="st8" d="M-164.8,119.6l-0.6,1.6h-2.2l-0.6-1.6h-1l2.2,5.9h1l2.2-5.9H-164.8z M-165.6,122l-0.5,1.6
											c0,0.1-0.1,0.3-0.2,0.5c-0.1,0.2-0.1,0.4-0.1,0.5c-0.1-0.3-0.2-0.7-0.3-1.1l-0.5-1.5H-165.6z"/>
										<path class="st8" d="M-161.3,119.5c-0.7,0-1.2,0.2-1.5,0.6c-0.3,0.4-0.5,0.9-0.5,1.7c0,0.7,0.2,1.3,0.5,1.7
											c0.4,0.4,0.9,0.6,1.6,0.6c0.5,0,0.9-0.1,1.3-0.3l-0.3-0.8c-0.4,0.2-0.7,0.2-1,0.2c-0.8,0-1.1-0.5-1.1-1.5
											c0-0.5,0.1-0.9,0.3-1.1c0.2-0.2,0.5-0.4,0.8-0.4c0.4,0,0.8,0.1,1.2,0.3v-0.8c-0.2-0.1-0.3-0.2-0.5-0.2
											C-160.8,119.5-161,119.5-161.3,119.5z"/>
										<path class="st8" d="M-157.2,119.5c-0.7,0-1.2,0.2-1.5,0.6c-0.3,0.4-0.5,0.9-0.5,1.7c0,0.7,0.2,1.3,0.5,1.7
											c0.4,0.4,0.9,0.6,1.6,0.6c0.5,0,0.9-0.1,1.3-0.3l-0.3-0.8c-0.4,0.2-0.7,0.2-1,0.2c-0.8,0-1.1-0.5-1.1-1.5
											c0-0.5,0.1-0.9,0.3-1.1c0.2-0.2,0.5-0.4,0.8-0.4c0.4,0,0.8,0.1,1.2,0.3v-0.8c-0.2-0.1-0.3-0.2-0.5-0.2
											C-156.7,119.5-157,119.5-157.2,119.5z"/>
										<path class="st8" d="M-151.1,121.8c0-0.7-0.2-1.3-0.6-1.7c-0.4-0.4-0.9-0.6-1.5-0.6c-0.4,0-0.8,0.1-1.1,0.3
											c-0.3,0.2-0.6,0.5-0.7,0.8c-0.2,0.3-0.3,0.8-0.3,1.2c0,0.7,0.2,1.3,0.6,1.7c0.4,0.4,0.9,0.6,1.6,0.6
											c0.6,0,1.1-0.2,1.5-0.6C-151.2,123-151.1,122.5-151.1,121.8z M-154.3,121.8c0-1,0.4-1.5,1.1-1.5c0.7,0,1.1,0.5,1.1,1.5
											c0,1-0.4,1.5-1.1,1.5c-0.4,0-0.7-0.1-0.9-0.4S-154.3,122.3-154.3,121.8z"/>
										<path class="st8" d="M-146.9,119.6l-0.1,0.6h0c-0.1-0.2-0.3-0.4-0.6-0.5c-0.2-0.1-0.5-0.2-0.8-0.2c-0.5,0-0.9,0.1-1.2,0.4
											c-0.3,0.3-0.4,0.7-0.4,1.2v2.9h0.9v-2.7c0-0.3,0.1-0.6,0.2-0.8c0.1-0.2,0.4-0.3,0.7-0.3c0.4,0,0.7,0.1,0.9,0.4
											c0.2,0.2,0.3,0.6,0.3,1.2v2.2h0.9v-4.4H-146.9z"/>
										<path class="st8" d="M-140.9,119.6h-0.9v2.7c0,0.3-0.1,0.6-0.2,0.8s-0.4,0.3-0.7,0.3c-0.4,0-0.7-0.1-0.9-0.4
											c-0.2-0.2-0.3-0.6-0.3-1.2v-2.2h-0.9v4.4h0.7l0.1-0.6h0c0.1,0.2,0.3,0.4,0.6,0.5s0.5,0.2,0.8,0.2c1.1,0,1.6-0.5,1.6-1.6
											V119.6z"/>
										<path class="st8" d="M-138,120.3c0.2,0,0.5,0,0.7,0.1v-0.7c-0.1,0-0.2-0.1-0.4-0.1c-0.2,0-0.3,0-0.5,0
											c-0.9,0-1.3,0.5-1.3,1.4v2.4h-0.6v0.4l0.6,0.3l0.3,0.9h0.6v-1h1.3v-0.7h-1.3v-2.4c0-0.2,0.1-0.4,0.2-0.5
											S-138.2,120.3-138,120.3z"/>
									</g>
								</g>
								<path id="XMLID_465_" class="st8" d="M-178.3,127.2c-2.8,0-5.1-2.3-5.1-5.1c0-2.8,2.3-5.1,5.1-5.1c2.8,0,5.1,2.3,5.1,5.1
									C-173.2,125-175.5,127.2-178.3,127.2z M-177.6,122.3v-3.6h-1.3v3.6c-0.6,0.3-1,0.9-1,1.5c0,0.7,0.4,1.3,1,1.5v-1.6h1.3v1.6
									c0.6-0.3,1-0.9,1-1.5S-177,122.6-177.6,122.3z"/>
							</g>
						</g>
					</g>
					<g id="XMLID_405_">
						<polygon id="XMLID_412_" class="st0" points="-53.9,110.2 -128.4,110.2 -128.4,133.7 -53.9,133.7 						"/>
						<g id="XMLID_406_">
							<g id="XMLID_410_">
								<g>
									<path class="st7" d="M-100,122.6c0-1-0.3-1.7-0.8-2.2c-0.5-0.5-1.3-0.8-2.3-0.8h-1.6v5.8h1.8c0.9,0,1.7-0.3,2.2-0.8
										C-100.2,124.2-100,123.5-100,122.6z M-101,122.5c0,1.4-0.7,2.1-2,2.1h-0.8v-4.2h0.7C-101.7,120.4-101,121.1-101,122.5z"/>
									<path class="st7" d="M-96.1,119.6l-0.2,0.6h0c-0.2-0.3-0.4-0.5-0.6-0.5s-0.5-0.1-0.8-0.1c-0.4,0-0.8,0.1-1,0.4
										c-0.2,0.2-0.4,0.6-0.4,1c0,0.5,0.2,0.8,0.5,1c0.3,0.2,0.9,0.4,1.5,0.4l0.8,0v0.2c0,0.3-0.1,0.5-0.2,0.6s-0.3,0.2-0.6,0.2
										c-0.2,0-0.4,0-0.7-0.1c-0.2-0.1-0.4-0.1-0.6-0.2l-0.3,0.7c0.2,0.1,0.5,0.2,0.8,0.3c0.3,0.1,0.6,0.1,0.8,0.1
										c0.6,0,1-0.1,1.3-0.4c0.3-0.2,0.4-0.6,0.4-1.2v-3H-96.1z M-97.5,120.2c0.3,0,0.6,0.1,0.8,0.3c0.2,0.2,0.3,0.5,0.3,0.8v0.4
										l-0.6,0c-0.4,0-0.8-0.1-1-0.2c-0.2-0.1-0.3-0.3-0.3-0.6c0-0.2,0.1-0.3,0.2-0.5C-97.9,120.3-97.7,120.2-97.5,120.2z"/>
									<path class="st7" d="M-91.1,120.8c0-0.4-0.2-0.8-0.5-1c-0.3-0.2-0.8-0.3-1.3-0.3c-0.6,0-1.1,0.1-1.4,0.3v0.8
										c0.5-0.2,1-0.4,1.4-0.4c0.6,0,0.9,0.2,0.9,0.5c0,0.1,0,0.2-0.1,0.3c-0.1,0.1-0.2,0.2-0.3,0.2c-0.1,0.1-0.3,0.2-0.6,0.3
										c-0.5,0.2-0.9,0.4-1,0.6c-0.2,0.2-0.3,0.5-0.3,0.8c0,0.4,0.2,0.7,0.5,0.9s0.7,0.3,1.2,0.3c0.5,0,1-0.1,1.5-0.3l-0.3-0.7
										c-0.5,0.2-0.9,0.3-1.2,0.3c-0.5,0-0.7-0.1-0.7-0.4c0-0.1,0.1-0.3,0.2-0.4s0.4-0.2,0.8-0.4c0.4-0.1,0.6-0.3,0.8-0.4
										c0.2-0.1,0.3-0.3,0.4-0.4C-91.2,121.2-91.1,121-91.1,120.8z"/>
									<path class="st7" d="M-86.2,119.6h-0.9v2.7c0,0.3-0.1,0.6-0.2,0.8s-0.4,0.3-0.7,0.3c-0.4,0-0.7-0.1-0.9-0.4
										c-0.2-0.2-0.3-0.6-0.3-1.2v-2.2h-0.9v6.2h0.9v-1.6c0-0.3,0-0.5,0-0.8h0.1c0.1,0.2,0.3,0.4,0.5,0.5s0.5,0.2,0.8,0.2
										c1.1,0,1.6-0.5,1.6-1.6V119.6z"/>
									<path class="st7" d="M-82.7,124.1c0.5,0,1-0.2,1.3-0.6c0.3-0.4,0.5-1,0.5-1.7c0-0.7-0.2-1.3-0.5-1.7
										c-0.3-0.4-0.7-0.6-1.3-0.6c-0.6,0-1,0.2-1.3,0.6H-84l-0.2-0.5h-0.7v6.2h0.9v-1.5c0-0.1,0-0.3,0-0.5s0-0.4,0-0.4h0
										C-83.7,123.9-83.2,124.1-82.7,124.1z M-82.9,123.3c-0.4,0-0.6-0.1-0.8-0.3s-0.3-0.6-0.3-1.1v-0.1c0-0.5,0.1-0.9,0.3-1.2
										s0.4-0.4,0.8-0.4c0.3,0,0.6,0.1,0.8,0.4c0.2,0.3,0.3,0.6,0.3,1.1C-81.9,122.8-82.2,123.3-82.9,123.3z"/>
									<path class="st7" d="M-75.9,121.8c0-0.7-0.2-1.3-0.6-1.7c-0.4-0.4-0.9-0.6-1.5-0.6c-0.4,0-0.8,0.1-1.1,0.3
										c-0.3,0.2-0.6,0.5-0.7,0.8c-0.2,0.3-0.3,0.8-0.3,1.2c0,0.7,0.2,1.3,0.6,1.7c0.4,0.4,0.9,0.6,1.6,0.6c0.6,0,1.1-0.2,1.5-0.6
										C-76.1,123-75.9,122.5-75.9,121.8z M-79.1,121.8c0-1,0.4-1.5,1.1-1.5c0.7,0,1.1,0.5,1.1,1.5c0,1-0.4,1.5-1.1,1.5
										c-0.4,0-0.7-0.1-0.9-0.4S-79.1,122.3-79.1,121.8z"/>
									<path class="st7" d="M-72.1,119.6l-0.2,0.6h0c-0.2-0.3-0.4-0.5-0.6-0.5s-0.5-0.1-0.8-0.1c-0.4,0-0.8,0.1-1,0.4
										c-0.2,0.2-0.4,0.6-0.4,1c0,0.5,0.2,0.8,0.5,1c0.3,0.2,0.9,0.4,1.5,0.4l0.8,0v0.2c0,0.3-0.1,0.5-0.2,0.6s-0.3,0.2-0.6,0.2
										c-0.2,0-0.4,0-0.7-0.1c-0.2-0.1-0.4-0.1-0.6-0.2l-0.3,0.7c0.2,0.1,0.5,0.2,0.8,0.3c0.3,0.1,0.6,0.1,0.8,0.1
										c0.6,0,1-0.1,1.3-0.4c0.3-0.2,0.4-0.6,0.4-1.2v-3H-72.1z M-73.5,120.2c0.3,0,0.6,0.1,0.8,0.3c0.2,0.2,0.3,0.5,0.3,0.8v0.4
										l-0.6,0c-0.4,0-0.8-0.1-1-0.2c-0.2-0.1-0.3-0.3-0.3-0.6c0-0.2,0.1-0.3,0.2-0.5C-73.9,120.3-73.7,120.2-73.5,120.2z"/>
									<path class="st7" d="M-67.9,124.1c0.2,0,0.3,0,0.5,0l-0.1-0.9c-0.1,0-0.3,0-0.4,0c-0.4,0-0.7-0.1-0.9-0.4
										c-0.2-0.2-0.3-0.6-0.3-1v-2.3h-0.9v4.4h0.7l0.1-0.8h0c0.1,0.3,0.3,0.5,0.6,0.6C-68.4,124-68.1,124.1-67.9,124.1z"/>
									<path class="st7" d="M-65.1,119.5c-0.6,0-1,0.2-1.3,0.6s-0.5,1-0.5,1.7c0,0.7,0.2,1.3,0.5,1.7c0.3,0.4,0.7,0.6,1.3,0.6
										c0.6,0,1-0.2,1.3-0.6h0c0,0.3-0.1,0.6-0.1,0.8v1.6h0.9v-6.2h-0.7l-0.2,0.6h0C-64.1,119.7-64.5,119.5-65.1,119.5z
										 M-64.8,120.3c0.4,0,0.7,0.1,0.8,0.3c0.2,0.2,0.3,0.6,0.3,1.1v0.1c0,0.6-0.1,1-0.3,1.2c-0.2,0.2-0.5,0.4-0.9,0.4
										c-0.3,0-0.6-0.1-0.8-0.4c-0.2-0.3-0.3-0.6-0.3-1.1c0-0.5,0.1-0.9,0.3-1.1C-65.4,120.4-65.2,120.3-64.8,120.3z"/>
								</g>
							</g>
							<path id="XMLID_407_" class="st7" d="M-114.7,127.2c-2.8,0-5.1-2.3-5.1-5.1c0-2.8,2.3-5.1,5.1-5.1c2.8,0,5.1,2.3,5.1,5.1
								C-109.6,125-111.8,127.2-114.7,127.2z M-114,122.3v-3.6h-1.3v3.6c-0.6,0.3-1,0.9-1,1.5c0,0.7,0.4,1.3,1,1.5v-1.6h1.3v1.6
								c0.6-0.3,1-0.9,1-1.5S-113.4,122.6-114,122.3z"/>
						</g>
					</g>
					<g id="XMLID_383_">
						<polygon id="XMLID_404_" class="st7" points="8.9,110.2 -53.9,110.2 -53.9,133.7 8.9,133.7 						"/>
						<g id="XMLID_395_">
							<g id="XMLID_402_">
								<g>
									<path class="st8" d="M-26.8,121.2c0-0.5-0.2-0.9-0.6-1.2c-0.4-0.3-0.9-0.4-1.6-0.4c-0.7,0-1.2,0.1-1.6,0.3v0.9
										c0.3-0.1,0.5-0.2,0.8-0.3c0.3-0.1,0.6-0.1,0.8-0.1c0.4,0,0.7,0.1,0.8,0.2c0.2,0.1,0.3,0.3,0.3,0.6c0,0.2-0.1,0.4-0.2,0.6
										c-0.2,0.2-0.5,0.3-1,0.5c-0.5,0.2-0.9,0.5-1.1,0.7c-0.2,0.3-0.3,0.6-0.3,1c0,0.5,0.2,0.9,0.5,1.1c0.3,0.3,0.8,0.4,1.4,0.4
										c0.6,0,1.1-0.1,1.7-0.4l-0.3-0.8c-0.5,0.2-1,0.3-1.4,0.3c-0.3,0-0.5-0.1-0.7-0.2c-0.2-0.1-0.2-0.3-0.2-0.5
										c0-0.2,0-0.3,0.1-0.4c0.1-0.1,0.2-0.2,0.3-0.3s0.4-0.2,0.8-0.4c0.4-0.2,0.7-0.3,0.9-0.5s0.3-0.3,0.4-0.5
										C-26.8,121.7-26.8,121.4-26.8,121.2z"/>
									<path class="st8" d="M-23.8,119.5c-0.7,0-1.2,0.2-1.6,0.6s-0.6,1-0.6,1.7c0,0.7,0.2,1.3,0.5,1.7c0.4,0.4,0.9,0.6,1.5,0.6
										c0.6,0,1-0.2,1.4-0.5c0.3-0.4,0.5-0.8,0.5-1.5v-0.5h-2.9c0-0.4,0.1-0.8,0.3-1c0.2-0.2,0.5-0.3,0.9-0.3c0.3,0,0.5,0,0.7,0.1
										c0.2,0,0.5,0.1,0.7,0.2v-0.8c-0.2-0.1-0.5-0.2-0.7-0.2C-23.3,119.5-23.5,119.5-23.8,119.5z M-24,123.4
										c-0.3,0-0.5-0.1-0.7-0.3c-0.2-0.2-0.3-0.5-0.3-0.8h2c0,0.4-0.1,0.6-0.3,0.8S-23.7,123.4-24,123.4z"/>
									<path class="st8" d="M-19.4,120.3c0.2,0,0.5,0,0.7,0.1v-0.7c-0.1,0-0.2-0.1-0.4-0.1c-0.2,0-0.3,0-0.5,0
										c-0.9,0-1.3,0.5-1.3,1.4v2.4h-0.6v0.4l0.6,0.3l0.3,0.9h0.6v-1h1.3v-0.7H-20v-2.4c0-0.2,0.1-0.4,0.2-0.5
										S-19.6,120.3-19.4,120.3z"/>
									<path class="st8" d="M-16.2,120.3c0.2,0,0.5,0,0.7,0.1v-0.7c-0.1,0-0.2-0.1-0.4-0.1c-0.2,0-0.3,0-0.5,0
										c-0.9,0-1.3,0.5-1.3,1.4v2.4h-0.6v0.4l0.6,0.3l0.3,0.9h0.6v-1h1.3v-0.7h-1.3v-2.4c0-0.2,0.1-0.4,0.2-0.5
										S-16.4,120.3-16.2,120.3z"/>
									<path class="st8" d="M-14.7,125.2c0,0.2,0,0.3,0.1,0.4c0.1,0.1,0.2,0.1,0.4,0.1c0.2,0,0.3,0,0.4-0.1
										c0.1-0.1,0.1-0.2,0.1-0.4c0-0.2,0-0.3-0.1-0.4s-0.2-0.1-0.4-0.1c-0.2,0-0.3,0-0.4,0.1S-14.7,125-14.7,125.2z M-13.7,119.6
										h-0.9v4.4h0.9V119.6z"/>
									<path class="st8" d="M-8.5,119.6h-0.9v2.7c0,0.3-0.1,0.6-0.2,0.8s-0.4,0.3-0.7,0.3c-0.4,0-0.7-0.1-0.9-0.4
										c-0.2-0.2-0.3-0.6-0.3-1.2v-2.2h-0.9v4.4h0.7l0.1-0.6h0c0.1,0.2,0.3,0.4,0.6,0.5s0.5,0.2,0.8,0.2c1.1,0,1.6-0.5,1.6-1.6
										V119.6z"/>
									<path class="st8" d="M-3.4,124v-0.5l-0.8-0.1c0.1-0.1,0.1-0.2,0.2-0.3c0-0.1,0.1-0.3,0.1-0.4c0-0.5-0.2-0.8-0.5-1.1
										s-0.7-0.4-1.3-0.4c-0.1,0-0.3,0-0.4,0c-0.2-0.1-0.3-0.3-0.3-0.4c0-0.1,0-0.2,0.1-0.2c0.1-0.1,0.3-0.1,0.5-0.1H-5
										c0.5,0,0.9-0.1,1.1-0.3s0.4-0.5,0.4-0.9c0-0.5-0.2-0.9-0.6-1.2c-0.4-0.3-1-0.4-1.8-0.4c-0.6,0-1.1,0.1-1.4,0.3
										c-0.3,0.2-0.5,0.5-0.5,0.9c0,0.3,0.1,0.5,0.3,0.7c0.2,0.2,0.4,0.3,0.7,0.4c-0.1,0.1-0.2,0.1-0.3,0.3
										c-0.1,0.1-0.1,0.2-0.1,0.4c0,0.2,0,0.3,0.1,0.4c0.1,0.1,0.2,0.2,0.4,0.3c-0.2,0.1-0.4,0.3-0.6,0.5
										c-0.1,0.2-0.2,0.5-0.2,0.8c0,0.5,0.2,0.8,0.5,1.1c0.3,0.3,0.7,0.4,1.3,0.4c0.1,0,0.3,0,0.4,0c0.1,0,0.2,0,0.3-0.1H-3.4z
										 M-6.9,118.9c0-0.2,0.1-0.4,0.3-0.5c0.2-0.1,0.4-0.2,0.8-0.2c0.5,0,0.9,0.1,1.1,0.2s0.4,0.3,0.4,0.6c0,0.2-0.1,0.3-0.2,0.4
										c-0.1,0.1-0.4,0.1-0.8,0.1H-6c-0.3,0-0.5-0.1-0.6-0.2C-6.8,119.3-6.9,119.1-6.9,118.9z M-6.5,122.6c0-0.3,0.1-0.5,0.2-0.6
										c0.1-0.1,0.3-0.2,0.6-0.2c0.5,0,0.8,0.3,0.8,0.9c0,0.3-0.1,0.5-0.2,0.7c-0.1,0.2-0.3,0.2-0.6,0.2c-0.3,0-0.5-0.1-0.6-0.2
										S-6.5,122.9-6.5,122.6z"/>
									<path class="st8" d="M0.3,120.8c0-0.4-0.2-0.8-0.5-1c-0.3-0.2-0.8-0.3-1.3-0.3c-0.6,0-1.1,0.1-1.4,0.3v0.8
										c0.5-0.2,1-0.4,1.4-0.4c0.6,0,0.9,0.2,0.9,0.5c0,0.1,0,0.2-0.1,0.3c-0.1,0.1-0.2,0.2-0.3,0.2c-0.1,0.1-0.3,0.2-0.6,0.3
										c-0.5,0.2-0.9,0.4-1,0.6c-0.2,0.2-0.3,0.5-0.3,0.8c0,0.4,0.2,0.7,0.5,0.9s0.7,0.3,1.2,0.3c0.5,0,1-0.1,1.5-0.3L0,123.1
										c-0.5,0.2-0.9,0.3-1.2,0.3c-0.5,0-0.7-0.1-0.7-0.4c0-0.1,0.1-0.3,0.2-0.4s0.4-0.2,0.8-0.4c0.4-0.1,0.6-0.3,0.8-0.4
										c0.2-0.1,0.3-0.3,0.4-0.4C0.3,121.2,0.3,121,0.3,120.8z"/>
								</g>
							</g>
							<path id="XMLID_396_" class="st8" d="M-40.1,127.2c-2.8,0-5.1-2.3-5.1-5.1c0-2.8,2.3-5.1,5.1-5.1c2.8,0,5.1,2.3,5.1,5.1
								C-35,125-37.3,127.2-40.1,127.2z M-39.4,122.3v-3.6h-1.3v3.6c-0.6,0.3-1,0.9-1,1.5c0,0.7,0.4,1.3,1,1.5v-1.6h1.3v1.6
								c0.6-0.3,1-0.9,1-1.5S-38.8,122.6-39.4,122.3z"/>
						</g>
						<g id="XMLID_384_">
							<polygon id="XMLID_393_" class="st7" points="58.7,110.2 8.9,110.2 8.9,133.7 58.7,133.7 							"/>
							<g id="XMLID_385_">
								<g id="XMLID_391_">
									<g>
										<path class="st8" d="M35.8,119.6h-1v2.6h-2.7v-2.6h-1v5.8h1V123h2.7v2.4h1V119.6z"/>
										<path class="st8" d="M39.2,119.5c-0.7,0-1.2,0.2-1.6,0.6s-0.6,1-0.6,1.7c0,0.7,0.2,1.3,0.5,1.7c0.4,0.4,0.9,0.6,1.5,0.6
											c0.6,0,1-0.2,1.4-0.5c0.3-0.4,0.5-0.8,0.5-1.5v-0.5H38c0-0.4,0.1-0.8,0.3-1c0.2-0.2,0.5-0.3,0.9-0.3c0.3,0,0.5,0,0.7,0.1
											c0.2,0,0.5,0.1,0.7,0.2v-0.8c-0.2-0.1-0.5-0.2-0.7-0.2C39.8,119.5,39.5,119.5,39.2,119.5z M39,123.4
											c-0.3,0-0.5-0.1-0.7-0.3c-0.2-0.2-0.3-0.5-0.3-0.8h2c0,0.4-0.1,0.6-0.3,0.8S39.3,123.4,39,123.4z"/>
										<path class="st8" d="M42.9,119.6H42v6.2h0.9V119.6z"/>
										<path class="st8" d="M46.5,119.5c-0.6,0-1,0.2-1.3,0.6h-0.1c0-0.4,0.1-0.6,0.1-0.7v-1.8h-0.9v6.4H45
											c0-0.1,0.1-0.3,0.1-0.6h0c0.3,0.4,0.7,0.7,1.3,0.7c0.5,0,1-0.2,1.3-0.6c0.3-0.4,0.5-1,0.5-1.7s-0.2-1.3-0.5-1.7
											C47.5,119.7,47,119.5,46.5,119.5z M46.3,123.3c-0.4,0-0.6-0.1-0.8-0.3c-0.2-0.2-0.3-0.6-0.3-1v-0.1c0-0.5,0.1-0.9,0.3-1.2
											s0.4-0.4,0.8-0.4c0.3,0,0.6,0.1,0.8,0.4c0.2,0.3,0.3,0.6,0.3,1.1c0,0.5-0.1,0.9-0.3,1.1C46.9,123.2,46.6,123.3,46.3,123.3
											z"/>
									</g>
								</g>
								<path id="XMLID_386_" class="st8" d="M21.3,119.1h1v1h-1V119.1z M21.8,127.2c-2.8,0-5.1-2.3-5.1-5.1s2.3-5.1,5.1-5.1
									s5.1,2.3,5.1,5.1S24.6,127.2,21.8,127.2z M21.8,118.1c-2.3,0-4.1,1.8-4.1,4.1c0,2.3,1.8,4.1,4.1,4.1s4.1-1.8,4.1-4.1
									C25.9,119.9,24.1,118.1,21.8,118.1z M21.8,125.2c-1.1,0-2-0.9-2-2h1c0,0.6,0.5,1,1,1c0.6,0,1-0.5,1-1c0-1-1.5-0.9-1.5-2.6h1
									c0,1.1,1.5,1.3,1.5,2.6C23.8,124.3,22.9,125.2,21.8,125.2z"/>
							</g>
						</g>
					</g>
				</g>
				<g id="XMLID_377_">
					<g id="XMLID_379_">
						<path id="XMLID_380_" class="st8" d="M180.5,127.7c-3.4,0-6.1-2.7-6.1-6.1c0-3.4,2.7-6.1,6.1-6.1s6.1,2.7,6.1,6.1
							C186.6,124.9,183.8,127.7,180.5,127.7L180.5,127.7z"/>
					</g>
					<path id="XMLID_378_" class="st9" d="M179.3,120l-1.6,1.6l-0.5-0.5l2.1-2.1l4.6,4.6l-0.5,0.5L179.3,120z"/>
				</g>
				<line id="XMLID_375_" class="st10" x1="8.4" y1="129.1" x2="8.4" y2="114.8"/>
			</g>
			<g id="XMLID_370_">
				<g id="XMLID_371_">
					<g id="XMLID_372_">
						<path class="st8" d="M182.7-28.7h-365.6c-0.6,0-1,0.5-1,1V83.2h367.7V-27.7C183.8-28.2,183.3-28.7,182.7-28.7z"/>
					</g>
				</g>
			</g>
			<g id="XMLID_365_">
				<g>
					<g id="XMLID_367_">
						<polygon class="st0" points="175.6,-5.7 175.6,62.7 -175.2,62.7 -175.2,-5.7 						"/>
					</g>
				</g>
			</g>
			<polygon id="XMLID_363_" class="st0" points="166.4,10.6 -157.4,10.6 -157.4,54 166.4,54 			"/>
			<g id="XMLID_171_">
				<polyline id="XMLID_362_" class="st11" points="-157.6,54 -157.6,10.6 166.7,10.6 166.7,54 				"/>
				<g id="XMLID_172_">
					<g id="XMLID_346_">
						<g id="XMLID_347_">
							<g id="XMLID_359_">
								<g id="XMLID_360_">
									<polygon class="st7" points="-72.5,10.9 -72.5,19.7 -76.6,19.7 -76.6,10.9 									"/>
								</g>
							</g>
							<g id="XMLID_356_">
								<g id="XMLID_357_">
									<polygon class="st12" points="-67.4,10.9 -67.4,54.3 -71.5,54.3 -71.5,10.9 									"/>
								</g>
							</g>
							<g id="XMLID_353_">
								<g id="XMLID_354_">
									<polygon class="st13" points="-62.3,10.9 -62.3,28.4 -66.4,28.4 -66.4,10.9 									"/>
								</g>
							</g>
							<g id="XMLID_348_">
								<g>
									<g id="XMLID_350_">
										<polygon class="st14" points="-57.2,10.9 -57.2,15.3 -61.3,15.3 -61.3,10.9 										"/>
									</g>
								</g>
							</g>
						</g>
					</g>
					<g id="XMLID_332_">
						<g id="XMLID_333_">
							<g id="XMLID_343_">
								<g id="XMLID_344_">
									<polygon class="st7" points="-48,10.9 -48,30.8 -52.1,30.8 -52.1,10.9 									"/>
								</g>
							</g>
							<g id="XMLID_340_">
								<g id="XMLID_341_">
									<polygon class="st12" points="-42.9,10.9 -42.9,27.3 -47,27.3 -47,10.9 									"/>
								</g>
							</g>
							<g id="XMLID_337_">
								<g id="XMLID_338_">
									<polygon class="st13" points="-37.8,10.9 -37.8,19.1 -41.9,19.1 -41.9,10.9 									"/>
								</g>
							</g>
							<g id="XMLID_334_">
								<g id="XMLID_335_">
									<polygon class="st14" points="-32.7,10.9 -32.7,15.3 -36.8,15.3 -36.8,10.9 									"/>
								</g>
							</g>
						</g>
					</g>
					<g id="XMLID_318_">
						<g id="XMLID_319_">
							<g id="XMLID_329_">
								<g id="XMLID_330_">
									<polygon class="st7" points="-23.5,10.9 -23.5,35.9 -27.6,35.9 -27.6,10.9 									"/>
								</g>
							</g>
							<g id="XMLID_326_">
								<g id="XMLID_327_">
									<polygon class="st12" points="-18.4,10.9 -18.4,44.2 -22.5,44.2 -22.5,10.9 									"/>
								</g>
							</g>
							<g id="XMLID_323_">
								<g id="XMLID_324_">
									<polygon class="st13" points="-13.3,10.9 -13.3,23.4 -17.4,23.4 -17.4,10.9 									"/>
								</g>
							</g>
							<g id="XMLID_320_">
								<g id="XMLID_321_">
									<polygon class="st14" points="-8.2,10.9 -8.2,14.9 -12.3,14.9 -12.3,10.9 									"/>
								</g>
							</g>
						</g>
					</g>
					<g id="XMLID_303_">
						<g id="XMLID_304_">
							<g id="XMLID_315_">
								<g id="XMLID_316_">
									<polygon class="st7" points="1,10.9 1,31.8 -3.1,31.8 -3.1,10.9 									"/>
								</g>
							</g>
							<g id="XMLID_312_">
								<g id="XMLID_313_">
									<polygon class="st12" points="6.1,10.9 6.1,23.4 2,23.4 2,10.9 									"/>
								</g>
							</g>
							<g id="XMLID_309_">
								<g id="XMLID_310_">
									<polygon class="st13" points="11.2,10.9 11.2,35.9 7.1,35.9 7.1,10.9 									"/>
								</g>
							</g>
							<g id="XMLID_305_">
								<g id="XMLID_306_">
									<polygon class="st14" points="16.3,10.9 16.3,17.2 12.3,17.2 12.3,10.9 									"/>
								</g>
							</g>
						</g>
					</g>
					<g id="XMLID_289_">
						<g id="XMLID_290_">
							<g id="XMLID_300_">
								<g id="XMLID_301_">
									<polygon class="st7" points="25.5,10.9 25.5,29.2 21.4,29.2 21.4,10.9 									"/>
								</g>
							</g>
							<g id="XMLID_297_">
								<g id="XMLID_298_">
									<polygon class="st12" points="30.6,10.9 30.6,47.2 26.6,47.2 26.6,10.9 									"/>
								</g>
							</g>
							<g id="XMLID_294_">
								<g id="XMLID_295_">
									<polygon class="st13" points="35.7,10.9 35.7,31.8 31.7,31.8 31.7,10.9 									"/>
								</g>
							</g>
							<g id="XMLID_291_">
								<g id="XMLID_292_">
									<polygon class="st14" points="40.9,10.9 40.9,35.9 36.8,35.9 36.8,10.9 									"/>
								</g>
							</g>
						</g>
					</g>
					<g id="XMLID_275_">
						<g id="XMLID_276_">
							<g id="XMLID_286_">
								<g id="XMLID_287_">
									<polygon class="st7" points="-146.3,10.9 -146.3,29.2 -150.4,29.2 -150.4,10.9 									"/>
								</g>
							</g>
							<g id="XMLID_283_">
								<g id="XMLID_284_">
									<polygon class="st12" points="-141.2,10.9 -141.2,47.2 -145.3,47.2 -145.3,10.9 									"/>
								</g>
							</g>
							<g id="XMLID_280_">
								<g id="XMLID_281_">
									<polygon class="st13" points="-136.1,10.9 -136.1,31.8 -140.2,31.8 -140.2,10.9 									"/>
								</g>
							</g>
							<g id="XMLID_277_">
								<g id="XMLID_278_">
									<polygon class="st14" points="-131,10.9 -131,35.9 -135,35.9 -135,10.9 									"/>
								</g>
							</g>
						</g>
					</g>
					<g id="XMLID_261_">
						<g id="XMLID_262_">
							<g id="XMLID_272_">
								<g id="XMLID_273_">
									<polygon class="st7" points="50,10.9 50,27.3 46,27.3 46,10.9 									"/>
								</g>
							</g>
							<g id="XMLID_269_">
								<g id="XMLID_270_">
									<polygon class="st12" points="55.2,10.9 55.2,20.9 51.1,20.9 51.1,10.9 									"/>
								</g>
							</g>
							<g id="XMLID_266_">
								<g id="XMLID_267_">
									<polygon class="st13" points="60.3,10.9 60.3,26 56.2,26 56.2,10.9 									"/>
								</g>
							</g>
							<g id="XMLID_263_">
								<g id="XMLID_264_">
									<polygon class="st14" points="65.4,10.9 65.4,17.2 61.3,17.2 61.3,10.9 									"/>
								</g>
							</g>
						</g>
					</g>
					<g id="XMLID_247_">
						<g id="XMLID_248_">
							<g id="XMLID_258_">
								<g id="XMLID_259_">
									<polygon class="st7" points="74.6,10.9 74.6,37 70.5,37 70.5,10.9 									"/>
								</g>
							</g>
							<g id="XMLID_255_">
								<g id="XMLID_256_">
									<polygon class="st12" points="79.7,10.9 79.7,44.2 75.6,44.2 75.6,10.9 									"/>
								</g>
							</g>
							<g id="XMLID_252_">
								<g id="XMLID_253_">
									<polygon class="st13" points="84.8,10.9 84.8,26 80.7,26 80.7,10.9 									"/>
								</g>
							</g>
							<g id="XMLID_249_">
								<g id="XMLID_250_">
									<polygon class="st14" points="89.9,10.9 89.9,37 85.8,37 85.8,10.9 									"/>
								</g>
							</g>
						</g>
					</g>
					<g id="XMLID_233_">
						<g id="XMLID_234_">
							<g id="XMLID_244_">
								<g id="XMLID_245_">
									<polygon class="st7" points="99,10.9 99,29.2 94.9,29.2 94.9,10.9 									"/>
								</g>
							</g>
							<g id="XMLID_241_">
								<g id="XMLID_242_">
									<polygon class="st12" points="104.1,10.9 104.1,47.2 100,47.2 100,10.9 									"/>
								</g>
							</g>
							<g id="XMLID_238_">
								<g id="XMLID_239_">
									<polygon class="st13" points="109.2,10.9 109.2,31.8 105.1,31.8 105.1,10.9 									"/>
								</g>
							</g>
							<g id="XMLID_235_">
								<g id="XMLID_236_">
									<polygon class="st14" points="114.3,10.9 114.3,35.9 110.2,35.9 110.2,10.9 									"/>
								</g>
							</g>
						</g>
					</g>
					<g id="XMLID_219_">
						<g id="XMLID_220_">
							<g id="XMLID_230_">
								<g id="XMLID_231_">
									<polygon class="st7" points="123.5,10.9 123.5,27.3 119.4,27.3 119.4,10.9 									"/>
								</g>
							</g>
							<g id="XMLID_227_">
								<g id="XMLID_228_">
									<polygon class="st12" points="128.6,10.9 128.6,20.9 124.5,20.9 124.5,10.9 									"/>
								</g>
							</g>
							<g id="XMLID_224_">
								<g id="XMLID_225_">
									<polygon class="st13" points="133.7,10.9 133.7,26 129.6,26 129.6,10.9 									"/>
								</g>
							</g>
							<g id="XMLID_221_">
								<g id="XMLID_222_">
									<polygon class="st14" points="138.8,10.9 138.8,17.2 134.7,17.2 134.7,10.9 									"/>
								</g>
							</g>
						</g>
					</g>
					<g id="XMLID_205_">
						<g id="XMLID_206_">
							<g id="XMLID_216_">
								<g id="XMLID_217_">
									<polygon class="st7" points="148,10.9 148,37 143.9,37 143.9,10.9 									"/>
								</g>
							</g>
							<g id="XMLID_213_">
								<g id="XMLID_214_">
									<polygon class="st12" points="153.1,10.9 153.1,44.2 149,44.2 149,10.9 									"/>
								</g>
							</g>
							<g id="XMLID_210_">
								<g id="XMLID_211_">
									<polygon class="st13" points="158.2,10.9 158.2,26 154.1,26 154.1,10.9 									"/>
								</g>
							</g>
							<g id="XMLID_207_">
								<g id="XMLID_208_">
									<polygon class="st14" points="163.3,10.9 163.3,37 159.2,37 159.2,10.9 									"/>
								</g>
							</g>
						</g>
					</g>
					<g id="XMLID_189_">
						<g id="XMLID_190_">
							<g id="XMLID_202_">
								<g id="XMLID_203_">
									<polygon class="st7" points="-97,10.9 -97,19.7 -101.1,19.7 -101.1,10.9 									"/>
								</g>
							</g>
							<g id="XMLID_199_">
								<g id="XMLID_200_">
									<polygon class="st12" points="-91.9,10.9 -91.9,37.5 -96,37.5 -96,10.9 									"/>
								</g>
							</g>
							<g id="XMLID_196_">
								<g id="XMLID_197_">
									<polygon class="st13" points="-86.8,10.9 -86.8,28.4 -90.9,28.4 -90.9,10.9 									"/>
								</g>
							</g>
							<g id="XMLID_191_">
								<g>
									<g id="XMLID_193_">
										<polygon class="st14" points="-81.7,10.9 -81.7,15.3 -85.8,15.3 -85.8,10.9 										"/>
									</g>
								</g>
							</g>
						</g>
					</g>
					<g id="XMLID_173_">
						<g id="XMLID_174_">
							<g id="XMLID_186_">
								<g id="XMLID_187_">
									<polygon class="st7" points="-121.6,10.9 -121.6,19.7 -125.6,19.7 -125.6,10.9 									"/>
								</g>
							</g>
							<g id="XMLID_183_">
								<g id="XMLID_184_">
									<polygon class="st12" points="-116.4,10.9 -116.4,54.3 -120.5,54.3 -120.5,10.9 									"/>
								</g>
							</g>
							<g id="XMLID_180_">
								<g id="XMLID_181_">
									<polygon class="st13" points="-111.3,10.9 -111.3,28.4 -115.4,28.4 -115.4,10.9 									"/>
								</g>
							</g>
							<g id="XMLID_175_">
								<g>
									<g id="XMLID_177_">
										<polygon class="st14" points="-106.2,10.9 -106.2,15.3 -110.3,15.3 -110.3,10.9 										"/>
									</g>
								</g>
							</g>
						</g>
					</g>
				</g>
			</g>
			<g id="XMLID_144_">
				<g id="XMLID_145_">
					<g id="XMLID_164_">
						<path id="XMLID_165_" class="st12" d="M-127,75.9h-5.1c-0.6,0-1-0.5-1-1v-5.1c0-0.6,0.5-1,1-1h5.1c0.6,0,1,0.5,1,1v5.1
							C-126,75.5-126.4,75.9-127,75.9z M-127.8,72.7l-2.2-2.2l-1.2,1.2v1.4l1.2-1.2l2.2,2.2V72.7z"/>
					</g>
					<g id="XMLID_160_">
						<path id="XMLID_161_" class="st13" d="M-90,75.9h-5.1c-0.6,0-1-0.5-1-1v-5.1c0-0.6,0.5-1,1-1h5.1c0.6,0,1,0.5,1,1v5.1
							C-89,75.5-89.4,75.9-90,75.9z M-90.8,72.7l-2.2-2.2l-1.2,1.2v1.4L-93,72l2.2,2.2V72.7z"/>
					</g>
					<g id="XMLID_153_">
						<path id="XMLID_154_" class="st14" d="M-53,75.9h-5.1c-0.6,0-1-0.5-1-1v-5.1c0-0.6,0.5-1,1-1h5.1c0.6,0,1,0.5,1,1v5.1
							C-52,75.5-52.4,75.9-53,75.9z M-53.8,72.7l-2.2-2.2l-1.2,1.2v1.4L-56,72l2.2,2.2V72.7z"/>
					</g>
					<g id="XMLID_146_">
						<path id="XMLID_147_" class="st7" d="M-164.5,75.9h-5.1c-0.6,0-1-0.5-1-1v-5.1c0-0.6,0.5-1,1-1h5.1c0.6,0,1,0.5,1,1v5.1
							C-163.5,75.5-164,75.9-164.5,75.9z M-165.4,72.7l-2.2-2.2l-1.2,1.2v1.4l1.2-1.2l2.2,2.2V72.7z"/>
					</g>
				</g>
			</g>
			<g id="XMLID_140_">
				<g id="XMLID_141_">
					<g id="XMLID_142_">
						<path class="st8" d="M183.9,83h-367.7l0,17.7c0,0.6,0.5,1,1,1h365.6c0.6,0,1-0.5,1-1V83z"/>
					</g>
				</g>
			</g>
			<g id="XMLID_135_">
				<g id="XMLID_136_">
					<g id="XMLID_137_">
						<g id="XMLID_138_">
							<path class="st8" d="M-5.1-130.1h-176.8c-1.1,0-2,0.9-2,2V-53H-3.1v-75.1C-3.1-129.2-4-130.1-5.1-130.1z"/>
						</g>
					</g>
				</g>
			</g>
			<g id="XMLID_111_">
				<g id="XMLID_133_">
					<path class="st8" d="M181.8-130H5c-1.1,0-2,0.9-2,2v75h180.8v-75C183.8-129.1,182.9-130,181.8-130z"/>
				</g>
				<g id="XMLID_113_">
					<g id="XMLID_114_">
						<g id="XMLID_125_">
							<g>
								<g id="XMLID_449_">
									<g>
										<g id="XMLID_450_">
											<path class="st7" d="M20.7-70h-6.9v1.2l2.6,2.6c0.8,0.8,1.3,1.4,1.5,1.7c0.3,0.3,0.4,0.6,0.6,0.9
												c0.1,0.3,0.2,0.6,0.2,0.9c0,0.5-0.1,0.8-0.4,1.1C18-61.2,17.7-61,17.2-61c-0.4,0-0.8-0.1-1.1-0.2
												c-0.4-0.1-0.8-0.4-1.3-0.8l-0.9,1.1c0.6,0.5,1.1,0.8,1.7,1c0.5,0.2,1.1,0.3,1.7,0.3c0.9,0,1.7-0.2,2.3-0.7
												c0.6-0.5,0.9-1.2,0.9-2c0-0.5-0.1-0.9-0.2-1.3c-0.2-0.4-0.4-0.8-0.8-1.3s-0.9-1-1.7-1.8l-1.8-1.7v-0.1h4.8V-70z"/>
											<path class="st7" d="M25.4-63.6c1,0,1.8-0.3,2.4-0.8s0.9-1.3,0.9-2.2c0-1.1-0.3-1.9-1-2.6c-0.7-0.6-1.7-0.9-2.9-0.9
												c-1.1,0-2,0.2-2.7,0.6v1.5c0.4-0.2,0.8-0.4,1.3-0.5c0.5-0.1,0.9-0.2,1.4-0.2c0.7,0,1.3,0.2,1.7,0.5
												c0.4,0.3,0.6,0.8,0.6,1.5c0,1.2-0.8,1.8-2.3,1.8c-0.2,0-0.5,0-0.8-0.1c-0.3,0-0.6-0.1-0.8-0.2l-0.7,0.4l0.4,5h5.3v-1.5
												h-3.9L24-63.7c0.2,0,0.4,0.1,0.6,0.1C24.8-63.6,25.1-63.6,25.4-63.6z"/>
											<path class="st7" d="M37.1-64.9c0-1.8-0.3-3.1-0.9-4c-0.6-0.9-1.4-1.3-2.6-1.3c-1.1,0-2,0.4-2.6,1.3s-0.9,2.2-0.9,3.9
												c0,1.8,0.3,3.1,0.9,4s1.4,1.3,2.6,1.3c1.1,0,2-0.4,2.6-1.3C36.8-61.8,37.1-63.1,37.1-64.9z M31.8-64.9
												c0-1.4,0.1-2.4,0.4-3c0.3-0.6,0.7-0.9,1.4-0.9c0.6,0,1.1,0.3,1.4,0.9c0.3,0.6,0.4,1.6,0.4,3c0,1.4-0.1,2.4-0.4,3
												c-0.3,0.6-0.8,0.9-1.4,0.9c-0.6,0-1.1-0.3-1.4-0.9C31.9-62.5,31.8-63.5,31.8-64.9z"/>
											<path class="st15" d="M42.8-59.8L39-70h-1.2l3.8,10.2H42.8z"/>
											<path class="st15" d="M48.2-63.7c1.1,0,1.9-0.3,2.5-0.8c0.6-0.5,0.9-1.3,0.9-2.2c0-1.1-0.3-1.9-1-2.5
												c-0.7-0.6-1.6-0.9-2.8-0.9c-1.1,0-2,0.2-2.6,0.6v1.1c0.3-0.2,0.7-0.4,1.2-0.5c0.5-0.1,1-0.2,1.4-0.2
												c0.8,0,1.5,0.2,1.9,0.6c0.5,0.4,0.7,0.9,0.7,1.7c0,1.4-0.9,2.1-2.6,2.1c-0.4,0-1-0.1-1.8-0.2l-0.6,0.4l0.4,4.8H51v-1.1
												h-4.1l-0.3-3.1C47.2-63.8,47.7-63.7,48.2-63.7z"/>
											<path class="st15" d="M60-64.9c0-1.8-0.3-3.1-0.8-4c-0.6-0.9-1.4-1.3-2.6-1.3c-1.1,0-1.9,0.4-2.5,1.3
												c-0.6,0.9-0.9,2.2-0.9,3.9c0,1.8,0.3,3.1,0.8,4c0.6,0.9,1.4,1.3,2.5,1.3c1.1,0,1.9-0.4,2.5-1.3
												C59.7-61.8,60-63.1,60-64.9z M54.4-64.9c0-1.5,0.2-2.6,0.5-3.2c0.3-0.7,0.9-1,1.7-1c0.8,0,1.3,0.3,1.7,1s0.5,1.8,0.5,3.2
												s-0.2,2.5-0.5,3.2c-0.3,0.7-0.9,1-1.7,1c-0.8,0-1.3-0.3-1.7-1C54.6-62.3,54.4-63.4,54.4-64.9z"/>
											<path class="st15" d="M68.2-64.9c0-1.8-0.3-3.1-0.8-4c-0.6-0.9-1.4-1.3-2.6-1.3c-1.1,0-1.9,0.4-2.5,1.3
												c-0.6,0.9-0.9,2.2-0.9,3.9c0,1.8,0.3,3.1,0.8,4c0.6,0.9,1.4,1.3,2.5,1.3c1.1,0,1.9-0.4,2.5-1.3
												C67.9-61.8,68.2-63.1,68.2-64.9z M62.6-64.9c0-1.5,0.2-2.6,0.5-3.2c0.3-0.7,0.9-1,1.7-1c0.8,0,1.3,0.3,1.7,1
												s0.5,1.8,0.5,3.2s-0.2,2.5-0.5,3.2c-0.3,0.7-0.9,1-1.7,1c-0.8,0-1.3-0.3-1.7-1C62.8-62.3,62.6-63.4,62.6-64.9z"/>
										</g>
									</g>
								</g>
							</g>
						</g>
						<g id="XMLID_120_">
							<g>
								<g id="XMLID_122_">
									<polygon class="st0" points="11.2,-79.7 175.1,-79.7 175.1,-74.6 11.2,-74.6 									"/>
								</g>
							</g>
						</g>
						<g id="XMLID_115_">
							<g id="XMLID_117_">
								<polygon class="st7" points="11.2,-79.7 105.2,-79.7 105.2,-74.6 11.2,-74.6 								"/>
							</g>
						</g>
					</g>
				</g>
			</g>
			<g id="XMLID_106_">
				<g id="XMLID_107_">
					<g id="XMLID_108_">
						<path class="st8" d="M-3.1-53.2h-180.8v16.4c0,1.1,0.9,2,2,2H-5.1c1.1,0,2-0.9,2-2V-53.2z"/>
					</g>
				</g>
			</g>
			<g id="XMLID_102_">
				<g id="XMLID_103_">
					<g id="XMLID_104_">
						<path class="st8" d="M181.5-53.2H4.7c-1.1,0-2,0.9-2,2v14.4c0,1.1,0.9,2,2,2h176.8c1.1,0,2-0.9,2-2v-14.4
							C183.5-52.3,182.6-53.2,181.5-53.2z"/>
					</g>
				</g>
			</g>
			<path id="XMLID_101_" class="st16" d="M-3.1-53.2"/>
			<path id="XMLID_100_" class="st16" d="M183.5-53.2"/>
			<path id="XMLID_99_" class="st16" d="M2.7-53.2"/>
			<g id="XMLID_80_">
				<g id="XMLID_86_">
					<g id="XMLID_94_">
						<path id="XMLID_95_" class="st13" d="M-100.7-92.2L-100.7-92.2c-2,0-3.6-1.6-3.6-3.6v0c0-2,1.6-3.6,3.6-3.6h0
							c2,0,3.6,1.6,3.6,3.6v0C-97.1-93.8-98.7-92.2-100.7-92.2z"/>
					</g>
					<g id="XMLID_88_">
						<path id="XMLID_90_" class="st7" d="M-100.7-71.1L-100.7-71.1c-2,0-3.6-1.6-3.6-3.6v0c0-2,1.6-3.6,3.6-3.6h0
							c2,0,3.6,1.6,3.6,3.6v0C-97.1-72.7-98.7-71.1-100.7-71.1z"/>
					</g>
				</g>
				<g id="XMLID_82_">
					<path id="XMLID_85_" class="st7" d="M-142-89.5l-26.6,3.3c-1.8-14.7,8.6-28.1,23.3-29.9s28.1,8.6,29.9,23.3
						s-8.6,28.1-23.3,29.9c-1,0.1-2.2,0.2-3.3,0.2V-89.5z"/>
					<path id="XMLID_84_" class="st13" d="M-142-89.5v26.8c-13.8,0-24.9-9.9-26.6-23.5L-142-89.5z"/>
				</g>
			</g>
		</g>
	</g>
	<g class="st17">
		<polygon class="st18" points="-85.2,86 -175.2,86 -175.2,94 -85.2,94 		"/>
		<polygon class="st18" points="-85.2,-50.2 -175.2,-50.2 -175.2,-42.2 -85.2,-42.2 		"/>
		<polygon class="st18" points="101.5,-50.2 11.5,-50.2 11.5,-42.2 101.5,-42.2 		"/>
		<polygon class="st19" points="-141.1,68.9 -161.1,68.9 -161.1,75.9 -141.1,75.9 		"/>
		<polygon class="st19" points="-104.1,69 -124.1,69 -124.1,76 -104.1,76 		"/>
		<polygon class="st19" points="-14.3,-78.1 -93.5,-78.1 -93.5,-71.1 -14.3,-71.1 		"/>
		<polygon class="st19" points="173.8,-71.1 133.7,-71.1 133.7,-64.1 173.8,-64.1 		"/>
		<polygon class="st20" points="176.2,-120.4 112.2,-120.4 112.2,-113.4 176.2,-113.4 		"/>
		<polygon class="st19" points="176.2,-91.8 11.2,-91.8 11.2,-84.8 176.2,-84.8 		"/>
		<polygon class="st19" points="176.2,-100.3 11.2,-100.3 11.2,-93.3 176.2,-93.3 		"/>
		<polygon class="st19" points="-14.3,-99.2 -93.5,-99.2 -93.5,-92.2 -14.3,-92.2 		"/>
		<polygon class="st20" points="-34.4,-86.7 -93.5,-86.7 -93.5,-79.7 -34.4,-79.7 		"/>
		<polygon class="st20" points="-34.4,-107.8 -93.5,-107.8 -93.5,-100.8 -34.4,-100.8 		"/>
		<polygon class="st19" points="-67.1,69 -87.1,69 -87.1,76 -67.1,76 		"/>
		<polygon class="st19" points="-30.1,69 -50.1,69 -50.1,76 -30.1,76 		"/>
		<polygon class="st19" points="-122.9,-21.2 -157.4,-21.2 -157.4,-14.2 -122.9,-14.2 		"/>
		<polygon class="st19" points="-162.5,7.1 -169.5,7.1 -169.5,14.1 -162.5,14.1 		"/>
		<polygon class="st19" points="-140.6,-0.9 -151.1,-0.9 -151.1,6.1 -140.6,6.1 		"/>
		<polygon class="st19" points="-115.6,-0.9 -126.1,-0.9 -126.1,6.1 -115.6,6.1 		"/>
		<polygon class="st19" points="-90.6,-0.9 -101.1,-0.9 -101.1,6.1 -90.6,6.1 		"/>
		<polygon class="st19" points="-65.5,-0.9 -76,-0.9 -76,6.1 -65.5,6.1 		"/>
		<polygon class="st19" points="-40.5,-0.9 -51,-0.9 -51,6.1 -40.5,6.1 		"/>
		<polygon class="st19" points="-15.5,-0.9 -26,-0.9 -26,6.1 -15.5,6.1 		"/>
		<polygon class="st19" points="9.5,-0.9 -1,-0.9 -1,6.1 9.5,6.1 		"/>
		<polygon class="st19" points="34.6,-0.9 24.1,-0.9 24.1,6.1 34.6,6.1 		"/>
		<polygon class="st19" points="59.6,-0.9 49.1,-0.9 49.1,6.1 59.6,6.1 		"/>
		<polygon class="st19" points="84.6,-0.9 74.1,-0.9 74.1,6.1 84.6,6.1 		"/>
		<polygon class="st19" points="109.6,-0.9 99.1,-0.9 99.1,6.1 109.6,6.1 		"/>
		<polygon class="st19" points="134.6,-0.9 124.1,-0.9 124.1,6.1 134.6,6.1 		"/>
		<polygon class="st19" points="159.7,-0.9 149.2,-0.9 149.2,6.1 159.7,6.1 		"/>
		<polygon class="st19" points="-162.5,17.4 -169.5,17.4 -169.5,24.4 -162.5,24.4 		"/>
		<polygon class="st19" points="-162.5,27.6 -169.5,27.6 -169.5,34.6 -162.5,34.6 		"/>
		<polygon class="st19" points="-162.5,37.8 -169.5,37.8 -169.5,44.8 -162.5,44.8 		"/>
		<polygon class="st19" points="-162.5,48 -169.5,48 -169.5,55 -162.5,55 		"/>
		<polygon class="st7" points="-161.1,-21.2 -174.8,-21.2 -174.8,-14.2 -161.1,-14.2 		"/>
		<polygon class="st7" points="-90.2,-21.2 -104,-21.2 -104,-14.2 -90.2,-14.2 		"/>
		<polygon class="st7" points="-18.7,-21.2 -32.4,-21.2 -32.4,-14.2 -18.7,-14.2 		"/>
		<polygon class="st7" points="52.8,-21.2 39.1,-21.2 39.1,-14.2 52.8,-14.2 		"/>
		<g>
			<polygon class="st7" points="50.1,-120.9 22.8,-120.9 22.8,-112.9 50.1,-112.9 			"/>
			<polygon class="st7" points="20.5,-120.9 11.2,-120.9 11.2,-112.9 20.5,-112.9 			"/>
		</g>
		<polygon class="st19" points="-52.2,-21.2 -86.7,-21.2 -86.7,-14.2 -52.2,-14.2 		"/>
		<polygon class="st19" points="23.8,-21.2 -15.2,-21.2 -15.2,-14.2 23.8,-14.2 		"/>
		<polygon class="st19" points="102,-21.2 56.1,-21.2 56.1,-14.2 102,-14.2 		"/>
	</g>
</symbol>
<g>
	
		<use xlink:href="#New_Symbol"  width="421.2" height="319" x="-210.6" y="-159.5" transform="matrix(1 0 0 -1 218.9571 164.5522)" style="overflow:visible;"/>
	<g>
		<path d="M506.6,355.9h-192v-115c0-2.8,2.2-5,5-5h182c2.8,0,5,2.2,5,5V355.9z"/>
		<rect x="323.6" y="244.9" class="st21" width="174" height="102"/>
		<polygon class="st22" points="512.6,364.9 308.6,364.9 299.6,360.4 299.6,355.9 521.6,355.9 521.6,360.4 		"/>
		<g>
			<g>
				<g>
					<circle id="XMLID_57_" class="st8" cx="410.6" cy="295.9" r="40"/>
				</g>
				<g>
					<g>
						<g>
							<g>
								<g>
									<path class="st23" d="M397,314.3c0.4-1.8,0.9-3.9,1.7-6.4l-2.3-1.9c-1.9,5.2-2.8,9.8-3.3,12.9c3-1,7.2-2.8,12-5.6l-2.3-1.9
										C400.7,312.6,398.7,313.6,397,314.3z"/>
								</g>
							</g>
						</g>
						<g>
							<path class="st7" d="M417.8,313.7c1.6-4.7-0.4-8.7-0.8-9.4c2.8-2.6,7.2-7.5,10.3-14.7c2.9-6.7,3.6-12.7,3.8-16.4
								c-3.6,0.8-9.4,2.6-15.4,6.8c-6.5,4.5-10.4,9.7-12.5,12.9c-0.8-0.2-5.1-1.4-9.4,1c-5.1,2.8-6,8.2-6.1,8.9
								c1.1-0.5,3-1.2,5.3-1.4c2.1-0.1,3.8,0.2,4.9,0.5c-0.6,1.3-1.2,2.6-1.8,3.9c1.6,1.4,3.1,2.7,4.7,4.1c1.6,1.3,3.2,2.5,4.9,3.8
								c1.2-0.8,2.4-1.7,3.5-2.5c0.5,1.1,1.1,2.7,1.4,4.8c0.3,2.3,0,4.3-0.3,5.5C410.8,321.1,415.9,319.2,417.8,313.7z M413.9,293.9
								c-1.6-1.4-1.9-3.8-0.5-5.5c1.4-1.6,3.8-1.9,5.5-0.5c1.6,1.4,1.9,3.8,0.5,5.5S415.5,295.3,413.9,293.9z"/>
						</g>
					</g>
				</g>
			</g>
		</g>
	</g>
</g>
<g>
</g>
<g>
</g>
<g>
</g>
<g>
</g>
<g>
</g>
<g>
</g>
<g>
</g>
<g>
</g>
<g>
</g>
</svg>
