<?xml version="1.0" encoding="utf-8"?>
<!-- Generator: Adobe Illustrator 19.1.0, SVG Export Plug-In . SVG Version: 6.00 Build 0)  -->
<svg version="1.1" id="Layer_1" xmlns="http://www.w3.org/2000/svg" xmlns:xlink="http://www.w3.org/1999/xlink" x="0px" y="0px"
	 viewBox="0 0 128 128" style="enable-background:new 0 0 128 128;" xml:space="preserve">
<style type="text/css">
	.st0{fill:#FFFFFF;}
	.st1{fill:#F8DD7C;}
	.st2{fill:#5993CE;}
</style>
<g>
	<g>
		<circle id="XMLID_422_" class="st0" cx="64" cy="64" r="63.5"/>
	</g>
	<g>
		<g>
			<g>
				<g>
					<g>
						<path class="st1" d="M42.4,93.1c0.6-2.8,1.5-6.2,2.7-10.1l-3.6-3c-3,8.3-4.5,15.5-5.2,20.4c4.7-1.6,11.5-4.4,19.1-8.9l-3.6-3
							C48.2,90.5,45,92,42.4,93.1z"/>
					</g>
				</g>
			</g>
			<g>
				<path class="st2" d="M75.3,92.1c2.5-7.5-0.6-13.8-1.2-15c4.4-4.2,11.4-11.8,16.4-23.3c4.7-10.6,5.7-20.1,6-26.1
					c-5.8,1.3-14.9,4.2-24.5,10.8C61.6,45.6,55.4,53.9,52.1,59c-1.3-0.4-8.1-2.2-15,1.6c-8,4.5-9.5,13-9.7,14.1
					c1.8-0.8,4.7-1.9,8.4-2.2c3.3-0.2,6,0.3,7.8,0.7c-0.9,2.1-1.9,4.2-2.8,6.3c2.5,2.2,4.9,4.3,7.4,6.5c2.6,2,5.2,4,7.7,6
					c1.9-1.3,3.7-2.6,5.6-4c0.8,1.7,1.8,4.3,2.2,7.5c0.4,3.7-0.1,6.8-0.6,8.7C64.3,103.9,72.4,100.9,75.3,92.1z M69.1,60.8
					c-2.6-2.2-3-6-0.8-8.7c2.2-2.6,6-3,8.7-0.8c2.6,2.2,3,6,0.8,8.7C75.6,62.6,71.8,63,69.1,60.8z"/>
			</g>
		</g>
	</g>
</g>
</svg>
