<?xml version="1.0" encoding="utf-8"?>
<!-- Generator: Adobe Illustrator 19.1.0, SVG Export Plug-In . SVG Version: 6.00 Build 0)  -->
<svg version="1.1" id="Layer_1" xmlns="http://www.w3.org/2000/svg" xmlns:xlink="http://www.w3.org/1999/xlink" x="0px" y="0px"
	 viewBox="0 0 990 540" style="enable-background:new 0 0 990 540;" xml:space="preserve">
<style type="text/css">
	.st0{fill:none;stroke:#5891CC;stroke-width:4;stroke-miterlimit:10;}
	.st1{fill:#5891CC;}
	.st2{fill:#FFFFFF;}
	.st3{fill:none;}
	.st4{fill:#E9E9E9;}
	.st5{opacity:0.2;}
	.st6{fill:url(#XMLID_8_);}
	.st7{fill:#F3F3F3;}
	.st8{opacity:0.25;}
	.st9{fill:#7D8087;}
	.st10{fill:#68696F;}
	.st11{opacity:0.5;}
	.st12{fill:none;stroke:#FFFFFF;stroke-width:0.7483;stroke-miterlimit:10;}
	.st13{fill:#858585;}
	.st14{enable-background:new    ;}
	.st15{fill:#282827;}
	.st16{opacity:0.4;}
	.st17{fill:#212121;}
	.st18{fill:#5E5E5E;}
	.st19{fill:none;stroke:#5891CC;stroke-width:1.0693;stroke-miterlimit:10;}
</style>
<g>
	<g>
		<line class="st0" x1="504.9" y1="266.3" x2="913.2" y2="415"/>
		<g>
			<g id="XMLID_605_">
				<circle class="st1" cx="916.9" cy="417.2" r="42"/>
			</g>
		</g>
		<g>
			<path class="st2" d="M930,406.1h-14l-3.5-3.5H902c-1.9,0-3.5,1.6-3.5,3.5l0,21c0,1.9,1.6,3.5,3.5,3.5h28c1.9,0,3.5-1.6,3.5-3.5
				v-17.5C933.5,407.7,931.9,406.1,930,406.1z M921.3,411.3c1.9,0,3.5,1.6,3.5,3.5c0,1.9-1.6,3.5-3.5,3.5c-1.9,0-3.5-1.6-3.5-3.5
				C917.8,412.9,919.3,411.3,921.3,411.3z M928.3,425.3h-14v-1.8c0-2.3,4.7-3.5,7-3.5c2.3,0,7,1.2,7,3.5V425.3z"/>
			<path class="st3" d="M895,395.6h42v42h-42V395.6z"/>
		</g>
		<line class="st0" x1="504.9" y1="266.2" x2="918.9" y2="115.5"/>
		<line class="st0" x1="504.9" y1="266.2" x2="939.5" y2="266.2"/>
		<polygon class="st1" points="904.9,239.7 905,291.7 954.4,307.6 984.8,265.5 954.2,223.6 		"/>
		<line class="st0" x1="504.9" y1="266.2" x2="913.6" y2="117.4"/>
		<g id="XMLID_288_">
			<circle class="st1" cx="915.7" cy="117.5" r="42"/>
		</g>
		<g>
			<g>
				<circle class="st2" cx="917" cy="118" r="5.6"/>
				<path class="st2" d="M911.7,100.5l-3.2,3.5H903c-1.9,0-3.5,1.6-3.5,3.5v21c0,1.9,1.6,3.5,3.5,3.5h28c1.9,0,3.5-1.6,3.5-3.5v-21
					c0-1.9-1.6-3.5-3.5-3.5h-5.5l-3.2-3.5H911.7z M917,126.7c-4.8,0-8.8-3.9-8.8-8.8s3.9-8.8,8.8-8.8s8.8,3.9,8.8,8.8
					S921.8,126.7,917,126.7z"/>
				<path class="st3" d="M896,97h42v42h-42V97z"/>
			</g>
		</g>
		<line class="st0" x1="504.9" y1="266.2" x2="940.7" y2="266.2"/>
		<g>
			<g>
				<path class="st2" d="M952.7,249.5h-28c-1.9,0-3.5,1.6-3.5,3.5l0,31.5l7-7h24.5c1.9,0,3.5-1.6,3.5-3.5v-21
					C956.2,251.1,954.6,249.5,952.7,249.5z M928.2,261.7h21v3.5h-21V261.7z M942.2,270.5h-14V267h14V270.5z M949.2,260h-21v-3.5h21
					V260z"/>
				<path class="st3" d="M917.7,246h42v42h-42V246z"/>
			</g>
		</g>
		<line class="st0" x1="485.1" y1="266.3" x2="75.7" y2="415.4"/>
		<g>
			<g id="XMLID_575_">
				<circle class="st1" cx="73.8" cy="416.3" r="42"/>
			</g>
			<g>
				<path class="st3" d="M53.4,397h42v42h-42V397z"/>
				<path class="st2" d="M88.4,400.5h-28c-1.9,0-3.5,1.6-3.5,3.5l0,31.5l7-7h24.5c1.9,0,3.5-1.6,3.5-3.5v-21
					C91.9,402.1,90.3,400.5,88.4,400.5z M84.9,421.5l-7-5.6v5.6h-14v-14h14v5.6l7-5.6V421.5z"/>
			</g>
		</g>
		<line class="st0" x1="485.1" y1="266.2" x2="50.5" y2="266.2"/>
		<polygon class="st1" points="85.1,239.7 85,291.7 35.6,307.6 5.2,265.5 35.8,223.6 		"/>
		<g>
			<g>
				<path class="st3" d="M28.7,246.7h42v42h-42V246.7z"/>
				<path class="st2" d="M60.2,250.2h-21c-1.9,0-3.5,1.6-3.5,3.5v28c0,1.9,1.6,3.5,3.5,3.5h21c1.9,0,3.5-1.6,3.5-3.5v-28
					C63.7,251.8,62.2,250.2,60.2,250.2z M39.2,253.7H48v14l-4.4-2.6l-4.4,2.6V253.7z"/>
			</g>
		</g>
		<line class="st0" x1="485.1" y1="266.2" x2="76.4" y2="117.4"/>
		<g id="XMLID_242_">
			<circle class="st1" cx="74.3" cy="117.5" r="42"/>
		</g>
		<g>
			<path class="st2" d="M89,103.4H61c-1.9,0-3.5,1.6-3.5,3.5l0,21c0,1.9,1.6,3.5,3.5,3.5h28c1.9,0,3.5-1.6,3.5-3.5v-21
				C92.5,104.9,90.9,103.4,89,103.4z M89,110.4l-14,8.8l-14-8.8v-3.5l14,8.8l14-8.8V110.4z"/>
		</g>
	</g>
	<g>
		<g id="XMLID_849_">
			
				<image style="overflow:visible;opacity:0.25;" width="3502" height="2668" xlink:href="B0C955F.png"  transform="matrix(0.1942 0 0 0.1942 155.772 10.9709)">
			</image>
			<g>
				<path class="st4" d="M795.5,485.5H195.9c-2.4,0-4.4-2-4.4-4.4V43.3c0-2.4,2-4.4,4.4-4.4h599.7c2.4,0,4.4,2,4.4,4.4v437.8
					C799.9,483.6,797.9,485.5,795.5,485.5z"/>
				<g class="st5">
					<path d="M795.9,38.9c2.2,0,4,1.8,4,4v438.2c0,2.4-2,4.4-4.4,4.4H195.9c-2.4,0-4.4-2-4.4-4.4V43.3c0-2.4,2-4.4,4.4-4.4H795.9
						 M795.9,38.2H195.9c-2.9,0-5.2,2.3-5.2,5.2v437.7c0,2.9,2.3,5.2,5.2,5.2h599.5c2.9,0,5.2-2.3,5.2-5.2V43
						C800.6,40.3,798.5,38.2,795.9,38.2L795.9,38.2z"/>
				</g>
			</g>
		</g>
		<linearGradient id="XMLID_8_" gradientUnits="userSpaceOnUse" x1="495.7385" y1="38.9152" x2="495.7385" y2="55.9055">
			<stop  offset="0" style="stop-color:#E7E7E7"/>
			<stop  offset="1" style="stop-color:#D0D0D1"/>
		</linearGradient>
		<path id="XMLID_832_" class="st6" d="M800,55.9H191.5V43c0-2.2,1.8-4,4-4h600.4c2.2,0,4,1.8,4,4V55.9z"/>
		<path id="XMLID_829_" class="st7" d="M798.3,39.7c-0.7-0.5-1.5-0.8-2.4-0.8H195.5c-0.9,0-1.7,0.3-2.4,0.8H798.3z"/>
		<rect id="XMLID_824_" x="191.5" y="55.9" class="st8" width="608.5" height="0.8"/>
		<g id="XMLID_821_">
			<path class="st9" d="M235.2,52.2c-2.4,0-4.4-2-4.4-4.4c0-2.4,2-4.4,4.4-4.4s4.4,2,4.4,4.4C239.6,50.2,237.6,52.2,235.2,52.2z"/>
			<path class="st10" d="M235.2,43.8c2.2,0,4,1.8,4,4c0,2.2-1.8,4-4,4s-4-1.8-4-4C231.1,45.6,232.9,43.8,235.2,43.8 M235.2,43.1
				c-2.6,0-4.7,2.1-4.7,4.7s2.1,4.7,4.7,4.7s4.7-2.1,4.7-4.7S237.8,43.1,235.2,43.1L235.2,43.1z"/>
		</g>
		<g id="XMLID_818_">
			<path class="st9" d="M219,52.2c-2.4,0-4.4-2-4.4-4.4c0-2.4,2-4.4,4.4-4.4s4.4,2,4.4,4.4C223.4,50.2,221.4,52.2,219,52.2z"/>
			<path class="st10" d="M219,43.8c2.2,0,4,1.8,4,4c0,2.2-1.8,4-4,4s-4-1.8-4-4C215,45.6,216.8,43.8,219,43.8 M219,43.1
				c-2.6,0-4.7,2.1-4.7,4.7s2.1,4.7,4.7,4.7s4.7-2.1,4.7-4.7S221.6,43.1,219,43.1L219,43.1z"/>
		</g>
		<g id="XMLID_815_">
			<path class="st9" d="M202.8,52.2c-2.4,0-4.4-2-4.4-4.4c0-2.4,2-4.4,4.4-4.4s4.4,2,4.4,4.4C207.2,50.2,205.2,52.2,202.8,52.2z"/>
			<path class="st10" d="M202.8,43.8c2.2,0,4,1.8,4,4c0,2.2-1.8,4-4,4s-4-1.8-4-4C198.8,45.6,200.6,43.8,202.8,43.8 M202.8,43.1
				c-2.6,0-4.7,2.1-4.7,4.7s2.1,4.7,4.7,4.7s4.7-2.1,4.7-4.7S205.4,43.1,202.8,43.1L202.8,43.1z"/>
		</g>
		<g id="XMLID_807_">
			<rect id="XMLID_810_" x="191.5" y="56.7" class="st1" width="608.5" height="37.2"/>
		</g>
		<g id="XMLID_611_">
			<rect id="XMLID_804_" x="191.5" y="56.7" class="st4" width="100.8" height="37.2"/>
			<g id="XMLID_612_">
				<g id="XMLID_801_">
					<path class="st1" d="M234.8,79.9l-0.9-2.6h-3.5l-0.9,2.6h-1.6l3.5-9.3h1.6l3.5,9.3H234.8z M233.5,76l-0.9-2.5
						c-0.1-0.2-0.2-0.4-0.3-0.8c-0.1-0.4-0.2-0.6-0.2-0.8c-0.1,0.5-0.3,1.1-0.5,1.7l-0.8,2.4H233.5z"/>
					<path class="st1" d="M240.3,80c-1.1,0-1.9-0.3-2.4-0.9s-0.8-1.5-0.8-2.7c0-1.2,0.3-2.1,0.9-2.7s1.4-0.9,2.5-0.9
						c0.7,0,1.4,0.1,2,0.4l-0.4,1.2c-0.6-0.2-1.1-0.4-1.6-0.4c-1.2,0-1.8,0.8-1.8,2.4c0,0.8,0.2,1.4,0.5,1.8
						c0.3,0.4,0.7,0.6,1.3,0.6c0.7,0,1.3-0.2,1.9-0.5v1.3c-0.3,0.2-0.5,0.3-0.9,0.3C241.1,80,240.7,80,240.3,80z"/>
					<path class="st1" d="M246.7,80c-1.1,0-1.9-0.3-2.4-0.9s-0.8-1.5-0.8-2.7c0-1.2,0.3-2.1,0.9-2.7s1.4-0.9,2.5-0.9
						c0.7,0,1.4,0.1,2,0.4l-0.4,1.2c-0.6-0.2-1.1-0.4-1.6-0.4c-1.2,0-1.8,0.8-1.8,2.4c0,0.8,0.2,1.4,0.5,1.8
						c0.3,0.4,0.7,0.6,1.3,0.6c0.7,0,1.3-0.2,1.9-0.5v1.3c-0.3,0.2-0.5,0.3-0.9,0.3C247.5,80,247.1,80,246.7,80z"/>
					<path class="st1" d="M256.5,76.4c0,1.1-0.3,2-0.9,2.7s-1.4,1-2.4,1c-0.7,0-1.2-0.1-1.7-0.4c-0.5-0.3-0.9-0.7-1.2-1.3
						c-0.3-0.6-0.4-1.2-0.4-1.9c0-1.1,0.3-2,0.9-2.7c0.6-0.6,1.4-1,2.5-1c1,0,1.8,0.3,2.4,1S256.5,75.3,256.5,76.4z M251.4,76.4
						c0,1.6,0.6,2.4,1.8,2.4c1.2,0,1.8-0.8,1.8-2.4c0-1.6-0.6-2.4-1.8-2.4c-0.6,0-1.1,0.2-1.4,0.6S251.4,75.6,251.4,76.4z"/>
					<path class="st1" d="M263.1,79.9l-0.2-0.9h-0.1c-0.2,0.3-0.5,0.6-0.9,0.8c-0.4,0.2-0.8,0.3-1.3,0.3c-0.8,0-1.5-0.2-1.9-0.6
						c-0.4-0.4-0.6-1.1-0.6-1.9v-4.6h1.5v4.3c0,0.5,0.1,0.9,0.3,1.2c0.2,0.3,0.6,0.4,1,0.4c0.6,0,1.1-0.2,1.4-0.6s0.4-1,0.4-1.9
						v-3.5h1.5v7H263.1z"/>
					<path class="st1" d="M272.6,79.9h-1.5v-4.3c0-0.5-0.1-0.9-0.3-1.2c-0.2-0.3-0.6-0.4-1-0.4c-0.6,0-1.1,0.2-1.4,0.6
						c-0.3,0.4-0.4,1-0.4,1.9v3.5h-1.5v-7h1.2l0.2,0.9h0.1c0.2-0.3,0.5-0.6,0.9-0.8c0.4-0.2,0.8-0.3,1.3-0.3c1.7,0,2.5,0.9,2.5,2.6
						V79.9z"/>
					<path class="st1" d="M277.3,78.8c0.4,0,0.7-0.1,1.1-0.2v1.1c-0.2,0.1-0.4,0.1-0.6,0.2c-0.3,0-0.5,0.1-0.8,0.1
						c-1.4,0-2.1-0.7-2.1-2.2V74h-1v-0.7l1-0.5l0.5-1.5h0.9v1.6h2V74h-2v3.7c0,0.4,0.1,0.6,0.3,0.8C276.7,78.8,277,78.8,277.3,78.8z
						"/>
				</g>
				<g id="XMLID_613_">
					<path id="XMLID_625_" class="st1" d="M206.9,71.8h3.2v-3.2h-3.2V71.8z M211.7,81.5h3.2v-3.2h-3.2V81.5z M206.9,81.5h3.2v-3.2
						h-3.2V81.5z M206.9,76.7h3.2v-3.2h-3.2V76.7z M211.7,76.7h3.2v-3.2h-3.2V76.7z M216.6,68.6v3.2h3.2v-3.2H216.6z M211.7,71.8
						h3.2v-3.2h-3.2V71.8z M216.6,76.7h3.2v-3.2h-3.2V76.7z M216.6,81.5h3.2v-3.2h-3.2V81.5z"/>
					<path id="XMLID_614_" class="st3" d="M203.6,65.3H223v19.4h-19.4V65.3z"/>
				</g>
			</g>
		</g>
		<g id="XMLID_603_">
			<rect id="XMLID_610_" x="292.3" y="56.7" class="st1" width="118.1" height="37.2"/>
			<g id="XMLID_604_">
				<g id="XMLID_573_">
					<g>
						<path class="st2" d="M337.5,75.2c0,1.5-0.4,2.7-1.3,3.5c-0.8,0.8-2.1,1.2-3.7,1.2h-2.6v-9.2h2.9c1.5,0,2.6,0.4,3.4,1.2
							S337.5,73.8,337.5,75.2z M335.9,75.3c0-2.2-1-3.3-3.1-3.3h-1.3v6.7h1.1C334.7,78.6,335.9,77.5,335.9,75.3z"/>
						<path class="st2" d="M343.7,79.9l-0.3-1h-0.1c-0.3,0.4-0.7,0.7-1,0.9c-0.3,0.2-0.8,0.2-1.3,0.2c-0.7,0-1.2-0.2-1.6-0.6
							s-0.6-0.9-0.6-1.6c0-0.7,0.3-1.3,0.8-1.6c0.5-0.4,1.3-0.6,2.4-0.6l1.2,0v-0.4c0-0.4-0.1-0.8-0.3-1c-0.2-0.2-0.5-0.3-1-0.3
							c-0.4,0-0.7,0.1-1,0.2c-0.3,0.1-0.6,0.2-0.9,0.4l-0.5-1.1c0.4-0.2,0.8-0.3,1.2-0.5c0.5-0.1,0.9-0.2,1.3-0.2
							c0.9,0,1.6,0.2,2,0.6s0.7,1,0.7,1.8v4.7H343.7z M341.4,78.9c0.5,0,1-0.2,1.3-0.5c0.3-0.3,0.5-0.7,0.5-1.3v-0.6l-0.9,0
							c-0.7,0-1.2,0.1-1.5,0.4c-0.3,0.2-0.5,0.5-0.5,1c0,0.3,0.1,0.6,0.3,0.7C340.8,78.8,341.1,78.9,341.4,78.9z"/>
						<path class="st2" d="M351.5,77.9c0,0.7-0.2,1.2-0.7,1.6c-0.5,0.4-1.2,0.5-2.1,0.5c-0.9,0-1.7-0.1-2.2-0.4v-1.3
							c0.8,0.4,1.6,0.6,2.3,0.6c0.9,0,1.4-0.3,1.4-0.8c0-0.2,0-0.3-0.2-0.4c-0.1-0.1-0.3-0.2-0.5-0.4c-0.2-0.1-0.6-0.3-1-0.4
							c-0.8-0.3-1.3-0.6-1.6-0.9s-0.4-0.7-0.4-1.2c0-0.6,0.2-1.1,0.7-1.4s1.1-0.5,2-0.5c0.8,0,1.6,0.2,2.3,0.5l-0.5,1.1
							c-0.8-0.3-1.4-0.5-1.9-0.5c-0.8,0-1.2,0.2-1.2,0.7c0,0.2,0.1,0.4,0.3,0.6c0.2,0.2,0.6,0.4,1.3,0.6c0.6,0.2,1,0.4,1.3,0.6
							c0.3,0.2,0.5,0.4,0.6,0.6C351.4,77.3,351.5,77.6,351.5,77.9z"/>
						<path class="st2" d="M359.2,79.9h-1.5v-4.3c0-0.5-0.1-0.9-0.3-1.2c-0.2-0.3-0.6-0.4-1-0.4c-0.6,0-1.1,0.2-1.4,0.6
							c-0.3,0.4-0.4,1-0.4,1.9v3.5h-1.5v-9.8h1.5v2.5c0,0.4,0,0.8-0.1,1.3h0.1c0.2-0.3,0.5-0.6,0.8-0.8s0.8-0.3,1.3-0.3
							c1.7,0,2.5,0.9,2.5,2.6V79.9z"/>
						<path class="st2" d="M364.9,72.8c0.9,0,1.6,0.3,2,0.9c0.5,0.6,0.7,1.5,0.7,2.7c0,1.1-0.2,2-0.7,2.7s-1.2,1-2.1,1
							c-0.9,0-1.6-0.3-2.1-1h-0.1l-0.3,0.8h-1.1v-9.8h1.5v2.3c0,0.2,0,0.4,0,0.8c0,0.3,0,0.6,0,0.7h0.1
							C363.3,73.1,364,72.8,364.9,72.8z M364.5,74c-0.6,0-1,0.2-1.3,0.5s-0.4,0.9-0.4,1.8v0.1c0,0.9,0.1,1.5,0.4,1.8
							c0.3,0.4,0.7,0.6,1.3,0.6c0.5,0,0.9-0.2,1.2-0.6s0.4-1,0.4-1.8C366.1,74.8,365.6,74,364.5,74z"/>
						<path class="st2" d="M375.6,76.4c0,1.1-0.3,2-0.9,2.7s-1.4,1-2.4,1c-0.7,0-1.2-0.1-1.7-0.4c-0.5-0.3-0.9-0.7-1.2-1.3
							c-0.3-0.6-0.4-1.2-0.4-1.9c0-1.1,0.3-2,0.9-2.7c0.6-0.6,1.4-1,2.5-1c1,0,1.8,0.3,2.4,1S375.6,75.3,375.6,76.4z M370.5,76.4
							c0,1.6,0.6,2.4,1.8,2.4c1.2,0,1.8-0.8,1.8-2.4c0-1.6-0.6-2.4-1.8-2.4c-0.6,0-1.1,0.2-1.4,0.6S370.5,75.6,370.5,76.4z"/>
						<path class="st2" d="M381.7,79.9l-0.3-1h-0.1c-0.3,0.4-0.7,0.7-1,0.9c-0.3,0.2-0.8,0.2-1.3,0.2c-0.7,0-1.2-0.2-1.6-0.6
							s-0.6-0.9-0.6-1.6c0-0.7,0.3-1.3,0.8-1.6c0.5-0.4,1.3-0.6,2.4-0.6l1.2,0v-0.4c0-0.4-0.1-0.8-0.3-1c-0.2-0.2-0.5-0.3-1-0.3
							c-0.4,0-0.7,0.1-1,0.2c-0.3,0.1-0.6,0.2-0.9,0.4l-0.5-1.1c0.4-0.2,0.8-0.3,1.2-0.5c0.5-0.1,0.9-0.2,1.3-0.2
							c0.9,0,1.6,0.2,2,0.6s0.7,1,0.7,1.8v4.7H381.7z M379.4,78.9c0.5,0,1-0.2,1.3-0.5c0.3-0.3,0.5-0.7,0.5-1.3v-0.6l-0.9,0
							c-0.7,0-1.2,0.1-1.5,0.4c-0.3,0.2-0.5,0.5-0.5,1c0,0.3,0.1,0.6,0.3,0.7C378.8,78.8,379.1,78.9,379.4,78.9z"/>
						<path class="st2" d="M388.3,72.8c0.3,0,0.5,0,0.7,0.1l-0.1,1.4c-0.2-0.1-0.4-0.1-0.7-0.1c-0.6,0-1.1,0.2-1.4,0.6
							c-0.4,0.4-0.6,0.9-0.6,1.5v3.7h-1.5v-7h1.2l0.2,1.2h0.1c0.2-0.4,0.5-0.7,0.9-1C387.5,72.9,387.9,72.8,388.3,72.8z"/>
						<path class="st2" d="M392.7,80c-0.9,0-1.6-0.3-2-0.9c-0.5-0.6-0.7-1.5-0.7-2.7c0-1.1,0.2-2,0.7-2.7c0.5-0.6,1.2-1,2.1-1
							c0.9,0,1.6,0.3,2.1,1h0.1c-0.1-0.5-0.1-0.9-0.1-1.2v-2.5h1.5v9.8h-1.2l-0.3-0.9h-0.1C394.3,79.7,393.6,80,392.7,80z
							 M393.1,78.8c0.6,0,1.1-0.2,1.3-0.5c0.3-0.3,0.4-0.9,0.4-1.7v-0.2c0-0.9-0.1-1.5-0.4-1.9c-0.3-0.4-0.7-0.6-1.3-0.6
							c-0.5,0-0.9,0.2-1.2,0.6c-0.3,0.4-0.4,1-0.4,1.8c0,0.8,0.1,1.4,0.4,1.8C392.2,78.6,392.6,78.8,393.1,78.8z"/>
					</g>
				</g>
				<g id="XMLID_327_">
					<path id="XMLID_569_" class="st2" d="M315.7,77.9l3-4.1l-4.3,2.7c-0.5-0.1-1,0-1.4,0.4c-0.7,0.6-0.7,1.6-0.1,2.3
						s1.6,0.7,2.3,0.1C315.6,78.9,315.8,78.4,315.7,77.9z"/>
					<path id="XMLID_448_" class="st2" d="M309.5,80.9c-1.1-1.2-1.8-2.7-1.8-4.5c0-3.6,2.9-6.5,6.5-6.5c3.6,0,6.5,2.9,6.5,6.5
						c0,1.7-0.7,3.3-1.8,4.5l1.4,0.8c1.2-1.4,2-3.3,2-5.3c0-4.5-3.6-8.1-8.1-8.1s-8.1,3.6-8.1,8.1c0,2,0.8,3.9,2,5.3L309.5,80.9z"/>
				</g>
			</g>
		</g>
		<g id="XMLID_576_">
			<rect id="XMLID_602_" x="410.5" y="56.7" class="st1" width="99.5" height="37.2"/>
			<g id="XMLID_596_">
				<g id="XMLID_601_">
					<path class="st2" d="M453.4,77.4c0,0.8-0.3,1.5-0.9,1.9c-0.6,0.5-1.4,0.7-2.5,0.7s-1.9-0.2-2.6-0.5v-1.4
						c0.4,0.2,0.9,0.4,1.3,0.5c0.5,0.1,0.9,0.2,1.3,0.2c0.6,0,1-0.1,1.3-0.3c0.3-0.2,0.4-0.5,0.4-0.9c0-0.3-0.1-0.6-0.4-0.9
						c-0.3-0.2-0.8-0.5-1.6-0.9c-0.8-0.3-1.4-0.7-1.8-1.2s-0.5-1-0.5-1.6c0-0.8,0.3-1.4,0.8-1.8s1.3-0.7,2.2-0.7
						c0.9,0,1.8,0.2,2.6,0.6l-0.5,1.2c-0.8-0.3-1.6-0.5-2.2-0.5c-0.5,0-0.9,0.1-1.1,0.3s-0.4,0.5-0.4,0.8c0,0.2,0.1,0.4,0.2,0.6
						c0.1,0.2,0.3,0.3,0.5,0.5c0.2,0.2,0.6,0.4,1.3,0.6c0.7,0.3,1.2,0.5,1.5,0.8c0.3,0.2,0.5,0.5,0.7,0.8S453.4,77,453.4,77.4z"/>
					<path class="st2" d="M458.1,80c-1.1,0-1.9-0.3-2.6-1c-0.6-0.6-0.9-1.5-0.9-2.6c0-1.1,0.3-2,0.9-2.7s1.4-1,2.3-1
						c0.9,0,1.7,0.3,2.2,0.8s0.8,1.3,0.8,2.3v0.8h-4.7c0,0.7,0.2,1.2,0.5,1.6c0.3,0.4,0.8,0.5,1.5,0.5c0.4,0,0.8,0,1.2-0.1
						s0.7-0.2,1.1-0.4v1.2c-0.4,0.2-0.7,0.3-1.1,0.4C459,80,458.5,80,458.1,80z M457.8,73.9c-0.5,0-0.8,0.1-1.1,0.4
						c-0.3,0.3-0.5,0.7-0.5,1.3h3.2c0-0.6-0.1-1-0.4-1.3C458.6,74.1,458.3,73.9,457.8,73.9z"/>
					<path class="st2" d="M465.1,78.8c0.4,0,0.7-0.1,1.1-0.2v1.1c-0.2,0.1-0.4,0.1-0.6,0.2c-0.3,0-0.5,0.1-0.8,0.1
						c-1.4,0-2.1-0.7-2.1-2.2V74h-1v-0.7l1-0.5l0.5-1.5h0.9v1.6h2V74h-2v3.7c0,0.4,0.1,0.6,0.3,0.8
						C464.6,78.8,464.8,78.8,465.1,78.8z"/>
					<path class="st2" d="M470.2,78.8c0.4,0,0.7-0.1,1.1-0.2v1.1c-0.2,0.1-0.4,0.1-0.6,0.2c-0.3,0-0.5,0.1-0.8,0.1
						c-1.4,0-2.1-0.7-2.1-2.2V74h-1v-0.7l1-0.5l0.5-1.5h0.9v1.6h2V74h-2v3.7c0,0.4,0.1,0.6,0.3,0.8
						C469.6,78.8,469.9,78.8,470.2,78.8z"/>
					<path class="st2" d="M472.6,71.1c0-0.3,0.1-0.5,0.2-0.6c0.1-0.1,0.4-0.2,0.6-0.2c0.3,0,0.5,0.1,0.6,0.2
						c0.1,0.1,0.2,0.3,0.2,0.6c0,0.3-0.1,0.5-0.2,0.6s-0.3,0.2-0.6,0.2c-0.3,0-0.5-0.1-0.6-0.2S472.6,71.3,472.6,71.1z M474.1,79.9
						h-1.5v-7h1.5V79.9z"/>
					<path class="st2" d="M482.4,79.9h-1.5v-4.3c0-0.5-0.1-0.9-0.3-1.2c-0.2-0.3-0.6-0.4-1-0.4c-0.6,0-1.1,0.2-1.4,0.6
						c-0.3,0.4-0.4,1-0.4,1.9v3.5h-1.5v-7h1.2l0.2,0.9h0.1c0.2-0.3,0.5-0.6,0.9-0.8c0.4-0.2,0.8-0.3,1.3-0.3c1.7,0,2.5,0.9,2.5,2.6
						V79.9z"/>
					<path class="st2" d="M490.4,72.9v0.8l-1.2,0.2c0.1,0.1,0.2,0.3,0.3,0.5c0.1,0.2,0.1,0.4,0.1,0.7c0,0.7-0.2,1.3-0.7,1.7
						s-1.2,0.6-2.1,0.6c-0.2,0-0.4,0-0.6-0.1c-0.3,0.2-0.5,0.4-0.5,0.7c0,0.2,0.1,0.3,0.2,0.4s0.4,0.1,0.8,0.1h1.2
						c0.8,0,1.4,0.2,1.8,0.5s0.6,0.8,0.6,1.4c0,0.8-0.3,1.4-1,1.8s-1.6,0.6-2.8,0.6c-1,0-1.7-0.2-2.2-0.5c-0.5-0.3-0.8-0.8-0.8-1.4
						c0-0.4,0.1-0.8,0.4-1.1c0.3-0.3,0.7-0.5,1.1-0.6c-0.2-0.1-0.4-0.2-0.5-0.4s-0.2-0.4-0.2-0.6c0-0.3,0.1-0.5,0.2-0.7
						c0.1-0.2,0.4-0.4,0.7-0.5c-0.4-0.2-0.7-0.4-0.9-0.8s-0.3-0.8-0.3-1.2c0-0.8,0.2-1.3,0.7-1.8c0.5-0.4,1.2-0.6,2-0.6
						c0.2,0,0.4,0,0.6,0s0.4,0.1,0.5,0.1H490.4z M484.9,81c0,0.3,0.1,0.6,0.4,0.7c0.3,0.2,0.7,0.3,1.2,0.3c0.8,0,1.4-0.1,1.8-0.3
						c0.4-0.2,0.6-0.5,0.6-0.9c0-0.3-0.1-0.5-0.3-0.6c-0.2-0.1-0.6-0.2-1.2-0.2h-1.1c-0.4,0-0.8,0.1-1,0.3
						C485,80.4,484.9,80.7,484.9,81z M485.5,75.2c0,0.4,0.1,0.8,0.3,1c0.2,0.2,0.5,0.4,1,0.4c0.9,0,1.3-0.5,1.3-1.4
						c0-0.5-0.1-0.8-0.3-1.1s-0.5-0.4-1-0.4c-0.4,0-0.8,0.1-1,0.4C485.6,74.4,485.5,74.7,485.5,75.2z"/>
					<path class="st2" d="M496.4,77.9c0,0.7-0.2,1.2-0.7,1.6c-0.5,0.4-1.2,0.5-2.1,0.5c-0.9,0-1.7-0.1-2.2-0.4v-1.3
						c0.8,0.4,1.6,0.6,2.3,0.6c0.9,0,1.4-0.3,1.4-0.8c0-0.2,0-0.3-0.2-0.4c-0.1-0.1-0.3-0.2-0.5-0.4c-0.2-0.1-0.6-0.3-1-0.4
						c-0.8-0.3-1.3-0.6-1.6-0.9s-0.4-0.7-0.4-1.2c0-0.6,0.2-1.1,0.7-1.4s1.1-0.5,2-0.5c0.8,0,1.6,0.2,2.3,0.5l-0.5,1.1
						c-0.8-0.3-1.4-0.5-1.9-0.5c-0.8,0-1.2,0.2-1.2,0.7c0,0.2,0.1,0.4,0.3,0.6c0.2,0.2,0.6,0.4,1.3,0.6c0.6,0.2,1,0.4,1.3,0.6
						c0.3,0.2,0.5,0.4,0.6,0.6C496.3,77.3,496.4,77.6,496.4,77.9z"/>
				</g>
				<path id="XMLID_600_" class="st3" d="M422.6,65.3H442v19.4h-19.4V65.3z"/>
				<path id="XMLID_597_" class="st2" d="M438.3,75.8c0-0.3,0.1-0.5,0.1-0.8c0-0.3,0-0.5-0.1-0.8l1.7-1.3c0.2-0.1,0.2-0.3,0.1-0.5
					l-1.6-2.8c-0.1-0.2-0.3-0.2-0.5-0.2l-2,0.8c-0.4-0.3-0.9-0.6-1.4-0.8l-0.3-2.1c0-0.2-0.2-0.3-0.4-0.3h-3.2
					c-0.2,0-0.4,0.1-0.4,0.3l-0.3,2.1c-0.5,0.2-0.9,0.5-1.4,0.8l-2-0.8c-0.2-0.1-0.4,0-0.5,0.2l-1.6,2.8c-0.1,0.2-0.1,0.4,0.1,0.5
					l1.7,1.3c0,0.3-0.1,0.5-0.1,0.8s0,0.5,0.1,0.8l-1.7,1.3c-0.2,0.1-0.2,0.3-0.1,0.5l1.6,2.8c0.1,0.2,0.3,0.2,0.5,0.2l2-0.8
					c0.4,0.3,0.9,0.6,1.4,0.8l0.3,2.1c0,0.2,0.2,0.3,0.4,0.3h3.2c0.2,0,0.4-0.1,0.4-0.3l0.3-2.1c0.5-0.2,0.9-0.5,1.4-0.8l2,0.8
					c0.2,0.1,0.4,0,0.5-0.2l1.6-2.8c0.1-0.2,0.1-0.4-0.1-0.5L438.3,75.8z M432.3,77.9c-1.6,0-2.8-1.3-2.8-2.8c0-1.6,1.3-2.8,2.8-2.8
					s2.8,1.3,2.8,2.8C435.1,76.6,433.9,77.9,432.3,77.9z"/>
			</g>
			<g id="XMLID_577_">
				<rect id="XMLID_594_" x="510" y="56.7" class="st1" width="78.9" height="37.2"/>
				<g id="XMLID_580_">
					<g id="XMLID_592_">
						<path class="st2" d="M552.6,79.9h-1.5v-4.2h-4.3v4.2h-1.5v-9.2h1.5v3.8h4.3v-3.8h1.5V79.9z"/>
						<path class="st2" d="M557.9,80c-1.1,0-1.9-0.3-2.6-1c-0.6-0.6-0.9-1.5-0.9-2.6c0-1.1,0.3-2,0.9-2.7s1.4-1,2.3-1
							c0.9,0,1.7,0.3,2.2,0.8s0.8,1.3,0.8,2.3v0.8H556c0,0.7,0.2,1.2,0.5,1.6c0.3,0.4,0.8,0.5,1.5,0.5c0.4,0,0.8,0,1.2-0.1
							s0.7-0.2,1.1-0.4v1.2c-0.4,0.2-0.7,0.3-1.1,0.4C558.8,80,558.4,80,557.9,80z M557.7,73.9c-0.5,0-0.8,0.1-1.1,0.4
							c-0.3,0.3-0.5,0.7-0.5,1.3h3.2c0-0.6-0.1-1-0.4-1.3C558.5,74.1,558.1,73.9,557.7,73.9z"/>
						<path class="st2" d="M563.8,79.9h-1.5v-9.8h1.5V79.9z"/>
						<path class="st2" d="M569.5,80c-0.9,0-1.6-0.3-2.1-1h-0.1c0.1,0.6,0.1,0.9,0.1,1.1V83h-1.5V72.9h1.2c0,0.1,0.1,0.4,0.2,0.9
							h0.1c0.5-0.7,1.2-1.1,2.1-1.1c0.9,0,1.6,0.3,2,0.9c0.5,0.6,0.7,1.5,0.7,2.7c0,1.1-0.2,2-0.7,2.7S570.4,80,569.5,80z M569.1,74
							c-0.6,0-1,0.2-1.3,0.5c-0.3,0.3-0.4,0.9-0.4,1.7v0.2c0,0.9,0.1,1.5,0.4,1.8c0.3,0.4,0.7,0.6,1.3,0.6c0.5,0,0.9-0.2,1.2-0.6
							c0.3-0.4,0.4-1,0.4-1.8c0-0.8-0.1-1.4-0.4-1.8C570.1,74.2,569.7,74,569.1,74z"/>
					</g>
					<path id="XMLID_583_" class="st2" d="M529.6,79.9h1.6v-1.6h-1.6V79.9z M530.4,66.9c-4.5,0-8.1,3.6-8.1,8.1s3.6,8.1,8.1,8.1
						c4.5,0,8.1-3.6,8.1-8.1S534.8,66.9,530.4,66.9z M530.4,81.5c-3.6,0-6.5-2.9-6.5-6.5s2.9-6.5,6.5-6.5c3.6,0,6.5,2.9,6.5,6.5
						S533.9,81.5,530.4,81.5z M530.4,70.2c-1.8,0-3.2,1.4-3.2,3.2h1.6c0-0.9,0.7-1.6,1.6-1.6c0.9,0,1.6,0.7,1.6,1.6
						c0,1.6-2.4,1.4-2.4,4h1.6c0-1.8,2.4-2,2.4-4C533.6,71.6,532.2,70.2,530.4,70.2z"/>
				</g>
			</g>
		</g>
		<g id="XMLID_574_" class="st11">
			<line class="st12" x1="411.3" y1="64" x2="411.3" y2="86.7"/>
		</g>
		<g id="XMLID_572_" class="st11">
			<line class="st12" x1="509.2" y1="64" x2="509.2" y2="86.7"/>
		</g>
		<g id="XMLID_568_">
			<rect id="XMLID_571_" x="309.7" y="413.4" class="st13" width="372.2" height="0.8"/>
			<g id="iCloud_74_">
				<g id="XMLID_413_" class="st14">
					<path class="st15" d="M398,430.7c0,1.3-0.4,2.4-1.1,3.1s-1.8,1.1-3.1,1.1h-2.3v-8.1h2.5c1.3,0,2.2,0.3,2.9,1
						C397.7,428.4,398,429.4,398,430.7z M397,430.7c0-1.1-0.3-1.8-0.8-2.4s-1.3-0.8-2.4-0.8h-1.4v6.5h1.2c1.1,0,2-0.3,2.5-0.8
						C396.7,432.6,397,431.8,397,430.7z"/>
					<path class="st15" d="M405.4,431.7c0,1-0.3,1.8-0.8,2.3c-0.5,0.6-1.2,0.8-2.1,0.8c-0.5,0-1-0.1-1.5-0.4c-0.4-0.3-0.7-0.6-1-1.1
						c-0.2-0.5-0.3-1-0.3-1.7c0-1,0.2-1.8,0.7-2.3c0.5-0.6,1.2-0.8,2.1-0.8c0.9,0,1.5,0.3,2,0.8C405.1,430,405.4,430.8,405.4,431.7z
						 M400.7,431.7c0,0.8,0.2,1.4,0.5,1.8c0.3,0.4,0.8,0.6,1.4,0.6s1.1-0.2,1.4-0.6s0.5-1,0.5-1.8c0-0.8-0.2-1.4-0.5-1.8
						c-0.3-0.4-0.8-0.6-1.4-0.6c-0.6,0-1.1,0.2-1.4,0.6S400.7,431,400.7,431.7z"/>
					<path class="st15" d="M411.6,434.8v-3.9c0-0.5-0.1-0.9-0.3-1.1c-0.2-0.2-0.6-0.4-1.1-0.4c-0.6,0-1.1,0.2-1.4,0.5
						c-0.3,0.3-0.4,0.9-0.4,1.7v3.2h-0.9v-6.1h0.8l0.2,0.8h0c0.2-0.3,0.5-0.5,0.8-0.7c0.3-0.2,0.7-0.2,1.1-0.2
						c0.7,0,1.3,0.2,1.7,0.5c0.4,0.4,0.6,0.9,0.6,1.7v4H411.6z"/>
					<path class="st15" d="M415.5,426.7l0.1,0.1c-0.1,0.4-0.2,0.8-0.4,1.3s-0.4,0.9-0.6,1.4H414c0.3-1.1,0.4-2,0.6-2.8H415.5z"/>
					<path class="st15" d="M419.1,434.1c0.2,0,0.3,0,0.5,0c0.2,0,0.3,0,0.4-0.1v0.7c-0.1,0-0.2,0.1-0.4,0.1c-0.2,0-0.4,0-0.5,0
						c-1.2,0-1.8-0.6-1.8-1.9v-3.6h-0.9V429l0.9-0.4l0.4-1.3h0.5v1.4h1.8v0.7h-1.8v3.6c0,0.4,0.1,0.6,0.3,0.8
						C418.6,434,418.8,434.1,419.1,434.1z"/>
					<path class="st15" d="M429.1,434.8v-3.9c0-0.5-0.1-0.9-0.3-1.1c-0.2-0.2-0.6-0.4-1.1-0.4c-0.6,0-1.1,0.2-1.4,0.5
						c-0.3,0.3-0.4,0.9-0.4,1.7v3.2h-0.9v-8.6h0.9v2.6c0,0.3,0,0.6,0,0.8h0.1c0.2-0.3,0.4-0.5,0.8-0.7c0.3-0.2,0.7-0.3,1.1-0.3
						c0.7,0,1.3,0.2,1.7,0.5c0.4,0.4,0.6,0.9,0.6,1.7v4H429.1z"/>
					<path class="st15" d="M436.1,434.8l-0.2-0.9h0c-0.3,0.4-0.6,0.6-0.9,0.8c-0.3,0.1-0.7,0.2-1.1,0.2c-0.6,0-1.1-0.2-1.4-0.5
						s-0.5-0.8-0.5-1.3c0-1.2,1-1.9,3-1.9l1,0v-0.4c0-0.5-0.1-0.8-0.3-1.1c-0.2-0.2-0.5-0.3-1-0.3c-0.5,0-1.1,0.2-1.7,0.5l-0.3-0.7
						c0.3-0.2,0.6-0.3,1-0.4c0.4-0.1,0.7-0.1,1.1-0.1c0.7,0,1.3,0.2,1.6,0.5s0.5,0.8,0.5,1.5v4.1H436.1z M434,434.1
						c0.6,0,1-0.2,1.4-0.5c0.3-0.3,0.5-0.8,0.5-1.3v-0.5l-0.9,0c-0.7,0-1.3,0.1-1.6,0.3c-0.3,0.2-0.5,0.5-0.5,0.9
						c0,0.3,0.1,0.6,0.3,0.8C433.4,434,433.6,434.1,434,434.1z"/>
					<path class="st15" d="M440.4,434.8l-2.3-6.1h1l1.3,3.6c0.3,0.8,0.5,1.4,0.5,1.6h0c0-0.2,0.2-0.6,0.4-1.2s0.7-2,1.5-4h1
						l-2.3,6.1H440.4z"/>
					<path class="st15" d="M447.8,434.9c-0.9,0-1.6-0.3-2.1-0.8c-0.5-0.5-0.8-1.3-0.8-2.3c0-1,0.2-1.8,0.7-2.3
						c0.5-0.6,1.1-0.9,1.9-0.9c0.8,0,1.4,0.3,1.8,0.8c0.4,0.5,0.7,1.2,0.7,2v0.6h-4.2c0,0.7,0.2,1.3,0.5,1.6
						c0.3,0.4,0.8,0.6,1.4,0.6c0.7,0,1.3-0.1,1.9-0.4v0.8c-0.3,0.1-0.6,0.2-0.9,0.3S448.2,434.9,447.8,434.9z M447.5,429.4
						c-0.5,0-0.9,0.2-1.2,0.5c-0.3,0.3-0.5,0.8-0.5,1.3h3.2c0-0.6-0.1-1-0.4-1.3C448.4,429.5,448,429.4,447.5,429.4z"/>
					<path class="st15" d="M459.1,434.8l-0.2-0.9h0c-0.3,0.4-0.6,0.6-0.9,0.8c-0.3,0.1-0.7,0.2-1.1,0.2c-0.6,0-1.1-0.2-1.4-0.5
						s-0.5-0.8-0.5-1.3c0-1.2,1-1.9,3-1.9l1,0v-0.4c0-0.5-0.1-0.8-0.3-1.1c-0.2-0.2-0.5-0.3-1-0.3c-0.5,0-1.1,0.2-1.7,0.5l-0.3-0.7
						c0.3-0.2,0.6-0.3,1-0.4c0.4-0.1,0.7-0.1,1.1-0.1c0.7,0,1.3,0.2,1.6,0.5s0.5,0.8,0.5,1.5v4.1H459.1z M457,434.1
						c0.6,0,1-0.2,1.4-0.5c0.3-0.3,0.5-0.8,0.5-1.3v-0.5l-0.9,0c-0.7,0-1.3,0.1-1.6,0.3c-0.3,0.2-0.5,0.5-0.5,0.9
						c0,0.3,0.1,0.6,0.3,0.8C456.4,434,456.7,434.1,457,434.1z"/>
					<path class="st15" d="M466.3,434.8v-3.9c0-0.5-0.1-0.9-0.3-1.1c-0.2-0.2-0.6-0.4-1.1-0.4c-0.6,0-1.1,0.2-1.4,0.5
						c-0.3,0.3-0.4,0.9-0.4,1.7v3.2h-0.9v-6.1h0.8l0.2,0.8h0c0.2-0.3,0.5-0.5,0.8-0.7c0.3-0.2,0.7-0.2,1.1-0.2
						c0.7,0,1.3,0.2,1.7,0.5c0.4,0.4,0.6,0.9,0.6,1.7v4H466.3z"/>
					<path class="st15" d="M476.6,434.8l-0.2-0.9h0c-0.3,0.4-0.6,0.6-0.9,0.8c-0.3,0.1-0.7,0.2-1.1,0.2c-0.6,0-1.1-0.2-1.4-0.5
						s-0.5-0.8-0.5-1.3c0-1.2,1-1.9,3-1.9l1,0v-0.4c0-0.5-0.1-0.8-0.3-1.1c-0.2-0.2-0.5-0.3-1-0.3c-0.5,0-1.1,0.2-1.7,0.5l-0.3-0.7
						c0.3-0.2,0.6-0.3,1-0.4c0.4-0.1,0.7-0.1,1.1-0.1c0.7,0,1.3,0.2,1.6,0.5s0.5,0.8,0.5,1.5v4.1H476.6z M474.5,434.1
						c0.6,0,1-0.2,1.4-0.5c0.3-0.3,0.5-0.8,0.5-1.3v-0.5l-0.9,0c-0.7,0-1.3,0.1-1.6,0.3c-0.3,0.2-0.5,0.5-0.5,0.9
						c0,0.3,0.1,0.6,0.3,0.8C473.9,434,474.2,434.1,474.5,434.1z"/>
					<path class="st15" d="M482.1,434.9c-0.9,0-1.6-0.3-2-0.8c-0.5-0.5-0.7-1.3-0.7-2.3c0-1,0.2-1.8,0.7-2.3s1.2-0.8,2.1-0.8
						c0.3,0,0.6,0,0.9,0.1s0.5,0.1,0.7,0.2l-0.3,0.8c-0.2-0.1-0.4-0.1-0.7-0.2c-0.2-0.1-0.5-0.1-0.6-0.1c-1.2,0-1.9,0.8-1.9,2.4
						c0,0.7,0.2,1.3,0.5,1.7c0.3,0.4,0.7,0.6,1.3,0.6c0.5,0,1-0.1,1.6-0.3v0.8C483.2,434.8,482.7,434.9,482.1,434.9z"/>
					<path class="st15" d="M487.9,434.9c-0.9,0-1.6-0.3-2-0.8c-0.5-0.5-0.7-1.3-0.7-2.3c0-1,0.2-1.8,0.7-2.3s1.2-0.8,2.1-0.8
						c0.3,0,0.6,0,0.9,0.1s0.5,0.1,0.7,0.2l-0.3,0.8c-0.2-0.1-0.4-0.1-0.7-0.2c-0.2-0.1-0.5-0.1-0.6-0.1c-1.2,0-1.9,0.8-1.9,2.4
						c0,0.7,0.2,1.3,0.5,1.7c0.3,0.4,0.7,0.6,1.3,0.6c0.5,0,1-0.1,1.6-0.3v0.8C489,434.8,488.5,434.9,487.9,434.9z"/>
					<path class="st15" d="M496.5,431.7c0,1-0.3,1.8-0.8,2.3c-0.5,0.6-1.2,0.8-2.1,0.8c-0.5,0-1-0.1-1.5-0.4c-0.4-0.3-0.7-0.6-1-1.1
						c-0.2-0.5-0.3-1-0.3-1.7c0-1,0.2-1.8,0.7-2.3c0.5-0.6,1.2-0.8,2.1-0.8c0.9,0,1.5,0.3,2,0.8C496.3,430,496.5,430.8,496.5,431.7z
						 M491.9,431.7c0,0.8,0.2,1.4,0.5,1.8c0.3,0.4,0.8,0.6,1.4,0.6s1.1-0.2,1.4-0.6s0.5-1,0.5-1.8c0-0.8-0.2-1.4-0.5-1.8
						c-0.3-0.4-0.8-0.6-1.4-0.6c-0.6,0-1.1,0.2-1.4,0.6S491.9,431,491.9,431.7z"/>
					<path class="st15" d="M499.4,428.7v3.9c0,0.5,0.1,0.9,0.3,1.1c0.2,0.2,0.6,0.4,1.1,0.4c0.6,0,1.1-0.2,1.4-0.5
						c0.3-0.3,0.4-0.9,0.4-1.7v-3.2h0.9v6.1h-0.8l-0.1-0.8h0c-0.2,0.3-0.5,0.5-0.8,0.7s-0.7,0.2-1.1,0.2c-0.7,0-1.3-0.2-1.7-0.5
						c-0.4-0.3-0.6-0.9-0.6-1.7v-4H499.4z"/>
					<path class="st15" d="M510.1,434.8v-3.9c0-0.5-0.1-0.9-0.3-1.1c-0.2-0.2-0.6-0.4-1.1-0.4c-0.6,0-1.1,0.2-1.4,0.5
						c-0.3,0.3-0.4,0.9-0.4,1.7v3.2H506v-6.1h0.8l0.2,0.8h0c0.2-0.3,0.5-0.5,0.8-0.7c0.3-0.2,0.7-0.2,1.1-0.2c0.7,0,1.3,0.2,1.7,0.5
						c0.4,0.4,0.6,0.9,0.6,1.7v4H510.1z"/>
					<path class="st15" d="M515.3,434.1c0.2,0,0.3,0,0.5,0c0.2,0,0.3,0,0.4-0.1v0.7c-0.1,0-0.2,0.1-0.4,0.1c-0.2,0-0.4,0-0.5,0
						c-1.2,0-1.8-0.6-1.8-1.9v-3.6h-0.9V429l0.9-0.4l0.4-1.3h0.5v1.4h1.8v0.7h-1.8v3.6c0,0.4,0.1,0.6,0.3,0.8
						C514.8,434,515,434.1,515.3,434.1z"/>
					<path class="st15" d="M518.4,432.6v-0.3c0-0.4,0.1-0.8,0.2-1.1c0.1-0.3,0.4-0.6,0.7-0.9c0.5-0.4,0.8-0.7,1-1
						c0.1-0.2,0.2-0.5,0.2-0.8c0-0.4-0.1-0.7-0.4-0.9c-0.2-0.2-0.6-0.3-1-0.3c-0.3,0-0.6,0-0.9,0.1c-0.3,0.1-0.6,0.2-1,0.4l-0.3-0.7
						c0.7-0.4,1.4-0.5,2.2-0.5c0.7,0,1.3,0.2,1.7,0.5c0.4,0.3,0.6,0.8,0.6,1.5c0,0.3,0,0.5-0.1,0.7c-0.1,0.2-0.2,0.4-0.3,0.6
						c-0.1,0.2-0.4,0.5-0.9,0.9c-0.4,0.3-0.6,0.6-0.7,0.8c-0.1,0.2-0.2,0.5-0.2,0.8v0.2H518.4z M518.2,434.2c0-0.5,0.2-0.8,0.7-0.8
						c0.2,0,0.4,0.1,0.5,0.2c0.1,0.1,0.2,0.3,0.2,0.6c0,0.2-0.1,0.4-0.2,0.6c-0.1,0.1-0.3,0.2-0.5,0.2c-0.2,0-0.4-0.1-0.5-0.2
						C518.2,434.7,518.2,434.5,518.2,434.2z"/>
					<path class="st1" d="M533.3,428c-0.6,0-1.2,0.2-1.5,0.7s-0.5,1.2-0.5,2c0,1.8,0.7,2.7,2,2.7c0.6,0,1.3-0.1,2.1-0.4v1.4
						c-0.7,0.3-1.4,0.4-2.2,0.4c-1.2,0-2.1-0.4-2.7-1.1s-0.9-1.7-0.9-3.1c0-0.8,0.2-1.6,0.5-2.2c0.3-0.6,0.8-1.1,1.3-1.5
						c0.6-0.3,1.3-0.5,2-0.5c0.8,0,1.6,0.2,2.4,0.6l-0.6,1.4c-0.3-0.1-0.6-0.3-0.9-0.4C533.9,428.1,533.6,428,533.3,428z"/>
					<path class="st1" d="M539.3,431.7v3.1h-1.7v-8.1h2.4c1.1,0,1.9,0.2,2.5,0.6c0.5,0.4,0.8,1,0.8,1.8c0,0.5-0.1,0.9-0.4,1.3
						c-0.3,0.4-0.6,0.7-1.1,0.9c1.2,1.8,2,3,2.4,3.5h-1.9l-1.9-3.1H539.3z M539.3,430.3h0.6c0.5,0,0.9-0.1,1.2-0.3
						c0.3-0.2,0.4-0.5,0.4-0.9c0-0.4-0.1-0.7-0.4-0.8c-0.3-0.2-0.7-0.2-1.2-0.2h-0.5V430.3z"/>
					<path class="st1" d="M550.2,434.8h-4.7v-8.1h4.7v1.4h-3v1.8h2.8v1.4h-2.8v2.1h3V434.8z"/>
					<path class="st1" d="M557.3,434.8l-0.6-1.9h-3l-0.6,1.9h-1.9l2.9-8.1h2.1l2.9,8.1H557.3z M556.2,431.4c-0.5-1.7-0.9-2.7-0.9-3
						s-0.1-0.4-0.1-0.5c-0.1,0.5-0.5,1.6-1.1,3.5H556.2z"/>
					<path class="st1" d="M563.7,434.8H562v-6.7h-2.2v-1.4h6.1v1.4h-2.2V434.8z"/>
					<path class="st1" d="M572.2,434.8h-4.7v-8.1h4.7v1.4h-3v1.8h2.8v1.4h-2.8v2.1h3V434.8z"/>
					<path class="st1" d="M585.1,430.7c0,1.3-0.3,2.4-1,3.1c-0.7,0.7-1.6,1.1-2.9,1.1c-1.2,0-2.2-0.4-2.9-1.1c-0.7-0.7-1-1.8-1-3.1
						s0.3-2.4,1-3.1c0.7-0.7,1.6-1.1,2.9-1.1c1.2,0,2.2,0.4,2.9,1.1C584.8,428.4,585.1,429.4,585.1,430.7z M579.1,430.7
						c0,0.9,0.2,1.6,0.5,2c0.3,0.5,0.9,0.7,1.5,0.7c1.4,0,2.1-0.9,2.1-2.7c0-1.8-0.7-2.7-2.1-2.7c-0.7,0-1.2,0.2-1.6,0.7
						S579.1,429.8,579.1,430.7z"/>
					<path class="st1" d="M594.4,434.8h-2.2l-3.5-6.1h0c0.1,1.1,0.1,1.9,0.1,2.3v3.8h-1.5v-8.1h2.2l3.5,6.1h0
						c-0.1-1.1-0.1-1.8-0.1-2.2v-3.8h1.6V434.8z"/>
					<path class="st1" d="M601.5,434.8h-4.7v-8.1h4.7v1.4h-3v1.8h2.8v1.4h-2.8v2.1h3V434.8z"/>
				</g>
			</g>
		</g>
		<g id="XMLID_3699_">
			<g id="XMLID_3708_">
				<rect id="XMLID_567_" x="363" y="301.5" class="st16" width="265.4" height="0.8"/>
				<g id="XMLID_326_">
					<g id="XMLID_292_">
						<rect id="XMLID_6_" x="363" y="216.5" class="st3" width="265.4" height="19.4"/>
						<path class="st17" d="M367.2,222.1l-0.3,2.5l2.5-0.7l0.2,1.2l-2.4,0.2l1.6,2.1l-1.1,0.6l-1.1-2.3l-1,2.3l-1.1-0.6l1.5-2.1
							l-2.4-0.2l0.2-1.2l2.5,0.7l-0.3-2.5H367.2z"/>
						<path class="st17" d="M374.5,222.1l-0.3,2.5l2.5-0.7l0.2,1.2l-2.4,0.2l1.6,2.1l-1.1,0.6l-1.1-2.3l-1,2.3l-1.1-0.6l1.5-2.1
							l-2.4-0.2l0.2-1.2l2.5,0.7l-0.3-2.5H374.5z"/>
						<path class="st17" d="M381.9,222.1l-0.3,2.5l2.5-0.7l0.2,1.2l-2.4,0.2l1.6,2.1l-1.1,0.6l-1.1-2.3l-1,2.3l-1.1-0.6l1.5-2.1
							l-2.4-0.2l0.2-1.2l2.5,0.7l-0.3-2.5H381.9z"/>
						<path class="st17" d="M389.3,222.1l-0.3,2.5l2.5-0.7l0.2,1.2l-2.4,0.2l1.6,2.1l-1.1,0.6l-1.1-2.3l-1,2.3l-1.1-0.6l1.5-2.1
							l-2.4-0.2l0.2-1.2l2.5,0.7l-0.3-2.5H389.3z"/>
						<path class="st17" d="M396.6,222.1l-0.3,2.5l2.5-0.7l0.2,1.2l-2.4,0.2l1.6,2.1l-1.1,0.6l-1.1-2.3l-1,2.3l-1.1-0.6l1.5-2.1
							L393,225l0.2-1.2l2.5,0.7l-0.3-2.5H396.6z"/>
						<path class="st17" d="M404,222.1l-0.3,2.5l2.5-0.7l0.2,1.2l-2.4,0.2l1.6,2.1l-1.1,0.6l-1.1-2.3l-1,2.3l-1.1-0.6l1.5-2.1
							l-2.4-0.2l0.2-1.2l2.5,0.7l-0.3-2.5H404z"/>
						<path class="st17" d="M411.4,222.1l-0.3,2.5l2.5-0.7l0.2,1.2l-2.4,0.2l1.6,2.1l-1.1,0.6l-1.1-2.3l-1,2.3l-1.1-0.6l1.5-2.1
							l-2.4-0.2l0.2-1.2l2.5,0.7l-0.3-2.5H411.4z"/>
						<path class="st17" d="M418.8,222.1l-0.3,2.5l2.5-0.7l0.2,1.2l-2.4,0.2l1.6,2.1l-1.1,0.6l-1.1-2.3l-1,2.3l-1.1-0.6l1.5-2.1
							l-2.4-0.2l0.2-1.2l2.5,0.7l-0.3-2.5H418.8z"/>
						<path class="st17" d="M426.1,222.1l-0.3,2.5l2.5-0.7l0.2,1.2l-2.4,0.2l1.6,2.1l-1.1,0.6l-1.1-2.3l-1,2.3l-1.1-0.6l1.5-2.1
							l-2.4-0.2l0.2-1.2l2.5,0.7l-0.3-2.5H426.1z"/>
						<path class="st17" d="M433.5,222.1l-0.3,2.5l2.5-0.7l0.2,1.2l-2.4,0.2l1.6,2.1l-1.1,0.6l-1.1-2.3l-1,2.3l-1.1-0.6l1.5-2.1
							l-2.4-0.2l0.2-1.2l2.5,0.7l-0.3-2.5H433.5z"/>
						<path class="st17" d="M440.9,222.1l-0.3,2.5l2.5-0.7l0.2,1.2l-2.4,0.2l1.6,2.1l-1.1,0.6l-1.1-2.3l-1,2.3l-1.1-0.6l1.5-2.1
							l-2.4-0.2l0.2-1.2l2.5,0.7l-0.3-2.5H440.9z"/>
						<path class="st17" d="M448.2,222.1l-0.3,2.5l2.5-0.7l0.2,1.2l-2.4,0.2l1.6,2.1l-1.1,0.6l-1.1-2.3l-1,2.3l-1.1-0.6l1.5-2.1
							l-2.4-0.2l0.2-1.2l2.5,0.7l-0.3-2.5H448.2z"/>
					</g>
				</g>
				<rect id="XMLID_325_" x="363" y="238.4" class="st18" width="265.4" height="0.8"/>
				<g id="XMLID_323_" class="st16">
					<g id="XMLID_296_">
						<path d="M368.3,212.1l-0.9-2.2h-2.8l-0.9,2.2H363l2.7-7h0.7l2.7,7H368.3z M367.2,209.2l-0.8-2.1c-0.1-0.3-0.2-0.6-0.3-1
							c-0.1,0.3-0.2,0.6-0.3,1l-0.8,2.1H367.2z"/>
						<path d="M372.2,212.2c-0.8,0-1.3-0.2-1.7-0.7c-0.4-0.5-0.6-1.1-0.6-2c0-0.9,0.2-1.5,0.6-2c0.4-0.5,1-0.7,1.8-0.7
							c0.3,0,0.5,0,0.7,0.1s0.4,0.1,0.6,0.2l-0.2,0.7c-0.2-0.1-0.4-0.1-0.6-0.2c-0.2,0-0.4-0.1-0.5-0.1c-1.1,0-1.6,0.7-1.6,2
							c0,0.6,0.1,1.1,0.4,1.5c0.3,0.3,0.6,0.5,1.1,0.5c0.4,0,0.9-0.1,1.3-0.3v0.7C373.1,212.1,372.7,212.2,372.2,212.2z"/>
						<path d="M376.8,212.2c-0.8,0-1.3-0.2-1.7-0.7c-0.4-0.5-0.6-1.1-0.6-2c0-0.9,0.2-1.5,0.6-2c0.4-0.5,1-0.7,1.8-0.7
							c0.3,0,0.5,0,0.7,0.1s0.4,0.1,0.6,0.2l-0.2,0.7c-0.2-0.1-0.4-0.1-0.6-0.2c-0.2,0-0.4-0.1-0.5-0.1c-1.1,0-1.6,0.7-1.6,2
							c0,0.6,0.1,1.1,0.4,1.5c0.3,0.3,0.6,0.5,1.1,0.5c0.4,0,0.9-0.1,1.3-0.3v0.7C377.8,212.1,377.3,212.2,376.8,212.2z"/>
						<path d="M383.8,209.5c0,0.8-0.2,1.5-0.6,2c-0.4,0.5-1,0.7-1.8,0.7c-0.5,0-0.9-0.1-1.2-0.3s-0.6-0.5-0.8-0.9
							c-0.2-0.4-0.3-0.9-0.3-1.4c0-0.8,0.2-1.5,0.6-2c0.4-0.5,1-0.7,1.8-0.7c0.7,0,1.3,0.2,1.7,0.7
							C383.6,208.1,383.8,208.7,383.8,209.5z M379.9,209.5c0,0.7,0.1,1.2,0.4,1.5s0.7,0.5,1.2,0.5c0.5,0,0.9-0.2,1.2-0.5
							c0.3-0.3,0.4-0.9,0.4-1.5c0-0.7-0.1-1.2-0.4-1.5c-0.3-0.3-0.7-0.5-1.2-0.5c-0.5,0-0.9,0.2-1.2,0.5
							C380,208.4,379.9,208.9,379.9,209.5z"/>
						<path d="M386,206.9v3.4c0,0.4,0.1,0.7,0.3,0.9c0.2,0.2,0.5,0.3,0.9,0.3c0.5,0,0.9-0.1,1.2-0.4s0.4-0.8,0.4-1.5v-2.7h0.8v5.2
							h-0.6l-0.1-0.7h0c-0.2,0.3-0.4,0.5-0.7,0.6c-0.3,0.1-0.6,0.2-1,0.2c-0.6,0-1.1-0.2-1.4-0.5s-0.5-0.8-0.5-1.4v-3.4H386z"/>
						<path d="M394.8,212.1v-3.4c0-0.4-0.1-0.7-0.3-0.9c-0.2-0.2-0.5-0.3-0.9-0.3c-0.5,0-0.9,0.1-1.2,0.4c-0.3,0.3-0.4,0.8-0.4,1.5
							v2.7h-0.8v-5.2h0.6l0.1,0.7h0c0.2-0.3,0.4-0.5,0.7-0.6c0.3-0.1,0.6-0.2,1-0.2c0.6,0,1.1,0.2,1.4,0.5c0.3,0.3,0.5,0.8,0.5,1.4
							v3.4H394.8z"/>
						<path d="M399,211.6c0.1,0,0.3,0,0.4,0c0.1,0,0.2,0,0.3-0.1v0.6c-0.1,0-0.2,0.1-0.4,0.1c-0.2,0-0.3,0-0.4,0
							c-1,0-1.5-0.5-1.5-1.6v-3.1h-0.7v-0.4l0.7-0.3l0.3-1.1h0.5v1.2h1.5v0.6h-1.5v3.1c0,0.3,0.1,0.6,0.2,0.7
							C398.5,211.5,398.7,211.6,399,211.6z"/>
						<path d="M407.3,210.3c0,0.6-0.2,1.1-0.7,1.4c-0.4,0.3-1,0.5-1.8,0.5c-0.8,0-1.5-0.1-1.9-0.3v-0.8c0.3,0.1,0.6,0.2,0.9,0.3
							s0.7,0.1,1,0.1c0.5,0,0.9-0.1,1.2-0.3c0.3-0.2,0.4-0.5,0.4-0.9c0-0.2,0-0.4-0.1-0.6c-0.1-0.2-0.3-0.3-0.5-0.4
							c-0.2-0.1-0.6-0.3-1-0.4c-0.6-0.2-1.1-0.5-1.4-0.8c-0.3-0.3-0.4-0.7-0.4-1.2c0-0.5,0.2-1,0.6-1.3c0.4-0.3,0.9-0.5,1.6-0.5
							c0.7,0,1.3,0.1,1.9,0.4l-0.3,0.7c-0.6-0.2-1.1-0.4-1.7-0.4c-0.4,0-0.8,0.1-1,0.3c-0.2,0.2-0.4,0.4-0.4,0.8
							c0,0.2,0,0.4,0.1,0.6c0.1,0.2,0.2,0.3,0.4,0.4c0.2,0.1,0.5,0.3,1,0.4c0.7,0.3,1.2,0.5,1.5,0.8S407.3,209.8,407.3,210.3z"/>
						<path d="M410.9,212.2c-0.8,0-1.4-0.2-1.8-0.7c-0.4-0.5-0.7-1.1-0.7-1.9c0-0.8,0.2-1.5,0.6-2c0.4-0.5,1-0.7,1.7-0.7
							c0.7,0,1.2,0.2,1.5,0.6c0.4,0.4,0.6,1,0.6,1.7v0.5h-3.6c0,0.6,0.2,1.1,0.5,1.4c0.3,0.3,0.7,0.5,1.2,0.5c0.6,0,1.1-0.1,1.7-0.4
							v0.7c-0.3,0.1-0.5,0.2-0.8,0.3S411.3,212.2,410.9,212.2z M410.7,207.5c-0.4,0-0.7,0.1-1,0.4c-0.2,0.3-0.4,0.6-0.4,1.1h2.7
							c0-0.5-0.1-0.9-0.3-1.1C411.5,207.6,411.1,207.5,410.7,207.5z"/>
						<path d="M416.4,212.2c-0.8,0-1.3-0.2-1.7-0.7c-0.4-0.5-0.6-1.1-0.6-2c0-0.9,0.2-1.5,0.6-2c0.4-0.5,1-0.7,1.8-0.7
							c0.3,0,0.5,0,0.7,0.1s0.4,0.1,0.6,0.2l-0.2,0.7c-0.2-0.1-0.4-0.1-0.6-0.2c-0.2,0-0.4-0.1-0.5-0.1c-1.1,0-1.6,0.7-1.6,2
							c0,0.6,0.1,1.1,0.4,1.5c0.3,0.3,0.6,0.5,1.1,0.5c0.4,0,0.9-0.1,1.3-0.3v0.7C417.4,212.1,416.9,212.2,416.4,212.2z"/>
						<path d="M421.4,206.9c0.2,0,0.4,0,0.6,0.1l-0.1,0.7c-0.2,0-0.4-0.1-0.6-0.1c-0.4,0-0.8,0.2-1.1,0.5c-0.3,0.3-0.4,0.8-0.4,1.3
							v2.8H419v-5.2h0.6l0.1,1h0c0.2-0.3,0.4-0.6,0.7-0.8S421.1,206.9,421.4,206.9z"/>
						<path d="M425.2,212.2c-0.8,0-1.4-0.2-1.8-0.7c-0.4-0.5-0.7-1.1-0.7-1.9c0-0.8,0.2-1.5,0.6-2c0.4-0.5,1-0.7,1.7-0.7
							c0.7,0,1.2,0.2,1.5,0.6c0.4,0.4,0.6,1,0.6,1.7v0.5h-3.6c0,0.6,0.2,1.1,0.5,1.4c0.3,0.3,0.7,0.5,1.2,0.5c0.6,0,1.1-0.1,1.7-0.4
							v0.7c-0.3,0.1-0.5,0.2-0.8,0.3S425.6,212.2,425.2,212.2z M425,207.5c-0.4,0-0.7,0.1-1,0.4c-0.2,0.3-0.4,0.6-0.4,1.1h2.7
							c0-0.5-0.1-0.9-0.3-1.1C425.7,207.6,425.4,207.5,425,207.5z"/>
						<path d="M430.2,211.6c0.1,0,0.3,0,0.4,0c0.1,0,0.2,0,0.3-0.1v0.6c-0.1,0-0.2,0.1-0.4,0.1c-0.2,0-0.3,0-0.4,0
							c-1,0-1.5-0.5-1.5-1.6v-3.1h-0.7v-0.4l0.7-0.3l0.3-1.1h0.5v1.2h1.5v0.6h-1.5v3.1c0,0.3,0.1,0.6,0.2,0.7
							C429.8,211.5,430,211.6,430.2,211.6z"/>
					</g>
				</g>
				<rect id="XMLID_3743_" x="363" y="238" class="st1" width="265.4" height="1.6"/>
				<g id="XMLID_3712_">
					<path id="XMLID_3715_" class="st18" d="M615.4,220c-4,0-7.5,2.5-8.9,6.1c1.4,3.6,4.9,6.1,8.9,6.1c4,0,7.5-2.5,8.9-6.1
						C622.9,222.5,619.5,220,615.4,220z M615.4,230.1c-2.2,0-4-1.8-4-4c0-2.2,1.8-4,4-4c2.2,0,4,1.8,4,4
						C619.5,228.3,617.7,230.1,615.4,230.1z M615.4,223.6c-1.3,0-2.4,1.1-2.4,2.4c0,1.3,1.1,2.4,2.4,2.4c1.3,0,2.4-1.1,2.4-2.4
						C617.9,224.7,616.8,223.6,615.4,223.6z"/>
				</g>
				<g id="XMLID_308_">
					<rect id="XMLID_314_" x="608.2" y="244.2" class="st3" width="14.6" height="14.6"/>
				</g>
			</g>
			<g id="XMLID_3704_">
				<rect id="XMLID_3707_" x="461.2" y="341.6" class="st1" width="67.6" height="25.9"/>
				<g id="iCloud_61_">
					<g id="XMLID_246_" class="st14">
						<path class="st2" d="M475.4,359.4v-9.2h1.5v7.9h3.9v1.3H475.4z"/>
						<path class="st2" d="M490.8,354.7c0,1.5-0.4,2.7-1.1,3.5s-1.8,1.3-3.2,1.3c-1.4,0-2.5-0.4-3.2-1.2s-1.1-2-1.1-3.5
							s0.4-2.7,1.1-3.5c0.8-0.8,1.8-1.2,3.2-1.2c1.4,0,2.4,0.4,3.2,1.2C490.5,352.1,490.8,353.2,490.8,354.7z M483.8,354.7
							c0,1.1,0.2,2,0.7,2.6c0.5,0.6,1.1,0.9,2,0.9c0.9,0,1.6-0.3,2-0.9c0.5-0.6,0.7-1.4,0.7-2.6c0-1.1-0.2-2-0.7-2.6
							c-0.5-0.6-1.1-0.9-2-0.9c-0.9,0-1.6,0.3-2.1,0.9C484,352.8,483.8,353.6,483.8,354.7z"/>
						<path class="st2" d="M496.8,354.4h3.4v4.6c-0.6,0.2-1.1,0.3-1.6,0.4s-1.1,0.1-1.7,0.1c-1.4,0-2.5-0.4-3.2-1.2
							c-0.8-0.8-1.1-2-1.1-3.5c0-1.5,0.4-2.7,1.3-3.5c0.9-0.8,2-1.3,3.5-1.3c1,0,1.9,0.2,2.7,0.6l-0.5,1.3c-0.8-0.3-1.5-0.5-2.3-0.5
							c-1,0-1.8,0.3-2.3,0.9c-0.6,0.6-0.9,1.5-0.9,2.5c0,1.1,0.3,2,0.8,2.6c0.5,0.6,1.3,0.9,2.2,0.9c0.5,0,1-0.1,1.6-0.2v-2.4h-1.9
							V354.4z"/>
						<path class="st2" d="M502.6,359.4v-9.2h1.5v9.2H502.6z"/>
						<path class="st2" d="M514.4,359.4h-1.9L508,352H508l0,0.4c0.1,0.8,0.1,1.5,0.1,2.1v4.8h-1.4v-9.2h1.8l4.5,7.3h0
							c0-0.1,0-0.5-0.1-1.1c0-0.6,0-1.1,0-1.4v-4.8h1.4V359.4z"/>
					</g>
				</g>
			</g>
		</g>
		<line class="st19" x1="454.4" y1="217" x2="454.4" y2="234.8"/>
		<g id="XMLID_180_" class="st16">
			<g id="XMLID_871_">
				<rect id="XMLID_1_" x="364.4" y="281" class="st3" width="265.4" height="19.4"/>
				<path d="M371.5,294l-1.2-2.9h-3.7l-1.1,2.9h-1.1l3.7-9.3h0.9l3.6,9.3H371.5z M370,290.1l-1.1-2.9c-0.1-0.4-0.3-0.8-0.4-1.3
					c-0.1,0.4-0.2,0.8-0.4,1.3l-1.1,2.9H370z"/>
				<path d="M376.4,294.1c-1,0-1.8-0.3-2.3-0.9s-0.8-1.5-0.8-2.6c0-1.2,0.3-2.1,0.8-2.7c0.6-0.6,1.4-0.9,2.4-0.9c0.3,0,0.7,0,1,0.1
					c0.3,0.1,0.6,0.2,0.8,0.3l-0.3,0.9c-0.2-0.1-0.5-0.2-0.8-0.2c-0.3-0.1-0.5-0.1-0.7-0.1c-1.4,0-2.1,0.9-2.1,2.7
					c0,0.9,0.2,1.5,0.5,2s0.9,0.7,1.5,0.7c0.6,0,1.2-0.1,1.8-0.4v0.9C377.7,294,377.1,294.1,376.4,294.1z"/>
				<path d="M382.5,294.1c-1,0-1.8-0.3-2.3-0.9s-0.8-1.5-0.8-2.6c0-1.2,0.3-2.1,0.8-2.7c0.6-0.6,1.4-0.9,2.4-0.9c0.3,0,0.7,0,1,0.1
					c0.3,0.1,0.6,0.2,0.8,0.3l-0.3,0.9c-0.2-0.1-0.5-0.2-0.8-0.2c-0.3-0.1-0.5-0.1-0.7-0.1c-1.4,0-2.1,0.9-2.1,2.7
					c0,0.9,0.2,1.5,0.5,2s0.9,0.7,1.5,0.7c0.6,0,1.2-0.1,1.8-0.4v0.9C383.7,294,383.2,294.1,382.5,294.1z"/>
				<path d="M391.7,290.5c0,1.1-0.3,2-0.9,2.6c-0.6,0.6-1.4,1-2.4,1c-0.6,0-1.2-0.1-1.6-0.4s-0.9-0.7-1.1-1.3
					c-0.3-0.5-0.4-1.2-0.4-1.9c0-1.1,0.3-2,0.8-2.6c0.6-0.6,1.3-0.9,2.4-0.9c1,0,1.7,0.3,2.3,1S391.7,289.4,391.7,290.5z
					 M386.4,290.5c0,0.9,0.2,1.6,0.5,2c0.4,0.5,0.9,0.7,1.6,0.7s1.2-0.2,1.6-0.7c0.4-0.5,0.5-1.1,0.5-2c0-0.9-0.2-1.5-0.5-2
					c-0.4-0.5-0.9-0.7-1.6-0.7c-0.7,0-1.2,0.2-1.6,0.7S386.4,289.6,386.4,290.5z"/>
				<path d="M394.4,287.1v4.5c0,0.6,0.1,1,0.4,1.3c0.3,0.3,0.7,0.4,1.2,0.4c0.7,0,1.3-0.2,1.6-0.6c0.3-0.4,0.5-1,0.5-1.9v-3.6h1v6.9
					h-0.9l-0.2-0.9h-0.1c-0.2,0.3-0.5,0.6-0.9,0.8c-0.4,0.2-0.8,0.3-1.3,0.3c-0.8,0-1.5-0.2-1.9-0.6c-0.4-0.4-0.6-1-0.6-1.9v-4.5
					H394.4z"/>
				<path d="M406,294v-4.5c0-0.6-0.1-1-0.4-1.3c-0.3-0.3-0.7-0.4-1.2-0.4c-0.7,0-1.3,0.2-1.6,0.6c-0.3,0.4-0.5,1-0.5,1.9v3.6h-1
					v-6.9h0.9l0.2,0.9h0c0.2-0.3,0.5-0.6,0.9-0.8s0.8-0.3,1.3-0.3c0.8,0,1.5,0.2,1.9,0.6c0.4,0.4,0.6,1,0.6,1.9v4.5H406z"/>
				<path d="M411.5,293.2c0.2,0,0.4,0,0.5,0c0.2,0,0.3-0.1,0.4-0.1v0.8c-0.1,0.1-0.3,0.1-0.5,0.1c-0.2,0-0.4,0.1-0.6,0.1
					c-1.3,0-2-0.7-2-2.1v-4.1h-1v-0.5l1-0.4l0.4-1.5h0.6v1.6h2v0.8h-2v4.1c0,0.4,0.1,0.7,0.3,1C410.8,293.1,411.1,293.2,411.5,293.2
					z"/>
				<path d="M423.2,287.4c0,0.9-0.3,1.7-1,2.2c-0.6,0.5-1.6,0.8-2.7,0.8h-1.1v3.6h-1.1v-9.2h2.4C422,284.7,423.2,285.6,423.2,287.4z
					 M418.4,289.4h1c1,0,1.6-0.2,2.1-0.5s0.6-0.8,0.6-1.5c0-0.6-0.2-1.1-0.6-1.4c-0.4-0.3-1-0.4-1.9-0.4h-1.2V289.4z"/>
				<path d="M429,294l-0.2-1h-0.1c-0.3,0.4-0.7,0.7-1,0.9c-0.3,0.2-0.8,0.2-1.3,0.2c-0.7,0-1.2-0.2-1.6-0.5
					c-0.4-0.4-0.6-0.9-0.6-1.5c0-1.4,1.1-2.1,3.4-2.2l1.2,0v-0.4c0-0.5-0.1-0.9-0.4-1.2c-0.2-0.3-0.6-0.4-1.1-0.4
					c-0.6,0-1.2,0.2-2,0.5l-0.3-0.8c0.3-0.2,0.7-0.3,1.1-0.4c0.4-0.1,0.8-0.2,1.2-0.2c0.8,0,1.4,0.2,1.8,0.5c0.4,0.4,0.6,1,0.6,1.8
					v4.7H429z M426.6,293.2c0.7,0,1.2-0.2,1.5-0.5c0.4-0.4,0.6-0.9,0.6-1.5v-0.6l-1,0c-0.8,0-1.4,0.2-1.8,0.4
					c-0.4,0.2-0.6,0.6-0.6,1.1c0,0.4,0.1,0.7,0.3,0.9C425.8,293.1,426.2,293.2,426.6,293.2z"/>
				<path d="M436.3,292.1c0,0.6-0.2,1.1-0.7,1.5s-1.2,0.5-2,0.5c-0.9,0-1.6-0.1-2.1-0.4v-1c0.3,0.2,0.7,0.3,1.1,0.4
					c0.4,0.1,0.7,0.1,1.1,0.1c0.5,0,1-0.1,1.3-0.3c0.3-0.2,0.4-0.4,0.4-0.8c0-0.3-0.1-0.5-0.4-0.7c-0.2-0.2-0.7-0.4-1.4-0.7
					c-0.6-0.2-1.1-0.5-1.4-0.6c-0.3-0.2-0.5-0.4-0.6-0.6s-0.2-0.5-0.2-0.8c0-0.6,0.2-1,0.7-1.3c0.5-0.3,1.1-0.5,1.9-0.5
					c0.7,0,1.5,0.2,2.2,0.5l-0.4,0.9c-0.7-0.3-1.3-0.4-1.9-0.4c-0.5,0-0.9,0.1-1.1,0.2s-0.4,0.4-0.4,0.6c0,0.2,0,0.3,0.1,0.5
					c0.1,0.1,0.2,0.3,0.5,0.4c0.2,0.1,0.6,0.3,1.2,0.5c0.8,0.3,1.4,0.6,1.7,0.9C436.1,291.3,436.3,291.6,436.3,292.1z"/>
				<path d="M442.5,292.1c0,0.6-0.2,1.1-0.7,1.5s-1.2,0.5-2,0.5c-0.9,0-1.6-0.1-2.1-0.4v-1c0.3,0.2,0.7,0.3,1.1,0.4
					c0.4,0.1,0.7,0.1,1.1,0.1c0.5,0,1-0.1,1.3-0.3c0.3-0.2,0.4-0.4,0.4-0.8c0-0.3-0.1-0.5-0.4-0.7c-0.2-0.2-0.7-0.4-1.4-0.7
					c-0.6-0.2-1.1-0.5-1.4-0.6c-0.3-0.2-0.5-0.4-0.6-0.6s-0.2-0.5-0.2-0.8c0-0.6,0.2-1,0.7-1.3c0.5-0.3,1.1-0.5,1.9-0.5
					c0.7,0,1.5,0.2,2.2,0.5l-0.4,0.9c-0.7-0.3-1.3-0.4-1.9-0.4c-0.5,0-0.9,0.1-1.1,0.2s-0.4,0.4-0.4,0.6c0,0.2,0,0.3,0.1,0.5
					c0.1,0.1,0.2,0.3,0.5,0.4c0.2,0.1,0.6,0.3,1.2,0.5c0.8,0.3,1.4,0.6,1.7,0.9C442.4,291.3,442.5,291.6,442.5,292.1z"/>
				<path d="M450.2,294l-1.3-4.1c-0.1-0.2-0.2-0.8-0.4-1.7h-0.1c-0.2,0.7-0.3,1.3-0.4,1.7l-1.3,4.1h-1.2l-1.9-6.9h1.1
					c0.4,1.7,0.8,3.1,1,4c0.2,0.9,0.4,1.5,0.4,1.8h0.1c0-0.2,0.1-0.6,0.2-0.9c0.1-0.4,0.2-0.7,0.3-0.9l1.3-4h1.1l1.2,4
					c0.2,0.7,0.4,1.3,0.5,1.8h0c0-0.2,0.1-0.4,0.1-0.7c0.1-0.3,0.5-2,1.3-5.1h1.1l-1.9,6.9H450.2z"/>
				<path d="M460.5,290.5c0,1.1-0.3,2-0.9,2.6c-0.6,0.6-1.4,1-2.4,1c-0.6,0-1.2-0.1-1.6-0.4s-0.9-0.7-1.1-1.3
					c-0.3-0.5-0.4-1.2-0.4-1.9c0-1.1,0.3-2,0.8-2.6c0.6-0.6,1.3-0.9,2.4-0.9c1,0,1.7,0.3,2.3,1S460.5,289.4,460.5,290.5z
					 M455.2,290.5c0,0.9,0.2,1.6,0.5,2c0.4,0.5,0.9,0.7,1.6,0.7s1.2-0.2,1.6-0.7c0.4-0.5,0.5-1.1,0.5-2c0-0.9-0.2-1.5-0.5-2
					c-0.4-0.5-0.9-0.7-1.6-0.7c-0.7,0-1.2,0.2-1.6,0.7S455.2,289.6,455.2,290.5z"/>
				<path d="M465.4,286.9c0.3,0,0.6,0,0.8,0.1l-0.1,1c-0.3-0.1-0.5-0.1-0.8-0.1c-0.6,0-1,0.2-1.4,0.7s-0.6,1-0.6,1.7v3.7h-1v-6.9
					h0.9l0.1,1.3h0.1c0.3-0.5,0.6-0.8,0.9-1S465,286.9,465.4,286.9z"/>
				<path d="M472.2,293.1L472.2,293.1c-0.5,0.7-1.3,1.1-2.2,1.1c-0.9,0-1.6-0.3-2.1-0.9c-0.5-0.6-0.8-1.5-0.8-2.6
					c0-1.1,0.3-2,0.8-2.7c0.5-0.6,1.2-0.9,2.1-0.9c0.9,0,1.7,0.3,2.2,1h0.1l0-0.5l0-0.5v-2.8h1v9.8h-0.9L472.2,293.1z M470.1,293.2
					c0.7,0,1.2-0.2,1.6-0.6s0.5-1,0.5-1.9v-0.2c0-1-0.2-1.7-0.5-2.1c-0.3-0.4-0.8-0.6-1.6-0.6c-0.6,0-1.1,0.2-1.4,0.7
					c-0.3,0.5-0.5,1.2-0.5,2c0,0.9,0.2,1.6,0.5,2C469,293,469.5,293.2,470.1,293.2z"/>
			</g>
		</g>
	</g>
</g>
<g>
</g>
<g>
</g>
<g>
</g>
<g>
</g>
<g>
</g>
<g>
</g>
</svg>
