<?xml version="1.0" encoding="utf-8"?>
<!-- Generator: Adobe Illustrator 19.1.0, SVG Export Plug-In . SVG Version: 6.00 Build 0)  -->
<svg version="1.1" id="Layer_1" xmlns="http://www.w3.org/2000/svg" xmlns:xlink="http://www.w3.org/1999/xlink" x="0px" y="0px"
	 viewBox="0 0 146 42" style="enable-background:new 0 0 146 42;" xml:space="preserve">
<style type="text/css">
	.st0{fill:#99BEE7;}
	.st1{fill:#5592D7;}
	.st2{fill:#29578A;}
</style>
<g>
	<g>
		<g>
			<path class="st0" d="M140.1947,8.87144v16.11168l-13.56706-7.83295l0.00008-0.00007
				c-4.02976-2.34162-3.73204-3.79017-3.75753-7.03579l13.95291,8.05572v-7.35199L140.1947,8.87144z"/>
			<path class="st1" d="M136.8231,18.17003l-13.95313-8.05584l13.56706-7.83295l0.00002,0.00011
				c4.04279-2.31907,5.14841-1.33696,7.97194,0.26378l-13.95291,8.05571l6.36702,3.67599V18.17003z"/>
			<path class="st2" d="M130.45609,10.60084L144.40921,2.545l0.00002,15.6659l-0.00011-0.00004
				c-0.01303,4.66069-1.41637,5.12713-4.21442,6.77201V8.87144l-6.367,3.67599L130.45609,10.60084z"/>
		</g>
		<g>
			<path class="st1" d="M21.66112,40.73855c-0.07075-0.92038-1.20347-14.01739-1.20347-14.01739
				c-0.14159-1.52207-0.10617-2.97338-0.10617-2.97338h-0.07084c0,0-0.28318,1.4159-0.74328,2.97338
				c0,0-3.68133,12.7785-4.10619,14.01739h-2.86713c-0.38935-1.02655-4.1061-14.01739-4.1061-14.01739
				c-0.46019-1.55749-0.74337-2.97338-0.74337-2.97338H7.64381c0,0,0.07075,1.4159-0.07084,2.97338
				c0,0-1.16814,12.9555-1.23889,14.01739h-4.7433l2.58403-24.35344h5.59275l3.78759,13.62803
				c0.42477,1.48665,0.63711,2.72554,0.63711,2.72554h0.07084c0,0,0.24776-1.23889,0.67253-2.72554l3.99993-13.62803h5.55733
				l2.61945,24.35344H21.66112z"/>
			<path class="st1" d="M36.27552,41.09257c-5.52192,0-8.35371-2.05309-8.35371-6.0176c0-4.92022,4.92022-6.37154,10.65456-6.90248
				v-0.88496c0-1.98226-1.34506-2.54861-3.36274-2.54861c-1.84066,0-3.71675,0.60178-4.95564,1.16814l-1.20347-3.15039
				c1.34506-0.56636,3.82284-1.45131,7.18566-1.45131c4.31844,0,7.50426,1.80525,7.50426,6.97332v11.39802
				C42.15154,40.52621,39.5675,41.09257,36.27552,41.09257z M38.57637,30.7211c-3.32732,0.31851-5.48658,1.0973-5.48658,4.14152
				c0,2.23001,1.27431,3.18573,3.46891,3.18573c0.81421,0,1.52215-0.14159,2.01767-0.38935V30.7211z"/>
			<path class="st1" d="M48.50052,18.75672c-1.62824,0-2.93797-1.13272-2.93797-2.58395c0-1.4159,1.30973-2.58403,2.93797-2.58403
				c1.62824,0,2.93797,1.16814,2.93797,2.58403C51.43848,17.624,50.12876,18.75672,48.50052,18.75672z M45.73956,40.73855v-19.0792
				h5.52192v19.0792H45.73956z"/>
			<path class="st1" d="M62.37523,41.09257c-5.76976,0-9.38034-3.39815-9.38034-9.76978c0-6.12369,3.46891-9.87586,8.38921-9.87586
				c1.13272,0,2.08843,0.14159,2.79638,0.3186v-8.81398h5.48666v26.72513C67.93265,40.59696,65.66721,41.09257,62.37523,41.09257z
				 M64.18048,24.73891c-0.46019-0.14159-0.95571-0.21243-1.52207-0.21243c-3.04422,0-4.21236,2.61945-4.21236,6.54855
				c0,4.14152,1.23897,6.51313,4.03535,6.51313c0.74337,0,1.30973-0.07076,1.69908-0.28318V24.73891z"/>
			<path class="st1" d="M78.45022,41.09257c-3.00889,0-4.99114-0.53102-6.37162-1.45131l1.30964-3.99993
				c0.77887,0.53094,2.23019,1.13272,3.92927,1.13272c2.01767,0,3.25648-1.16814,3.25648-2.90263
				c0-1.5574-0.92037-2.5132-3.39816-3.6105c-3.78759-1.69908-4.84947-4.35386-4.84947-6.72547
				c0-4.10619,2.97347-7.50434,7.71669-7.50434c2.61945,0,4.53087,0.6372,5.69901,1.4159L84.5385,20.9514
				c-0.84954-0.53094-2.15918-1.06196-3.64592-1.06196c-1.91142,0-2.93805,1.06196-2.93805,2.79646
				c0,1.76983,1.23898,2.65479,3.29207,3.57508c4.70779,2.12385,5.38041,4.70788,5.38041,7.18575
				C86.62701,37.83592,83.26427,41.09257,78.45022,41.09257z"/>
			<path class="st1" d="M95.96692,41.09257c-5.52192,0-8.35371-2.05309-8.35371-6.0176c0-4.92022,4.92014-6.37154,10.65457-6.90248
				v-0.88496c0-1.98226-1.34506-2.54861-3.36274-2.54861c-1.84058,0-3.71675,0.60178-4.95573,1.16814l-1.20338-3.15039
				c1.34506-0.56636,3.82284-1.45131,7.18558-1.45131c4.31853,0,7.50434,1.80525,7.50434,6.97332v11.39802
				C101.84285,40.52621,99.25899,41.09257,95.96692,41.09257z M98.26778,30.7211c-3.32732,0.31851-5.48667,1.0973-5.48667,4.14152
				c0,2.23001,1.27439,3.18573,3.46899,3.18573c0.81412,0,1.52216-0.14159,2.01768-0.38935V30.7211z"/>
			<path class="st1" d="M111.97466,25.23452v15.50404h-5.52191V25.23452h-2.08852v-3.57516h2.08852v-1.94692
				c0-4.77863,3.29189-7.29183,8.45996-6.72547v3.50432c-1.84074-0.07075-2.93805,0.56636-2.93805,2.76104v2.40703h2.93805v3.57516
				H111.97466z"/>
			<path class="st1" d="M120.23164,33.12812c0.38943,2.79638,1.80534,4.17686,4.60171,4.17686
				c2.23002,0,3.9291-0.49552,4.95573-1.02646l1.2388,3.43349c-1.48656,0.74337-3.61049,1.38056-6.83172,1.38056
				c-5.84052,0-9.20325-3.85834-9.20325-9.9467c0-5.98219,3.11497-9.84053,8.60165-9.84053
				c5.52192,0,8.31829,3.75217,8.07053,10.19446L120.23164,33.12812z M123.38204,24.5619
				c-2.26544,0-3.68134,1.94684-3.50424,5.87602l6.65463-0.99113C126.53243,26.04864,125.39971,24.5619,123.38204,24.5619z"/>
		</g>
	</g>
</g>
</svg>
