<?xml version="1.0" encoding="utf-8"?>
<!-- Generator: Adobe Illustrator 19.1.0, SVG Export Plug-In . SVG Version: 6.00 Build 0)  -->
<svg version="1.1" id="Layer_1" xmlns="http://www.w3.org/2000/svg" xmlns:xlink="http://www.w3.org/1999/xlink" x="0px" y="0px"
	 viewBox="0 0 210 120" style="enable-background:new 0 0 210 120;" xml:space="preserve">
<style type="text/css">
	.st0{fill:#FFFFFF;}
	.st1{opacity:0.6;fill:#FFFFFF;}
	.st2{opacity:0.2;fill:#FFFFFF;}
</style>
<g>
	<g>
		<path class="st0" d="M199.6,42.9v22.7l-19.1-11l0,0c-5.7-3.3-5.3-5.3-5.3-9.9L194.9,56V45.7L199.6,42.9z"/>
		<path class="st1" d="M194.9,56l-19.6-11.3l19.1-11l0,0c5.7-3.3,7.2-1.9,11.2,0.4l-19.6,11.3l9,5.2V56z"/>
		<path class="st2" d="M185.9,45.4L205.6,34l0,22.1l0,0c0,6.6-2,7.2-5.9,9.5V42.9l-9,5.2L185.9,45.4z"/>
	</g>
	<g>
		<path class="st0" d="M32.8,87.8c-0.1-1.3-1.7-19.7-1.7-19.7c-0.2-2.1-0.1-4.2-0.1-4.2h-0.1c0,0-0.4,2-1,4.2c0,0-5.2,18-5.8,19.7
			h-4c-0.5-1.4-5.8-19.7-5.8-19.7c-0.6-2.2-1-4.2-1-4.2H13c0,0,0.1,2-0.1,4.2c0,0-1.6,18.2-1.7,19.7H4.5l3.6-34.3H16l5.3,19.2
			c0.6,2.1,0.9,3.8,0.9,3.8h0.1c0,0,0.3-1.7,0.9-3.8l5.6-19.2h7.8l3.7,34.3H32.8z"/>
		<path class="st0" d="M53.3,88.3c-7.8,0-11.8-2.9-11.8-8.5c0-6.9,6.9-9,15-9.7v-1.2c0-2.8-1.9-3.6-4.7-3.6c-2.6,0-5.2,0.8-7,1.6
			l-1.7-4.4c1.9-0.8,5.4-2,10.1-2c6.1,0,10.6,2.5,10.6,9.8v16C61.6,87.5,58,88.3,53.3,88.3z M56.6,73.7c-4.7,0.4-7.7,1.5-7.7,5.8
			c0,3.1,1.8,4.5,4.9,4.5c1.1,0,2.1-0.2,2.8-0.5V73.7z"/>
		<path class="st0" d="M70.5,56.8c-2.3,0-4.1-1.6-4.1-3.6c0-2,1.8-3.6,4.1-3.6s4.1,1.6,4.1,3.6C74.7,55.2,72.8,56.8,70.5,56.8z
			 M66.7,87.8V60.9h7.8v26.9H66.7z"/>
		<path class="st0" d="M90.1,88.3c-8.1,0-13.2-4.8-13.2-13.8c0-8.6,4.9-13.9,11.8-13.9c1.6,0,2.9,0.2,3.9,0.4V48.7h7.7v37.6
			C97.9,87.6,94.7,88.3,90.1,88.3z M92.6,65.3C92,65.1,91.3,65,90.5,65c-4.3,0-5.9,3.7-5.9,9.2c0,5.8,1.7,9.2,5.7,9.2
			c1,0,1.8-0.1,2.4-0.4V65.3z"/>
		<path class="st0" d="M112.7,88.3c-4.2,0-7-0.7-9-2l1.8-5.6c1.1,0.7,3.1,1.6,5.5,1.6c2.8,0,4.6-1.6,4.6-4.1c0-2.2-1.3-3.5-4.8-5.1
			c-5.3-2.4-6.8-6.1-6.8-9.5c0-5.8,4.2-10.6,10.9-10.6c3.7,0,6.4,0.9,8,2l-1.7,4.9c-1.2-0.7-3-1.5-5.1-1.5c-2.7,0-4.1,1.5-4.1,3.9
			c0,2.5,1.7,3.7,4.6,5c6.6,3,7.6,6.6,7.6,10.1C124.2,83.7,119.5,88.3,112.7,88.3z"/>
		<path class="st0" d="M137.4,88.3c-7.8,0-11.8-2.9-11.8-8.5c0-6.9,6.9-9,15-9.7v-1.2c0-2.8-1.9-3.6-4.7-3.6c-2.6,0-5.2,0.8-7,1.6
			l-1.7-4.4c1.9-0.8,5.4-2,10.1-2c6.1,0,10.6,2.5,10.6,9.8v16C145.6,87.5,142,88.3,137.4,88.3z M140.6,73.7
			c-4.7,0.4-7.7,1.5-7.7,5.8c0,3.1,1.8,4.5,4.9,4.5c1.1,0,2.1-0.2,2.8-0.5V73.7z"/>
		<path class="st0" d="M159.9,66v21.8h-7.8V66h-2.9v-5h2.9v-2.7c0-6.7,4.6-10.3,11.9-9.5v4.9c-2.6-0.1-4.1,0.8-4.1,3.9v3.4h4.1v5
			H159.9z"/>
		<path class="st0" d="M171.5,77.1c0.5,3.9,2.5,5.9,6.5,5.9c3.1,0,5.5-0.7,7-1.4l1.7,4.8c-2.1,1-5.1,1.9-9.6,1.9
			c-8.2,0-13-5.4-13-14c0-8.4,4.4-13.9,12.1-13.9c7.8,0,11.7,5.3,11.4,14.4L171.5,77.1z M176,65c-3.2,0-5.2,2.7-4.9,8.3l9.4-1.4
			C180.4,67.1,178.8,65,176,65z"/>
	</g>
</g>
</svg>
