<?xml version="1.0" encoding="utf-8"?>
<!-- Generator: Adobe Illustrator 19.1.0, SVG Export Plug-In . SVG Version: 6.00 Build 0)  -->
<svg version="1.1" id="Layer_1" xmlns="http://www.w3.org/2000/svg" xmlns:xlink="http://www.w3.org/1999/xlink" x="0px" y="0px"
	 viewBox="0 0 210 120" style="enable-background:new 0 0 210 120;" xml:space="preserve">
<style type="text/css">
	.st0{fill:#99BEE7;}
	.st1{fill:#5593D7;}
	.st2{fill:#29578A;}
</style>
<g>
	<g>
		<g>
			<path class="st0" d="M134,42v71.1L74.1,78.6l0,0c-17.8-10.3-16.5-16.7-16.6-31l61.6,35.6V50.6L134,42z"/>
			<path class="st1" d="M119.1,83.1L57.5,47.5l59.9-34.6l0,0c17.8-10.2,22.7-5.9,35.2,1.2L91,49.7l28.1,16.2L119.1,83.1z"/>
			<path class="st2" d="M91,49.7l61.6-35.6l0,69.1l0,0c-0.1,20.6-6.3,22.6-18.6,29.9l0-71.1l-28.1,16.2L91,49.7z"/>
		</g>
	</g>
</g>
</svg>
