<svg xmlns="http://www.w3.org/2000/svg" height="120" width="200" viewBox="0 0 200 120" enable-background="new 0 0 200 120">
<title>maidsafe_RGB</title>
<g transform="translate(-5 0)">
<g transform="translate(192.960635 48.16486) scale(0.3178622)" >
                                 <path fill="#99BEE7" d="M19.31455,-16.24874 19.31455,54.85126 -40.55986,20.30126 C -58.35986,10.00126 -57.05986,3.60126 -57.15986,-10.69874  L 4.41455,24.85126 4.41455,-7.64622 z" />
	<g transform="rotate(120)" > <path fill="#5593D7" d="M19.31455,-16.24874 19.31455,54.85126 -40.55986,20.30126 C -58.35986,10.00126 -57.05986,3.60126 -57.15986,-10.69874  L 4.41455,24.85126 4.41455,-7.64622 z" /></g>
	<g transform="rotate(-120)" ><path fill="#29578A" d="M19.31455,-16.24874 19.31455,54.85126 -40.55986,20.30126 C -58.35986,10.00126 -57.05986,3.60126 -57.15986,-10.69874  L 4.41455,24.85126 4.41455,-7.64622 z" /></g>
</g>
<path fill="#5593D7" d="M33.1 87.6C33 86.4 31.5 68 31.5 68c-.2-2.1-.1-4.2-.1-4.2h-.1s-.4 2-1 4.2c0 0-5.2 17.9-5.8 19.6h-4c-.6-1.4-5.8-19.6-5.8-19.6-.6-2.2-1-4.2-1-4.2h-.1s.1 2-.1 4.2c0 0-1.6 18.1-1.7 19.6H5l3.6-34.1h7.8l5.3 19.1c.6 2.1.9 3.8.9 3.8h.1s.3-1.7.9-3.8l5.6-19.1H37l3.7 34.1h-7.6zM53.6 88.1c-7.7 0-11.7-2.9-11.7-8.4 0-6.9 6.9-8.9 14.9-9.7v-1.2c0-2.8-1.9-3.6-4.7-3.6-2.6 0-5.2.8-6.9 1.6l-1.7-4.4c1.9-.8 5.4-2 10.1-2 6 0 10.5 2.5 10.5 9.8v16c-2.3 1.1-5.9 1.9-10.5 1.9zm3.2-14.5c-4.7.4-7.7 1.5-7.7 5.8 0 3.1 1.8 4.5 4.9 4.5 1.1 0 2.1-.2 2.8-.5v-9.8zM70.7 56.9c-2.3 0-4.1-1.6-4.1-3.6s1.8-3.6 4.1-3.6 4.1 1.6 4.1 3.6-1.8 3.6-4.1 3.6zm-3.8 30.7V60.9h7.7v26.7h-7.7zM90.2 88.1c-8.1 0-13.1-4.8-13.1-13.7 0-8.6 4.9-13.8 11.7-13.8 1.6 0 2.9.2 3.9.4V48.7h7.7v37.4c-2.5 1.3-5.6 2-10.2 2zm2.5-22.9c-.6-.2-1.3-.3-2.1-.3-4.3 0-5.9 3.7-5.9 9.2 0 5.8 1.7 9.1 5.7 9.1 1 0 1.8-.1 2.4-.4V65.2zM112.7 88.1c-4.2 0-7-.7-8.9-2l1.8-5.6c1.1.7 3.1 1.6 5.5 1.6 2.8 0 4.6-1.6 4.6-4.1 0-2.2-1.3-3.5-4.8-5.1-5.3-2.4-6.8-6.1-6.8-9.4 0-5.8 4.2-10.5 10.8-10.5 3.7 0 6.3.9 8 2l-1.7 4.9c-1.2-.7-3-1.5-5.1-1.5-2.7 0-4.1 1.5-4.1 3.9 0 2.5 1.7 3.7 4.6 5 6.6 3 7.5 6.6 7.5 10.1 0 6.2-4.7 10.7-11.4 10.7zM137.2 88.1c-7.7 0-11.7-2.9-11.7-8.4 0-6.9 6.9-8.9 14.9-9.7v-1.2c0-2.8-1.9-3.6-4.7-3.6-2.6 0-5.2.8-6.9 1.6l-1.7-4.4c1.9-.8 5.4-2 10.1-2 6 0 10.5 2.5 10.5 9.8v16c-2.3 1.1-5.9 1.9-10.5 1.9zm3.2-14.5c-4.7.4-7.7 1.5-7.7 5.8 0 3.1 1.8 4.5 4.9 4.5 1.1 0 2.1-.2 2.8-.5v-9.8zM159.6 65.9v21.7h-7.7V65.9H149v-5h2.9v-2.7c0-6.7 4.6-10.2 11.8-9.4v4.9c-2.6-.1-4.1.8-4.1 3.9V61h4.1v5h-4.1zM171.2 77c.5 3.9 2.5 5.8 6.4 5.8 3.1 0 5.5-.7 6.9-1.4l1.7 4.8c-2.1 1-5.1 1.9-9.6 1.9-8.2 0-12.9-5.4-12.9-13.9 0-8.4 4.4-13.8 12-13.8 7.7 0 11.6 5.3 11.3 14.3L171.2 77zm4.4-12c-3.2 0-5.2 2.7-4.9 8.2l9.3-1.4c0-4.7-1.6-6.8-4.4-6.8z"/>
</g>
</svg>