<?xml version="1.0" encoding="utf-8"?>
<!-- Generator: Adobe Illustrator 19.1.0, SVG Export Plug-In . SVG Version: 6.00 Build 0)  -->
<svg version="1.1" id="Layer_1" xmlns="http://www.w3.org/2000/svg" xmlns:xlink="http://www.w3.org/1999/xlink" x="0px" y="0px"
	 viewBox="0 0 24 24" style="enable-background:new 0 0 24 24;" xml:space="preserve">
<style type="text/css">
	.st0{fill:#5992CD;}
</style>
<path class="st0" d="M21.7,18.7c-0.4,0.8-0.8,1.6-1.3,2.3c-0.7,1-1.2,1.6-1.7,2c-0.7,0.6-1.4,0.9-2.1,0.9c-0.5,0-1.2-0.2-2-0.5
	c-0.8-0.3-1.5-0.5-2.1-0.5c-0.7,0-1.4,0.2-2.2,0.5C9.5,23.8,8.9,24,8.4,24c-0.7,0-1.5-0.3-2.2-1c-0.5-0.4-1-1.1-1.7-2.1
	c-0.7-1-1.4-2.3-1.8-3.7c-0.5-1.5-0.8-2.9-0.8-4.4c0-1.6,0.3-3,1-4.2c0.5-0.9,1.3-1.7,2.2-2.2s1.9-0.8,3-0.8c0.6,0,1.3,0.2,2.3,0.5
	c0.9,0.4,1.5,0.5,1.8,0.5c0.2,0,0.9-0.2,2-0.6c1.1-0.4,2-0.5,2.7-0.5c2,0.2,3.5,1,4.5,2.4c-1.8,1.1-2.7,2.6-2.7,4.6
	c0,1.5,0.6,2.8,1.7,3.8c0.5,0.5,1,0.8,1.7,1.1C22,18,21.8,18.3,21.7,18.7L21.7,18.7z M17.1,0.5c0,1.2-0.4,2.3-1.3,3.4
	c-1.1,1.2-2.3,1.9-3.7,1.8c0-0.1,0-0.3,0-0.5c0-1.2,0.5-2.4,1.4-3.4c0.4-0.5,1-0.9,1.7-1.3C15.8,0.2,16.4,0,17,0
	C17,0.2,17.1,0.3,17.1,0.5L17.1,0.5z"/>
</svg>
