<?xml version="1.0" encoding="utf-8"?>
<!-- Generator: Adobe Illustrator 19.1.0, SVG Export Plug-In . SVG Version: 6.00 Build 0)  -->
<svg version="1.1" id="Layer_1" xmlns="http://www.w3.org/2000/svg" xmlns:xlink="http://www.w3.org/1999/xlink" x="0px" y="0px"
	 viewBox="0 0 70 100" style="enable-background:new 0 0 70 100;" xml:space="preserve">
<style type="text/css">
	.st0{fill:#5592D7;}
	.st1{fill:#FFFFFF;}
	.st2{opacity:0.6;fill:#FFFFFF;}
	.st3{opacity:0.2;fill:#FFFFFF;}
</style>
<g>
	<path class="st0" d="M35,2.8c-17.3,0-31.2,14-31.2,31.2S35,97.2,35,97.2s31.2-45.8,31.2-63.1S52.3,2.8,35,2.8z"/>
	<g>
		<path class="st1" d="M40.9,31V52L23.2,41.8l0,0c-5.2-3-4.9-4.9-4.9-9.1l18.1,10.5v-9.6L40.9,31z"/>
		<path class="st2" d="M36.5,43.1L18.3,32.6L36,22.5l0,0c5.3-3,6.7-1.7,10.4,0.3L28.2,33.3l8.3,4.8L36.5,43.1z"/>
		<path class="st3" d="M28.2,33.3l18.1-10.5l0,20.4l0,0c0,6.1-1.8,6.7-5.5,8.8l0-20.9l-8.3,4.8L28.2,33.3z"/>
	</g>
</g>
</svg>
