<?xml version="1.0" encoding="utf-8"?>
<!-- Generator: Adobe Illustrator 19.1.0, SVG Export Plug-In . SVG Version: 6.00 Build 0)  -->
<svg version="1.1" id="Layer_1" xmlns="http://www.w3.org/2000/svg" xmlns:xlink="http://www.w3.org/1999/xlink" x="0px" y="0px"
	 viewBox="0 0 120 130" enable-background="new 0 0 120 130" xml:space="preserve">
<path fill="#5B91CC" d="M101.572,72c3.866,0,7-3.134,7-7c0-3.866-3.134-7-7-7c-1.477,0-2.845,0.46-3.975,1.241l-9.838-5.68
	c0.015-0.186,0.028-0.372,0.028-0.561c0-0.189-0.014-0.375-0.028-0.561l9.838-5.68C98.727,47.54,100.095,48,101.572,48
	c3.866,0,7-3.134,7-7c0-3.866-3.134-7-7-7c-1.477,0-2.845,0.46-3.975,1.241l-9.838-5.68c0.015-0.186,0.028-0.372,0.028-0.561
	c0-3.866-3.134-7-7-7c-3.866,0-7,3.134-7,7c0,3.866,3.134,7,7,7c1.477,0,2.845-0.46,3.975-1.241l9.838,5.68
	c-0.015,0.186-0.028,0.372-0.028,0.561s0.014,0.375,0.028,0.561l-9.838,5.68C83.633,46.46,82.265,46,80.788,46
	c-1.477,0-2.845,0.46-3.975,1.241l-9.838-5.68c0.015-0.186,0.028-0.372,0.028-0.561c0-2.791-1.637-5.193-4-6.317V23.317
	c2.363-1.124,4-3.527,4-6.317c0-3.866-3.134-7-7-7c-3.866,0-7,3.134-7,7c0,2.791,1.637,5.193,4,6.317v11.365
	c-2.363,1.124-4,3.526-4,6.317c0,3.866,3.134,7,7,7c1.477,0,2.845-0.46,3.975-1.241l9.838,5.68
	c-0.015,0.186-0.028,0.372-0.028,0.561s0.014,0.375,0.028,0.561l-9.838,5.68C62.848,58.46,61.48,58,60.003,58
	s-2.845,0.46-3.975,1.241l-9.838-5.68c0.015-0.186,0.028-0.372,0.028-0.561c0-2.791-1.637-5.193-4-6.317V35.317
	c2.363-1.124,4-3.527,4-6.317c0-3.866-3.134-7-7-7c-3.866,0-7,3.134-7,7c0,2.791,1.637,5.193,4,6.317v11.365
	c-0.34,0.162-0.667,0.346-0.975,0.558l-9.838-5.68c0.015-0.186,0.028-0.372,0.028-0.561c0-3.866-3.134-7-7-7c-3.866,0-7,3.134-7,7
	c0,2.791,1.637,5.193,4,6.317v11.365c-2.363,1.124-4,3.526-4,6.317c0,3.866,3.134,7,7,7c3.866,0,7-3.134,7-7
	c0-2.791-1.637-5.193-4-6.317V47.317c0.34-0.162,0.667-0.346,0.975-0.558l9.838,5.68c-0.015,0.186-0.028,0.372-0.028,0.561
	c0,2.791,1.637,5.193,4,6.317v11.365c-2.363,1.124-4,3.526-4,6.317c0,0.189,0.014,0.375,0.028,0.561l-9.838,5.68
	C21.279,82.46,19.911,82,18.434,82c-3.866,0-7,3.134-7,7c0,3.866,3.134,7,7,7c3.866,0,7-3.134,7-7c0-0.19-0.014-0.376-0.028-0.561
	l9.838-5.68C36.373,83.54,37.741,84,39.218,84c3.866,0,7-3.134,7-7c0-2.791-1.637-5.193-4-6.317V59.317
	c0.34-0.162,0.667-0.346,0.975-0.558l9.838,5.68c-0.015,0.186-0.028,0.372-0.028,0.561c0,2.791,1.637,5.193,4,6.317v11.365
	c-2.363,1.124-4,3.526-4,6.317c0,0.19,0.014,0.376,0.028,0.561l-9.838,5.68C42.064,94.46,40.696,94,39.218,94c-3.866,0-7,3.134-7,7
	c0,3.866,3.134,7,7,7c3.866,0,7-3.134,7-7c0-0.19-0.014-0.376-0.028-0.561l9.838-5.68c0.307,0.213,0.635,0.397,0.975,0.559v11.365
	c-2.363,1.124-4,3.526-4,6.317c0,3.866,3.134,7,7,7c3.866,0,7-3.134,7-7c0-0.19-0.014-0.376-0.028-0.561l9.838-5.68
	C77.942,107.54,79.31,108,80.788,108c3.866,0,7-3.134,7-7c0-3.866-3.134-7-7-7c-3.866,0-7,3.134-7,7c0,0.19,0.014,0.376,0.028,0.561
	l-9.838,5.68c-0.307-0.213-0.635-0.397-0.975-0.559V95.317c2.363-1.124,4-3.527,4-6.317c0-0.19-0.014-0.376-0.028-0.561l9.838-5.68
	C77.942,83.54,79.31,84,80.788,84s2.845-0.46,3.975-1.241l9.838,5.68c-0.015,0.186-0.028,0.372-0.028,0.561c0,3.866,3.134,7,7,7
	c3.866,0,7-3.134,7-7c0-3.866-3.134-7-7-7c-1.477,0-2.845,0.46-3.975,1.241l-9.838-5.68c0.015-0.186,0.028-0.372,0.028-0.561
	c0-3.866-3.134-7-7-7c-3.866,0-7,3.134-7,7c0,0.189,0.014,0.375,0.028,0.561l-9.838,5.68c-0.307-0.213-0.635-0.397-0.975-0.559
	V71.317c2.363-1.124,4-3.527,4-6.317c0-0.189-0.014-0.375-0.028-0.561l9.838-5.68C77.942,59.54,79.31,60,80.788,60
	c1.477,0,2.845-0.46,3.975-1.241l9.838,5.68c-0.015,0.186-0.028,0.372-0.028,0.561C94.572,68.866,97.706,72,101.572,72z"/>
</svg>
