<?xml version="1.0" encoding="utf-8"?>
<!-- Generator: Adobe Illustrator 15.0.2, SVG Export Plug-In . SVG Version: 6.00 Build 0)  -->
<!DOCTYPE svg PUBLIC "-//W3C//DTD SVG 1.1//EN" "http://www.w3.org/Graphics/SVG/1.1/DTD/svg11.dtd">
<svg version="1.1" id="Layer_1" xmlns="http://www.w3.org/2000/svg" xmlns:xlink="http://www.w3.org/1999/xlink" x="0px" y="0px"
	 width="14173.23px" height="14173.23px" viewBox="0 0 14173.23 14173.23" enable-background="new 0 0 14173.23 14173.23"
	 xml:space="preserve">
<g>
	<path fill="#5892CD" d="M5487.064,7410.575c0,128.233-47.244,229.472-134.982,290.214
		c-87.74,67.492-222.723,101.237-398.201,101.237c-94.488,0-168.729-6.749-236.221-20.247
		c-67.49-13.498-128.233-33.746-182.227-53.994V7444.32c67.492,26.997,134.983,53.994,215.973,74.241
		c80.99,20.247,148.481,26.997,209.225,26.997c121.484,0,188.977-33.746,188.977-107.986c0-26.997-6.75-47.244-26.997-67.492
		c-13.498-13.498-47.244-33.746-87.739-53.993c-40.494-20.247-94.488-47.244-161.98-74.241
		c-94.488-40.494-168.729-80.989-209.223-114.735c-47.244-33.745-80.99-74.24-101.238-121.484s-33.746-101.237-33.746-161.979
		c0-107.987,40.496-195.727,128.234-256.469c87.74-60.742,209.225-94.488,364.455-94.488c148.48,0,296.963,33.746,438.695,101.237
		l-101.237,249.72c-60.743-26.997-121.485-47.244-175.478-67.492c-53.994-20.247-107.987-26.996-168.729-26.996
		c-101.237,0-148.481,26.996-148.481,80.989c0,33.746,13.498,53.993,47.244,80.99c33.746,20.247,101.237,53.993,215.973,101.237
		c94.488,40.494,168.729,74.24,215.973,107.986s80.99,74.24,101.238,121.484C5473.566,7295.839,5487.064,7349.832,5487.064,7410.575
		z"/>
	<path fill="#5892CD" d="M6546.683,7788.527l-67.491-175.478h-6.75c-60.742,67.491-114.734,121.485-175.478,148.481
		s-141.732,40.494-236.221,40.494c-121.485,0-215.973-33.745-283.464-101.236c-67.492-67.492-101.238-168.729-101.238-290.215
		c0-134.982,47.244-229.471,141.732-296.963c94.488-60.742,236.221-101.237,425.197-107.986l215.973-6.749v-47.244
		c0-128.233-67.491-188.976-195.725-188.976c-101.238,0-215.974,26.996-350.957,87.738l-114.735-229.471
		c141.732-74.241,303.712-114.736,479.19-114.736c168.729,0,296.963,33.746,384.701,107.986
		c87.74,74.24,134.984,182.228,134.984,330.709v836.896h-249.72V7788.527z M6452.194,7208.1l-134.983,6.75
		c-101.237,0-175.479,20.247-222.723,53.992c-47.244,33.746-74.24,80.99-74.24,148.482c0,94.488,53.994,141.731,168.729,141.731
		c80.99,0,141.732-20.247,188.977-67.491s74.241-107.986,74.241-182.228V7208.1z"/>
	<path fill="#5892CD" d="M7835.771,6789.652H7532.06v998.875h-337.458v-998.875h-188.977v-168.729l188.977-94.488v-94.489
		c0-141.731,33.746-249.719,107.986-310.461c67.492-67.491,182.227-101.237,337.458-101.237c114.735,0,222.722,20.248,317.21,53.993
		l-87.739,249.719c-67.491-20.247-134.983-33.745-188.977-33.745c-47.243,0-87.739,13.498-107.986,40.494
		c-20.247,26.997-33.745,67.492-33.745,107.986v80.99h303.711v269.967H7835.771z"/>
	<path fill="#5892CD" d="M8591.678,7808.775c-202.475,0-357.705-53.994-472.441-168.729
		c-114.735-107.986-168.729-269.966-168.729-472.44c0-209.225,53.993-371.204,155.23-485.939
		c107.986-114.736,249.719-168.729,431.945-168.729c175.479,0,310.463,47.244,411.699,148.481
		c101.238,101.237,141.732,242.97,141.732,418.448v161.979h-803.148c6.748,94.488,33.744,175.479,87.738,229.471
		c53.994,53.994,128.234,80.99,229.471,80.99c74.242,0,141.734-6.749,209.225-20.248c67.492-13.498,141.732-40.494,209.225-74.24
		v263.217c-60.742,26.997-121.484,53.994-188.977,67.492C8773.904,7802.025,8692.914,7808.775,8591.678,7808.775z
		 M8544.434,6755.906c-74.24,0-128.234,20.248-168.729,67.492c-40.496,47.244-67.492,107.986-67.492,195.725h479.189
		c0-80.989-20.248-148.48-67.492-195.725C8672.668,6776.154,8618.674,6755.906,8544.434,6755.906z"/>
	<path fill="#6EAADC" d="M9887.516,7808.775c-391.451,0-587.176-215.973-587.176-641.17c0-215.974,53.992-377.953,161.979-485.939
		c107.986-114.736,256.469-168.729,458.943-168.729c141.732,0,276.715,26.997,391.451,87.739l-101.238,263.217
		c-53.992-20.247-101.236-40.494-148.48-53.993c-47.244-13.498-94.488-20.247-141.732-20.247
		c-175.479,0-269.967,128.234-269.967,377.953c0,242.969,87.74,364.454,269.967,364.454c67.492,0,128.232-6.749,182.227-26.997
		s107.986-47.244,168.729-80.989v290.214c-60.742,33.746-107.986,60.742-168.729,74.24
		C10049.494,7802.025,9975.254,7808.775,9887.516,7808.775z"/>
	<path fill="#6EAADC" d="M11703.039,7154.107c0,202.475-53.994,364.454-161.98,479.189s-256.467,175.479-452.193,175.479
		c-121.484,0-229.471-26.997-317.209-80.99c-94.488-53.993-161.98-128.234-209.225-229.471
		c-47.244-101.238-74.242-215.974-74.242-344.207c0-202.476,53.994-364.455,161.98-479.19
		c107.986-114.736,256.469-168.729,452.193-168.729c121.484,0,229.471,26.997,317.209,80.99
		c94.488,53.993,161.98,128.234,209.225,222.723C11676.043,6911.137,11703.039,7025.873,11703.039,7154.107z M10832.398,7154.107
		c0,121.484,20.246,215.973,60.742,283.464c40.494,60.743,107.986,94.488,195.725,94.488s155.23-33.745,195.725-94.488
		c40.496-60.743,60.742-155.23,60.742-283.465c0-121.484-20.248-215.973-60.742-276.716
		c-40.496-60.742-107.986-94.488-195.725-94.488c-94.488,0-155.23,33.746-195.725,94.488
		C10852.645,6938.134,10832.398,7032.622,10832.398,7154.107z"/>
	<path fill="#6EAADC" d="M11966.256,6209.225c0-107.986,60.742-168.729,188.977-168.729c121.486,0,188.977,53.993,188.977,168.729
		c0,53.993-13.498,94.488-47.244,121.484c-33.744,26.997-74.24,47.244-141.732,47.244
		C12026.998,6377.953,11966.256,6323.961,11966.256,6209.225z M12330.711,7788.527h-350.957V6533.185h350.957V7788.527z"/>
	<path fill="#6EAADC" d="M13835.773,7788.527h-337.459v-735.658c0-87.738-20.248-155.23-53.992-202.475
		c-33.746-47.244-87.74-67.491-155.232-67.491c-94.486,0-161.979,33.745-209.223,94.488
		c-40.496,60.742-60.742,168.729-60.742,317.21v593.926h-350.957V6533.185h263.217l47.244,161.979h20.248
		c40.494-67.491,87.738-107.986,155.23-141.732s141.732-47.244,229.471-47.244c148.482,0,256.469,40.495,330.709,114.736
		c74.24,80.989,114.734,188.977,114.734,337.457v830.146H13835.773z"/>
</g>
<radialGradient id="SVGID_1_" cx="280.136" cy="10867.8076" r="5.1065" gradientTransform="matrix(418.4748 0 0 -29.0889 -114753.5391 324646.3438)" gradientUnits="userSpaceOnUse">
	<stop  offset="0" style="stop-color:#050505"/>
	<stop  offset="0.0135" style="stop-color:#0C0C0C;stop-opacity:0.9865"/>
	<stop  offset="0.1286" style="stop-color:#444444;stop-opacity:0.8714"/>
	<stop  offset="0.2473" style="stop-color:#767676;stop-opacity:0.7527"/>
	<stop  offset="0.3668" style="stop-color:#A0A0A0;stop-opacity:0.6332"/>
	<stop  offset="0.4876" style="stop-color:#C2C2C2;stop-opacity:0.5124"/>
	<stop  offset="0.61" style="stop-color:#DDDDDD;stop-opacity:0.39"/>
	<stop  offset="0.7346" style="stop-color:#F0F0F0;stop-opacity:0.2654"/>
	<stop  offset="0.8628" style="stop-color:#FBFBFB;stop-opacity:0.1372"/>
	<stop  offset="1" style="stop-color:#FFFFFF;stop-opacity:0"/>
</radialGradient>
<path fill="url(#SVGID_1_)" d="M4731.159,8517.437c0,80.989-985.377,155.231-2193.477,155.231s-2200.226-67.492-2200.226-155.231
	c0-80.989,985.377-148.481,2200.226-148.481S4731.159,8436.447,4731.159,8517.437z"/>
<g>
	<polygon fill="#6EAADC" points="2534.295,5476.801 1216.199,6237.805 1216.199,6771.74 1216.257,6771.775 1216.221,6771.838 
		1847.135,7136.109 1847.135,7395.541 2534.295,7792.27 3034.133,7503.689 1847.135,6818.375 1847.135,6818.512 1509.802,6623.748 
		1509.802,6407.316 2534.295,5815.826 3558.785,6407.316 3558.785,6796.973 3852.389,6966.484 3852.389,6237.805 	"/>
	<polygon fill="#5892CD" points="3852.418,7226.199 3852.389,7226.182 3852.389,7226.043 3558.785,7056.533 3558.785,7056.664 
		3221.453,6861.9 3221.453,6602.076 2534.295,6205.346 2034.455,6493.926 2872.031,6977.502 2871.922,6977.689 3558.785,7374.26 
		3558.785,7590.299 2534.294,8181.787 1509.802,7590.299 1509.802,7200.812 1216.199,7031.301 1216.199,7759.811 2534.295,8520.812 
		3852.389,7759.811 3852.389,7226.252 	"/>
</g>
</svg>
