<?xml version="1.0" encoding="utf-8"?>
<!-- Generator: Adobe Illustrator 19.1.0, SVG Export Plug-In . SVG Version: 6.00 Build 0)  -->
<svg version="1.1" id="Layer_1" xmlns="http://www.w3.org/2000/svg" xmlns:xlink="http://www.w3.org/1999/xlink" x="0px" y="0px"
	 viewBox="0 0 210 120" style="enable-background:new 0 0 210 120;" xml:space="preserve">
<style type="text/css">
	.st0{fill:#5892CD;}
	.st1{fill:#6EAADC;}
</style>
<g>
	<g>
		<polygon class="st0" points="128.2,55.4 128.2,46.7 105,33.3 87.6,43.4 139.6,73.3 139.6,79.9 105,99.7 70.5,79.9 70.5,66.7 
			60.7,61 60.7,85.6 104.8,111.2 149,85.6 149,67.4 		"/>
		<polygon class="st0" points="139.6,40.1 139.6,40.1 105,20.3 70.5,40.1 70.5,40.1 105,20.3 		"/>
	</g>
	<polygon class="st1" points="105,8.8 60.7,34.4 60.7,53.7 81.5,65.9 81.5,65.9 81.5,65.9 81.5,65.9 81.5,73.3 104.8,86.7 
		121.2,77.3 70.5,48 70.5,40.1 105,20.3 139.6,40.1 139.6,53.1 149.4,58.8 149.4,34.4 	"/>
</g>
</svg>
