<svg xmlns="http://www.w3.org/2000/svg"    width="1389.8317"  height="354.58669"  viewBox="0 0 1389.8317 354.58668" >
	<title>safecoin RGB</title>
	<desc>@100 base units</desc>
	<path
		 d="m 514.9608,218.3775 c 0,12.82331 -4.7244,22.94721 -13.4982,29.0214 -8.774,6.749 -22.2723,10.1236 -39.82,10.1236 -9.449,0 -16.873,-.675 -23.6222,-2.0247 -6.749,-1.35 -12.8233,-3.3747 -18.2227,-5.3995 V 221.752 c 6.7492,2.6997 13.4983,5.3994 21.5973,7.424 8.099,2.0248 14.848,2.6998 20.9225,2.6998 12.1485,0 18.8978,-3.3746 18.8978,-10.7986 0,-2.6997 -.675,-4.7244 -2.6997,-6.7492 -1.3497,-1.3498 -4.7243,-3.3746 -8.7738,-5.3993 -4.0494,-2.0247 -9.4488,-4.7244 -16.198,-7.424 -9.4488,-4.0495 -16.873,-8.099 -20.9223,-11.4736 -4.7245,-3.3744 -8.099,-7.42399 -10.124,-12.1483 -2.025,-4.7243 -3.3745,-10.1237 -3.3745,-16.198 0,-10.7986 4.0496,-19.5726 12.8234,-25.6468 8.774,-6.0743 20.9224,-9.449 36.4454,-9.449 14.848,0 29.6963,3.3747 43.8695,10.1238 l -10.1238,24.972 c -6.0743,-2.6997 -12.1485,-4.7244 -17.5478,-6.7492 -5.3994,-2.0247 -10.7987,-2.6996 -16.873,-2.6996 -10.1236,0 -14.848,2.6996 -14.848,8.099 0,3.3745 1.3498,5.3992 4.7244,8.099 3.3746,2.0246 10.1237,5.3992 21.5973,10.1236 9.449,4.0494 16.873,7.424 21.5974,10.7986 4.7244,3.3746 8.099,7.424 10.1238,12.1484 2.6994,5.3993 4.0492,10.7986 4.0492,16.873 z m 105.9619,37.7952 -6.749,-17.5478 h -.675 c -6.0743,6.749 -11.4735,12.1484 -17.548,14.848 -6.0745,2.6996 -14.173,4.0494 -23.622,4.0494 -12.1485,0 -21.5973,-3.3745 -28.3464,-10.1236 -6.7493,-6.7492 -10.124,-16.873 -10.124,-29.0215 0,-13.4982 4.7245,-22.947 14.1733,-29.6963 9.4488,-6.0742 23.622,-10.1237 42.5197,-10.7986 l 21.5973,-.675 v -4.7243 c 0,-12.8232 -6.749,-18.8975 -19.5725,-18.8975 -10.1238,0 -21.5974,2.6996 -35.0957,8.7738 l -11.4734,-22.947 c 14.1732,-7.4242 30.3712,-11.4737 47.919,-11.4737 16.873,0 29.6963,3.3746 38.47,10.7986 8.774,7.424 13.4985,18.2228 13.4985,33.071 v 83.6895 h -24.972 v .675 z m -9.449,-58.0427 -13.4982,.675 c -10.1236,0 -17.5478,2.0247 -22.2722,5.3992 -4.7244,3.3746 -7.424,8.099 -7.424,14.8482 0,9.4488 5.3994,14.173 16.873,14.173 8.099,0 14.173,-2.0246 18.8976,-6.749 4.7246,-4.7244 7.424,-10.7986 7.424,-18.2228 V 198.13 Z m 138.3577,-41.8448 h -30.371 v 99.8875 h -33.7458 v -99.8875 h -18.8977 v -16.873 l 18.8977,-9.4487 v -9.449 c 0,-14.17301 3.3746,-24.97181 10.7986,-31.046005 6.7492,-6.749 18.2227,-10.1237 33.7458,-10.1237 11.4735,0 22.2722,2.0248 31.721,5.3993 l -8.774,24.972005 c -6.749,-2.02471 -13.4982,-3.37451 -18.8976,-3.37451 -4.7243,0 -8.774,1.3498 -10.7986,4.0494 -2.0247,2.69961 -3.3745,6.74901 -3.3745,10.79851 v 8.099 h 30.371 v 26.9967 h -.675 z m 75.5908,101.9123 c -20.2475,0 -35.7705,-5.3994 -47.244,-16.873 -11.4736,-10.7985 -16.873,-26.9965 -16.873,-47.244 0,-20.9224 5.3993,-37.1203 15.523,-48.5938 10.7986,-11.4736 24.972,-16.873 43.1945,-16.873 17.548,0 31.0463,4.7245 41.17,14.8482 10.1237,10.1236 14.173,24.297 14.173,41.8447 v 16.198 H 795.051 c .6748,9.4487 3.3744,17.5478 8.7738,22.947 5.3994,5.3994 12.8234,8.099 22.947,8.099 7.4243,0 14.1735,-.675 20.9226,-2.0248 6.7492,-1.35 14.1732,-4.0495 20.9225,-7.424 v 26.3216 c -6.0742,2.6997 -12.1484,5.3994 -18.8977,6.7492 -6.0744,1.3497 -14.1734,2.0247 -24.297,2.0247 z m -4.7244,-105.287 c -7.424,0 -12.8234,2.025 -16.873,6.7493 -4.0495,4.7244 -6.749,10.7986 -6.749,19.5725 h 47.9186 c 0,-8.099 -2.0248,-14.848 -6.7492,-19.5725 -4.7242,-4.7244 -10.1236,-6.7492 -17.5476,-6.7492 z"
		 style="fill:#5892cd"
	/>
	<path
		 d="m 955.006,258.1975 c -39.145,0 -58.7176,-21.5973 -58.7176,-64.117 0,-21.5974 5.3992,-37.7953 16.198,-48.594 10.7985,-11.4735 25.6468,-16.8728 45.8942,-16.8728 14.1732,0 27.6715,2.6997 39.145,8.774 l -10.1237,26.3216 c -5.3992,-2.0247 -10.1236,-4.0494 -14.848,-5.3993 -4.7244,-1.3498 -9.4488,-2.0247 -14.1732,-2.0247 -17.548,0 -26.9967,12.8234 -26.9967,37.7953 0,24.297 8.774,36.4454 26.9967,36.4454 6.7492,0 12.8232,-.675 18.2227,-2.6997 5.3995,-2.0247 10.7986,-4.7244 16.873,-8.099 v 29.02151 c -6.0743,3.3746 -10.7987,6.0742 -16.873,7.42399 -5.3996,1.3497 -12.8236,2.0247 -21.5974,2.0247 z m 181.5524,-65.4668 c 0,20.2475 -5.3995,36.4454 -16.198,47.919 -10.7985,11.4736 -25.6468,17.5478 -45.2194,17.5478 -12.1484,0 -22.947,-2.6997 -31.721,-8.099 -9.4487,-5.3993 -16.198,-12.8234 -20.9224,-22.94699 -4.7244,-10.124 -7.4242,-21.5975 -7.4242,-34.42081 0,-20.2476 5.3994,-36.44549 16.198,-47.919 10.7986,-11.4736 25.647,-16.873 45.2193,-16.873 12.1484,0 22.947,2.6998 31.721,8.099 9.4487,5.3994 16.198,12.8235 20.9224,22.2724 4.7246,10.1237 7.4242,21.5973 7.4242,34.4207 z m -87.0642,0 c 0,12.1484 2.0246,21.5973 6.0742,28.3464 4.0494,6.0744 10.7986,9.449 19.5725,9.449 8.7739,0 15.523,-3.3746 19.5725,-9.449 4.0496,-6.0742 6.0742,-15.523 6.0742,-28.3464 0,-12.1484 -2.0248,-21.5973 -6.0742,-27.6716 -4.0496,-6.0742 -10.7986,-9.4488 -19.5725,-9.4488 -9.4488,0 -15.523,3.3746 -19.5725,9.4488 -4.0495,6.0744 -6.0742,15.5232 -6.0742,27.6717 z M 1162.88,98.2425 c 0,-10.798605 6.0742,-16.873005 18.8977,-16.873005 12.1486,0 18.8977,5.3994 18.8977,16.873005 0,5.3993 -1.3498,9.4488 -4.7244,12.14839 -3.3744,2.69961 -7.424,4.72431 -14.1732,4.72431 -12.8236,0 -18.8978,-5.39921 -18.8978,-16.87281 z m 36.4455,157.9302 h -35.0956 V 130.6385 h 35.0957 v 125.5342 z m 150.5062,0 h -33.746 V 182.607 c 0,-8.774 -2.0247,-15.523 -5.399,-20.2476 -3.3747,-4.7244 -8.774,-6.749 -15.5233,-6.749 -9.4486,0 -16.198,3.3744 -20.9223,9.4487 -4.0496,6.0743 -6.0742,16.873 -6.0742,31.721 v 59.3927 h -35.0957 V 130.6385 h 26.3217 l 4.7244,16.198 h 2.0247 c 4.0494,-6.7492 8.7738,-10.7987 15.523,-14.1733 6.7492,-3.3746 14.1732,-4.7244 22.947,-4.7244 14.8483,0 25.647,4.0495 33.071,11.4736 7.424,8.099 11.4734,18.8977 11.4734,33.7457 v 83.0147 h .6753 z"
		 style="fill:#6eaadc" />
	<radialGradient id="a" cx="280.136" cy="10859.285" r="5.106" gradientTransform="matrix(41.8475,0,0,-2.9089,-11509.1,31916.954)" gradientUnits="userSpaceOnUse">
		<stop offset="0" stop-color="#050505"/>
		<stop offset=".013" stop-color="#0C0C0C" stop-opacity=".987"/>
		<stop offset=".129" stop-color="#444" stop-opacity=".871"/>
		<stop offset=".247" stop-color="#767676" stop-opacity=".753"/>
		<stop offset=".367" stop-color="#A0A0A0" stop-opacity=".633"/>
		<stop offset=".488" stop-color="#C2C2C2" stop-opacity=".512"/>
		<stop offset=".61" stop-color="#ddd" stop-opacity=".39"/>
		<stop offset=".735" stop-color="#F0F0F0" stop-opacity=".265"/>
		<stop offset=".863" stop-color="#FBFBFB" stop-opacity=".137"/>
		<stop offset="1" stop-color="#fff" stop-opacity="0"/>
	</radialGradient>
	<path
		 d="m 439.3704,329.0637 c 0,8.099 -98.5378,15.523 -219.3478,15.523 C 99.2126,344.5867 0,337.83771 0,329.0637 c 0,-8.09899 98.5377,-14.848 220.0226,-14.848 121.4849,0 219.3477,6.749 219.3477,14.848 z"
		 style="fill:url(#a)" 
	/>
	<desc> 
		This is the safecoin_mark with
		radius of 			152.2000 units  == scale of .1522  Std radius is 100.0000
		translate(131.80907 152.2000) will move the symbol to the origin 0,0 - need to add X=88.0000, Y=25.0000 to place it correctly
		so it become translate(219.80907 177.2000)
	</desc>

	<g transform="translate(219.80907 177.2000) scale(1.522 1.522)" >  
	<g transform="rotate(180)"> <polygon fill="#5892CD" points="
		0.00000 -100.00000 
		-86.60254 -50.00000 
		-86.60254 -17.04200 
		-43.30127 7.95800 
		-43.30127 25.00000 
		.00000 50.00000 
		31.69873 31.69873 
		-67.31154 -25.46488 
		-67.31154 -38.86234 
		.00000 -77.72467 
		67.31154 -38.86234 
		67.31154 -11.13766 
		86.60254 0.00000 
		86.60254 -50.00000 
	 "/>
	</g>


	<polygon fill="#6EAADC" points="
		0.00000 -100.00000 
		-86.60254 -50.00000 
		-86.60254 -17.04200 
		-43.30127 7.95800 
		-43.30127 25.00000 
		.00000 50.00000 
		31.69873 31.69873 
		-67.31154 -25.46488 
		-67.31154 -38.86234 
		.00000 -77.72467 
		67.31154 -38.86234 
		67.31154 -11.13766 
		86.60254 0.00000 
		86.60254 -50.00000 
	 "/>
	 
	</g>
</svg>
