<svg id="Layer_1" data-name="Layer 1" xmlns="http://www.w3.org/2000/svg" width="97.84" height="110.00" viewBox="0 0 97.84 110.00">
<title>safe_network_mark</title>
<desc>Mark for the SAFE network  (@100 base units)
The logo is made up of 5 rows by 5 colomns of circles evenly spaced 
with circles missing on each corner so as to make a hex shape

Each column has circles offset by half the distance

There are wide lines joining various circles to make a visual representation 
of a distributed network.

- The vertical height is nominally set at 110.00 
- The Radius of the circles is 7.00, the edge circles touch the edges
- The Vertical distance between circle centres in a column is
    ( 110.00 - 7.00 - 7.00 ) / 4 = 24.00
- The offset distance between columns is 24.00 / 2 = 12.00
- The angles of lines between columns is 30 degrees above or below the horizontal
- The distance between columns is determined by angle used for the bars joining the circles
  At 30 degrees this means that the distance between column centres is = 12./tan(30) = 20.460969082652752232935609807
- The Horizontal width is 7.00 + ( 4*20.460969082652752232935609807) + 7.00 = 97.8438763306110089317424392282
- The horz and vert centres are 
  Horizontal
	1  -   7.00
	2  -  27.46  (27.460969082652752232935609807)
	3  -  48.92  (48.921938165305504465871219614)
	4  -  69.38  (69.382907247958256698806829421)
	5  -  90.84  (90.843876330611008931742439228)
  Vertical
    1a -   7.00
	1b -  19.00
	2a -  31.00
	2b -  43.00
	3a -  55.00
	3b -  67.00
	4a -  79.00
	4b -  91.00
	5  - 103.00
	
	
- When rotation occurs, it is best to have the bar centre line at 0,0
  This way the bar only needs to be translated to the circle centre of the starting circle
  Thus a rectangle is drawn at X=0 and Y=-1/2 the bar width = .00
  And the rectangle width is the bar length = 1./sin(30) = 2.00 
  NOTE:  Seems the original designer choose circle centre to circle centre 
         for the closest circles in adjoining columns to be the same as adjoining circles in each column 

  
  </desc>

<circle cx="7.00"  cy="31.00"  r="7.00" fill="#5b91cc" />
<circle cx="7.00"  cy="55.00"  r="7.00" fill="#5b91cc" />
<circle cx="7.00"  cy="79.00"  r="7.00" fill="#5b91cc" />

<circle cx="27.46" cy="19.00"  r="7.00" fill="#5b91cc" />
<circle cx="27.46" cy="43.00"  r="7.00" fill="#5b91cc" />
<circle cx="27.46" cy="67.00"  r="7.00" fill="#5b91cc" />
<circle cx="27.46" cy="91.00"  r="7.00" fill="#5b91cc" />

<circle cx="48.92" cy="7.00"   r="7.00" fill="#5b91cc" />
<circle cx="48.92" cy="31.00"  r="7.00" fill="#5b91cc" />
<circle cx="48.92" cy="55.00"  r="7.00" fill="#5b91cc" />
<circle cx="48.92" cy="79.00"  r="7.00" fill="#5b91cc" />
<circle cx="48.92" cy="103.00" r="7.00" fill="#5b91cc" />

<circle cx="69.38" cy="19.00"  r="7.00" fill="#5b91cc" />
<circle cx="69.38" cy="43.00"  r="7.00" fill="#5b91cc" />
<circle cx="69.38" cy="67.00"  r="7.00" fill="#5b91cc" />
<circle cx="69.38" cy="91.00"  r="7.00" fill="#5b91cc" />

<circle cx="90.84" cy="31.00"  r="7.00" fill="#5b91cc" />
<circle cx="90.84" cy="55.00"  r="7.00" fill="#5b91cc" />
<circle cx="90.84" cy="79.00"  r="7.00" fill="#5b91cc" />


<g transform="translate(7.00   31.00)  rotate(90)">    <rect x="0.00"  y="-3.00" width="24.00" height="6.00" fill="#5b91cc" /> </g>
<g transform="translate(27.46  19.00)  rotate(90)">    <rect x="0.00"  y="-3.00" width="24.00" height="6.00" fill="#5b91cc" /> </g>
<g transform="translate(27.46  43.00)  rotate(90)">    <rect x="0.00"  y="-3.00" width="24.00" height="6.00" fill="#5b91cc" /> </g>
<g transform="translate(48.92  7.00)   rotate(90)">    <rect x="0.00"  y="-3.00" width="24.00" height="6.00" fill="#5b91cc" /> </g>
<g transform="translate(48.92  55.00)  rotate(90)">    <rect x="0.00"  y="-3.00" width="24.00" height="6.00" fill="#5b91cc" /> </g>
<g transform="translate(48.92  79.00)  rotate(90)">    <rect x="0.00"  y="-3.00" width="24.00" height="6.00" fill="#5b91cc" /> </g>

<g transform="translate(7.00   31.00)  rotate(30)">    <rect x="0.00"  y="-3.00" width="24.00" height="6.00" fill="#5b91cc" /> </g>
<g transform="translate(27.46  43.00)  rotate(30)">    <rect x="0.00"  y="-3.00" width="24.00" height="6.00" fill="#5b91cc" /> </g>

<g transform="translate(48.92  31.00)  rotate(30)">    <rect x="0.00"  y="-3.00" width="24.00" height="6.00" fill="#5b91cc" /> </g>
<g transform="translate(69.38  43.00)  rotate(30)">    <rect x="0.00"  y="-3.00" width="24.00" height="6.00" fill="#5b91cc" /> </g>

<g transform="translate(69.38  19.00)  rotate(30)">    <rect x="0.00"  y="-3.00" width="24.00" height="6.00" fill="#5b91cc" /> </g>

<g transform="translate(69.38  67.00)  rotate(30)">    <rect x="0.00"  y="-3.00" width="24.00" height="6.00" fill="#5b91cc" /> </g>

<g transform="translate(7.00   79.00)  rotate(-30)">   <rect x="0.00"  y="-3.00" width="24.00" height="6.00" fill="#5b91cc" /> </g>

<g transform="translate(48.92 103.00)  rotate(-30)">   <rect x="0.00"  y="-3.00" width="24.00" height="6.00" fill="#5b91cc" /> </g>

<g transform="translate(48.92  55.00)  rotate(-30)">   <rect x="0.00"  y="-3.00" width="24.00" height="6.00" fill="#5b91cc" /> </g>
<g transform="translate(69.38  43.00)  rotate(-30)">   <rect x="0.00"  y="-3.00" width="24.00" height="6.00" fill="#5b91cc" /> </g>

<g transform="translate(27.46  91.00)  rotate(-30)">   <rect x="0.00"  y="-3.00" width="24.00" height="6.00" fill="#5b91cc" /> </g>
<g transform="translate(48.92  79.00)  rotate(-30)">   <rect x="0.00"  y="-3.00" width="24.00" height="6.00" fill="#5b91cc" /> </g>




</svg>