<?xml version="1.0" encoding="utf-8"?>
<!-- Generator: Adobe Illustrator 19.1.0, SVG Export Plug-In . SVG Version: 6.00 Build 0)  -->
<svg version="1.1" id="Layer_1" xmlns="http://www.w3.org/2000/svg" xmlns:xlink="http://www.w3.org/1999/xlink" x="0px" y="0px"
	 viewBox="0 0 210 120" style="enable-background:new 0 0 210 120;" xml:space="preserve">
<style type="text/css">
	.st0{fill:#5892CD;}
	.st1{fill:#6EAADC;}
	.st2{fill:url(#SVGID_1_);}
</style>
<g>
	<g>
		<path class="st0" d="M81.3,64.8c0,1.9-0.7,3.4-2,4.3c-1.3,1-3.3,1.5-5.9,1.5c-1.4,0-2.5-0.1-3.5-0.3c-1-0.2-1.9-0.5-2.7-0.8v-4.2
			c1,0.4,2,0.8,3.2,1.1c1.2,0.3,2.2,0.4,3.1,0.4c1.8,0,2.8-0.5,2.8-1.6c0-0.4-0.1-0.7-0.4-1c-0.2-0.2-0.7-0.5-1.3-0.8
			c-0.6-0.3-1.4-0.7-2.4-1.1c-1.4-0.6-2.5-1.2-3.1-1.7c-0.7-0.5-1.2-1.1-1.5-1.8c-0.3-0.7-0.5-1.5-0.5-2.4c0-1.6,0.6-2.9,1.9-3.8
			c1.3-0.9,3.1-1.4,5.4-1.4c2.2,0,4.4,0.5,6.5,1.5l-1.5,3.7c-0.9-0.4-1.8-0.7-2.6-1c-0.8-0.3-1.6-0.4-2.5-0.4
			c-1.5,0-2.2,0.4-2.2,1.2c0,0.5,0.2,0.8,0.7,1.2c0.5,0.3,1.5,0.8,3.2,1.5c1.4,0.6,2.5,1.1,3.2,1.6c0.7,0.5,1.2,1.1,1.5,1.8
			C81.1,63.1,81.3,63.9,81.3,64.8z"/>
		<path class="st0" d="M97,70.4l-1-2.6h-0.1c-0.9,1-1.7,1.8-2.6,2.2c-0.9,0.4-2.1,0.6-3.5,0.6c-1.8,0-3.2-0.5-4.2-1.5
			c-1-1-1.5-2.5-1.5-4.3c0-2,0.7-3.4,2.1-4.4c1.4-0.9,3.5-1.5,6.3-1.6l3.2-0.1V58c0-1.9-1-2.8-2.9-2.8c-1.5,0-3.2,0.4-5.2,1.3
			l-1.7-3.4c2.1-1.1,4.5-1.7,7.1-1.7c2.5,0,4.4,0.5,5.7,1.6c1.3,1.1,2,2.7,2,4.9v12.4H97z M95.6,61.8l-2,0.1c-1.5,0-2.6,0.3-3.3,0.8
			c-0.7,0.5-1.1,1.2-1.1,2.2c0,1.4,0.8,2.1,2.5,2.1c1.2,0,2.1-0.3,2.8-1c0.7-0.7,1.1-1.6,1.1-2.7V61.8z"/>
		<path class="st0" d="M116.1,55.6h-4.5v14.8h-5V55.6h-2.8v-2.5l2.8-1.4v-1.4c0-2.1,0.5-3.7,1.6-4.6c1-1,2.7-1.5,5-1.5
			c1.7,0,3.3,0.3,4.7,0.8l-1.3,3.7c-1-0.3-2-0.5-2.8-0.5c-0.7,0-1.3,0.2-1.6,0.6c-0.3,0.4-0.5,1-0.5,1.6v1.2h4.5V55.6z"/>
		<path class="st0" d="M127.3,70.7c-3,0-5.3-0.8-7-2.5c-1.7-1.6-2.5-4-2.5-7c0-3.1,0.8-5.5,2.3-7.2c1.6-1.7,3.7-2.5,6.4-2.5
			c2.6,0,4.6,0.7,6.1,2.2c1.5,1.5,2.1,3.6,2.1,6.2v2.4h-11.9c0.1,1.4,0.5,2.6,1.3,3.4c0.8,0.8,1.9,1.2,3.4,1.2
			c1.1,0,2.1-0.1,3.1-0.3c1-0.2,2.1-0.6,3.1-1.1v3.9c-0.9,0.4-1.8,0.8-2.8,1C130,70.6,128.8,70.7,127.3,70.7z M126.6,55.1
			c-1.1,0-1.9,0.3-2.5,1c-0.6,0.7-1,1.6-1,2.9h7.1c0-1.2-0.3-2.2-1-2.9C128.5,55.4,127.7,55.1,126.6,55.1z"/>
		<path class="st1" d="M146.5,70.7c-5.8,0-8.7-3.2-8.7-9.5c0-3.2,0.8-5.6,2.4-7.2c1.6-1.7,3.8-2.5,6.8-2.5c2.1,0,4.1,0.4,5.8,1.3
			l-1.5,3.9c-0.8-0.3-1.5-0.6-2.2-0.8c-0.7-0.2-1.4-0.3-2.1-0.3c-2.6,0-4,1.9-4,5.6c0,3.6,1.3,5.4,4,5.4c1,0,1.9-0.1,2.7-0.4
			c0.8-0.3,1.6-0.7,2.5-1.2v4.3c-0.9,0.5-1.6,0.9-2.5,1.1C148.9,70.6,147.8,70.7,146.5,70.7z"/>
		<path class="st1" d="M173.4,61c0,3-0.8,5.4-2.4,7.1c-1.6,1.7-3.8,2.6-6.7,2.6c-1.8,0-3.4-0.4-4.7-1.2c-1.4-0.8-2.4-1.9-3.1-3.4
			c-0.7-1.5-1.1-3.2-1.1-5.1c0-3,0.8-5.4,2.4-7.1c1.6-1.7,3.8-2.5,6.7-2.5c1.8,0,3.4,0.4,4.7,1.2c1.4,0.8,2.4,1.9,3.1,3.3
			C173,57.4,173.4,59.1,173.4,61z M160.5,61c0,1.8,0.3,3.2,0.9,4.2c0.6,0.9,1.6,1.4,2.9,1.4c1.3,0,2.3-0.5,2.9-1.4
			c0.6-0.9,0.9-2.3,0.9-4.2c0-1.8-0.3-3.2-0.9-4.1c-0.6-0.9-1.6-1.4-2.9-1.4c-1.4,0-2.3,0.5-2.9,1.4C160.8,57.8,160.5,59.2,160.5,61
			z"/>
		<path class="st1" d="M177.3,47c0-1.6,0.9-2.5,2.8-2.5c1.8,0,2.8,0.8,2.8,2.5c0,0.8-0.2,1.4-0.7,1.8c-0.5,0.4-1.1,0.7-2.1,0.7
			C178.2,49.5,177.3,48.7,177.3,47z M182.7,70.4h-5.2V51.8h5.2V70.4z"/>
		<path class="st1" d="M205,70.4h-5V59.5c0-1.3-0.3-2.3-0.8-3c-0.5-0.7-1.3-1-2.3-1c-1.4,0-2.4,0.5-3.1,1.4
			c-0.6,0.9-0.9,2.5-0.9,4.7v8.8h-5.2V51.8h3.9l0.7,2.4h0.3c0.6-1,1.3-1.6,2.3-2.1c1-0.5,2.1-0.7,3.4-0.7c2.2,0,3.8,0.6,4.9,1.7
			c1.1,1.2,1.7,2.8,1.7,5V70.4z"/>
	</g>
	
		<radialGradient id="SVGID_1_" cx="296.2241" cy="3535.3096" r="5.1065" gradientTransform="matrix(6.2004 0 0 0.431 -1800.0181 -1442.5681)" gradientUnits="userSpaceOnUse">
		<stop  offset="0" style="stop-color:#050505"/>
		<stop  offset="1.346248e-002" style="stop-color:#0C0C0C;stop-opacity:0.9865"/>
		<stop  offset="0.1286" style="stop-color:#444444;stop-opacity:0.8714"/>
		<stop  offset="0.2473" style="stop-color:#767676;stop-opacity:0.7527"/>
		<stop  offset="0.3668" style="stop-color:#A0A0A0;stop-opacity:0.6332"/>
		<stop  offset="0.4876" style="stop-color:#C2C2C2;stop-opacity:0.5124"/>
		<stop  offset="0.61" style="stop-color:#DDDDDD;stop-opacity:0.39"/>
		<stop  offset="0.7346" style="stop-color:#F0F0F0;stop-opacity:0.2654"/>
		<stop  offset="0.8628" style="stop-color:#FBFBFB;stop-opacity:0.1372"/>
		<stop  offset="1" style="stop-color:#FFFFFF;stop-opacity:0"/>
	</radialGradient>
	<path class="st2" d="M70.1,81.2c0,1.2-14.6,2.3-32.5,2.3S5,82.5,5,81.2C5,80,19.6,79,37.6,79S70.1,80,70.1,81.2z"/>
	<g>
		<polygon class="st0" points="47.7,56.9 47.7,53.1 37.5,47.2 29.9,51.6 52.7,64.8 52.7,67.6 37.6,76.3 22.4,67.6 22.4,61.9 
			18.1,59.4 18.1,70.1 37.5,81.3 56.8,70.1 56.8,62.2 		"/>
		<polygon class="st0" points="52.7,50.2 52.7,50.2 37.6,41.5 22.4,50.2 22.4,50.2 37.6,41.5 		"/>
	</g>
	<polygon class="st1" points="37.6,36.5 18.1,47.7 18.1,56.2 27.2,61.5 27.2,61.5 27.2,61.5 27.2,61.5 27.2,64.8 37.5,70.6 
		44.7,66.5 22.4,53.6 22.4,50.2 37.6,41.5 52.7,50.2 52.7,55.9 57,58.4 57,47.7 	"/>
</g>
</svg>
