<?xml version="1.0" encoding="utf-8"?>
<!-- Generator: Adobe Illustrator 15.0.2, SVG Export Plug-In . SVG Version: 6.00 Build 0)  -->
<!DOCTYPE svg PUBLIC "-//W3C//DTD SVG 1.1//EN" "http://www.w3.org/Graphics/SVG/1.1/DTD/svg11.dtd">
<svg version="1.1" id="Layer_1" xmlns="http://www.w3.org/2000/svg" xmlns:xlink="http://www.w3.org/1999/xlink" x="0px" y="0px"
	 width="14173.23px" height="14173.23px" viewBox="0 0 14173.23 14173.23" enable-background="new 0 0 14173.23 14173.23"
	 xml:space="preserve">
<g>
	<g>
		<polygon fill="#6EAADC" points="5527.561,6677.242 5527.561,7986.741 7086.615,8886.857 8220.668,8232.114 		"/>
		<polygon fill="#6EAADC" points="7086.617,3633.422 4096.064,5360.018 4096.064,6571.439 4762.205,6956.037 4762.205,5744.615 
			7086.617,4402.616 9411.023,5744.615 9411.023,6628.686 10077.164,7013.283 10077.164,5360.02 		"/>
		
			<rect x="4104.13" y="6541.363" transform="matrix(-0.866 -0.5 0.5 -0.866 6292.1797 15392.8008)" fill="#6EAADC" width="2208.512" height="624.047"/>
	</g>
	<g>
		<polygon fill="#5892CD" points="8645.67,7495.992 8645.67,6186.494 7086.617,5286.373 5952.559,5941.121 		"/>
		<polygon fill="#5892CD" points="9411.023,8428.615 7086.613,9770.611 4762.205,8428.615 4762.205,7544.934 4096.064,7160.338 
			4096.064,8813.213 7086.615,10539.807 10077.164,8813.213 10077.164,7602.18 9411.023,7217.582 		"/>
		
			<rect x="7860.588" y="7008.355" transform="matrix(-0.866 -0.5 0.5 -0.866 13068.3008 18142.4844)" fill="#5892CD" width="2208.51" height="624.045"/>
	</g>
</g>
</svg>
