<?xml version="1.0" encoding="utf-8"?>
<!-- Generator: Adobe Illustrator 19.1.0, SVG Export Plug-In . SVG Version: 6.00 Build 0)  -->
<svg version="1.1" id="Layer_1" xmlns="http://www.w3.org/2000/svg" xmlns:xlink="http://www.w3.org/1999/xlink" x="0px" y="0px"
	 viewBox="0 0 414 414" style="enable-background:new 0 0 414 414;" xml:space="preserve">
<style type="text/css">
	.st0{opacity:0.2;fill:url(#XMLID_2_);}
	.st1{fill:#5592D7;}
	.st2{fill:#C9C9CC;}
	.st3{fill:#B2B2B2;}
	.st4{fill:#EDEDED;}
	.st5{fill:#DBDBDB;}
	.st6{fill:#FFFFFF;}
	.st7{opacity:0.8;fill:#F9CB64;}
	.st8{opacity:0.6;fill:#FFD958;}
</style>
<g>
	
		<radialGradient id="XMLID_2_" cx="-3132.7603" cy="3541.9172" r="210.9014" gradientTransform="matrix(0.7071 0.7071 -0.7071 0.7071 4923.1167 -102.2625)" gradientUnits="userSpaceOnUse">
		<stop  offset="0" style="stop-color:#5592D7;stop-opacity:0.3"/>
		<stop  offset="0.9188" style="stop-color:#5592D7;stop-opacity:0.9431"/>
		<stop  offset="1" style="stop-color:#5592D7"/>
	</radialGradient>
	<path id="XMLID_362_" class="st0" d="M350.9,30.1c-2.9,2.9-4.1,6.7-3.7,10.5l-50.7,10.5c-0.6-1.9-1.6-3.7-3.1-5.3
		c-5.1-5.1-13.2-5.1-18.3,0c-0.5,0.5-1,1.1-1.4,1.7l-48.7-27.6c2.1-4.7,1.2-10.5-2.7-14.4c-5.1-5.1-13.2-5.1-18.3,0
		c-2.3,2.3-3.5,5.3-3.7,8.3L132,16.2c-0.4-2.7-1.5-5.3-3.6-7.4c-5.1-5.1-13.2-5.1-18.3,0c-5.1,5.1-5.1,13.2,0,18.3
		c1.7,1.7,3.7,2.7,5.8,3.3L102.4,112c-3.1,0.2-6.1,1.4-8.4,3.7c-2.7,2.7-3.9,6.2-3.7,9.7L27,143.2c-0.6-1.6-1.6-3.1-2.9-4.4
		c-5.1-5.1-13.2-5.1-18.3,0c-5.1,5.1-5.1,13.2,0,18.3c2.4,2.4,5.5,3.6,8.6,3.7l2.9,47.6c-2.6,0.4-5.1,1.6-7.1,3.6
		c-5.1,5.1-5.1,13.2,0,18.3c5.1,5.1,13.2,5.1,18.3,0c0.1-0.1,0.2-0.3,0.3-0.4L61,253.9c-3,5-2.4,11.5,1.9,15.8
		c1.1,1.1,2.4,1.9,3.7,2.6L49.4,322c-4.2-1-8.8,0.1-12.1,3.4c-5.1,5.1-5.1,13.2,0,18.3c5.1,5.1,13.2,5.1,18.3,0
		c2.1-2.1,3.2-4.7,3.6-7.3l72.8,3c0.2,3,1.4,6.1,3.7,8.4c4.8,4.8,12.4,5,17.5,0.7l44.5,43c-4,5.1-3.7,12.4,1,17.1
		c5.1,5.1,13.2,5.1,18.3,0c3.9-3.9,4.8-9.8,2.6-14.6l67.6-40c0.4,0.5,0.8,1,1.2,1.5c5.1,5.1,13.2,5.1,18.3,0
		c4.9-4.9,5-12.8,0.3-17.9l84.7-95.7c5.1,3.6,12.1,3.2,16.7-1.3c5.1-5.1,5.1-13.2,0-18.3c-2.9-2.9-6.9-4.1-10.8-3.6l-15-64.7
		c1.8-0.6,3.5-1.6,4.9-3c5.1-5.1,5.1-13.2,0-18.3c-2.8-2.8-6.4-4-10-3.7l-13.9-77.2c2-0.6,4-1.6,5.6-3.2c5.1-5.1,5.1-13.2,0-18.3
		C364.1,25,355.9,25,350.9,30.1z M312.5,218.2c-2.6-1.8-5.7-2.5-8.7-2.2L290,148.8c1.9-0.6,3.8-1.6,5.3-3.1c2-2,3.2-4.5,3.6-7.1
		l66.6,3.7c0.1,3.1,1.3,6.1,3.7,8.5L312.5,218.2z M389.7,240.1L305,335.8c-1.6-1.2-3.5-2-5.4-2.3l6-91.8c3.2-0.1,6.3-1.3,8.7-3.7
		c2.1-2.1,3.3-4.8,3.6-7.5l68.4,1.9C386.6,235.1,387.7,237.9,389.7,240.1z M199.5,389.5l-44.5-43c2.7-3.4,3.4-7.7,2.2-11.7
		l62.3-25.7c0.6,1.1,1.3,2.1,2.2,3.1c1.4,1.4,3.1,2.4,4.9,3l-17.1,71.3C206,386.1,202.4,387.1,199.5,389.5z M28.7,212.3l66.9-76.9
		c0.9,0.6,1.8,1.1,2.7,1.5l-12.1,43.3c-4-0.7-8.3,0.5-11.4,3.6c-3.5,3.5-4.5,8.6-3.1,13.1l-41.3,18C30.1,213.9,29.5,213,28.7,212.3z
		 M205,24.6c1.7,1.4,3.6,2.4,5.6,2.8L204.2,90c-3.3,0-6.7,1.2-9.2,3.8c-2.9,2.9-4.1,6.8-3.6,10.6l-76,16.5c-0.6-1.9-1.6-3.7-3.1-5.2
		c-0.1-0.1-0.2-0.2-0.3-0.3L205,24.6z M283.3,67.8l1.3,56c-2.8,0.3-5.4,1.5-7.6,3.6c-0.9,0.9-1.6,2-2.2,3.1l-58.3-23.9
		c0.9-3,0.7-6.3-0.7-9.1l58.1-34.8c0.4,0.5,0.7,1,1.2,1.5C277.4,66.4,280.3,67.6,283.3,67.8z M239,293.1c-2-1.6-4.4-2.6-6.8-2.8
		l0.3-58.2c2.9-0.3,5.7-1.5,7.9-3.7c1.8-1.8,2.9-3.9,3.4-6.2l48.5,6.2c-0.1,3,0.9,6.1,3,8.6L239,293.1z M147.5,325.9l6.1-58.6
		c3.3,0,6.7-1.2,9.2-3.8c0.4-0.4,0.7-0.8,1-1.2l55.5,35c-1.5,3-1.7,6.3-0.8,9.4l-62.3,25.7c-0.6-1.1-1.3-2.1-2.2-3.1
		C152.1,327.6,149.9,326.4,147.5,325.9z M82.9,253.5l74.8-60.3c0,0,0,0,0.1,0.1c1.6,1.6,3.5,2.6,5.5,3.2l-8.5,45.1
		c-3.7-0.3-7.4,0.9-10.2,3.7c-2.4,2.4-3.7,5.6-3.8,8.8l-56,4.3C84.5,256.7,83.8,255,82.9,253.5z M88.8,180.9l12.1-43.3
		c3.7,0.6,7.7-0.4,10.7-3l44.9,41.8c-1.8,2.3-2.7,5.1-2.7,7.9l-57.1,6.1c-0.5-2.4-1.7-4.7-3.5-6.5C91.9,182.5,90.4,181.5,88.8,180.9
		z M229.6,290.2c-2.9,0.3-5.7,1.5-7.9,3.7c-0.4,0.4-0.7,0.8-1,1.2l-55.5-35c1.5-3.1,1.8-6.6,0.7-9.9l54.2-24.6c0.6,1,1.2,1.9,2,2.7
		c2.2,2.2,5,3.4,7.8,3.7L229.6,290.2z M176,193.3c0.6-0.6,1.1-1.2,1.5-1.9l41.8,22.8c-1.2,2.9-1.3,6.2-0.3,9.1l-54.2,24.6
		c-0.6-1-1.2-1.9-2-2.7c-1.6-1.6-3.5-2.6-5.5-3.2l8.5-45.1C169.4,197.3,173.2,196.1,176,193.3z M222.1,210.1
		c-0.6,0.6-1.1,1.2-1.5,1.9l-41.8-22.8c1.1-2.7,1.3-5.7,0.5-8.6l95.5-38.1c0.6,1.1,1.3,2.2,2.3,3.2c0.3,0.3,0.7,0.5,1,0.8
		l-40.7,61.4C232.3,205.3,226.2,206,222.1,210.1z M273.7,140.1l-95.5,38.1c-0.6-1.1-1.3-2.2-2.3-3.2c-0.8-0.8-1.7-1.4-2.6-2
		l26.6-57.9c4.5,1.5,9.7,0.6,13.3-3c0.9-0.9,1.6-2,2.2-3.1l58.3,23.9C273.1,135.2,273.1,137.7,273.7,140.1z M197.6,114L171,171.9
		c-4.3-1.5-9.1-0.6-12.7,2.5l-44.9-41.8c2.1-2.7,2.9-6,2.5-9.2l76-16.5c0.6,1.9,1.6,3.7,3.1,5.2C195.8,112.8,196.7,113.5,197.6,114z
		 M296,219.6c-1.8,1.8-2.9,3.9-3.4,6.2l-48.5-6.2c0.1-3.4-1.1-6.9-3.8-9.5c-0.3-0.3-0.7-0.5-1-0.8l40.7-61.4
		c2.3,1.2,4.8,1.7,7.3,1.4l13.9,67.1C299.4,217.1,297.5,218.1,296,219.6z M93.3,202.1c2.5-2.5,3.8-5.9,3.8-9.2l57.1-6.1
		c0.3,1.6,0.9,3.1,1.8,4.4l-74.8,60.3c0,0,0,0-0.1-0.1c-1.6-1.6-3.6-2.7-5.6-3.2l7.6-42.5C86.8,206,90.5,204.8,93.3,202.1z
		 M81.7,269.1c2.1-2.3,3.1-5.2,3.2-8.2l56-4.3c0.4,2.5,1.6,4.9,3.6,6.9c1.9,1.9,4.1,3,6.5,3.5l-6.1,58.6c-2.8,0-5.5,0.9-7.9,2.7
		L81.7,269.1z M240.8,294.9l56.2-56.1c1.8,1.4,3.8,2.4,5.9,2.7l-6,91.8c-3.2,0.1-6.3,1.3-8.7,3.7c-0.3,0.3-0.6,0.7-0.9,1.1
		l-45.1-29.2C244.6,304.5,244.1,299,240.8,294.9z M365.6,139.7L299,136c-0.1-3.1-1.4-6.2-3.7-8.6c-2.3-2.3-5.2-3.5-8.1-3.7l-1.3-56
		c2.5-0.3,4.9-1.4,7-3.1l75.2,69.3C366.7,135.6,365.9,137.6,365.6,139.7z M272.5,49.7c-1.5,3.4-1.4,7.3,0.1,10.7l-58.1,34.8
		c-0.4-0.5-0.7-1-1.2-1.5c-1.9-1.9-4.1-3-6.5-3.5l6.5-62.6c3.3,0,6.7-1.2,9.2-3.8c0.5-0.5,1-1.1,1.4-1.7L272.5,49.7z M128.4,27.1
		c2.3-2.3,3.5-5.3,3.7-8.3l68.4-2.4c0.3,2.3,1.2,4.4,2.7,6.3l-93.3,91.1c-1.5-0.9-3.2-1.5-4.9-1.8l13.4-81.2
		C122,31.1,125.7,29.9,128.4,27.1z M90.6,128c0.5,2.1,1.5,4,3.1,5.7l-66.9,76.9c-2.1-1.5-4.5-2.3-6.9-2.4L17,160.6
		c2.6-0.4,5.1-1.6,7.1-3.6c3.1-3.1,4.3-7.4,3.6-11.4L90.6,128z M30.4,227.8c1.9-3.2,2.3-7.1,1.2-10.6l41.3-18c0.6,1,1.2,2,2.1,2.8
		c1.6,1.6,3.6,2.7,5.6,3.2L73,247.8c-3.6-0.3-7.3,0.9-10.1,3.7c-0.1,0.1-0.2,0.3-0.3,0.4L30.4,227.8z M69,273.2
		c3.7,0.9,7.6,0.1,10.8-2.3l55.3,59.2c-1.7,1.9-2.7,4.3-3.1,6.7l-72.8-3c-0.2-3-1.4-6.1-3.7-8.4c-1.1-1.1-2.4-1.9-3.7-2.6L69,273.2z
		 M218.2,391.7c-0.4-0.5-0.8-1-1.2-1.5c-1.4-1.4-3.1-2.4-4.9-3l17.1-71.3c3.9,0.5,7.9-0.7,10.9-3.6c0.3-0.3,0.6-0.7,0.9-1.1
		l45.1,29.2c-1.8,3.5-1.9,7.7-0.2,11.3L218.2,391.7z M395,219.1c-1.8,0.6-3.5,1.6-5,3.1c-2.1,2.1-3.3,4.8-3.6,7.5l-68.4-1.9
		c-0.2-2.9-1.4-5.7-3.5-8l56.7-67.4c2.7,1.8,5.9,2.4,8.9,2L395,219.1z M374.9,129.3c-1.8,0.5-3.6,1.4-5.1,2.7l-75.2-69.3
		c2-2.7,2.8-5.9,2.5-9.1l50.7-10.5c0.6,1.9,1.6,3.7,3.1,5.3c2.8,2.8,6.5,4,10.1,3.7L374.9,129.3z"/>
	<g>
		<path d="M320.3,251.3h-232v-134c0-2.8,2.3-5.2,5.2-5.2h221.6c2.8,0,5.2,2.3,5.2,5.2V251.3z"/>
		<rect x="97.6" y="121.4" class="st1" width="213.4" height="120.6"/>
		<path class="st2" d="M315.2,271.9H93.5c-2.8,0-5.2-2.3-5.2-5.2v-15.5h232v15.5C320.3,269.6,318,271.9,315.2,271.9z"/>
		<polygon class="st2" points="225.5,295.7 183.2,295.7 185.3,271.9 223.4,271.9 		"/>
		<rect x="168.8" y="295.7" class="st2" width="71.1" height="6.2"/>
		<circle cx="204.3" cy="261.6" r="5.2"/>
		<polygon class="st3" points="224.4,285.4 223.4,271.9 185.3,271.9 184.2,281.2 		"/>
		<circle class="st4" cx="204.3" cy="181.7" r="36.5"/>
		<polygon class="st1" points="217.9,171.1 201.2,187.9 192.7,179.4 188.5,183.6 197,192.1 197,192.1 201.2,196.3 205.5,192.1 
			222.2,175.4 		"/>
	</g>
	<g>
		<g>
			<path class="st2" d="M81.6,250.9v-32c0-14.9,12.1-27,27-27v-10c-20.4,0-37,16.6-37,37v42h37v-10H81.6z"/>
			<path class="st5" d="M106.6,181.9l1,10c14.9,0,28,12.1,28,27v32h-27v10h37v-42C145.6,198.6,127,181.9,106.6,181.9z"/>
		</g>
		<g>
			<path class="st6" d="M113.6,313.9h-48c-2.8,0-5-2.3-5-5v-69c0-2.8,2.3-5,5-5h48V313.9z"/>
			<path class="st7" d="M113.6,313.9h-48c-2.8,0-5-2.3-5-5v-69c0-2.8,2.3-5,5-5h48V313.9z"/>
			<path class="st6" d="M110.6,313.9h41c2.8,0,5-2.3,5-5v-69c0-2.8-2.3-5-5-5h-45L110.6,313.9z"/>
			<path class="st8" d="M110.6,313.9h41c2.8,0,5-2.3,5-5v-69c0-2.8-2.3-5-5-5h-45L110.6,313.9z"/>
		</g>
		<g>
			<circle cx="108.6" cy="268.9" r="12"/>
			<rect x="103.6" y="267.9" width="10" height="28"/>
		</g>
	</g>
</g>
</svg>
