<?xml version="1.0" encoding="utf-8"?>
<!-- Generator: Adobe Illustrator 19.1.0, SVG Export Plug-In . SVG Version: 6.00 Build 0)  -->
<svg version="1.1" id="Layer_1" xmlns="http://www.w3.org/2000/svg" xmlns:xlink="http://www.w3.org/1999/xlink" x="0px" y="0px"
	 viewBox="-265.2 506.7 440 420" style="enable-background:new -265.2 506.7 440 420;" xml:space="preserve">
<style type="text/css">
	.st0{fill:url(#SVGID_1_);}
	.st1{fill:#424242;}
	.st2{fill:#262626;}
	.st3{fill:#C9C9CC;}
	.st4{fill:#5592D7;}
	.st5{fill:#E2E2E2;}
	.st6{fill:#FFFFFF;}
	.st7{opacity:0.6;fill:#FFFFFF;}
	.st8{opacity:0.2;fill:#FFFFFF;}
	.st9{fill:#898989;}
	.st10{fill:#FFB600;}
	.st11{fill:#DCDAD9;}
	.st12{fill:#474747;}
</style>
<g>
	<g>
		<radialGradient id="SVGID_1_" cx="34.4507" cy="697.5" r="159.5491" gradientUnits="userSpaceOnUse">
			<stop  offset="0" style="stop-color:#5592D7"/>
			<stop  offset="1" style="stop-color:#5592D7;stop-opacity:0"/>
		</radialGradient>
		<path class="st0" d="M71.6,544.2c-2.6,0.5-4.9,1.9-6.5,3.8l-47.4-32h-4l50,33.8c-0.8,1.5-1.3,3.2-1.3,5.1l-90,6.8
			c-0.5-2.7-1.9-5.1-3.9-6.7l26-39h-2.7l-25.2,37.7c-1.6-0.8-3.4-1.3-5.3-1.3c-6.2,0-11.3,5-11.3,11.3c0,0.9,0.1,1.7,0.3,2.5
			L-96.2,582c-0.8-1.7-1.9-3.1-3.4-4.2v17.6c2.8-2,4.6-5.3,4.6-9.1c0-0.9-0.1-1.7-0.3-2.5l46.7-15.9c1.8,3.9,5.7,6.6,10.2,6.6
			c1.8,0,3.4-0.4,4.9-1.1l10.1,32.2c-2.7,2.1-4.4,5.3-4.4,8.9c0,6.2,5,11.2,11.3,11.2c0.7,0,1.4-0.1,2.1-0.2l45.1,62.7
			c-2.7,2.1-4.5,5.3-4.5,9c0,2.4,0.7,4.5,2,6.4L-15,745.9c-1.3-0.6-2.7-1-4.3-1.1c-0.2,0-0.4,0-0.6,0c-1.6,0-3,0.3-4.4,0.9
			c-1,0.4-1.9,1-2.8,1.7c-0.8,0.7-1.6,1.5-2.2,2.4c-1.2,1.8-1.9,4-1.9,6.3c0,0.4,0,0.8,0.1,1.2c0,0.1,0,0.2,0,0.3
			c0,0.3,0.1,0.6,0.1,0.8c0,0.1,0.1,0.2,0.1,0.3c0.1,0.3,0.1,0.5,0.2,0.8c0,0.1,0.1,0.2,0.1,0.3c0.1,0.3,0.2,0.6,0.3,0.8
			c0,0.1,0.1,0.1,0.1,0.2c0.1,0.3,0.3,0.6,0.4,0.8l0.1,0.1c0.2,0.3,0.4,0.6,0.6,0.8c0,0,0,0.1,0.1,0.1c0.2,0.3,0.4,0.6,0.7,0.8
			c0.3,0.3,0.5,0.5,0.8,0.8l1.5,49.3c-1.7-1-3.6-1.5-5.6-1.5c-6.2,0-11.3,5-11.3,11.3c0,1,0.2,2,0.4,3l-46.3,18
			c-1.9-3.6-5.6-6.1-10-6.1c-0.3,0-0.5,0-0.8,0v22.9c0.2,0,0.5,0,0.7,0c1.2,0,2.3-0.2,3.4-0.5l8,18.3h2.4l-8.4-19.3
			c3.4-1.9,5.8-5.6,5.8-9.8c0-1-0.2-2-0.4-3l46.3-18c1.1,2.2,2.9,4,5.2,5L-52.8,879h2.4l15.9-44.3c0.9,0.2,1.8,0.3,2.7,0.3
			c1.5,0,2.9-0.3,4.2-0.8L-6.2,875c-1.5,1-2.8,2.4-3.7,4H9.8c-0.3-0.6-0.7-1.2-1.1-1.7l45.6-45.1c1.9,1.6,4.4,2.6,7.2,2.6
			c1.3,0,2.5-0.2,3.7-0.6L86,879h2.6l-21.3-45.9c3.2-1.9,5.4-5.3,5.5-9.3l54.7-3.6c0.5,3,2.2,5.6,4.6,7.3l-29,51.5h2.3l28.6-50.6
			c1.4,0.6,2.9,1,4.5,1c6.2,0,11.3-5,11.3-11.3c0-5-3.3-9.3-7.9-10.7l14.2-67.5c0.4,0,0.8,0.1,1.2,0.1c6.2,0,11.3-5,11.3-11.3
			c0.1-6.3-4.9-11.3-11.1-11.4l-11-111.8c5.2-1,9-5.6,9-11c0-6.2-5-11.3-11.3-11.3c-3.8,0-7.1,1.9-9.2,4.8L84,559.2
			c0.6-1.4,1-2.9,1-4.5c0-6.2-5-11.2-11.1-11.2L71.5,516h-2.4L71.6,544.2z M-16.7,603.6c-1.8,0-3.4,0.4-4.9,1.1l-10.1-32.2
			c2.6-2,4.3-5.1,4.4-8.7l90-6.8c0.4,2.3,1.5,4.4,3.1,6l-76.3,42.4C-12.3,604.3-14.4,603.6-16.7,603.6z M-12.5,625.2
			c3.1-1.2,5.4-3.8,6.5-6.9l81.4,34.8c0,0.4-0.1,0.8-0.1,1.3c0,2.2,0.7,4.3,1.8,6l-32.3,28.3c0,0,0,0-0.1,0.1
			c-2-1.8-4.6-2.9-7.5-2.9c-1.9,0-3.7,0.5-5.2,1.3L-12.5,625.2z M146.1,730.8l-45.7,11.8c-1.5-4.1-5.3-7-9.8-7.3L88,665.5
			c2-0.3,3.8-1.1,5.3-2.2l55.4,58.5c-1.7,2-2.7,4.5-2.7,7.3C146,729.6,146.1,730.2,146.1,730.8z M88.4,735.3
			c-2.5,0.3-4.7,1.5-6.4,3.2l-35.7-34.7c1.4-1.9,2.2-4.2,2.2-6.7s-0.8-4.8-2.2-6.7l32.1-28.3c1.9,2,4.5,3.2,7.4,3.4L88.4,735.3z
			 M29.5,705.3c2,1.9,4.7,3.1,7.8,3.1c2.9,0,5.5-1.1,7.5-2.9l35.8,34.8c-1.2,1.8-1.9,3.9-1.9,6.2c0,0.8,0.1,1.7,0.3,2.5l-88.9,2.8
			c-0.7-1.6-1.9-3.1-3.2-4.2L29.5,705.3z M-25.2,766.4c0,0,0.1,0,0.1,0.1c0.3,0.2,0.7,0.3,1,0.4c0.1,0,0.2,0.1,0.3,0.1
			c0.2,0.1,0.3,0.1,0.5,0.1c0.2,0.1,0.4,0.1,0.6,0.2c0.1,0,0.3,0.1,0.4,0.1c0.3,0.1,0.5,0.1,0.8,0.1c0.1,0,0.2,0,0.3,0
			c0.3,0,0.7,0.1,1,0.1c0.4,0,0.8,0,1.1-0.1c0.2,0,0.4-0.1,0.6-0.1s0.3,0,0.5-0.1c0.3-0.1,0.5-0.1,0.8-0.2c0.1,0,0.2,0,0.3-0.1
			c0.3-0.1,0.6-0.2,0.9-0.3h0.1c0.3-0.1,0.6-0.3,1-0.5c1-0.5,1.8-1.2,2.6-1.9l64.4,52.9c-1,1.5-1.7,3.3-1.9,5.2l-70.9,0.2
			c-0.3-2.9-1.7-5.4-3.7-7.2l-1.5-49.3C-25.6,766.2-25.4,766.3-25.2,766.4z M7.2,875.7c-1.9-1.6-4.4-2.6-7.2-2.6
			c-1.5,0-2.9,0.3-4.2,0.8l-21.4-40.8c2.8-1.8,4.7-4.8,5-8.3l70.9-0.2c0.2,2.4,1.1,4.4,2.5,6L7.2,875.7z M64.3,812.7
			c-0.9-0.2-1.8-0.4-2.8-0.4c-3.1,0-5.9,1.2-7.9,3.2l-64.4-52.9c0.2-0.3,0.3-0.5,0.5-0.8c0.1-0.1,0.1-0.2,0.2-0.3
			c0.1-0.2,0.2-0.4,0.3-0.6c0-0.1,0.1-0.2,0.1-0.3c0.1-0.3,0.2-0.6,0.3-0.9c0,0,0,0,0-0.1c0.1-0.3,0.2-0.6,0.2-1
			c0-0.1,0-0.2,0.1-0.3c0-0.2,0.1-0.5,0.1-0.7c0-0.1,0-0.2,0-0.3c0-0.3,0.1-0.7,0.1-1c0-0.3-0.1-0.7-0.1-1.2
			c-0.1-0.4-0.1-0.8-0.2-1.2l88.9-2.8c1.1,2.4,3,4.4,5.3,5.5L64.3,812.7z M127.3,818.3l-54.7,3.6c-0.6-3.6-3-6.7-6.2-8.2l20.7-56.3
			c0.9,0.2,1.8,0.4,2.8,0.4c1.9,0,3.7-0.5,5.3-1.3l36.1,53.5C128.9,812,127.4,814.9,127.3,818.3z M139.7,807.3
			c-0.4,0-0.8-0.1-1.2-0.1c-1.9,0-3.7,0.5-5.3,1.3L97.1,755c2.5-2.1,4.1-5.2,4.1-8.6c0-0.6-0.1-1.2-0.1-1.7l45.7-11.8
			c1.2,3.2,3.8,5.8,7.1,6.8L139.7,807.3z M137,603.9c1.9,1.5,4.3,2.4,7,2.4l11,111.8c-1.7,0.3-3.3,1-4.6,2.1L95,661.7
			c1.7-2,2.7-4.5,2.7-7.3c0-2.8-1-5.3-2.7-7.2L137,603.9z M82.9,561.6l50.9,28.8c-0.6,1.4-1,2.9-1,4.5c0,2.8,1,5.3,2.7,7.2l-42,43.3
			c-1.9-1.5-4.3-2.4-7-2.4c-0.1,0-0.2,0-0.3,0l-9.9-77C79,565.4,81.4,563.8,82.9,561.6z M74,566.4l9.9,77c-3.9,0.9-6.9,3.8-8.2,7.5
			l-81.4-34.8c0-0.4,0.1-0.8,0.1-1.3c0-3.1-1.3-5.9-3.3-7.9l76.3-42.4c1.9,1.2,4,1.9,6.3,1.9C73.8,566.4,73.9,566.4,74,566.4z"/>
	</g>
	<g>
		<g>
			<path class="st1" d="M-27.2,917.4h-227.3c-2.5,0-4.5-2-4.5-4.5V581.4c0-2.5,2-4.5,4.5-4.5h227.3c2.5,0,4.5,2,4.5,4.5v331.5
				C-22.7,915.4-24.8,917.4-27.2,917.4z"/>
			<path class="st2" d="M-35.7,773.4c-5.7-2-9.6-7.4-9.5-13.4c0-2.1,0.6-4,1.4-5.8c10.1-16.9,15.8-36.6,15.8-57.7
				c0-21.8-6.2-42.1-16.8-59.3l9.3-6.5l-0.1-0.1c2.1-2,3.6-4.6,4.1-7.6c1.4-7.5-3.7-14.8-11.2-16.1c-3-0.5-6-0.1-8.5,1.2l-0.1-0.1
				l-10.9,7.6c-20.3-19.7-48-31.9-78.6-31.9c-2.8,0-5.6,0.1-8.3,0.3l0.4-0.3h-68.7l-30.4,25.5l-2.8,19.6c-0.6,4.1,1,8.3,4.1,11.1
				l5.4,4.7c-8.1,15.6-12.7,33.2-12.7,52c0,21.1,5.8,40.8,15.8,57.7c0.9,1.8,1.4,3.9,1.4,6.1c0,7.7-6.2,13.9-13.9,13.9
				c-0.6,0-1.3-0.1-1.9-0.1v94.3c0,1.2,0.4,2.3,1.3,3.1l33.7,35.1c1.1,1.2,2.7,1.8,4.3,1.8h58.5c1.4-6.2,6.9-10.9,13.5-10.9
				c6.6,0,12.2,4.7,13.5,10.9h59.3c1.6,0,3.2-0.7,4.3-1.8l33.7-35.1c0.8-0.8,1.3-2,1.3-3.1v-94.4C-30.9,774.3-33.3,774.2-35.7,773.4
				z"/>
			<circle class="st3" cx="-248.9" cy="761.1" r="3.3"/>
			<circle class="st3" cx="-32.8" cy="761.1" r="3.3"/>
			<circle class="st3" cx="-36.5" cy="903.6" r="3.3"/>
			<circle class="st3" cx="-245.2" cy="903.6" r="3.3"/>
			<circle class="st3" cx="-36.5" cy="590.4" r="3.3"/>
			<circle class="st3" cx="-245.2" cy="590.4" r="3.3"/>
			<circle class="st3" cx="-140.9" cy="907.3" r="3.3"/>
		</g>
		<g>
			<circle class="st4" cx="-140.9" cy="696.5" r="109.4"/>
			<g>
				<path class="st5" d="M-140.9,696.5l93.1-57.6c-4.4-7-9.6-13.7-15.7-19.8c-42.7-42.7-112-42.7-154.8,0
					c-42.8,42.7-42.7,112,0,154.8c42.7,42.7,112,42.7,154.8,0c6.1-6.1,11.3-12.7,15.6-19.7L-140.9,696.5z"/>
			</g>
			<path class="st4" d="M37.3,686c-5.1,0-9.4,3.4-10.7,8c-20.3-4.1-39.6-14-55.3-29.8c-7.7-7.7-14.1-16.3-19-25.5l-0.1,0.1v0.1
				c0,0,0-0.1-0.1-0.1l-93,57.6l93,57.7c0-0.1,0.1-0.1,0.1-0.2v0c0.1-0.1,0.2-0.3,0.2-0.4c0.8-1.3,1.5-2.5,2.2-3.8
				c4.5-7.4,10-14.4,16.3-20.9c15.8-15.8,35.1-25.6,55.4-29.8c0.9,5.2,5.5,9.2,11,9.2c6.2,0,11.1-5,11.1-11.1S43.5,686,37.3,686z"/>
			<g>
				<path class="st6" d="M-59.3,690v25.3L-80.6,703l0,0c-6.3-3.7-5.9-6-5.9-11l21.9,12.7v-11.6L-59.3,690z"/>
				<path class="st7" d="M-64.6,704.7L-86.5,692l21.3-12.3l0,0c6.3-3.6,8.1-2.1,12.5,0.4l-21.9,12.7l10,5.8L-64.6,704.7L-64.6,704.7
					z"/>
				<path class="st8" d="M-74.6,692.8l21.9-12.7v24.6l0,0c0,7.3-2.2,8.1-6.6,10.6V690l-10.1,5.8L-74.6,692.8z"/>
			</g>
		</g>
		<g>
			<circle class="st9" cx="-140.9" cy="696.5" r="31.1"/>
			<circle class="st3" cx="-140.9" cy="696.5" r="28.9"/>
			<circle class="st9" cx="-140.9" cy="696.5" r="13.9"/>
			<circle class="st1" cx="-140.9" cy="696.5" r="5.6"/>
		</g>
		<g>
			<g>
				<path class="st10" d="M-187.8,887.5l97.1-141.7c1.1-1.6,0.9-3.8-0.6-5.1l0,0c-1.4-1.3-3.6-1.4-5.1-0.2L-232,846
					c-1.3,1-1.8,2.6-1.4,4.2l0.2,0.6c5.4,19.4,21.1,34.1,40.8,38.2l0.6,0.1C-190.3,889.5-188.7,888.9-187.8,887.5z M-113.5,759.6
					c0.7-0.7,1.8-0.7,2.5-0.1l1.8,1.7c0.7,0.7,0.7,1.8,0.1,2.5l-1.7,1.8c-0.7,0.7-1.8,0.7-2.5,0.1l-1.8-1.7
					c-0.7-0.7-0.7-1.8-0.1-2.5L-113.5,759.6z M-125.7,770.4c1.4-1.5,3.8-1.6,5.3-0.2l1.1,1c1.5,1.4,1.6,3.8,0.2,5.3l-7.2,7.7
					c-1.4,1.5-3.8,1.6-5.3,0.2l-1.1-1c-1.5-1.4-1.6-3.8-0.2-5.3L-125.7,770.4z M-145.2,791.2c1.4-1.5,3.8-1.6,5.3-0.2l1.1,1
					c1.5,1.4,1.6,3.8,0.2,5.3l-7.2,7.7c-1.4,1.5-3.8,1.6-5.3,0.2l-1.1-1c-1.5-1.4-1.6-3.8-0.2-5.3L-145.2,791.2z M-192.5,881.4
					c-15.7-3.8-28.3-15.6-33.1-31.1l28.5-23.9c13.1,1.8,23.6,11.7,26.3,24.6l0,0L-192.5,881.4L-192.5,881.4z"/>
				<circle class="st11" cx="-168.6" cy="822.7" r="12.7"/>
				<circle class="st12" cx="-168.6" cy="822.7" r="3.7"/>
			</g>
			<path class="st9" d="M-162.4,852.1c-19.4,0-35-15.7-35-35v-8.6c0-4.5-3.6-8.1-8.1-8.1H-220h-13.6c-4.5,0-8.1,3.6-8.1,8.1v57
				c0,13.3,10.8,24.1,24.1,24.1h71.2c4.5,0,8.1-3.6,8.1-8.1v-21.3c0-4.5-3.6-8.1-8.1-8.1H-162.4z"/>
			<circle class="st3" cx="-148.5" cy="870.2" r="3.3"/>
			<circle class="st3" cx="-219.8" cy="810.1" r="3.3"/>
		</g>
	</g>
</g>
</svg>
