<?xml version="1.0" encoding="utf-8"?>
<!-- Generator: Adobe Illustrator 19.1.0, SVG Export Plug-In . SVG Version: 6.00 Build 0)  -->
<svg version="1.1" id="Layer_1" xmlns="http://www.w3.org/2000/svg" xmlns:xlink="http://www.w3.org/1999/xlink" x="0px" y="0px"
	 viewBox="0 0 25 25" style="enable-background:new 0 0 25 25;" xml:space="preserve">
<style type="text/css">
	.st0{fill:#FFFFFF;}
</style>
<g>
	<g>
		<rect x="10.9" y="10.8" transform="matrix(-0.3176 -0.9482 0.9482 -0.3176 4.6172 28.3228)" class="st0" width="3.2" height="3.3"/>
		<rect x="10.9" y="10.8" transform="matrix(-0.3176 -0.9482 0.9482 -0.3176 4.6172 28.3228)" class="st0" width="3.2" height="3.3"/>
		<path class="st0" d="M23.3,9.3c-2.4-8.1-5.9-10-14-7.6c-8.1,2.4-10,5.9-7.6,14c2.4,8.1,5.9,10,14,7.6
		C23.8,20.9,25.7,17.4,23.3,9.3z M19.2,14.5L17.7,15l0.5,1.6c0.2,0.6-0.1,1.3-0.8,1.5c-0.1,0-0.3,0.1-0.4,0.1c-0.5,0-1-0.3-1.1-0.8
		l-0.5-1.6l-3.2,1.1l0.5,1.6c0.2,0.6-0.1,1.3-0.8,1.5c-0.1,0-0.3,0.1-0.4,0.1c-0.5,0-1-0.3-1.1-0.8l-0.5-1.6l-1.5,0.5
		c-0.1,0-0.3,0.1-0.4,0.1c-0.5,0-1-0.3-1.1-0.8c-0.2-0.6,0.1-1.3,0.8-1.5l1.5-0.5l-1-3l-1.5,0.5c-0.1,0-0.3,0.1-0.4,0.1
		c-0.5,0-1-0.3-1.1-0.8c-0.2-0.6,0.1-1.3,0.8-1.5L7.3,10L6.8,8.4C6.6,7.7,6.9,7.1,7.6,6.8C8.2,6.6,8.9,7,9.1,7.6l0.5,1.6l3.2-1.1
		l-0.5-1.6C12,5.9,12.4,5.2,13,5c0.6-0.2,1.3,0.1,1.5,0.8l0.5,1.6l1.5-0.5C17.3,6.6,18,7,18.2,7.6c0.2,0.6-0.1,1.3-0.8,1.5
		l-1.5,0.5l1,3l1.5-0.5c0.6-0.2,1.3,0.1,1.5,0.8C20.2,13.6,19.8,14.3,19.2,14.5z"/>
	</g>
</g>
</svg>
