<?xml version="1.0" encoding="utf-8"?>
<!-- Generator: Adobe Illustrator 19.1.0, SVG Export Plug-In . SVG Version: 6.00 Build 0)  -->
<svg version="1.1" id="Layer_1" xmlns="http://www.w3.org/2000/svg" xmlns:xlink="http://www.w3.org/1999/xlink" x="0px" y="0px"
	 viewBox="0 0 432 390" style="enable-background:new 0 0 432 390;" xml:space="preserve">
<style type="text/css">
	.st0{fill:url(#SVGID_1_);}
	.st1{fill:#424242;}
	.st2{fill:#262626;}
	.st3{fill:#C9C9CC;}
	.st4{fill:#5592D7;}
	.st5{fill:#E2E2E2;}
	.st6{clip-path:url(#SVGID_3_);}
	.st7{fill:#FFFFFF;}
	.st8{opacity:0.6;fill:#FFFFFF;}
	.st9{opacity:0.2;fill:#FFFFFF;}
	.st10{fill:#898989;}
	.st11{fill:#FFB600;}
	.st12{fill:#DCDAD9;}
	.st13{fill:#474747;}
</style>
<g>
	<radialGradient id="SVGID_1_" cx="292.4896" cy="167.5397" r="151.8405" gradientUnits="userSpaceOnUse">
		<stop  offset="0" style="stop-color:#5592D7"/>
		<stop  offset="1" style="stop-color:#5592D7;stop-opacity:0"/>
	</radialGradient>
	<path class="st0" d="M418.6,187.5l-11-111.8c5.2-1,9-5.6,9-11c0-6.2-5-11.3-11.3-11.3c-3.8,0-7.1,1.9-9.2,4.8l-50.9-28.8
		c0.6-1.4,1-2.9,1-4.5c0-6.2-5-11.2-11.1-11.2l-0.6-7c-0.8-0.2-1.6-0.4-2.4-0.5l0.7,8.2c-2.6,0.5-4.9,1.9-6.5,3.8L303.3,2.5
		c-1.4,0-2.8-0.1-4.2-0.1L325,20c-0.8,1.5-1.3,3.2-1.3,5.1l-90,6.8c-0.5-2.7-1.9-5.1-3.9-6.7l7.6-11.4c-1.2,0.5-2.5,1-3.7,1.5
		l-5.8,8.6c-1.6-0.8-3.4-1.3-5.3-1.3c-6.2,0-11.3,5-11.3,11.3c0,0.9,0.1,1.7,0.3,2.5l-24.6,8.4c-1.1,1-2.2,2-3.3,3.1l28.8-9.8
		c1.8,3.9,5.7,6.6,10.2,6.6c1.8,0,3.4-0.4,4.9-1.1l10.1,32.2c-2.7,2.1-4.4,5.3-4.4,8.9c0,6.2,5,11.3,11.3,11.3
		c0.7,0,1.4-0.1,2.1-0.2l45.1,62.7c-2.7,2.1-4.5,5.3-4.5,9c0,2.4,0.7,4.5,2,6.4L245.9,216c-1.3-0.6-2.7-1-4.3-1.1
		c-0.2,0-0.4,0-0.6,0c-1.6,0-3,0.3-4.4,0.9c-1,0.4-1.9,1-2.8,1.7c-0.8,0.7-1.6,1.5-2.2,2.4c-1.2,1.8-1.9,4-1.9,6.3c0,0,0,0.1,0,0.1
		h-74.7v2h74.9c0,0.1,0,0.1,0,0.2c0,0.1,0.1,0.2,0.1,0.3c0.1,0.3,0.1,0.5,0.2,0.8c0,0.1,0.1,0.2,0.1,0.3c0.1,0.3,0.2,0.6,0.3,0.8
		c0,0.1,0.1,0.1,0.1,0.2c0.1,0.3,0.3,0.6,0.4,0.8c0,0,0.1,0.1,0.1,0.1c0.2,0.3,0.4,0.6,0.6,0.8c0,0,0,0.1,0.1,0.1
		c0.2,0.3,0.4,0.6,0.7,0.8c0,0,0,0,0,0c0.3,0.3,0.5,0.5,0.8,0.8l0,0l1.5,49.3c-1.7-1-3.6-1.5-5.6-1.5c-6.2,0-11.3,5-11.3,11.3
		c0,1,0.2,2,0.4,3l-16.4,6.4c0.9,0.6,1.7,1.2,2.6,1.8l14.5-5.7c1.1,2.2,2.9,4,5.2,5l-3.7,10.2c0.7,0.4,1.3,0.7,2,1l3.8-10.5
		c0.9,0.2,1.8,0.3,2.7,0.3c1.5,0,2.9-0.3,4.2-0.8l10.4,19.9c1,0.3,2,0.7,3.1,1l-11.5-21.9c2.8-1.8,4.7-4.8,5-8.3l70.9-0.2
		c0.2,2.2,1.1,4.3,2.4,5.9L282,332.4c1,0.1,2,0.2,2.9,0.3l30.6-30.2c1.9,1.6,4.4,2.6,7.2,2.6c1.3,0,2.5-0.2,3.7-0.6l11.1,23.9
		c0.7-0.2,1.5-0.4,2.2-0.6l-11.2-24.2c3.2-1.9,5.4-5.3,5.5-9.3l54.7-3.6c0.5,3,2.2,5.6,4.6,7.3l-4.4,7.7c1.3-0.9,2.6-1.8,3.9-2.7
		l2.5-4.4c0.8,0.3,1.6,0.6,2.5,0.8c4.6-3.5,9.1-7.3,13.3-11.3c-0.1-4.9-3.4-9-7.8-10.5l14.2-67.5c0.4,0,0.8,0.1,1.2,0.1
		c6.2,0,11.3-5,11.3-11.2C429.8,192.6,424.8,187.5,418.6,187.5z M344.1,31.8L395,60.6c-0.6,1.4-1,2.9-1,4.5c0,2.8,1,5.3,2.7,7.2
		l-42,43.3c-1.9-1.5-4.3-2.4-7-2.4c-0.1,0-0.2,0-0.3,0l-9.9-77C340.2,35.6,342.6,34,344.1,31.8z M407.3,201l-45.7,11.8
		c-1.5-4.1-5.3-7-9.8-7.3l-2.6-69.8c2-0.3,3.8-1.1,5.3-2.2l55.4,58.5c-1.7,2-2.7,4.5-2.7,7.3C407.2,199.8,407.3,200.4,407.3,201z
		 M307.5,160.6l32.1-28.3c1.9,2,4.5,3.2,7.4,3.4l2.6,69.8c-2.5,0.3-4.7,1.5-6.4,3.2L307.4,174c1.4-1.9,2.2-4.2,2.2-6.7
		C309.7,164.8,308.9,162.5,307.5,160.6z M334.9,36.6c0.1,0,0.2,0,0.3,0l9.9,77c-3.9,0.9-6.9,3.8-8.2,7.5l-81.4-34.8
		c0-0.4,0.1-0.8,0.1-1.3c0-3.1-1.3-5.9-3.3-7.9l76.3-42.4C330.5,35.9,332.6,36.6,334.9,36.6z M244.5,73.8c-1.8,0-3.4,0.4-4.9,1.1
		l-10.1-32.2c2.6-2,4.3-5.1,4.4-8.7l90-6.8c0.4,2.3,1.5,4.4,3.1,6l-76.3,42.4C248.9,74.4,246.8,73.8,244.5,73.8z M248.7,95.4
		c3.1-1.2,5.4-3.8,6.5-6.9l81.4,34.8c0,0.4-0.1,0.8-0.1,1.3c0,2.2,0.7,4.3,1.8,6L306,158.9l0,0c0,0,0,0-0.1,0.1
		c-2-1.8-4.6-2.9-7.5-2.9c-1.9,0-3.7,0.5-5.2,1.3L248.7,95.4z M290.7,175.4c2,1.9,4.7,3.1,7.8,3.1c2.9,0,5.5-1.1,7.5-2.9l35.8,34.8
		c-1.2,1.8-1.9,3.9-1.9,6.2c0,0.8,0.1,1.7,0.3,2.5l-88.9,2.8c-0.7-1.6-1.9-3.1-3.2-4.2L290.7,175.4z M311.5,292.7l-70.9,0.2
		c-0.3-2.9-1.7-5.4-3.7-7.2l-1.5-49.3c0.2,0.1,0.4,0.2,0.6,0.3c0,0,0.1,0,0.1,0.1c0.3,0.2,0.7,0.3,1,0.4c0.1,0,0.2,0.1,0.3,0.1
		c0.2,0.1,0.3,0.1,0.5,0.1c0.2,0.1,0.4,0.1,0.6,0.2c0.1,0,0.3,0.1,0.4,0.1c0.3,0.1,0.5,0.1,0.8,0.1c0.1,0,0.2,0,0.3,0
		c0.3,0,0.7,0.1,1,0.1c0.4,0,0.8,0,1.1-0.1c0.2,0,0.4-0.1,0.6-0.1c0.2,0,0.3,0,0.5-0.1c0.3-0.1,0.5-0.1,0.8-0.2c0.1,0,0.2,0,0.3-0.1
		c0.3-0.1,0.6-0.2,0.9-0.3c0,0,0.1,0,0.1,0c0.3-0.1,0.6-0.3,1-0.5c0,0,0,0,0,0c1-0.5,1.8-1.2,2.6-1.9l64.4,52.9
		C312.4,289,311.7,290.8,311.5,292.7z M325.5,282.9c-0.9-0.2-1.8-0.4-2.8-0.4c-3.1,0-5.9,1.2-7.9,3.2l-64.4-52.9
		c0.2-0.3,0.3-0.5,0.5-0.8c0.1-0.1,0.1-0.2,0.2-0.3c0.1-0.2,0.2-0.4,0.3-0.6c0-0.1,0.1-0.2,0.1-0.3c0.1-0.3,0.2-0.6,0.3-0.9
		c0,0,0,0,0-0.1c0.1-0.3,0.2-0.6,0.2-1c0-0.1,0-0.2,0.1-0.3c0-0.2,0.1-0.5,0.1-0.7c0-0.1,0-0.2,0-0.3c0-0.3,0.1-0.7,0.1-1
		c0-0.4,0-0.8-0.1-1.2c0,0,0,0,0,0c0-0.4-0.1-0.8-0.2-1.2l88.9-2.8c1.1,2.4,3,4.4,5.3,5.5L325.5,282.9z M388.5,288.3l-54.7,3.6
		c-0.6-3.6-3-6.7-6.2-8.2l20.7-56.1c0.9,0.2,1.8,0.4,2.8,0.4c1.9,0,3.7-0.5,5.3-1.3l36.1,53.5C390.1,282,388.6,285,388.5,288.3z
		 M400.9,277.5c-0.4,0-0.8-0.1-1.2-0.1c-1.9,0-3.7,0.5-5.3,1.3l-36.1-53.5c2.5-2.1,4.1-5.2,4.1-8.6c0-0.6-0.1-1.2-0.1-1.7l45.7-11.8
		c1.2,3.2,3.8,5.8,7.1,6.8L400.9,277.5z M411.6,190.4l-55.4-58.5c1.7-2,2.7-4.5,2.7-7.3c0-2.8-1-5.3-2.7-7.2l42-43.3
		c1.9,1.5,4.3,2.4,7,2.4l11,111.8C414.5,188.6,412.9,189.3,411.6,190.4z"/>
	<g>
		<g>
			<path class="st1" d="M234,387.6H6.7c-2.5,0-4.5-2-4.5-4.5V51.6c0-2.5,2-4.5,4.5-4.5H234c2.5,0,4.5,2,4.5,4.5v331.5
				C238.5,385.5,236.4,387.6,234,387.6z"/>
			<path class="st2" d="M225.5,243.5c-5.7-2-9.6-7.4-9.5-13.4c0-2.1,0.6-4,1.4-5.8c10.1-16.9,15.8-36.6,15.8-57.7
				c0-21.8-6.2-42.1-16.8-59.3l9.3-6.5l-0.1-0.1c2.1-2,3.6-4.6,4.1-7.6c1.4-7.5-3.7-14.8-11.2-16.1c-3-0.5-6-0.1-8.5,1.2l-0.1-0.1
				l-10.9,7.6c-20.3-19.7-48-31.9-78.6-31.9c-2.8,0-5.6,0.1-8.3,0.3l0.4-0.3H43.8L13.5,79.3l-2.8,19.6c-0.6,4.1,1,8.3,4.1,11.1
				l5.4,4.7c-8.1,15.6-12.7,33.2-12.7,52c0,21.1,5.8,40.8,15.8,57.7c0.9,1.8,1.4,3.9,1.4,6.1c0,7.7-6.2,13.9-13.9,13.9
				c-0.6,0-1.3-0.1-1.9-0.1v94.3c0,1.2,0.4,2.3,1.3,3.1l33.7,35.1c1.1,1.2,2.7,1.8,4.3,1.8h58.5c1.4-6.2,6.9-10.9,13.5-10.9
				c6.6,0,12.2,4.7,13.5,10.9h59.3c1.6,0,3.2-0.7,4.3-1.8l33.7-35.1c0.8-0.8,1.3-2,1.3-3.1v-94.4
				C230.3,244.5,227.9,244.4,225.5,243.5z"/>
			<circle class="st3" cx="12.3" cy="231.3" r="3.3"/>
			<circle class="st3" cx="228.4" cy="231.3" r="3.3"/>
			<circle class="st3" cx="224.7" cy="373.8" r="3.3"/>
			<circle class="st3" cx="16" cy="373.8" r="3.3"/>
			<circle class="st3" cx="224.7" cy="60.6" r="3.3"/>
			<circle class="st3" cx="16" cy="60.6" r="3.3"/>
			<circle class="st3" cx="120.3" cy="377.5" r="3.3"/>
		</g>
		<g>
			<circle class="st4" cx="120.3" cy="166.7" r="109.4"/>
			<path class="st4" d="M232.2,199.1c18.3-18.3,41.4-28.7,65.3-31.4v-1.9c-23.7-2.7-46.8-13.1-65-31.3c-7.7-7.7-14.1-16.3-19-25.5
				h-0.1v115.2C218.3,215.3,224.6,206.8,232.2,199.1z"/>
			<circle class="st4" cx="120.3" cy="166.7" r="109.4"/>
			<g>
				<path class="st5" d="M120.3,166.7l93.1-57.6c-4.4-7-9.6-13.7-15.7-19.8C155,46.6,85.7,46.6,43,89.3s-42.7,112,0,154.8
					c42.7,42.7,112,42.7,154.8,0c6.1-6.1,11.3-12.7,15.6-19.7L120.3,166.7z"/>
			</g>
			<g>
				<defs>
					<path id="SVGID_2_" d="M213.3,224.4c21.9-35.2,21.9-80.1,0.1-115.3l-93.1,57.6L213.3,224.4z"/>
				</defs>
				<clipPath id="SVGID_3_">
					<use xlink:href="#SVGID_2_"  style="overflow:visible;"/>
				</clipPath>
				<g class="st6">
					<path class="st4" d="M230.8,235.2c26-41.8,26-95.1,0.1-137l-110.6,68.4L230.8,235.2z"/>
				</g>
			</g>
			<g>
				<path class="st7" d="M201.9,160.3v25.3l-21.3-12.3l0,0c-6.3-3.7-5.9-6-5.9-11l21.9,12.7v-11.5L201.9,160.3z"/>
				<path class="st8" d="M196.6,174.9l-21.9-12.7l21.3-12.3l0,0c6.3-3.6,8.1-2.1,12.5,0.4L186.6,163l10,5.8L196.6,174.9z"/>
				<path class="st9" d="M186.6,163l21.9-12.7V175l0,0c0,7.3-2.2,8.1-6.6,10.6v-25.3l-10,5.8L186.6,163z"/>
			</g>
		</g>
		<g>
			<circle class="st10" cx="120.3" cy="166.7" r="31.1"/>
			<circle class="st3" cx="120.3" cy="166.7" r="28.9"/>
			<circle class="st10" cx="120.3" cy="166.7" r="13.9"/>
			<circle class="st1" cx="120.3" cy="166.7" r="5.6"/>
		</g>
		<g>
			<g>
				<path class="st11" d="M73.4,357.7L170.6,216c1.1-1.6,0.9-3.8-0.6-5.1l0,0c-1.4-1.3-3.6-1.4-5.1-0.2L29.2,316.2
					c-1.3,1-1.8,2.6-1.4,4.2L28,321c5.4,19.4,21.1,34.1,40.8,38.2l0.6,0.1C70.9,359.7,72.5,359,73.4,357.7z M147.7,229.8
					c0.7-0.7,1.8-0.7,2.5-0.1l1.8,1.7c0.7,0.7,0.7,1.8,0.1,2.5l-1.7,1.8c-0.7,0.7-1.8,0.7-2.5,0.1l-1.8-1.7
					c-0.7-0.7-0.7-1.8-0.1-2.5L147.7,229.8z M135.5,240.6c1.4-1.5,3.8-1.6,5.3-0.2l1.1,1c1.5,1.4,1.6,3.8,0.2,5.3l-7.2,7.7
					c-1.4,1.5-3.8,1.6-5.3,0.2l-1.1-1c-1.5-1.4-1.6-3.8-0.2-5.3L135.5,240.6z M116,261.4c1.4-1.5,3.8-1.6,5.3-0.2l1.1,1
					c1.5,1.4,1.6,3.8,0.2,5.3l-7.2,7.7c-1.4,1.5-3.8,1.6-5.3,0.2l-1.1-1c-1.5-1.4-1.6-3.8-0.2-5.3L116,261.4z M68.7,351.6
					C53,347.8,40.4,336,35.6,320.6l28.5-23.9c13.1,1.8,23.6,11.7,26.3,24.6l0,0L68.7,351.6L68.7,351.6z"/>
				<circle class="st12" cx="92.6" cy="292.9" r="12.7"/>
				<circle class="st13" cx="92.6" cy="292.9" r="3.7"/>
			</g>
			<path class="st10" d="M98.8,322.3c-19.4,0-35-15.7-35-35v-8.6c0-4.5-3.6-8.1-8.1-8.1H41.2H27.6c-4.5,0-8.1,3.6-8.1,8.1v57
				c0,13.3,10.8,24.1,24.1,24.1h71.2c4.5,0,8.1-3.6,8.1-8.1v-21.3c0-4.5-3.6-8.1-8.1-8.1H98.8z"/>
			<circle class="st3" cx="112.7" cy="340.4" r="3.3"/>
			<circle class="st3" cx="41.4" cy="280.3" r="3.3"/>
		</g>
	</g>
</g>
</svg>
