<?xml version="1.0" encoding="utf-8"?>
<!-- Generator: Adobe Illustrator 19.1.0, SVG Export Plug-In . SVG Version: 6.00 Build 0)  -->
<svg version="1.1" id="Layer_1" xmlns="http://www.w3.org/2000/svg" xmlns:xlink="http://www.w3.org/1999/xlink" x="0px" y="0px"
	 viewBox="0 0 24 24" style="enable-background:new 0 0 24 24;" xml:space="preserve">
<style type="text/css">
	.st0{fill:#FFF;}
</style>
<g>
	<path class="st0" d="M21.7,19.6c-0.6-0.3-1.2-0.7-1.1-1.5c0-0.8-0.6-1.3-0.6-1.3s0.5-1.7,0-3.1c-0.5-1.4-2.1-3.7-3.3-5.4
		c-1.2-1.7-0.2-3.7-1.3-6.2c-1.1-2.5-4-2.4-5.6-1.3c-1.6,1.1-1.1,3.8-1,5c0.1,1.3,0,2.2-0.1,2.5c-0.1,0.3-1.2,1.5-1.8,2.5
		c-0.7,1-1.2,3.1-1.6,4c-0.5,0.9-0.1,1.6-0.1,1.6s-0.3,0.1-0.6,0.7c-0.3,0.6-0.8,0.8-1.7,1c-0.9,0.2-0.9,0.8-0.7,1.5
		c0.2,0.7,0,1-0.3,1.9s1,1.1,2.3,1.3c1.3,0.2,2.7,1,3.9,1.1C9.2,24,9.6,23,9.6,23s1.3-0.3,2.8-0.3c1.4,0,2.8,0.3,2.8,0.3
		s0.3,0.6,0.7,0.9c0.5,0.3,1.5,0.3,2.2-0.4c0.7-0.7,2.5-1.6,3.5-2.2C22.5,20.7,22.3,19.8,21.7,19.6z M13,3.1c0.6,0,1.2,0.6,1.2,1.4
		c0,0.6-0.3,1-0.6,1.3c-0.1,0-0.2-0.1-0.3-0.1c0.2-0.1,0.4-0.4,0.4-0.7c0-0.4-0.3-0.8-0.6-0.8c-0.3,0-0.6,0.4-0.6,0.8
		c0,0.2,0,0.3,0.1,0.4c-0.2-0.1-0.4-0.2-0.5-0.2c-0.1-0.2-0.1-0.4-0.1-0.6C11.8,3.8,12.3,3.1,13,3.1z M12.9,6.1
		c0.3,0.1,0.7,0.3,0.6,0.5c0,0.2-0.2,0.2-0.6,0.5C12.5,7.4,11.5,8,11.2,8c-0.3,0-0.5-0.1-0.8-0.3c-0.3-0.2-0.9-0.7-0.8-1
		c0,0,0.5-0.4,0.7-0.5c0.2-0.2,0.7-0.6,1.1-0.6C11.7,5.6,12.6,6,12.9,6.1z M10,3.4c0.5,0,0.9,0.6,0.9,1.3c0,0.1,0,0.3,0,0.4
		c-0.1,0-0.2,0.1-0.4,0.2c-0.1,0.1-0.1,0.1-0.2,0.1c0.1-0.1,0.1-0.4,0.1-0.6c-0.1-0.4-0.3-0.7-0.6-0.7C9.5,4.2,9.4,4.6,9.5,5
		c0.1,0.4,0.3,0.7,0.6,0.7c0,0,0,0,0,0C10,5.8,9.9,5.9,9.7,6C9.4,5.8,9.1,5.3,9.1,4.7C9.1,4,9.5,3.4,10,3.4z M9,22.2
		c-0.1,0.5-0.7,0.9-0.7,0.9c-0.6,0.2-2.1-0.5-2.9-0.8c-0.7-0.3-2.5-0.4-2.8-0.7c-0.2-0.3,0.1-0.9,0.2-1.4c0.1-0.6-0.2-0.9-0.1-1.3
		c0.1-0.4,1.3-0.4,1.7-0.7C4.9,18,5,17.2,5.4,17c0.4-0.2,1,0.5,1.3,1c0.3,0.4,1.3,2.2,1.7,2.7C8.7,21.1,9.1,21.7,9,22.2z M15.6,17
		c-0.1,0.5-0.1,2.4-0.1,2.4s-1.2,1.6-2.9,1.9c-1.8,0.3-2.7,0.1-2.7,0.1l-1-1.2c0,0,0.8-0.1,0.7-0.9c-0.1-0.8-2.4-1.9-2.8-2.8
		c-0.4-1-0.1-2.6,0.4-3.4c0.5-0.8,0.9-2.6,1.4-3.2C9.1,9.2,9.5,8,9.3,7.4c0,0,1.1,1.3,1.9,1.1C12,8.3,13.8,7,14,7.2
		c0.3,0.2,2.5,5.1,2.7,6.7c0.2,1.6-0.1,2.8-0.1,2.8S15.7,16.5,15.6,17z M21.3,20.5c-0.3,0.3-2.3,1.1-2.9,1.7c-0.6,0.6-1.3,1.1-1.8,1
		c-0.5-0.1-0.9-0.8-0.7-1.7c0.2-0.9,0.4-1.9,0.3-2.5c0-0.6-0.1-1.4,0-1.5c0.1-0.1,0.4-0.1,0.4-0.1s-0.1,1.1,0.6,1.4
		c0.7,0.3,1.6-0.1,1.9-0.4c0.3-0.3,0.5-0.7,0.5-0.7s0.3,0.1,0.3,0.6c0,0.5,0.2,1.1,0.6,1.4C21,19.9,21.7,20.2,21.3,20.5z"/>
</g>
</svg>
