<svg xmlns="http://www.w3.org/2000/svg" viewBox="0 0 536.78 184.04">
    <defs>
        <style>
            .cls-1{fill:#4b87d0;}.cls-2{fill:#fff;}.cls-3{fill:#69f9e4;}.cls-4{fill:#63bbaf;}.cls-5{fill:#ace5db;}.cls-6{fill:#18343a;}.cls-7{fill:#c03e31;}.cls-8{fill:none;}.cls-9{fill:#4b6568;}.cls-10{fill:#edc298; stroke: #edc298;}.cls-11{fill:#f9deb2;}.cls-12{fill:#d04f44;}.cls-13{fill:#6a9bcc;}
        </style>
    </defs>
    <title>laptop middle</title>
    <g id="Layer_2" data-name="Layer 2">
        <g id="Layer_1-2" data-name="Layer 1">
            <circle class="cls-1" cx="462.84" cy="76.59" r="43.61"/>
            <rect class="cls-2" x="444.39" y="48.21" width="36.91" height="53.29"
                  transform="translate(387.46 537.62) rotate(-89.94)"/>
            <path class="cls-3" d="M490.71,94.59l-55.78-.06,0-39.4,55.78.06ZM437.42,92l50.81.05,0-34.43-50.81-.06Z"/>
            <polygon class="cls-2" points="436.18 93.27 462.85 72.78 489.46 93.33 436.18 93.27"/>
            <path class="cls-3"
                  d="M489.46,94.57h0l-53.28-.06a1.24,1.24,0,0,1-.75-2.23L462.09,71.8a1.24,1.24,0,0,1,1.52,0l26.55,20.5a1.24,1.24,0,0,1-.69,2.28ZM439.83,92l46,.05-23-17.73Z"/>
            <polygon class="cls-2" points="436.22 56.37 462.84 78.8 489.5 56.43 436.22 56.37"/>
            <path class="cls-3"
                  d="M462.84,80a1.24,1.24,0,0,1-.8-.3L435.42,57.32a1.24,1.24,0,0,1,.8-2.19h0l53.28.06a1.24,1.24,0,0,1,.8,2.19L463.64,79.76A1.24,1.24,0,0,1,462.84,80ZM439.63,57.61l23.21,19.57,23.25-19.52Z"/>
            <path class="cls-2"
                  d="M523.53,17.92l2.94-4.75-6.32-3.89L517.21,14a22.82,22.82,0,0,0-10.31-1.66l-1.28-5.43-7.24,1.71,1.29,5.43a22.75,22.75,0,0,0-8.48,6.1l-4.76-2.93-3.91,6.31,4.76,2.93a22.7,22.7,0,0,0-1.68,10.28l-5.44,1.29,1.7,7.21L487.31,44a22.7,22.7,0,0,0,6.1,8.44l-2.95,4.75,6.32,3.89,2.95-4.75A22.87,22.87,0,0,0,510,58l1.28,5.43,7.23-1.71-1.29-5.44a22.82,22.82,0,0,0,8.47-6.1l4.77,2.93,3.91-6.31-4.77-2.93a22.8,22.8,0,0,0,1.68-10.29l5.44-1.29-1.7-7.22-5.44,1.29A22.78,22.78,0,0,0,523.53,17.92Zm-2.27,14.24a13.14,13.14,0,1,1-15.8-9.74A13.13,13.13,0,0,1,521.26,32.16Z"/>
            <path class="cls-1"
                  d="M49.44,69.05l-1-4.09-5.43,1.28,1,4.09a17.18,17.18,0,0,0-6.37,4.59l-3.57-2.21-2.94,4.75,3.57,2.21a17.18,17.18,0,0,0-1.27,7.75l-4.09,1,1.27,5.43,4.09-1a17,17,0,0,0,4.57,6.37L37,102.79l4.74,2.94L44,102.15a17.08,17.08,0,0,0,7.73,1.25l1,4.1,5.43-1.28-1-4.09a17.17,17.17,0,0,0,6.37-4.59l3.57,2.21L70,95l-3.57-2.21A17.17,17.17,0,0,0,67.75,85l4.09-1-1.27-5.44-4.09,1a17.07,17.07,0,0,0-4.57-6.37l2.22-3.58-4.74-2.93-2.21,3.58A17.09,17.09,0,0,0,49.44,69.05Zm6.35,8.78A9.88,9.88,0,1,1,42.21,81,9.87,9.87,0,0,1,55.79,77.83Z"/>
            <path class="cls-2"
                  d="M8.28,46.93,4.71,44.71,1.77,49.45l3.57,2.22a17.14,17.14,0,0,0-1.26,7.75L0,60.38l1.28,5.44,4.09-1a17.13,17.13,0,0,0,4.58,6.37L7.73,74.81l4.74,2.94,2.21-3.58a17,17,0,0,0,7.73,1.27l1,4.1,5.42-1.27-1-4.1a17.09,17.09,0,0,0,6.36-4.58l3.57,2.22,2.93-4.75-3.57-2.22a17.14,17.14,0,0,0,1.26-7.75l4.08-1L41.19,50.7l-4.08,1a17.13,17.13,0,0,0-4.58-6.37l2.21-3.58L30,38.76l-2.21,3.58a17,17,0,0,0-7.73-1.27L19.1,37l-5.43,1.27,1,4.09A17.07,17.07,0,0,0,8.28,46.93ZM19,48.64a9.88,9.88,0,1,1-7.34,11.88A9.87,9.87,0,0,1,19,48.64Z"/>
            <circle class="cls-4" cx="158.31" cy="29.84" r="24.45" transform="translate(-0.38 2.12) rotate(-0.77)"/>
            <path class="cls-5"
                  d="M158,5.39a24.43,24.43,0,0,0-20.27,11.27,31.89,31.89,0,0,0,23.39,9.72,31.83,31.83,0,0,0,19.37-6.87A24.45,24.45,0,0,0,158,5.39Z"/>
            <path class="cls-6"
                  d="M186.72,29.46A28.47,28.47,0,1,0,158.64,58.3,28.46,28.46,0,0,0,186.72,29.46Zm-50.28.68a21.82,21.82,0,1,1,22.11,21.52A21.82,21.82,0,0,1,136.45,30.13Z"/>
            <rect class="cls-6" x="84.09" y="25.3" width="49.87" height="10.39"
                  transform="translate(-0.4 1.47) rotate(-0.77)"/>
            <rect class="cls-7" x="80.77" y="22.24" width="41.14" height="16.71"
                  transform="translate(-0.4 1.36) rotate(-0.77)"/>
            <circle class="cls-2" cx="164.18" cy="16.34" r="4.69" transform="translate(-0.2 2.21) rotate(-0.77)"/>
            <polygon class="cls-8"
                     points="350.86 175.42 350.84 162.11 351.17 162.11 351.17 160.44 324.41 183.92 349.27 183.92 349.26 175.42 350.86 175.42"/>
            <path class="cls-6" d="M341.93,78.1a7.25,7.25,0,0,1,.63-3.39l-5.35-6.1,1.65,10Z"/>
            <path class="cls-6"
                  d="M192.95,175.15a1,1,0,0,1,.09-1.44l9.15-8a1,1,0,0,1,1.44.1l8,9.15a1,1,0,0,1-.09,1.44L203,183.92h7.84l4.18-3.67a1,1,0,0,1,1.44.09l3.14,3.57h6.3l-5.88-6.7a1,1,0,0,1,.1-1.44l9.15-8a1,1,0,0,1,1.44.09l8,9.15a1,1,0,0,1-.09,1.44l-6.25,5.48h43.92l-10.95-12.48a3.43,3.43,0,0,1,.32-4.83l34.06-29.88a3.42,3.42,0,0,1,4.83.32l20.63,23.51a3.43,3.43,0,0,1-.31,4.84l-21.12,18.53h20.68l26.76-23.47,0-12.73a7.81,7.81,0,0,1-6.09-2.4l-45.71-48h0l-3.89-4.09a7.92,7.92,0,0,1-.67-.81l-.14-.21a7.89,7.89,0,0,1-.5-.83l0,0a7.93,7.93,0,0,1-.41-1l0-.09a8,8,0,0,1-.38-1.85l-.62-.71a1,1,0,0,1,.09-1.44l.82-.72A7.92,7.92,0,0,1,300,79.85l1.89-1.66a1,1,0,0,1,1.44.09l2.81,3.2a8,8,0,0,1,.83.75l21.39,22.47-1-6.25-7.65-8.72a1,1,0,0,1,.09-1.44l5.13-4.5-1-6-7.54,6.62a1,1,0,0,1-1.44-.1L310,78.68h0L294.14,60.6a1,1,0,0,1,.09-1.44l9.15-8a1,1,0,0,1,1.44.1L317.61,65.8h0l.75.86,2.33,2.66h0L323,71.89l-4-24.05L300.11,26.32A8.55,8.55,0,0,0,288,25.53L156.88,140.6a8.55,8.55,0,0,0-.79,12.06l27.42,31.26h17.13Zm9.49-17.92-8-9.15a1,1,0,0,1,.09-1.44l9.15-8a1,1,0,0,1,1.44.09l8,9.15a1,1,0,0,1-.09,1.44l-9.15,8A1,1,0,0,1,202.44,157.23Zm47.5-32.07a1,1,0,0,1,.09-1.44l9.15-8a1,1,0,0,1,1.44.1l8,9.15a1,1,0,0,1-.09,1.44l-9.15,8a1,1,0,0,1-1.44-.1Zm4.37,13.71-9.15,8a1,1,0,0,1-1.44-.1l-8-9.15a1,1,0,0,1,.09-1.44l9.15-8a1,1,0,0,1,1.44.1l8,9.15A1,1,0,0,1,254.3,138.87Zm9.87-26.21a1,1,0,0,1,.09-1.44l9.15-8a1,1,0,0,1,1.44.09l8,9.15a1,1,0,0,1-.09,1.44l-9.15,8a1,1,0,0,1-1.44-.09Zm9.49-17.92-8-9.15a1,1,0,0,1,.09-1.44l9.15-8a1,1,0,0,1,1.44.09l8,9.15a1,1,0,0,1-.09,1.44l-9.15,8A1,1,0,0,1,273.67,94.74Zm-3.56,3.12a1,1,0,0,1-.09,1.44l-9.15,8a1,1,0,0,1-1.44-.09l-8-9.15a1,1,0,0,1,.1-1.44l9.15-8a1,1,0,0,1,1.44.09Zm-14.25,12.5a1,1,0,0,1-.09,1.44l-9.15,8a1,1,0,0,1-1.44-.1l-8-9.15a1,1,0,0,1,.09-1.44l9.15-8a1,1,0,0,1,1.44.09Zm-14.25,12.5a1,1,0,0,1-.09,1.44l-9.15,8a1,1,0,0,1-1.44-.1l-8-9.15a1,1,0,0,1,.09-1.44l9.15-8a1,1,0,0,1,1.44.09Zm-14.25,12.5a1,1,0,0,1-.09,1.44l-9.15,8a1,1,0,0,1-1.44-.1l-8-9.15a1,1,0,0,1,.09-1.44l9.15-8a1,1,0,0,1,1.44.1Zm-1.56,28.51-9.15,8a1,1,0,0,1-1.44-.1l-8-9.15a1,1,0,0,1,.09-1.44l9.15-8a1,1,0,0,1,1.44.1l8,9.15A1,1,0,0,1,225.81,163.87Zm3.65-4.57-8-9.15a1,1,0,0,1,.09-1.44l9.15-8a1,1,0,0,1,1.44.09l8,9.15a1,1,0,0,1-.09,1.44l-9.15,8A1,1,0,0,1,229.47,159.3Zm23.37,6.64-9.15,8a1,1,0,0,1-1.44-.1l-8-9.15a1,1,0,0,1,.09-1.44l9.15-8a1,1,0,0,1,1.44.09l8,9.15A1,1,0,0,1,252.84,165.94Zm42.74-37.49-9.15,8h0l-5.09,4.47h0l-9.15,8h0l-14.25,12.5a1,1,0,0,1-1.44-.09l-8-9.15a1,1,0,0,1,.09-1.44l14.25-12.5h0l5.36-4.7,8.89-7.8h0l9.15-8a1,1,0,0,1,1.44.09l8,9.15A1,1,0,0,1,295.58,128.45Zm4.87-23.18a1,1,0,0,1,1.44.09l8,9.15a1,1,0,0,1-.1,1.44l-9.15,8a1,1,0,0,1-1.44-.09l-8-9.15a1,1,0,0,1,.09-1.44Zm-3.31-5.33a1,1,0,0,1-.09,1.44l-9.15,8a1,1,0,0,1-1.44-.1l-8-9.15a1,1,0,0,1,.09-1.44l9.15-8a1,1,0,0,1,1.44.09Zm1.46-27.07a1,1,0,0,1-.09,1.44l-9.15,8a1,1,0,0,1-1.44-.1l-8-9.15a1,1,0,0,1,.09-1.44l9.15-8a1,1,0,0,1,1.44.09ZM281.45,44.59l9.15-8a1,1,0,0,1,1.44.1l8,9.15a1,1,0,0,1-.09,1.44l-9.15,8a1,1,0,0,1-1.44-.1l-8-9.15A1,1,0,0,1,281.45,44.59ZM267.2,57.08l9.15-8a1,1,0,0,1,1.44.1l8,9.15a1,1,0,0,1-.09,1.44l-9.15,8a1,1,0,0,1-1.44-.09l-8-9.15A1,1,0,0,1,267.2,57.08ZM253,69.58l9.15-8a1,1,0,0,1,1.44.09l8,9.15a1,1,0,0,1-.1,1.44l-9.15,8a1,1,0,0,1-1.44-.09l-8-9.15A1,1,0,0,1,253,69.58Zm-14.25,12.5,9.15-8a1,1,0,0,1,1.44.09l8,9.15a1,1,0,0,1-.09,1.44l-9.15,8a1,1,0,0,1-1.44-.09l-8-9.15A1,1,0,0,1,238.71,82.08Zm-14.25,12.5,9.15-8a1,1,0,0,1,1.44.09l8,9.15a1,1,0,0,1-.09,1.44l-9.15,8a1,1,0,0,1-1.44-.09l-8-9.15A1,1,0,0,1,224.46,94.58Zm-14.25,12.5,9.15-8a1,1,0,0,1,1.44.1l8,9.15a1,1,0,0,1-.09,1.44l-9.15,8a1,1,0,0,1-1.44-.1l-8-9.15A1,1,0,0,1,210.22,107.07ZM196,119.57l9.15-8a1,1,0,0,1,1.44.09l8,9.15a1,1,0,0,1-.09,1.44l-9.15,8a1,1,0,0,1-1.44-.1l-8-9.15A1,1,0,0,1,196,119.57Zm-14.25,12.5,9.15-8a1,1,0,0,1,1.44.09l8,9.15a1,1,0,0,1-.09,1.44l-9.15,8a1,1,0,0,1-1.44-.09l-8-9.15A1,1,0,0,1,181.72,132.07Zm-6.31,23.09-8-9.15a1,1,0,0,1,.09-1.44l9.15-8a1,1,0,0,1,1.44.1l8,9.15a1,1,0,0,1-.09,1.44l-9.15,8A1,1,0,0,1,175.41,155.16Zm12.78,14.57-8-9.15a1,1,0,0,1,.09-1.44l9.15-8a1,1,0,0,1,1.44.09l8,9.15a1,1,0,0,1-.09,1.44l-9.15,8A1,1,0,0,1,188.19,169.73Z"/>
            <rect class="cls-9" x="169.63" y="138.79" width="14.21" height="14.21" rx="1.02" ry="1.02"
                  transform="translate(-52.33 152.78) rotate(-41.26)"/>
            <path class="cls-9"
                  d="M189.66,142.66a1,1,0,0,0,1.44.09l9.15-8a1,1,0,0,0,.09-1.44l-8-9.15a1,1,0,0,0-1.44-.09l-9.15,8a1,1,0,0,0-.09,1.44Z"/>
            <rect class="cls-9" x="198.13" y="113.79" width="14.21" height="14.21" rx="1.02" ry="1.02"
                  transform="translate(-28.78 165.36) rotate(-41.26)"/>
            <path class="cls-9"
                  d="M218.15,117.66a1,1,0,0,0,1.44.1l9.15-8a1,1,0,0,0,.09-1.44l-8-9.15a1,1,0,0,0-1.44-.1l-9.15,8a1,1,0,0,0-.09,1.44Z"/>
            <path class="cls-9"
                  d="M232.4,105.17a1,1,0,0,0,1.44.09l9.15-8a1,1,0,0,0,.09-1.44l-8-9.15a1,1,0,0,0-1.44-.09l-9.15,8a1,1,0,0,0-.09,1.44Z"/>
            <rect class="cls-9" x="240.86" y="76.3" width="14.21" height="14.21" rx="1.02" ry="1.02"
                  transform="translate(6.55 184.21) rotate(-41.25)"/>
            <path class="cls-9"
                  d="M260.89,80.17a1,1,0,0,0,1.44.09l9.15-8a1,1,0,0,0,.1-1.44l-8-9.15a1,1,0,0,0-1.44-.09l-9.15,8a1,1,0,0,0-.09,1.44Z"/>
            <path class="cls-9"
                  d="M275.13,67.67a1,1,0,0,0,1.44.09l9.15-8a1,1,0,0,0,.09-1.44l-8-9.15a1,1,0,0,0-1.44-.1l-9.15,8a1,1,0,0,0-.09,1.44Z"/>
            <path class="cls-9"
                  d="M289.38,55.17a1,1,0,0,0,1.44.1l9.15-8a1,1,0,0,0,.09-1.44l-8-9.15a1,1,0,0,0-1.44-.1l-9.15,8a1,1,0,0,0-.09,1.44Z"/>
            <rect class="cls-9" x="182.41" y="153.36" width="14.21" height="14.21" rx="1.02" ry="1.02"
                  transform="translate(-58.77 164.8) rotate(-41.26)"/>
            <path class="cls-9"
                  d="M213.12,147.85l-8-9.15a1,1,0,0,0-1.44-.09l-9.15,8a1,1,0,0,0-.09,1.44l8,9.15a1,1,0,0,0,1.44.1l9.15-8A1,1,0,0,0,213.12,147.85Z"/>
            <path class="cls-9"
                  d="M217.9,126.11l-9.15,8a1,1,0,0,0-.09,1.44l8,9.15a1,1,0,0,0,1.44.1l9.15-8a1,1,0,0,0,.09-1.44l-8-9.15A1,1,0,0,0,217.9,126.11Z"/>
            <path class="cls-9"
                  d="M232.15,113.62l-9.15,8a1,1,0,0,0-.09,1.44l8,9.15a1,1,0,0,0,1.44.1l9.15-8a1,1,0,0,0,.09-1.44l-8-9.15A1,1,0,0,0,232.15,113.62Z"/>
            <rect class="cls-9" x="239.4" y="103.37" width="14.21" height="14.21" rx="1.02" ry="1.02"
                  transform="translate(-11.66 189.97) rotate(-41.25)"/>
            <path class="cls-9"
                  d="M260.64,88.62l-9.15,8a1,1,0,0,0-.1,1.44l8,9.15a1,1,0,0,0,1.44.09l9.15-8a1,1,0,0,0,.09-1.44l-8-9.15A1,1,0,0,0,260.64,88.62Z"/>
            <path class="cls-9"
                  d="M284.36,85.37l-8-9.15a1,1,0,0,0-1.44-.09l-9.15,8a1,1,0,0,0-.09,1.44l8,9.15a1,1,0,0,0,1.44.1l9.15-8A1,1,0,0,0,284.36,85.37Z"/>
            <path class="cls-9"
                  d="M289.13,63.63l-9.15,8a1,1,0,0,0-.09,1.44l8,9.15a1,1,0,0,0,1.44.1l9.15-8a1,1,0,0,0,.09-1.44l-8-9.15A1,1,0,0,0,289.13,63.63Z"/>
            <path class="cls-9"
                  d="M307,73.73l9.15-8a1,1,0,0,1,1.44.1L304.82,51.22a1,1,0,0,0-1.44-.1l-9.15,8a1,1,0,0,0-.09,1.44L310,78.68h0l-3.09-3.52A1,1,0,0,1,307,73.73Z"/>
            <polygon class="cls-9" points="320.69 69.31 318.36 66.66 320.69 69.31 320.69 69.31"/>
            <path class="cls-9"
                  d="M211.66,174.92l-8-9.15a1,1,0,0,0-1.44-.1l-9.15,8a1,1,0,0,0-.09,1.44l7.69,8.77H203l8.61-7.55A1,1,0,0,0,211.66,174.92Z"/>
            <path class="cls-9"
                  d="M217.88,153.28a1,1,0,0,0-1.44-.1l-9.15,8a1,1,0,0,0-.09,1.44l8,9.15a1,1,0,0,0,1.44.1l9.15-8a1,1,0,0,0,.09-1.44Z"/>
            <path class="cls-9"
                  d="M240.15,149.93l-8-9.15a1,1,0,0,0-1.44-.09l-9.15,8a1,1,0,0,0-.09,1.44l8,9.15a1,1,0,0,0,1.44.1l9.15-8A1,1,0,0,0,240.15,149.93Z"/>
            <rect class="cls-9" x="237.94" y="130.44" width="14.21" height="14.21" rx="1.02" ry="1.02"
                  transform="translate(-29.87 195.75) rotate(-41.26)"/>
            <path class="cls-9"
                  d="M259.4,134.4l9.15-8a1,1,0,0,0,.09-1.44l-8-9.15a1,1,0,0,0-1.44-.1l-9.15,8a1,1,0,0,0-.09,1.44l8,9.15A1,1,0,0,0,259.4,134.4Z"/>
            <rect class="cls-9" x="266.43" y="105.44" width="14.22" height="14.21" rx="1.02" ry="1.02"
                  transform="translate(-6.31 208.33) rotate(-41.26)"/>
            <rect class="cls-9" x="280.67" y="92.94" width="14.21" height="14.21" rx="1.02" ry="1.02"
                  transform="translate(5.46 214.59) rotate(-41.25)"/>
            <path class="cls-9" d="M293.58,85.51l-.82.72a1,1,0,0,0-.09,1.44l.62.71A8,8,0,0,1,293.58,85.51Z"/>
            <path class="cls-9" d="M306.16,81.49l-2.81-3.2a1,1,0,0,0-1.44-.09L300,79.85A8,8,0,0,1,306.16,81.49Z"/>
            <polygon class="cls-9" points="317.61 65.8 317.61 65.8 318.36 66.66 317.61 65.8"/>
            <path class="cls-9"
                  d="M320.69,69.31a1,1,0,0,1-.09,1.44l-9.15,8a1,1,0,0,1-1.44-.09l4.94,5.63a1,1,0,0,0,1.44.1l7.54-6.62-1-5.9Z"/>
            <path class="cls-9"
                  d="M311.44,78.78l9.15-8a1,1,0,0,0,.09-1.44l-2.33-2.66-.75-.86a1,1,0,0,0-1.44-.1l-9.15,8a1,1,0,0,0-.09,1.44L310,78.68A1,1,0,0,0,311.44,78.78Z"/>
            <path class="cls-9" d="M215,180.25l-4.18,3.67h8.76l-3.14-3.57A1,1,0,0,0,215,180.25Z"/>
            <path class="cls-9"
                  d="M238.69,177l-8-9.15a1,1,0,0,0-1.44-.09l-9.15,8a1,1,0,0,0-.1,1.44l5.88,6.7h6.49l6.25-5.48A1,1,0,0,0,238.69,177Z"/>
            <path class="cls-9"
                  d="M244.91,155.35a1,1,0,0,0-1.44-.09l-9.15,8a1,1,0,0,0-.09,1.44l8,9.15a1,1,0,0,0,1.44.1l9.15-8a1,1,0,0,0,.09-1.44Z"/>
            <path class="cls-9"
                  d="M270.74,148.88l-8-9.15a1,1,0,0,1,.09-1.44l-14.25,12.5a1,1,0,0,0-.09,1.44l8,9.15a1,1,0,0,0,1.44.09L272.18,149A1,1,0,0,1,270.74,148.88Z"/>
            <path class="cls-9"
                  d="M285,136.38l-8-9.15a1,1,0,0,1,.09-1.44l-8.89,7.8,3.79-3.33a1,1,0,0,1,1.44.09l8,9.15a1,1,0,0,1-.09,1.44l5.09-4.47A1,1,0,0,1,285,136.38Z"/>
            <polygon class="cls-9" points="262.81 138.29 262.81 138.29 268.17 133.59 262.81 138.29"/>
            <polygon class="cls-9" points="272.18 148.97 281.33 140.94 281.34 140.94 272.18 148.97 272.18 148.97"/>
            <path class="cls-9"
                  d="M281.43,139.5l-8-9.15a1,1,0,0,0-1.44-.09l-3.79,3.33-5.36,4.7a1,1,0,0,0-.09,1.44l8,9.15a1,1,0,0,0,1.44.09l9.15-8A1,1,0,0,0,281.43,139.5Z"/>
            <path class="cls-9"
                  d="M287.65,117.86a1,1,0,0,0-1.44-.09l-9.15,8h0l6.54-5.74a1,1,0,0,1,1.44.09l8,9.15a1,1,0,0,1-.09,1.44l-6.54,5.74h0l9.15-8a1,1,0,0,0,.09-1.44Z"/>
            <path class="cls-9"
                  d="M293.06,129.3l-8-9.15a1,1,0,0,0-1.44-.09l-6.54,5.74a1,1,0,0,0-.09,1.44l8,9.15a1,1,0,0,0,1.44.09l6.54-5.74A1,1,0,0,0,293.06,129.3Z"/>
            <path class="cls-9"
                  d="M291.21,114.73l8,9.15a1,1,0,0,0,1.44.09l9.15-8a1,1,0,0,0,.1-1.44l-8-9.15a1,1,0,0,0-1.44-.09l-9.15,8A1,1,0,0,0,291.21,114.73Z"/>
            <path class="cls-9"
                  d="M326.43,92.92l-1.51-9.12-5.12,4.5a1,1,0,0,0-.09,1.44l7.65,8.72-.88-5.34C326.46,93.05,326.44,93,326.43,92.92Z"/>
            <path class="cls-9"
                  d="M325.16,160.55,304.54,137a3.42,3.42,0,0,0-4.83-.32l-34.06,29.88a3.43,3.43,0,0,0-.32,4.83l10.95,12.48h27.45l21.13-18.53A3.43,3.43,0,0,0,325.16,160.55Z"/>
            <path class="cls-6"
                  d="M138.72,149.38,299.12,8.67l-5.06-5.76A8.55,8.55,0,0,0,282,2.12L134.45,131.55a8.55,8.55,0,0,0-.79,12.06Z"/>
            <path class="cls-10"
                  d="M331.38,33.33A7.3,7.3,0,1,0,317,35.7l2,12.14L337.2,68.61Zm-11.91,5.12-.75-4.52a3.29,3.29,0,0,1,2.71-3.78l3.9-.65a3.29,3.29,0,0,1,3.78,2.71l.75,4.52Z"/>
            <path class="cls-10"
                  d="M325.63,74.94a1,1,0,0,1-.09,1.44l-1.61,1.41,1,6,4-3.53a1,1,0,0,1,1.44.09l.72.82A11.81,11.81,0,0,1,336.18,79l2.67-.44-1.65-10L319,47.84l4,24.05Z"/>
            <path class="cls-10" d="M325.63,74.94l-2.67-3,1,5.9,1.61-1.41A1,1,0,0,0,325.63,74.94Z"/>
            <path class="cls-10"
                  d="M326.47,93.12l-.07-.42a11.87,11.87,0,0,1,4.71-11.51l-.72-.82a1,1,0,0,0-1.44-.09l-4,3.53,1.51,9.12C326.44,93,326.46,93.05,326.47,93.12Z"/>
            <path class="cls-10" d="M356.24,75.74a7.29,7.29,0,0,0-13.68-1l2.52,2.87Z"/>
            <path class="cls-10" d="M341.93,78.1l3.15-.52-2.52-2.87A7.25,7.25,0,0,0,341.93,78.1Z"/>
            <path class="cls-10" d="M365.45,67.62a7.29,7.29,0,0,0-6.09,7.6l14.31-2.36A7.3,7.3,0,0,0,365.45,67.62Z"/>
            <path class="cls-10"
                  d="M393.06,81.62l-1.79-10.86a7.3,7.3,0,0,0-14.48,1.59l2.64-.44A11.87,11.87,0,0,1,393.06,81.62Z"/>
            <path class="cls-10"
                  d="M358.25,87.67a7.25,7.25,0,0,1-.59,4.27l6.75,7.69a26.42,26.42,0,0,1,8.53,9.72L383.17,121a8.49,8.49,0,0,1,2,4.14h8.54l0,15.23a11.87,11.87,0,0,0,6.94-12.8l-7.57-45.87,0-.07,0,.3a7.3,7.3,0,0,1-14.4,2.38l-1.84-11.16a7.34,7.34,0,0,1-.08-.78l-3.12.51a7.43,7.43,0,0,1,.17.77l1.84,11.16a7.3,7.3,0,1,1-14.4,2.38L359.44,76a7.31,7.31,0,0,1-.08-.78l-3.12.51a7.46,7.46,0,0,1,.17.77Z"/>
            <path class="cls-10"
                  d="M375.55,125.15h9.59a8.49,8.49,0,0,0-2-4.14l-10.23-11.66a26.47,26.47,0,0,1,2.62,15.81Z"/>
            <path class="cls-10" d="M354.3,95.39a26.43,26.43,0,0,1,10.11,4.23l-6.75-7.69A7.31,7.31,0,0,1,354.3,95.39Z"/>
            <path class="cls-10"
                  d="M335.88,98.66a7.15,7.15,0,0,1-5.75-.53l-1,.85a1,1,0,0,1-1.44-.09l-.38-.43,1,6.25.29.3A26.52,26.52,0,0,1,335.88,98.66Z"/>
            <path class="cls-10"
                  d="M338.14,97.46a26.33,26.33,0,0,1,7-2.17c.7-.12,1.4-.19,2.1-.25a7.27,7.27,0,0,1-3.34-5L342,78.89a7.35,7.35,0,0,1-.08-.79l-3.07.51,2,11.94A7.29,7.29,0,0,1,338.14,97.46Z"/>
            <path class="cls-10" d="M329.17,99l1-.85a7.27,7.27,0,0,1-3.67-5l.88,5.34.38.43A1,1,0,0,0,329.17,99Z"/>
            <path class="cls-10"
                  d="M338.32,91l-8.18,7.18a7.15,7.15,0,0,0,5.75.53q1.09-.65,2.26-1.2a7.29,7.29,0,0,0,2.68-6.92l-2-11.94-2.67.44a11.81,11.81,0,0,0-5.07,2.14l7.3,8.32A1,1,0,0,1,338.32,91Z"/>
            <path class="cls-10"
                  d="M326.4,92.7l.07.42a7.27,7.27,0,0,0,3.67,5L338.32,91a1,1,0,0,0,.09-1.44l-7.3-8.32A11.87,11.87,0,0,0,326.4,92.7Z"/>
            <path class="cls-10"
                  d="M357.66,91.93a7.25,7.25,0,0,0,.59-4.27l-1.84-11.16a7.46,7.46,0,0,0-.17-.77l-11.16,1.84Z"/>
            <path class="cls-10"
                  d="M343.85,90a7.27,7.27,0,0,0,3.34,5,26.31,26.31,0,0,1,7.1.35,7.31,7.31,0,0,0,3.37-3.46L345.07,77.58l-3.15.52a7.35,7.35,0,0,0,.08.79Z"/>
            <path class="cls-10"
                  d="M361.28,87.17a7.3,7.3,0,1,0,14.4-2.38l-1.84-11.16a7.43,7.43,0,0,0-.17-.77l-14.31,2.36a7.31,7.31,0,0,0,.08.78Z"/>
            <path class="cls-10"
                  d="M378.71,84.29a7.3,7.3,0,0,0,14.4-2.38l0-.3a11.87,11.87,0,0,0-13.64-9.71l-2.64.44a7.34,7.34,0,0,0,.08.78Z"/>
            <path class="cls-10" d="M293.74,88.89l-.45-.51a8,8,0,0,0,.38,1.85,8.08,8.08,0,0,1-.27-1Z"/>
            <path class="cls-10" d="M295.45,93.2a7.84,7.84,0,0,1-.67-.81A7.92,7.92,0,0,0,295.45,93.2Z"/>
            <path class="cls-10"
                  d="M332.08,127.14l-3.7-22.44L307,82.24a8,8,0,0,0-.83-.75l5.22,6a1,1,0,0,1-.09,1.44l-9.15,8a1,1,0,0,1-1.44-.09l-.4-.45-1,.93,45.71,48a7.81,7.81,0,0,0,6.09,2.4v-.55Zm-8-23.69-9.15,8a1,1,0,0,1-1.44-.09l-8-9.15a1,1,0,0,1,.1-1.44l9.15-8a1,1,0,0,1,1.44.1l8,9.15A1,1,0,0,1,324.07,103.45Z"/>
            <path class="cls-10" d="M294.64,92.18a7.88,7.88,0,0,1-.5-.83A7.89,7.89,0,0,0,294.64,92.18Z"/>
            <path class="cls-10" d="M295.74,81.95a7.91,7.91,0,0,0-2.16,3.56L300,79.85A7.91,7.91,0,0,0,295.74,81.95Z"/>
            <path class="cls-10" d="M294.12,91.31a7.86,7.86,0,0,1-.41-1A7.93,7.93,0,0,0,294.12,91.31Z"/>
            <path class="cls-10"
                  d="M296.69,86a4.16,4.16,0,0,1,5.87.1l4,4.15-6.28,6.08.4.45a1,1,0,0,0,1.44.09l9.15-8a1,1,0,0,0,.09-1.44l-5.22-6A8,8,0,0,0,300,79.85l-6.45,5.65a8,8,0,0,0-.29,2.87l.45.51Z"/>
            <path class="cls-10"
                  d="M316.14,92.86a1,1,0,0,0-1.44-.1l-9.15,8a1,1,0,0,0-.1,1.44l8,9.15a1,1,0,0,0,1.44.09l9.15-8a1,1,0,0,0,.09-1.44Z"/>
            <path class="cls-10" d="M364.41,99.62l8.53,9.72A26.42,26.42,0,0,0,364.41,99.62Z"/>
            <path class="cls-10"
                  d="M351.15,147.17l0-22,24.44,0a26.47,26.47,0,0,0-2.62-15.81l-8.53-9.72a26.43,26.43,0,0,0-10.11-4.23,7.28,7.28,0,0,1-7.1-.35c-.7.06-1.39.14-2.1.25a26.33,26.33,0,0,0-7,2.17,7.25,7.25,0,0,1-2.26,1.2,26.52,26.52,0,0,0-7.22,6.34l-.29-.3,3.7,22.44Z"/>
            <path class="cls-10" d="M338.14,97.46q-1.16.55-2.26,1.2A7.25,7.25,0,0,0,338.14,97.46Z"/>
            <path class="cls-10" d="M347.19,95a7.28,7.28,0,0,0,7.1.35A26.31,26.31,0,0,0,347.19,95Z"/>
            <path class="cls-11"
                  d="M325.34,29.5l-3.9.65a3.29,3.29,0,0,0-2.71,3.78l.75,4.52,10.4-1.72-.75-4.52A3.29,3.29,0,0,0,325.34,29.5Z"/>
            <path class="cls-11" d="M294.79,92.39l-.14-.21Z"/>
            <path class="cls-11" d="M294.15,91.35l0,0Z"/>
            <polygon class="cls-11" points="299.34 97.29 299.35 97.29 295.45 93.2 299.34 97.29"/>
            <path class="cls-11" d="M293.71,90.32l0-.09Z"/>
            <path class="cls-11"
                  d="M293.74,88.89l-.33.32a8.08,8.08,0,0,0,.27,1l0,.09a7.86,7.86,0,0,0,.41,1l0,0a7.88,7.88,0,0,0,.5.83l.14.21a7.84,7.84,0,0,0,.67.81l3.89,4.09,1-.93Z"/>
            <path class="cls-11" d="M302.57,86.13a4.16,4.16,0,0,0-5.87-.1l-2.95,2.85,6.56,7.47,6.28-6.08Z"/>
            <path class="cls-10" d="M369,144.83l-17.8,15.61v1.67l42.57-.06,0-21.69a11.85,11.85,0,0,1-2.84.86Z"/>
            <path class="cls-10" d="M353.71,147.35h0l-1.23.21-.6.1-.08,0h0l-.1,0h0l-.49,0,0,12.73L369,144.83Z"/>
            <path class="cls-10"
                  d="M385.15,125.14a8.53,8.53,0,0,1-2.77,7.92L369,144.83l21.9-3.62a11.85,11.85,0,0,0,2.84-.86l0-15.23Z"/>
            <path class="cls-10" d="M351.64,147.69l.1,0h-.1Z"/>
            <path class="cls-10"
                  d="M353.71,147.35,369,144.83l13.41-11.77a8.53,8.53,0,0,0,2.77-7.92h-9.59A26.41,26.41,0,0,1,353.71,147.35Z"/>
            <path class="cls-10" d="M351.15,147.17v.55l.49,0Z"/>
            <path class="cls-10" d="M351.76,147.67h0l.08,0,.6-.1,1.23-.21h0l-2,.32Z"/>
            <path class="cls-10" d="M375.55,125.15l-24.44,0,0,22,.49.51h.11l2-.32A26.41,26.41,0,0,0,375.55,125.15Z"/>
            <rect class="cls-12" x="350.85" y="162.11" width="0.33" height="13.31"
                  transform="translate(-0.25 0.52) rotate(-0.09)"/>
            <rect class="cls-12" x="393.75" y="162.05" width="2.74" height="13.3"
                  transform="translate(-0.23 0.55) rotate(-0.08)"/>
            <rect class="cls-12" x="351.18" y="162.08" width="42.57" height="13.3"
                  transform="translate(-0.25 0.55) rotate(-0.08)"/>
            <polygon class="cls-13"
                     points="393.76 177.15 393.77 183.92 398.11 183.92 398.09 175.35 396.5 175.35 396.5 177.15 393.76 177.15"/>
            <polygon class="cls-13"
                     points="351.19 177.21 350.86 177.21 350.86 175.42 349.26 175.42 349.27 183.92 351.2 183.92 351.19 177.21"/>
            <path class="cls-13" d="M351.2,183.92h36.29a2.91,2.91,0,1,1,5.8,0h.48v-6.77l-42.57.06Z"/>
            <rect class="cls-13" x="393.76" y="175.35" width="2.74" height="1.8"
                  transform="translate(-0.25 0.56) rotate(-0.08)"/>
            <rect class="cls-13" x="350.86" y="175.42" width="0.33" height="1.79"
                  transform="translate(-0.26 0.52) rotate(-0.09)"/>
            <rect class="cls-13" x="351.19" y="175.39" width="42.57" height="1.79"
                  transform="translate(-0.24 0.51) rotate(-0.08)"/>
            <path class="cls-6" d="M390.39,180.77a3.11,3.11,0,0,0-2.9,3.15h5.8A3.11,3.11,0,0,0,390.39,180.77Z"/>
            <path class="cls-13" d="M351.2,183.92V184l36.29-.05s0,0,0-.07Z"/>
            <path class="cls-13" d="M393.29,184h.47v-.06h-.48S393.29,184,393.29,184Z"/>
            <path class="cls-6" d="M387.49,183.92s0,0,0,.07h5.81s0,0,0-.06Z"/>
        </g>
    </g>
</svg>