<svg xmlns="http://www.w3.org/2000/svg" viewBox="0 0 197.82 344.28"><defs><style>.cls-1{fill:#18343a;}.cls-2{fill:#62badd;}.cls-3{fill:#fff;}.cls-4{fill:#fabf37;}.cls-5{fill:#e25230;}.cls-6{fill:#999;}.cls-7{fill:#4b6568;}.cls-8{fill:#edc298;}.cls-9{fill:#f9deb2;}.cls-10{fill:#754c24;}</style></defs><title>laptop left</title><g id="Layer_2" data-name="Layer 2"><g id="Layer_1-2" data-name="Layer 1"><path class="cls-1" d="M0,232.69a8.82,8.82,0,0,1,8.81-8.83l180.09-.16a8.82,8.82,0,0,1,8.83,8.81l.09,102.78a8.82,8.82,0,0,1-8.81,8.83l-180.09.16a8.82,8.82,0,0,1-8.83-8.82Z"/><rect class="cls-2" x="9.85" y="236.58" width="178.12" height="97.34"/><rect class="cls-3" x="17.01" y="243.91" width="163.8" height="73.81"/><rect class="cls-1" x="106.13" y="252.41" width="49.2" height="56.45"/><path class="cls-2" d="M116.18,259.84V278a2.72,2.72,0,0,0,2.8,2.63l11.62,1.56,11.23-1.55a2.72,2.72,0,0,0,2.8-2.63V259.85Z"/><path class="cls-4" d="M122.26,295.59c.31,5.26,2.33,9.3,8.13,9.3s7.82-4,8.14-9.3a1.29,1.29,0,0,0,1.16-1.28V292a1.28,1.28,0,0,0-1.28-1.28h-.19a11.24,11.24,0,0,0-3.15-5.73V281.5l-1-4.15-7.3-.12-1,4.25V285a11.24,11.24,0,0,0-3.15,5.73l-.19,0A1.29,1.29,0,0,0,121.1,292v2.27A1.28,1.28,0,0,0,122.26,295.59Z"/><rect class="cls-5" x="17.04" y="317.21" width="163.81" height="12.13"/><rect class="cls-3" x="123.91" y="322.37" width="52.48" height="1.92"/><circle class="cls-3" cx="65.56" cy="292.81" r="13.48"/><path class="cls-4" d="M72.12,282.1c.08-.13,3.68-11,3.8-11.27s-10.4,7.54-10.4,7.54S71.93,282.39,72.12,282.1Z"/><path class="cls-2" d="M72.12,282.1s0,0-.08,0c-.78-.14-6.53-3.74-6.53-3.74s10.18-7.58,10.4-7.54c0,0,0,0,0,0C75.79,271.14,72.2,282,72.12,282.1Z"/><path class="cls-2" d="M65.62,309.06a16.21,16.21,0,1,0-16.2-16.21A16.21,16.21,0,0,0,65.62,309.06Zm-8.75-21.84H74.39a1.31,1.31,0,1,1,0,2.63H56.87a1.31,1.31,0,1,1,0-2.63Zm0,4.58H74.39a1.31,1.31,0,0,1,0,2.63H56.87a1.31,1.31,0,1,1,0-2.63Zm0,4.57H74.39a1.32,1.32,0,0,1,0,2.63H56.87a1.31,1.31,0,1,1,0-2.63Z"/><rect class="cls-6" x="42.86" y="253.17" width="52.63" height="2.42"/><rect class="cls-6" x="42.87" y="260.61" width="52.63" height="2.42"/><rect class="cls-6" x="52.63" y="76.76" width="54.25" height="17.95"/><path class="cls-1" d="M.1,82.56a8.81,8.81,0,0,1,8.82-8.81l179.89.13a8.81,8.81,0,0,1,8.8,8.82l-.09,129.85a8.81,8.81,0,0,1-8.82,8.8L8.81,221.22A8.81,8.81,0,0,1,0,212.4Z"/><rect class="cls-7" x="169.59" y="196.41" width="14.65" height="14.65" rx="1.05" ry="1.05"/><path class="cls-7" d="M150.06,197.45a1.05,1.05,0,0,1,1.05-1.05h12.55a1.05,1.05,0,0,1,1.05,1.06V210a1.05,1.05,0,0,1-1.05,1.05H151.1A1.05,1.05,0,0,1,150,210Z"/><path class="cls-7" d="M130.52,197.43a1.05,1.05,0,0,1,1.05-1.05h12.55a1.05,1.05,0,0,1,1.05,1.05V210a1.05,1.05,0,0,1-1.05,1.05H131.56a1.05,1.05,0,0,1-1.05-1.05Z"/><path class="cls-7" d="M111,197.42a1.05,1.05,0,0,1,1.05-1.05h12.55a1.05,1.05,0,0,1,1.05,1.06V210a1.05,1.05,0,0,1-1.05,1.05H112A1.05,1.05,0,0,1,111,210Z"/><path class="cls-7" d="M91.44,197.4a1.05,1.05,0,0,1,1.05-1.05H105a1.05,1.05,0,0,1,1.05,1.05V210A1.05,1.05,0,0,1,105,211H92.48a1.05,1.05,0,0,1-1.05-1.05Z"/><rect class="cls-7" x="71.9" y="196.34" width="14.65" height="14.65" rx="1.05" ry="1.05"/><path class="cls-7" d="M52.36,197.37a1.05,1.05,0,0,1,1.05-1.05H66A1.05,1.05,0,0,1,67,197.39v12.55A1.05,1.05,0,0,1,66,211H53.41a1.05,1.05,0,0,1-1.05-1.05Z"/><path class="cls-7" d="M32.83,197.36a1.05,1.05,0,0,1,1.05-1.05H46.43a1.05,1.05,0,0,1,1.05,1.06v12.54A1.06,1.06,0,0,1,46.42,211H33.87a1.05,1.05,0,0,1-1.05-1.06Z"/><path class="cls-7" d="M13.29,197.35a1.05,1.05,0,0,1,1.05-1.05H26.89a1.05,1.05,0,0,1,1.05,1.06V209.9A1.05,1.05,0,0,1,26.88,211H14.33a1.05,1.05,0,0,1-1.05-1.06Z"/><path class="cls-7" d="M170.66,176.43H183.2a1.05,1.05,0,0,1,1.05,1.05V190a1.05,1.05,0,0,1-1.05,1.05H170.66A1.05,1.05,0,0,1,169.6,190V177.48A1.06,1.06,0,0,1,170.66,176.43Z"/><path class="cls-7" d="M150.07,177.46a1.05,1.05,0,0,1,1.06-1.06h12.55a1.05,1.05,0,0,1,1.05,1.06V190a1.05,1.05,0,0,1-1.05,1.05H151.11a1.05,1.05,0,0,1-1.05-1.05Z"/><path class="cls-7" d="M130.53,177.45a1.05,1.05,0,0,1,1.05-1.05h12.55a1.05,1.05,0,0,1,1.05,1.06V190a1.05,1.05,0,0,1-1.05,1.05H131.58a1.05,1.05,0,0,1-1.05-1.06Z"/><path class="cls-7" d="M111,177.44a1.05,1.05,0,0,1,1.05-1.06H124.6a1.05,1.05,0,0,1,1.05,1.06V190a1.05,1.05,0,0,1-1.05,1.05H112A1.06,1.06,0,0,1,111,190Z"/><rect class="cls-7" x="91.45" y="176.37" width="14.65" height="14.65" rx="1.05" ry="1.05"/><path class="cls-7" d="M71.92,177.41A1.05,1.05,0,0,1,73,176.35H85.52a1.05,1.05,0,0,1,1.05,1.06V190A1.06,1.06,0,0,1,85.51,191H73A1.05,1.05,0,0,1,71.91,190Z"/><path class="cls-7" d="M52.38,177.39a1.05,1.05,0,0,1,1.05-1.05H66A1.05,1.05,0,0,1,67,177.4V190A1.05,1.05,0,0,1,66,191H53.42a1.05,1.05,0,0,1-1.05-1.05Z"/><path class="cls-7" d="M32.84,177.38a1.05,1.05,0,0,1,1.05-1.05H46.44a1.05,1.05,0,0,1,1.05,1.06v12.55A1.06,1.06,0,0,1,46.43,191H33.88a1.05,1.05,0,0,1-1.05-1.05Z"/><path class="cls-7" d="M13.31,165.11a1.05,1.05,0,0,1,1.05-1.05H26.91A1.05,1.05,0,0,1,28,165.12l0,24.8A1.05,1.05,0,0,1,26.89,191H14.34a1.05,1.05,0,0,1-1.05-1.05Z"/><path class="cls-7" d="M169.62,157.5a1.06,1.06,0,0,1,1.05-1.06h12.55a1.05,1.05,0,0,1,1.05,1.06v12.55a1.06,1.06,0,0,1-1.06,1.05H170.67a1.05,1.05,0,0,1-1.05-1.06Z"/><path class="cls-7" d="M150.08,157.48a1.05,1.05,0,0,1,1.05-1.05h12.55a1.05,1.05,0,0,1,1.05,1.06V170a1.05,1.05,0,0,1-1.05,1.05H151.13a1.05,1.05,0,0,1-1.05-1.06Z"/><path class="cls-7" d="M130.55,157.47a1.05,1.05,0,0,1,1.05-1.05h12.55a1.05,1.05,0,0,1,1.05,1.06V170a1.05,1.05,0,0,1-1.05,1.05H131.59a1.05,1.05,0,0,1-1.05-1.05Z"/><rect class="cls-7" x="111" y="156.4" width="14.65" height="14.65" rx="1.05" ry="1.05"/><path class="cls-7" d="M91.47,157.44a1.05,1.05,0,0,1,1.05-1.05h12.55a1.05,1.05,0,0,1,1.05,1.06V170a1.05,1.05,0,0,1-1.05,1.05H92.51A1.06,1.06,0,0,1,91.46,170Z"/><path class="cls-7" d="M71.93,157.42A1.05,1.05,0,0,1,73,156.37H85.53a1.05,1.05,0,0,1,1.05,1.06V170A1.05,1.05,0,0,1,85.52,171H73A1.05,1.05,0,0,1,71.92,170Z"/><path class="cls-7" d="M52.39,157.41a1.05,1.05,0,0,1,1.06-1.05H66A1.05,1.05,0,0,1,67,157.42V170A1.05,1.05,0,0,1,66,171H53.44A1.05,1.05,0,0,1,52.38,170Z"/><path class="cls-7" d="M32.85,157.4a1.05,1.05,0,0,1,1.05-1.05H46.46a1.05,1.05,0,0,1,1.05,1.06V170A1.05,1.05,0,0,1,46.45,171H33.9a1.05,1.05,0,0,1-1.05-1.05Z"/><rect class="cls-7" x="13.31" y="156.33" width="14.65" height="14.65" rx="1.05" ry="1.05"/><path class="cls-7" d="M169.64,137.51a1.06,1.06,0,0,1,1.05-1.05h12.55a1.05,1.05,0,0,1,1.05,1.05v12.55a1.05,1.05,0,0,1-1.05,1.05H170.68a1.05,1.05,0,0,1-1.05-1.05Z"/><path class="cls-7" d="M150.1,137.5a1.05,1.05,0,0,1,1.05-1.05H163.7a1.05,1.05,0,0,1,1.05,1.05v12.55a1.05,1.05,0,0,1-1.05,1.05H151.14a1.05,1.05,0,0,1-1.05-1.05Z"/><path class="cls-7" d="M130.56,137.48a1.05,1.05,0,0,1,1.05-1.05h12.55a1.05,1.05,0,0,1,1.05,1.05V150a1.05,1.05,0,0,1-1.05,1.05H131.6a1.05,1.05,0,0,1-1.05-1.05Z"/><path class="cls-7" d="M75.53,137.44a1.05,1.05,0,0,1,1.05-1.05l48,0a1.05,1.05,0,0,1,1.05,1.05V150a1.05,1.05,0,0,1-1.05,1.05l-48,0A1.05,1.05,0,0,1,75.52,150Z"/><rect class="cls-7" x="91.48" y="136.41" width="14.65" height="14.65" rx="1.05" ry="1.05"/><rect class="cls-7" x="71.94" y="136.39" width="14.66" height="14.65" rx="1.05" ry="1.05"/><path class="cls-7" d="M52.41,137.43a1.05,1.05,0,0,1,1.05-1.05H66a1.05,1.05,0,0,1,1.05,1.05V150A1.05,1.05,0,0,1,66,151H53.45A1.05,1.05,0,0,1,52.4,150Z"/><path class="cls-7" d="M32.87,137.41a1.05,1.05,0,0,1,1.05-1.05H46.47a1.06,1.06,0,0,1,1.05,1.05V150A1.05,1.05,0,0,1,46.46,151H33.91A1.05,1.05,0,0,1,32.86,150Z"/><path class="cls-7" d="M13.33,137.4a1.05,1.05,0,0,1,1.05-1.05H26.93A1.05,1.05,0,0,1,28,137.41V150A1.05,1.05,0,0,1,26.92,151H14.37a1.05,1.05,0,0,1-1.05-1.05Z"/><path class="cls-7" d="M71.93,91.39a3.53,3.53,0,0,1,3.53-3.53l46.72,0a3.54,3.54,0,0,1,3.53,3.54l0,32.25a3.53,3.53,0,0,1-3.54,3.53l-46.72,0a3.53,3.53,0,0,1-3.53-3.53Z"/><path class="cls-8" d="M102.13,118.59a7.46,7.46,0,0,1,7.46-7.47h0a7.46,7.46,0,0,1,7.47,7.46l.05,59.34a7.47,7.47,0,0,1-7.46,7.47h0a7.47,7.47,0,0,1-7.47-7.46Z"/><path class="cls-8" d="M84.05,118.61a7.46,7.46,0,0,1,7.46-7.47h0A7.46,7.46,0,0,1,99,118.59v11.57a7.47,7.47,0,0,1-7.46,7.47h0a7.47,7.47,0,0,1-7.47-7.46Z"/><path class="cls-8" d="M66,118.62a7.46,7.46,0,0,1,7.46-7.47h0a7.46,7.46,0,0,1,7.47,7.46v11.57a7.46,7.46,0,0,1-7.46,7.47h0A7.47,7.47,0,0,1,66,130.19Z"/><path class="cls-8" d="M47.9,118.64a7.47,7.47,0,0,1,7.46-7.47h0a7.46,7.46,0,0,1,7.47,7.46V130.2a7.46,7.46,0,0,1-7.46,7.47h0a7.47,7.47,0,0,1-7.47-7.46Z"/><path class="cls-8" d="M60.06,131l44.85,0A12.15,12.15,0,0,0,117,118.8l0-35.72-16.34-24L60,59.13A12.15,12.15,0,0,0,47.86,71.29l0,47.57A12.15,12.15,0,0,0,60.06,131Z"/><path class="cls-8" d="M98.6,113.09A26.92,26.92,0,0,0,116.8,106l18.11,26.58a8.15,8.15,0,0,0,13.48-9.16L106.93,62.59a8.06,8.06,0,0,0-6.38-3.5h-2a27,27,0,1,0,0,54Z"/><path class="cls-9" d="M104.27,174.74v4.69a3.37,3.37,0,0,0,3.37,3.37h4a3.37,3.37,0,0,0,3.36-3.37v-4.69Z"/><path class="cls-8" d="M101.92,34.13c-9.48-1.53-15.78-5.88-25.69-5.88-5.7,0-14.75.41-20.31.93l0,33.36,46,0Z"/><path class="cls-9" d="M148.38,123.43l-3.25-4.77-8.47,5.88,3.37,4.86a4.25,4.25,0,0,0,5.91,1.07l3.84-2.66A8.1,8.1,0,0,0,148.38,123.43Z"/><rect class="cls-10" x="50.72" y="20.13" width="58.04" height="24.79"/><rect class="cls-1" x="61.38" y="5.11" width="3.04" height="39.21"/><circle class="cls-1" cx="71.21" cy="34.63" r="4.29"/><rect class="cls-10" x="50.75" width="57.91" height="20.94"/></g></g></svg>