<svg xmlns="http://www.w3.org/2000/svg" viewBox="0 0 256.93 309.85"><defs><style>.cls-1{fill:#4b87d0;}.cls-2{fill:#fff;}.cls-3{fill:#fe9;}.cls-4{fill:#fece68;}.cls-5{fill:#f2b74e;}.cls-6{fill:#043942;}.cls-7{fill:none;}.cls-8{fill:#18343a;}.cls-9{fill:#4b6568;}.cls-10{fill:#edc298;}.cls-11{fill:#f9deb2;}.cls-12{fill:#4c88d0;}</style></defs><title>laptop right</title><g id="Layer_2" data-name="Layer 2"><g id="Layer_1-2" data-name="Layer 1"><circle class="cls-1" cx="34.82" cy="273.49" r="34.79"/><path class="cls-2" d="M42.82,285.83c.12.19,5.21,15.51,5.38,15.94s-14.72-10.65-14.72-10.65S42.56,285.41,42.82,285.83Z"/><path class="cls-2" d="M42.82,285.83s-.05,0-.12,0c-1.1.2-9.23,5.3-9.23,5.3s14.41,10.72,14.72,10.66a0,0,0,0,0,0,0C48,301.34,42.93,286,42.82,285.83Z"/><path class="cls-2" d="M10.7,270.65a22.93,22.93,0,1,0,22.9-23A22.93,22.93,0,0,0,10.7,270.65Zm8.68,6.1a1.86,1.86,0,0,1,1.86-1.86l24.78,0a1.86,1.86,0,0,1,0,3.72l-24.78,0A1.86,1.86,0,0,1,19.38,276.75Zm0-6.47a1.86,1.86,0,0,1,1.86-1.86l24.78,0a1.86,1.86,0,1,1,0,3.72l-24.78,0A1.86,1.86,0,0,1,19.37,270.28Zm0-6.47A1.86,1.86,0,0,1,21.22,262l24.78,0a1.86,1.86,0,0,1,0,3.72l-24.78,0A1.86,1.86,0,0,1,19.37,263.81Z"/><polygon class="cls-2" points="103.11 267.14 93.44 232.4 123.67 252.07 103.11 267.14"/><path class="cls-2" d="M103,267.49l-9.9-35.58L124,252.06ZM93.8,232.88l9.43,33.91,20.06-14.71Z"/><rect class="cls-3" x="117.81" y="259.24" width="9.19" height="53.02" transform="translate(-145.22 127.6) rotate(-36.23)"/><rect class="cls-4" x="125.22" y="253.81" width="9.2" height="53.02" transform="translate(-140.67 131.1) rotate(-36.27)"/><rect class="cls-5" x="132.84" y="248.97" width="7.18" height="53.02" transform="translate(-136.46 133.94) rotate(-36.24)"/><path class="cls-6" d="M99.95,236.71l-3.59-3.82c-.71-1-1.85-1.35-2.53-.85l-.84.61c-.69.51-.66,1.7,0,2.67l2.56,4.57Z"/><path class="cls-2" d="M53.43,137.25l-.13-3-4,.19.13,3a12.28,12.28,0,0,0-5.08,2.39l-2.22-2-2.7,3,2.22,2a12.26,12.26,0,0,0-1.92,5.28l-3,.14.17,4,3-.14a12.2,12.2,0,0,0,2.37,5.08l-2,2.22L43.19,162l2-2.22a12.2,12.2,0,0,0,5.27,1.9l.13,3,4-.18-.13-3a12.25,12.25,0,0,0,5.09-2.38l2.22,2,2.7-3-2.22-2a12.32,12.32,0,0,0,1.92-5.28l3-.14-.18-4-3,.14a12.27,12.27,0,0,0-2.37-5.08l2-2.22-2.94-2.69-2,2.22A12.22,12.22,0,0,0,53.43,137.25Zm3.31,7a7.07,7.07,0,1,1-10,.46A7.06,7.06,0,0,1,56.74,144.27Z"/><path class="cls-7" d="M249.19,66.6l-28.13,0H208.89V64.67H195a6.15,6.15,0,0,1-2.56,3.86l-27.7,18.81,0,39.69,27.67,18.85a6.15,6.15,0,0,1,2.56,3.86h13.91v-1.38h23.76a10.1,10.1,0,0,0,2.62.4,4.81,4.81,0,0,0,2-.4h13.1v0h6.62V66.65h-7.74Z"/><rect class="cls-8" x="103.94" y="176.93" width="35.53" height="2.21"/><rect class="cls-8" x="103.95" y="163.25" width="35.53" height="2.14"/><path class="cls-8" d="M104,149.55v1.19a1,1,0,0,1-.68,1l36.22,0v-2.14Z"/><polygon class="cls-8" points="151.05 117.73 164.69 127.02 164.72 87.32 151.07 96.59 151.05 117.73"/><path class="cls-8" d="M147.77,190.71l-44.62,0a5.74,5.74,0,0,1-3.26-1H90.74a1,1,0,0,1-1-1V176.46a1,1,0,0,1,1-1h8.58a5.75,5.75,0,0,1-1.93-4.3c0-.15,0-.29,0-.44H90.75a1,1,0,0,1-1-1V157.51a1,1,0,0,1,1-1H97.5a5.76,5.76,0,0,1,4.85-4.73H90.77a1,1,0,0,1-1-1V138.56a1,1,0,0,1,1-1h12.17a1,1,0,0,1,.83.46l45.29,0h9.45l-8.77-6a3.39,3.39,0,0,1-2.13.76l-31.28,0a3.43,3.43,0,0,1-3.42-3.43l0-45.31a3.42,3.42,0,0,1,3.43-3.42l31.28,0a3.41,3.41,0,0,1,2.61,1.23l8.3-5.64h-9.45l-45.88,0a5.76,5.76,0,0,1-1.79-.29H90.82a1,1,0,0,1-1-1V62.75a1,1,0,0,1,1-1H103a1,1,0,0,1,1,1V64.7l35.53,0V62.26a5.77,5.77,0,0,1,0-11.47v-2.5a5.77,5.77,0,0,1,0-11.48v-2.5a5.77,5.77,0,0,1,.63-11.51h24.55V19.55A8.55,8.55,0,0,0,156.22,11L30.28,10.91a8.55,8.55,0,0,0-8.55,8.54L21.6,193.93a8.55,8.55,0,0,0,8.54,8.55l125.95.09a8.55,8.55,0,0,0,8.55-8.54v-3.26H148.86C148.49,190.76,148.13,190.74,147.77,190.71ZM89.84,24.85a1,1,0,0,1,1-1H103a1,1,0,0,1,1,1V37a1,1,0,0,1-1,1H90.85a1,1,0,0,1-1-1Zm0,19a1,1,0,0,1,1-1H103a1,1,0,0,1,1,1V56a1,1,0,0,1-1,1H90.83a1,1,0,0,1-1-1Zm-.05,69V93.88h0V81.71a1,1,0,0,1,1-1H103a1,1,0,0,1,1,1v3.47h0v8.7h0v6.77h0v12.17h0v19a1,1,0,0,1-1,1H90.78a1,1,0,0,1-1-1v-19Zm-44,75.77a1,1,0,0,1-1,1H32.59a1,1,0,0,1-1-1V176.42a1,1,0,0,1,1-1H44.77a1,1,0,0,1,1,1Zm0-19a1,1,0,0,1-1,1H32.61a1,1,0,0,1-1-1V157.47a1,1,0,0,1,1-1H44.78a1,1,0,0,1,1,1Zm0-19a1,1,0,0,1-1,1H32.62a1,1,0,0,1-1-1V138.52a1,1,0,0,1,1-1H44.8a1,1,0,0,1,1,1Zm0-19a1,1,0,0,1-1,1H32.63a1,1,0,0,1-1-1V119.57a1,1,0,0,1,1-1H44.81a1,1,0,0,1,1,1Zm0-19a1,1,0,0,1-1,1H32.65a1,1,0,0,1-1-1V100.61a1,1,0,0,1,1-1H44.83a1,1,0,0,1,1,1Zm0-19a1,1,0,0,1-1,1H32.66a1,1,0,0,1-1-1V81.66a1,1,0,0,1,1-1H44.84a1,1,0,0,1,1,1Zm0-19a1,1,0,0,1-1,1H32.67a1,1,0,0,1-1-1V62.71a1,1,0,0,1,1-1H44.85a1,1,0,0,1,1,1Zm0-19a1,1,0,0,1-1,1H32.69a1,1,0,0,1-1-1V43.76a1,1,0,0,1,1-1H44.87a1,1,0,0,1,1,1Zm0-19a1,1,0,0,1-1,1H32.7a1,1,0,0,1-1-1V24.81a1,1,0,0,1,1-1H44.88a1,1,0,0,1,1,1ZM65.17,188.61a1,1,0,0,1-1,1H52a1,1,0,0,1-1-1V176.43a1,1,0,0,1,1-1H64.15a1,1,0,0,1,1,1Zm0-18.95a1,1,0,0,1-1,1H52a1,1,0,0,1-1-1V157.48a1,1,0,0,1,1-1H64.17a1,1,0,0,1,1,1Zm0-19a1,1,0,0,1-1,1H52a1,1,0,0,1-1-1V138.53a1,1,0,0,1,1-1H64.18a1,1,0,0,1,1,1Zm0-18.95a1,1,0,0,1-1,1H52a1,1,0,0,1-1-1V119.58a1,1,0,0,1,1-1H64.19a1,1,0,0,1,1,1Zm0-19a1,1,0,0,1-1,1H52a1,1,0,0,1-1-1V100.63a1,1,0,0,1,1-1H64.21a1,1,0,0,1,1,1Zm0-19a1,1,0,0,1-1,1H52a1,1,0,0,1-1-1V81.68a1,1,0,0,1,1-1H64.22a1,1,0,0,1,1,1Zm0-19a1,1,0,0,1-1,1H52.06a1,1,0,0,1-1-1V62.73a1,1,0,0,1,1-1H64.24a1,1,0,0,1,1,1Zm0-19a1,1,0,0,1-1,1H52.07a1,1,0,0,1-1-1V43.77a1,1,0,0,1,1-1H64.25a1,1,0,0,1,1,1ZM84.55,188.63a1,1,0,0,1-1,1H71.36a1,1,0,0,1-1-1V176.45a1,1,0,0,1,1-1H83.53a1,1,0,0,1,1,1Zm0-19a1,1,0,0,1-1,1H71.37a1,1,0,0,1-1-1V157.5a1,1,0,0,1,1-1H83.55a1,1,0,0,1,1,1Zm0-19a1,1,0,0,1-1,1H71.38a1,1,0,0,1-1-1V138.54a1,1,0,0,1,1-1H83.56a1,1,0,0,1,1,1Zm0-19a1,1,0,0,1-1,1H71.4a1,1,0,0,1-1-1V119.59a1,1,0,0,1,1-1H83.58a1,1,0,0,1,1,1Zm0-19a1,1,0,0,1-1,1H71.41a1,1,0,0,1-1-1V100.64a1,1,0,0,1,1-1H83.59a1,1,0,0,1,1,1Zm0-19a1,1,0,0,1-1,1H71.42a1,1,0,0,1-1-1V81.69a1,1,0,0,1,1-1H83.6a1,1,0,0,1,1,1Zm0-19a1,1,0,0,1-1,1H71.44a1,1,0,0,1-1-1V62.74a1,1,0,0,1,1-1H83.62a1,1,0,0,1,1,1Zm0-19a1,1,0,0,1-1,1H71.45a1,1,0,0,1-1-1V43.79a1,1,0,0,1,1-1H83.63a1,1,0,0,1,1,1Zm0-19a1,1,0,0,1-1,1H76.14L52.08,38a1,1,0,0,1-1-1V24.82a1,1,0,0,1,1-1H83.65a1,1,0,0,1,1,1Z"/><rect class="cls-9" x="31.58" y="175.4" width="14.21" height="14.21" rx="1.02" ry="1.02"/><path class="cls-9" d="M44.78,156.46H32.62a1,1,0,0,0-1,1v12.17a1,1,0,0,0,1,1H44.77a1,1,0,0,0,1-1V157.48A1,1,0,0,0,44.78,156.46Z"/><path class="cls-9" d="M44.8,137.51H32.63a1,1,0,0,0-1,1v12.17a1,1,0,0,0,1,1H44.79a1,1,0,0,0,1-1V138.53A1,1,0,0,0,44.8,137.51Z"/><path class="cls-9" d="M44.81,118.55H32.64a1,1,0,0,0-1,1v12.17a1,1,0,0,0,1,1H44.8a1,1,0,0,0,1-1V119.57A1,1,0,0,0,44.81,118.55Z"/><path class="cls-9" d="M44.83,99.6H32.66a1,1,0,0,0-1,1v12.17a1,1,0,0,0,1,1H44.82a1,1,0,0,0,1-1V100.62A1,1,0,0,0,44.83,99.6Z"/><rect class="cls-9" x="31.64" y="80.65" width="14.21" height="14.21" rx="1.02" ry="1.02"/><path class="cls-9" d="M44.85,61.7H32.68a1,1,0,0,0-1,1V74.88a1,1,0,0,0,1,1H44.84a1,1,0,0,0,1-1V62.72A1,1,0,0,0,44.85,61.7Z"/><rect class="cls-9" x="31.67" y="42.74" width="14.21" height="14.21" rx="1.02" ry="1.02"/><rect class="cls-9" x="31.68" y="23.79" width="14.21" height="14.21" rx="1.02" ry="1.02"/><rect class="cls-9" x="50.96" y="175.42" width="14.21" height="14.21" rx="1.02" ry="1.02"/><path class="cls-9" d="M64.17,156.47H52a1,1,0,0,0-1,1v12.17a1,1,0,0,0,1,1H64.16a1,1,0,0,0,1-1V157.49A1,1,0,0,0,64.17,156.47Z"/><path class="cls-9" d="M64.18,137.52H52a1,1,0,0,0-1,1V150.7a1,1,0,0,0,1,1H64.17a1,1,0,0,0,1-1V138.54A1,1,0,0,0,64.18,137.52Z"/><path class="cls-9" d="M64.19,118.57H52a1,1,0,0,0-1,1v12.17a1,1,0,0,0,1,1H64.18a1,1,0,0,0,1-1V119.59A1,1,0,0,0,64.19,118.57Z"/><rect class="cls-9" x="51.01" y="99.61" width="14.21" height="14.21" rx="1.02" ry="1.02"/><rect class="cls-9" x="51.02" y="80.66" width="14.22" height="14.21" rx="1.02" ry="1.02"/><rect class="cls-9" x="51.04" y="61.71" width="14.21" height="14.21" rx="1.02" ry="1.02"/><path class="cls-9" d="M64.25,42.76H52.08a1,1,0,0,0-1,1V55.94a1,1,0,0,0,1,1H64.24a1,1,0,0,0,1-1V43.78A1,1,0,0,0,64.25,42.76Z"/><polygon class="cls-9" points="76.15 23.82 72.7 23.82 76.16 23.82 76.15 23.82"/><path class="cls-9" d="M70.44,37V24.84a1,1,0,0,1,1-1H52.09a1,1,0,0,0-1,1V37a1,1,0,0,0,1,1l24.06,0H71.47A1,1,0,0,1,70.44,37Z"/><path class="cls-9" d="M83.53,175.43H71.37a1,1,0,0,0-1,1v12.17a1,1,0,0,0,1,1H83.52a1,1,0,0,0,1-1V176.46A1,1,0,0,0,83.53,175.43Z"/><path class="cls-9" d="M83.55,156.48H71.38a1,1,0,0,0-1,1v12.17a1,1,0,0,0,1,1H83.54a1,1,0,0,0,1-1V157.51A1,1,0,0,0,83.55,156.48Z"/><path class="cls-9" d="M83.56,137.53H71.39a1,1,0,0,0-1,1v12.17a1,1,0,0,0,1,1H83.55a1,1,0,0,0,1-1V138.55A1,1,0,0,0,83.56,137.53Z"/><rect class="cls-9" x="70.38" y="118.58" width="14.21" height="14.21" rx="1.02" ry="1.02"/><path class="cls-9" d="M83.59,99.63H71.42a1,1,0,0,0-1,1v12.17a1,1,0,0,0,1,1H83.58a1,1,0,0,0,1-1V100.65A1,1,0,0,0,83.59,99.63Z"/><rect class="cls-9" x="70.41" y="80.67" width="14.21" height="14.22" rx="1.02" ry="1.02"/><rect class="cls-9" x="70.42" y="61.72" width="14.21" height="14.21" rx="1.02" ry="1.02"/><path class="cls-9" d="M83.63,42.78H71.46a1,1,0,0,0-1,1V56a1,1,0,0,0,1,1H83.62a1,1,0,0,0,1-1V43.8A1,1,0,0,0,83.63,42.78Z"/><polygon class="cls-9" points="71.48 23.82 71.48 23.82 72.7 23.82 71.48 23.82"/><path class="cls-9" d="M83.65,23.83H76.16a1,1,0,0,1,1,1V37a1,1,0,0,1-1,1h7.49a1,1,0,0,0,1-1V24.85A1,1,0,0,0,83.65,23.83Z"/><path class="cls-9" d="M77.17,37V24.84a1,1,0,0,0-1-1H71.48a1,1,0,0,0-1,1V37a1,1,0,0,0,1,1h4.68A1,1,0,0,0,77.17,37Z"/><path class="cls-9" d="M97.39,184.9a5.77,5.77,0,0,1,5.78-5.77h.77v-2.21h-.77a5.74,5.74,0,0,1-3.84-1.47H90.75a1,1,0,0,0-1,1v12.17a1,1,0,0,0,1,1H99.9A5.76,5.76,0,0,1,97.39,184.9Z"/><path class="cls-9" d="M103.18,165.38h.77v-2.14h-.77a5.74,5.74,0,0,1-5.68-6.74H90.76a1,1,0,0,0-1,1v12.17a1,1,0,0,0,1,1h6.67A5.77,5.77,0,0,1,103.18,165.38Z"/><path class="cls-9" d="M103.28,151.69a1,1,0,0,0,.68-1v-1.19h-.77a5.77,5.77,0,1,1,0-11.54h.58a1,1,0,0,0-.83-.46H90.78a1,1,0,0,0-1,1v12.17a1,1,0,0,0,1,1h11.58a5.8,5.8,0,0,1,.84-.07Z"/><polygon class="cls-9" points="104 85.19 104 85.19 104 86.52 104 85.19"/><path class="cls-9" d="M90.8,99.63H103a1,1,0,0,1,1,1V93.89a1,1,0,0,1-1,1H90.81a1,1,0,0,1-1-1v6.78A1,1,0,0,1,90.8,99.63Z"/><path class="cls-9" d="M90.78,132.8h12.17a1,1,0,0,0,1-1v-19a1,1,0,0,1-1,1H90.79a1,1,0,0,1-1-1v19A1,1,0,0,0,90.78,132.8Z"/><polygon class="cls-9" points="103.98 112.84 104 100.67 103.99 100.66 103.98 112.84 103.98 112.84"/><polygon class="cls-9" points="89.77 112.83 89.77 112.83 89.78 105.7 89.77 112.83"/><path class="cls-9" d="M90.79,113.85H103a1,1,0,0,0,1-1V100.66a1,1,0,0,0-1-1H90.8a1,1,0,0,0-1,1v12.17A1,1,0,0,0,90.79,113.85Z"/><polygon class="cls-9" points="104 93.89 104 86.52 104 93.89 104 93.89"/><path class="cls-9" d="M90.81,84.16H103a1,1,0,0,1,1,1V81.72a1,1,0,0,0-1-1H90.82a1,1,0,0,0-1,1V93.88h0v-8.7A1,1,0,0,1,90.81,84.16Z"/><path class="cls-9" d="M90.81,94.9H103a1,1,0,0,0,1-1v-8.7a1,1,0,0,0-1-1H90.81a1,1,0,0,0-1,1v8.7A1,1,0,0,0,90.81,94.9Z"/><path class="cls-9" d="M97.47,70.47a5.77,5.77,0,0,1,5.78-5.77H104V62.76a1,1,0,0,0-1-1H90.83a1,1,0,0,0-1,1V74.92a1,1,0,0,0,1,1h10.63A5.77,5.77,0,0,1,97.47,70.47Z"/><path class="cls-9" d="M90.83,57H103a1,1,0,0,0,1-1V43.81a1,1,0,0,0-1-1H90.85a1,1,0,0,0-1,1V56A1,1,0,0,0,90.83,57Z"/><rect class="cls-9" x="89.83" y="23.84" width="14.21" height="14.21" rx="1.02" ry="1.02"/><path class="cls-9" d="M136.57,115.5a6.29,6.29,0,0,1,5.37-2.75h0a6.26,6.26,0,0,1,.83.08h.06a6.24,6.24,0,0,1,.83.2h0a6.26,6.26,0,0,1,.7.28l.19.09a6.3,6.3,0,0,1,.72.41l3.69,2.51h0l2,1.39,0-21.14-5.74,3.9a6.33,6.33,0,0,1-.72.41l-.19.09a6.27,6.27,0,0,1-.7.28h0a6.24,6.24,0,0,1-.83.2h-.06a6.29,6.29,0,0,1-4.52-11.43l12-8.15a3.41,3.41,0,0,0-2.61-1.23l-31.28,0a3.42,3.42,0,0,0-3.43,3.42l0,45.31a3.43,3.43,0,0,0,3.42,3.43l31.28,0a3.39,3.39,0,0,0,2.13-.76l-11.51-7.84A6.3,6.3,0,0,1,136.57,115.5Z"/><path class="cls-8" d="M.14,8.54,0,204.81a8.55,8.55,0,0,0,8.54,8.55h7.67L16.36,0H8.7A8.55,8.55,0,0,0,.14,8.54Z"/><path class="cls-10" d="M139.55,66.87V64.73L104,64.7v1.62h1.69v8.34H104v.28a1,1,0,0,1-1,1h-1.54a5.76,5.76,0,0,0,1.79.29l45.88,0h-.17A9.39,9.39,0,0,1,139.55,66.87Z"/><path class="cls-10" d="M104,74.93v-.28h-1.93A2.6,2.6,0,0,1,99.48,72V68.92a2.6,2.6,0,0,1,2.6-2.6H104V64.7h-.77A5.77,5.77,0,0,0,101.45,76H103A1,1,0,0,0,104,74.93Z"/><path class="cls-10" d="M134.41,56.52a5.77,5.77,0,0,0,5.15,5.74V50.79A5.77,5.77,0,0,0,134.41,56.52Z"/><path class="cls-10" d="M134.42,42.55a5.77,5.77,0,0,0,5.15,5.74V36.81A5.77,5.77,0,0,0,134.42,42.55Z"/><path class="cls-10" d="M148.92,22.81h-8.71a5.77,5.77,0,0,0-.63,11.51V32.2A9.39,9.39,0,0,1,148.92,22.81Z"/><path class="cls-10" d="M174.3,41.12a20.78,20.78,0,0,1,18.2,10.76l0-22.79h2.08a9.39,9.39,0,0,0-8.84-6.26l-21,0,0,20.62A20.79,20.79,0,0,1,174.3,41.12Z"/><path class="cls-10" d="M154.18,67.73a20.84,20.84,0,0,1-.8-5.72c0-.57,0-1.13.09-1.68a5.75,5.75,0,0,1-4.34,2h-8.95a5.82,5.82,0,0,1-.62,0v2.46h9.57A5.77,5.77,0,0,1,154.18,67.73Z"/><path class="cls-10" d="M154.82,69.63a5.72,5.72,0,0,1-5.54,6.64h9.29l.27-.18A21,21,0,0,1,154.82,69.63Z"/><path class="cls-10" d="M148.92,22.81h.23a5.77,5.77,0,0,1,0,11.55H140.2a5.83,5.83,0,0,1-.62,0v2.5a5.84,5.84,0,0,1,.62,0h8.95a5.77,5.77,0,0,1,0,11.55h-8.95a5.84,5.84,0,0,1-.62,0v2.5a5.82,5.82,0,0,1,.62,0h8.95a5.77,5.77,0,0,1,5.53,4.13,20.94,20.94,0,0,1,10.08-11.45l0-20.62H148.92Z"/><path class="cls-10" d="M154.89,70.51a5.78,5.78,0,0,0-.07-.88c-.24-.62-.45-1.25-.64-1.9a5.77,5.77,0,0,0-5.06-3h-9.57v2.14a9.39,9.39,0,0,0,9.39,9.4h.34A5.77,5.77,0,0,0,154.89,70.51Z"/><path class="cls-10" d="M149.13,62.3a5.75,5.75,0,0,0,4.34-2,20.74,20.74,0,0,1,1.19-5.44,5.77,5.77,0,0,0-5.53-4.13h-8.95a5.82,5.82,0,0,0-.62,0V62.26a5.82,5.82,0,0,0,.62,0Z"/><path class="cls-10" d="M149.14,48.33a5.77,5.77,0,0,0,0-11.55H140.2a5.84,5.84,0,0,0-.62,0V48.29a5.84,5.84,0,0,0,.62,0Z"/><path class="cls-10" d="M149.15,34.36a5.77,5.77,0,0,0,0-11.55h-.23a9.39,9.39,0,0,0-9.34,9.39v2.12a5.83,5.83,0,0,0,.62,0Z"/><path class="cls-10" d="M176.56,76.29H164.72v11l27.7-18.81A6.15,6.15,0,0,0,195,64.66h-1.3Z"/><path class="cls-10" d="M151.07,96.59l13.65-9.26v-11h-6.16l-8.3,5.64a3.39,3.39,0,0,1,.81,2.2Z"/><path class="cls-10" d="M143.68,101.28a6.26,6.26,0,0,1-.83.2A6.24,6.24,0,0,0,143.68,101.28Z"/><path class="cls-10" d="M145.33,100.49a6.2,6.2,0,0,1-.72.41A6.33,6.33,0,0,0,145.33,100.49Z"/><path class="cls-10" d="M136.58,98.8a6.29,6.29,0,0,0,6.2,2.68,6.38,6.38,0,0,1-.84.08l-2.05-3a3.29,3.29,0,0,1,.83-4.57l3.76-2.6L149,98l-3.7,2.51,5.74-3.9V84.11a3.39,3.39,0,0,0-.81-2.2l-12,8.15A6.3,6.3,0,0,0,136.58,98.8Z"/><path class="cls-10" d="M144.42,101a6.17,6.17,0,0,1-.7.28A6.27,6.27,0,0,0,144.42,101Z"/><path class="cls-10" d="M176.56,76.29l17.13-11.63H192.5V51.88a20.8,20.8,0,0,0-27.76-8.44l0,32.84Z"/><path class="cls-10" d="M164.75,43.44a20.94,20.94,0,0,0-10.08,11.45,5.74,5.74,0,0,1-1.19,5.44c0,.56-.09,1.11-.09,1.68a20.84,20.84,0,0,0,.8,5.72,5.72,5.72,0,0,1,.64,1.9,21,21,0,0,0,4,6.46l-.27.18h6.16Z"/><path class="cls-10" d="M154.18,67.73c.18.65.39,1.28.64,1.9A5.72,5.72,0,0,0,154.18,67.73Z"/><path class="cls-10" d="M154.9,56.54a5.79,5.79,0,0,0-.24-1.65,20.74,20.74,0,0,0-1.19,5.44A5.75,5.75,0,0,0,154.9,56.54Z"/><rect class="cls-11" x="104.02" y="66.32" width="1.69" height="8.34"/><path class="cls-11" d="M99.48,68.92V72a2.6,2.6,0,0,0,2.6,2.61H104V66.32h-1.93A2.6,2.6,0,0,0,99.48,68.92Z"/><path class="cls-10" d="M195.13,62.05c0,.33,0,.66,0,1,0,.16,0,.32,0,.48v.06h0v.09h0a6.59,6.59,0,0,1-.14,1h13.91l0-35.57H194.6a9.37,9.37,0,0,1,.55,3.14Z"/><path class="cls-10" d="M195.12,63.68v-.07s0,0,0,.07Z"/><path class="cls-10" d="M192.51,51.88a20.91,20.91,0,0,1,2.62,10.17h0l0-29.82a9.37,9.37,0,0,0-.55-3.14h-2.08Z"/><path class="cls-10" d="M195.13,63.59h0v-.06c0-.16,0-.32,0-.48,0-.32,0-.65,0-1v1.54Z"/><path class="cls-10" d="M195,64.66a6.59,6.59,0,0,0,.14-1l-1.43,1Z"/><path class="cls-10" d="M193.69,64.66l1.43-1s0,0,0-.07V62.05h0a20.91,20.91,0,0,0-2.62-10.17V64.66Z"/><path class="cls-11" d="M144.61,100.9l-.19.09Z"/><path class="cls-11" d="M143.72,101.27h0Z"/><path class="cls-11" d="M142.85,101.48h0Z"/><path class="cls-11" d="M144.49,91.42,140.73,94a3.29,3.29,0,0,0-.83,4.57l2.05,3a6.38,6.38,0,0,0,.84-.08h.06a6.26,6.26,0,0,0,.83-.2h0a6.17,6.17,0,0,0,.7-.28l.19-.09a6.2,6.2,0,0,0,.72-.41L149,98Z"/><path class="cls-10" d="M104,139.6h1.69v8.34H104v1.62l35.53,0v-2.14a9.39,9.39,0,0,1,9.4-9.39h.18l-45.29,0a1,1,0,0,1,.19.56Z"/><path class="cls-10" d="M97.42,143.78a5.77,5.77,0,0,0,5.77,5.78H104v-1.62H102a2.6,2.6,0,0,1-2.6-2.6V142.2a2.61,2.61,0,0,1,2.61-2.6H104v-1a1,1,0,0,0-.19-.56h-.58A5.77,5.77,0,0,0,97.42,143.78Z"/><path class="cls-10" d="M192.43,162.5a20.8,20.8,0,0,1-27.77,8.4v19.88l21,0a9.39,9.39,0,0,0,8.55-5.5h-1.77Z"/><path class="cls-10" d="M149.06,149.58h-9.57v2.14h9.57a5.75,5.75,0,0,1,4.33,2c0-.46-.07-.91-.07-1.38a20.82,20.82,0,0,1,.8-5.72A5.77,5.77,0,0,1,149.06,149.58Z"/><path class="cls-10" d="M154.84,143.82a5.71,5.71,0,0,1-.07.87,21,21,0,0,1,4-6.45l-.27-.18h-9.28A5.77,5.77,0,0,1,154.84,143.82Z"/><path class="cls-10" d="M154.54,159.3a5.77,5.77,0,0,1-5.48,4h-9.57v2.14h9.57A5.77,5.77,0,0,1,149,177h-9.57v2.21H149a5.77,5.77,0,0,1,0,11.54h-1.26c.36,0,.72.06,1.08.06h15.78V170.9A20.94,20.94,0,0,1,154.54,159.3Z"/><path class="cls-10" d="M139.49,147.44v2.14h9.57a5.77,5.77,0,0,0,5.06-3c.19-.65.4-1.28.64-1.9a5.71,5.71,0,0,0,.07-.87,5.77,5.77,0,0,0-5.59-5.77h-.35A9.39,9.39,0,0,0,139.49,147.44Z"/><path class="cls-10" d="M192.36,145.86,164.69,127v11h11.83l17.11,11.65h1.3A6.15,6.15,0,0,0,192.36,145.86Z"/><path class="cls-10" d="M164.69,127l-13.63-9.28v11.69a3.41,3.41,0,0,1-1.3,2.66l8.77,6h6.16Z"/><path class="cls-10" d="M151,129.42V117.73l-2-1.39-4.54,6.55-3.76-2.6a3.29,3.29,0,0,1-.83-4.57l2.06-3a6.29,6.29,0,0,0-3.7,11.5l11.51,7.84A3.41,3.41,0,0,0,151,129.42Z"/><path class="cls-10" d="M141.94,112.74a6.4,6.4,0,0,1,.83.08A6.26,6.26,0,0,0,141.94,112.74Z"/><path class="cls-10" d="M142.84,112.83a6.28,6.28,0,0,1,.83.2A6.24,6.24,0,0,0,142.84,112.83Z"/><path class="cls-10" d="M144.6,113.41a6.16,6.16,0,0,1,.72.41A6.3,6.3,0,0,0,144.6,113.41Z"/><path class="cls-10" d="M143.71,113a6.23,6.23,0,0,1,.7.28A6.26,6.26,0,0,0,143.71,113Z"/><path class="cls-10" d="M193.62,149.72l-17.11-11.65H164.68l0,32.84a20.8,20.8,0,0,0,27.77-8.4V149.72Z"/><path class="cls-10" d="M158.52,138.06l.27.18a21,21,0,0,0-4,6.45,5.73,5.73,0,0,1-.64,1.9,20.82,20.82,0,0,0-.8,5.72c0,.46,0,.92.07,1.38a5.74,5.74,0,0,1,1.15,5.61,20.94,20.94,0,0,0,10.12,11.6l0-32.84Z"/><path class="cls-10" d="M154.77,144.69c-.24.62-.46,1.26-.64,1.9A5.73,5.73,0,0,0,154.77,144.69Z"/><rect class="cls-11" x="103.96" y="139.6" width="1.69" height="8.34"/><path class="cls-11" d="M102,139.6a2.61,2.61,0,0,0-2.61,2.6v3.13a2.6,2.6,0,0,0,2.6,2.6H104V139.6Z"/><path class="cls-10" d="M103.28,151.69a1,1,0,0,1-.34.07h-.59a5.76,5.76,0,0,0-4.85,4.73h1.92v-.61a2.61,2.61,0,0,1,2.61-2.6h3.62v8.34H104v1.62l35.53,0V151.72Z"/><path class="cls-10" d="M103.18,163.23h.77v-1.62H102a2.6,2.6,0,0,1-2.6-2.6V156.5H97.5a5.74,5.74,0,0,0,5.68,6.74Z"/><path class="cls-10" d="M103.28,151.69h-.09a5.8,5.8,0,0,0-.84.07h.59A1,1,0,0,0,103.28,151.69Z"/><path class="cls-10" d="M149.06,151.72h-9.57v11.54h9.57a5.77,5.77,0,0,0,5.48-4,20.76,20.76,0,0,1-1.15-5.61A5.75,5.75,0,0,0,149.06,151.72Z"/><path class="cls-10" d="M153.39,153.69a20.76,20.76,0,0,0,1.15,5.61,5.74,5.74,0,0,0-1.15-5.61Z"/><path class="cls-11" d="M104,157.52v4.1h1.69v-8.34H102a2.61,2.61,0,0,0-2.61,2.6v.61h3.51A1,1,0,0,1,104,157.52Z"/><path class="cls-11" d="M102,161.62H104v-4.1a1,1,0,0,0-1-1H99.42V159A2.6,2.6,0,0,0,102,161.62Z"/><path class="cls-10" d="M103.95,167h1.69v8.34H102a2.6,2.6,0,0,1-2.6-2.61v-2h-2c0,.14,0,.29,0,.44a5.75,5.75,0,0,0,1.93,4.3h3.59a1,1,0,0,1,1,1v.45l35.53,0V165.4l-35.53,0Z"/><path class="cls-10" d="M103.94,176.92v-.45a1,1,0,0,0-1-1H99.33a5.74,5.74,0,0,0,3.84,1.47Z"/><path class="cls-10" d="M99.41,169.57A2.6,2.6,0,0,1,102,167h1.93v-1.59h-.77a5.77,5.77,0,0,0-5.75,5.33h2Z"/><path class="cls-10" d="M149,177a5.77,5.77,0,0,0,0-11.54h-9.57v11.54Z"/><path class="cls-11" d="M102.92,170.71H99.41v2a2.6,2.6,0,0,0,2.6,2.61h3.62V167h-1.69v2.72A1,1,0,0,1,102.92,170.71Z"/><path class="cls-11" d="M99.41,169.57v1.14h3.51a1,1,0,0,0,1-1V167H102A2.6,2.6,0,0,0,99.41,169.57Z"/><path class="cls-10" d="M103.94,180.65h1.69V189h-1.76a1,1,0,0,1-1,.68h-3a5.74,5.74,0,0,0,3.26,1l44.62,0c-4.68-.45-8.31-3.78-8.3-8.6v-3l-35.53,0Z"/><path class="cls-10" d="M103.86,189H102a2.61,2.61,0,0,1-2.6-2.6v-3.13a2.6,2.6,0,0,1,2.61-2.6h1.93v-1.52h-.77a5.77,5.77,0,0,0-3.27,10.53h3A1,1,0,0,0,103.86,189Z"/><path class="cls-10" d="M147.77,190.71H149a5.77,5.77,0,0,0,0-11.54h-9.57v3C139.47,186.93,143.1,190.26,147.77,190.71Z"/><path class="cls-11" d="M103.86,189h1.76v-8.34h-1.69v8A1,1,0,0,1,103.86,189Z"/><path class="cls-11" d="M99.4,183.25v3.13A2.61,2.61,0,0,0,102,189h1.86a1,1,0,0,0,.07-.35v-8H102A2.6,2.6,0,0,0,99.4,183.25Z"/><path class="cls-10" d="M194.92,149.72a6.53,6.53,0,0,1,.13,1h0v.09h0s0,0,0,.06,0,.32,0,.48c0,.32,0,.66,0,1v0l0,29a9.35,9.35,0,0,1-.85,3.89H208.8l0-35.57Z"/><path class="cls-10" d="M195.06,150.7h0v0Z"/><path class="cls-10" d="M195.06,152.36a20.9,20.9,0,0,1-2.63,10.14l0,22.8h1.77a9.35,9.35,0,0,0,.85-3.89Z"/><path class="cls-10" d="M195.06,152.33c0-.33,0-.66,0-1,0-.16,0-.32,0-.48s0,0,0-.06h0v1.54Z"/><path class="cls-10" d="M195.05,150.7a6.53,6.53,0,0,0-.13-1h-1.3Z"/><path class="cls-10" d="M192.44,149.72V162.5a20.9,20.9,0,0,0,2.63-10.14V150.7l-1.43-1Z"/><path class="cls-11" d="M142.77,112.82h0Z"/><polygon class="cls-11" points="145.32 113.83 149.01 116.34 149.01 116.34 145.32 113.83"/><path class="cls-11" d="M144.41,113.32l.19.09Z"/><polygon class="cls-11" points="141.94 112.75 141.94 112.75 141.94 112.75 141.94 112.75"/><path class="cls-11" d="M143.67,113h0Z"/><path class="cls-11" d="M144.6,113.41l-.19-.09a6.23,6.23,0,0,0-.7-.28h0a6.28,6.28,0,0,0-.83-.2h-.06a6.4,6.4,0,0,0-.83-.08h0l-2.06,3a3.29,3.29,0,0,0,.83,4.57l3.76,2.6,4.54-6.55-3.69-2.51A6.16,6.16,0,0,0,144.6,113.41Z"/><path class="cls-2" d="M219,44.82c0,7.66-3.38,12.53-4.58,19.86h-5.54v1.91h12.17l0-41.73H208.92V29.1h9.4C218.71,33.41,219,40.41,219,44.82Z"/><path class="cls-2" d="M214.43,64.67c1.19-7.33,4.56-12.2,4.58-19.86,0-4.4-.3-11.41-.69-15.71h-9.4l0,35.57Z"/><path class="cls-12" d="M222.7,66.58h-1.64l28.13,0V20.25h4v-.17l-32.1,0v4.8h1.64Zm9-41.61a4.24,4.24,0,1,1-4.24,4.24A4.24,4.24,0,0,1,231.66,25Z"/><rect class="cls-12" x="221.07" y="24.85" width="1.64" height="41.73"/><path class="cls-2" d="M208.83,148.36v1.38h5.54c1.18,7.33,4.54,12.2,4.55,19.86,0,4.4-.31,11.41-.71,15.71h-9.4v4.78H221l0-41.73Z"/><polygon class="cls-2" points="222.45 148.37 222.64 148.37 222.64 148.37 222.45 148.37"/><path class="cls-2" d="M218.91,169.6c0-7.66-3.36-12.54-4.55-19.86h-5.54l0,35.57h9.4C218.6,181,218.92,174,218.91,169.6Z"/><polygon class="cls-12" points="221 148.37 222.45 148.37 221 148.37 221 148.37"/><path class="cls-12" d="M237.2,148.38a4.81,4.81,0,0,1-2,.4,10.1,10.1,0,0,1-2.62-.4h-10l0,41.73H221v4.8l29.34,0V148.39Zm-5.54,40.12a4.24,4.24,0,1,1,4.24-4.24A4.24,4.24,0,0,1,231.66,188.5Z"/><polygon class="cls-12" points="222.64 148.37 222.45 148.37 221 148.37 220.97 190.1 222.61 190.1 222.64 148.37"/><polygon class="cls-12" points="250.3 148.36 250.3 148.39 253.1 148.39 253.07 194.92 250.3 194.91 250.3 195.13 256.93 195.13 256.93 148.36 250.3 148.36"/><polygon class="cls-12" points="253.1 148.39 250.3 148.39 250.3 194.91 253.07 194.92 253.1 148.39"/><polygon class="cls-12" points="249.19 66.6 249.19 66.65 256.93 66.65 256.93 20.25 253.19 20.25 253.16 66.61 249.19 66.6"/><polygon class="cls-12" points="249.19 66.6 253.16 66.61 253.19 20.25 249.19 20.25 249.19 66.6"/><circle class="cls-2" cx="231.66" cy="184.26" r="4.24"/><circle class="cls-2" cx="231.66" cy="29.22" r="4.24"/></g></g></svg>