<svg xmlns="http://www.w3.org/2000/svg" viewBox="0 0 724.71 249.29">
    <defs>
        <style>
            .cls-1{fill:#4b87d0;}.cls-2{fill:#fff;}.cls-3{fill:#69f9e4;}.cls-4{fill:#63bbaf;}.cls-5{fill:#ace5db;}.cls-6{fill:#18343a;}.cls-7{fill:#c03e31;}.cls-8{fill:none;}.cls-9{fill:#4b6568;stroke: #4b6568;}.cls-10{fill:#edc298;stroke: #edc298;}.cls-11{fill:#f9deb2;}.cls-12{fill:#d04f44;}.cls-13{fill:#6a9bcc;}
        </style>
    </defs>
    <title>large middle</title>
    <g id="Layer_2" data-name="Layer 2">
        <g id="Layer_1-2" data-name="Layer 1">
            <circle class="cls-1" cx="624.88" cy="103.4" r="58.88"/>
            <rect class="cls-2" x="599.97" y="65.09" width="49.84" height="71.95"
                  transform="translate(523.11 725.84) rotate(-89.94)"/>
            <path class="cls-3" d="M662.51,127.7l-75.3-.08.06-53.19,75.3.09Zm-71.95-3.43,68.6.07.05-46.48-68.6-.07Z"/>
            <polygon class="cls-2" points="588.89 125.93 624.89 98.26 660.82 126 588.89 125.93"/>
            <path class="cls-3"
                  d="M660.82,127.68h0l-71.93-.08a1.67,1.67,0,0,1-1-3l36-27.66a1.67,1.67,0,0,1,2,0l35.85,27.67a1.68,1.68,0,0,1-.94,3.07Zm-67-3.43,62.08.07-31-23.94Z"/>
            <polygon class="cls-2" points="588.95 76.1 624.88 106.39 660.88 76.18 588.95 76.1"/>
            <path class="cls-3"
                  d="M624.88,108.07a1.68,1.68,0,0,1-1.08-.4L587.87,77.38a1.68,1.68,0,0,1,1.08-3h0l71.93.08a1.68,1.68,0,0,1,1.08,3l-36,30.21A1.67,1.67,0,0,1,624.88,108.07ZM593.54,77.78l31.34,26.42,31.4-26.35Z"/>
            <path class="cls-2"
                  d="M706.82,24.2l4-6.41-8.53-5.26-4,6.42a30.81,30.81,0,0,0-13.92-2.25l-1.73-7.34-9.77,2.31L674.61,19a30.71,30.71,0,0,0-11.45,8.23l-6.42-4-5.28,8.52,6.43,4a30.65,30.65,0,0,0-2.27,13.88l-7.35,1.75,2.3,9.73,7.36-1.73a30.65,30.65,0,0,0,8.24,11.4l-4,6.42,8.53,5.26,4-6.42a30.88,30.88,0,0,0,13.91,2.25l1.73,7.34,9.77-2.3L698.37,76a30.81,30.81,0,0,0,11.44-8.23l6.43,4,5.28-8.51-6.43-4a30.78,30.78,0,0,0,2.27-13.89l7.35-1.74-2.3-9.74-7.35,1.74A30.76,30.76,0,0,0,706.82,24.2Zm-3.06,19.22a17.74,17.74,0,1,1-21.34-13.16A17.72,17.72,0,0,1,703.76,43.42Z"/>
            <path class="cls-1"
                  d="M66.75,93.23,65.46,87.7l-7.33,1.73L59.42,95a23.2,23.2,0,0,0-8.6,6.19l-4.81-3-4,6.41,4.82,3A23.2,23.2,0,0,0,45.13,118l-5.52,1.31,1.71,7.33,5.52-1.31A23,23,0,0,0,53,134l-3,4.83,6.4,4,3-4.83a23.06,23.06,0,0,0,10.44,1.69l1.29,5.53,7.33-1.73-1.29-5.53a23.18,23.18,0,0,0,8.6-6.19l4.82,3,4-6.41-4.81-3a23.19,23.19,0,0,0,1.72-10.46l5.52-1.3-1.71-7.34-5.52,1.31a23,23,0,0,0-6.17-8.6l3-4.83-6.4-4-3,4.83A23.07,23.07,0,0,0,66.75,93.23Zm8.58,11.85A13.34,13.34,0,1,1,57,109.41,13.32,13.32,0,0,1,75.32,105.08Z"/>
            <path class="cls-2"
                  d="M11.18,63.36l-4.82-3-4,6.41,4.82,3a23.14,23.14,0,0,0-1.7,10.46L0,81.52l1.73,7.34,5.52-1.29a23.12,23.12,0,0,0,6.18,8.6l-3,4.83,6.4,4,3-4.83a23,23,0,0,0,10.44,1.72l1.3,5.53,7.32-1.72-1.3-5.53A23.08,23.08,0,0,0,46.16,94L51,97l4-6.41-4.82-3a23.15,23.15,0,0,0,1.7-10.46l5.51-1.3-1.72-7.34L50.1,69.75a23.13,23.13,0,0,0-6.18-8.61l3-4.83-6.4-4-3,4.83a23,23,0,0,0-10.44-1.72l-1.3-5.53-7.32,1.72,1.3,5.53A23,23,0,0,0,11.18,63.36Zm14.44,2.31a13.34,13.34,0,1,1-9.91,16A13.33,13.33,0,0,1,25.62,65.67Z"/>
            <circle class="cls-4" cx="213.73" cy="40.28" r="33.01" transform="translate(-0.52 2.86) rotate(-0.77)"/>
            <path class="cls-5"
                  d="M213.29,7.27a33,33,0,0,0-27.36,15.22A43.06,43.06,0,0,0,217.5,35.62a43,43,0,0,0,26.15-9.27A33,33,0,0,0,213.29,7.27Z"/>
            <path class="cls-6"
                  d="M252.1,39.77a38.43,38.43,0,1,0-37.91,38.95A38.43,38.43,0,0,0,252.1,39.77Zm-67.88.91a29.45,29.45,0,1,1,29.85,29.05A29.45,29.45,0,0,1,184.22,40.68Z"/>
            <rect class="cls-6" x="113.53" y="34.16" width="67.33" height="14.03"
                  transform="translate(-0.54 1.99) rotate(-0.77)"/>
            <rect class="cls-7" x="109.04" y="30.03" width="55.54" height="22.57"
                  transform="translate(-0.54 1.84) rotate(-0.77)"/>
            <circle class="cls-2" cx="221.66" cy="22.06" r="6.33" transform="translate(-0.28 2.98) rotate(-0.77)"/>
            <polygon class="cls-8"
                     points="473.7 236.83 473.67 218.87 474.11 218.87 474.11 216.62 438.12 248.19 471.56 248.19 471.54 236.84 473.7 236.83"/>
            <path class="cls-6"
                  d="M260.5,236.47a1.38,1.38,0,0,1,.13-1.95L273,223.69a1.38,1.38,0,0,1,1.95.13l10.83,12.35a1.38,1.38,0,0,1-.13,1.95l-11.49,10.07h10.58l5.51-4.83a1.38,1.38,0,0,1,1.95.13l4.13,4.7h8.51L297,239.27a1.38,1.38,0,0,1,.13-1.95l12.35-10.84a1.38,1.38,0,0,1,1.95.13L322.25,239a1.38,1.38,0,0,1-.13,1.95l-8.29,7.28h59.05l-14.67-16.72a4.63,4.63,0,0,1,.43-6.53l46-40.34a4.62,4.62,0,0,1,6.53.43L439,216.76a4.63,4.63,0,0,1-.42,6.53l-28.38,24.9h27.93l36-31.57,0-17.19a10.54,10.54,0,0,1-8.22-3.24l-61.72-64.84h0l-5.25-5.52a10.75,10.75,0,0,1-.9-1.1l-.2-.28a10.74,10.74,0,0,1-.67-1.11l0-.06a10.64,10.64,0,0,1-.56-1.34l0-.12a10.74,10.74,0,0,1-.52-2.5l-.84-1a1.38,1.38,0,0,1,.13-1.95l1.1-1a10.7,10.7,0,0,1,8.7-7.63l2.55-2.24a1.38,1.38,0,0,1,1.95.13l3.79,4.32a10.73,10.73,0,0,1,1.12,1l28.87,30.33L442,132.93l-10.33-11.77a1.38,1.38,0,0,1,.13-1.95l6.92-6.07L437.34,105,427.15,114a1.38,1.38,0,0,1-1.95-.13l-6.67-7.6h0L397.12,81.81a1.38,1.38,0,0,1,.13-1.95L409.6,69a1.38,1.38,0,0,1,1.94.13L428.8,88.83h0l.65.74,3.51,4h0L436,97.07l-5.36-32.47L405.18,35.54a11.54,11.54,0,0,0-16.28-1.07L211.81,189.83a11.54,11.54,0,0,0-1.07,16.28l36.91,42.08h23.12Zm12.81-24.2-10.83-12.35a1.38,1.38,0,0,1,.13-1.95L275,187.14a1.38,1.38,0,0,1,1.95.13l10.83,12.35a1.38,1.38,0,0,1-.13,2L275.26,212.4A1.38,1.38,0,0,1,273.31,212.27ZM337.44,169a1.38,1.38,0,0,1,.12-1.95l12.35-10.84a1.38,1.38,0,0,1,1.95.13l10.83,12.35a1.38,1.38,0,0,1-.13,1.95l-12.35,10.84a1.38,1.38,0,0,1-1.95-.13Zm5.9,18.52L331,198.33a1.38,1.38,0,0,1-1.94-.13L318.2,185.85a1.38,1.38,0,0,1,.13-1.95l12.35-10.84a1.38,1.38,0,0,1,1.95.13l10.83,12.35A1.38,1.38,0,0,1,343.34,187.49Zm13.33-35.39a1.38,1.38,0,0,1,.13-1.95l12.35-10.83a1.38,1.38,0,0,1,1.95.13l10.83,12.35a1.38,1.38,0,0,1-.13,1.95l-12.35,10.84a1.38,1.38,0,0,1-1.95-.13Zm12.81-24.2-10.83-12.35a1.38,1.38,0,0,1,.13-1.95l12.35-10.84a1.38,1.38,0,0,1,1.95.13l10.84,12.35a1.38,1.38,0,0,1-.13,1.95L371.43,128A1.38,1.38,0,0,1,369.48,127.91Zm-4.81,4.22a1.38,1.38,0,0,1-.13,1.95L352.2,144.91a1.38,1.38,0,0,1-2-.13l-10.83-12.35a1.38,1.38,0,0,1,.13-1.95l12.35-10.84a1.38,1.38,0,0,1,1.95.13ZM345.44,149a1.38,1.38,0,0,1-.12,1.95L333,161.79a1.38,1.38,0,0,1-1.95-.13L320.18,149.3a1.38,1.38,0,0,1,.13-1.95l12.35-10.84a1.38,1.38,0,0,1,1.95.13Zm-19.23,16.87a1.38,1.38,0,0,1-.12,1.95l-12.35,10.84a1.38,1.38,0,0,1-1.95-.13l-10.83-12.35a1.38,1.38,0,0,1,.13-1.95l12.35-10.84a1.38,1.38,0,0,1,1.95.13ZM307,182.75a1.38,1.38,0,0,1-.12,1.95l-12.35,10.84a1.38,1.38,0,0,1-1.95-.13l-10.83-12.35a1.38,1.38,0,0,1,.13-1.95l12.35-10.84a1.38,1.38,0,0,1,1.95.13Zm-2.1,38.49-12.35,10.83a1.38,1.38,0,0,1-1.95-.13L279.73,219.6a1.38,1.38,0,0,1,.13-1.95l12.35-10.84a1.38,1.38,0,0,1,1.95.13L305,219.29A1.38,1.38,0,0,1,304.87,221.24Zm4.93-6.17L299,202.72a1.38,1.38,0,0,1,.13-1.95l12.35-10.84a1.38,1.38,0,0,1,1.95.13l10.83,12.35a1.38,1.38,0,0,1-.13,1.95L311.75,215.2A1.38,1.38,0,0,1,309.8,215.07Zm31.56,9L329,234.87a1.38,1.38,0,0,1-1.94-.13l-10.84-12.35a1.38,1.38,0,0,1,.13-1.94l12.35-10.84a1.38,1.38,0,0,1,1.95.13l10.83,12.35A1.38,1.38,0,0,1,341.36,224Zm57.7-50.62-12.35,10.84h0l-6.87,6h0l-12.35,10.84h0L348.24,218a1.38,1.38,0,0,1-1.95-.13l-10.84-12.35a1.38,1.38,0,0,1,.13-1.95l19.23-16.87h0l6.81-6,12.42-10.9h0L386.41,159a1.38,1.38,0,0,1,1.95.13l10.84,12.35A1.38,1.38,0,0,1,399.06,173.42Zm6.58-31.3a1.38,1.38,0,0,1,1.95.13l10.84,12.35a1.38,1.38,0,0,1-.13,1.95l-12.35,10.84a1.38,1.38,0,0,1-1.95-.13L393.16,154.9a1.38,1.38,0,0,1,.13-1.95Zm-4.47-7.19a1.38,1.38,0,0,1-.13,1.95l-12.35,10.84a1.38,1.38,0,0,1-1.95-.13L375.9,135.23a1.38,1.38,0,0,1,.13-1.95l12.35-10.84a1.38,1.38,0,0,1,1.95.13Zm2-36.55a1.38,1.38,0,0,1-.13,1.95l-12.35,10.84a1.38,1.38,0,0,1-1.95-.13L377.88,98.69a1.38,1.38,0,0,1,.13-1.95L390.36,85.9a1.38,1.38,0,0,1,1.95.13ZM380,60.2l12.35-10.84a1.38,1.38,0,0,1,1.95.13l10.83,12.35a1.38,1.38,0,0,1-.12,1.95L392.64,74.62a1.38,1.38,0,0,1-1.95-.13L379.86,62.14A1.38,1.38,0,0,1,380,60.2ZM360.75,77.07l12.35-10.84a1.38,1.38,0,0,1,1.95.13l10.83,12.35a1.38,1.38,0,0,1-.13,1.95L373.41,91.49a1.38,1.38,0,0,1-1.95-.13L360.63,79A1.38,1.38,0,0,1,360.75,77.07ZM341.52,93.94l12.35-10.84a1.38,1.38,0,0,1,1.95.13l10.83,12.35a1.38,1.38,0,0,1-.13,1.95l-12.35,10.84a1.38,1.38,0,0,1-1.95-.13L341.39,95.89A1.38,1.38,0,0,1,341.52,93.94Zm-19.23,16.87L334.64,100a1.38,1.38,0,0,1,1.95.13l10.83,12.35a1.38,1.38,0,0,1-.13,1.95l-12.35,10.83a1.38,1.38,0,0,1-1.95-.13l-10.83-12.35A1.38,1.38,0,0,1,322.28,110.81ZM303,127.69l12.35-10.84a1.38,1.38,0,0,1,1.95.13l10.84,12.35a1.38,1.38,0,0,1-.13,1.95l-12.35,10.84a1.38,1.38,0,0,1-1.95-.13l-10.83-12.35A1.38,1.38,0,0,1,303,127.69Zm-19.23,16.87,12.35-10.84a1.38,1.38,0,0,1,1.95.13l10.83,12.35a1.38,1.38,0,0,1-.13,1.95L296.47,159a1.38,1.38,0,0,1-1.95-.13l-10.83-12.35A1.38,1.38,0,0,1,283.81,144.56Zm-19.23,16.87,12.35-10.84a1.38,1.38,0,0,1,1.95.13l10.83,12.35a1.38,1.38,0,0,1-.12,1.95l-12.35,10.84a1.38,1.38,0,0,1-1.95-.13l-10.83-12.35A1.38,1.38,0,0,1,264.58,161.43Zm-19.23,16.87,12.35-10.84a1.38,1.38,0,0,1,1.95.13l10.83,12.35a1.38,1.38,0,0,1-.13,1.95L258,192.73a1.38,1.38,0,0,1-1.95-.13l-10.83-12.35A1.38,1.38,0,0,1,245.35,178.31Zm-8.53,31.17L226,197.13a1.38,1.38,0,0,1,.13-1.95l12.35-10.84a1.38,1.38,0,0,1,1.95.13l10.83,12.35a1.38,1.38,0,0,1-.13,1.95L238.77,209.6A1.38,1.38,0,0,1,236.82,209.48Zm17.26,19.67L243.24,216.8a1.38,1.38,0,0,1,.13-1.95L255.72,204a1.38,1.38,0,0,1,1.95.13l10.83,12.35a1.38,1.38,0,0,1-.12,1.95L256,229.28A1.38,1.38,0,0,1,254.08,229.15Z"/>
            <path class="cls-6" d="M461.64,105.44a9.8,9.8,0,0,1,.85-4.58l-7.23-8.24,2.23,13.5Z"/>
            <rect class="cls-9" x="229.02" y="187.38" width="19.19" height="19.19" rx="1.38" ry="1.38"
                  transform="translate(-70.66 206.26) rotate(-41.26)"/>
            <path class="cls-9"
                  d="M256.06,192.6a1.38,1.38,0,0,0,1.95.13l12.35-10.84a1.38,1.38,0,0,0,.13-1.95L259.65,167.6a1.38,1.38,0,0,0-1.95-.13l-12.35,10.84a1.38,1.38,0,0,0-.12,1.95Z"/>
            <path class="cls-9"
                  d="M275.29,175.73a1.38,1.38,0,0,0,1.95.13L289.59,165a1.38,1.38,0,0,0,.13-1.95l-10.83-12.35a1.38,1.38,0,0,0-1.95-.13l-12.35,10.84a1.38,1.38,0,0,0-.12,1.95Z"/>
            <path class="cls-9"
                  d="M294.52,158.86a1.38,1.38,0,0,0,1.95.13l12.35-10.84a1.38,1.38,0,0,0,.13-1.95l-10.83-12.35a1.38,1.38,0,0,0-1.95-.13l-12.35,10.84a1.38,1.38,0,0,0-.12,1.95Z"/>
            <path class="cls-9"
                  d="M313.76,142a1.38,1.38,0,0,0,1.95.13l12.35-10.84a1.38,1.38,0,0,0,.13-1.95L317.35,117a1.38,1.38,0,0,0-1.95-.13L303,127.69a1.38,1.38,0,0,0-.12,1.95Z"/>
            <path class="cls-9"
                  d="M333,125.11a1.38,1.38,0,0,0,1.95.13l12.35-10.83a1.38,1.38,0,0,0,.13-1.95l-10.83-12.35a1.38,1.38,0,0,0-1.95-.13l-12.35,10.83a1.38,1.38,0,0,0-.13,1.95Z"/>
            <path class="cls-9"
                  d="M352.23,108.24a1.38,1.38,0,0,0,1.95.13l12.35-10.84a1.38,1.38,0,0,0,.13-1.95L355.82,83.23a1.38,1.38,0,0,0-1.95-.13L341.52,93.94a1.38,1.38,0,0,0-.13,1.95Z"/>
            <path class="cls-9"
                  d="M371.46,91.37a1.38,1.38,0,0,0,1.95.13l12.35-10.84a1.38,1.38,0,0,0,.13-1.95L375.05,66.36a1.38,1.38,0,0,0-1.95-.13L360.75,77.07a1.38,1.38,0,0,0-.13,1.95Z"/>
            <path class="cls-9"
                  d="M390.69,74.49a1.38,1.38,0,0,0,1.95.13L405,63.78a1.38,1.38,0,0,0,.12-1.95L394.29,49.49a1.38,1.38,0,0,0-1.95-.13L380,60.2a1.38,1.38,0,0,0-.13,1.95Z"/>
            <path class="cls-9"
                  d="M268.5,216.49l-10.83-12.35a1.38,1.38,0,0,0-1.95-.13l-12.35,10.83a1.38,1.38,0,0,0-.13,1.95l10.83,12.35a1.38,1.38,0,0,0,1.95.13l12.35-10.83A1.38,1.38,0,0,0,268.5,216.49Z"/>
            <path class="cls-9"
                  d="M287.74,199.62,276.9,187.27a1.38,1.38,0,0,0-1.95-.13L262.6,198a1.38,1.38,0,0,0-.13,1.95l10.83,12.35a1.38,1.38,0,0,0,1.95.13l12.35-10.84A1.38,1.38,0,0,0,287.74,199.62Z"/>
            <path class="cls-9"
                  d="M294.19,170.27,281.84,181.1a1.38,1.38,0,0,0-.13,1.95l10.83,12.35a1.38,1.38,0,0,0,1.95.13l12.35-10.84a1.38,1.38,0,0,0,.13-1.95L296.14,170.4A1.38,1.38,0,0,0,294.19,170.27Z"/>
            <path class="cls-9"
                  d="M313.42,153.39l-12.35,10.84a1.38,1.38,0,0,0-.13,1.95l10.83,12.35a1.38,1.38,0,0,0,1.95.13l12.35-10.84a1.38,1.38,0,0,0,.12-1.95l-10.84-12.35A1.38,1.38,0,0,0,313.42,153.39Z"/>
            <path class="cls-9"
                  d="M332.66,136.52l-12.35,10.84a1.38,1.38,0,0,0-.13,1.95L331,161.65a1.38,1.38,0,0,0,1.95.13l12.35-10.84a1.38,1.38,0,0,0,.13-1.95l-10.83-12.35A1.38,1.38,0,0,0,332.66,136.52Z"/>
            <path class="cls-9"
                  d="M351.89,119.65l-12.35,10.84a1.38,1.38,0,0,0-.13,1.95l10.83,12.35a1.38,1.38,0,0,0,2,.13l12.35-10.84a1.38,1.38,0,0,0,.13-1.95l-10.83-12.35A1.38,1.38,0,0,0,351.89,119.65Z"/>
            <path class="cls-9"
                  d="M383.91,115.25,373.07,102.9a1.38,1.38,0,0,0-1.95-.13l-12.35,10.84a1.38,1.38,0,0,0-.13,1.95l10.83,12.35a1.38,1.38,0,0,0,1.95.13l12.35-10.84A1.38,1.38,0,0,0,383.91,115.25Z"/>
            <path class="cls-9"
                  d="M390.36,85.9,378,96.74a1.38,1.38,0,0,0-.13,1.95L388.72,111a1.38,1.38,0,0,0,1.95.13L403,100.33a1.38,1.38,0,0,0,.13-1.95L392.31,86A1.38,1.38,0,0,0,390.36,85.9Z"/>
            <polygon class="cls-9" points="432.96 93.58 429.45 89.57 432.96 93.58 432.96 93.58"/>
            <path class="cls-9"
                  d="M414.5,99.54,426.85,88.7a1.38,1.38,0,0,1,1.95.13L411.54,69.16A1.38,1.38,0,0,0,409.6,69L397.24,79.87a1.38,1.38,0,0,0-.13,1.95l21.42,24.42h0l-4.17-4.75A1.38,1.38,0,0,1,414.5,99.54Z"/>
            <path class="cls-9"
                  d="M285.76,236.16l-10.83-12.35a1.38,1.38,0,0,0-1.95-.13l-12.35,10.84a1.38,1.38,0,0,0-.13,1.95l10.28,11.72h3.37l11.49-10.07A1.38,1.38,0,0,0,285.76,236.16Z"/>
            <path class="cls-9"
                  d="M294.16,206.94a1.38,1.38,0,0,0-1.95-.13l-12.35,10.84a1.38,1.38,0,0,0-.13,1.95l10.83,12.35a1.38,1.38,0,0,0,1.95.13l12.35-10.83a1.38,1.38,0,0,0,.13-1.95Z"/>
            <path class="cls-9"
                  d="M324.23,202.42l-10.83-12.35a1.38,1.38,0,0,0-1.95-.13L299.1,200.78a1.38,1.38,0,0,0-.13,1.95l10.83,12.35a1.38,1.38,0,0,0,1.95.13l12.35-10.84A1.38,1.38,0,0,0,324.23,202.42Z"/>
            <path class="cls-9"
                  d="M330.68,173.07,318.33,183.9a1.38,1.38,0,0,0-.13,1.95L329,198.2a1.38,1.38,0,0,0,1.94.13l12.36-10.84a1.38,1.38,0,0,0,.12-1.95L332.63,173.2A1.38,1.38,0,0,0,330.68,173.07Z"/>
            <path class="cls-9"
                  d="M350.22,181.46l12.35-10.84a1.38,1.38,0,0,0,.13-1.95l-10.83-12.35a1.38,1.38,0,0,0-1.95-.13L337.56,167a1.38,1.38,0,0,0-.12,1.95l10.83,12.35A1.38,1.38,0,0,0,350.22,181.46Z"/>
            <path class="cls-9"
                  d="M369.45,164.58l12.35-10.84a1.38,1.38,0,0,0,.13-1.95L371.1,139.45a1.38,1.38,0,0,0-1.95-.13L356.8,150.16a1.38,1.38,0,0,0-.13,1.95l10.83,12.35A1.38,1.38,0,0,0,369.45,164.58Z"/>
            <path class="cls-9"
                  d="M388.39,122.45,376,133.28a1.38,1.38,0,0,0-.13,1.95l10.84,12.35a1.38,1.38,0,0,0,1.95.13L401,136.87a1.38,1.38,0,0,0,.13-1.95l-10.84-12.35A1.38,1.38,0,0,0,388.39,122.45Z"/>
            <path class="cls-9"
                  d="M396.37,115.44l-1.1,1a1.38,1.38,0,0,0-.13,1.95l.84,1A10.79,10.79,0,0,1,396.37,115.44Z"/>
            <path class="cls-9"
                  d="M413.35,110l-3.79-4.32a1.38,1.38,0,0,0-1.95-.13l-2.55,2.24A10.73,10.73,0,0,1,413.35,110Z"/>
            <path class="cls-9"
                  d="M433,93.58a1.38,1.38,0,0,1-.13,1.94l-12.35,10.84a1.38,1.38,0,0,1-1.94-.13l6.67,7.6a1.38,1.38,0,0,0,1.95.13L437.34,105l-1.31-8Z"/>
            <polygon class="cls-9" points="428.8 88.83 428.8 88.83 429.45 89.57 428.8 88.83"/>
            <path class="cls-9"
                  d="M420.48,106.36l12.35-10.84a1.38,1.38,0,0,0,.13-1.94l-3.51-4-.65-.74a1.38,1.38,0,0,0-1.95-.13L414.5,99.54a1.38,1.38,0,0,0-.13,1.95l4.17,4.75A1.38,1.38,0,0,0,420.48,106.36Z"/>
            <path class="cls-9" d="M290.24,243.36l-5.51,4.83h11.58l-4.13-4.7A1.38,1.38,0,0,0,290.24,243.36Z"/>
            <path class="cls-9"
                  d="M322.25,239l-10.84-12.35a1.38,1.38,0,0,0-1.95-.12l-12.35,10.84a1.38,1.38,0,0,0-.13,1.95l7.83,8.92h9l8.29-7.28A1.38,1.38,0,0,0,322.25,239Z"/>
            <path class="cls-9"
                  d="M330.65,209.74a1.38,1.38,0,0,0-1.95-.13l-12.35,10.84a1.38,1.38,0,0,0-.13,1.94l10.84,12.35a1.38,1.38,0,0,0,1.94.13L341.36,224a1.38,1.38,0,0,0,.13-1.95Z"/>
            <path class="cls-9"
                  d="M365.53,201l-10.83-12.35a1.38,1.38,0,0,1,.12-1.95l-19.23,16.87a1.38,1.38,0,0,0-.13,1.95l10.84,12.35a1.38,1.38,0,0,0,1.95.13l19.23-16.87A1.38,1.38,0,0,1,365.53,201Z"/>
            <path class="cls-9"
                  d="M384.76,184.13l-10.83-12.35a1.38,1.38,0,0,1,.12-1.94l-12.42,10.9,5.54-4.86a1.38,1.38,0,0,1,1.95.13L380,188.34a1.38,1.38,0,0,1-.12,1.94l6.88-6A1.38,1.38,0,0,1,384.76,184.13Z"/>
            <polygon class="cls-9" points="354.82 186.7 354.82 186.7 361.63 180.73 354.82 186.7"/>
            <polygon class="cls-9" points="367.48 201.13 379.83 190.29 379.83 190.28 367.48 201.13 367.48 201.13"/>
            <path class="cls-9"
                  d="M380,188.34,369.12,176a1.38,1.38,0,0,0-1.95-.13l-5.54,4.86-6.81,6a1.38,1.38,0,0,0-.12,1.95L365.53,201a1.38,1.38,0,0,0,1.95.13l12.36-10.84A1.38,1.38,0,0,0,380,188.34Z"/>
            <path class="cls-9"
                  d="M388.35,159.12a1.38,1.38,0,0,0-1.95-.13l-12.35,10.83h0l8.83-7.75a1.38,1.38,0,0,1,1.95.13l10.84,12.35a1.38,1.38,0,0,1-.13,1.94l-8.83,7.74h0l12.35-10.84a1.38,1.38,0,0,0,.13-1.95Z"/>
            <path class="cls-9"
                  d="M395.67,174.56l-10.84-12.35a1.38,1.38,0,0,0-1.95-.13l-8.83,7.75a1.38,1.38,0,0,0-.12,1.94l10.83,12.35a1.38,1.38,0,0,0,1.95.13l8.83-7.74A1.38,1.38,0,0,0,395.67,174.56Z"/>
            <path class="cls-9"
                  d="M393.16,154.9,404,167.25a1.38,1.38,0,0,0,1.95.13l12.35-10.84a1.38,1.38,0,0,0,.13-1.95l-10.84-12.35a1.38,1.38,0,0,0-1.95-.13L393.29,153A1.38,1.38,0,0,0,393.16,154.9Z"/>
            <path class="cls-9"
                  d="M440.71,125.45l-2-12.31-6.92,6.07a1.38,1.38,0,0,0-.13,1.95L442,132.93l-1.19-7.21C440.75,125.63,440.73,125.54,440.71,125.45Z"/>
            <path class="cls-9"
                  d="M439,216.76,411.16,185a4.62,4.62,0,0,0-6.53-.43l-46,40.34a4.63,4.63,0,0,0-.43,6.53l14.67,16.72H410.2l28.38-24.9A4.63,4.63,0,0,0,439,216.76Z"/>
            <path class="cls-6"
                  d="M397,3.93a11.54,11.54,0,0,0-16.28-1.07L181.53,177.61a11.54,11.54,0,0,0-1.07,16.29l6.83,7.78,216.55-190Z"/>
            <path class="cls-10"
                  d="M447.4,45A9.85,9.85,0,1,0,428,48.2l2.71,16.39,24.6,28Zm-16.08,6.92-1-6.1A4.44,4.44,0,0,1,434,40.7l5.27-.87a4.44,4.44,0,0,1,5.1,3.66l1,6.1Z"/>
            <path class="cls-10"
                  d="M439.63,101.18a1.38,1.38,0,0,1-.12,1.95l-2.17,1.9,1.34,8.11,5.43-4.77a1.38,1.38,0,0,1,1.95.13l1,1.11a16,16,0,0,1,6.85-2.89l3.6-.6-2.23-13.5-24.6-28L436,97.07Z"/>
            <path class="cls-10" d="M439.63,101.18,436,97.07l1.31,8,2.17-1.9A1.38,1.38,0,0,0,439.63,101.18Z"/>
            <path class="cls-10"
                  d="M440.77,125.72l-.09-.57A16,16,0,0,1,447,109.61l-1-1.11a1.38,1.38,0,0,0-1.95-.13l-5.43,4.77,2,12.31C440.73,125.54,440.75,125.63,440.77,125.72Z"/>
            <path class="cls-10" d="M481,102.25a9.85,9.85,0,0,0-18.47-1.39l3.4,3.88Z"/>
            <path class="cls-10" d="M461.64,105.44l4.25-.7-3.4-3.88A9.8,9.8,0,0,0,461.64,105.44Z"/>
            <path class="cls-10" d="M493.4,91.29a9.85,9.85,0,0,0-8.23,10.26l19.32-3.19A9.85,9.85,0,0,0,493.4,91.29Z"/>
            <path class="cls-10"
                  d="M530.67,110.19l-2.42-14.67a9.85,9.85,0,0,0-19.55,2.15l3.57-.59A16,16,0,0,1,530.67,110.19Z"/>
            <path class="cls-10"
                  d="M483.68,118.36a9.79,9.79,0,0,1-.79,5.76L492,134.5a35.66,35.66,0,0,1,11.51,13.12l13.81,15.74A11.47,11.47,0,0,1,520,169l11.53,0,0,20.57a16,16,0,0,0,9.38-17.28l-10.22-61.94,0-.1.07.4a9.85,9.85,0,0,1-19.44,3.21l-2.49-15.06a10,10,0,0,1-.11-1.06l-4.21.69a10,10,0,0,1,.23,1l2.49,15.07a9.85,9.85,0,1,1-19.44,3.21l-2.49-15.07a10.08,10.08,0,0,1-.12-1.06l-4.21.7a10,10,0,0,1,.23,1Z"/>
            <path class="cls-10"
                  d="M507,169,520,169a11.47,11.47,0,0,0-2.67-5.59l-13.81-15.74A35.73,35.73,0,0,1,507,169Z"/>
            <path class="cls-10"
                  d="M478.34,128.79A35.67,35.67,0,0,1,492,134.5l-9.11-10.38A9.87,9.87,0,0,1,478.34,128.79Z"/>
            <path class="cls-10"
                  d="M453.48,133.2a9.65,9.65,0,0,1-7.76-.71l-1.31,1.15a1.38,1.38,0,0,1-1.95-.13l-.51-.58,1.39,8.43.39.41A35.82,35.82,0,0,1,453.48,133.2Z"/>
            <path class="cls-10"
                  d="M456.53,131.58a35.56,35.56,0,0,1,9.39-2.93c.95-.16,1.89-.26,2.83-.34a9.81,9.81,0,0,1-4.51-6.74l-2.49-15.06a10,10,0,0,1-.11-1.06l-4.15.68,2.66,16.11A9.85,9.85,0,0,1,456.53,131.58Z"/>
            <path class="cls-10"
                  d="M444.41,133.63l1.31-1.15a9.82,9.82,0,0,1-4.95-6.77l1.19,7.21.51.58A1.38,1.38,0,0,0,444.41,133.63Z"/>
            <path class="cls-10"
                  d="M456.77,122.8l-11,9.69a9.65,9.65,0,0,0,7.76.71q1.48-.88,3-1.62a9.85,9.85,0,0,0,3.62-9.34l-2.66-16.11-3.6.6a16,16,0,0,0-6.85,2.89l9.86,11.24A1.38,1.38,0,0,1,456.77,122.8Z"/>
            <path class="cls-10"
                  d="M440.67,125.15l.09.57a9.82,9.82,0,0,0,4.95,6.77l11-9.69a1.38,1.38,0,0,0,.13-1.94L447,109.61A16,16,0,0,0,440.67,125.15Z"/>
            <path class="cls-10"
                  d="M482.89,124.12a9.79,9.79,0,0,0,.79-5.76l-2.49-15.07a10,10,0,0,0-.23-1l-15.07,2.49Z"/>
            <path class="cls-10"
                  d="M464.24,121.57a9.81,9.81,0,0,0,4.51,6.74,35.52,35.52,0,0,1,9.59.47,9.87,9.87,0,0,0,4.55-4.67l-17-19.38-4.25.7a10,10,0,0,0,.11,1.06Z"/>
            <path class="cls-10"
                  d="M487.77,117.68a9.85,9.85,0,1,0,19.44-3.21l-2.49-15.07a10,10,0,0,0-.23-1l-19.32,3.19a10.08,10.08,0,0,0,.12,1.06Z"/>
            <path class="cls-10"
                  d="M511.3,113.8a9.85,9.85,0,0,0,19.44-3.21l-.07-.4a16,16,0,0,0-18.41-13.11l-3.57.59a10,10,0,0,0,.11,1.06Z"/>
            <path class="cls-10"
                  d="M448.35,171.65l-5-30.29L414.48,111a10.73,10.73,0,0,0-1.12-1l7,8a1.38,1.38,0,0,1-.13,1.95l-12.35,10.84a1.38,1.38,0,0,1-1.95-.13l-.53-.61-1.29,1.25,61.72,64.84a10.54,10.54,0,0,0,8.22,3.24v-.74Zm-10.82-32-12.35,10.84a1.38,1.38,0,0,1-1.95-.13L412.4,138a1.38,1.38,0,0,1,.13-1.95l12.35-10.84a1.38,1.38,0,0,1,1.95.13l10.84,12.35A1.38,1.38,0,0,1,437.53,139.67Z"/>
            <path class="cls-10" d="M396.59,120l-.61-.69a10.74,10.74,0,0,0,.52,2.5,10.84,10.84,0,0,1-.36-1.37Z"/>
            <path class="cls-10"
                  d="M399.28,110.64a10.68,10.68,0,0,0-2.91,4.81l8.7-7.63A10.68,10.68,0,0,0,399.28,110.64Z"/>
            <path class="cls-10" d="M398.89,125.83a10.67,10.67,0,0,1-.9-1.1A10.75,10.75,0,0,0,398.89,125.83Z"/>
            <path class="cls-10" d="M397.8,124.45a10.74,10.74,0,0,1-.67-1.11A10.74,10.74,0,0,0,397.8,124.45Z"/>
            <path class="cls-10" d="M397.09,123.27a10.71,10.71,0,0,1-.56-1.34A10.64,10.64,0,0,0,397.09,123.27Z"/>
            <path class="cls-10"
                  d="M400.57,116.16a5.61,5.61,0,0,1,7.93.13l5.42,5.6-8.48,8.21.53.61a1.38,1.38,0,0,0,1.95.13L420.27,120a1.38,1.38,0,0,0,.13-1.95l-7-8a10.73,10.73,0,0,0-8.28-2.21l-8.7,7.63a10.79,10.79,0,0,0-.39,3.87l.61.69Z"/>
            <path class="cls-10"
                  d="M426.82,125.37a1.38,1.38,0,0,0-1.95-.13l-12.35,10.84a1.38,1.38,0,0,0-.13,1.95l10.83,12.35a1.38,1.38,0,0,0,1.95.13l12.35-10.84a1.38,1.38,0,0,0,.13-1.95Z"/>
            <path class="cls-10" d="M492,134.5l11.51,13.12A35.66,35.66,0,0,0,492,134.5Z"/>
            <path class="cls-10"
                  d="M474.08,198.69,474,169l33,0a35.73,35.73,0,0,0-3.53-21.34L492,134.5a35.67,35.67,0,0,0-13.66-5.72,9.83,9.83,0,0,1-9.59-.47c-.94.08-1.88.19-2.83.34a35.56,35.56,0,0,0-9.39,2.93,9.78,9.78,0,0,1-3,1.62,35.82,35.82,0,0,0-9.74,8.56l-.39-.41,5,30.29Z"/>
            <path class="cls-10" d="M456.53,131.58q-1.57.74-3,1.62A9.78,9.78,0,0,0,456.53,131.58Z"/>
            <path class="cls-10" d="M468.75,128.31a9.83,9.83,0,0,0,9.59.47A35.52,35.52,0,0,0,468.75,128.31Z"/>
            <path class="cls-11"
                  d="M439.24,39.83,434,40.7a4.44,4.44,0,0,0-3.66,5.11l1,6.1,14-2.32-1-6.1A4.44,4.44,0,0,0,439.24,39.83Z"/>
            <polygon class="cls-11" points="404.15 131.35 404.15 131.35 398.89 125.83 404.15 131.35"/>
            <path class="cls-11" d="M397.13,123.34l0-.06Z"/>
            <path class="cls-11" d="M398,124.73l-.2-.28Z"/>
            <path class="cls-11" d="M396.54,121.94l0-.12Z"/>
            <path class="cls-11"
                  d="M396.59,120l-.45.44a10.84,10.84,0,0,0,.36,1.37l0,.12a10.71,10.71,0,0,0,.56,1.34l0,.06a10.74,10.74,0,0,0,.67,1.11l.2.28a10.67,10.67,0,0,0,.9,1.1l5.26,5.52,1.29-1.25Z"/>
            <path class="cls-11" d="M408.5,116.28a5.61,5.61,0,0,0-7.93-.13l-4,3.85,8.85,10.09,8.48-8.21Z"/>
            <path class="cls-10" d="M498.14,195.54l-24,21.08v2.25l57.47-.08,0-29.29a16,16,0,0,1-3.83,1.15Z"/>
            <path class="cls-10"
                  d="M477.54,198.94h0l-1.66.28c-.27.06-.54.1-.81.14l-.11,0h0l-.13,0h0l-.66,0,0,17.19,24-21.08Z"/>
            <path class="cls-10"
                  d="M520,169a11.52,11.52,0,0,1-3.74,10.7l-18.11,15.89,29.57-4.88a16,16,0,0,0,3.83-1.15l0-20.57Z"/>
            <path class="cls-10" d="M474.76,199.4l.13,0h-.13Z"/>
            <path class="cls-10"
                  d="M477.54,198.94l20.6-3.4,18.11-15.89A11.52,11.52,0,0,0,520,169L507,169A35.65,35.65,0,0,1,477.54,198.94Z"/>
            <path class="cls-10" d="M474.92,199.37h0l.11,0c.27,0,.54-.08.81-.14l1.66-.28h0l-2.65.44Z"/>
            <path class="cls-10" d="M474.08,198.69v.74l.66,0Z"/>
            <path class="cls-10" d="M507,169l-33,0,0,29.67.66.69h.15l2.65-.44A35.65,35.65,0,0,0,507,169Z"/>
            <rect class="cls-12" x="531.6" y="218.78" width="3.7" height="17.96"
                  transform="translate(-0.32 0.75) rotate(-0.08)"/>
            <rect class="cls-12" x="473.68" y="218.87" width="0.44" height="17.96"
                  transform="translate(-0.38 0.78) rotate(-0.09)"/>
            <rect class="cls-12" x="474.13" y="218.83" width="57.47" height="17.96"
                  transform="translate(-0.33 0.74) rotate(-0.08)"/>
            <polygon class="cls-13"
                     points="531.62 239.17 531.63 248.19 537.49 248.19 537.47 236.74 535.31 236.74 535.32 239.17 531.62 239.17"/>
            <polygon class="cls-13"
                     points="474.14 239.26 473.7 239.26 473.7 236.83 471.54 236.84 471.56 248.19 474.16 248.19 474.14 239.26"/>
            <path class="cls-13" d="M474.16,248.19h49a3.91,3.91,0,1,1,7.8,0h.66v-9l-57.47.08Z"/>
            <rect class="cls-13" x="473.7" y="236.83" width="0.44" height="2.42"
                  transform="translate(-0.26 0.52) rotate(-0.06)"/>
            <rect class="cls-13" x="531.61" y="236.75" width="3.7" height="2.42"
                  transform="translate(-0.34 0.76) rotate(-0.08)"/>
            <rect class="cls-13" x="474.14" y="236.79" width="57.47" height="2.42"
                  transform="translate(-0.38 0.81) rotate(-0.09)"/>
            <path class="cls-6" d="M527.07,244.06a4.18,4.18,0,0,0-3.9,4.13H531A4.18,4.18,0,0,0,527.07,244.06Z"/>
            <path class="cls-9" d="M271.33,248.82a1.38,1.38,0,0,0,1.95.13l.87-.76h-3.37Z"/>
            <path class="cls-13" d="M474.16,248.19v.29l49-.07c0-.07,0-.15,0-.22Z"/>
            <path class="cls-13" d="M531,248.4h.64v-.21H531C531,248.26,531,248.33,531,248.4Z"/>
            <path class="cls-6" d="M523.17,248.19c0,.07,0,.14,0,.22H531c0-.07,0-.14,0-.21Z"/>
        </g>
    </g>
</svg>