<svg xmlns="http://www.w3.org/2000/svg" viewBox="0 0 298 102.96"><defs><style>.cls-1{fill:#4b87d0;}.cls-2{fill:#fff;}.cls-3{fill:#69f9e4;}.cls-4{fill:#63bbaf;}.cls-5{fill:#ace5db;}.cls-6{fill:#18343a;}.cls-7{fill:#c03e31;}.cls-8{fill:none;}.cls-9{fill:#4b6568;}.cls-10{fill:#edc298;}.cls-11{fill:#f9deb2;}.cls-12{fill:#d04f44;}.cls-13{fill:#6a9bcc;}</style></defs><title>mobile</title><g id="Layer_2" data-name="Layer 2"><g id="Layer_1-2" data-name="Layer 1"><circle class="cls-1" cx="256.95" cy="42.52" r="24.21"/><rect class="cls-2" x="246.71" y="26.77" width="20.49" height="29.59" transform="translate(215.1 298.47) rotate(-89.94)"/><path class="cls-3" d="M272.42,52.51l-31,0,0-21.87,31,0ZM242.84,51.1l28.21,0,0-19.11-28.21,0Z"/><polygon class="cls-2" points="242.15 51.78 256.95 40.41 271.73 51.81 242.15 51.78"/><path class="cls-3" d="M271.73,52.5h0l-29.58,0a.69.69,0,0,1-.42-1.24l14.8-11.37a.69.69,0,0,1,.84,0l14.74,11.38a.69.69,0,0,1-.39,1.26Zm-27.55-1.41,25.53,0L257,41.28Z"/><polygon class="cls-2" points="242.18 31.29 256.95 43.75 271.75 31.33 242.18 31.29"/><path class="cls-3" d="M257,44.44a.69.69,0,0,1-.45-.16L241.73,31.82a.69.69,0,0,1,.44-1.22h0l29.58,0a.69.69,0,0,1,.44,1.22l-14.8,12.42A.69.69,0,0,1,257,44.44ZM244.07,32,257,42.85,269.86,32Z"/><path class="cls-2" d="M290.64,9.95l1.63-2.64-3.51-2.16-1.64,2.64a12.67,12.67,0,0,0-5.72-.92l-.71-3-4,.95.72,3a12.63,12.63,0,0,0-4.71,3.38l-2.64-1.63-2.17,3.5,2.64,1.63a12.6,12.6,0,0,0-.93,5.71l-3,.72.95,4,3-.71a12.6,12.6,0,0,0,3.39,4.69l-1.64,2.64,3.51,2.16,1.64-2.64a12.7,12.7,0,0,0,5.72.93l.71,3,4-.95-.71-3a12.67,12.67,0,0,0,4.7-3.38l2.65,1.63,2.17-3.5L294,24.36a12.66,12.66,0,0,0,.93-5.71l3-.71-.95-4-3,.72A12.65,12.65,0,0,0,290.64,9.95Zm-1.26,7.9a7.3,7.3,0,1,1-8.77-5.41A7.29,7.29,0,0,1,289.38,17.85Z"/><path class="cls-1" d="M27.45,38.34l-.53-2.27-3,.71L24.43,39a9.54,9.54,0,0,0-3.54,2.55l-2-1.23L17.28,43l2,1.23a9.54,9.54,0,0,0-.71,4.3l-2.27.54.7,3,2.27-.54a9.45,9.45,0,0,0,2.53,3.53l-1.23,2L23.2,58.7l1.23-2a9.48,9.48,0,0,0,4.29.69l.53,2.27,3-.71-.53-2.27a9.53,9.53,0,0,0,3.54-2.55l2,1.23,1.63-2.64-2-1.23a9.53,9.53,0,0,0,.71-4.3l2.27-.54-.7-3-2.27.54a9.48,9.48,0,0,0-2.54-3.54l1.23-2L33,37l-1.23,2A9.49,9.49,0,0,0,27.45,38.34ZM31,43.21A5.49,5.49,0,1,1,23.43,45,5.48,5.48,0,0,1,31,43.21Z"/><path class="cls-2" d="M4.6,26.05l-2-1.23L1,27.45l2,1.23a9.52,9.52,0,0,0-.7,4.3L0,33.52l.71,3L3,36a9.51,9.51,0,0,0,2.54,3.54l-1.23,2,2.63,1.63,1.23-2a9.46,9.46,0,0,0,4.29.71L13,44.16l3-.71-.53-2.27A9.49,9.49,0,0,0,19,38.63l2,1.23,1.63-2.63-2-1.23a9.52,9.52,0,0,0,.7-4.3l2.27-.53-.71-3-2.27.53a9.51,9.51,0,0,0-2.54-3.54l1.23-2-2.63-1.63-1.23,2a9.46,9.46,0,0,0-4.29-.71l-.53-2.27-3,.71.53,2.27A9.48,9.48,0,0,0,4.6,26.05Zm5.94.95A5.49,5.49,0,1,1,6.46,33.6,5.48,5.48,0,0,1,10.54,27Z"/><circle class="cls-4" cx="99.14" cy="16.56" r="13.58" transform="translate(-0.21 1.33) rotate(-0.77)"/><path class="cls-5" d="M99,3A13.57,13.57,0,0,0,87.71,9.25a17.71,17.71,0,0,0,13,5.4,17.67,17.67,0,0,0,10.75-3.81A13.57,13.57,0,0,0,99,3Z"/><path class="cls-6" d="M114.92,16.35a15.8,15.8,0,1,0-15.59,16A15.8,15.8,0,0,0,114.92,16.35ZM87,16.73A12.11,12.11,0,1,1,99.28,28.68,12.11,12.11,0,0,1,87,16.73Z"/><rect class="cls-6" x="57.94" y="14.05" width="27.68" height="5.77" transform="translate(-0.22 0.97) rotate(-0.77)"/><rect class="cls-7" x="56.1" y="12.35" width="22.84" height="9.28" transform="translate(-0.22 0.91) rotate(-0.77)"/><circle class="cls-2" cx="102.4" cy="9.07" r="2.6" transform="translate(-0.11 1.38) rotate(-0.77)"/><polygon class="cls-8" points="194.78 97.39 194.77 90 194.96 90 194.95 89.07 179.13 102.96 193.91 102.96 193.9 97.39 194.78 97.39"/><path class="cls-6" d="M119.34,100.07a.57.57,0,0,1,.8.05l2.49,2.84h3.5l-4-4.57a.57.57,0,0,1,.05-.8l5.08-4.46a.57.57,0,0,1,.8.05l4.46,5.08a.57.57,0,0,1-.05.8L128,103h26.1l-6.83-7.78a1.9,1.9,0,0,1,.18-2.68L166.38,75.9a1.9,1.9,0,0,1,2.68.18l11.45,13.05a1.9,1.9,0,0,1-.17,2.68L167.64,103h11.48L195,89.07V82a4.34,4.34,0,0,1-3.38-1.33L166.19,54h0L164,51.74a4.37,4.37,0,0,1-.49-.63l-.12-.21a4.4,4.4,0,0,1-.25-.5c0-.07-.07-.15-.09-.22a4.44,4.44,0,0,1-.18-.65h0a4.37,4.37,0,0,1,0-.44l-.36-.42a.57.57,0,0,1,.05-.8l.47-.42a4.34,4.34,0,0,1,3.55-3.12l1.05-.92a.57.57,0,0,1,.8.05L170,45.31a4.38,4.38,0,0,1,.4.34l11.87,12.47-.57-3.47-4.25-4.84a.57.57,0,0,1,.05-.8l2.85-2.5-.55-3.33-4.19,3.67a.57.57,0,0,1-.8-.05l-2.74-3.13h0l-8.81-10a.57.57,0,0,1,.05-.8l5.08-4.46a.57.57,0,0,1,.8.05l7.1,8.09h0l1.25,1.42.46.53h0l1.26,1.43-2.2-13.35L166.61,14.61a4.75,4.75,0,0,0-6.7-.44L87.09,78.06a4.74,4.74,0,0,0-.44,6.7l16,18.21h13.42Zm6-9.09-5.08,4.46a.57.57,0,0,1-.8-.05L115,90.3a.57.57,0,0,1,.05-.8L120.16,85a.57.57,0,0,1,.8.05l4.45,5.08A.57.57,0,0,1,125.36,91Zm13.39-21.49a.57.57,0,0,1,.05-.8l5.08-4.46a.57.57,0,0,1,.8.05l4.46,5.08a.57.57,0,0,1-.05.8L144,74.62a.57.57,0,0,1-.8-.05Zm2.43,7.61-5.08,4.46a.57.57,0,0,1-.8-.05l-4.46-5.08a.57.57,0,0,1,.05-.8L136,71.16a.57.57,0,0,1,.8.05l4.45,5.08A.57.57,0,0,1,141.18,77.1Zm5.48-14.55a.57.57,0,0,1,.05-.8l5.08-4.46a.57.57,0,0,1,.8.05l4.45,5.08a.57.57,0,0,1-.05.8l-5.08,4.46a.57.57,0,0,1-.8-.05Zm5.27-9.95-4.46-5.08a.57.57,0,0,1,.05-.8l5.08-4.46a.57.57,0,0,1,.8.05l4.46,5.08a.57.57,0,0,1-.05.8l-5.08,4.46A.57.57,0,0,1,151.93,52.6Zm-2,1.73a.57.57,0,0,1-.05.8l-5.08,4.46a.57.57,0,0,1-.8-.05l-4.46-5.08a.57.57,0,0,1,.05-.8l5.08-4.46a.57.57,0,0,1,.8.05ZM142,61.27a.57.57,0,0,1-.05.8l-5.08,4.46a.57.57,0,0,1-.8-.05l-4.46-5.08a.57.57,0,0,1,.05-.8l5.08-4.46a.57.57,0,0,1,.8.05Zm-7.91,6.94a.57.57,0,0,1-.05.8L129,73.46a.57.57,0,0,1-.8-.05l-4.46-5.08a.57.57,0,0,1,.05-.8l5.08-4.46a.57.57,0,0,1,.8.05Zm-7.91,6.94a.57.57,0,0,1-.05.8L121.1,80.4a.57.57,0,0,1-.8-.05l-4.45-5.08a.57.57,0,0,1,.05-.8L121,70a.57.57,0,0,1,.8.05Zm-7.91,6.94a.57.57,0,0,1-.05.8l-5.08,4.46a.57.57,0,0,1-.8-.05l-4.45-5.08a.57.57,0,0,1,.05-.8L113.06,77a.57.57,0,0,1,.8.05Zm9.07,6.35-4.45-5.08a.57.57,0,0,1,.05-.8l5.08-4.46a.57.57,0,0,1,.8.05l4.46,5.08a.57.57,0,0,1-.05.8l-5.08,4.46A.57.57,0,0,1,127.39,88.44Zm13,3.69-5.08,4.46a.57.57,0,0,1-.8-.05L130,91.45a.57.57,0,0,1,.05-.8l5.08-4.46a.57.57,0,0,1,.8.05l4.46,5.08A.57.57,0,0,1,140.37,92.12Zm23.73-20.81L159,75.76h0l-2.83,2.48h0l-5.08,4.46h0l-7.91,6.94a.57.57,0,0,1-.8-.05l-4.46-5.08a.57.57,0,0,1,.05-.8l7.91-6.94h0l3-2.66,4.88-4.28h0l5.08-4.46a.57.57,0,0,1,.8.05l4.46,5.08A.57.57,0,0,1,164.09,71.31Zm2.71-12.87a.57.57,0,0,1,.8.05l4.46,5.08a.57.57,0,0,1-.05.8l-5.08,4.46a.57.57,0,0,1-.8-.05l-4.46-5.08a.57.57,0,0,1,.05-.8Zm-1.84-3a.57.57,0,0,1-.05.8l-5.08,4.46a.57.57,0,0,1-.8-.05l-4.46-5.08a.57.57,0,0,1,.05-.8l5.08-4.46a.57.57,0,0,1,.8.05Zm.81-15a.57.57,0,0,1-.05.8l-5.08,4.46a.57.57,0,0,1-.8-.05l-4.46-5.08a.57.57,0,0,1,.05-.8l5.08-4.46a.57.57,0,0,1,.8.05Zm-9.52-15.7,5.08-4.46a.57.57,0,0,1,.8.05l4.46,5.08a.57.57,0,0,1-.05.8l-5.08,4.46a.57.57,0,0,1-.8-.05l-4.45-5.08A.57.57,0,0,1,156.25,24.75Zm-7.91,6.94,5.08-4.46a.57.57,0,0,1,.8.05l4.45,5.08a.57.57,0,0,1-.05.8l-5.08,4.46a.57.57,0,0,1-.8-.05l-4.45-5.08A.57.57,0,0,1,148.34,31.69Zm-7.91,6.94,5.08-4.46a.57.57,0,0,1,.8.05l4.46,5.08a.57.57,0,0,1-.05.8l-5.08,4.46a.57.57,0,0,1-.8-.05l-4.46-5.08A.57.57,0,0,1,140.43,38.63Zm-7.91,6.94,5.08-4.46a.57.57,0,0,1,.8.05l4.45,5.08a.57.57,0,0,1-.05.8l-5.08,4.46a.57.57,0,0,1-.8-.05l-4.46-5.08A.57.57,0,0,1,132.52,45.57Zm-7.91,6.94L129.69,48a.57.57,0,0,1,.8.05l4.46,5.08a.57.57,0,0,1-.05.8l-5.08,4.46a.57.57,0,0,1-.8-.05l-4.46-5.08A.57.57,0,0,1,124.61,52.5Zm-7.91,6.94L121.78,55a.57.57,0,0,1,.8.05L127,60.12a.57.57,0,0,1-.05.8l-5.08,4.46a.57.57,0,0,1-.8-.05l-4.45-5.08A.57.57,0,0,1,116.7,59.44Zm-7.91,6.94,5.08-4.46a.57.57,0,0,1,.8.05l4.46,5.08a.57.57,0,0,1-.05.8L114,72.31a.57.57,0,0,1-.8-.05l-4.45-5.08A.57.57,0,0,1,108.8,66.38Zm-7.91,6.94L106,68.86a.57.57,0,0,1,.8.05L111.22,74a.57.57,0,0,1-.05.8l-5.08,4.46a.57.57,0,0,1-.8-.05l-4.45-5.08A.57.57,0,0,1,100.89,73.32ZM97.38,86.14l-4.46-5.08a.57.57,0,0,1,.05-.8l5.08-4.46a.57.57,0,0,1,.8.05l4.45,5.08a.57.57,0,0,1-.05.8l-5.08,4.46A.57.57,0,0,1,97.38,86.14Zm7.1,8.09L100,89.15a.57.57,0,0,1,.05-.8l5.08-4.46a.57.57,0,0,1,.8.05L110.41,89a.57.57,0,0,1-.05.8l-5.08,4.46A.57.57,0,0,1,104.48,94.23Zm7.1,8.09-4.45-5.08a.57.57,0,0,1,.05-.8L112.25,92a.57.57,0,0,1,.8.05l4.46,5.08a.57.57,0,0,1-.05.8l-5.08,4.46A.57.57,0,0,1,111.57,102.31Z"/><path class="cls-6" d="M189.84,43.35a4,4,0,0,1,.33-1.88l-3-3.39.92,5.55Z"/><rect class="cls-9" x="94.17" y="77.05" width="7.89" height="7.89" rx="0.57" ry="0.57" transform="translate(-29.05 84.82) rotate(-41.26)"/><rect class="cls-9" x="102.08" y="70.11" width="7.89" height="7.89" rx="0.57" ry="0.57" transform="translate(-22.51 88.32) rotate(-41.26)"/><rect class="cls-9" x="109.99" y="63.17" width="7.89" height="7.89" rx="0.57" ry="0.57" transform="translate(-15.98 91.8) rotate(-41.26)"/><rect class="cls-9" x="117.9" y="56.24" width="7.89" height="7.89" rx="0.57" ry="0.57" transform="translate(-9.44 95.3) rotate(-41.26)"/><rect class="cls-9" x="125.81" y="49.3" width="7.89" height="7.89" rx="0.57" ry="0.57" transform="translate(-2.9 98.79) rotate(-41.26)"/><rect class="cls-9" x="133.72" y="42.36" width="7.89" height="7.89" rx="0.57" ry="0.57" transform="translate(3.64 102.27) rotate(-41.25)"/><rect class="cls-9" x="141.63" y="35.42" width="7.89" height="7.89" rx="0.57" ry="0.57" transform="translate(10.19 105.79) rotate(-41.26)"/><rect class="cls-9" x="149.54" y="28.48" width="7.89" height="7.89" rx="0.57" ry="0.57" transform="translate(16.72 109.28) rotate(-41.26)"/><rect class="cls-9" x="157.45" y="21.54" width="7.89" height="7.89" rx="0.57" ry="0.57" transform="translate(23.25 112.75) rotate(-41.26)"/><rect class="cls-9" x="101.27" y="85.14" width="7.89" height="7.89" rx="0.57" ry="0.57" transform="translate(-32.63 91.49) rotate(-41.25)"/><rect class="cls-9" x="109.18" y="78.2" width="7.89" height="7.89" rx="0.57" ry="0.57" transform="translate(-26.09 95) rotate(-41.26)"/><rect class="cls-9" x="117.09" y="71.26" width="7.89" height="7.89" rx="0.57" ry="0.57" transform="translate(-19.55 98.5) rotate(-41.27)"/><rect class="cls-9" x="125" y="64.32" width="7.89" height="7.89" rx="0.57" ry="0.57" transform="translate(-13.01 101.98) rotate(-41.26)"/><rect class="cls-9" x="132.91" y="57.39" width="7.89" height="7.89" rx="0.57" ry="0.57" transform="translate(-6.48 105.46) rotate(-41.25)"/><rect class="cls-9" x="140.81" y="50.45" width="7.89" height="7.89" rx="0.57" ry="0.57" transform="translate(0.07 108.97) rotate(-41.26)"/><rect class="cls-9" x="148.72" y="43.51" width="7.89" height="7.89" rx="0.57" ry="0.57" transform="translate(6.61 112.46) rotate(-41.26)"/><rect class="cls-9" x="156.63" y="36.57" width="7.89" height="7.89" rx="0.57" ry="0.57" transform="translate(13.15 115.95) rotate(-41.26)"/><polygon class="cls-9" points="178.03 38.48 177.57 37.95 178.03 38.48 178.03 38.48"/><path class="cls-9" d="M170.44,40.93l5.08-4.46a.57.57,0,0,1,.8.05l-7.1-8.09a.57.57,0,0,0-.8-.05l-5.08,4.46a.57.57,0,0,0-.05.8l8.81,10h0l-1.71-2A.57.57,0,0,1,170.44,40.93Z"/><rect class="cls-9" x="108.37" y="93.23" width="7.89" height="7.89" rx="0.57" ry="0.57" transform="translate(-36.2 98.2) rotate(-41.26)"/><rect class="cls-9" x="116.27" y="86.29" width="7.89" height="7.89" rx="0.57" ry="0.57" transform="translate(-29.66 101.68) rotate(-41.26)"/><rect class="cls-9" x="124.18" y="79.35" width="7.89" height="7.89" rx="0.57" ry="0.57" transform="translate(-23.12 105.17) rotate(-41.26)"/><rect class="cls-9" x="132.09" y="72.41" width="7.89" height="7.89" rx="0.57" ry="0.57" transform="translate(-16.58 108.67) rotate(-41.26)"/><rect class="cls-9" x="140" y="65.47" width="7.89" height="7.89" rx="0.57" ry="0.57" transform="translate(-10.04 112.16) rotate(-41.26)"/><rect class="cls-9" x="147.91" y="58.54" width="7.89" height="7.89" rx="0.57" ry="0.57" transform="translate(-3.5 115.66) rotate(-41.26)"/><rect class="cls-9" x="155.82" y="51.6" width="7.89" height="7.89" rx="0.57" ry="0.57" transform="translate(3.03 119.14) rotate(-41.25)"/><path class="cls-9" d="M163,47.45l-.47.42a.57.57,0,0,0-.05.8l.36.42A4.41,4.41,0,0,1,163,47.45Z"/><path class="cls-9" d="M170,45.31l-1.62-1.85a.57.57,0,0,0-.8-.05l-1.05.92A4.4,4.4,0,0,1,170,45.31Z"/><path class="cls-9" d="M178,38.48a.57.57,0,0,1-.05.8l-5.08,4.46a.57.57,0,0,1-.8-.05l2.74,3.13a.57.57,0,0,0,.8.05l4.19-3.67-.54-3.28Z"/><polygon class="cls-9" points="176.32 36.53 176.32 36.53 177.57 37.95 176.32 36.53"/><path class="cls-9" d="M172.9,43.73,178,39.28a.57.57,0,0,0,.05-.8l-.46-.53-1.25-1.42a.57.57,0,0,0-.8-.05l-5.08,4.46a.57.57,0,0,0-.05.8l1.71,2A.57.57,0,0,0,172.9,43.73Z"/><path class="cls-9" d="M119.34,100.07,116.05,103h6.58l-2.49-2.84A.57.57,0,0,0,119.34,100.07Z"/><path class="cls-9" d="M132.51,98.26l-4.46-5.08a.57.57,0,0,0-.8-.05l-5.08,4.46a.57.57,0,0,0-.05.8l4,4.57H128l4.44-3.9A.57.57,0,0,0,132.51,98.26Z"/><rect class="cls-9" x="131.28" y="87.44" width="7.89" height="7.89" rx="0.57" ry="0.57" transform="translate(-26.69 111.87) rotate(-41.26)"/><path class="cls-9" d="M150.31,82.65l-4.46-5.08a.57.57,0,0,1,.05-.8L138,83.71a.57.57,0,0,0-.05.8l4.46,5.08a.57.57,0,0,0,.8.05l7.91-6.94A.57.57,0,0,1,150.31,82.65Z"/><path class="cls-9" d="M158.21,75.71l-4.46-5.08a.57.57,0,0,1,.05-.8l-4.88,4.28,2.05-1.8a.57.57,0,0,1,.8.05l4.46,5.08a.57.57,0,0,1,0,.8L159,75.77A.57.57,0,0,1,158.21,75.71Z"/><polygon class="cls-9" points="145.9 76.77 145.9 76.77 148.93 74.12 145.9 76.77"/><polygon class="cls-9" points="151.1 82.7 156.19 78.25 156.19 78.25 151.1 82.7 151.1 82.7"/><path class="cls-9" d="M156.24,77.45l-4.46-5.08a.57.57,0,0,0-.8-.05l-2.05,1.8-3,2.66a.57.57,0,0,0-.05.8l4.46,5.08a.57.57,0,0,0,.8.05l5.08-4.46A.57.57,0,0,0,156.24,77.45Z"/><path class="cls-9" d="M159.69,65.43a.57.57,0,0,0-.8-.05l-5.08,4.46h0l3.63-3.19a.57.57,0,0,1,.8.05l4.46,5.08a.57.57,0,0,1-.05.8L159,75.77h0l5.08-4.46a.57.57,0,0,0,.05-.8Z"/><rect class="cls-9" x="155.25" y="67.26" width="5.96" height="7.89" rx="0.57" ry="0.57" transform="translate(-7.68 122.02) rotate(-41.26)"/><rect class="cls-9" x="162.92" y="59.69" width="7.89" height="7.89" rx="0.57" ry="0.57" transform="translate(-0.54 125.84) rotate(-41.26)"/><path class="cls-9" d="M181.22,51.59l-.84-5.06L177.54,49a.57.57,0,0,0-.05.8l4.25,4.84-.5-3Z"/><path class="cls-9" d="M180.52,89.13,169.07,76.08a1.9,1.9,0,0,0-2.68-.18L147.47,92.49a1.9,1.9,0,0,0-.18,2.68l6.83,7.78h13.52l12.7-11.14A1.9,1.9,0,0,0,180.52,89.13Z"/><path class="cls-6" d="M77,82.93l89-78.12-2.81-3.2a4.75,4.75,0,0,0-6.7-.44L74.64,73a4.75,4.75,0,0,0-.44,6.7Z"/><path class="cls-10" d="M184,18.5a4.05,4.05,0,1,0-8,1.32l1.11,6.74L187.2,38.09Zm-6.61,2.84-.41-2.51a1.83,1.83,0,0,1,1.51-2.1l2.17-.36a1.83,1.83,0,0,1,2.1,1.51l.41,2.51Z"/><path class="cls-10" d="M180.78,41.61a.57.57,0,0,1-.05.8l-.89.78.55,3.33,2.23-2a.57.57,0,0,1,.8.05l.4.46a6.56,6.56,0,0,1,2.82-1.19l1.48-.24-.92-5.55L177.09,26.56l2.2,13.35Z"/><path class="cls-10" d="M180.78,41.61l-1.48-1.69.54,3.28.89-.78A.57.57,0,0,0,180.78,41.61Z"/><path class="cls-10" d="M181.23,51.64l0-.18a6.59,6.59,0,0,1,2.61-6.39l-.4-.46a.57.57,0,0,0-.8-.05l-2.23,2,.84,5.06Z"/><path class="cls-10" d="M197.75,42a4,4,0,0,0-7.57-.57l1.4,1.59Z"/><path class="cls-10" d="M189.84,43.35l1.73-.29-1.4-1.59A4,4,0,0,0,189.84,43.35Z"/><path class="cls-10" d="M202.88,37.54a4,4,0,0,0-3.36,4.22l7.91-1.31A4,4,0,0,0,202.88,37.54Z"/><path class="cls-10" d="M218.21,45.31l-1-6a4,4,0,0,0-8,.88l1.45-.24A6.59,6.59,0,0,1,218.21,45.31Z"/><path class="cls-10" d="M198.89,48.67a4,4,0,0,1-.33,2.37l3.76,4.29A14.66,14.66,0,0,1,207,60.7l5.69,6.48a4.7,4.7,0,0,1,1.09,2.3h4.75v8.46a6.59,6.59,0,0,0,3.85-7.1l-4.2-25.47v0l0,.16a4.05,4.05,0,0,1-8,1.32l-1-6.19a4,4,0,0,1,0-.44l-1.77.29a4,4,0,0,1,.11.42l1,6.2a4.05,4.05,0,1,1-8,1.32l-1-6.2a4,4,0,0,1,0-.44l-1.77.29a4,4,0,0,1,.11.42Z"/><path class="cls-10" d="M196.64,53a14.66,14.66,0,0,1,5.69,2.36L198.56,51A4,4,0,0,1,196.64,53Z"/><path class="cls-10" d="M186.51,54.75a3.82,3.82,0,0,1-3.22-.28l-.55.48a.57.57,0,0,1-.8-.05l-.21-.24.57,3.47.16.17A14.72,14.72,0,0,1,186.51,54.75Z"/><path class="cls-10" d="M208.49,69.48h5.31a4.7,4.7,0,0,0-1.09-2.3L207,60.7a14.64,14.64,0,0,1,1.46,8.79Z"/><path class="cls-10" d="M187.65,54.14a14.62,14.62,0,0,1,3.93-1.24c.4-.07.8-.1,1.2-.14A4,4,0,0,1,190.9,50l-1-6.19a4,4,0,0,1,0-.44l-1.73.28,1.09,6.63A4,4,0,0,1,187.65,54.14Z"/><path class="cls-10" d="M182.74,55l.55-.48a4,4,0,0,1-2.06-2.83l.5,3,.21.24A.57.57,0,0,0,182.74,55Z"/><path class="cls-10" d="M187.82,50.49l-4.53,4a3.82,3.82,0,0,0,3.22.28c.37-.22.75-.42,1.14-.61a4,4,0,0,0,1.56-3.87l-1.09-6.63-1.48.24a6.56,6.56,0,0,0-2.82,1.19l4.05,4.62A.57.57,0,0,1,187.82,50.49Z"/><path class="cls-10" d="M181.2,51.46l0,.18a4,4,0,0,0,2.06,2.83l4.53-4a.57.57,0,0,0,.05-.8l-4.05-4.62A6.59,6.59,0,0,0,181.2,51.46Z"/><path class="cls-10" d="M198.56,51a4,4,0,0,0,.33-2.37l-1-6.2a4,4,0,0,0-.11-.42l-6.18,1Z"/><path class="cls-10" d="M190.9,50a4,4,0,0,0,1.89,2.78,14.57,14.57,0,0,1,3.86.2A4,4,0,0,0,198.56,51l-7-8-1.73.29a4,4,0,0,0,0,.44Z"/><path class="cls-10" d="M200.57,48.39a4.05,4.05,0,1,0,8-1.32l-1-6.2a4,4,0,0,0-.11-.42l-7.91,1.31a4,4,0,0,0,0,.44Z"/><path class="cls-10" d="M210.25,46.79a4.05,4.05,0,0,0,8-1.32l0-.16a6.59,6.59,0,0,0-7.57-5.39l-1.45.24a4,4,0,0,0,0,.44Z"/><path class="cls-10" d="M162.85,49.08a4.37,4.37,0,0,0,0,.44l.18-.18Z"/><path class="cls-10" d="M184.36,70.58l-2.06-12.46L170.43,45.66a4.38,4.38,0,0,0-.4-.34l2.83,3.23a.57.57,0,0,1-.05.8l-5.08,4.46a.57.57,0,0,1-.8-.05l-.22-.25-.53.51,25.38,26.66A4.34,4.34,0,0,0,194.94,82v-.3Zm-4.45-13.15-5.08,4.46a.57.57,0,0,1-.8-.05l-4.46-5.08a.57.57,0,0,1,.05-.8l5.08-4.46a.57.57,0,0,1,.8.05L180,56.63A.57.57,0,0,1,179.91,57.43Z"/><path class="cls-10" d="M163.16,50.4c0-.07-.07-.15-.09-.22C163.1,50.26,163.13,50.33,163.16,50.4Z"/><path class="cls-10" d="M164.19,45.49a4.37,4.37,0,0,0-1.18,2l3.55-3.12A4.39,4.39,0,0,0,164.19,45.49Z"/><path class="cls-10" d="M163.54,51.11l-.12-.21Z"/><path class="cls-10" d="M164.71,47.76a2.31,2.31,0,0,1,3.26.05l2.23,2.3-3.49,3.38.22.25a.57.57,0,0,0,.8.05l5.08-4.46a.57.57,0,0,0,.05-.8L170,45.31a4.4,4.4,0,0,0-3.48-1L163,47.45a4.41,4.41,0,0,0-.16,1.63l.23.26Z"/><rect class="cls-10" x="170.83" y="52.75" width="7.89" height="7.89" rx="0.57" ry="0.57" transform="translate(6.01 129.35) rotate(-41.26)"/><path class="cls-10" d="M202.32,55.32,207,60.7A14.66,14.66,0,0,0,202.32,55.32Z"/><path class="cls-10" d="M194.94,81.7l0-12.2,13.57,0A14.64,14.64,0,0,0,207,60.7l-4.71-5.37A14.66,14.66,0,0,0,196.64,53a3.88,3.88,0,0,1-3.86-.2c-.4,0-.8.07-1.2.14a14.62,14.62,0,0,0-3.93,1.24,4,4,0,0,1-1.14.61,14.72,14.72,0,0,0-4.05,3.54l-.16-.17,2.06,12.46Z"/><path class="cls-10" d="M187.65,54.14c-.39.19-.77.39-1.14.61A4,4,0,0,0,187.65,54.14Z"/><path class="cls-10" d="M192.78,52.77a3.88,3.88,0,0,0,3.86.2A14.57,14.57,0,0,0,192.78,52.77Z"/><path class="cls-11" d="M180.62,16.38l-2.17.36a1.83,1.83,0,0,0-1.51,2.1l.41,2.51,5.77-1-.41-2.51A1.83,1.83,0,0,0,180.62,16.38Z"/><path class="cls-11" d="M162.89,49.53a4.44,4.44,0,0,0,.18.65,4.41,4.41,0,0,1-.18-.66Z"/><path class="cls-11" d="M164,51.74a4.41,4.41,0,0,1-.49-.63A4.37,4.37,0,0,0,164,51.74Z"/><polygon class="cls-11" points="166.19 54.01 166.19 54.01 164.02 51.74 166.19 54.01"/><path class="cls-11" d="M163.41,50.9a4.4,4.4,0,0,1-.25-.5A4.4,4.4,0,0,0,163.41,50.9Z"/><path class="cls-11" d="M163.08,49.35l-.18.18a4.41,4.41,0,0,0,.18.66c0,.08.06.15.09.22a4.4,4.4,0,0,0,.25.5l.12.21a4.41,4.41,0,0,0,.49.63L166.19,54l.53-.51Z"/><path class="cls-11" d="M168,47.82a2.31,2.31,0,0,0-3.26-.05l-1.64,1.58,3.64,4.15,3.49-3.38Z"/><path class="cls-10" d="M204.83,80.4,195,89.07V90l23.63,0,0-12a6.58,6.58,0,0,1-1.58.47Z"/><path class="cls-10" d="M196.36,81.8h0l-.68.11-.33.06h-.12l-.27,0v7.07l9.88-8.67Z"/><path class="cls-10" d="M213.81,69.47a4.73,4.73,0,0,1-1.52,4.4l-7.45,6.53,12.16-2a6.58,6.58,0,0,0,1.58-.47V69.47Z"/><path class="cls-10" d="M195.22,82h0Z"/><path class="cls-10" d="M196.36,81.8l8.48-1.4,7.45-6.53a4.73,4.73,0,0,0,1.52-4.4h-5.31A14.66,14.66,0,0,1,196.36,81.8Z"/><path class="cls-10" d="M195.29,82h0l.33-.06.68-.11h0l-1.08.18Z"/><path class="cls-10" d="M194.94,81.7V82l.27,0Z"/><path class="cls-10" d="M208.49,69.48l-13.57,0,0,12.2.27.29h.06l1.08-.18A14.66,14.66,0,0,0,208.49,69.48Z"/><rect class="cls-12" x="218.59" y="89.96" width="1.52" height="7.39" transform="translate(-0.13 0.31) rotate(-0.08)"/><rect class="cls-12" x="194.78" y="90" width="0.18" height="7.39" transform="translate(-0.16 0.33) rotate(-0.1)"/><rect class="cls-12" x="194.96" y="89.98" width="23.63" height="7.39" transform="translate(-0.14 0.3) rotate(-0.08)"/><path class="cls-13" d="M215.11,102.21s0,0,0-.06l-20.15,0V98.38h-.18v-1h-.89V103h21.35A2.06,2.06,0,0,1,215.11,102.21Z"/><path class="cls-13" d="M218.6,98.35v3.79h-.26s0,0,0,.07a2.06,2.06,0,0,1-.14.75H221V97.35h-.89v1Z"/><path class="cls-13" d="M195,102.17l20.15,0a1.62,1.62,0,1,1,3.22,0h.26V98.35l-23.63,0Z"/><rect class="cls-13" x="218.6" y="97.35" width="1.52" height="1" transform="translate(-0.14 0.32) rotate(-0.08)"/><rect class="cls-13" x="194.78" y="97.39" width="0.18" height="1" transform="matrix(1, 0, 0, 1, -0.13, 0.26)"/><rect class="cls-13" x="194.97" y="97.37" width="23.63" height="1" transform="translate(-0.14 0.3) rotate(-0.08)"/><path class="cls-6" d="M215.11,102.21a2.06,2.06,0,0,0,.14.75h3a2.06,2.06,0,0,0,.14-.75s0,0,0-.07h-3.22S215.11,102.19,215.11,102.21Z"/><path class="cls-6" d="M216.73,100.36a1.73,1.73,0,0,0-1.61,1.79h3.22A1.73,1.73,0,0,0,216.73,100.36Z"/></g></g></svg>