<svg xmlns="http://www.w3.org/2000/svg" viewBox="0 0 392.45 134.56"><defs><style>.cls-1{fill:#4b87d0;}.cls-2{fill:#fff;}.cls-3{fill:#69f9e4;}.cls-4{fill:#63bbaf;}.cls-5{fill:#ace5db;}.cls-6{fill:#18343a;}.cls-7{fill:#c03e31;}.cls-8{fill:none;}.cls-9{fill:#4b6568;}.cls-10{fill:#edc298;}.cls-11{fill:#f9deb2;}.cls-12{fill:#d04f44;}.cls-13{fill:#6a9bcc;}</style></defs><title>small middle</title><g id="Layer_2" data-name="Layer 2"><g id="Layer_1-2" data-name="Layer 1"><circle class="cls-1" cx="338.39" cy="55.99" r="31.88"/><rect class="cls-2" x="324.9" y="35.25" width="26.99" height="38.96" transform="translate(283.28 393.06) rotate(-89.94)"/><path class="cls-3" d="M358.76,69.16l-40.78,0,0-28.8,40.78,0Zm-39-1.86,37.15,0,0-25.17-37.15,0Z"/><polygon class="cls-2" points="318.9 68.19 338.39 53.21 357.85 68.23 318.9 68.19"/><path class="cls-3" d="M357.85,69.14h0l-39,0a.91.91,0,0,1-.55-1.63l19.49-15a.9.9,0,0,1,1.11,0l19.41,15a.91.91,0,0,1-.51,1.66Zm-36.28-1.86,33.62,0-16.79-13Z"/><polygon class="cls-2" points="318.93 41.21 338.39 57.61 357.88 41.26 318.93 41.21"/><path class="cls-3" d="M338.39,58.52a.91.91,0,0,1-.59-.22L318.34,41.9a.91.91,0,0,1,.59-1.6h0l39,0a.91.91,0,0,1,.58,1.6L339,58.31A.91.91,0,0,1,338.39,58.52Zm-17-16.4,17,14.31,17-14.27Z"/><path class="cls-2" d="M382.76,13.1l2.15-3.47-4.62-2.85-2.15,3.48A16.69,16.69,0,0,0,370.6,9l-.93-4-5.29,1.25.94,4a16.63,16.63,0,0,0-6.2,4.46l-3.48-2.15-2.86,4.62,3.48,2.14A16.59,16.59,0,0,0,355,26.88l-4,.95,1.24,5.27,4-.94a16.6,16.6,0,0,0,4.46,6.17l-2.15,3.48,4.62,2.85,2.15-3.48a16.72,16.72,0,0,0,7.53,1.22l.94,4,5.29-1.25-.94-4a16.68,16.68,0,0,0,6.2-4.46l3.48,2.14,2.86-4.61-3.48-2.15a16.67,16.67,0,0,0,1.23-7.52l4-.94-1.24-5.28-4,.94A16.66,16.66,0,0,0,382.76,13.1ZM381.1,23.51a9.61,9.61,0,1,1-11.55-7.12A9.6,9.6,0,0,1,381.1,23.51Z"/><path class="cls-1" d="M36.15,50.49l-.7-3-4,.94.7,3a12.56,12.56,0,0,0-4.66,3.35l-2.61-1.62-2.15,3.47,2.61,1.61a12.56,12.56,0,0,0-.93,5.66l-3,.71.93,4,3-.71a12.44,12.44,0,0,0,3.34,4.65l-1.62,2.62,3.46,2.15,1.62-2.61a12.49,12.49,0,0,0,5.65.91l.7,3,4-.94-.7-3a12.55,12.55,0,0,0,4.66-3.35l2.61,1.61,2.15-3.47L48.6,67.84a12.56,12.56,0,0,0,.93-5.66l3-.71-.93-4-3,.71a12.48,12.48,0,0,0-3.34-4.66l1.62-2.61-3.46-2.14L41.8,51.4A12.49,12.49,0,0,0,36.15,50.49Zm4.64,6.42a7.22,7.22,0,1,1-9.93,2.34A7.21,7.21,0,0,1,40.79,56.9Z"/><path class="cls-2" d="M6.05,34.31,3.44,32.69,1.3,36.16l2.61,1.62A12.53,12.53,0,0,0,3,43.44l-3,.7.93,4,3-.7a12.52,12.52,0,0,0,3.35,4.66L5.65,54.7l3.47,2.15,1.61-2.62a12.45,12.45,0,0,0,5.65.93l.7,3,4-.93-.7-3A12.5,12.5,0,0,0,25,50.88l2.61,1.62L29.75,49l-2.61-1.62a12.53,12.53,0,0,0,.92-5.66l3-.7-.93-4-3,.7a12.53,12.53,0,0,0-3.35-4.66l1.62-2.62-3.47-2.15L20.32,31A12.45,12.45,0,0,0,14.66,30L14,27,10,28l.7,3A12.48,12.48,0,0,0,6.05,34.31Zm7.82,1.25a7.23,7.23,0,1,1-5.36,8.68A7.22,7.22,0,0,1,13.87,35.56Z"/><circle class="cls-4" cx="115.74" cy="21.81" r="17.88" transform="translate(-0.28 1.55) rotate(-0.77)"/><path class="cls-5" d="M115.5,3.94a17.86,17.86,0,0,0-14.82,8.24,23.32,23.32,0,0,0,17.1,7.11,23.27,23.27,0,0,0,14.16-5A17.87,17.87,0,0,0,115.5,3.94Z"/><path class="cls-6" d="M136.52,21.54A20.81,20.81,0,1,0,116,42.63,20.81,20.81,0,0,0,136.52,21.54ZM99.76,22a16,16,0,1,1,16.16,15.73A15.95,15.95,0,0,1,99.76,22Z"/><rect class="cls-6" x="61.48" y="18.5" width="36.46" height="7.6" transform="translate(-0.29 1.08) rotate(-0.77)"/><rect class="cls-7" x="59.05" y="16.26" width="30.08" height="12.22" transform="translate(-0.29 0.99) rotate(-0.77)"/><circle class="cls-2" cx="120.03" cy="11.94" r="3.43" transform="translate(-0.15 1.62) rotate(-0.77)"/><polygon class="cls-8" points="256.52 128.25 256.5 118.52 256.74 118.52 256.74 117.3 237.19 134.46 255.36 134.46 255.35 128.25 256.52 128.25"/><path class="cls-6" d="M141.07,128.05a.75.75,0,0,1,.07-1.06l6.69-5.87a.75.75,0,0,1,1.05.07l5.87,6.69a.75.75,0,0,1-.07,1.06l-6.29,5.52h5.73l3-2.68a.75.75,0,0,1,1.05.07l2.29,2.61h4.61l-4.29-4.89a.75.75,0,0,1,.07-1.05l6.69-5.87a.75.75,0,0,1,1.05.07l5.87,6.69a.75.75,0,0,1-.07,1.05l-4.56,4H202l-8-9.12a2.5,2.5,0,0,1,.23-3.53L219.12,100a2.5,2.5,0,0,1,3.53.23l15.08,17.19a2.51,2.51,0,0,1-.23,3.54l-15.44,13.54h15.12l19.56-17.16V108a5.71,5.71,0,0,1-4.45-1.76L218.85,71.13h0l-2.85-3a5.77,5.77,0,0,1-.64-.83L215.2,67a5.75,5.75,0,0,1-.33-.66c0-.1-.09-.19-.12-.29a5.85,5.85,0,0,1-.24-.86h0c0-.19,0-.38-.06-.58l-.48-.55A.75.75,0,0,1,214,63l.62-.55a5.72,5.72,0,0,1,4.68-4.11l1.39-1.22a.75.75,0,0,1,1.05.07l2.14,2.44a5.75,5.75,0,0,1,.52.45l15.64,16.42L239.33,72l-5.59-6.38a.75.75,0,0,1,.07-1.05l3.75-3.29-.72-4.39-5.51,4.84a.75.75,0,0,1-1.05-.07l-3.61-4.12h0L215,44.3a.75.75,0,0,1,.07-1.05l6.69-5.87a.75.75,0,0,1,1.05.07l9.35,10.65h0l.56.64,1.69,1.93h0l1.66,1.89L233.21,35l-13.8-15.73a6.25,6.25,0,0,0-8.82-.58l-95.9,84.13a6.25,6.25,0,0,0-.58,8.82l20,22.85h12.52ZM148,115l-5.87-6.69a.75.75,0,0,1,.07-1.05l6.69-5.87a.75.75,0,0,1,1.05.07l5.87,6.69a.75.75,0,0,1-.07,1.06L149.06,115A.75.75,0,0,1,148,115ZM182.73,91.5a.75.75,0,0,1,.07-1.05l6.69-5.87a.75.75,0,0,1,1.06.07l5.87,6.69a.75.75,0,0,1-.07,1.05l-6.69,5.87a.75.75,0,0,1-1.05-.07Zm3.2,10-6.69,5.87a.74.74,0,0,1-1.05-.07l-5.87-6.69a.75.75,0,0,1,.07-1.05l6.69-5.87a.75.75,0,0,1,1.05.07l5.87,6.69A.75.75,0,0,1,185.93,101.53Zm7.22-19.16a.75.75,0,0,1,.07-1.06l6.69-5.87a.75.75,0,0,1,1.06.07l5.87,6.69a.75.75,0,0,1-.07,1.06l-6.69,5.87a.75.75,0,0,1-1.05-.07Zm6.94-13.1-5.87-6.69a.75.75,0,0,1,.07-1.05L201,55.66a.75.75,0,0,1,1.05.07l5.87,6.69a.75.75,0,0,1-.07,1.06l-6.69,5.87A.75.75,0,0,1,200.08,69.27Zm-2.6,2.28a.75.75,0,0,1-.07,1.05l-6.69,5.87a.75.75,0,0,1-1.06-.07l-5.87-6.69a.75.75,0,0,1,.07-1.05l6.69-5.87a.75.75,0,0,1,1.05.07Zm-10.42,9.14a.75.75,0,0,1-.07,1.06l-6.69,5.87a.75.75,0,0,1-1.05-.07l-5.87-6.69a.75.75,0,0,1,.07-1.05l6.69-5.87a.75.75,0,0,1,1.05.07Zm-10.42,9.14a.75.75,0,0,1-.07,1.06l-6.69,5.87a.75.75,0,0,1-1.05-.07L163,90a.75.75,0,0,1,.07-1.05l6.69-5.87a.75.75,0,0,1,1.05.07ZM166.23,99a.75.75,0,0,1-.07,1.05l-6.69,5.87a.75.75,0,0,1-1.05-.07l-5.87-6.69a.75.75,0,0,1,.07-1.05l6.69-5.87a.75.75,0,0,1,1.05.07Zm-1.14,20.84-6.69,5.87a.75.75,0,0,1-1.05-.07l-5.87-6.69a.75.75,0,0,1,.07-1.05l6.69-5.87a.75.75,0,0,1,1.06.07l5.87,6.69A.75.75,0,0,1,165.09,119.81Zm2.67-3.34-5.87-6.69a.75.75,0,0,1,.07-1.05l6.69-5.87a.75.75,0,0,1,1.05.07l5.87,6.69a.75.75,0,0,1-.07,1.05l-6.69,5.87A.75.75,0,0,1,167.77,116.47Zm17.09,4.85-6.69,5.87a.75.75,0,0,1-1.05-.07l-5.87-6.69a.75.75,0,0,1,.07-1.05l6.69-5.87a.75.75,0,0,1,1.05.07l5.87,6.69A.75.75,0,0,1,184.85,121.32ZM216.1,93.91l-1.91,1.67h0l-3.38,3-1.4,1.23h0L205.69,103h0L199,108.92h0l-10.42,9.14a.75.75,0,0,1-1.05-.07l-5.87-6.69a.75.75,0,0,1,.07-1.05l10.42-9.14h0l3.65-3.2L202.56,92h0l6.69-5.87a.75.75,0,0,1,1.05.07l5.87,6.69A.75.75,0,0,1,216.1,93.91ZM219.66,77a.75.75,0,0,1,1.05.07l5.87,6.69a.75.75,0,0,1-.07,1.05l-6.69,5.87a.75.75,0,0,1-1.05-.07l-5.87-6.69a.75.75,0,0,1,.07-1.05Zm-2.42-3.9a.75.75,0,0,1-.07,1.06L210.48,80a.75.75,0,0,1-1.05-.07l-5.87-6.69a.75.75,0,0,1,.07-1.05l6.69-5.87a.75.75,0,0,1,1.05.07Zm1.07-19.79a.75.75,0,0,1-.07,1.05l-6.69,5.87a.75.75,0,0,1-1.06-.07l-5.87-6.69a.75.75,0,0,1,.07-1.06l6.69-5.87a.75.75,0,0,1,1.05.07ZM205.77,32.6l6.69-5.87a.75.75,0,0,1,1.05.07l5.87,6.69a.75.75,0,0,1-.07,1.05l-6.69,5.87a.75.75,0,0,1-1.05-.07l-5.87-6.69A.75.75,0,0,1,205.77,32.6Zm-10.42,9.14L202,35.87a.75.75,0,0,1,1.05.07L209,42.62a.75.75,0,0,1-.07,1.05l-6.69,5.87a.75.75,0,0,1-1.06-.07l-5.87-6.69A.75.75,0,0,1,195.36,41.73Zm-10.42,9.14L191.63,45a.75.75,0,0,1,1.06.07l5.87,6.69a.75.75,0,0,1-.07,1.05l-6.69,5.87a.75.75,0,0,1-1.05-.07l-5.87-6.69A.75.75,0,0,1,184.94,50.87ZM174.52,60l6.69-5.87a.75.75,0,0,1,1.05.07l5.87,6.69a.75.75,0,0,1-.07,1.05l-6.69,5.87a.75.75,0,0,1-1.05-.07l-5.87-6.69A.75.75,0,0,1,174.52,60Zm-10.42,9.14,6.69-5.87a.75.75,0,0,1,1.05.07L177.72,70a.75.75,0,0,1-.07,1.05L171,77a.75.75,0,0,1-1.05-.07L164,70.2A.75.75,0,0,1,164.11,69.15Zm-10.42,9.14,6.69-5.87a.75.75,0,0,1,1.05.07l5.87,6.69a.75.75,0,0,1-.07,1.05l-6.69,5.87a.75.75,0,0,1-1.05-.07l-5.87-6.69A.75.75,0,0,1,153.69,78.28Zm-10.42,9.14L150,81.55a.75.75,0,0,1,1.05.07l5.87,6.69a.75.75,0,0,1-.07,1.05l-6.69,5.87a.75.75,0,0,1-1.05-.07l-5.87-6.69A.75.75,0,0,1,143.28,87.42Zm-10.42,9.14,6.69-5.87a.75.75,0,0,1,1.05.07l5.87,6.69a.75.75,0,0,1-.07,1.05l-6.69,5.87a.75.75,0,0,1-1.05-.07l-5.87-6.69A.75.75,0,0,1,132.86,96.56Zm-4.62,16.88-5.87-6.69a.75.75,0,0,1,.07-1.06l6.69-5.87a.75.75,0,0,1,1.05.07l5.87,6.69a.75.75,0,0,1-.07,1.05l-6.69,5.87A.75.75,0,0,1,128.24,113.44Zm9.34,10.65-5.87-6.69a.75.75,0,0,1,.07-1.06l6.69-5.87a.75.75,0,0,1,1.05.07l5.87,6.69a.75.75,0,0,1-.07,1.06l-6.69,5.87A.75.75,0,0,1,137.59,124.09Z"/><path class="cls-6" d="M250,57.1a5.31,5.31,0,0,1,.46-2.48l-3.91-4.46,1.21,7.31Z"/><rect class="cls-9" x="124.02" y="101.47" width="10.39" height="10.39" rx="0.75" ry="0.75" transform="translate(-38.26 111.7) rotate(-41.26)"/><rect class="cls-9" x="134.44" y="92.33" width="10.39" height="10.39" rx="0.75" ry="0.75" transform="matrix(0.75, -0.66, 0.66, 0.75, -29.65, 116.31)"/><rect class="cls-9" x="144.85" y="83.2" width="10.39" height="10.39" rx="0.75" ry="0.75" transform="translate(-21.04 120.9) rotate(-41.26)"/><rect class="cls-9" x="155.27" y="74.06" width="10.39" height="10.39" rx="0.75" ry="0.75" transform="translate(-12.42 125.51) rotate(-41.26)"/><rect class="cls-9" x="165.68" y="64.92" width="10.39" height="10.39" rx="0.75" ry="0.75" transform="translate(-3.82 130.1) rotate(-41.26)"/><rect class="cls-9" x="176.1" y="55.78" width="10.39" height="10.39" rx="0.75" ry="0.75" transform="translate(4.79 134.68) rotate(-41.25)"/><rect class="cls-9" x="186.51" y="46.65" width="10.39" height="10.39" rx="0.75" ry="0.75" transform="translate(13.42 139.32) rotate(-41.27)"/><rect class="cls-9" x="196.93" y="37.51" width="10.39" height="10.39" rx="0.75" ry="0.75" transform="translate(22.02 143.91) rotate(-41.26)"/><rect class="cls-9" x="207.35" y="28.37" width="10.39" height="10.39" rx="0.75" ry="0.75" transform="translate(30.62 148.49) rotate(-41.26)"/><rect class="cls-9" x="133.37" y="112.12" width="10.39" height="10.39" rx="0.75" ry="0.75" transform="translate(-42.97 120.49) rotate(-41.25)"/><rect class="cls-9" x="143.78" y="102.98" width="10.39" height="10.39" rx="0.75" ry="0.75" transform="translate(-34.36 125.11) rotate(-41.26)"/><rect class="cls-9" x="154.2" y="93.85" width="10.39" height="10.39" rx="0.75" ry="0.75" transform="translate(-25.74 129.72) rotate(-41.27)"/><rect class="cls-9" x="164.61" y="84.71" width="10.39" height="10.39" rx="0.75" ry="0.75" transform="translate(-17.13 134.31) rotate(-41.26)"/><rect class="cls-9" x="175.03" y="75.57" width="10.39" height="10.39" rx="0.75" ry="0.75" transform="translate(-8.53 138.89) rotate(-41.25)"/><rect class="cls-9" x="185.44" y="66.44" width="10.39" height="10.39" rx="0.75" ry="0.75" transform="translate(0.09 143.5) rotate(-41.26)"/><rect class="cls-9" x="195.86" y="57.3" width="10.39" height="10.39" rx="0.75" ry="0.75" transform="matrix(0.75, -0.66, 0.66, 0.75, 8.7, 148.11)"/><rect class="cls-9" x="206.27" y="48.16" width="10.39" height="10.39" rx="0.75" ry="0.75" transform="translate(17.31 152.71) rotate(-41.26)"/><path class="cls-9" d="M224.46,53.9,231.15,48a.75.75,0,0,1,1.05.07l-9.35-10.65a.75.75,0,0,0-1.05-.07l-6.69,5.87A.75.75,0,0,0,215,44.3l11.6,13.22h0L224.39,55A.75.75,0,0,1,224.46,53.9Z"/><polygon class="cls-9" points="234.46 50.67 232.77 48.75 234.46 50.67 234.46 50.67"/><path class="cls-9" d="M154.75,127.89l-5.87-6.69a.75.75,0,0,0-1.05-.07L141.14,127a.75.75,0,0,0-.07,1.06l5.62,6.4h1.71l6.29-5.52A.75.75,0,0,0,154.75,127.89Z"/><rect class="cls-9" x="153.13" y="113.64" width="10.39" height="10.39" rx="0.75" ry="0.75" transform="translate(-39.06 133.91) rotate(-41.26)"/><rect class="cls-9" x="163.54" y="104.5" width="10.39" height="10.39" rx="0.75" ry="0.75" transform="translate(-30.45 138.5) rotate(-41.26)"/><rect class="cls-9" x="173.96" y="95.36" width="10.39" height="10.39" rx="0.75" ry="0.75" transform="translate(-21.84 143.11) rotate(-41.26)"/><rect class="cls-9" x="184.37" y="86.23" width="10.39" height="10.39" rx="0.75" ry="0.75" transform="translate(-13.23 147.71) rotate(-41.26)"/><rect class="cls-9" x="194.79" y="77.09" width="10.39" height="10.39" rx="0.75" ry="0.75" transform="translate(-4.62 152.31) rotate(-41.26)"/><rect class="cls-9" x="205.2" y="67.95" width="10.39" height="10.39" rx="0.75" ry="0.75" transform="translate(3.99 156.89) rotate(-41.25)"/><path class="cls-9" d="M223.93,59.68l-2.14-2.44a.75.75,0,0,0-1.05-.07l-1.39,1.22A5.8,5.8,0,0,1,223.93,59.68Z"/><path class="cls-9" d="M214.67,62.49,214,63a.75.75,0,0,0-.07,1.05l.48.55A5.81,5.81,0,0,1,214.67,62.49Z"/><polygon class="cls-9" points="232.21 48.1 232.21 48.1 232.77 48.75 232.21 48.1"/><path class="cls-9" d="M234.46,50.67a.75.75,0,0,1-.07,1.05L227.7,57.6a.75.75,0,0,1-1.05-.07l3.61,4.12a.75.75,0,0,0,1.05.07l5.51-4.84-.71-4.31Z"/><path class="cls-9" d="M227.7,57.6l6.69-5.87a.75.75,0,0,0,.07-1.05l-1.69-1.93-.56-.64a.75.75,0,0,0-1.05-.07l-6.69,5.87a.75.75,0,0,0-.07,1.05l2.26,2.57A.75.75,0,0,0,227.7,57.6Z"/><path class="cls-9" d="M157.17,131.78l-3,2.68h6.39l-2.29-2.61A.75.75,0,0,0,157.17,131.78Z"/><path class="cls-9" d="M174.51,129.4l-5.87-6.69a.75.75,0,0,0-1.05-.07l-6.69,5.87a.75.75,0,0,0-.07,1.05l4.29,4.89h4.76l4.56-4A.75.75,0,0,0,174.51,129.4Z"/><rect class="cls-9" x="172.89" y="115.15" width="10.39" height="10.39" rx="0.75" ry="0.75" transform="translate(-35.15 147.32) rotate(-41.26)"/><path class="cls-9" d="M208.36,99.71,202.49,93a.75.75,0,0,1,.07-1.05l-6.77,5.94,3-2.67a.75.75,0,0,1,1.05.07l5.87,6.69a.75.75,0,0,1-.07,1.05l3.72-3.27A.75.75,0,0,1,208.36,99.71Z"/><path class="cls-9" d="M197.94,108.85l-5.87-6.69a.75.75,0,0,1,.07-1.05l-10.42,9.14a.75.75,0,0,0-.07,1.05l5.87,6.69a.75.75,0,0,0,1.05.07L199,108.92A.75.75,0,0,1,197.94,108.85Z"/><polygon class="cls-9" points="214.19 95.58 214.19 95.58 210.81 98.55 214.19 95.58"/><polygon class="cls-9" points="199 108.92 205.69 103.05 205.69 103.04 199 108.92 199 108.92"/><polygon class="cls-9" points="192.14 101.1 192.14 101.1 195.79 97.9 192.14 101.1"/><path class="cls-9" d="M205.75,102l-5.87-6.69a.75.75,0,0,0-1.05-.07l-3,2.67-3.65,3.2a.75.75,0,0,0-.07,1.05l5.87,6.69a.75.75,0,0,0,1.05.07l6.69-5.87A.75.75,0,0,0,205.75,102Z"/><path class="cls-9" d="M210.3,86.17a.75.75,0,0,0-1.05-.07L202.56,92h0l4.78-4.2a.75.75,0,0,1,1.05.07l5.87,6.69a.75.75,0,0,1-.07,1.05l1.91-1.67a.75.75,0,0,0,.07-1.05Z"/><polygon class="cls-9" points="209.41 99.78 210.81 98.55 209.41 99.78 209.41 99.78"/><path class="cls-9" d="M214.26,94.53l-5.87-6.69a.75.75,0,0,0-1.05-.07L202.56,92a.75.75,0,0,0-.07,1.05l5.87,6.69a.75.75,0,0,0,1.05.07l1.4-1.23,3.38-3A.75.75,0,0,0,214.26,94.53Z"/><rect class="cls-9" x="214.55" y="78.6" width="10.39" height="10.39" rx="0.75" ry="0.75" transform="translate(-0.71 165.72) rotate(-41.26)"/><path class="cls-9" d="M238.65,67.94l-1.1-6.67-3.75,3.29a.75.75,0,0,0-.07,1.05L239.33,72l-.64-3.9S238.66,68,238.65,67.94Z"/><path class="cls-9" d="M237.73,117.38l-15.08-17.19a2.5,2.5,0,0,0-3.53-.23l-24.9,21.85a2.5,2.5,0,0,0-.23,3.53l8,9.12h20.09l15.44-13.54A2.51,2.51,0,0,0,237.73,117.38Z"/><path class="cls-6" d="M101.42,109.22,218.69,6.34,215,2.13a6.25,6.25,0,0,0-8.82-.58L98.3,96.18a6.25,6.25,0,0,0-.58,8.82Z"/><path class="cls-10" d="M242.28,24.36a5.33,5.33,0,1,0-10.53,1.74L233.21,35l13.32,15.18Zm-8.71,3.75-.55-3.3A2.41,2.41,0,0,1,235,22l2.85-.47a2.4,2.4,0,0,1,2.76,2l.55,3.3Z"/><path class="cls-10" d="M238.07,54.79a.75.75,0,0,1-.07,1.05l-1.18,1,.72,4.39,2.94-2.58a.75.75,0,0,1,1.05.07l.53.6a8.64,8.64,0,0,1,3.71-1.57l2-.32-1.21-7.31L233.21,35l2.9,17.59Z"/><path class="cls-10" d="M238.07,54.79l-2-2.23.71,4.31,1.18-1A.75.75,0,0,0,238.07,54.79Z"/><path class="cls-10" d="M238.69,68.08l-.05-.31a8.68,8.68,0,0,1,3.44-8.41l-.53-.6a.75.75,0,0,0-1.05-.07l-2.94,2.58,1.1,6.67S238.68,68,238.69,68.08Z"/><path class="cls-10" d="M260.45,55.37a5.33,5.33,0,0,0-10-.75l1.84,2.1Z"/><path class="cls-10" d="M250,57.1l2.3-.38-1.84-2.1A5.31,5.31,0,0,0,250,57.1Z"/><path class="cls-10" d="M267.19,49.44A5.33,5.33,0,0,0,262.73,55l10.46-1.73A5.34,5.34,0,0,0,267.19,49.44Z"/><path class="cls-10" d="M287.37,59.67l-1.31-7.94a5.33,5.33,0,0,0-10.59,1.16l1.93-.32A8.68,8.68,0,0,1,287.37,59.67Z"/><path class="cls-10" d="M261.92,64.09a5.31,5.31,0,0,1-.43,3.12l5,5.64a19.3,19.3,0,0,1,6.2,7.07l7.49,8.53a6.21,6.21,0,0,1,1.45,3h6.24l0,11.14a8.68,8.68,0,0,0,5.08-9.35l-5.54-33.54v-.05l0,.22a5.33,5.33,0,0,1-10.53,1.74l-1.35-8.16a5.38,5.38,0,0,1-.06-.57l-2.28.38a5.4,5.4,0,0,1,.13.56L274.66,62a5.33,5.33,0,1,1-10.53,1.74l-1.35-8.16a5.36,5.36,0,0,1-.06-.57l-2.28.38a5.36,5.36,0,0,1,.13.56Z"/><path class="cls-10" d="M259,69.76a19.3,19.3,0,0,1,7.45,3.1l-5-5.64A5.34,5.34,0,0,1,259,69.76Z"/><path class="cls-10" d="M274.57,91.5h7a6.21,6.21,0,0,0-1.45-3l-7.49-8.53a19.28,19.28,0,0,1,1.92,11.57Z"/><path class="cls-10" d="M247.21,71.26a19.24,19.24,0,0,1,5.09-1.59c.52-.09,1-.13,1.55-.18a5.31,5.31,0,0,1-2.46-3.66L250,57.67a5.39,5.39,0,0,1-.06-.57l-2.25.37,1.44,8.73A5.33,5.33,0,0,1,247.21,71.26Z"/><path class="cls-10" d="M245.57,72.13a5.22,5.22,0,0,1-4.21-.38l-.71.62a.75.75,0,0,1-1.05-.07l-.27-.31.75,4.57.21.22A19.39,19.39,0,0,1,245.57,72.13Z"/><path class="cls-10" d="M240.66,72.37l.71-.62a5.32,5.32,0,0,1-2.68-3.67l.64,3.9.27.31A.75.75,0,0,0,240.66,72.37Z"/><path class="cls-10" d="M247.35,66.5l-6,5.25a5.22,5.22,0,0,0,4.21.38q.79-.47,1.64-.87a5.33,5.33,0,0,0,2-5.06l-1.44-8.73-2,.32a8.64,8.64,0,0,0-3.71,1.57l5.34,6.09A.75.75,0,0,1,247.35,66.5Z"/><path class="cls-10" d="M238.63,67.77l.05.31a5.32,5.32,0,0,0,2.68,3.67l6-5.25a.75.75,0,0,0,.07-1.05l-5.34-6.09A8.68,8.68,0,0,0,238.63,67.77Z"/><path class="cls-10" d="M261.49,67.21a5.31,5.31,0,0,0,.43-3.12l-1.35-8.16a5.36,5.36,0,0,0-.13-.56l-8.16,1.35Z"/><path class="cls-10" d="M251.4,65.83a5.31,5.31,0,0,0,2.46,3.66,19.19,19.19,0,0,1,5.14.26,5.34,5.34,0,0,0,2.5-2.54l-9.21-10.49-2.3.38a5.39,5.39,0,0,0,.06.57Z"/><path class="cls-10" d="M264.14,63.73A5.33,5.33,0,1,0,274.66,62l-1.35-8.16a5.4,5.4,0,0,0-.13-.56L262.73,55a5.36,5.36,0,0,0,.06.57Z"/><path class="cls-10" d="M276.88,61.62a5.33,5.33,0,0,0,10.53-1.74l0-.22a8.68,8.68,0,0,0-10-7.1l-1.93.32a5.38,5.38,0,0,0,.06.57Z"/><path class="cls-10" d="M215.37,67.31,215.2,67Z"/><path class="cls-10" d="M214.46,64.64c0,.19,0,.39.06.58l.24-.23Z"/><path class="cls-10" d="M242.79,93l-2.71-16.4L224.45,60.13a5.75,5.75,0,0,0-.52-.45l3.73,4.25a.75.75,0,0,1-.07,1.05l-6.69,5.87a.75.75,0,0,1-1.06-.07l-.29-.33-.7.68,33.42,35.11a5.71,5.71,0,0,0,4.45,1.76v-.4Zm-5.86-17.32-6.69,5.87a.75.75,0,0,1-1.05-.07l-5.87-6.69a.75.75,0,0,1,.07-1.05l6.69-5.87a.75.75,0,0,1,1.05.07L237,74.58A.75.75,0,0,1,236.93,75.64Z"/><path class="cls-10" d="M216.22,59.91a5.76,5.76,0,0,0-1.55,2.58l4.68-4.11A5.78,5.78,0,0,0,216.22,59.91Z"/><path class="cls-10" d="M214.88,66.38c0-.1-.09-.19-.12-.29C214.79,66.18,214.84,66.28,214.88,66.38Z"/><path class="cls-10" d="M216.92,62.9a3,3,0,0,1,4.29.07l2.94,3-4.59,4.45.29.33a.75.75,0,0,0,1.06.07L227.59,65a.75.75,0,0,0,.07-1.05l-3.73-4.25a5.8,5.8,0,0,0-4.58-1.29l-4.68,4.11a5.81,5.81,0,0,0-.21,2.15l.3.35Z"/><path class="cls-10" d="M231.13,67.89a.75.75,0,0,0-1.05-.07l-6.69,5.87a.75.75,0,0,0-.07,1.05l5.87,6.69a.75.75,0,0,0,1.05.07l6.69-5.87a.75.75,0,0,0,.07-1.05Z"/><path class="cls-10" d="M266.45,72.86l6.2,7.07A19.3,19.3,0,0,0,266.45,72.86Z"/><path class="cls-10" d="M256.73,107.59l0-16.07,17.87,0a19.28,19.28,0,0,0-1.92-11.57l-6.2-7.07a19.3,19.3,0,0,0-7.45-3.1,5.31,5.31,0,0,1-5.14-.26c-.51,0-1,.09-1.55.18a19.24,19.24,0,0,0-5.09,1.59,5.3,5.3,0,0,1-1.64.87,19.39,19.39,0,0,0-5.28,4.64l-.21-.22L242.79,93Z"/><path class="cls-10" d="M247.21,71.26q-.84.4-1.64.87A5.3,5.3,0,0,0,247.21,71.26Z"/><path class="cls-10" d="M253.85,69.49a5.31,5.31,0,0,0,5.14.26A19.19,19.19,0,0,0,253.85,69.49Z"/><path class="cls-11" d="M237.86,21.57,235,22a2.41,2.41,0,0,0-2,2.77l.55,3.3,7.6-1.25-.55-3.3A2.4,2.4,0,0,0,237.86,21.57Z"/><path class="cls-11" d="M216,68.14a5.83,5.83,0,0,1-.64-.83A5.77,5.77,0,0,0,216,68.14Z"/><path class="cls-11" d="M214.52,65.22a5.85,5.85,0,0,0,.24.86,5.83,5.83,0,0,1-.23-.87Z"/><polygon class="cls-11" points="218.85 71.13 218.85 71.13 216.01 68.14 218.85 71.13"/><path class="cls-11" d="M215.2,67a5.8,5.8,0,0,1-.33-.66A5.75,5.75,0,0,0,215.2,67Z"/><path class="cls-11" d="M214.76,65l-.24.23a5.83,5.83,0,0,0,.23.87c0,.1.08.19.12.29a5.8,5.8,0,0,0,.33.66l.16.27a5.83,5.83,0,0,0,.64.83l2.85,3,.7-.68Z"/><path class="cls-11" d="M221.21,63a3,3,0,0,0-4.29-.07L214.76,65l4.79,5.46L224.15,66Z"/><path class="cls-10" d="M269.75,105.89l-13,11.42v1.22l31.12,0,0-15.86a8.66,8.66,0,0,1-2.07.63Z"/><path class="cls-10" d="M258.59,107.73h0l-.9.15-.44.08h-.16l-.36,0v9.31l13-11.42Z"/><path class="cls-10" d="M281.58,91.49a6.24,6.24,0,0,1-2,5.79l-9.81,8.6,16-2.64a8.66,8.66,0,0,0,2.07-.63l0-11.14Z"/><path class="cls-10" d="M257.09,108h0Z"/><path class="cls-10" d="M258.59,107.73l11.16-1.84,9.81-8.6a6.24,6.24,0,0,0,2-5.79h-7A19.3,19.3,0,0,1,258.59,107.73Z"/><path class="cls-10" d="M257.18,108h.06l.44-.08.9-.15h0l-1.43.24Z"/><path class="cls-10" d="M256.73,107.59v.4l.36,0Z"/><path class="cls-10" d="M274.57,91.5l-17.87,0,0,16.07.36.38h.08l1.43-.24A19.3,19.3,0,0,0,274.57,91.5Z"/><rect class="cls-12" x="256.51" y="118.52" width="0.24" height="9.73" transform="translate(-0.19 0.39) rotate(-0.09)"/><rect class="cls-12" x="287.87" y="118.48" width="2" height="9.73" transform="translate(-0.18 0.41) rotate(-0.08)"/><rect class="cls-12" x="256.75" y="118.5" width="31.12" height="9.73" transform="translate(-0.18 0.4) rotate(-0.08)"/><polygon class="cls-13" points="287.88 129.52 287.89 134.46 291.06 134.46 291.05 128.2 289.88 128.2 289.88 129.51 287.88 129.52"/><polygon class="cls-13" points="256.76 129.56 256.52 129.56 256.52 128.25 255.35 128.25 255.36 134.46 256.77 134.46 256.76 129.56"/><path class="cls-13" d="M256.77,134.46H283.3a2.12,2.12,0,1,1,4.24,0h.35v-4.94l-31.12,0Z"/><rect class="cls-13" x="287.88" y="128.2" width="2" height="1.31" transform="translate(-0.18 0.41) rotate(-0.08)"/><rect class="cls-13" x="256.52" y="128.25" width="0.24" height="1.31" transform="translate(-0.2 0.39) rotate(-0.09)"/><rect class="cls-13" x="256.76" y="128.23" width="31.12" height="1.31" transform="translate(-0.17 0.35) rotate(-0.07)"/><path class="cls-6" d="M285.42,132.17a2.27,2.27,0,0,0-2.12,2.29h4.24A2.27,2.27,0,0,0,285.42,132.17Z"/><path class="cls-13" d="M287.54,134.51h.35v-.05h-.35S287.54,134.49,287.54,134.51Z"/><path class="cls-13" d="M256.77,134.46v.1l26.53,0s0,0,0-.06Z"/><path class="cls-6" d="M283.3,134.46s0,0,0,.06h4.25s0,0,0-.05Z"/></g></g></svg>