<svg xmlns="http://www.w3.org/2000/svg" viewBox="0 0 144.63 251.71"><defs><style>.cls-1{fill:#18343a;}.cls-2{fill:#62badd;}.cls-3{fill:#fff;}.cls-4{fill:#fabf37;}.cls-5{fill:#e25230;}.cls-6{fill:#999;}.cls-7{fill:#4b6568;}.cls-8{fill:#edc298;}.cls-9{fill:#f9deb2;}.cls-10{fill:#754c24;}</style></defs><title>small left</title><g id="Layer_2" data-name="Layer 2"><g id="Layer_1-2" data-name="Layer 1"><path class="cls-1" d="M0,170.12a6.45,6.45,0,0,1,6.44-6.45l131.67-.11a6.45,6.45,0,0,1,6.46,6.44l.07,75.14a6.45,6.45,0,0,1-6.44,6.45l-131.67.11a6.45,6.45,0,0,1-6.45-6.44Z"/><rect class="cls-2" x="7.2" y="172.97" width="130.23" height="71.17"/><rect class="cls-3" x="12.43" y="178.32" width="119.76" height="53.97"/><rect class="cls-1" x="77.59" y="184.54" width="35.97" height="41.27"/><path class="cls-2" d="M84.94,190v13.26a2,2,0,0,0,2,1.92l8.49,1.14,8.21-1.14a2,2,0,0,0,2-1.92V190Z"/><path class="cls-4" d="M89.39,216.11c.23,3.84,1.7,6.8,5.95,6.8s5.71-3,5.95-6.8a.94.94,0,0,0,.85-.94v-1.66a.94.94,0,0,0-.94-.94H101a8.22,8.22,0,0,0-2.3-4.19v-2.59l-.74-3-5.34-.09-.75,3.11v2.61a8.22,8.22,0,0,0-2.3,4.19h-.14a.94.94,0,0,0-.94.94v1.66A.94.94,0,0,0,89.39,216.11Z"/><rect class="cls-5" x="12.46" y="231.92" width="119.76" height="8.87"/><rect class="cls-3" x="90.59" y="235.69" width="38.37" height="1.4"/><circle class="cls-3" cx="47.93" cy="214.08" r="9.85"/><path class="cls-4" d="M52.72,206.25c.06-.1,2.69-8,2.77-8.24s-7.61,5.51-7.61,5.51S52.59,206.46,52.72,206.25Z"/><path class="cls-2" d="M52.72,206.25s0,0-.06,0a51.48,51.48,0,0,1-4.77-2.74S55.34,198,55.5,198c0,0,0,0,0,0C55.41,198.23,52.78,206.15,52.72,206.25Z"/><path class="cls-2" d="M48,226a11.85,11.85,0,1,0-11.85-11.85A11.85,11.85,0,0,0,48,226Zm-6.4-16h12.8a1,1,0,1,1,0,1.92H41.58a1,1,0,1,1,0-1.92Zm0,3.35H54.39a1,1,0,0,1,0,1.92H41.58a1,1,0,1,1,0-1.92Zm0,3.34H54.39a1,1,0,0,1,0,1.92H41.58a1,1,0,1,1,0-1.92Z"/><rect class="cls-6" x="31.34" y="185.09" width="38.48" height="1.77"/><rect class="cls-6" x="31.34" y="190.53" width="38.48" height="1.77"/><rect class="cls-6" x="38.48" y="56.12" width="39.66" height="13.12"/><path class="cls-1" d="M.07,60.36a6.44,6.44,0,0,1,6.45-6.44L138,54a6.44,6.44,0,0,1,6.44,6.45l-.07,94.93a6.44,6.44,0,0,1-6.45,6.44L6.44,161.74A6.44,6.44,0,0,1,0,155.29Z"/><rect class="cls-7" x="123.99" y="143.6" width="10.71" height="10.71" rx="0.77" ry="0.77"/><rect class="cls-7" x="109.7" y="143.59" width="10.71" height="10.71" rx="0.77" ry="0.77"/><rect class="cls-7" x="95.42" y="143.58" width="10.71" height="10.71" rx="0.77" ry="0.77"/><rect class="cls-7" x="81.14" y="143.57" width="10.71" height="10.71" rx="0.77" ry="0.77"/><rect class="cls-7" x="66.85" y="143.56" width="10.71" height="10.71" rx="0.77" ry="0.77"/><rect class="cls-7" x="52.57" y="143.55" width="10.71" height="10.71" rx="0.77" ry="0.77"/><path class="cls-7" d="M38.28,144.3a.77.77,0,0,1,.77-.77h9.17a.77.77,0,0,1,.77.77v9.17a.77.77,0,0,1-.77.77H39a.77.77,0,0,1-.77-.77Z"/><rect class="cls-7" x="24" y="143.53" width="10.71" height="10.71" rx="0.77" ry="0.77"/><rect class="cls-7" x="9.71" y="143.52" width="10.71" height="10.71" rx="0.77" ry="0.77"/><rect class="cls-7" x="124" y="128.99" width="10.71" height="10.71" rx="0.77" ry="0.77"/><rect class="cls-7" x="109.71" y="128.98" width="10.71" height="10.71" rx="0.77" ry="0.77"/><rect class="cls-7" x="95.43" y="128.97" width="10.71" height="10.71" rx="0.77" ry="0.77"/><rect class="cls-7" x="81.15" y="128.96" width="10.71" height="10.71" rx="0.77" ry="0.77"/><rect class="cls-7" x="66.86" y="128.95" width="10.71" height="10.71" rx="0.77" ry="0.77"/><rect class="cls-7" x="52.58" y="128.94" width="10.71" height="10.71" rx="0.77" ry="0.77"/><rect class="cls-7" x="38.29" y="128.93" width="10.71" height="10.71" rx="0.77" ry="0.77"/><rect class="cls-7" x="24.01" y="128.92" width="10.71" height="10.71" rx="0.77" ry="0.77"/><rect class="cls-7" x="9.73" y="119.95" width="10.71" height="19.68" rx="0.77" ry="0.77"/><rect class="cls-7" x="124.01" y="114.38" width="10.71" height="10.71" rx="0.77" ry="0.77"/><rect class="cls-7" x="109.72" y="114.37" width="10.71" height="10.71" rx="0.77" ry="0.77"/><rect class="cls-7" x="95.44" y="114.36" width="10.71" height="10.71" rx="0.77" ry="0.77"/><rect class="cls-7" x="81.16" y="114.35" width="10.71" height="10.71" rx="0.77" ry="0.77"/><rect class="cls-7" x="66.87" y="114.34" width="10.71" height="10.71" rx="0.77" ry="0.77"/><rect class="cls-7" x="52.59" y="114.33" width="10.71" height="10.71" rx="0.77" ry="0.77"/><rect class="cls-7" x="38.3" y="114.32" width="10.71" height="10.71" rx="0.77" ry="0.77"/><rect class="cls-7" x="24.02" y="114.31" width="10.71" height="10.71" rx="0.77" ry="0.77"/><rect class="cls-7" x="9.73" y="114.3" width="10.71" height="10.71" rx="0.77" ry="0.77"/><rect class="cls-7" x="124.02" y="99.77" width="10.71" height="10.71" rx="0.77" ry="0.77"/><rect class="cls-7" x="109.74" y="99.76" width="10.71" height="10.71" rx="0.77" ry="0.77"/><rect class="cls-7" x="95.45" y="99.75" width="10.71" height="10.71" rx="0.77" ry="0.77"/><path class="cls-7" d="M55.22,100.49a.77.77,0,0,1,.77-.77l35.13,0a.77.77,0,0,1,.77.77v9.17a.77.77,0,0,1-.77.77l-35.13,0a.77.77,0,0,1-.77-.77Z"/><rect class="cls-7" x="66.88" y="99.73" width="10.71" height="10.71" rx="0.77" ry="0.77"/><rect class="cls-7" x="52.6" y="99.72" width="10.71" height="10.71" rx="0.77" ry="0.77"/><rect class="cls-7" x="38.31" y="99.71" width="10.71" height="10.71" rx="0.77" ry="0.77"/><path class="cls-7" d="M24,100.46a.77.77,0,0,1,.77-.77H34a.77.77,0,0,1,.77.77v9.17a.77.77,0,0,1-.77.77H24.79a.77.77,0,0,1-.77-.77Z"/><rect class="cls-7" x="9.74" y="99.69" width="10.71" height="10.71" rx="0.77" ry="0.77"/><path class="cls-7" d="M52.59,66.82a2.58,2.58,0,0,1,2.58-2.58l34.15,0a2.58,2.58,0,0,1,2.58,2.59l0,23.58A2.58,2.58,0,0,1,89.31,93L55.15,93a2.58,2.58,0,0,1-2.58-2.58Z"/><path class="cls-8" d="M74.67,86.7a5.46,5.46,0,0,1,5.45-5.46h0a5.46,5.46,0,0,1,5.46,5.45l0,43.38a5.46,5.46,0,0,1-5.45,5.46h0a5.46,5.46,0,0,1-5.46-5.45Z"/><path class="cls-8" d="M61.45,86.71a5.46,5.46,0,0,1,5.45-5.46h0a5.46,5.46,0,0,1,5.46,5.45v8.46a5.46,5.46,0,0,1-5.45,5.46h0a5.46,5.46,0,0,1-5.46-5.45Z"/><path class="cls-8" d="M48.24,86.73a5.46,5.46,0,0,1,5.45-5.46h0a5.46,5.46,0,0,1,5.46,5.45v8.46a5.46,5.46,0,0,1-5.45,5.46h0a5.46,5.46,0,0,1-5.46-5.45Z"/><path class="cls-8" d="M35,86.74a5.46,5.46,0,0,1,5.45-5.46h0a5.46,5.46,0,0,1,5.46,5.45v8.46a5.46,5.46,0,0,1-5.45,5.46h0A5.46,5.46,0,0,1,35,95.2Z"/><path class="cls-8" d="M43.91,95.78l32.79,0a8.88,8.88,0,0,0,8.88-8.89l0-26.11L73.6,43.21l-29.74,0A8.89,8.89,0,0,0,35,52.12L35,86.9A8.88,8.88,0,0,0,43.91,95.78Z"/><path class="cls-8" d="M72.09,82.68A19.68,19.68,0,0,0,85.39,77.5L98.63,96.93a6,6,0,0,0,9.85-6.69L78.18,45.76a5.89,5.89,0,0,0-4.67-2.56H72.06a19.74,19.74,0,1,0,0,39.47Z"/><path class="cls-9" d="M76.23,127.75v3.43a2.46,2.46,0,0,0,2.46,2.46h3a2.46,2.46,0,0,0,2.46-2.46v-3.43Z"/><path class="cls-8" d="M74.51,24.95c-6.93-1.12-11.54-4.3-18.79-4.3-4.16,0-10.79.3-14.85.68l0,24.39,33.63,0Z"/><path class="cls-9" d="M108.48,90.24l-2.38-3.49L99.91,91l2.46,3.55a3.11,3.11,0,0,0,4.32.78l2.81-1.95A5.92,5.92,0,0,0,108.48,90.24Z"/><rect class="cls-10" x="37.08" y="14.72" width="42.44" height="18.12"/><rect class="cls-1" x="44.88" y="3.74" width="2.22" height="28.67"/><circle class="cls-1" cx="52.06" cy="25.32" r="3.13"/><rect class="cls-10" x="37.1" width="42.34" height="15.31"/></g></g></svg>