<svg xmlns="http://www.w3.org/2000/svg" viewBox="0 0 188.03 226.54">
    <defs>
        <style>
            .cls-1{fill:#4b87d0;}.cls-2{fill:#fff;}.cls-3{fill:#fe9;}.cls-4{fill:#fece68;}.cls-5{fill:#f2b74e;}.cls-6{fill:#043942;}.cls-7{fill:none;}.cls-8{fill:#18343a;}.cls-9{fill:#4b6568;stroke: #4b6568;}.cls-10{fill:#edc298;stroke: #edc298;}.cls-11{fill:#f9deb2;}.cls-12{fill:#4c88d0;stroke: #4c88d0;}
        </style>
    </defs>
    <title>small right</title>
    <g id="Layer_2" data-name="Layer 2">
        <g id="Layer_1-2" data-name="Layer 1">
            <circle class="cls-1" cx="25.46" cy="199.96" r="25.43"/>
            <path class="cls-2"
                  d="M31.3,209c.09.14,3.81,11.34,3.93,11.65s-10.77-7.79-10.77-7.79S31.11,208.67,31.3,209Z"/>
            <path class="cls-2"
                  d="M31.3,209s0,0-.09,0c-.8.14-6.75,3.88-6.75,3.88s10.53,7.84,10.76,7.8a0,0,0,0,0,0,0C35.11,220.31,31.39,209.11,31.3,209Z"/>
            <path class="cls-2"
                  d="M7.82,197.87a16.76,16.76,0,1,0,16.74-16.78A16.76,16.76,0,0,0,7.82,197.87Zm6.35,4.46A1.36,1.36,0,0,1,15.53,201l18.12,0a1.36,1.36,0,0,1,0,2.72l-18.12,0A1.36,1.36,0,0,1,14.17,202.34Zm0-4.73a1.36,1.36,0,0,1,1.36-1.36l18.12,0a1.36,1.36,0,1,1,0,2.72l-18.12,0A1.36,1.36,0,0,1,14.16,197.6Zm0-4.73a1.36,1.36,0,0,1,1.36-1.36l18.12,0a1.36,1.36,0,0,1,0,2.72l-18.12,0A1.36,1.36,0,0,1,14.16,192.87Z"/>
            <polygon class="cls-2" points="75.39 195.31 68.32 169.91 90.42 184.29 75.39 195.31"/>
            <path class="cls-2" d="M75.3,195.57l-7.24-26,22.62,14.73Zm-6.72-25.31,6.9,24.79L90.14,184.3Z"/>
            <rect class="cls-3" x="86.13" y="189.54" width="6.72" height="38.77"
                  transform="translate(-106.17 93.29) rotate(-36.23)"/>
            <rect class="cls-4" x="91.55" y="185.56" width="6.72" height="38.76"
                  transform="translate(-102.85 95.85) rotate(-36.27)"/>
            <rect class="cls-5" x="97.12" y="182.03" width="5.25" height="38.76"
                  transform="translate(-99.77 97.93) rotate(-36.24)"/>
            <path class="cls-6"
                  d="M73.07,173.06l-2.62-2.79c-.52-.71-1.35-1-1.85-.62l-.61.45a1.43,1.43,0,0,0,0,2l1.88,3.34Z"/>
            <path class="cls-2"
                  d="M39.06,100.35l-.1-2.2L36,98.29l.1,2.2a9,9,0,0,0-3.72,1.75l-1.62-1.48-2,2.16,1.62,1.48a9,9,0,0,0-1.4,3.86l-2.2.1.13,2.92,2.2-.1a8.92,8.92,0,0,0,1.73,3.72l-1.48,1.62,2.15,2,1.49-1.62a8.92,8.92,0,0,0,3.86,1.39l.1,2.2,2.92-.13-.1-2.2a9,9,0,0,0,3.72-1.74l1.62,1.48,2-2.16-1.62-1.48a9,9,0,0,0,1.4-3.86l2.2-.1L49,107.32l-2.2.1a9,9,0,0,0-1.73-3.72l1.48-1.62-2.15-2-1.48,1.63A8.94,8.94,0,0,0,39.06,100.35Zm2.42,5.13a5.17,5.17,0,1,1-7.3.34A5.16,5.16,0,0,1,41.48,105.48Z"/>
            <path class="cls-7"
                  d="M182.19,48.7H152.72V47.28H142.55a4.5,4.5,0,0,1-1.87,2.82L120.43,63.84l0,29,20.23,13.78a4.5,4.5,0,0,1,1.87,2.82h10.17v-1h17.37a7.38,7.38,0,0,0,1.91.29,3.52,3.52,0,0,0,1.46-.29H183v0h5V48.73h-5.84Z"/>
            <rect class="cls-8" x="76" y="119.35" width="25.98" height="1.57"/>
            <path class="cls-8"
                  d="M108,139.43l-32.62,0a4.2,4.2,0,0,1-2.38-.74h-6.7a.75.75,0,0,1-.75-.75V129a.75.75,0,0,1,.75-.75h6.29a4.19,4.19,0,0,1-1.43-3.15c0-.11,0-.21,0-.32H66.35a.75.75,0,0,1-.75-.75v-8.9a.75.75,0,0,1,.75-.75h4.93A4.2,4.2,0,0,1,74.94,111H66.36a.75.75,0,0,1-.75-.75v-8.9a.75.75,0,0,1,.75-.75h8.9a.73.73,0,0,1,.61.34l33.12,0h6.91l-6.42-4.37a2.48,2.48,0,0,1-1.56.56l-22.87,0a2.5,2.5,0,0,1-2.5-2.51l0-33.13A2.5,2.5,0,0,1,85.08,59l22.87,0a2.49,2.49,0,0,1,1.91.9l6.07-4.12H109l-33.54,0a4.18,4.18,0,0,1-1.25-.21H66.4a.75.75,0,0,1-.75-.75v-8.9a.75.75,0,0,1,.75-.75h8.9a.75.75,0,0,1,.75.75V47.3l26,0V45.5a4.2,4.2,0,0,1,0-8.35V35.28a4.2,4.2,0,0,1,0-8.35V25.07a4.21,4.21,0,0,1,.46-8.39h18V14.3A6.25,6.25,0,0,0,114.22,8L22.14,8a6.25,6.25,0,0,0-6.25,6.24l-.09,127.57A6.25,6.25,0,0,0,22,148l92.08.07a6.25,6.25,0,0,0,6.25-6.24v-2.39H108.83C108.56,139.47,108.3,139.45,108,139.43ZM65.68,18.17a.75.75,0,0,1,.75-.75h8.9a.75.75,0,0,1,.75.75v8.9a.75.75,0,0,1-.75.75h-8.9a.75.75,0,0,1-.75-.75Zm0,13.86a.75.75,0,0,1,.75-.75h8.9a.75.75,0,0,1,.75.75v8.9a.75.75,0,0,1-.75.75h-8.9a.75.75,0,0,1-.75-.75Zm0,50.46V68.64h0v-8.9A.75.75,0,0,1,66.4,59h8.9a.75.75,0,0,1,.75.75v8.9h0v5h0v8.9h0V96.35a.75.75,0,0,1-.75.75h-8.9a.75.75,0,0,1-.75-.75V82.49Zm-32.16,55.4a.75.75,0,0,1-.75.75h-8.9a.75.75,0,0,1-.75-.75V129a.75.75,0,0,1,.75-.75h8.9a.75.75,0,0,1,.75.75Zm0-13.86a.75.75,0,0,1-.75.75h-8.9a.75.75,0,0,1-.75-.75v-8.9a.75.75,0,0,1,.75-.75h8.9a.75.75,0,0,1,.75.75Zm0-13.85a.75.75,0,0,1-.75.75h-8.9a.75.75,0,0,1-.75-.75v-8.9a.75.75,0,0,1,.75-.75h8.9a.75.75,0,0,1,.75.75Zm0-13.86a.75.75,0,0,1-.75.75h-8.9a.75.75,0,0,1-.75-.75v-8.9a.75.75,0,0,1,.75-.75h8.9a.75.75,0,0,1,.75.75Zm0-13.86a.75.75,0,0,1-.75.75h-8.9a.75.75,0,0,1-.75-.75v-8.9a.75.75,0,0,1,.75-.75h8.9a.75.75,0,0,1,.75.75Zm0-13.86a.75.75,0,0,1-.75.75h-8.9a.75.75,0,0,1-.75-.75v-8.9a.75.75,0,0,1,.75-.75h8.9a.75.75,0,0,1,.75.75Zm0-13.86a.75.75,0,0,1-.75.75h-8.9a.75.75,0,0,1-.75-.75v-8.9a.75.75,0,0,1,.75-.75h8.9a.75.75,0,0,1,.75.75Zm0-13.86a.75.75,0,0,1-.75.75H23.9a.75.75,0,0,1-.75-.75V32a.75.75,0,0,1,.75-.75h8.9a.75.75,0,0,1,.75.75Zm0-13.86a.75.75,0,0,1-.75.75h-8.9a.75.75,0,0,1-.75-.75v-8.9a.75.75,0,0,1,.75-.75h8.9a.75.75,0,0,1,.75.75ZM47.64,137.9a.75.75,0,0,1-.75.75H38a.75.75,0,0,1-.75-.75V129a.75.75,0,0,1,.75-.75h8.9a.75.75,0,0,1,.75.75Zm0-13.85a.75.75,0,0,1-.75.75H38a.75.75,0,0,1-.75-.75v-8.9a.75.75,0,0,1,.75-.75h8.9a.75.75,0,0,1,.75.75Zm0-13.86a.75.75,0,0,1-.75.75H38a.75.75,0,0,1-.75-.75v-8.9a.75.75,0,0,1,.75-.75h8.9a.75.75,0,0,1,.75.75Zm0-13.85a.75.75,0,0,1-.75.74H38a.75.75,0,0,1-.75-.75v-8.9a.75.75,0,0,1,.75-.75h8.9a.75.75,0,0,1,.75.75Zm0-13.86a.75.75,0,0,1-.75.75H38a.75.75,0,0,1-.75-.75v-8.9a.75.75,0,0,1,.75-.75h8.9a.75.75,0,0,1,.75.75Zm0-13.86a.75.75,0,0,1-.75.75H38a.75.75,0,0,1-.75-.75v-8.9a.75.75,0,0,1,.75-.75H47a.75.75,0,0,1,.75.75Zm0-13.85a.75.75,0,0,1-.75.75h-8.9a.75.75,0,0,1-.75-.75v-8.9a.75.75,0,0,1,.75-.75H47a.75.75,0,0,1,.75.75Zm0-13.86a.75.75,0,0,1-.75.75h-8.9a.75.75,0,0,1-.75-.75V32a.75.75,0,0,1,.75-.75H47a.75.75,0,0,1,.75.75Zm14.1,97a.75.75,0,0,1-.75.75h-8.9a.75.75,0,0,1-.75-.75V129a.75.75,0,0,1,.75-.75h8.9a.75.75,0,0,1,.75.75Zm0-13.86a.75.75,0,0,1-.75.75h-8.9a.75.75,0,0,1-.75-.75v-8.9a.75.75,0,0,1,.75-.75h8.9a.75.75,0,0,1,.75.75Zm0-13.86a.75.75,0,0,1-.75.75h-8.9a.75.75,0,0,1-.75-.75v-8.9a.75.75,0,0,1,.75-.75h8.9a.75.75,0,0,1,.75.75Zm0-13.85a.75.75,0,0,1-.75.75H52.2a.75.75,0,0,1-.75-.75v-8.9a.75.75,0,0,1,.75-.75h8.9a.75.75,0,0,1,.75.75Zm0-13.86a.75.75,0,0,1-.75.75h-8.9a.75.75,0,0,1-.75-.75v-8.9a.75.75,0,0,1,.75-.75h8.9a.75.75,0,0,1,.75.75Zm0-13.86a.75.75,0,0,1-.75.75h-8.9a.75.75,0,0,1-.75-.75v-8.9a.75.75,0,0,1,.75-.75h8.9a.75.75,0,0,1,.75.75Zm0-13.86a.75.75,0,0,1-.75.75h-8.9a.75.75,0,0,1-.75-.75v-8.9a.75.75,0,0,1,.75-.75h8.9a.75.75,0,0,1,.75.75Zm0-13.86a.75.75,0,0,1-.75.75h-8.9a.75.75,0,0,1-.75-.75V32a.75.75,0,0,1,.75-.75h8.9a.75.75,0,0,1,.75.75Zm0-13.85a.75.75,0,0,1-.75.75H38.08a.75.75,0,0,1-.75-.75v-8.9a.75.75,0,0,1,.75-.75H61.15a.75.75,0,0,1,.75.75Z"/>
            <path class="cls-8" d="M76,109.34v.87a.74.74,0,0,1-.5.7l26.48,0v-1.57Z"/>
            <rect class="cls-8" x="75.99" y="129.36" width="25.98" height="1.62"/>
            <polygon class="cls-8" points="110.44 86.08 120.4 92.86 120.42 63.84 110.45 70.62 110.44 86.08"/>
            <rect class="cls-9" x="23.09" y="128.24" width="10.39" height="10.39" rx="0.75" ry="0.75"/>
            <rect class="cls-9" x="23.09" y="114.38" width="10.39" height="10.39" rx="0.75" ry="0.75"/>
            <rect class="cls-9" x="23.1" y="100.53" width="10.39" height="10.39" rx="0.75" ry="0.75"/>
            <rect class="cls-9" x="23.11" y="86.67" width="10.39" height="10.39" rx="0.75" ry="0.75"/>
            <rect class="cls-9" x="23.13" y="72.82" width="10.39" height="10.39" rx="0.75" ry="0.75"/>
            <rect class="cls-9" x="23.14" y="58.96" width="10.39" height="10.39" rx="0.75" ry="0.75"/>
            <path class="cls-9"
                  d="M32.79,45.11H23.9a.75.75,0,0,0-.75.75v8.9a.75.75,0,0,0,.75.75h8.9a.75.75,0,0,0,.75-.75v-8.9A.75.75,0,0,0,32.79,45.11Z"/>
            <rect class="cls-9" x="23.15" y="31.25" width="10.39" height="10.39" rx="0.75" ry="0.75"/>
            <rect class="cls-9" x="23.17" y="17.4" width="10.39" height="10.39" rx="0.75" ry="0.75"/>
            <rect class="cls-9" x="37.26" y="128.25" width="10.39" height="10.39" rx="0.75" ry="0.75"/>
            <rect class="cls-9" x="37.26" y="114.39" width="10.39" height="10.39" rx="0.75" ry="0.75"/>
            <rect class="cls-9" x="37.28" y="100.54" width="10.39" height="10.39" rx="0.75" ry="0.75"/>
            <rect class="cls-9" x="37.28" y="86.68" width="10.39" height="10.39" rx="0.75" ry="0.75"/>
            <rect class="cls-9" x="37.3" y="72.83" width="10.39" height="10.39" rx="0.75" ry="0.75"/>
            <rect class="cls-9" x="37.3" y="58.97" width="10.39" height="10.39" rx="0.75" ry="0.75"/>
            <rect class="cls-9" x="37.32" y="45.12" width="10.39" height="10.39" rx="0.75" ry="0.75"/>
            <rect class="cls-9" x="37.32" y="31.26" width="10.39" height="10.39" rx="0.75" ry="0.75"/>
            <polygon class="cls-9" points="55.68 17.41 53.19 17.41 55.68 17.42 55.68 17.41"/>
            <path class="cls-9"
                  d="M51.5,27.06v-8.9a.75.75,0,0,1,.75-.75H38.09a.75.75,0,0,0-.75.75V27a.75.75,0,0,0,.75.75H52.25A.75.75,0,0,1,51.5,27.06Z"/>
            <rect class="cls-9" x="51.43" y="128.26" width="10.39" height="10.39" rx="0.75" ry="0.75"/>
            <rect class="cls-9" x="51.44" y="114.4" width="10.39" height="10.39" rx="0.75" ry="0.75"/>
            <rect class="cls-9" x="51.45" y="100.55" width="10.39" height="10.39" rx="0.75" ry="0.75"/>
            <rect class="cls-9" x="51.46" y="86.69" width="10.39" height="10.39" rx="0.75" ry="0.75"/>
            <rect class="cls-9" x="51.47" y="72.84" width="10.39" height="10.39" rx="0.75" ry="0.75"/>
            <rect class="cls-9" x="51.48" y="58.98" width="10.39" height="10.39" rx="0.75" ry="0.75"/>
            <rect class="cls-9" x="51.49" y="45.13" width="10.39" height="10.39" rx="0.75" ry="0.75"/>
            <rect class="cls-9" x="51.5" y="31.27" width="10.39" height="10.39" rx="0.75" ry="0.75"/>
            <path class="cls-9"
                  d="M61.15,17.42H55.68a.75.75,0,0,1,.75.75v8.9a.75.75,0,0,1-.75.75h5.48a.75.75,0,0,0,.75-.75v-8.9A.75.75,0,0,0,61.15,17.42Z"/>
            <polygon class="cls-9" points="52.26 17.41 52.26 17.41 53.19 17.41 52.26 17.41"/>
            <path class="cls-9"
                  d="M56.42,27.06v-8.9a.75.75,0,0,0-.75-.75H52.26a.75.75,0,0,0-.75.75v8.9a.75.75,0,0,0,.75.75h3.42A.75.75,0,0,0,56.42,27.06Z"/>
            <path class="cls-9"
                  d="M71.2,135.18A4.22,4.22,0,0,1,75.43,131H76v-1.62h-.57a4.19,4.19,0,0,1-2.79-1.08H66.35a.75.75,0,0,0-.75.75v8.9a.75.75,0,0,0,.75.75H73A4.21,4.21,0,0,1,71.2,135.18Z"/>
            <path class="cls-9"
                  d="M75.43,120.91H76v-1.57h-.56a4.16,4.16,0,0,1-4.15-4.93H66.36a.75.75,0,0,0-.75.75v8.9a.75.75,0,0,0,.75.75h4.89A4.21,4.21,0,0,1,75.43,120.91Z"/>
            <path class="cls-9"
                  d="M75.51,110.9a.74.74,0,0,0,.5-.7v-.87h-.56a4.22,4.22,0,1,1,0-8.44h.43a.73.73,0,0,0-.61-.34h-8.9a.75.75,0,0,0-.75.75v8.9a.75.75,0,0,0,.75.75h8.59a4.17,4.17,0,0,1,.5,0Z"/>
            <path class="cls-9"
                  d="M66.37,97.09h8.9a.75.75,0,0,0,.75-.75V82.5a.75.75,0,0,1-.75.75h-8.9a.75.75,0,0,1-.75-.75V96.35A.75.75,0,0,0,66.37,97.09Z"/>
            <path class="cls-9"
                  d="M66.39,72.84h8.9a.75.75,0,0,1,.75.74v-5a.75.75,0,0,1-.75.75h-8.9a.75.75,0,0,1-.75-.74v5A.75.75,0,0,1,66.39,72.84Z"/>
            <polygon class="cls-9" points="65.63 82.49 65.63 82.49 65.64 77.65 65.63 82.49"/>
            <polygon class="cls-9" points="76.03 82.5 76.03 73.6 76.03 73.59 76.03 82.5 76.03 82.5"/>
            <path class="cls-9"
                  d="M66.38,83.24h8.9A.75.75,0,0,0,76,82.5v-8.9a.75.75,0,0,0-.75-.74h-8.9a.75.75,0,0,0-.75.75v8.9A.75.75,0,0,0,66.38,83.24Z"/>
            <path class="cls-9"
                  d="M66.4,61.53h8.9a.75.75,0,0,1,.75.75v6.36h0v-8.9a.75.75,0,0,0-.75-.75H66.4a.75.75,0,0,0-.75.75v8.9h0V62.27A.75.75,0,0,1,66.4,61.53Z"/>
            <path class="cls-9"
                  d="M66.39,69.38h8.9a.75.75,0,0,0,.75-.75V62.28a.75.75,0,0,0-.75-.75H66.4a.75.75,0,0,0-.75.75v6.36A.75.75,0,0,0,66.39,69.38Z"/>
            <path class="cls-9"
                  d="M71.26,51.52a4.22,4.22,0,0,1,4.22-4.22h.56V45.89a.75.75,0,0,0-.75-.75h-8.9a.75.75,0,0,0-.75.75v8.9a.75.75,0,0,0,.75.75h7.83A4.21,4.21,0,0,1,71.26,51.52Z"/>
            <path class="cls-9"
                  d="M66.41,41.67h8.9a.75.75,0,0,0,.75-.75V32a.75.75,0,0,0-.75-.75h-8.9a.75.75,0,0,0-.75.75v8.9A.75.75,0,0,0,66.41,41.67Z"/>
            <rect class="cls-9" x="65.68" y="17.43" width="10.39" height="10.39" rx="0.75" ry="0.75"/>
            <path class="cls-9"
                  d="M99.85,84.44a4.59,4.59,0,0,1,3.92-2h0a4.67,4.67,0,0,1,.7.08l.25.06a4.54,4.54,0,0,1,.56.17l.23.09a4.52,4.52,0,0,1,.73.4l2.7,1.84h0l1.49,1V70.62l-4.2,2.85a4.53,4.53,0,0,1-.73.39l-.23.09a4.54,4.54,0,0,1-.56.17l-.25.06a4.66,4.66,0,0,1-.7.07h0a4.6,4.6,0,0,1-2.69-8.41l8.77-6a2.49,2.49,0,0,0-1.91-.9L85.08,59a2.5,2.5,0,0,0-2.51,2.5l0,33.13a2.5,2.5,0,0,0,2.5,2.51l22.87,0a2.48,2.48,0,0,0,1.56-.56l-8.41-5.73A4.6,4.6,0,0,1,99.85,84.44Z"/>
            <path class="cls-8" d="M.1,6.24,0,149.74A6.25,6.25,0,0,0,6.24,156h5.61L12,0H6.36A6.25,6.25,0,0,0,.1,6.24Z"/>
            <path class="cls-10"
                  d="M102,48.89V47.32l-26,0v1.18h1.24v6.09H76v.21a.75.75,0,0,1-.75.75H74.23a4.18,4.18,0,0,0,1.25.21l33.54,0h-.13A6.87,6.87,0,0,1,102,48.89Z"/>
            <path class="cls-10"
                  d="M76,54.79v-.21H74.63a1.9,1.9,0,0,1-1.9-1.91V50.39a1.9,1.9,0,0,1,1.9-1.9H76V47.3h-.56a4.21,4.21,0,0,0-1.26,8.23H75.3A.75.75,0,0,0,76,54.79Z"/>
            <path class="cls-10" d="M98.27,41.32A4.21,4.21,0,0,0,102,45.5V37.15A4.21,4.21,0,0,0,98.27,41.32Z"/>
            <path class="cls-10" d="M98.28,31.11A4.21,4.21,0,0,0,102,35.28V26.93A4.21,4.21,0,0,0,98.28,31.11Z"/>
            <path class="cls-10" d="M108.88,16.68h-6.37a4.21,4.21,0,0,0-.46,8.39V23.54A6.87,6.87,0,0,1,108.88,16.68Z"/>
            <path class="cls-10"
                  d="M127.44,30.06a15.19,15.19,0,0,1,13.31,7.87V21.27h1.52a6.87,6.87,0,0,0-6.46-4.58H120.46V31.76A15.2,15.2,0,0,1,127.44,30.06Z"/>
            <path class="cls-10"
                  d="M113.18,50.86a4.14,4.14,0,0,1-4.09,4.9h6.85l.2-.13A15.34,15.34,0,0,1,113.18,50.86Z"/>
            <path class="cls-10"
                  d="M112.74,49.59a15.24,15.24,0,0,1-.6-4.25c0-.42,0-.84.06-1.25A4.19,4.19,0,0,1,109,45.55h-6.54a4.15,4.15,0,0,1-.46,0v1.82h7A4.2,4.2,0,0,1,112.74,49.59Z"/>
            <path class="cls-10"
                  d="M108.88,16.68H109a4.22,4.22,0,0,1,0,8.44H102.5a4.15,4.15,0,0,1-.46,0v1.87a4.15,4.15,0,0,1,.46,0H109a4.22,4.22,0,0,1,0,8.44H102.5a4.15,4.15,0,0,1-.46,0v1.87a4.16,4.16,0,0,1,.46,0H109a4.21,4.21,0,0,1,4,3,15.31,15.31,0,0,1,7.38-8.4V16.68H108.88Z"/>
            <path class="cls-10"
                  d="M113.24,51.55a4.21,4.21,0,0,0-.07-.69c-.16-.42-.31-.84-.43-1.27A4.2,4.2,0,0,0,109,47.33h-7v1.56a6.87,6.87,0,0,0,6.86,6.87h.19A4.22,4.22,0,0,0,113.24,51.55Z"/>
            <path class="cls-10"
                  d="M109,45.55a4.19,4.19,0,0,0,3.18-1.47,15.17,15.17,0,0,1,.86-3.93,4.21,4.21,0,0,0-4-3h-6.54a4.16,4.16,0,0,0-.46,0V45.5a4.15,4.15,0,0,0,.46,0Z"/>
            <path class="cls-10"
                  d="M109,35.33a4.22,4.22,0,0,0,0-8.44H102.5a4.15,4.15,0,0,0-.46,0v8.35a4.15,4.15,0,0,0,.46,0Z"/>
            <path class="cls-10"
                  d="M109,25.12a4.22,4.22,0,0,0,0-8.44h-.17A6.87,6.87,0,0,0,102,23.54v1.53a4.15,4.15,0,0,0,.46,0Z"/>
            <path class="cls-10" d="M129.08,55.77h-8.65v8.07l20.25-13.75a4.5,4.5,0,0,0,1.87-2.82h-.95Z"/>
            <path class="cls-10" d="M110.45,70.62l10-6.77V55.77h-4.5l-6.07,4.12a2.48,2.48,0,0,1,.6,1.61Z"/>
            <path class="cls-10"
                  d="M99.86,72.24a4.59,4.59,0,0,0,3.92,2l-1.5-2.17a2.4,2.4,0,0,1,.61-3.34l2.75-1.9L109,71.63l-2.7,1.83,4.2-2.85V61.49a2.48,2.48,0,0,0-.6-1.61l-8.77,6A4.61,4.61,0,0,0,99.86,72.24Z"/>
            <path class="cls-10" d="M104.73,74.12l-.25.06Z"/>
            <path class="cls-10" d="M105.52,73.86l-.23.09Z"/>
            <path class="cls-10" d="M129.08,55.77l12.52-8.5h-.87V37.93a15.2,15.2,0,0,0-20.3-6.17l0,24Z"/>
            <path class="cls-10"
                  d="M120.45,31.76a15.31,15.31,0,0,0-7.38,8.4,4,4,0,0,1-.86,3.93c0,.41-.06.83-.06,1.25a15.24,15.24,0,0,0,.6,4.25,4.15,4.15,0,0,1,.43,1.27,15.34,15.34,0,0,0,3,4.77l-.2.13h4.5Z"/>
            <path class="cls-10" d="M112.74,49.59c.13.43.27.86.43,1.27A4.15,4.15,0,0,0,112.74,49.59Z"/>
            <path class="cls-10"
                  d="M113.25,41.33a4.17,4.17,0,0,0-.19-1.18,15.17,15.17,0,0,0-.86,3.93A4.19,4.19,0,0,0,113.25,41.33Z"/>
            <rect class="cls-11" x="76.05" y="48.49" width="1.24" height="6.09"/>
            <path class="cls-11"
                  d="M72.73,50.39v2.29a1.9,1.9,0,0,0,1.9,1.91H76V48.49H74.64A1.9,1.9,0,0,0,72.73,50.39Z"/>
            <path class="cls-10"
                  d="M142.66,45.37h0c0,.24,0,.48,0,.72s0,.24,0,.35v0h0v.07h0a4.78,4.78,0,0,1-.1.71h10.17l0-26H142.27a6.84,6.84,0,0,1,.4,2.3Z"/>
            <path class="cls-10" d="M142.66,46.56v-.05s0,0,0,.05Z"/>
            <path class="cls-10" d="M140.74,37.93a15.29,15.29,0,0,1,1.92,7.43l0-21.8a6.84,6.84,0,0,0-.4-2.3h-1.52Z"/>
            <path class="cls-10" d="M142.55,47.27a4.78,4.78,0,0,0,.1-.71l-1,.71Z"/>
            <path class="cls-10" d="M142.66,46.49h0v0c0-.12,0-.24,0-.35s0-.48,0-.72h0v1.12Z"/>
            <path class="cls-10" d="M141.61,47.27l1-.71s0,0,0-.05V45.37a15.29,15.29,0,0,0-1.92-7.43v9.34Z"/>
            <path class="cls-11" d="M106.25,73.47a4.6,4.6,0,0,1-.73.39A4.53,4.53,0,0,0,106.25,73.47Z"/>
            <path class="cls-11" d="M103.78,74.25a4.66,4.66,0,0,0,.7-.07,4.59,4.59,0,0,1-.7.07Z"/>
            <path class="cls-11" d="M105.29,74a4.56,4.56,0,0,1-.56.17A4.54,4.54,0,0,0,105.29,74Z"/>
            <path class="cls-11"
                  d="M105.64,66.84l-2.75,1.9a2.4,2.4,0,0,0-.61,3.34l1.5,2.17a4.59,4.59,0,0,0,.7-.07l.25-.06a4.56,4.56,0,0,0,.56-.17l.23-.09a4.6,4.6,0,0,0,.73-.39l2.7-1.83Z"/>
            <path class="cls-10"
                  d="M76,102.06h1.24v6.1H76v1.18l26,0v-1.57a6.87,6.87,0,0,1,6.87-6.86H109l-33.12,0a.72.72,0,0,1,.14.41Z"/>
            <path class="cls-10"
                  d="M71.22,105.12a4.22,4.22,0,0,0,4.22,4.22H76v-1.18H74.6a1.9,1.9,0,0,1-1.9-1.9V104a1.91,1.91,0,0,1,1.91-1.9H76v-.75a.72.72,0,0,0-.14-.41h-.43A4.22,4.22,0,0,0,71.22,105.12Z"/>
            <path class="cls-10"
                  d="M140.69,118.8a15.21,15.21,0,0,1-20.3,6.14v14.53h15.35a6.86,6.86,0,0,0,6.25-4h-1.3Z"/>
            <path class="cls-10"
                  d="M113.21,105.15a4.2,4.2,0,0,1-.07.68,15.32,15.32,0,0,1,3-4.76l-.2-.13h-6.84A4.22,4.22,0,0,1,113.21,105.15Z"/>
            <path class="cls-10"
                  d="M109,109.36h-7v1.57h7a4.19,4.19,0,0,1,3.16,1.46c0-.34-.05-.68-.05-1a15.23,15.23,0,0,1,.61-4.25A4.2,4.2,0,0,1,109,109.36Z"/>
            <path class="cls-10"
                  d="M113,116.44a4.21,4.21,0,0,1-4,2.93h-7v1.57h7a4.22,4.22,0,0,1,0,8.44h-7V131h7a4.22,4.22,0,0,1,0,8.44H108c.26,0,.52,0,.79,0h11.54V124.95A15.31,15.31,0,0,1,113,116.44Z"/>
            <path class="cls-10"
                  d="M102,107.79v1.57h7a4.2,4.2,0,0,0,3.72-2.26c.13-.43.27-.86.44-1.28a4.14,4.14,0,0,0-4.08-4.9h-.19A6.87,6.87,0,0,0,102,107.79Z"/>
            <path class="cls-10" d="M140.64,106.64,120.4,92.86v8.07h8.65l12.51,8.52h.95A4.5,4.5,0,0,0,140.64,106.64Z"/>
            <path class="cls-10" d="M120.4,92.86l-10-6.79v8.55a2.49,2.49,0,0,1-.95,1.95l6.42,4.37h4.5Z"/>
            <path class="cls-10" d="M105.28,82.73l.23.09Z"/>
            <path class="cls-10"
                  d="M110.43,94.62V86.08l-1.49-1-3.32,4.79-2.75-1.9a2.4,2.4,0,0,1-.6-3.34l1.5-2.17a4.6,4.6,0,0,0-2.7,8.4l8.41,5.73A2.49,2.49,0,0,0,110.43,94.62Z"/>
            <path class="cls-10" d="M104.48,82.5l.25.06Z"/>
            <path class="cls-10" d="M141.56,109.46l-12.51-8.52H120.4l0,24a15.21,15.21,0,0,0,20.3-6.14v-9.34Z"/>
            <path class="cls-10"
                  d="M115.9,100.94l.2.13a15.32,15.32,0,0,0-3,4.76,4.16,4.16,0,0,1-.44,1.28,15.23,15.23,0,0,0-.61,4.25c0,.35,0,.69.05,1a4.06,4.06,0,0,1,.83,4.06,15.31,15.31,0,0,0,7.41,8.51l0-24Z"/>
            <path class="cls-10" d="M113.14,105.83c-.16.42-.31.84-.44,1.28A4.16,4.16,0,0,0,113.14,105.83Z"/>
            <rect class="cls-11" x="76.01" y="102.06" width="1.24" height="6.1"/>
            <path class="cls-11" d="M74.6,102.06a1.91,1.91,0,0,0-1.91,1.9v2.29a1.9,1.9,0,0,0,1.9,1.9H76v-6.1Z"/>
            <path class="cls-10"
                  d="M75.51,110.9a.73.73,0,0,1-.25,0h-.31a4.2,4.2,0,0,0-3.66,3.46h1.4V114a1.9,1.9,0,0,1,1.91-1.9h2.65v6.09H76v1.18l26,0v-8.44Z"/>
            <path class="cls-10"
                  d="M75.43,119.34H76v-1.18H74.59a1.9,1.9,0,0,1-1.9-1.9v-1.84h-1.4a4.16,4.16,0,0,0,4.15,4.93Z"/>
            <path class="cls-10" d="M75.51,110.9h-.06a4.17,4.17,0,0,0-.5,0h.31A.73.73,0,0,0,75.51,110.9Z"/>
            <path class="cls-10"
                  d="M109,110.93h-7v8.44h7a4.21,4.21,0,0,0,4-2.93,15.19,15.19,0,0,1-.83-4.06A4.19,4.19,0,0,0,109,110.93Z"/>
            <path class="cls-10" d="M112.15,112.39a15.19,15.19,0,0,0,.83,4.06,4.06,4.06,0,0,0-.83-4.06Z"/>
            <path class="cls-11"
                  d="M76,115.17v3h1.24v-6.09H74.59a1.9,1.9,0,0,0-1.91,1.9v.45h2.57A.75.75,0,0,1,76,115.17Z"/>
            <path class="cls-11" d="M74.59,118.16H76v-3a.75.75,0,0,0-.75-.75H72.69v1.84A1.9,1.9,0,0,0,74.59,118.16Z"/>
            <path class="cls-10"
                  d="M76,122.07h1.24v6.09H74.58a1.9,1.9,0,0,1-1.9-1.91v-1.45H71.24c0,.11,0,.21,0,.32a4.19,4.19,0,0,0,1.43,3.15h2.61A.75.75,0,0,1,76,129v.33l26,0v-8.44l-26,0Z"/>
            <path class="cls-10" d="M76,129.35V129a.75.75,0,0,0-.75-.75H72.64a4.19,4.19,0,0,0,2.79,1.08Z"/>
            <path class="cls-10" d="M72.68,124a1.9,1.9,0,0,1,1.91-1.9H76v-1.16h-.56a4.21,4.21,0,0,0-4.19,3.9h1.44Z"/>
            <path class="cls-10" d="M109,129.37a4.22,4.22,0,0,0,0-8.44h-7v8.44Z"/>
            <path class="cls-11"
                  d="M75.25,124.81H72.68v1.45a1.9,1.9,0,0,0,1.9,1.91h2.65v-6.09H76v2A.75.75,0,0,1,75.25,124.81Z"/>
            <path class="cls-11" d="M72.68,124v.83h2.57a.75.75,0,0,0,.75-.75v-2H74.59A1.9,1.9,0,0,0,72.68,124Z"/>
            <path class="cls-10"
                  d="M76,132.08h1.24v6.09H75.93a.74.74,0,0,1-.7.49H73a4.2,4.2,0,0,0,2.38.74l32.62,0c-3.42-.33-6.07-2.76-6.07-6.29V131l-26,0Z"/>
            <path class="cls-10"
                  d="M75.93,138.17H74.57a1.9,1.9,0,0,1-1.9-1.9V134a1.9,1.9,0,0,1,1.91-1.9H76V131h-.57a4.22,4.22,0,0,0-2.39,7.7h2.2A.74.74,0,0,0,75.93,138.17Z"/>
            <path class="cls-10"
                  d="M108,139.43H109a4.22,4.22,0,0,0,0-8.44h-7v2.16C102,136.67,104.62,139.1,108,139.43Z"/>
            <path class="cls-11" d="M75.93,138.17h1.29v-6.09H76v5.84A.74.74,0,0,1,75.93,138.17Z"/>
            <path class="cls-11"
                  d="M72.67,134v2.29a1.9,1.9,0,0,0,1.9,1.9h1.36a.74.74,0,0,0,.05-.25v-5.84H74.58A1.9,1.9,0,0,0,72.67,134Z"/>
            <path class="cls-10"
                  d="M142.51,109.47a4.78,4.78,0,0,1,.1.71h0v.07h0s0,0,0,0,0,.24,0,.35,0,.48,0,.72v0l0,21.23a6.83,6.83,0,0,1-.62,2.85h10.69l0-26Z"/>
            <path class="cls-10" d="M142.61,110.18h0v0Z"/>
            <path class="cls-10" d="M142.61,111.39a15.28,15.28,0,0,1-1.93,7.41v16.67H142a6.83,6.83,0,0,0,.62-2.85Z"/>
            <path class="cls-10" d="M142.61,111.37c0-.24,0-.48,0-.72s0-.24,0-.35,0,0,0,0h0v1.12Z"/>
            <path class="cls-10" d="M142.61,110.18a4.78,4.78,0,0,0-.1-.71h-.95Z"/>
            <path class="cls-10" d="M140.69,109.46v9.34a15.28,15.28,0,0,0,1.93-7.41v-1.21l-1-.71Z"/>
            <path class="cls-11" d="M105.51,82.82a4.6,4.6,0,0,1,.73.4A4.52,4.52,0,0,0,105.51,82.82Z"/>
            <path class="cls-11" d="M104.72,82.56a4.55,4.55,0,0,1,.56.17A4.54,4.54,0,0,0,104.72,82.56Z"/>
            <polygon class="cls-11" points="106.24 83.22 108.94 85.06 108.94 85.06 106.24 83.22"/>
            <path class="cls-11" d="M103.78,82.43h0a4.6,4.6,0,0,1,.7.07A4.67,4.67,0,0,0,103.78,82.43Z"/>
            <path class="cls-11"
                  d="M105.51,82.82l-.23-.09a4.55,4.55,0,0,0-.56-.17l-.25-.06a4.6,4.6,0,0,0-.7-.07l-1.5,2.17a2.4,2.4,0,0,0,.6,3.34l2.75,1.9,3.32-4.79-2.7-1.84A4.6,4.6,0,0,0,105.51,82.82Z"/>
            <path class="cls-2"
                  d="M160.12,32.77c0,5.6-2.47,9.16-3.34,14.52h-4v1.39h8.9l0-30.51h-8.89v3.11h6.87C159.9,24.43,160.12,29.55,160.12,32.77Z"/>
            <path class="cls-2" d="M156.77,47.28c.87-5.36,3.34-8.92,3.34-14.52,0-3.22-.22-8.34-.5-11.48h-6.87l0,26Z"/>
            <path class="cls-12"
                  d="M162.82,48.68h19.37V14.8h2.93v-.12l-23.47,0v3.51h1.2Zm6.55-30.42a3.1,3.1,0,1,1-3.1,3.1A3.1,3.1,0,0,1,169.37,18.26Z"/>
            <rect class="cls-12" x="161.63" y="18.17" width="1.2" height="30.51"/>
            <path class="cls-2"
                  d="M152.68,108.47v1h4c.87,5.36,3.32,8.92,3.32,14.52,0,3.22-.23,8.34-.52,11.48h-6.87V139h8.89l0-30.51Z"/>
            <path class="cls-2"
                  d="M160.05,124c0-5.6-2.46-9.17-3.32-14.52h-4l0,26h6.87C159.82,132.34,160.05,127.22,160.05,124Z"/>
            <path class="cls-12"
                  d="M173.42,108.48a3.52,3.52,0,0,1-1.46.29,7.38,7.38,0,0,1-1.91-.29h-7.28l0,30.51h-1.2v3.51l21.45,0v-34Zm-4.05,29.34a3.1,3.1,0,1,1,3.1-3.1A3.1,3.1,0,0,1,169.37,137.82Z"/>
            <rect class="cls-12" x="161.56" y="108.47" width="1.2" height="30.51"/>
            <polygon class="cls-12"
                     points="183 108.47 183 108.49 185.04 108.49 185.02 142.51 183 142.5 183 142.66 188.03 142.66 188.03 108.47 183 108.47"/>
            <polygon class="cls-12" points="185.04 108.49 183 108.49 183 142.5 185.02 142.51 185.04 108.49"/>
            <polygon class="cls-12"
                     points="182.19 48.7 182.19 48.73 188.03 48.73 188.03 14.8 185.11 14.8 185.09 48.7 182.19 48.7"/>
            <polygon class="cls-12" points="182.19 48.7 185.09 48.7 185.11 14.8 182.19 14.8 182.19 48.7"/>
            <circle class="cls-2" cx="169.37" cy="134.71" r="3.1"/>
            <circle class="cls-2" cx="169.37" cy="21.36" r="3.1"/>
        </g>
    </g>
</svg>