<svg xmlns="http://www.w3.org/2000/svg" viewBox="0 0 482.01 109.07"><defs><style>.cls-1{isolation:isolate;}.cls-2,.cls-3,.cls-9{fill:#00e9d0;}.cls-3{opacity:0.42;}.cls-4,.cls-5,.cls-7,.cls-8{fill:#4b86d0;}.cls-4{opacity:0.62;}.cls-4,.cls-5,.cls-6,.cls-8{mix-blend-mode:multiply;}.cls-8{opacity:0.52;}.cls-9{opacity:0.54;}</style></defs><title>TABLET-BUBBLES</title><g class="cls-1"><g id="Layer_2" data-name="Layer 2"><g id="Layer_1-2" data-name="Layer 1"><path class="cls-2" d="M237.33,28h-4.24l-3.28,1.89c0,.08,0,.16,0,.24s0,.16,0,.24l4.2,2.43a3,3,0,1,1-1.29,2.46c0-.08,0-.16,0-.24l-4.2-2.43a3,3,0,0,1-3.4,0L220.93,35c0,.08,0,.16,0,.24a3,3,0,0,1-1.71,2.7v4.85a3.11,3.11,0,0,1,.42.24l4.2-2.43c0-.08,0-.16,0-.24a3,3,0,1,1,6,0c0,.08,0,.16,0,.24L234,43a3,3,0,1,1-1.29,2.46c0-.08,0-.16,0-.24l-4.2-2.43a3,3,0,0,1-3.4,0l-4.2,2.43c0,.08,0,.16,0,.24a3,3,0,0,1-1.71,2.7V53a3,3,0,0,1,.42.24l4.2-2.43c0-.08,0-.16,0-.24a3,3,0,1,1,1.29,2.46l-4.2,2.43c0,.08,0,.16,0,.24a3,3,0,1,1-4.27-2.7V48.16a3,3,0,0,1-.42-.24l-4.2,2.43c0,.08,0,.16,0,.24a3,3,0,1,1-1.29-2.46l4.2-2.43c0-.08,0-.16,0-.24a3,3,0,0,1,1.71-2.7V37.91a3,3,0,0,1-1.71-2.7c0-.08,0-.16,0-.24l-4.2-2.43a2.93,2.93,0,0,1-.42.24v4.85a3,3,0,1,1-3,5.16l-4.2,2.43c0,.08,0,.16,0,.24A3,3,0,1,1,201.9,43l4.2-2.43c0-.08,0-.16,0-.24a3,3,0,0,1,1.71-2.7V32.79a3,3,0,0,1-1.71-2.7c0-.08,0-.16,0-.24L202.82,28h-1.34v4.56a3,3,0,1,1-2.56,0V28H174.69a5.8,5.8,0,0,0-5.78,5.78v39a5.8,5.8,0,0,0,5.78,5.78h2.39a11.11,11.11,0,0,1-5.77,6.83A10.85,10.85,0,0,0,186,78.55h51.34a5.8,5.8,0,0,0,5.78-5.78v-39A5.8,5.8,0,0,0,237.33,28Z"/><path class="cls-2" d="M212.07,30.09c0,.08,0,.16,0,.24l4.2,2.43a3,3,0,0,1,3.4,0l4.2-2.43c0-.08,0-.16,0-.24s0-.16,0-.24L220.57,28h-9.42A3,3,0,0,1,212.07,30.09Z"/><path class="cls-2" d="M85.19,5.69H32a4.93,4.93,0,0,0-4.91,4.91V43.76A4.93,4.93,0,0,0,32,48.67H71.66a9.21,9.21,0,0,0,12.46,5.8,9.44,9.44,0,0,1-4.9-5.8h6a4.93,4.93,0,0,0,4.91-4.91V10.6A4.93,4.93,0,0,0,85.19,5.69Z"/><path class="cls-3" d="M116.27,53.94H160.7a4.11,4.11,0,0,1,4.1,4.1V85.73a4.11,4.11,0,0,1-4.1,4.1H159a7.88,7.88,0,0,0,4.09,4.84,7.69,7.69,0,0,1-10.41-4.84H116.27a4.11,4.11,0,0,1-4.1-4.1V58A4.11,4.11,0,0,1,116.27,53.94Z"/><path class="cls-4" d="M82.73,25.69c-22,0-39.84,12-39.84,26.75,0,8,5.3,15.26,13.66,20.16a12.14,12.14,0,0,1-6.8,10.8,11.88,11.88,0,0,0,15.84-6.8,56.35,56.35,0,0,0,17.14,2.6c22,0,39.84-12,39.84-26.75S104.74,25.69,82.73,25.69Z"/><path class="cls-5" d="M462.89,31.64c-10.56,0-19.12,5.75-19.12,12.84,0,3.86,2.54,7.32,6.56,9.68a5.82,5.82,0,0,1-3.27,5.18,5.7,5.7,0,0,0,7.6-3.26,27,27,0,0,0,8.23,1.25c10.56,0,19.12-5.75,19.12-12.84S473.45,31.64,462.89,31.64Z"/><g class="cls-6"><path class="cls-2" d="M342.8,61.56a13,13,0,0,0,1-5C343.82,46.27,331.5,38,316.3,38,303.94,38,293.49,43.45,290,51c-10,1.1-17.78,8.45-17.78,17.36,0,9.67,9.13,17.51,20.4,17.51a23.54,23.54,0,0,0,5.66-.69c3.22,4.89,9.64,8.23,17,8.23,7.68,0,14.3-3.59,17.39-8.78A12,12,0,0,0,338,85.9a12.49,12.49,0,0,0,12.32-12.66A12.67,12.67,0,0,0,342.8,61.56Z"/><ellipse class="cls-2" cx="290.52" cy="95.06" rx="5.58" ry="3.77"/><ellipse class="cls-2" cx="296.67" cy="106.38" rx="3.66" ry="2.69"/></g><g class="cls-6"><path class="cls-7" d="M176,32.56a9.34,9.34,0,0,0,.86-3.88c0-7.3-8.77-13.23-19.58-13.23-8.79,0-16.23,3.92-18.7,9.31-7.13.79-12.65,6-12.65,12.35,0,6.88,6.5,12.46,14.51,12.46a16.75,16.75,0,0,0,4-.49c2.29,3.48,6.86,5.86,12.13,5.86s9.95-2.43,12.21-6a8.53,8.53,0,0,0,3.18.61,8.89,8.89,0,0,0,8.76-9A9,9,0,0,0,176,32.56Z"/><ellipse class="cls-7" cx="138.9" cy="56.09" rx="3.97" ry="2.68"/><ellipse class="cls-7" cx="143.28" cy="64.14" rx="2.6" ry="1.92"/></g><path class="cls-8" d="M353.67,11.83A24.42,24.42,0,0,0,338.2,55.31a8.92,8.92,0,0,1-4.88,6.59A8.73,8.73,0,0,0,344,58.78a24.5,24.5,0,1,0,9.68-46.95Z"/><path class="cls-5" d="M19,22.35A18.89,18.89,0,0,0,7.08,56a6.9,6.9,0,0,1-3.78,5.1,6.75,6.75,0,0,0,8.25-2.41A18.95,18.95,0,1,0,19,22.35Z"/><path class="cls-9" d="M428.72,73.38l-.23,0a2.62,2.62,0,0,1-2.62-2.62c0-.07,0-.14,0-.21l-3.68-2.13a2.62,2.62,0,0,1-3,0l-3.68,2.13c0,.07,0,.14,0,.21a2.62,2.62,0,0,1-1.5,2.36V77.4a2.74,2.74,0,0,1,.36.21l3.68-2.13c0-.07,0-.14,0-.21a2.62,2.62,0,1,1,5.24,0c0,.07,0,.14,0,.21L427,77.61a2.61,2.61,0,0,1,1.39-.46,4.61,4.61,0,0,0,.33-1.7Z"/><path class="cls-9" d="M427,68.63a2.61,2.61,0,0,1,1.49-.46l.23,0V64.4l-.23,0A2.61,2.61,0,0,1,427,64l-3.68,2.13c0,.07,0,.14,0,.21s0,.14,0,.21Z"/><path class="cls-9" d="M410.31,79.76a2.62,2.62,0,0,1,1.5-2.36V73.15a2.62,2.62,0,0,1-1.5-2.36c0-.07,0-.14,0-.21l-3.68-2.13a2.54,2.54,0,0,1-.36.21v4.25a2.62,2.62,0,1,1-2.61,4.52L400,79.55c0,.07,0,.14,0,.21a2.61,2.61,0,0,1,0,.34h10.13l.23-.14C410.31,79.9,410.31,79.84,410.31,79.76Z"/><path class="cls-9" d="M394.75,79.76a2.62,2.62,0,0,1,4.11-2.16l3.68-2.13c0-.07,0-.14,0-.21a2.62,2.62,0,0,1,1.5-2.36V68.65a2.62,2.62,0,0,1-1.5-2.36c0-.07,0-.14,0-.21L398.86,64a2.57,2.57,0,0,1-.36.21v4.25a2.62,2.62,0,1,1-2.25,0V64.16A2.62,2.62,0,1,1,400,61.8c0,.07,0,.14,0,.21l3.68,2.13a2.65,2.65,0,0,1,.36-.21V59.67a2.62,2.62,0,1,1,2.25,0v4.25a2.62,2.62,0,0,1,1.5,2.36c0,.07,0,.14,0,.21l3.68,2.13a2.62,2.62,0,0,1,3,0l3.68-2.13c0-.07,0-.14,0-.21s0-.14,0-.21L414.42,64a2.62,2.62,0,1,1-2.61-4.52V55.18a2.62,2.62,0,1,1,2.25,0v4.25a2.62,2.62,0,0,1,1.5,2.36c0,.07,0,.14,0,.21l3.68,2.13a2.62,2.62,0,0,1,3,0L425.88,62c0-.07,0-.14,0-.21s0-.14,0-.21l-3.68-2.13a2.62,2.62,0,1,1,1.13-2.16c0,.07,0,.14,0,.21L427,59.65a2.6,2.6,0,0,1,1.49-.46l.23,0V44a4.67,4.67,0,0,0-4.66-4.66h-50.5A4.68,4.68,0,0,0,368.9,44V75.45a4.68,4.68,0,0,0,4.66,4.66h1.93a9,9,0,0,1-4.65,5.5,8.74,8.74,0,0,0,11.83-5.5h12.12A2.57,2.57,0,0,1,394.75,79.76Z"/><path class="cls-9" d="M425.88,79.55l-3.68-2.13a2.61,2.61,0,0,1-3,0l-3.68,2.13c0,.07,0,.14,0,.21a2.61,2.61,0,0,1,0,.34h8.54a4.62,4.62,0,0,0,1.81-.37C425.87,79.68,425.87,79.62,425.88,79.55Z"/><path class="cls-5" d="M231.23,23.86A19.46,19.46,0,0,0,229.64,27l3.09-1.78c0-.08,0-.16,0-.24s0-.16,0-.24Z"/><path class="cls-5" d="M291.32,50c6.1-4.37,9.85-10.24,9.85-16.71,0-13.49-16.29-24.43-36.38-24.43-13.88,0-25.94,5.22-32.07,12.9l1.29.75a3,3,0,1,1,0,4.92l-4.2,2.43c0,.08,0,.16,0,.24s0,.16,0,.24l4.2,2.43a3,3,0,1,1-1.29,2.46c0-.08,0-.16,0-.24l-4.2-2.43-.09.05c0,.23,0,.46,0,.69a16.88,16.88,0,0,0,.9,5.38,3,3,0,0,1,.48,1.28c.12.28.24.56.37.84L234,43a3,3,0,1,1,2.22,5.4c6.66,5.67,17,9.31,28.56,9.31a50.22,50.22,0,0,0,18.81-3.52,10.84,10.84,0,0,0,13.9,4.95A11.09,11.09,0,0,1,291.32,50Z"/><g class="cls-6"><path class="cls-7" d="M446.12,15.43a8.42,8.42,0,0,0,.77-3.5C446.89,5.34,439,0,429.23,0c-7.93,0-14.64,3.53-16.87,8.4-6.44.71-11.41,5.43-11.41,11.14,0,6.21,5.86,11.24,13.09,11.24a15.11,15.11,0,0,0,3.63-.44c2.07,3.14,6.19,5.28,10.94,5.28s9-2.19,11-5.4a7.69,7.69,0,0,0,2.87.55,8,8,0,0,0,7.9-8.13A8.15,8.15,0,0,0,446.12,15.43Z"/><ellipse class="cls-7" cx="412.68" cy="36.66" rx="3.58" ry="2.42"/><ellipse class="cls-7" cx="416.63" cy="43.92" rx="2.35" ry="1.73"/></g></g></g></g></svg>