<svg xmlns="http://www.w3.org/2000/svg" viewBox="0 0 254.6 49.9" enable-background="new 0 0 254.6 49.9"><style type="text/css">.st0{fill:#FFFFFF;}</style><path class="st0" d="M0 2c.2-.1.1-.4.1-.4l.3-.3c.1 0 .1-.3.2-.4C.5.6.8.9.9.5c0-.1.1-.2.1-.3.2-.1.5-.1.9 0 .1.1.2.2.3.2-.1 0 0 0 .3-.1.1.1.1.1.3.1.2-.1.4-.1.6-.1-.1 0 .9 0 2.8-.1h1c.4.1.5.1.3.1h.4c0-.1.1-.1.2-.1h.6c.1 0 .4.1.9.2 0 0 .1-.1.5-.1h.2c.1-.1.3-.1.4-.1.5.1.5.6.7.6.4 0-.4-.5 1.1-.5.5-.1.8 0 .9.2l.2.2h.1v.1h.1l.6.3c.1 0 .2-.1.4-.1.2-.1.4-.1.4 0 .2 0-.2.2 1.7.7-.1.1-.1.4 0 .6l.5.7c.1 0 .1.1.2.5l.7.7.1 1.6-.1.1v1.3c.1.1.1.1.1.2-.1 0-.1.1-.1.1 0-.2.1.1.1 1v1.1c.1.1.1.3.1.4 0 .1 0 .3-.1.5v1c.1.2.1.4.1.5 0 .3-.1.8-.1 1.1 0 .3.2 1.1.2 1.3 0 .3-.1.7-.1 1 0 .4 0 .9.1 1.5-.1.8-.3 1.6-.6 2.7v.2c-.1.1-.1.3-.3.6l-.1.1v.1c-.1.2-.3.4-.5.6l-.8.8c-.5.1-.8.4-.9.6-.1.1.1.2.4.4.1.1.2.1.4.1 0 .1.1.2.4.5.2 0 .3.2.9.5.1.1.4.4.7.8l.1.3c.1 0 .1 0 .1.1v.2c.1 0 .1 0 .1.1.1.4.4 1.1.4 2.3-.1 3.4-.1 6.3 0 8.8v.4c.1.1.1.3.1.4 0 .1 0 .2-.1.3v2.9c0 .4 0 .8-.1 1.1v.2c.1 1 .1 1.5 0 1.6 0 .2-.1.4-.1 1-.1.2-.1.6-.6 1.6-.2.4-.4.9-1.5 1.8l-.2.2-.4.4h-.2v.1h-.1l-1.1.3c.1.1.1.1 0 .1h-.1c-.1 0-.1 0-.1.1l-.6.1c0 .1 0 .1-.1.1h-.1c-.1.1-.2.1-.4.1h-1.6c-.4 0-1.2.1-1.5.1-.1 0-.3 0-.4-.1H7.4c-.4.1-.6.1-.7.1-.1 0-.4 0-.7-.1H4.9c-.1.1-.1.1-.2.1s-.2 0-.3-.1H1.5c-.2 0-.6-.1-1-.2-.1-.1-.2-.6-.4-1.6v-2.5c-.1-2-.1-3.4-.1-4l.1-1.5c0-.2 0-.4-.1-.7-.1-.3-.1-.5 0-.7.1-.1.1-.4.1-.9.1-.7.1-1.5 0-2.3v-5l.1-.8v-1l-.1-.8c0-.2.1-.8.1-.8.1-1.1.1-2 0-2.8 0-.2-.1-.6-.1-.8 0-.2.1-.6.1-.8L0 19.1l.2-1.5c.1-.5.1-.9 0-1.3-.1-.1-.1-.4-.1-.7-.1-.8 0-2.7 0-3.5V7.9c0-.2.2-1.3 0-2.3 0-.4 0-1-.1-1.8V2.5m11.5 14c0-.1 0-.4.1-.8 0-.2 0-.6-.1-.9.1-.8.1-2.1 0-3.7 0-.1-.1-.2-.1-.3v-.3l.1-.4V7.6c-.1-.4-.1-.7-.1-.9.1-.2.1-.4.1-.5l-.1-.1c-.1-.4-.4-.7-.7-.8l-.4-.3c-.5 0-1.1 0-2-.1-.2-.1-.2-.1-.2-.3-.1 0-.1 0-.2-.1h-.2l-.3.1-.1.1c-.1.1-.3.1-.6.1-.1 0-.1-.1-.3-.2h-.6c-.1.2.1.5.3.5.1 0 .4-.1.8-.2.3.1.6.2 1 .4 0 .2-.1.6-.1.8 0 .1 0 .4.1.9v.6l.1.7-.2.3c.1-.1.1 0 .1.1v1.1l-.1.1c0 .1 0 .1.1.1 0 .6-.1 1.1-.3 1.3 0 .4 0 .9.1 1.6v.1c0 .2 0 .6.1.9-.1.1-.1.1-.1.3l.1.2c.1.1.1.2.1.4 0-.1 0 0-.1.2v.3s0 .2.1.6c0 .4-.1-.2 0 1.5 0 .1-.1.6-.1 1.2 0 .3 0 .7-.1 1.2-.1.2-.2.4-.2.6 0 .1 0 .2.1.3.1.1.2.1.5 0 .1 0 .1 0 .1-.1.2.1.6.1.9.1l.8.4c0-.2.1-.4.1-.6.1.1.2.1.5.1.1-.1.2-.2.6-.3v-.4l.5-2c0-.2.1-.5.1-.8-.2.1-.2-.1-.2-.6zm-.2 23.9c0-.2.1-.6.1-.8-.1-.2-.1-.5-.1-1-.1-.3-.1-.8 0-1.6 0-.1.1-.4.1-.4 0-.2-.1-.6-.1-.8 0-.4.1-1.3.1-1.6 0-.3-.1-1.1-.1-1.4.1-.1.1-.4.1-.6-.1-.6-.1-1.6-.1-2.8 0-.2.1-.5.1-.8l-.1-.8c0-.2.1-.6.1-.6l-.4-1.3-.2-.3-.1-.2c-.3-.2-.9-.4-1.6-.3l-.1.1c-.6.1-.9.1-.9.1-.1-.1-.3-.1-.5-.1 0 0-.1 0-.1-.1s0-.1-.1-.1c-.1-.1-.1-.2-.3-.1v.3c0 .3.6.2.6.4v.8l.1.1c0-.1 0-.1-.1.1.1-.1.1.3.1 1.3 0 .1 0 .6-.1 1.6v.7c.1.4.1.6.1.7 0 .3-.1 1.1-.1 1.4 0 .2 0 .7.1 1.6.1 2 .1 4.2-.1 6.3 0 .1 0 .4.1.7v1c-.1.2-.1.3-.1.4v1.2c0 .2-.1.5-.1.5 0 .1.3.3.3.4.4-.1.7-.2 1.1-.1.4.1.6.1.6.1l.8-.4c.1.1.3.1.4.1.2 0 .5 0 .5-.8l.1-.1V41.5c.1-.6.1-.8.1-.6 0-.1-.2-.4-.2-.5zM30 .4c.8.1 1.3.4 1.5.7.1.1.1.3 0 .5 0 0 .1.4.1 1l.1.1v.4l.1.5c-.1.5 0 1.2.2 2.8l.4 2.1c0 .3 0 .6.1 1.1.1.2.3 1.3.5 3.1 0-.2.1.1.2.9 0 .4 0 1 .1 1.9l.2.6v.5l.2.1v.3c.1.6.2 1.1.4 1.6l.4 1c.1.4 0 .6-.1.7-.1.1 0 .1.1.2 0 .2-.1.5-.2.7v.1h-.1l-.4.2c-.1.1-.3.3-.5.6l.3.1h.4c.2-.1.5 0 .9.1l.4.4c-.1.1-.1.3-.1.7.1.1.1.2.1.4-.2.1-.5.2-.8.4 0 .2.6.5.6.6.1.2.4.4.6.3.1-.1.1-.2.1-.4l-.1-.6c0-.2-.1-.5-.1-.9.1-.2.1-.4.1-.6l.1-.1h-.3c0-.1-.1-.2-.2-.4.2-.8.3-1.1.3-1.1.1-.1.1-.1-.1-.1v.1h-.2s-.1-.1-.1-.2v-.1l.1-.7c.1 0 .1 0 .2-.1-.1.1-.1-.1-.4-.8 0-.3.1-.9.1-1.2V17l.1-.2c.1-.9 0-1.8-.2-2.5v-1.5l.1-.1c.1-.4.1-.6 0-1v-.4c0-.1-.1-.4-.1-.6.1-.4.1-.9.1-1.4V9c0-.2-.1-.4-.1-.7v-.2c0-.2.2-1.2.2-1.6-.1-.1-.1-.2-.1-.4V5.2c.1-.7.1-1.3 0-1.8 0-.3-.1-.6-.1-1.1 0-.4.1-.6.5-.7 0-.1 0-.1-.1-.1-.1-.2-.1-.4-.1-.6l.2-.4c.8-.1 1.8-.1 3.2-.4H40l.4.2h.1c.1.1.3.4.4.8v.3l.1.1c.1.2.1.4 0 .8-.1 1.5-.2 2.3-.2 2.4V5c.1.8.1 1.3.1 1.5 0 .1-.1.4-.1 1v.4h-.1v.5l.1.1.1 3.6c.1.1.1.1.1.2s0 .5-.1 1v.7c-.1.4-.1.7-.1.9v3c.2.1.2.2.2.1-.1.8-.1 2 0 3.5l.2 1c0 .1-.1.6-.2 1.3v.2c-.1 1.1-.1 1.5-.1 1.1 0 .1 0 .1.1.2v.8l.1.1-.1 1.1c.1 0 .1 0 .1.1v1.4c0 .1 0 .1-.1.3l.1.1c.1.3.1.5 0 .6-.2.6-.2 1.2-.1 1.6v.3c.1.1.1.1.1.3.1.2 0 .8-.1 1.6-.1.3-.1 1.4-.1 3.2v2.7c0 .2-.1.7-.1.9 0 .1 0 .1.1.2v.4c0 .1 0 .4-.1.7v1.2c0 .5-.1 1.1-.2 1.6 0 .2.2.3.2.4-.1-.2-.1.5-.1 2.1 0 .5 0 1.1-.1 1.6.1.1.1.4 0 .6-.2.1-.3.1-.3.4-.4.2-.8.3-1.1.3-.3.1-.7.1-1.2 0l-2.6-.2s-.4-.3-.6-.3c-.4 0-.4.1-1.2.4-.3.1-.5.1-.6 0l-.4-.3c-.1 0-.1-.1-.2-.2l-.4-4.7c-.1-.1-.1-.4-.1-.7.1-.1.1-.4.1-.8l-.2-.4-.2-2-.2-.6v-.2l-.4-1.3c0-.1-.1-.1-.1-.2 0-1.5-.1-1.5-.2-1.6.1 0 .1 0 .1-.1-.1-.4 0-.8.1-1.3.1 0 .3-.1.5-.1v-.2c-.4-.1-.1-.4-.4-.6-.1-.1-.1-.1-.1 0-.4-.2-.5-.8-.6-1.7 0-.2-.1-.4-.1-.7l-.2-.4-.1-.4v-.1c-.1-.5-.2-1.1-.2-1.6.1-.3.3-.6.4-1.1l-.1-.4c.1-.1 0-.2-.1-.3.1-.4-.1-1-.7-1.6v-.1H29c0-.1 0-.1-.1-.2l-.2-.4c.1-.4 0-1-.2-1.6v-.3l-.1-.1c-.2-.6-.5-1-.9-.9l-.1.3c-.1.1 0 .2.2.4 0 0 .2.3.6.8v1.7l-.2.4c-.5 1-.8 1.5-.8 1.6.2.6.3 1 .3 1.1-.1 0-.1 0-.1.1-.1.2-.1.4-.1.5 0 .1.1.2.1.3l.2 2.8v.4l-.2 1.1c0-.3 0-.1.1.4v.5l.1.3c-.1.2-.1.4-.1.8 0 .1 0 .1.1.1v.2c.1.4.2.7.1 1 0 .1-.1.2-.1.4v.2c0 .4.1 1.3.1 2.9 0 .1-.1.6-.1 1.3.1.5 0 1.2-.1 2.3-.1.1 0 .4.1.8-.1.5-.1 1.3 0 2.3.1.8.1 1.3 0 1.6-.4.4-1 .5-1.6.5-.3 0-.9-.1-2-.2 0-.1-.1-.1-.1-.1 0 .1-.4.2-.8.5-.6.1-.9 0-1.1-.1v-.9c.1-.1.1-.1.1-.2l.1-.2c.1-.3.2-.6.4-.9v-.3c-.1-.6-.1-1-.1-1.3 0-.1.1-.1.1-.1s0-.1-.1-.2c0-.1 0-.2.1-.4-.1-.1-.1-.2-.1-.3.1-.1.1-.3.2-.6-.1-.2-.3-.6-.4-1.1.1-.1.1-.3.1-.6v-.6c-.1-.5-.1-.7-.1-.8.1-.1.3-.4.4-1.1 0-.3-.3-2.4-.2-4.8.1-1.2.1-1.7.1-1.6 0-.1-.1-.4-.1-.9V32.3l.1-.1c.1-.5.1-.9 0-1.1h-.1v-.4c-.1-.3-.1-.6.1-.9l.3-.3v-.4c-.2-.8-.3-1.3-.3-1.5l.1-.1c.1-.1.1-.2 0-.6 0 0-.1-.1 0-.1 0-.1 0-.1-.1-.1-.1-.1-.1-.3 0-.7 0-.1 0-.1.1-.1 0-.1 0-.3-.1-.5v-.5c0-.2 0-.6.1-1.1.1-.5.1-.9 0-1.1v-.2c-.1-.5 0-1.1.2-1.8-.2-.1-.3-.6-.3-1.2 0-.1.1-.2.1-.3.1-.3-.4-.3-.3-.6 0-.2.5-.4.4-.7-.2-.1-.3-.2-.3-.4-.1-.2.2-.6.2-.7-.1-.1-.2-.2-.1-.4.1-.1.1-.7 0-1.6v-1.6c.1-.8.1-1.1.1-.8-.1-.1-.1-.2-.1-.4v-1.1c-.1-.1-.1-.2-.1-.4s.1-.8.3-1.7c0-.1 0-.2.1-.3h.1c.1-.2.1-.4 0-.7-.1-.4-.2-.6-.1-.7-.1 0-.2-.3-.3-.4-.1-.3-.1-.6 0-.9.2-.5.3-.8.3-.8-.1-.2-.2-.6-.3-.9 0-.1.1-.3.2-.6v-.8s0-.3.2-1.2c.3-.1.9-.2 1.7-.3.4 0 .6.1.7.2.1.1.1.1.1-.1l.3-.1c.1 0 .4 0 .7.1.4.1.6 0 .9-.1.1-.2.4-.5.8-.8H30zM63.2 49.6H57.4c0-.1 0-.1-.1-.1-.1.1-.1.1-.3.1-.1-.1-.2-.1-.3-.1-.2-.1-.4-.6-.6-1.7 0-.1-.1-.2-.1-.6l.1-.8c-.1-.2-.1-.6-.4-.9l-.3-2V43c-.1-.1-.1-.3-.1-.5-.1 0-.2-.6-.2-.6v-.1l.1-.1-.2-.1c-.1-1.1-.3-2.1-.4-2.7-.1-.1-.1-.4-.1-.7v-1.1l-.4-1c0-.1-.1-.4-.2-1v-.7l-.4-1.3-.3-2.1c-.1-.2-.1-.4-.1-.6-.1-.1-.1-.3-.2-.5 0-.1 0-.3-.1-.5-.1-.6-.1-.9 0-1.1l.1-.1c-.1-.1-.1-.1-.1-.4 0-.1 0-.1.1-.1.1-.2.1-.4.1-.4 0 .1-.1 0-.3-.4 0-.1-.1-.2-.1-.4 0-.1 0-.1-.1-.1.1-.2.1-.6.1-1 0-.1 0-.2-.1-.4v-.1c-.1-.1 0-.5.1-1.2.1-.3.1-.5-.1-.6-.3 0-.4.1-.4.5v.8l-.1 1.1v1.6c0 .3.3.4.4.8 0 .1 0 .4-.1 1.1v.8l.1.1v.1l-.1.1c0 .9.1 1.6.2 1.9 0 .2-.1.7-.1 1 0 .2.1.5.1.6l-.1.1.1.1c.1 1.2 0 2-.2 2.4.2.4.3 1 .2 1.7 0 0-.1.1 0 .1v.6c.1.5.1.9 0 1.1 0 0 0 .1-.1.4-.1.6-.1 1.1.1 1.2v.9l-.2 1.5c.1.1.1.6.1 1.3.1.6.1 1.8 0 3.4v.1c0 .1-.1.4-.1.9-.2.1-.6.2-1.1.3l-.1-.1c.1.1 0 .1-.3.1-.1-.1-.3-.1-.6-.1l-1.1.2-1.3-.4-1.8.2c0-.1-.1-.1-.2-.2l-.1-.1V49c-.1-.1-.2-.4-.3-1.1 0-.2 0-.4-.1-.6h-.1l.1-.5c0-2.6 0-4.5.1-5.5l.1-.8V30.3l.1-3.1-.1-.8c-.1-.8.1-2.3.1-2.8 0-.1 0-.5-.1-1.1-.1-.4-.1-.8 0-1.1 0-.1.1-.4.1-.8 0-.2 0-.7-.1-1.6v-1.6c-.1-.3-.1-1.1-.1-2.3 0-.1 0-.2-.1-.4v-.4c0-.4.1-1.3.1-1.7V12c-.1-.4-.1-.6-.1-.9V7.4c.1-.8.1-1.3 0-1.8V2.3c-.1-.1-.1-.3-.1-.5.1-.1.1-.2.1-.1-.1 0-.1 0-.1-.1-.1-.8.2-1.3 1.1-1.3h2.8c.5-.1 1.2-.1 2.2 0 .1 0 .4 0 .6.1l.1.1.5.3.2 1.1V2c.1.1.1.2.1.4.1.3 0 .6-.1.9l-.1.6c-.1 1.1.1 1.1.1 2.6v.6c-.1.3-.1.5-.1.6.1.1.1.2.1.1 0 .1 0 .1-.1.1l.2.8v.4c-.1.2-.1.4-.1.5l-.2 5.5c0 .1-.1.6-.1 1.2l-.2.5s-.1.1-.1.4l.1.6c0 .1-.1.4-.3.6V19.3c0 .1.1.4.1.6 0 .1 0 .3-.1.5s-.1.4 0 .5c.1.1.1.2.3.3.1.1.4-.1.6-.6v-.3l-.2-1.2c0-.4.1-.8.5-1.3-.1 0-.1-.1-.1-.2 0 0 0-.1-.1-.1v-.1l.2-3.6c.1-.1.1-.4.2-.7l.1-.4v-.2c.1-.1.1-.4.3-1.1v-.2c.3-.2.3-.4.3-.6.1 0 .1 0 .1-.1-.1-.1-.1-.2 0-.4 0 0 0-.1.1-.1v-.2c.1 0 .1 0 .1-.1.1-.6.2-1.3.3-2.1.2 0 .3-.6.4-1.6v-.2c.1 0 .1-.1.1-.8h.1c0-.4 0-.8.1-1.4 0 0 .1-.2.1-.6.2 0 .2 0 .2-.1v-.2c.1-.5.2-1.1.6-2l.4-.4h1.3c.2-.1.5-.1.9-.1-.5 0-.2 0 .8.1.9.1 1.7.1 2.6.1l.3.2.2.4v.1c.1.1 0 .6-.1 1.3 0 .3 0 .7-.1 1.2l-.4 1c.1.1.1.4.1.7l-.4 1.8c-.1.1-.1.4-.1.6v1.1c-.1.1-.1.3-.2.6v.4c-.1.1-.1.1-.1.2v1.1c-.1.5-.4 1.3-.6 2.3-.4.1-.6.1-.7.1.1 2 .1 3.2 0 3.6l-.1.1c0 .2-.1.6-.2 1.1v.4c0 .1-.1.5-.2 1.1 0 .1-.1.3-.1.5-.1.4-.3 1-.4 1.9 0 .1.1.4.4 1 .1.1.2.6.3 1.6.1.1.1.5.1 1l.2.4v.6l.4 1.1v1.3c.1.3.2.7.3 1.2 0 .2 0 .5.1.9.1 0 .1 0 .1.1s0 .1-.1.1c.1.1.1.4.1.7v.2l.1.3.4 1.8c0 .2 0 .6.1 1.3v.2c.1.1.1.4.1.6v.6c.1.2.2.5.3.9 0 .1.1.5.3 1.1.1.1.1.4.1.4 0 .4.1 1.1.2 2l.1.2v.2l.1 1.1.4 1.5c0 .2 0 .5.1.9 0 .1.1.6.3 1.2 0 .1 0 .1.1.2l.1.1c-.1.1-.1.3-.1.5.4.6.5 1.1.5 1.3-.2.5-.5.8-1 .8zM68.4 41.5s.1.1.3.2l.2.1c0 .2.1.6.1.8l-.1.5v.3c0 .3.2.4.4.5h.3l.2.1c.1 0 .5-.1.6-.1H71.3c.1 0 .5-.1.6-.1l.6.1 1-.1c.1 0 .2 0 .4.1H77.6c.2 0 .3-.1.2-.1l.5.2H78.9c.1-.1.2-.1.4-.2.1 0 .3.1.5.1l.6-.1c.2 0 .3.1.5.1.1 0 .3-.1.4-.1-.1 0 .1 0 .3.1h.2c.3 0 .7 0 1.3-.1.3 0 .6-.1.7-.1H85l.4.1c.1 0 .2 0 .4.1 0 .1.1.3 0 .5l.1.8v.2c0 .1-.1.2-.1.4 0 .1.1.4.1.5 0 .1 0 .2-.1.4v.3c-.1.2-.2.2-.4.3H83.8c-.2 0-.2-.1-.2-.1-.1 0-.2.1-.4.1-.1 0-.2 0-.3-.1H81.6c-.2-.1-.4-.1-.5-.1 0 0-.2.1-.6.1h-1.1l-.3-.1h-.8c-.1 0-.1 0-.3.1h-.8l-.1-.1H77c-.1 0-.1 0-.2-.1-.1 0-.3.1-.6.1h-2l-.2.1-.6-.1H73c-.2 0-.3.1-.5.1h-2c-.1 0-.2 0-.3.1l-.1-.1H70c-.1 0-.2 0-.3.1H69c-.1 0-.1.1-.2.3v1.6l-.1.1c-.1 0-.1.1-.2.3-.1 0-.2 0-.4.1 0 0-.1.1-.2.1 0 0-.1 0-.2-.1l-.3-.1-.1-.1h-.1v-.1h-.1l-.2-.2V45.7s0-.1-.1-.6v-.8l.1-.5v-1.7c0-.1.1-.2.2-.4.1 0 .2-.1.3-.2h.3s.1 0 .1.1l.6-.1zM68.4 18.8s.1.1.3.2l.2.1c0 .2.1.6.1.8l-.1.5v.3c0 .3.2.4.4.5h.3l.2.1c.1 0 .5-.1.6-.1H71.3c.1 0 .5-.1.6-.1l.6.1 1-.1c.1 0 .2 0 .4.1H77.6c.2 0 .3-.1.2-.1l.5.2H78.9c.1-.1.2-.1.4-.2.1 0 .3.1.5.1l.6-.1c.2 0 .3.1.5.1.1 0 .3-.1.4-.1-.1 0 .1 0 .3.1h.2c.3 0 .7 0 1.3-.1.3 0 .6-.1.7-.1H85l.4.1c.1 0 .2 0 .4.1 0 .1.1.3 0 .5l.1.8v.2c0 .1-.1.2-.1.4 0 .1.1.4.1.5 0 .1 0 .2-.1.4v.3c-.1.2-.2.2-.4.3H83.8c-.2 0-.2-.1-.2-.1-.1 0-.2.1-.4.1-.1 0-.2 0-.3-.1H81.6c-.2-.1-.4-.1-.5-.1 0 0-.2.1-.6.1h-1.1l-.3-.1h-.8c-.1 0-.1 0-.3.1h-.8l-.1-.1H77c-.1 0-.1 0-.2-.1-.1 0-.3.1-.6.1h-2l-.2.1-.6-.1H73c-.2 0-.3.1-.5.1h-2c-.1 0-.2 0-.3.1l-.1-.1H70c-.1 0-.2 0-.3.1H69c-.1 0-.1.1-.2.3v1.6l-.1.1c-.1 0-.1.1-.2.3-.1 0-.2 0-.4.1 0 0-.1.1-.2.1 0 0-.1 0-.2-.1l-.3-.1-.1-.1h-.1v-.1h-.1l-.2-.2V23s0-.1-.1-.6v-.8l.1-.5v-1.7c0-.1.1-.2.2-.4.1 0 .2-.1.3-.2h.3s.1 0 .1.1l.6-.1zM67.7 49.4h.6c-.1-.1-.5-.2-.5-.2-.1 0-.1.1-.1.2zM68.2 48.4c0 .2.1.3.2.6 0-.1.1-.3.1-.5-.1-.1-.2-.1-.3-.1 0-.1 0-.1 0 0zM67.5 48.4v.1c.1 0 .2.1.2.1v-.2h-.2zM67.8 48.2V48c0-.1 0-.1-.1-.1 0 .2.1.2.1.3zM68.3 47.6v.1h.1c0-.1.1-.2.3-.3 0-.1 0-.1-.1-.1h-.2c0 .2 0 .3-.1.3zM67.6 47.2c0 .3-.1.5-.1.4 0 0 .1.1.2.1 0-.2.1-.5.1-.6v-.2s.1-.2.1-.3l-.1-.1c-.1.2-.2.4-.2.7zM68.2 47.4c.1 0 .1 0 .1-.1l-.1-.1s0-.1-.1-.2l.1.4zM69.5 46.5c0 .1-.1.3-.1.4 0 .2 0 .3.1.3v-.3c0-.1.1-.4.1-.4h-.1zM78.7 46.5c-.1.1-.2.3-.2.5h-.2v.2c.1 0 .3-.3.3-.3v-.2c.1-.1.2-.1.2-.1 0-.1 0-.1-.1-.1 0 0-.1 0-.1.1l.1-.1zM76.7 47.1h.2s0-.1-.1-.1l-.1.1zM75.7 47.1c.1 0 .2 0 .5-.1v-.2c.1 0 0 0-.1-.1-.1.2-.3.3-.4.4zM74.5 47.1s0-.1.1-.2c0 0-.1-.1-.2-.1l-.1-.1h-.1c.1.1.2.4.3.4zM70.9 46.9s-.2 0-.4.1l-.2-.1c0 .1.1.2.3.2.2 0 .4 0 .6-.1s0 0 .1 0h.2c-.1 0-.1-.1-.1-.2-.3-.1-.4 0-.5.1zM68.7 46.9c-.1 0-.1 0-.1.1 0 0 .1.1.1 0v-.1zM71.6 47h.3s-.1-.1-.2-.1l-.1.1zM83.8 46.5c0 .4-.1.3-.3.4 0 0 .1-.1.4-.2l.1.1h.2c.1.1.2.2.4.2 0-.1.3-.3.3-.3l-.2-.1-.2.1c-.1-.1-.3-.2-.3-.2-.1 0-.1 0-.2.1l-.2-.1zM75.1 46.7c-.1 0-.1 0-.1.1l.2.1v.1c.1 0 .1-.1.2-.2 0 0 0-.1-.1-.2-.1.1-.2.1-.2.1zM79.3 47s0-.1.1-.1c0-.1 0-.1-.1-.1v.2zM85 46.9s0 .1.1.1v-.1H85zM79.9 46.9c0 .1 0 .1 0 0 .1.1.2 0 .2-.1-.1 0-.1 0-.2.1zM83 47c.1 0 .2 0 .2-.1-.1-.1-.2-.1-.2-.1v.2zM77.9 46.3c-.1 0-.1.1 0 0l-.1.2v.1c-.2.1-.3.1-.3.1v.2c.1 0 .2.1.3 0h.6c-.1 0-.2 0-.3-.1H78l-.1-.1v-.4zM82 46.9c0 .1 0 .1 0 0 .1 0 .1 0 .1-.1"/><path class="st0" d="M69.9 47c.1-.2.1-.3.1-.3-.1 0-.2-.1-.3-.1 0 0-.1 0-.1.1.1-.1.3.3.3.3zM72.4 46.8c0 .1.1.2.2.2s.2-.1.2-.2-.1-.1-.2-.1-.2 0-.2.1c0-.1 0 0 0 0zM80.2 46.9c.1 0 .3 0 .4-.1 0-.1 0-.2-.1-.2-.2 0-.3.4-.3.3zM69.1 46.7c-.1 0-.2 0-.2.1s.1.1.2.2v-.3zM77 46.5s.1.1.3.2c0-.2 0-.3-.1-.3s-.1 0-.2.1zM75.9 46.1c0-.1 0-.1-.1-.1s-.1 0-.1.1h.2zM68.2 46.5s0-.1 0 0c0-.1 0 .1 0 0zM68.7 46.5l-.1-.1s0 .1.1.1zM72.1 46.1c-.1 0-.1 0 0 0l-.1.1c0 .1 0 .2.1.3.1 0 .2-.2.2-.5-.1 0-.2.1-.2.1zM74.4 45.5c-.2 0-.3.1-.2.3l-.1.2c0 .1 0 .3.1.4l.1-.1v-.2c.2-.1.2 0 .3-.3l-.2-.3zM73.5 46.2c0 .2.1.2.2.2v-.2h-.2zM70.5 46.3l.2.2c0-.1.1-.1.1-.2-.2-.1-.3-.1-.3 0zM80.1 46.1l-.3.3.3-.3c.2-.1 0-.3-.1-.2.1.1.1.1.1.2zM76.4 45.9c-.1 0-.2.1-.2.1.1.3.2.4.5.3.1-.1.1-.2.1-.4 0 .1 0 .1-.1.1-.2-.1-.2-.1-.3-.3v.2zM75.2 46.3c.1 0 .1-.1.1-.2s-.1-.2-.1-.2c-.1.3-.1.4 0 .4zM70.3 45.8H70v.5c.1 0 .1 0 .2-.1l.1-.4zM85 46.1c0 .1 0 .1.1.2v-.4c-.1 0-.1.1-.1.2zM81.5 46.3c.2 0 .3 0 .3-.1-.2 0-.3 0-.3.1zM83.6 46.3s.1 0 .1-.1 0-.2-.1-.2v.3zM71.4 45.8h-.2c0 .1.1.3.1.4h.3c-.1 0-.1-.1-.1-.2l-.1-.2zM84.2 46.2c.3 0 .4-.2.3-.4 0-.1-.1-.1-.2-.1 0 .1-.1.2-.1.5zM68.9 45.8l.1.3c.2 0 .3-.1.3-.2l-.2-.2s0-.1-.1 0c0 0-.1 0-.1.1zM78.7 46.1v-.2h-.1c.1.1.1.2.1.2zM78.1 45.7c.1.1.1.2.1.2l.1-.4s-.1 0-.2-.1c.1.1.1.2 0 .3zM81.1 46h.1s0-.1-.1-.1v.1zM75.6 45.8c.1 0 .2 0 .4.1v-.3c-.1-.1-.2-.1-.4-.2v.4zM82.5 45.8c.1 0 .2 0 .2-.1h-.3c.1 0 .1.1.1.1zM77.6 45.7h.1v.1h-.1zM68.6 45.5c0 .1.1.1.2.2 0-.2 0-.3-.1-.3s-.1.1-.1.1zM69.4 45.5c.1 0 .2.1.3.2v-.1h.1v-.1s.1 0 .1-.1c-.1-.1-.2-.1-.3-.1-.1 0-.1 0-.2.1v.1zM80.3 45.6c0 .1 0 .1.1.1 0 0 .1-.1.1-.2s0-.1-.1-.1c-.1.1-.1.1-.1.2zM71.5 45.5h.2-.2zM75.3 45.1c0 .3.1.4.2.4v-.4h-.2zM73.4 45.2v.2s-.1 0 0 .1c.1 0 .1.1.2 0 0 0-.1-.2-.1-.4-.1 0-.1 0-.1.1zM84.9 45.1h-.1c-.1.2-.1.3-.1.4.1 0 .1-.2.3-.4h-.1zM70.6 44.9s0 .1-.1.1c0 .1.1.3.1.3H70.9h-.1l-.1-.1v-.4h-.1zM83.8 45c-.1 0-.1.1-.1.2v.1c.1.1.1.1.2.1s.1-.1.1-.3c0-.1-.1-.1-.2-.1zM67.7 44.9v.4c.1 0 .1-.1.1-.3l-.1-.1zM77.7 45.3h.2v-.4l-.2.4zM72 45.2c.1 0 .1 0 .1-.1s-.1-.1-.1-.2v.3zM77.1 44.9s-.1 0-.1.1v.2l.2-.2-.1-.1c.1 0 .1-.1.1-.2l-.1.2zM76.5 45l.1.2s.1-.1.1-.2h-.2zM81.3 45.1c.1 0 .1 0 0 0 .1.1.1 0 .2 0-.1-.1-.2-.1-.2 0zM74.5 44.9l.2.1c0-.2 0-.2.1-.1-.1 0-.2-.1-.2-.1l-.1.1zM79.6 45.1l-.1-.1.1.1zM78.5 44.9c.1.1.2.1.3.1v-.3h-.2l-.1.2zM85 44.8s0 .2.1.2c0 0 .1-.2.1-.3-.2-.1-.2 0-.2.1zM82.2 44.9s.1 0 0 0c0-.1 0-.1 0 0zM84.5 44.6c-.1 0-.2 0-.2.1h.1l.1-.1zM68.4 44.6c.1 0 .2-.1.2-.2l-.2-.2c-.1 0-.1.1 0 .4zM67.9 43.7s-.1 0-.2.1c0 0-.1.1-.1.2v.1c.1.1.2.2.4.1 0 0 0-.1.1-.1 0-.1 0-.2-.1-.2l-.1-.2zM68.6 43.1h-.2c0 .2.2.4.3.3v-.9c-.1.2-.2.3-.1.6zM67.5 43.4c.1 0 .1 0 0 0 .1-.2 0-.2 0-.2v.2zM67.5 42.6s.1.1 0 0c.1 0 .1-.1 0 0l.1-.1s-.1 0-.1.1zM74.2 41l.1.1c.1 0 .1 0 .2-.1 0 0-.1-.1-.2-.1s-.1.1-.1.1zM73.8 41.1c.1-.1.1-.1 0 0 0-.1 0-.1 0 0zM80.1 41.1c.1 0 .1 0 .1-.1v-.1c-.1 0-.1.1-.1.2zM81.1 40.4c-.1 0-.1 0-.2.1v.2l-.3.2v.1s.1.1.2.1h.1c.1 0 .1 0 .2-.1-.1 0-.1 0-.1-.1l.1-.5zM70.5 40.9c.1 0 .2.1.2.1.1 0 .1-.1.1-.3 0-.1 0-.1-.1-.2-.1.1-.2.3-.2.4zM77.2 40.7c0 .1 0 .2.1.2 0 0 0-.1.1 0v-.3c-.2-.1-.2 0-.2.1zM71.5 40.6l.1.2h.4c0-.4-.1-.3-.4-.4 0 .1-.1.2-.1.2zM71.1 40.9c.1-.1.1-.1 0 0zM83.2 40.8v.1h.2c0-.1 0-.2-.1-.3l-.1.2zM72.3 40.7v.1c-.1 0-.1 0-.1.1.1 0 .2 0 .3-.1 0 0 .1-.1.1-.2 0 0-.1-.1-.2-.1-.1.1-.1.1-.1.2zM78.5 40.8h.1c.1 0 .2-.1.2-.1-.2-.1-.3 0-.3.1zM83.6 40.7c0 .1 0 .1 0 0v.1-.1zM75.6 40.5c.2 0 .3.1.3.3h.2s.1-.1.1-.3c-.1 0-.2 0-.3-.1-.2-.1-.2 0-.3.1zM77.5 40.7c.2.1.3 0 .3-.1 0 0 0-.1-.1-.2l-.2.3zM74.7 40.4v.3c.1 0 .2-.2.2-.2h.5c-.1-.1-.2-.1-.3-.2-.1.1-.3.1-.4.1zM79.1 40.5H79c.1 0 .1.1.1.1v-.1s-.1 0 0 0zM69.7 40.4l-.1.1c.1.1.1.1.3.2v-.2l-.2-.1zM72.7 40.6h.1c0-.1-.1-.1-.1 0zM73.9 40.5s0-.1-.1-.1-.1 0-.1.1h.2zM74.3 40.4c0 .1 0 0 0 0zM79.3 39.9s0 .1-.1.1l.1.5c.1 0 .2 0 .2-.1l-.1-.2v-.1l-.1-.2zM69 40.1h-.2c0 .2.1.3.2.2 0 0 .1-.1 0-.2zM84.3 40.4c.1-.2 0-.2-.1-.2l.1.2zM76.4 40.3l.2-.1c.1 0 .1 0 .1-.1h-.3V40h-.1v.3zM74.1 40l.2.2c.1 0 .3-.2.3-.3-.1 0-.2 0-.4-.1-.1.1-.1.2-.1.2zM71.7 40.2s0-.1 0 0c.1-.1.1-.1.1-.2-.1-.1-.1 0-.1.2zM82.5 40c.1 0 .1 0 0 0 0 .1.1.2.1.2V40h-.1c0-.1 0-.1 0 0zM73.1 40s-.1 0 0 0l.1.1H73.5c.1 0 .4-.1.4-.1-.2 0-.4 0-.6-.1l-.2.1zM69.6 39.8s-.1.1-.1.2c.1.1.2 0 .2-.1l-.1-.1zM76.7 32.7h.5c.4.1.7.1 1 0H82.8s.1 0 .2.1h.1s.1 0 .1.1c0 0 .1 0 .2.1l.3.1h.1c.2 0 .2 0 .8.6 0 .1.1.1.2.2l.5.9v.2s0 .1.1.2c.1.6.2 1.2.2 1.7 0 .2 0 .4-.1.8v.2l-.1.8c0 .2 0 .3-.1.3l-.1.1v.1l-.1.2v.2H85v.2l-.1.1-.1.1c0 .1-.4.6-.6.8h-.1l-.1.1H83.7v.1h.3c-.1.1-.1.2-.3.2 0 0-.2 0-.7.1h-2.5l-.5.1h-1.2c-.1 0-.2-.1-.2-.1-.1 0-.2 0-.3.1l-.2.1h-2.8c-.3 0-.6-.1-.8 0-.1 0-.2 0-.5.1h-2.8c-.1 0-.2-.1-.3-.1-.1 0-.4.1-.5.1h-.6c-.3 0-.6 0-.9-.1l-.6-.2c-.1-.3-.2-.2-.6-.4 0 0-.1-.1-.3-.4 0 0-.1 0-.1-.1s-.1-.3-.1-.5l-.1-.3c-.1-.2-.2-.5-.3-1V36h.1l.1-.6.1-.1c0-.1.1-.3.2-.6l.1-.1.1-.1.1-.1v-.1c.1 0 .2-.1.2-.3l.3-.3.3-.2v-.1s.1-.1.3-.1c.1 0 .3-.1.7-.2l.5-.1c.1 0 .5.1.7.1H72s.1-.1.2-.1c0 0 .1 0 .2.1h.5l.1-.1.1.1h.3c.1 0 .1-.1.2-.1 0 0 .1.1.2.1h1c.1 0 .5-.1.7-.1.1 0 .4.1.5.1.1 0 .4-.1.5-.1-.3-.3-.2-.3.2-.3zm5.7 3.5c-.1 0-.1 0-.2-.1H82c-.1 0-.5.1-.6.1-.1 0-.3-.1-.4-.1s-.4.1-.5.1c-.6 0-.8 0-.8-.1l-.7.1h-2.7l-.1-.1h-1.6l-.4.1s-.1 0 0-.1c-.1 0-.2.1-.3.1-.1 0-.3 0-.7-.1-.1 0-.4.1-.5.1H70.8c-.2-.1-.3-.1-.5 0h-.1c-.5.1-.7.4-.7.9 0-.1-.1.4.3.8 0 .2.1.2 1.1.2.3 0 .9 0 1.6.1.3 0 1-.1 1.2-.1h1l.5.1H78.2c.1 0 .5.1.6.1h.4c.2 0 .6 0 1.1.1H81.5c.5 0 .9-.1 1.3 0H83.6s.1-.1.3-.1c.1-.5.2-.8.2-.8 0-.1-.1-.3-.1-.4 0-.2-.2-.1-.5-.5h-.3c-.2 0-.3-.1-.3-.1-.2-.4-.6-.3-.5-.3zM69.4 8.9h1c.1.1.3.1.5.1h.4s.2.1.3.1c0-.1.2-.1.3-.1 0 0 .1 0 .3.1h.4c.3-.1.4 0 .5 0 .7-.1 1.1-.1 1.1-.1H77.5c.1 0 .2 0 .3.1h3c.7-.1.8-.1 1.2-.1.1 0 .2 0 .3.1.2 0 .6-.1 1.1 0 0 0 .1 0 .2.1h.3c.1 0 .1 0 .3.1.3 0 .7 0 1.2.1.1.1.1.3.1.7v2l-.1.3-.1.1h-.1s-.2.1-.3.1h-.7c-.2 0-.3.1-.4.1l-.6-.1c-.2 0-.5 0-.8.1h-.2l-.1-.1h-.2c-.1.1-.3.1-.7.1h-.1c-.1 0-.3 0-.6-.1h-.4c-.2 0-.4 0-.7.1l-.3-.1H77.4l-.3.1h-.4v.3s0 .1.1.2c0 0 0 .1-.1.2 0 0-.1.1-.1.2h.1l.1-.2c.1 0 .4.5.3.6h-.2s0-.2-.1-.2v.4c.1.1.2.1.3.1.1 0 .2 0 .3-.1.1 0 .3.1.4.1h1.1c-.1 0 .1 0 .5.1h.4c.1 0 .3 0 .5.1l.3-.1c.1 0 .2 0 .4.1H82.3l.3.1h.6l.3.1h.4c.3 0 .5-.1.6 0h.1c.2 0 .5.1.5.6v.9c0 .1.1.5.1.6v.5c0 .3 0 .5-.2.7v.1c-.1.1-.2.1-.4.1h-2.1s-.2.1-.3.1h-.8l-.1-.1H79.5l-.4-.1H77c-.2 0-.6 0-1 .1h-1.6l-.4-.1h-.4l-.3-.1c-.1 0-.3.1-.4.1h-.5s-.1 0-.2-.1h-.3s-.1 0-.2.1h-1.6c-.2 0-.3 0-.6-.1-.1 0-.2-.1-.2-.2 0-.3-.1-.4-.1-.3v-.1c-.1 0-.2-.1-.3-.1v.1c.1 0 .1.1.1.3 0 0 0 .1-.1.1h-.1c-.2 0-.3 0-.5-.1H68s-.1 0-.2.1c0 0-.1 0-.3.1h-.8c-.1-.1-.3-.1-.3-.1-.1 0-.2-.4-.2-1.2v-2l.4-.2s.2-.1.3-.1h1.3c.1 0 .1 0 .2.1h1.3l.6-.1.5.1h1.5c.1 0 .2 0 .3.1l.2-.1c1.2-.4 1.3-.4 1.3-.4.1 0 .2.1.3.2.1 0 .2-.2.3-.3 0-.1-.1-.2-.1-.5 0-.2 0-.3.2-.4 0 0 0-.1-.1-.1h-.1v-.1l-.2-.2-.1-.1s-.1 0-.2.1h-.2l-.3-.1h-.2c-.1-.1-.3-.1-.5 0h-.2l-.4-.1-.2.1h-.2c.1 0-.1 0-.4-.1l-.5-.1h-.9c-.5 0-.7-.1-.6-.1-.1 0-.3.1-.5.1-.1 0-.2 0-.4-.1h-.5l-.1.1h-.5v-.1h-.3L67 12c-.1-.1-.2-.3-.2-.3v-1.6h.1v-.5l-.1-.1v-.1c.3.1.2-.1.2-.1l.1-.1.1-.1h.1l.1-.1h.6c.5 0 .8-.1 1 0l.4-.1zM82.6 17.4v.2c-.1 0-.1.1-.1.3h.2l.3-.2c.1 0 .2 0 .2-.1H83c-.1-.1-.2-.2-.3-.2 0-.1 0-.1-.1 0zM84.2 17v.4l-.2.1v.1c0 .1.1.1.2.2 0-.1.1-.2.1-.3v-.6l.1-.1c-.1-.1-.1-.4-.2-.4v.6zM84.7 17.4c-.1 0-.2.1-.1.1v.1l.1.1s.1 0 .2-.1v-.3c-.1-.1-.1.1-.2.1zM76.2 17.5s.1.1.1 0v-.2c0 .2 0 .2-.1.2zM73 17.2l-.1.1c-.1.1-.1.2-.1.1h.2c.1 0 .1 0 .2-.1l-.2-.1zM72.2 17s-.1 0-.2.1c0 .1 0 .1.1.2 0 0 0-.1.1-.2V17zM78.2 16.9H78v.1h-.1v.1l-.1.1c.1.1.2.2.3.2l.1-.1c.1 0 .1-.1.1-.1l-.1-.3zM76.9 17.3h.3c0-.1-.1-.3-.3-.3 0 0-.1.1 0 .3zM78.7 17v.2h.1l-.1-.2zM74.3 16.7v.2c0 .1.1.1.1.1.1-.2 0-.3-.1-.3.1 0 .1 0 .2-.1.1-.3 0-.4-.3-.4 0 .1 0 .2.1.5zM80.7 16.8v.2h.1v-.2h-.1zM83.4 16.8l.1.1c.1.1.2.1.3 0v-.3c-.5.1-.4.2-.4.2zM67.4 16.2v.2l-.1.1v.2s.1.1.2.1c0-.2.1-.3.1-.6l.1-.1c.1 0 .1.1.2.2v.2l.1.1c0 .2.1.2.1.2v-.6l-.1-.1c-.1 0-.2-.1-.2-.2 0-.2 0-.3-.1-.4-.2.4-.2.5-.3.7zM70.5 16.4v.1s0 .1.1.2v.1l.1.1.1-.1s.1-.1.1-.2v-.2c-.2-.1-.3-.1-.4 0zM68.1 16.5c0 .2.1.4.2.3 0-.1.1-.2 0-.3 0-.2-.1-.3-.1-.2 0 0-.1.1-.1.2zM75.6 16.6H75.3v.1h.9c.1 0 .1 0 .2-.1h-.8zM70 16.8s.1-.2.1-.3c-.1 0-.1-.1-.2-.1.1 0 .1.3.1.4zM76.8 16.5c-.1 0-.2.1-.2.2.1 0 .1 0 .2-.1v-.1zM73.5 16.2l-.1.4s.1.1.2.1c0-.1.1-.3.1-.4 0-.1 0-.2-.1-.2l-.1.1zM72.1 16.5c-.1 0-.1 0-.1.1h.1c.1 0 .1 0 .1-.1h-.1zM79.3 16.7c0-.1 0-.1-.1-.1l.1.1zM82.7 16.5c-.1 0-.1 0 0 0-.1.1 0 .1 0 .2.1 0 .1 0 .2-.1l-.2-.1zM78.3 16.5s0 .1 0 0c.2.1.2 0 .2.1l.1-.3c-.1-.1-.1-.1-.3-.1v.3zM73 16.6h.2v-.1c-.1 0-.2 0-.2.1zM77.4 16.4c-.1 0-.2.1-.2.1 0 .1.1.1.1.1s.1 0 .1-.1h.1s.1 0 .1-.1l.1-.1c-.1 0-.1 0-.3.1zM84.7 16.4v.1s.1.1.2.1v-.2h-.2zM71.4 16.4c0 .1.1.1.1.1s0-.1.1-.1.1 0 .1-.1-.1-.1-.3-.1v.2zM79.9 16.3H79.6s-.1 0-.1.1l.2.1h.1c.1 0 .2-.1.2-.2h-.1zM69.6 16.3v.1c.1 0 .2 0 .3-.1v-.1c-.2 0-.2 0-.3.1zM75.1 16.1l-.1.2.1.1.2-.1v-.1h-.2zM75.9 16.1c-.1 0-.1.1 0 .2l.5-.1v-.1l-.1-.1c-.1-.1-.2-.2-.3-.2 0 0 0 .1-.1.3zM76.9 16.1v.1h.1l.1-.1c0-.2-.1-.2-.2-.2v.2zM71.2 15.9c-.1 0-.1.1-.3.2v.1c.1 0 .2.1.1.1h.1v-.2l.1-.2zM68.9 15.9c0 .1-.1.1-.1.2h.2c.1-.1 0-.2.3-.2 0-.3.1-.4.1-.3 0-.1-.1-.1-.2-.1s-.2 0-.2.1c-.1 0-.1.1-.1.3zM83.1 15.9v.2h.3c.1 0 .1-.1.1-.3-.1 0-.2 0-.4.1zM81.8 16s0 .1.1.1V16c0-.1 0-.1-.1 0 0-.1 0 0 0 0zM80.4 16.1c.1.1.1 0 .1 0h-.1zM82.3 16v.1c.1 0 .1 0 .2-.1l.1-.1s-.1-.1-.2 0c-.1 0-.1 0-.1.1zM84.4 15.4l-.1-.1s-.1 0-.1.1.1.2.1.3c0 .1-.1.2-.2.3 0 0 .1.1.2.1s.1-.1.1-.3v-.4zM81.3 15.9s-.1.1-.1.2h.3l-.2-.2zM78.9 15.7c-.1 0-.1.1-.2.2l.1.2c0-.1.2-.2.1-.4zM84.6 15.6c0 .2.1.3.2.4.1-.1.1-.2.2-.4h-.4zM77.9 15.8c-.2.1-.2.1-.1.1 0 0 0-.1.1 0h.3s.1 0 .1-.1c0 0-.1 0-.3-.1h-.1zM72.1 15.3s.1 0 .2.1v.1c0 .1-.1.2-.1.3 0 .1.1.1.1.2 0 0 .1-.1.3-.1.1 0 .1-.1.2-.2 0 0-.1 0-.1-.1 0 0-.1 0-.2.1-.1 0-.2-.1-.1-.2l.2-.1h.2s-.1 0-.1-.1c-.2-.1-.3-.1-.6 0zM79.4 15.8l.2.1-.1-.2-.1.1zM80 15.9c0-.1-.1-.1 0 0-.1-.1-.1 0-.1 0h.1zM75 15.6c0 .1 0 .1.1.2.1 0 .2 0 .2-.2H75zM73.2 15.7s-.1 0-.1.1h.1c.1 0 .1 0 0-.1zM83.7 15.6v.1h.1c0-.1.1-.1 0-.2 0 .1 0 .1-.1.1zM70.3 15.3c0 .1-.1.1-.1.1.1 0 .1.1.1 0 .1 0 .1.1.2.1l.2-.1s.2.3.3.3c.1 0 .1 0 .1-.1h-.2v-.1c.1-.1 0-.1-.5-.1h-.1zM74.6 15.6c.1 0 .1 0 .1-.1s-.1-.1-.2-.1c.1 0 .1.1.1.2zM76.6 15.1c0 .1 0 .3.1.4v.1c.1-.1.1-.2.1-.4s-.1-.3-.2-.3v.2zM80.6 15.4c.1.1.1.2.1.2l.1-.1c0-.1-.1-.3-.2-.3 0 0-.1 0-.1.1 0 0 .1 0 .1.1zM81.4 15.5v.1h.5c0-.1.1-.1.1-.2-.3 0-.5 0-.6.1zM82.4 15.6s.1 0 .1-.1l-.1.1zM73.7 15.2c-.1.1-.1.2-.1.3.1 0 .1.1.2.1l.1-.1s.1 0 .1.1h.1v-.2c-.2-.1-.3-.2-.3-.2h-.1zM82.6 15.5h.1v-.1c0 .1-.1.1-.1.1zM78.8 15.4s.1.2.2.2c0 0 .1-.1.1-.2l-.1-.1h-.1v.1zM67.9 15.2c0 .1 0 .1 0 0v.1l.1.1h.2c.1-.1.2-.1.3-.3 0 0-.1 0-.3-.1H68c-.1.1-.1.2-.1.2zM79.5 15.4v.1-.1c0-.1 0-.1 0 0zM77.1 15.4c.2.1.3 0 .3 0 0-.1-.1-.1-.3 0zM67.5 15.2c0 .1 0 .2.1.3.1-.1.1-.2.1-.3-.1-.1-.1-.1-.2 0zM77.9 15.3c-.1 0-.1 0-.2.1h.5c-.1-.1-.2-.1-.3-.1zM80.2 15.3l-.1-.1-.1.1.1.1.1-.1zM73.2 15.3c.1 0 .1 0 .1-.1-.1 0-.1 0-.1.1zM69.7 15c0 .1 0 .2.1.3.1 0 .1-.1.1-.3h-.2zM75.7 14.2h.2c.1 0 .1-.1.1-.2-.3 0-.3.1-.3.2zM76.2 14v.1c.1.1.2.1.3 0 .1 0 .2-.1.2-.2-.1 0-.3.1-.5.1zM74.9 13.8c0 .1 0 .1.1.2 0 0 .1-.1.1-.2s0-.1-.1-.2l-.1.2zM76.1 13.5c-.1 0-.1.1-.1.1l.1.2v-.3zM75.2 13.4l.3.3c.1-.1.1-.2.1-.3 0 0 0-.1-.1-.2h-.1c-.4 0-.2.1-.2.2zM76.7 12.8v-.3.3zM84 12.6v-.2c0-.1 0-.2-.1-.1.1.1.1.2.1.3zM84.6 12.6h.1c0-.1.1-.2.1-.2 0-.1-.1-.1-.2-.1v.3zM77.1 12.4s0 .1 0 0c0 .1.1.1.2.1 0 0 0-.1-.2-.1.1 0 0 0 0 0zM78.7 12.5h.1c.1 0 .2 0 .3-.1-.2 0-.3 0-.4.1zM83.4 12v.4l.2.1c.1-.2.1-.3.1-.3 0-.1-.1-.2-.3-.2.1 0 .1 0 0 0zM79.8 12.3c.1.1.1.1.2.1s.1 0 .1-.1c-.1.1-.1 0-.3 0 .1 0 .1 0 0 0zM82.2 12.3s-.1 0-.2.1l.2-.1zM70 12.1c-.1 0-.1 0-.2.1h.2c.1 0 .1 0 .1-.1H70zM68 12s-.1 0-.1.1h.1V12zM71.8 12.1c0-.1-.1-.1-.1-.1l-.1.1h.2zM74 11.8c-.1 0-.1.1-.1.2.1.1.2.1.2.1.1 0 .1 0 .1-.1s-.1-.2-.2-.2zM72.7 12s0 .1 0 0c.1.1.2 0 .3 0-.1-.1-.2-.1-.3-.1v.1zM69.3 12c.1.1.1.1.2 0s.1-.1.1-.2c0 0-.1-.1-.2-.1h-.1v.3zM77.3 11.8c-.1 0-.1.1-.1.2.2 0 .3 0 .2-.1.1-.1 0-.1-.1-.1zM77.8 11.9c0 .1 0 .1.1.1s.1 0 .1-.1h-.2zM78.3 11.4h-.2l.1.3s-.1.1-.1.2c.1 0 .2.1.3.1 0 0 .1-.1.1-.2-.1 0-.1-.1-.2-.2v-.2zM85.1 11.6c-.1 0-.1.1-.1.1l.1.2v-.3zM67.5 11.5l.1.4.2-.1c0-.1-.1-.3-.1-.4v-.1c-.2 0-.2.1-.2.2zM74.9 11.4v.1s-.1.1-.1.2h-.1s.1 0 .1.1h.1c-.1 0 0-.1.2-.1v-.3h-.2zM79.6 11.7s0 .1.1.1h.2v-.1h-.3zM68.4 11.4v.4c.2 0 .5-.1.4-.4h-.4zM74.6 11.7s.1 0 .1-.1c0 0 0-.1-.1-.1v.2zM80.9 11.6c.1.1.1.1.2 0v-.2c-.1.1-.2.1-.2.2zM71.7 10.8v.4c.1 0 .2.1.2.2 0 0 .1-.1.2-.1 0 .1.1.2.1.2.1 0 .1 0 .2-.1 0-.1 0-.1-.1-.2h-.2c-.1 0-.1.1-.2 0 0 0 0-.1-.1-.2v-.2h-.1zM69.7 11.4c0 .1 0 .1.1.2h.3c0-.1-.1-.3-.2-.5-.2.1-.2.2-.2.3zM73.4 11.3h-.2v.3h.2v-.3zM77.4 11.4l.1.1h.1c0-.2-.1-.2-.2-.2v.1zM75.2 10.9v.4c.1-.3.1-.5.1-.5 0-.1 0 0-.1.1zM77.4 10.9v.1s0 .1.1.1c0-.1.1-.2.1-.3 0 0-.1 0-.2.1zM80.4 11.2c0-.1 0-.1-.1-.2h-.1c.1 0 .2.1.2.2zM81.1 11.1l.1.1c.1 0 .2 0 .3-.1-.2 0-.3 0-.3-.1l-.1.1zM82 11c.1 0 .2.1.3.1.1-.1.1-.4.1-.3 0 0-.1-.1-.3-.1 0-.1 0-.1-.1-.2v.5zM83.1 10.9l.1.2h.4s.1.1.1 0c0 0 .2 0 .2-.1h-.3c0-.1 0-.1-.1-.2 0-.1-.2-.1-.4.1zM82.7 11c.1 0 .1 0 .2-.1-.1.1-.1.1-.2.1zM85.1 10.9s-.1 0-.1.1c0 0 .1 0 .1.1v-.2zM84.3 10.9c-.1 0-.2 0-.2.1.5 0 .7 0 .7-.1l-.1-.1-.4.1zM77 10.4l-.1.1-.2.1s-.1 0-.1-.1v.4h.1v-.2h.3v-.3zM78.5 10c-.1 0-.1 0 0 0-.1.2 0 .3-.1.5 0 .1-.2.1-.2.2s0 .2.1.2c0-.1.1-.2.2-.4h.1s-.1-.1-.1-.2V10zM80 10.8c.1 0 .2.1.2.1s.1-.1.1-.2v-.1s-.1 0-.1-.1c-.2-.1-.3.1-.2.3zM78.8 10.6c0 .1.1.1.1.2.1 0 .2-.1.2-.2 0 0-.2-.2-.3-.1v.1zM80.8 10.3s-.2 0-.3.3c.2.1.3.1.4.1h.2l.1-.1-.1-.1-.1-.2h-.2zM68.1 9.8h-.2c0 .2.1.3.1.4h.2v-.1h.2c.1 0 .2.2.1.5h.3c.1.1.2.1.2.1v-.4c-.2 0-.2-.1-.5-.3h-.2l-.2-.2zM69.8 9.9c-.2 0-.2 0-.3.1.1 0 .1 0 .1.1h.2c0 .1.1.2.1.4h.2c.1-.2.1-.3 0-.3v-.1l-.3-.2zM70.6 10.3c-.1.1-.1.2-.1.4.1 0 .2 0 .4-.1v-.2c-.1 0-.2-.1-.2-.2v-.1c-.1 0-.1.1-.1.2zM81.5 10.6c-.1-.1-.2-.1-.2-.1 0 .1.1.1.2.1zM72.5 10.2H72v.3c.1 0 .2 0 .4-.2h.1v-.1zM73.1 10.3c.1 0 .3.2.4.3v-.2c0 .1-.1.1-.1 0-.1 0-.1-.1-.1-.2-.1-.1-.1 0-.2.1zM74.8 10.2c0 .2-.1.3-.1.3h.1c.2 0 .3-.1.3-.4-.1 0-.3 0-.3.1zM75.5 10.4c0 .1.1.1.1.1.1-.1.1-.1.1-.2s-.1-.1-.1-.1c-.1.1-.1.1-.1.2zM73.9 10.2h-.2v.1s.1.1.2.1v-.2zM82.4 10.1c-.1 0-.2 0-.2.1.2 0 .4 0 .4-.1 0 .1-.1 0-.2 0zM76.9 10.2l.1.1s.1 0 .2-.1c0 0 .1 0 .1-.1H77c-.1.1-.1.2-.1.1zM83.4 10.2l.1.1s.1 0 .1-.1c-.1-.1-.2 0-.2 0zM83.7 10.3c.1 0 .1 0 .1-.1 0 0-.1 0-.1.1zM82.9 10.3c.1 0 .2 0 .2-.1-.2 0-.2 0-.2.1zM73.8 10c.1 0 .1 0 .1-.1 0 0-.1 0-.1.1zM67.3 9.8h.1c.1 0 .1 0 .1-.1-.1.1-.1.1-.2.1zM69.1 9.7c-.1 0-.1 0-.1.1h.1c.1 0 .1 0 .1-.1h-.1zM85.4.2c.1.1.1.5.1 1.1 0 .2.1.8.1 1.1l-.1.5v1.2s0 .1.1.2c0 .1-.1.3-.1.4v.2c0 .1 0 .2.1.4v1.1s0 .1-.1.2V7s-.1.1-.1.3c-.1 0-.1.1-.3.1H82.8c-.2-.1-.4-.1-.5-.1H80.4c-.1 0-.6.1-.8.1-.1 0-.3-.1-.5-.1h-.6l-.3.1H69.3c-.1 0-.4 0-1 .1-.2 0-.6 0-1.3-.1 0-.1-.1-.1-.1-.2V7c-.1 0-.2-.1-.3-.2l.4-.5c0-.2-.1-.5 0-.7V2.2c-.1-.2 0-.4 0-.5.1 0 .2-.1.2-.2h-.3c0-.1-.1-.1-.1-.2-.1-.2.1-.2.2-.3-.1 0-.2-.1-.2-.3 0-.2.1-.3.3-.4.1 0 .5-.1.6-.1 0 0 .1.1.1.3l.2-.1.1-.1h.1s.1-.1.1 0c.1 0 .2.1.2.3v1c0 .1.1.3.1.6V3.3c0 .1.1.1.1.2H69c.2 0 .4 0 .8.1H71.5c.1 0 .2 0 .4.1H73c.1 0 .2 0 .4-.1h.8l.3-.1v.1-.8c0-.5 0-.8.1-.7V2c-.1 0-.1-.1-.1-.2s.1-.2.1-.2c0-.1 0-.3.1-.4.1-.1.4-.2.4-.2h.3c.5-.1.8 0 .9.1.1 0 .2.2.2.5v.1s0 .4.1 1.2v.2c0 .1 0 .7.3.8h.2c-.1 0 .1 0 .5-.1h.2l.1.2h.5c.1 0 .2-.1.4-.1h.6l.6.1c-.2 0 .4-.1.7-.1.6 0 .9-.1.8-.1l.4.2s.2 0 .7-.1h.7c.1 0 .2.1.2.2h.1V4s-.1 0-.2-.1v-1c0-.2 0-.6.1-1 0-.1 0-.1.1-.1 0-.1-.1-.2-.1-.3 0 0 0-.1.1-.4V.4l.1-.1c.1 0 .1 0 .1-.1h.2s.2 0 .6-.1c.2-.1.5 0 .8.1zM67.8 6.8h.2c-.1-.1-.2-.1-.2 0zM78.9 6.7h.3-.3zM73.8 6.5h-.3l-.1.1h.8s-.1 0-.1-.1h-.3zM68.6 6s.2.1.2.2v.1c-.1 0-.1.1-.2.2l.1.1c.1 0 .1-.2.5-.3 0-.1-.1-.2-.1-.2h-.3c0-.2-.1-.2-.1-.2l-.1.1zM72.9 6.6c.1 0 .1 0 .1-.1l-.1.1zM72 6.5c-.1 0-.1 0-.1.1h.3c-.1-.1-.1-.1-.2-.1zM79.7 6.4l-.1.1h.4s.1 0 .2-.1l-.1-.1c-.3.1-.3.1-.4.1zM82.2 6.5c.1.1.2.1.3.1 0-.1 0-.1-.1-.1h-.2zM84 6.5h.4v-.1c-.2 0-.4 0-.4.1zM84.8 5.7l.1.1c0 .1-.1.1 0 .2h-.1v-.3l-.5.2s0 .1-.1.2h.3c0 .2.1.3.2.5l.1-.4c.1 0 .2-.2.1-.5 0-.1 0-.2-.1-.2.2.1.1.1 0 .2zM78.3 6.4l.2.1h.1c0-.1-.2-.1-.2-.2s-.1 0-.1.1zM74.4 5.8c-.2 0-.4.2-.4.2h.6c0 .1 0 .2.1.3h.2c.1-.1 0-.2.2-.4h-.4l-.3-.1zM75.3 6.3l.2.2h.4s.2 0 .4-.1h-.4l-.1-.2c-.1 0-.1 0-.1-.1l-.4.2zM70.2 6.4c.1 0 .2 0 .2-.1 0 0-.4-.1-.3-.1-.1 0 0 .1.1.2zM67.4 6.3c.4 0 .7 0 .8-.1 0-.1-.1-.1-.1-.2-.3.1-.5.1-.7.3zM80.4 5.9V6h.3c.2 0 .3-.1.3 0 0 .2.1.3.1.3l.1-.1s-.1-.2-.1-.3c-.1 0-.2 0-.4-.1s-.3 0-.3.1zM78.7 6.1c-.1 0-.1 0-.1.1.1 0 .2 0 .2-.1h-.1zM79.4 6.2h.2c0-.1-.1-.1-.2-.1v.1zM81.8 6.2c.1 0 .1-.1.1-.2s-.1-.1-.2-.1c.1.2.1.3.1.3zM73.7 6c-.1 0-.1 0 0 0 0 .1 0 .1.1.1s.1 0 .1-.1h-.2zM73.2 6.1h.1c-.1-.1-.1-.1-.1 0zM71.8 6c0 .1 0 .1 0 0h.2s-.1-.1-.1-.2c-.1.1-.1.1-.1.2zM83.3 6h.3c0-.1-.1-.1-.1-.2-.1.1-.2.1-.2.2zM67 6c.1 0 .1 0 0 0 .1-.1.1-.2 0-.2V6zM78.1 6c0-.1 0-.1-.1-.2 0 .1.1.2.1.2zM83.9 6c.1-.1.2-.1.3-.2v-.2H84c-.1-.1-.1-.2-.2-.2h-.1c.1.1.1.3.2.6zM77.6 5.8v.1h.2l-.2-.1zM69.9 5.9c.1 0 .2-.1.5-.1l-.1-.1h-.1c0-.1-.1-.1-.2-.1s-.2 0-.2.1c0 0 0 .1.1.2zM72.8 5.9c.1 0 .2-.1.1-.2-.1 0-.2-.1-.2 0-.1.1 0 .2.1.2zM78.9 5.8l.1.1-.1-.1zM80 5.9c0-.1 0-.1 0 0l-.1-.1c.1 0 .1.1.1.1zM72.3 5.5c-.1 0-.2-.1-.3-.1v.1l.2.2c0 .1 0 .1.1.1-.1-.1 0-.2 0-.3.2 0 .3 0 .3-.1-.1 0-.2 0-.3.1zM67.3 5.7h.1c0-.1 0-.1-.1-.1v.1zM68.8 5.2h-.3c0 .1-.1.1-.3.2 0 0 0-.1-.1-.2H68c0 .1-.1.2-.1.3h.3l.1.1c.1 0 .1.1.1.1.4-.4.3-.4.4-.5.1.2.2.3.2.4h.1s-.1-.1-.1-.3l.1-.2s0-.1-.1-.2c0 .1-.1.2-.2.3zM71.6 5.6l.1-.1.1-.1c-.2 0-.3-.1-.3-.1 0 .1 0 .2.1.3zM81 5.4l-.6-.1c-.1.1-.2.1-.2.1-.1 0-.1-.2-.2-.2 0 .1-.1.1-.2.2h-.5c-.1 0-.1-.1-.2-.1s-.1 0-.1.1c0 0 .1 0 .2.1 0 0 0 .1.1.2-.1 0 0-.1.2-.2h.2l.1.2c0-.1.1-.2.2-.2h.2s.1 0 .1-.1h.1l.3.1s0-.1.1-.1H81.1c.1 0 .2.1.3.1.1 0 .2 0 .2-.1s-.2-.1-.3-.1c-.2-.1-.3-.1-.2-.1 0 0 0 .1-.1.2zM82.7 5.2H82.1c-.1 0-.2.1-.2.1l.2.2s.2 0 .3-.1H82.7v-.2zM73.9 5.2s-.1-.1-.2-.1-.1 0-.3.1c0 0 0 .1-.1.2.1.1.3.1.5.1.1 0 .1-.2.1-.3l.2.1s.1-.1.1-.2h-.1c-.1.1-.1.1-.2.1zM83.4 5.3h-.3l-.1.1.1.1h.4l-.1-.2zM70.9 5.4s.1 0 .2.1v-.1c0-.2-.1-.2-.2 0zM76.3 5.3c0 .1 0 .1.1.1 0 0 .1 0 .2-.1 0-.2-.1-.2-.3-.2v.2zM78.4 5.2h-.2s-.1 0-.2.1v.1H78.3c0-.1.2-.1.1-.2.1 0 .1 0 0 0zM77.5 5.3l-.1-.1.1.1zM72.6 4.9c0 .1 0 .2.1.3H73l-.1-.1s0-.1-.1-.3c-.1 0-.2 0-.2.1zM67.7 5c-.1 0-.1 0-.2.1.1 0 .2.1.2.1V5zM74.6 4.5v.7c.1 0 .2-.2.2-.2l-.1-.2v-.2s0-.1-.1-.2v.1zM70.4 4.7c-.1.1-.2.1-.3.2h.2c.1 0 .1.1.1.1.1.1.1.1.2.1s.2-.1.2-.3l-.1-.1h-.3zM84.9 4.8s-.1 0-.2-.1l-.1.1h-.2v.1s.2 0 .5-.1l.1.3c.1-.1.1-.3.1-.4-.1-.1-.1-.2-.1-.1l-.1.2zM75.5 4.8c.1 0 .2.1.2.1 0 .1.1.1.1.1l.1-.1c-.1 0-.1 0-.2-.1 0 0 0-.1-.1-.2-.1 0-.1.1-.1.2zM72.2 5h.2c0-.1 0-.2-.1-.2 0 0-.2 0-.1.2zM71.5 4.9h.3c0-.1-.1-.1-.2-.1-.1.1-.1.2-.1.1zM83.1 4.8c.2.1.3.1.4 0 0-.3-.2-.3-.3-.3 0 .1-.1.2-.1.3zM69.7 4.8c-.2-.1-.2 0-.2 0h.2zM78.9 4.8h.1c.1 0 .1 0 .1-.1 0 0-.1 0-.2.1zM73.4 4.5c-.1 0-.2.1-.3.2 0 0 .1 0 .2.1h.2s.1 0 .1-.1h.5c0-.1-.1-.1-.2-.1h-.2c-.1-.1-.2-.1-.3-.1zM80 4.5s0 .1.1.2c0 0 0-.1.1-.1 0 0-.1-.1-.1-.2l-.1.1zM68.5 4.5h-.1c-.1 0-.2 0-.3.1h.3c.1 0 .1 0 .1-.1zM71.3 4.4c.1.1.2.1.2.1s.1 0 .1-.1 0-.1-.3 0c.1 0 0 0 0 0zM70.4 4.3s-.1 0 0 0c-.1 0 0 .1.1.1.2 0 .3 0 .3-.1h-.4zM69.7 4.3c0-.1 0-.1 0 0H69v.2s.1 0 .2-.1h.4l.1-.1.2.1.1-.1H69.7zM84.5 3.3v.2l.4-.1c.1.2.1.3.1.5l-.1.1c-.4 0-.6 0-.5-.1 0 0-.2.1-.2.2h.7l.1.1v-.9s-.1 0-.2.1l-.1-.1h-.2zM75.3 4.2s.1-.1 0-.1V4v.2zM75.7 3.7l-.1.1v.1h.2c0 .1.1.1.3.2 0 0-.1-.1-.1-.2v-.1c-.1 0-.1-.2-.2-.3 0 .1 0 .2-.1.2zM68 1.7c-.1.2-.1.5-.1.7v.4h.1V3.1s-.1.2-.2.5c-.1 0-.1 0-.2-.2-.1 0-.2.1-.2.4V4.1l.1-.1c.3 0 .2-.1.3-.3h.4v-.2s-.1-.1-.1-.2V2.2s0-.1.1-.3c0-.2 0-.3-.1-.5-.1 0-.1.1-.1.3zM75 3.9c.1 0 .1 0 .1-.1l-.1.1zM68.2 3.7s.1 0 .1.1c0 0 .1 0 .1-.1v-.1c-.1 0-.2.1-.2.1zM75.3 1.8c0 .1-.1.3-.1.5 0 0 0 .1.1.2-.1 0-.1.1 0 .2s.1.3.1.6v.4h.1c.2 0 .2-.2.2-.5-.1-.6-.2-.9-.2-1v-.5c-.1 0-.2.1-.2.1zM75.8 3v.4V3zM83.9 3.3c0 .1 0 .1.1.1 0-.2 0-.3-.1-.3s-.1.1 0 .2zM84.7 1.4s.2.1.1.2c0 .1-.3.1-.3.2.1 0 .1 0 .1.1.2 0 .3.3.3.6l-.1.2.2.1c0-.3.1-.5 0-.7v-.7c0-.1-.1-.1-.2-.2-.1 0-.1.1-.1.2zM67.1 2.3c-.1.1-.1.2 0 .3.1 0 .1 0 .1-.2l-.1-.1zM84.2 1.3c.1.1.1.2.1.4-.1 0-.1.1-.1.1-.1 0-.2 0-.4-.1v.2h.3c.2 0 .3-.1.4-.1 0 0-.1-.1-.1-.2v-.2s0-.2-.1-.4c0 0 0-.1.1-.3-.1-.1-.2-.2-.1-.2-.1.1 0 .7-.1.8zM74.6 1.5s-.1 0-.1.1l.1.1c.1 0 .1 0 .1-.1s0-.1-.1-.1zM75.1 1.2h-.2l.4.2v-.2h-.2zM83.8 1.1c0 .1 0 .2.1.2 0 0 0-.1.1-.1 0-.2 0-.3-.1-.3-.1.1-.1.1-.1.2zM67.7 1h-.2v.1s.1 0 .1.1h.2l.2-.3-.1-.1-.2.2zM67.3.6v.2s0 .1.1.1c0-.1.1-.2.1-.3h-.2zM84.6.7s.1.1.2.1.1-.1.1-.1h.1s-.1-.1-.3-.1c0 0-.1 0-.1.1zM103.8 2.4c-.1.6-.1 1.4-.3 2.6-.2.1-.7.1-1.5.1-2.4-.1-3.8-.1-4.2 0-.6 0-.9.2-.9.7 0 .1 0 .1 0 0 0 1.6-.1 1.3 0 1.6v2.3l.1 1 .1.1c.1.2.1.5 0 .7l-.1 1.9c0 .1 0 .4.1.8.1.1.1.1.1.3 0-.1 0-.1-.1.3-.1.5-.1.9 0 1.2.1.4.2.6.2.8 0 .3-.3.4-.3 1.1v.9c0 .5-.1.8-.3.8 0 .1.1.1.3.3l.1.1c.3 0 1-.1 1.3-.1h.8c1.1.1 1.6.1 1.7.1.7-.1 1-.1.9-.1.2.1.4.3.6.5.2-.1.4-.1.4-.1.2 0 .3.1.4.3-.1.4-.1.8-.1 1.3l.1.1v.8h-.1l-.1.7c.1 0 .1.1.4.4.1.1.1.4 0 .8l-.6.7-.2.1-.6.1c-.7.1-1.8.1-3.4 0h-1.1c-.5 0-.5.1-.5.1l-.1.3c-.1.1-.1.1 0 .1V28c.1.6.1 1 .1 1.3v2.1c-.1 0-.1.1-.1.2v.5s-.1.3-.1.4l.1.3v.2c.1 1.1.1 2.4.1 4v5.5l.1.2V44c.1.6 0 1.3-.1 2.4l-.1.4c.1.2.1.4.1.7-.1.1-.1.4-.1.6V48.4c0 .6-.4.8-1 1.3-.1.1-1 .1-2.9 0-.8 0-1.7 0-2.6-.1 0-.1-.1-.1-.3-.2-.2-.6-.3-1.1-.3-1.5v-.1c.1-.2.1-.4.1-.8v-1.8c0-.9 0-1.2.1-.9 0-.1-.1-.3-.1-.6-.1-.2-.1-.4 0-.7.1-.1.1-.4.1-.8 0 .1 0 0-.1-.4.1-.2.1-.6.1-1.1h-.1v-.2s0-.1-.1-.1v-.2c.1-.2.1-.5.1-.9v-1.7c.1-.4.1-.8.1-1.6 0-.5-.2-1.7-.2-2.2.1.2.1-1.4.1-4.6 0-1.1 0-2.3-.1-3.7-.1-.5-.1-.8 0-1.2v-.4c.1-.4.1-1 .1-1.8v-1h.1V21c-.1.4-.1-.2-.1-1.7 0-.3 0-.9.1-1.7.1-.7.1-1.3.1-1.6v-.3c-.1-.1-.1-.2-.1-.3.1-.1.1-.2.1-.4l.1-.1c.1-.4 0-.8-.1-1.3v-1.8c-.1-.2-.1-.6-.1-1.1 0 .3 0 .1.1-.6.1-.3.1-1 0-2.1V6c0-.8 0-1.3-.1-1.8V4c.1-.3.1-.4.1-.3v-.1c.1-.1 0-.1-.1-.2v-.3c0-.1 0-.1-.1-.1 0-.5.3-1.1.2-1.7-.1-.4-.1-.7-.1-.9.1-.1.2-.1.4-.1l.2-.1.1-.1.1-.1c.1-.1.4-.1.8 0 .4 0 1.3.2 1.5.1H93l.1-.1h.4c.1.1.1.1.4.1h.4c.6.1.9 0 .9-.1.4-.1.6-.1.7-.1V0h.3c.1 0 .4.1.7.4 0 .1.1 0 .1 0l.2-.1.4-.2h.3c.1 0 .2-.1.5.1.1-.1.5-.1 1.3-.1 1-.1 1.8-.1 2.3 0 .1.1.3.1.6.1.2-.1.4-.1.7-.1.2 0 .4.1.6.2v1.1h-.1c-.1.1-.1.1-.1.4-.1.1 0 .2.1.4v.2zM125.5 31.7c0 .2 0 .4-.1.5v2.6c-.1.1-.1.3-.1.5.1.1.1.1.1.4-.1.4-.1.8 0 1.4V40.3c.1.9.1 1.9-.1 3.3v.2l-.1.1c0 .3 0 .6-.1 1.1-.1 0-.1.1-.1.1v.1c-.4.4-.4.7-.5 1.3-.1 0-.2.1-.4.4-.2.1-.4.4-.7.8-.1.1-.4.3-.6.6-.3.1-.6.4-1.5.7 0 .1 0 .1-.1.1h-.2c0 .1-.2.1-.6.2l-.1.1h-.1l-.9.2h-.2c-.4 0-1.2 0-2.4.1h-.1c-.5.1-.9.1-1.3.1-.1 0-.1 0-.1-.1-.4 0-.9-.1-1.7-.2l-.1-.1c-.6-.1-1.3-.4-2.1-.7h-.1c-.1 0-.3-.1-.4-.2h-.4v-.1c-.1 0-.2-.1-.4-.4-.1 0-.4-.2-.6-.6 0 0-.3-.4-.9-1.1v-.1c-.1 0-.1 0-.1-.1l-.1-.3c0-.1 0-.1-.1-.1v-.1l-.5-1c0-.4-.1-.8-.1-1.3 0-.1 0-.1-.1-.2V43l.1-.1v-.1l-.1-.1v-.6c-.1-.2-.1-.6-.1-1v-.2c-.1-.1-.1-.2-.1-.3 0-.1 0-.1.1-.3v-1.9c0-.4 0-.4-.1-.4.1-.1.1-.7.1-1.7 0-1.9 0-3.4-.1-4.5s-.1-1.7 0-2l.1-.1c0-.2 0-.6-.1-1.1.1-.2.1-.6.1-1 0 .2 0 .1-.1-.4v-.5l-.1-1.5.1-.6c-.1-.2-.1-.6-.1-1.1V23c0 .6.1-.6.1-3.7v-.9c-.1-.8-.1-1.1-.1-.9V17c.1-.3.1-.5.1-.6v-2.3c0-.1 0-.1.1-.2v-.3c0-.1 0-.3-.1-.5V12c0-.1 0-.4.1-.6V11c-.1-.2-.1-.6-.1-1.1.1-.1.1-.2.1-.4v-.3c-.1-.1-.1-.1-.1-.2.1-.1.1-.4.1-.6V6.6l-.1-.1c.1-.2.1-.4.1-.8l-.1-3.6c0-.1.1-.4.1-.9 0-.2.1-.6.2-.9.1-.2.8-.4 2.1-.3 0 .1 0 .1.1.1h.6c.4-.1.6-.1.7-.1.1 0 .2 0 .3.1h.4c.5-.1 1.2 0 2.1.1.2.5.3.8.2 1l-.1.1.2 1c-.1.4 0 .9 0 1.6l.1.1v.3c0 .4 0 .8-.1 1.3v1.6l-.1.1c.1.4.1.9.1 1.5.1.1 0 .4-.1.8-.1.3-.1.6 0 1l.1.1c0-.1 0 0-.1.2.1.1.1.1 0 .3-.1.3-.1.4-.1.4.1.1.1.1.1.2.1.3.1.5.1.7-.1.3-.1.7-.1 1.2 0 .3.1.9.1 1.2.1.2.1 1 0 2.3 0 .4-.1 1.1-.1 2.1 0-.5 0-.1.1 1.1v1.1c.1 1.5.1 2.5 0 2.8 0 .1 0 .1-.1.3V26c.1.2.1.5.1.9-.1 1.3-.1 3.3-.1 5.8.1.1.1.5.1 1 .1.4.1.8 0 1.3-.1.8-.1 1.3-.1 1.4v1.4c0 .1 0 .2.1.4v.3c0 .1 0 .2-.1.3.1.4.1 1.1.1 2v.2c-.1.4-.1.6-.1.7l.3 1.4.4.4.1.1v.1c.4.4.6.5.9.5.4.1.7 0 1.1-.1l.1-.1c.1-.1.1-.1.4-.2l.2-.4c.1 0 .1 0 .1-.1.2-.4.3-.9.4-1.8 0-.1 0-.1.1-.2V41c-.1 0-.1 0-.1-.1v-.3c.1-.5.1-1.1.1-1.8 0-.1 0-.4-.1-.9v-1.4l.1-.6s0-.1-.1-.5v-.3c-.1-.4-.1-.7-.1-1.2 0-.2 0-.6-.1-1v-1c.1-.4.1-.8.1-1.6v-3.1c0-.1 0-.5-.1-1v-1.3c0 .1 0-.3.1-1.3v-2.2c.1 0 .1 0 .1-.1-.1-.3-.1-.4-.1-.4-.1-.5-.1-1.1 0-2.1.1-.7.1-1.7 0-2.9 0-.4 0-.8.1-1.4-.1 0-.1 0-.1-.1V14c.1-.1.1-1.1.1-3.2v-.7c.1-.4.1-.6.1-.7 0-.1 0-.4-.1-.7 0-.5 0-1 .1-1.4V4l-.2-.2v-.6c0-.4 0-.6.1-.8.1 0 .1 0 .1-.1v-.2c.1-.1.2-.4.1-.7-.1-.4-.1-.7 0-.8.3-.4.7-.5 1.2-.5.4 0 1.3.1 1.6.1.6-.1 1.4-.1 2.6 0h.4l.6.4c.1.1.1.4.1 1 .1 0 .1 0 .1.1v1.1c-.1.4-.1.9-.2 1.5.1.5.1 1.1.1 2.1-.1.3-.1.5-.1.6-.1.4-.1.7 0 .8.3 1.3.4 2.3.3 3.2-.1.1-.1.2-.1.4V12c.1.6.1 1.3 0 1.9-.1 0-.1 0 0 .1 0 .6.1 1.5.1 2v.4c-.1.1-.1.3-.1.6v1c.1.1.1.3.1.7-.1.6-.1 1.5 0 2.5v.2c-.1.2-.1.3 0 .4v.5c-.1 0-.1 0-.1.1v.2c-.1.1-.1.3 0 .6 0 .2.1.5.1.8 0 .3-.1 1-.1 1.3 0 .5.1 2 .1 2.6-.1.4-.1.6-.1.8-.1.1-.1.1-.1-.1l.1 1.4v.1c.1-.2.1.2.1 1.3v.3zM145.2 3.8s-.1.3-.4.8l-.2.6c-.4 0-1.3.4-1.6.4l-1-.4c-.1-.1-.2-.1-.6 0-.6.1-.9.4-1.1 1.1 0 .1 0 .4-.1.7l-.1.6c0 .4.1 1.4.1 1.6 0 .1 0 .6-.1 1.2v.8c-.1.1-.1.2-.1.3 0 .4.1 1.3.1 1.7l-.2 1.7.1 2.6c0 .1-.1.5-.1 1.1-.1.4 0 .7.1 1.1.1 0 .1 0 .1.1v3.5c-.1.2-.1.4-.1.5 0 .1 0 .3.1.6v4c.1.5.1.7.1.6l-.4 1.3v.4c.1.2.1.4.1.4-.1.1-.1.4-.1.7.1.3.3.6.4 1.1 0 .2-.2.9-.2 1.2l.2 1.6c-.1.5-.1.9-.3 1.2 0 .2.2.8.2 1 0-.1-.1.1-.1.9-.1.2-.1.4 0 .6 0 .8.1 1.9.1 3.4.1.9 0 2.3 0 2.3-.2 1.4.1 2.8-.1 3.2-.2.5.1 1.6-.2 1.5l-2.4.2h-.4c-.1-.1-.4-.2-.7-.3-.2 0-.8.3-1.1.3-.2 0-.5-.1-.9-.3h-.3c-.4-.1-.5-.5-.6-1 .1-.5.1-1.1 0-2-.1-.7-.1-1-.1-.9v-.5c.1-.5.1-.6.1-.4-.1-.3-.2-.6-.3-1.1 0-.4.1-.6.1-.8.1 0 .1 0 .1-.1.1-.5.1-1.1.1-1.8v-1.5c.1-.6.2-1.1.2-1.4-.1-.1-.1-.5-.2-1.7 0-.1 0-.1-.1-.1v-1c.1-.4.1-.6 0-.7-.1-.3-.1-.5-.1-.6V34l.1-.9c0 .2 0-.2-.1-1.4.1-.2.1-.5.1-.9 0-.1-.1-.4-.1-.7.1-.1.1-.1.1-.4 0-.1 0-.1-.1-.2 0-.2 0-.6.1-1.1 0-.1 0-.3-.1-.6 0 0 .1-.1.1-.4-.1-.1-.1-.2-.1-.4 0-.1.1-.4.1-.6-.1-.2-.1-.7-.2-1.6V23c.1-.4.1-.9 0-1.4v-2.3c0-.1-.1-.4-.1-.5l.2-1.5c0 .2 0 0-.1-.6.1-.1.1-.3 0-.5-.1-.4-.1-.9-.1-1.3l.2-1.4c.1-.4.1-.8 0-1.3-.1-.8-.1-1.3-.1-1.3 0-1.1 0-1.5.1-1.3 0-.2-.1-.5-.2-.7l.1-.4v-.4c0-.2-.1-.4-.1-.8.1-.4.1-1.1 0-1.8-.1-.1-.3-.4-.6-.6-.1-.1-.4-.1-.6 0 .2.1.1.1 0 .1-.8 0-1.6 0-2.4-.1l-.1-.1h-.1c-.1-.2-.3-.4-.6-.5 0-.3-.1-.6-.1-1.1 0 0-.1-.3-.1-.5 0 .1.1-.1.1-.5l.3-.8.1-.2V1c.1 0 .1 0 .1-.1-.1-.1-.1-.1 0-.3l.4-.4c.3-.1.8-.1 1.6-.1 1.3-.1 2.8-.1 4.2 0 .1 0 .4 0 .8.1.2.1.4.1.6 0 0-.1.3-.1 1.1-.1.4-.1.8-.1 1.6 0l1 .2c.8-.1 1.9-.1 3.5 0 .1.1.4.3.9.5.1.2.1.4.4.8 0 .4 0 .6-.1.9v.3l.2 1zM166.7 31.7c0 .2 0 .4-.1.5v2.6c-.1.1-.1.3-.1.5.1.1.1.1.1.4-.1.4-.1.8 0 1.4V40.3c.1.9.1 1.9-.1 3.3v.2l-.1.1c0 .3 0 .6-.1 1.1-.1 0-.1.1-.1.1v.1c-.4.4-.4.7-.5 1.3-.1 0-.2.1-.4.4-.2.1-.4.4-.7.9-.1.1-.4.3-.6.6-.3.1-.6.4-1.5.7 0 .1 0 .1-.1.1h-.2c0 .1-.2.1-.6.2l-.1.1h-.1l-.8.2h-.2c-.4 0-1.2 0-2.4.1h-.1c-.5.1-.9.1-1.3.1-.1 0-.1 0-.1-.1-.4 0-.9-.1-1.7-.2l-.1-.1c-.6-.1-1.3-.4-2.1-.7h-.1c-.1 0-.3-.1-.4-.2h-.4v-.1c-.1 0-.2-.1-.4-.4-.1 0-.4-.2-.6-.6 0 0-.3-.4-.9-1.1v-.1c-.1 0-.1 0-.1-.1l-.1-.3c0-.1 0-.1-.1-.1v-.1l-.5-1c0-.4-.1-.8-.1-1.3 0-.1 0-.1-.1-.2V43l.1-.1v-.1l-.1-.1v-.6c-.1-.2-.1-.6-.1-1v-.2c-.1-.1-.1-.2-.1-.3 0-.1 0-.1.1-.3v-1.9c0-.4 0-.4-.1-.4.1-.1.1-.7.1-1.7 0-1.9 0-3.4-.1-4.5s-.1-1.7 0-2l.1-.1c0-.2 0-.6-.1-1.1.1-.2.1-.6.1-1 0 .2 0 .1-.1-.4v-.5l-.1-1.5.1-.6c-.1-.2-.1-.6-.1-1.1V23c0 .6.1-.6.1-3.7v-.9c-.1-.8-.1-1.1-.1-.9V17c.1-.3.1-.5.1-.6v-2.3c0-.1 0-.1.1-.2v-.3c0-.1 0-.3-.1-.5V12c0-.1 0-.4.1-.6V11c-.1-.2-.1-.6-.1-1.1.1-.1.1-.2.1-.4v-.3c-.1-.1-.1-.1-.1-.2.1-.1.1-.4.1-.6V6.6l-.1-.1c.1-.2.1-.4.1-.8V2.3c0-.1.1-.4.1-.9 0-.2.1-.6.2-.9.1-.2.8-.4 2.1-.3 0 .1 0 .1.1.1h.6c.4-.1.6-.1.7-.1.1 0 .2 0 .3.1h.4c.5-.1 1.2 0 2.1.1.2.5.3.9.2 1l-.1.1.2 1c-.1.4-.1.8-.1 1.4l.1.1v.3c0 .4 0 .8-.1 1.3v1.6l-.1.1c.1.4.1.9.1 1.5.1.1 0 .4-.1.8-.1.3-.1.6 0 1l.1.1c0-.1 0 0-.1.2.1.1.1.1 0 .3-.1.3-.1.4-.1.4.1.1.1.1.1.2.1.3.1.5.1.7-.1.3-.1.7-.1 1.2 0 .3.1.9.1 1.2.1.2.1 1 0 2.3 0 .4-.1 1.1-.1 2.1 0-.5 0-.1.1 1.1v1.1c.1 1.5.1 2.5 0 2.8 0 .1 0 .1-.1.3V26c.1.2.1.5.1.9-.1 1.3-.1 3.3-.1 5.8.1.1.1.5.1 1 .1.4.1.8 0 1.3-.1.9-.1 1.3-.1 1.4v1.4c0 .1 0 .2.1.4v.3c0 .1 0 .2-.1.3.1.4.1 1.1.1 2v.2c-.1.4-.1.6-.1.7l.3 1.4.4.4.1.1v.1c.4.4.6.5.9.5.4.1.7 0 1.1-.1l.1-.1c.1-.1.1-.1.4-.2l.2-.4c.1 0 .1 0 .1-.1.2-.4.3-.9.4-1.8 0-.1 0-.1.1-.2V41c-.1 0-.1 0-.1-.1v-.3c.1-.5.1-1.1.1-1.8 0-.1 0-.4-.1-.9v-1.4l.1-.6s0-.1-.1-.5v-.3c-.1-.4-.1-.7-.1-1.2 0-.2 0-.6-.1-1v-1c.1-.4.1-.9.1-1.6v-3c0-.1 0-.5-.1-1V25c0 .1 0-.3.1-1.3v-2.2c.1 0 .1 0 .1-.1-.1-.3-.1-.4-.1-.4-.1-.5-.1-1.1 0-2.1.1-.7.1-1.7 0-2.9 0-.4 0-.8.1-1.4-.1 0-.1 0-.1-.1V14c.1-.1.1-1.1.1-3.2v-.7c.1-.4.1-.6.1-.7 0-.1 0-.4-.1-.7 0-.5 0-1 .1-1.4V4l-.1-.1v-.5c0-.4 0-.6.1-.8.1 0 .1 0 .1-.1v-.2c.1-.1.2-.4.1-.7-.1-.4-.1-.7 0-.8.3-.4.7-.5 1.2-.5.4 0 1.3.1 1.6.1.6-.1 1.4-.1 2.6 0h.4l.6.4c.1.1.1.4.1 1 .1 0 .1 0 .1.1V3c-.1.4-.2.8-.3 1.4.1.5.1 1.1.1 2.1-.1.3-.1.5-.1.6-.1.4-.1.7 0 .8.3 1.3.4 2.3.3 3.2-.1.1-.1.2-.1.4V12.1c.1.6.1 1.3 0 1.9-.1 0-.1 0 0 .1 0 .6.1 1.5.1 2v.4c-.1.1-.1.3-.1.6v1c.1.1.1.3.1.7-.1.6-.1 1.5 0 2.5v.2c-.1.2-.1.3 0 .4v.5c-.1 0-.1 0-.1.1v.2c-.1.1-.1.3 0 .6 0 .2.1.5.1.9 0 .3-.1 1-.1 1.3 0 .5.1 2 .1 2.6-.1.4-.1.6-.1.8-.1.1-.1.1-.1-.1l.1 1.4v.1c.1-.2.1.2.1 1.3v.1zM188.8 49.7c-1.1-.1-2.1-.1-3.3-.1-1.2.1-2 .1-2.1 0v-.1c-.3 0-.6.1-1 .1l-.3-.3c-.1 0-.1 0-.1-.1-.2-.6-.2-1.8-.3-3.5v-.1c-.1-.1-.1-.1-.1-.2l.1-.1-.1-.6c.1-.3.1-.7.1-1.3l-.4-1.6c0-.1 0-.3.1-.6 0-.1.1-.3.1-.6.1-.2.1-.4 0-.5 0-.1 0-.2-.1-.4l.1-.1c0-.1 0-.3-.1-.6v-.8c0-.1 0-.4.1-.7-.1-.2-.1-.4-.1-.8 0-.1 0-.2.1-.4-.1-2.3-.1-4.5 0-6.5 0-1.3-.1-2.2-.2-2.7-.3-.2-.7-.5-1.3-.8h-1.6c-.4-.1-.7.1-.8.3v.1c-.1.2-.1.4 0 .5.1.6.1 1.3.1 2.1v.1c.1.5.1 1 0 1.4v.7c0-.2 0 .5-.1 2.3-.1 1.1-.1 1.8 0 2.2.1 0 .1 0 .1.1-.1.1-.1.3 0 .5l-.2 2.6v.2c.1.4.1.8.1 1.1-.1.4-.1 1-.1 1.7.1.4.1.8 0 1.3 0 .4 0 .6.1 1 .1.1.1.2.1.8 0 .4-.3 1.3-.3 1.8.1.4.2 1.4.1 2-.1.4-1.1.1-3 .4l-.1-.1-.2.1c-.2-.1-1.3-.1-.9-.1-.4 0-2 .4-2.6-.1-.3-.2-.3-2.4-.2-2.8V44c.1-.7.1-1.2 0-1.5V41l.1-.1c-.1-.1-.1-.5-.1-1.1v-.4c-.1-.1-.1-.3-.1-.4l.1-.9c0-.1 0-.5-.1-1.4-.1-.5-.1-.8 0-.8.1-.4.1-1.5.1-3.5 0-.1 0-.2.1-.4 0-.1 0-.1-.1-.2v.2l.1-.9c0-.2-.1-.6-.1-.9 0-.1 0-.2.1-.3l-.1-.1c-.1-.1-.1-.7 0-1.8l.1-.1-.1-.1c.1-.1.1-.6.3-1.7l.4-1.1c0-.2-.1-.6-.2-1-.1-.1-.1-.1 0-.1.1-.1.1-.2.1-.3 0-.2-.1-.6-.2-1-.1-.3-.1-.6 0-1.1l.1-1.8c0-.2 0-.4-.1-.8.1.2.1-.3.1-1.3 0-.4 0-.8-.1-1.3s-.1-.9 0-1.1c.1-.4.1-.8.3-1-.1-.2-.1-.6-.1-.9.1-.4.1-.8.1-1.1l-.2-.4.1-.2-.1-.1v-.9c.1-.1.1-.2.1-.3-.1 0-.1-.6-.1-1.6v-1l-.1-1.5v-1c.1-.3.1-.5.1-.6V3.5c-.1-1.4-.1-2.3.2-2.8.4-.2 1.1-.4 2.2-.4.6.1 1.6.1 2.8 0 .1-.1.3-.1.4-.1-.1 0 .4 0 1.3.1h.1l.6.1h.1c.1-.1.1-.1.2-.1h1.1c.2 0 .5 0 1 .1h.3c0 .1.1.1.1.1.1-.1.2-.1.4 0 .6 0 1.8.4 2 .6.3.2.8.8 2 .8.1.2.4.4.7.7.1-.1.1-.1.2 0v.1c.2.2.4.4.6.5l.6 1.3.1.1c-.1.1-.1.2 0 .4.1 0 .1.1.1.1v.1l.1.2v.1c.1.1.2.6.3 1.4.1.2.1.6.1 1-.1.2-.1.5-.1 1 .1.1.1.5.2 1 .1.2.1.6 0 1-.1.1-.1.4-.1.9.1 1.3 0 3.4-.1 6.2 0 .4-.1 1-.2 1.8 0 .1-.1.1-.1.2l-.4 1.2c-.1-.1-.1-.1-.1 0v.1c-.1.2-.3.3-.4.3l-.3.5c0 .2-.1.3-.2.4v.1c-.3.2-.8.4-1.4.7-.1 0-.3.1-.5.2.1-.1.4.3 1.1 1.1.4.3.6.6.8.9 0 .1.3.3.6 1.1l.4.4c-.1.1 0 .3.1.4 0 .3.4 1.5.4 1.8 0 .6 0 1.1.1 1.3-.1.1-.1.4-.1.7 0 .1 0 .4.1.7 0 .1 0 .5-.1 1.3.1.1.1.2.1.4-.1.2-.1.4-.1.7l.1 1c-.1 0-.1 0-.1.1v.4c-.1 1.9 0 4.3.1 6.9l.5 3.4c.1.4.3.8.4 1.1.3 1.8.1 2.5.2 2.3 0 0-.2.1-.7.2zM181.6 14v-1c.1-.2.1-.4.1-.5 0-.2 0-.7-.1-1.5 0-.2 0-.7.1-1.5 0-.5 0-1-.1-1.5.1-.2.1-.6 0-1.1l-.5-1.6c-.2-.2-.6-.4-1-.7-.1.1-.4.2-.8.2-.2 0-.8-.3-1.1-.3l-.7.5c.1.7 0 1.5-.1 2.3v1.1c0 .2 0 .4.1.5v.5c0 .1 0 .1-.1.2v.3c0 .8.1 2.8.1 3.6-.1.2-.1.6-.1 1 0 .1 0 .2.1.4v.6c-.1.1-.1.1-.1.2-.1.8-.1 1.6 0 2.4-.1.3-.1.6-.1 1.1l.1.1v.3c0 .3-.2 1-.2 1.3.5 0 1.1 0 1.7-.1.2.1.6.1 1.1 0l.8-.5c0-.2.6-1.7.6-2.5v-2.4c.1-.6.1-1 .1-1.2.1.1.1 0 .1-.2zM208.6 49.3c-.2.1-.9.2-2.3.3-.4 0-1.7.2-2.3.2l-.9-.1c-.1 0-.2 0-.4.1h-.4c.1 0-.1 0-.6-.1-.2 0-.6-.1-.9 0-.1.1-.3.1-.5.1s-.6-.1-.8-.1h-.5c-.1.1-.4.1-.8.1-.1 0-.3 0-.5-.1h-1.9c-.1-.1-.1-.1-.4-.1-.2.1-.5.1-.9.1-.1-.1-.3-.2-.6-.3-.1-.1-.1-.4-.1-.7v-.1l-.1-.1c.1-.1.1-.2.1-.5 0-.6 0-.9-.1-.7v-.6c.1-.7.1-1.7.1-3-.1-.1-.1-.3-.1-.5v-.4c-.1-.3-.1-.4-.1-.2.1-.6.2-1.1.2-1.4v-.5c-.1-.4-.1-.5-.1-.6.1-.8.1-1.5.1-2.1-.1-1.1-.1-1.6-.1-1.6.1-.4.1-.4.1-.2 0-.4-.3-1.6-.3-2.2.1-.3.2-.7.3-1.3 0 .4 0 .1-.1-.7v-.7l-.1-.8V30c.1-.2.1-.4.1-.5V29c-.1-.2-.1-.4-.1-.5.1-2.8.1-5 0-6.8-.1-2.2-.1-3.3-.1-3.4l.1-2.1c0-.1 0-.1-.1-.4v-.4c0 .3 0 .1.1-.6V6.9c0-.2-.1-1.1-.1-2.6-.1-.4 0-2.2.2-2.9 0-.2 0-.7.2-.9.1-.2.4-.4.5-.3.1-.2.4 0 .9-.1h.7c.4-.1.9 0 1.5 0h.3c.1.1.1.1.2.1h.3c.1-.1.1-.1.2-.1h1.1c1.3-.1 1.8-.1 1.6-.1.4.1.5.1.5.1l.1-.1c.1 0 .1 0 .3.1l1.3-.1.1.1c.4-.1.5-.1.4-.1h.8c.3 0 .7.1.7.2.1.2.4.2.5 0 .1-.1.3-.1.4-.1.4-.2.9.2 1.2.1.4 0 .6.3.9.9 0 .3.1 1.2.1 1.6-.1.3-.1 1.3-.1 1.5-.1.3-.2.6-.6.7h-.9c-.1.1-.3.1-.6.1-.2 0-.5-.1-.7-.1-.3.1-.7.1-1.2.2H201.7c-.1.1-.3.2-.4.4v.2c-.1-.1 0 .1-.1.1V6c0 .5-.1 1.1-.1 2h-.1c0-.4 0-.1.1.5.1.8.1 1.8 0 3.1l-.1.1c.1.1.1.1.1.4-.1.2-.1.6-.1 1 0 .1 0 .2.1.4v.5c-.1.7-.1 1.3-.1 1.8.1.2.1.6.1 1.1-.1.5-.1 1.1-.1 2.1l.2.8h.4c.7-.1 1.3-.1 1.6 0 1.1.1 1.6.1 1.5.1h.1c.1-.1.2-.2.4-.2s.4.2.5.3c.2 0 .6.1.9.3.3.3.4 1 .4 1.1-.1.3-.1.6 0 .8.1 1.2.1 2-.1 2.3v.1c-.1.2-.4.4-1 .6h-.1c-.1.1-.9.1-2.6.2-.1.1-.1.1-.2.1h-.2c-.1-.1-.2-.1-.3-.1-.2 0-1.5-.1-1.7.7l-.1.1v.6l-.1.1c.1-.1.1.3.1 1.3v.5l-.1 1c0-.2 0 .1.1.9v.6c.1.4.1.6.1.9v.4c0 .1 0 .1.1.1v.5c-.1.1-.1.3-.1.4l-.1 1.6V35l-.1.1c0-.6.1 1 .1 1.8.1 1.6.1 2.3.1 2.1l-.2 1c0-.1.1.6.1 1.9.1 0 .1 0 .1.1v.4l.1.1v.2c-.1.1-.1.1-.1.2v.4c0 .1 0 .1-.1.4 0-.1 0 0 .1.4-.1.2.1.4.2.4h1.7c.5 0 1.2.1 2.1.1.2 0 .4 0 .4.1.2 0 .4-.1.6-.1 0 0 .3 0 .8.2.2-.1.6 0 1.1.1.1 0 .1 0 .1.1l.1.1h.1c.1.1.1.3.1.4v.2-.1l.1.3c0 .1 0 .5.1 1.4.6.5.5 1.3.3 2zM240.4 46h1.1c.2 0 .5 0 .9.1 0 .1.1.3 0 .5l-.1.5v1.3s.1.3.1.5c0 0 0 .1-.1.2 0 .1-.1.2-.1.2h-.1c-.1 0-.2.1-.2.2h-2.5l-.7.1c-.3-.1-.8-.1-1.4-.2-.2-.3-.3-.5-.3-.8v-1.1c.1-.1.4-.1.9-.1 0-.1 0-.3-.1-.4-.1 0-.1 0-.2.1v.1c-.1 0-.2.1-.3.1-.3 0-.4-.2-.4-.5v-.2h.1v-.1l.3-.3h.7c.3 0 .5 0 .6-.1 0 0 .1-.2.3-.2.7.1 1.2.1 1.5.1zM221.6 32.8h.5c.4 0 .6.2.7.3v.2h.1v.2c0-.1 0 .5-.1 1.7v.6l-.1.5v.5c-.1.2-.2.3-.4.3 0 0-.2 0-.7-.1H219.2c-.2 0-.4 0-.8.1H216c-.1 0-.3.2-.7.5 0 0-.2.3-.2.6 0 .2 0 .3.2.6h.1l.5.5.3.2h.7l.6.1h.7s.2 0 .5.1l.5-.2c-.1 0 0 .1.5.1H227.7c.1 0 .3 0 .6-.1h4.5c.2 0 .4 0 .8-.1h.3c.7.1 1.9.1 3.6 0h.7c.3 0 .6-.1.6-.3 0 0 0-.1.1-.1 0 0 .2-.2.2-.3.1-.3 0-.5-.1-.7l-.1-.1v.1s0-.1-.1-.3v-.3c-.3 0-.6 0-.7-.1H237.8c-.3-.1-.7-.1-1.2-.1 0 0-.2.1-.5.1-.2 0-.3 0-.4-.1H234c-.1 0-.2.1-.2.1s-.1 0-.2-.1h-4.9c-.1 0-.3-.2-.4-.3v-.7c0-.1-.3-.3-.3-.6V34.7c0-.6-.1-1-.1-1 0-.2 0-.4.2-.7.1 0 .5-.1.5-.1h.1c.5 0 .9.1 1.2 0H232.2l.7-.1c.2 0 .6.1.8.1h4.3c.1 0 .2 0 .3.1h.1l.2.1c.2 0 .4 0 .7.1.1 0 .2.1.4.2 0 0 .1.1.3.1l.1.1s.1.2.3.3c.2.1.5.4.8.9.1.1.3.5.4.7v.2s.1.2.1.4V36.7s.1.3.1 1.4c0 .6 0 1.4-.2 2.3 0 .2-.2.5-.4 1.1 0 0 0 .1-.1.1v.1l-.1.1c-.1.1-.4.5-.9 1-.1 0-.3.2-.5.4-.1 0-.2 0-.4.2-.1 0-.2.2-.6.2h-.2l-.4.2h-.8c-.7 0-1.2.1-1.6.1H220.2l-2 .1c-.2 0-.7-.1-1-.1-.1 0-.4 0-.8.1h-.6v-.1l-.1-.1c-.3 0-.5 0-.7-.2l-.4.1s-.1 0-.3-.1h-.1s-.2-.2-.5-.3c-.1 0-.3-.7-.5-1h-.2l-.2-.6c0-.1-.3-.2-.3-.3 0-.1 0-.2.1-.3l-.2-1c-.1 0-.2-.5-.3-1.3v-.7c0-.2 0-.6.1-1.1v-.6c0-.2.3-.3.3-.3s0-.1.2-.5c.1 0 .2-.2.2-.7 0 0 .1-.3.1-.5h.2c.1 0 .1 0 .1-.1 0-.3.1-.5.2-.6.1 0 .3 0 .6-.1l.2-.2s.1 0 .2-.1c.2-.2.4-.3.7-.3.1 0 .3 0 .5.1 0 0 .3-.1.9-.2h4.9c0-.1 0-.1.1-.1zM227.9 18.9H228.7c.6.1 1.1.1 1.6 0h7.6s.2 0 .4.1h.1s.1 0 .2.1c0 0 .1 0 .3.1l.6.1h.1c.3 0 .4 0 1.3.7 0 .1.2.2.3.3l.8 1.1V21.7s0 .1.1.3c.2.8.3 1.5.3 2.1 0 .2 0 .6-.1 1v.2l-.2 1c0 .2 0 .4-.1.4l-.1.1v.1l-.2.3v.2h-.1v.2l-.1.1-.1.1c0 .2-.7.8-.9 1h-.1l-.2.1h-.2v.1h-.2c-.1.1-.2.3-.4.3 0 0-.4 0-1.1.2H234.5l-.9.1H231.7c-.1 0-.3-.1-.3-.1-.1 0-.3 0-.5.1l-.4.1h-4.7c-.5 0-.9-.1-1.2 0-.1 0-.4 0-.8.1h-4.4c-.2 0-.4-.1-.5-.1-.2 0-.7.1-.8.1h-1c-.5 0-1 0-1.5-.2l-1-.2c-.2-.3-.3-.3-1-.6 0 0-.2-.2-.6-.5 0 0-.1 0-.2-.1 0-.1-.1-.3-.2-.6l-.1-.4c-.1-.3-.3-.7-.4-1.2V22.5h.1l.2-.7.1-.1c0-.2.2-.4.3-.7l.1-.2.2-.2.1-.1v-.1c.1 0 .3-.2.4-.3l.5-.3.6-.2v-.1s.2-.1.5-.2c.1 0 .5-.1 1.1-.3l.8-.1c.2 0 .9.1 1.1.1h2.1s.2-.1.3-.1c0 0 .1 0 .3.1h.8l.1-.1.1.1h.5c.1 0 .2-.1.3-.1 0 0 .2.1.3.1h1.7c.2 0 .9-.1 1.1-.1.2 0 .6.1.8.1.2 0 .7-.1.8-.1-.3-.1-.2 0 .5 0zm8.5 4.3c-.1 0-.2 0-.4-.1h-.1c-.2 0-.8.1-1 .1-.2 0-.5-.1-.7-.1s-.7.1-.8.1c-.9 0-1.3 0-1.2-.1l-1.1.1h-4.3l-.1-.1H224l-.7.1s-.1 0 0-.1c-.1 0-.4.1-.5.1-.2 0-.6 0-1.1-.1-.2 0-.7.1-.8.1h-3.5c-.3-.1-.5-.1-.8 0h-.1c-.7.1-1.1.5-1.2 1.1 0-.2-.1.5.5 1 0 .2.2.3 1.7.3.5 0 1.4 0 2.7.1.5 0 1.6-.1 2-.1h1.6l.7.1h4.8c.2 0 .8.1 1 .1h.6c.4 0 1 0 1.8.1H234.5c.7 0 1.5-.1 2.1 0h1.3l.4-.2c.2-.7.3-1 .3-1 0-.1-.1-.3-.2-.6 0-.2-.3-.2-.9-.7h-.5c-.3 0-.4-.1-.5-.1.4-.2-.2-.1-.1-.1zM213.8.1c.2 0 .5-.1.5 0 0-.1.2-.1.5-.1s.6-.1.8.2c.3 0 .5-.1.8.1h1s.2.1.3.1l.5-.1.4.1h.5c.1 0 .3.1.5.1h1.9l.7-.1.5.1H225.3c.1 0 .1-.1.5-.1-.1 0 .2.1.2-.1 0 0 .3 0 .3-.1h1.3c.1 0 .5.1.7.1l1.5-.1c.2 0 .4.1.7.1h.5c.1 0 .4 0 .7.1.2 0 .6-.1.7-.1H239.8v.1-.1h2.2c.1 0 .2 0 .2.1 0 .2.1.3 0 .2V1s0 .2.1.3V4.2s0 .1-.1.2l-.3.1h-.8c-.2 0-.6-.1-.8-.1h-1.8c-.7 0-1.5 0-2.3.1h-1.9c-.3 0-.4-.1-.3-.1 0 0-.3.1-.4.1l-.9-.1H227s-.2-.1-.3-.1c-.1 0-.3.1-.5.1h-1.6c-.3 0-1.1-.1-2.2-.2H219.9c-.1-.2-.3-.2-.4-.2h-.1c0 .1-.1.1-.1.1 0 .2-.2.3-.6.2 0 .1-.1.2-.2.3 0 .1.2.1.2.2l.1-.4c.5 0 .8 0 1 .1h.6c.3 0 .6.1.7.1H223.3s.3.1.7.1h.4l1 .2h.3c.3 0 .7.1 1.5.2h.2s.1.1.3.1h1.5l1.8.2.9.2h1.5l.4.1h.6s.2.1.3.1c.3 0 .6 0 1.1.1l1.3.2h1.2c.7 0 1 0 .8.1.3 0 .7.1 1.2.2h.9c.1 0 .4 0 .9.1 0 .1.1.3.2.6v.8l.1.5v1c.1.5-.7.7-2.2.7h-.4c-.3.1-.9.2-1.9.3h-.1c-.2 0-.5 0-.8.1 0 0-.1.1-.1 0-.3.1-.6.1-1.2.1h-.8l-.4.1h-1.3l-1.9.2s-.1-.1-.1 0H230l-1 .2h-.4c-.1 0-.3 0-.6.1h-.5l-.7.1h-.6c-.1 0-.2.2-.3.1h-.1l-.6.1h-1c-.1.1-.4 0-.7.1 0 0-.3.1-.6.1h-.5c-.5-.1-1-.2-1.2.1-.1 0-.2.1-.6.1h-.3c-.1 0-.3 0-.6.2h-.2s-.1 0-.1.1 0 .1.1.1v.1s.1 0 .2-.1h1l.2-.2c.1 0 .2 0 .2-.1.1 0 .3.1.5.2h2.6l.1-.1h.1l.6-.1h1.4l1.8.1H234.8c.1 0 .3 0 .5.1h4.4s.3 0 .7-.1h.7c.4 0 .5.1.5.1h.4c.2.2.3.8.3 1.6v1l-.2 1c-.2.1-.4.1-.7.1H239.7s-.3-.1-.7-.1h-1.9c-.1.1-.1.1-.2 0 0 0-.6 0-1.8-.1h-3.7c-.6 0-1.1 0-1.7.1-.2-.1-.6-.1-1 0H223.1l-.5.1h-1.4c-.3 0-.9 0-1.6.1H212.5l-.3-.3v-.3s0-.1-.1-.2V9.7s.4-.2 1-.4h1s.1 0 .2-.1l2.2-.3h1.4v-.1h.9c.2 0 .4-.1.8-.2h1c.1 0 .3 0 .6-.1h.9c.8.1 1.5.1 1.9.1 0 0 .1 0 0 0h.4l.2-.1.2.1h.1v-.3h-.1l-.1.1c-.1 0 0-.2-.3-.2H222.8c-.8.1-1.6.1-2.1 0h-.6l-.7-.2h-.5s-.1 0-.3-.1c-.3 0-.7 0-1.3-.1l-.2-.1c-.3 0-1.1-.1-2.3-.2-.1 0-.3 0-.5-.2h-1.2c-.3 0-.9 0-.9-.4 0 .3-.1-.3 0-1.1V2.6s-.1-1.4 0-1.7c.1-.3.4-.6.7-.6.1 0 .3-.1.7 0-.2-.1.1-.2.2-.2zM254.6 4.6c0 2.6-2 4.6-4.7 4.6-2.6 0-4.7-2-4.7-4.6 0-2.5 2.1-4.6 4.7-4.6s4.7 2.1 4.7 4.6zm-8.3 0c0 2 1.5 3.7 3.6 3.7 2 0 3.5-1.6 3.5-3.6S251.9 1 249.9 1c-2.1 0-3.6 1.6-3.6 3.6zm2.9 2.4h-1.1V2.4c.4-.1 1-.1 1.8-.1.9 0 1.3.1 1.6.3.3.2.4.6.4 1 0 .5-.4.9-.9 1.1v.1c.4.2.7.5.8 1.1.1.7.2 1 .3 1.1H251c-.1-.2-.2-.6-.4-1.1-.1-.5-.4-.7-.9-.7h-.5V7zm0-2.6h.5c.6 0 1.1-.2 1.1-.7 0-.4-.3-.7-1-.7-.3 0-.5 0-.6.1v1.3z"/></svg>