<svg xmlns="http://www.w3.org/2000/svg" viewBox="0 0 431 335" enable-background="new 0 0 431 335"><style type="text/css">.st0{fill:#FFFFFF;} .st1{fill:#5592D7;} .st2{opacity:0.5;fill:url(#SVGID_1_);}</style><path class="st0" d="M98 31.7L3.7 126.1c-2.2 2.2-2.2 5.7 0 7.9L65 195.2c2.2 2.2 5.7 2.2 7.9 0l94.3-94.3c2.2-2.2 2.2-5.7 0-7.9l-61.3-61.3c-2.2-2.1-5.7-2.1-7.9 0z"/><path class="st1" d="M98 31.7L3.7 126.1c-2.2 2.2-2.2 5.7 0 7.9L65 195.2c2.2 2.2 5.7 2.2 7.9 0l94.3-94.3c2.2-2.2 2.2-5.7 0-7.9l-61.3-61.3c-2.2-2.1-5.7-2.1-7.9 0zm-80.5 88.4c1.3-1.3 3.4-1.3 4.7 0 1.3 1.3 1.3 3.4 0 4.7-1.3 1.3-3.4 1.3-4.7 0-1.3-1.2-1.3-3.3 0-4.7zm-7.4 7.5c1.3-1.3 3.4-1.3 4.7 0 1.3 1.3 1.3 3.4 0 4.7-1.3 1.3-3.4 1.3-4.7 0-1.3-1.3-1.3-3.4 0-4.7zM164.8 97l-95.9 95.9-54.2-54.2 95.9-95.9L164.8 97zM29.6 117.5c-1.3 1.3-3.4 1.3-4.7 0-1.3-1.3-1.3-3.4 0-4.7 1.3-1.3 3.4-1.3 4.7 0 1.3 1.2 1.3 3.4 0 4.7z"/><path class="st0" d="M188 2.9L64.8 54c-2.8 1.2-4.2 4.4-3 7.3l33.2 80c1.2 2.8 4.4 4.2 7.3 3l123.2-51.1c2.8-1.2 4.2-4.4 3-7.3l-33.2-80c-1.2-2.8-4.5-4.2-7.3-3z"/><path class="st1" d="M188 2.9L64.8 54c-2.8 1.2-4.2 4.4-3 7.3l33.2 80c1.2 2.8 4.4 4.2 7.3 3l123.2-51.1c2.8-1.2 4.2-4.4 3-7.3l-33.2-80c-1.2-2.8-4.5-4.2-7.3-3zM79.8 53.8c1.7-.7 3.7.1 4.4 1.8.7 1.7-.1 3.7-1.8 4.4-1.7.7-3.7-.1-4.4-1.8-.7-1.8.1-3.7 1.8-4.4zm-9.7 4c1.7-.7 3.7.1 4.4 1.8s-.1 3.7-1.8 4.4-3.7-.1-4.4-1.8c-.7-1.8.1-3.7 1.8-4.4zm154.7 31L99.5 140.7 70.1 69.8l125.3-51.9 29.4 70.9zM92 55.9c-1.7.7-3.7-.1-4.4-1.8-.7-1.7.1-3.7 1.8-4.4 1.7-.7 3.7.1 4.4 1.8.7 1.8-.1 3.7-1.8 4.4z"/><path class="st0" d="M282.2 10.7H148.8c-3.1 0-5.6 2.5-5.6 5.6V103c0 3.1 2.5 5.6 5.6 5.6h133.4c3.1 0 5.6-2.5 5.6-5.6V16.3c0-3.1-2.5-5.6-5.6-5.6z"/><path class="st1" d="M282.2 10.7H148.8c-3.1 0-5.6 2.5-5.6 5.6V103c0 3.1 2.5 5.6 5.6 5.6h133.4c3.1 0 5.6-2.5 5.6-5.6V16.3c0-3.1-2.5-5.6-5.6-5.6zm-119.5 5.6c1.8 0 3.3 1.5 3.3 3.3 0 1.8-1.5 3.3-3.3 3.3-1.8 0-3.3-1.5-3.3-3.3 0-1.8 1.5-3.3 3.3-3.3zm-10.5 0c1.8 0 3.3 1.5 3.3 3.3 0 1.8-1.5 3.3-3.3 3.3s-3.3-1.5-3.3-3.3c0-1.8 1.5-3.3 3.3-3.3zm131.1 87.8H147.7V27.4h135.6v76.7zM173.2 22.9c-1.8 0-3.3-1.5-3.3-3.3 0-1.8 1.5-3.3 3.3-3.3s3.3 1.5 3.3 3.3c0 1.8-1.5 3.3-3.3 3.3z"/><path class="st0" d="M366.2 54L243 2.9c-2.8-1.2-6.1.2-7.3 3L202.5 86c-1.2 2.8.2 6.1 3 7.3l123.2 51.1c2.8 1.2 6.1-.2 7.3-3l33.2-80.1c1.2-2.9-.2-6.2-3-7.3z"/><path class="st1" d="M366.2 54L243 2.9c-2.8-1.2-6.1.2-7.3 3L202.5 86c-1.2 2.8.2 6.1 3 7.3l123.2 51.1c2.8 1.2 6.1-.2 7.3-3l33.2-80.1c1.2-2.9-.2-6.2-3-7.3zM253.7 13.4c1.7.7 2.5 2.7 1.8 4.4-.7 1.7-2.7 2.5-4.4 1.8s-2.5-2.7-1.8-4.4 2.7-2.5 4.4-1.8zm-9.7-4c1.7.7 2.5 2.7 1.8 4.4s-2.7 2.5-4.4 1.8c-1.7-.7-2.5-2.7-1.8-4.4s2.7-2.6 4.4-1.8zm87.5 131.3L206.2 88.8l29.4-70.9 125.3 51.9-29.4 70.9zM260.8 23.5c-1.7-.7-2.5-2.7-1.8-4.4.7-1.7 2.7-2.5 4.4-1.8 1.7.7 2.5 2.7 1.8 4.4-.7 1.7-2.7 2.5-4.4 1.8z"/><path class="st0" d="M427.3 126.1L333 31.7c-2.2-2.2-5.7-2.2-7.9 0L263.8 93c-2.2 2.2-2.2 5.7 0 7.9l94.3 94.3c2.2 2.2 5.7 2.2 7.9 0l61.3-61.3c2.2-2.1 2.2-5.7 0-7.8z"/><path class="st1" d="M427.3 126.1L333 31.7c-2.2-2.2-5.7-2.2-7.9 0L263.8 93c-2.2 2.2-2.2 5.7 0 7.9l94.3 94.3c2.2 2.2 5.7 2.2 7.9 0l61.3-61.3c2.2-2.1 2.2-5.7 0-7.8zm-88.4-80.6c1.3 1.3 1.3 3.4 0 4.7-1.3 1.3-3.4 1.3-4.7 0-1.3-1.3-1.3-3.4 0-4.7s3.4-1.3 4.7 0zm-7.4-7.4c1.3 1.3 1.3 3.4 0 4.7s-3.4 1.3-4.7 0-1.3-3.4 0-4.7 3.4-1.3 4.7 0zm30.6 154.8L266.2 97l54.2-54.2 95.9 95.9-54.2 54.2zM341.6 57.6c-1.3-1.3-1.3-3.4 0-4.7s3.4-1.3 4.7 0 1.3 3.4 0 4.7c-1.3 1.3-3.4 1.3-4.7 0z"/><linearGradient id="SVGID_1_" gradientUnits="userSpaceOnUse" x1="217.105" y1="332.52" x2="217.105" y2="138.695"><stop offset="0" stop-color="#5592D7" stop-opacity="0"/><stop offset="1" stop-color="#5592D7"/></linearGradient><path class="st2" d="M17.7 283.1c3.8 1.3 7.8.7 11-1.3l31.6 41c-1.5 1.4-2.7 3.1-3.4 5.1-.5 1.5-.7 3.1-.7 4.7H82c0-1.8-.3-3.5-.9-5.1l49.8-25.6c1.5 2.3 3.7 4.2 6.6 5.2 1.2.4 2.5.6 3.7.6l1.6 24.9h2.6l-1.6-25c2.4-.4 4.7-1.5 6.5-3.1l30.9 28.2h3.8l-33-30.1c.8-1 1.4-2.2 1.9-3.4l.3-1.2 73 9.8c-.2 5.5 3.1 10.8 8.6 12.7.8.3 1.6.4 2.3.6l-.6 11.7h2.6l.5-11.6c3.2-.2 6.1-1.5 8.3-3.7l18.5 15.3h4.1l-20.9-17.3c.6-.9 1.2-1.9 1.5-3 1-2.9.9-5.9-.1-8.6l52.4-25.2c1.5 2.5 3.8 4.5 6.8 5.5.5.2 1 .3 1.5.4l-5.3 48.2h2.6l5.3-47.9c3.3 0 6.4-1.2 8.8-3.4l50.4 44.8c-.7 1-1.4 2.1-1.8 3.3-.4 1.1-.6 2.1-.7 3.2h25.8c-.4-4.6-3.2-8.8-7.7-10.8l19.2-58.8c6.3 1.4 12.8-2.1 15-8.4 2.3-6.8-1.2-14.1-8-16.5-5.3-1.8-10.9 0-14.2 4.1l-65.5-43.3c.3-.6.6-1.1.8-1.8 2.3-6.8-1.2-14.1-8-16.5-6.6-2.3-13.7 1.1-16.2 7.5l-123.1-34.4c1.1-6.1-2.4-12.3-8.5-14.4-6.8-2.3-14.1 1.2-16.5 8-1.4 3.9-.7 8.1 1.4 11.3l-51.6 41.8c-1.3-1.3-3-2.4-4.9-3.1-6.8-2.3-14.1 1.2-16.5 8-1.3 3.7-.7 7.5 1.1 10.7l-63.4 46.2c-1.4-1.6-3.2-2.9-5.4-3.6-6.8-2.3-14.1 1.2-16.5 8-2 6.6 1.6 13.9 8.4 16.3zm210.2 20.7l-.3 1.2-73-9.8c.1-2.6-.6-5.1-1.9-7.2l54.3-41.8c1.4 1.5 3.1 2.7 5.1 3.4 2.4.8 4.8.9 7.1.4l15.6 46.3c-3.1 1.3-5.7 4-6.9 7.5zm23.2-2.5c-1.5-2.5-3.8-4.5-6.8-5.5-2.4-.8-4.8-.9-7.1-.4l-15.6-46.3c2.8-1.3 5.1-3.5 6.4-6.4l75 26c-.6 2.5-.4 5.1.4 7.4l-52.3 25.2zm156-39.2l-19.2 58.8c-4.2-.9-8.4.3-11.5 3.1L326 279.2c.7-1 1.4-2.1 1.8-3.3.7-1.9.8-3.9.6-5.7l71.6-15.8c1.2 3.4 3.7 6.2 7.1 7.7zm-71.7-61l65.5 43.3c-.3.6-.6 1.1-.8 1.8-.7 1.9-.8 3.9-.6 5.7l-71.6 15.8c-1.2-3.7-4-6.8-8-8.2-.5-.2-.9-.2-1.4-.3l6.6-53.4c4 .1 7.8-1.7 10.3-4.7zM314 199c1.5 2.8 3.9 5.1 7.2 6.2.5.2.9.2 1.4.3l-6.6 53.4c-5-.1-9.8 2.7-12 7.5l-75.1-26c.5-2.2.5-4.5-.2-6.5L314 199zm-124.4-42.7l123.1 34.4c-.3 2-.2 4 .3 5.9l-85.2 34.7c-1.5-2.8-3.9-5.1-7.2-6.2-2.8-1-5.7-.9-8.3 0L184 162.8c2.5-1.4 4.5-3.6 5.6-6.5zm-21.2 4.4c1.4 1.4 3 2.5 4.9 3.2 2.8 1 5.7.9 8.3 0l28.2 62.4c-2.5 1.5-4.6 3.7-5.6 6.7l-85.4-21.5c.4-3.2-.4-6.3-2.1-8.9l51.7-41.9zm-50.1 53.2l85.4 21.5c-.5 3.1.2 6.2 1.8 8.8L151.2 286c-1.4-1.5-3.1-2.7-5.1-3.4-2.7-.9-5.5-.9-8-.1L112.3 221c2.6-1.6 4.8-4 6-7.1zm-8.5 8l25.8 61.5c-2.7 1.5-5 3.9-6.1 7.1-1 3-.9 6.2.2 8.9L80 325.1c-1.4-2.1-3.4-3.9-5.9-4.9l29.5-98c2.1.5 4.2.3 6.2-.3zm-75.7 53.2c1.3-3.7.7-7.6-1.1-10.7l63.4-46.2c1.3 1.4 2.8 2.6 4.7 3.4l-29.5 98c-3.3-.6-6.5 0-9.3 1.7l-31.6-41c1.5-1.5 2.7-3.2 3.4-5.2z"/></svg>