<svg xmlns="http://www.w3.org/2000/svg" xmlns:xlink="http://www.w3.org/1999/xlink" viewBox="0 0 570 360" enable-background="new 0 0 570 360"><style type="text/css">.st0{fill:#232323;} .st1{fill:#99BBE1;} .st2{fill:#434343;} .st3{fill:#C8C7CA;} .st4{fill:#FFFFFF;} .st5{fill:#5790CC;} .st6{fill:#2A5788;} .st7{fill:#E9E9E9;} .st8{opacity:0.1;} .st9{opacity:0.54;} .st10{fill:#010101;} .st11{clip-path:url(#SVGID_2_);fill:#EC5F52;} .st12{opacity:0.2;clip-path:url(#SVGID_2_);} .st13{fill:#FFFFFF;stroke:#FFFFFF;stroke-width:2;stroke-miterlimit:10;enable-background:new ;} .st14{fill:#FFFFFF;enable-background:new ;} .st15{fill:none;stroke:#FFFFFF;stroke-width:2;stroke-miterlimit:10;} .st16{fill:none;stroke:#FFFFFF;stroke-width:5.1231;stroke-miterlimit:10;} .st17{clip-path:url(#SVGID_4_);fill:#4D4C4D;} .st18{opacity:0.2;clip-path:url(#SVGID_4_);} .st19{opacity:0.8;} .st20{fill:none;stroke:#000000;stroke-width:0.8889;stroke-miterlimit:10;}</style><symbol id="New_Symbol_1" viewBox="-111 -70.5 222 141"><path class="st0" d="M96-61.5H-96v127c0 2.8 2.2 5 5 5H91c2.8 0 5-2.2 5-5v-127z"/><path class="st1" d="M87-46.5H-87v102H87z"/><path class="st2" d="M16.5-55.5V-57c0-1.7-1.3-3-3-3h-27c-1.7 0-3 1.3-3 3v1.5H-111V-63c0-4.1 3.4-7.5 7.5-7.5h207c4.1 0 7.5 3.4 7.5 7.5v7.5H16.5z"/><path class="st0" d="M-6-65.2c0-2.1-1.7-3.8-3.8-3.8s-3.8 1.7-3.8 3.8c0 2.1 1.7 3.7 3.8 3.7S-6-63.2-6-65.2zM4.5-65.2c0-2.1-1.7-3.8-3.8-3.8S-3-67.3-3-65.2c0 2.1 1.7 3.7 3.8 3.7s3.7-1.7 3.7-3.7zM15-65.2c0-2.1-1.7-3.8-3.8-3.8s-3.8 1.7-3.8 3.8c0 2.1 1.7 3.7 3.8 3.7s3.8-1.7 3.8-3.7z"/><path class="st3" d="M13.5-65.2c0-1.2-1-2.3-2.3-2.3S9-66.5 9-65.2C9-64 10-63 11.2-63s2.3-1 2.3-2.2zM3-65.2c0-1.2-1-2.3-2.3-2.3s-2.3 1-2.3 2.3c0 1.2 1 2.2 2.3 2.2S3-64 3-65.2zM-7.5-65.2c0-1.2-1-2.3-2.3-2.3s-2.3 1-2.3 2.3c0 1.2 1 2.2 2.3 2.2s2.3-1 2.3-2.2z"/><path class="st0" d="M-9-66h-1.5v1.5H-9zM1.5-66H0v1.5h1.5zM12-66h-1.5v1.5H12z"/><path id="XMLID_80_" class="st4" d="M39.8 8.1C37.6 30 17.9 46-4 43.8-26 41.6-42 22-39.8 0-37.6-22-17.9-38 4-35.8c22 2.3 38 21.9 35.8 43.9z"/><path class="st1" d="M7.3 9.4v-26.1L-14.7-4c-6.5 3.8-6 6.1-6.1 11.4L1.8-5.7V6.2l5.5 3.2z"/><path class="st5" d="M1.8-5.7L-20.8 7.4 1.2 20c6.6 3.8 8.3 2.2 12.9-.4l-22.6-13L1.8.6v-6.3z"/><path class="st6" d="M-8.5 6.6l22.6 13.1V-5.7c0-7.6-2.3-8.3-6.8-11V9.4L-3 3.4l-5.5 3.2z"/></symbol><symbol id="New_Symbol_2" viewBox="-229 -149.8 457.9 299.5"><image width="1908" height="1248" xlink:href="EAE328A6.png" transform="matrix(.24 0 0 -.24 -228.96 149.76)" overflow="visible" opacity=".25"/><path class="st7" d="M209.9-126.3l-419.7-.2-.2 261 419.7.3z"/><path d="M209.7 134.8l.1-261.1-419.7-.2-.1 261.1 419.7.2m1 1h-1l-419.7-.2h-1v-1l.1-261.1v-1h1l419.7.2h1v1l-.1 261.1v1z" class="st8"/><image width="638" height="346" xlink:href="EAE328AA.png" transform="matrix(.24 0 0 -.24 3.445 31.696)" overflow="visible" opacity=".25"/><path class="st4" d="M151.4-47.1L8.5-47.2c-1.1 0-2 .9-2 2v72.8c0 1.1.9 2 2 2l142.9.1c1.1 0 2-.9 2-2v-72.8c0-1.1-.9-2-2-2z"/><g class="st9"><path class="st10" d="M15.1-35.1l1.7-4.1 1.7 4.1h.9v-5.1h-.7v2l.1 2.1-1.8-4.1h-.5l-1.7 4.1.1-2.1v-2h-.7v5.1h.9zM22.7-40.1c0 .1-.1.2-.1.4-.3-.3-.7-.5-1.1-.5-.4 0-.7.1-.9.3-.2.2-.4.5-.4.8 0 .4.1.7.4.9.3.2.7.3 1.3.3h.6v.3c0 .2-.1.4-.2.5-.1.1-.3.2-.6.2-.2 0-.4-.1-.6-.2-.2-.1-.2-.3-.2-.4h-.6c0 .2.1.4.2.5.1.2.3.3.5.4s.5.2.8.2c.4 0 .8-.1 1-.3.2-.2.4-.5.4-.9v-1.7c0-.3 0-.6.1-.8v-.1l-.6.1zm-1.1.4c.2 0 .4.1.6.2.2.1.3.2.4.4v.8h-.5c-.8 0-1.2-.2-1.2-.7 0-.2.1-.4.2-.5.2-.1.3-.2.5-.2zM24.9-36.4v-.5c.3.4.7.5 1.1.5.8 0 1.2-.4 1.2-1.3v-2.5h-.6v2.5c0 .3-.1.5-.2.6-.1.1-.3.2-.6.2-.2 0-.4-.1-.5-.2-.2-.1-.3-.3-.4-.4v-2.7h-.6v3.8h.6zM30.5-40.1c0 .1-.1.2-.1.4-.3-.3-.7-.5-1.1-.5-.4 0-.7.1-.9.3-.2.2-.4.5-.4.8 0 .4.1.7.4.9.3.2.7.3 1.3.3h.6v.3c0 .2-.1.4-.2.5-.1.1-.3.2-.6.2-.2 0-.4-.1-.6-.2-.2-.1-.2-.3-.2-.4h-.6c0 .2.1.4.2.5.1.2.3.3.5.4s.5.2.8.2c.4 0 .8-.1 1-.3.2-.2.4-.5.4-.9v-1.7c0-.3 0-.6.1-.8v-.1l-.6.1zm-1 .4c.2 0 .4.1.6.2.2.1.3.2.4.4v.8H30c-.8 0-1.2-.2-1.2-.7 0-.2.1-.4.2-.5.1-.1.3-.2.5-.2zM31.9-38.2c0 .6.1 1.1.4 1.4.3.3.6.5 1.1.5.5 0 .8-.2 1.1-.5v.4h.6v-3.7c0-.5-.1-.9-.4-1.2-.3-.3-.7-.4-1.2-.4-.3 0-.5.1-.8.2-.3.1-.5.3-.6.5l.3.4c.3-.3.6-.5 1-.5.3 0 .6.1.7.3.2.2.3.4.3.7v.3c-.3-.3-.6-.4-1.1-.4-.4 0-.8.2-1.1.5-.1.4-.3.9-.3 1.5zm.7-.1c0-.4.1-.8.3-1 .2-.2.4-.4.7-.4.4 0 .7.2.9.6v1.7c-.2.4-.5.5-.9.5-.3 0-.6-.1-.7-.4-.2-.2-.3-.5-.3-1zM37.7-40.2c-.5 0-.9.2-1.2.5-.3.3-.5.8-.5 1.3v.1c0 .4.1.7.2 1 .1.3.3.5.6.7.3.2.5.2.8.2.5 0 .9-.2 1.1-.5.3-.3.4-.8.4-1.4v-.3h-2.6c0-.4.1-.7.3-.9s.5-.3.8-.3c.2 0 .4 0 .6.1s.3.2.4.4l.4-.3c-.2-.4-.7-.6-1.3-.6zm-.1 3.4c-.3 0-.5-.1-.7-.3-.2-.2-.3-.5-.3-.8h1.9c0 .3-.1.6-.3.8-.1.2-.4.3-.6.3zM42.8-38.5l.1-.7.1.6 1 3.5h.6l1-3.5.1-.6.1.7.8 3.5h.7l-1.2-5.1h-.6l-1 3.7-.1.4-.1-.4-1.1-3.7h-.6L41.4-35h.6l.8-3.5zM49.4-40.2c-.5 0-.9.2-1.2.5-.3.3-.5.8-.5 1.3v.1c0 .4.1.7.2 1s.3.5.6.7c.3.2.5.2.8.2.5 0 .9-.2 1.1-.5s.4-.8.4-1.4v-.3h-2.6c0-.4.1-.7.3-.9.2-.2.5-.3.8-.3.2 0 .4 0 .6.1.2.1.3.2.4.4l.4-.3c-.2-.4-.6-.6-1.3-.6zm-.1 3.4c-.3 0-.5-.1-.7-.3-.2-.2-.3-.5-.3-.8h1.9c0 .3-.1.6-.3.8-.1.2-.3.3-.6.3zM54.8-38.3c0-.6-.1-1-.4-1.4-.3-.4-.6-.5-1.1-.5-.5 0-.8.2-1.1.5v-.4h-.6v5.4h.6v-2c.3.3.6.5 1.1.5.5 0 .8-.2 1.1-.5.3-.5.4-.9.4-1.6zm-.6.1c0 .4-.1.8-.3 1-.2.2-.4.4-.7.4-.4 0-.7-.2-.9-.6V-39c.2-.4.5-.6.9-.6.3 0 .5.1.7.4s.3.5.3 1zM57.8-39.1c0 .2-.1.3-.2.4-.1.1-.4.2-.7.2-.3.1-.6.2-.8.3-.2.1-.3.2-.4.3s-.1.3-.1.5c0 .3.1.6.4.8.3.2.6.3 1 .3s.8-.1 1-.3c.3-.2.4-.5.4-.8h-.6c0 .2-.1.3-.2.5-.2.1-.3.2-.6.2-.2 0-.4-.1-.6-.2-.1-.1-.2-.2-.2-.4s.1-.3.2-.4.3-.2.7-.2c.3-.1.6-.2.8-.3s.3-.2.4-.4.1-.3.1-.5c0-.3-.1-.6-.4-.8-.3-.2-.6-.3-1-.3-.3 0-.6.1-.8.2-.2.1-.4.3-.5.4-.1.2-.2.4-.2.6h.6c0-.2.1-.4.3-.5.2-.1.4-.2.6-.2.2 0 .4 0 .6.1s.2.3.2.5zM59.3-35.4c0 .1 0 .2.1.3.1.1.2.1.3.1.1 0 .2 0 .3-.1.1-.1.1-.2.1-.3s0-.2-.1-.3c-.1-.1-.2-.1-.3-.1-.1 0-.2 0-.3.1 0 .1-.1.2-.1.3zm.7-4.7h-.6v3.8h.6v-3.8zM61.9-35.4v-.9h.7v-.5h-.7v-2.3c0-.2 0-.3.1-.3.1-.1.2-.1.3-.1h.3v-.5c-.2 0-.3-.1-.5-.1-.3 0-.5.1-.7.3-.1.2-.2.4-.2.7v2.3h-.7v.5h.7v.9h.7zM64.9-40.2c-.5 0-.9.2-1.2.5-.3.3-.5.8-.5 1.3v.1c0 .4.1.7.2 1s.3.5.6.7c.3.2.5.2.8.2.5 0 .9-.2 1.1-.5s.4-.8.4-1.4v-.3h-2.6c0-.4.1-.7.3-.9.2-.2.5-.3.8-.3.2 0 .4 0 .6.1.2.1.3.2.4.4l.4-.3c-.1-.4-.6-.6-1.3-.6zm0 3.4c-.3 0-.5-.1-.7-.3-.2-.2-.3-.5-.3-.8h1.9c0 .3-.1.6-.3.8-.2.2-.4.3-.6.3zM69.4-39.1c0 .2-.1.3-.2.4-.1.1-.4.2-.7.2-.3.1-.6.2-.8.3s-.3.2-.4.3-.1.3-.1.5c0 .3.1.6.4.8.3.2.6.3 1 .3s.8-.1 1-.3.4-.5.4-.8h-.6c0 .2-.1.3-.2.5-.2.1-.3.2-.6.2-.2 0-.4-.1-.6-.2-.1-.1-.2-.2-.2-.4s.1-.3.2-.4.3-.2.7-.2c.3-.1.6-.2.8-.3.2-.1.3-.2.4-.4s.1-.3.1-.5c0-.3-.1-.6-.4-.8-.3-.2-.6-.3-1-.3-.3 0-.6.1-.8.2-.2.1-.4.3-.5.4-.2.2-.3.4-.3.6h.6c0-.2.1-.4.3-.5.2-.1.4-.2.6-.2.2 0 .4 0 .6.1.2.2.3.3.3.5z"/></g><defs><path id="SVGID_1_" d="M153.4-29.1H6.5v56.8c0 1.1.9 2 2 2l142.9.1c1.1 0 2-.9 2-2v-56.9z"/></defs><clipPath id="SVGID_2_"><use xlink:href="#SVGID_1_" overflow="visible"/></clipPath><path class="st11" d="M161.9-45.2l-164.2-.1-.1 81.1 164.3.1z"/><g class="st12"><path class="st13" d="M82 20.3L64.7-10.3M64.7-10.3l1.6-38.8M66.3-49.1l29.3-16.5M95.6-65.6l26.5-19.9M122.1-85.5l39.4 17.9M161.5-67.6l19.1 34.4M180.6-33.2L166-8.2M166-8.2l-11.8 32M154.2 23.8l-39.9 9.7M114.3 33.5L82 20.3M64.7-10.3l25.4-5.5M90.1-15.8L66.3-49.1M66.3-49.1l30.1 6.3M96.4-42.8L95-65.5M95-65.5l30.8 11.4M125.8-54.1l-3.7-31.4M125.8-54.1l26.5 19.9M152.6-34.2L140.1-.6M140.1-.6L166-8.2M166-8.2l-13.4-26M152.6-34.2l28 1M152.6-34.2l8.9-33.5M161.5-67.7l-35.7 13.6M140.1-.6l14.1 24.4M140.1-.6l-29.9 5.2M110.2 4.6l4.1 28.9M110.2 4.6L82 20.3M110.2 4.6L90.1-15.8M90.1-15.8L82 20.3M90.1-15.8l6.3-27M96.4-42.8l29.4-11.3"/><path class="st14" d="M63.5-14.6c-2.3.7-3.7 3.1-3 5.5.7 2.3 3.1 3.7 5.5 3 2.3-.7 3.7-3.1 3-5.5s-3.2-3.7-5.5-3zM65-53.3c-2.3.7-3.7 3.1-3 5.5s3.1 3.7 5.5 3c2.3-.7 3.7-3.1 3-5.5-.7-2.3-3.2-3.7-5.5-3zM92.9-70.1c-2.3.7-3.7 3.1-3 5.5.7 2.3 3.1 3.7 5.5 3 2.3-.7 3.7-3.1 3-5.5-.7-2.3-3.1-3.7-5.5-3zM120.9-89.7c-2.3.7-3.7 3.1-3 5.5.7 2.3 3.1 3.7 5.5 3 2.3-.7 3.7-3.1 3-5.5-.8-2.4-3.2-3.7-5.5-3zM160.2-71.8c-2.3.7-3.7 3.1-3 5.5.7 2.3 3.1 3.7 5.5 3 2.3-.7 3.7-3.1 3-5.5-.7-2.4-3.1-3.7-5.5-3zM178.5-37.2c-2.3.7-3.7 3.1-3 5.5.7 2.3 3.1 3.7 5.5 3 2.3-.7 3.7-3.1 3-5.5-.8-2.3-3.2-3.6-5.5-3zM164.7-12.4c-2.3.7-3.7 3.1-3 5.5.7 2.3 3.1 3.7 5.5 3s3.7-3.1 3-5.5c-.7-2.3-3.2-3.7-5.5-3zM152.9 19.6c-2.3.7-3.7 3.1-3 5.5.7 2.3 3.1 3.7 5.5 3 2.3-.7 3.7-3.1 3-5.5-.7-2.3-3.2-3.7-5.5-3zM113.1 29.3c-2.3.7-3.7 3.1-3 5.5s3.1 3.7 5.5 3c2.3-.7 3.7-3.1 3-5.5-.7-2.4-3.2-3.7-5.5-3zM80.7 16.1c-2.3.7-3.7 3.1-3 5.5s3.1 3.7 5.5 3c2.3-.7 3.7-3.1 3-5.5s-3.1-3.7-5.5-3zM108.3.5c-2.3.7-3.7 3.1-3 5.5s3.1 3.7 5.5 3c2.3-.7 3.7-3.1 3-5.5s-3.1-3.6-5.5-3zM88.9-20.1c-2.3.7-3.7 3.1-3 5.5s3.1 3.7 5.5 3c2.3-.7 3.7-3.1 3-5.5s-3.2-3.6-5.5-3zM117.3-28.3c-2.3.7-3.7 3.1-3 5.5s3.1 3.7 5.5 3 3.7-3.1 3-5.5-3.2-3.7-5.5-3zM95.2-47c-2.3.7-3.7 3.1-3 5.5s3.1 3.7 5.5 3c2.3-.7 3.7-3.1 3-5.5-.8-2.4-3.2-3.7-5.5-3zM124.5-58.3c-2.3.7-3.7 3.1-3 5.5.7 2.3 3.1 3.7 5.5 3 2.3-.7 3.7-3.1 3-5.5-.7-2.4-3.2-3.7-5.5-3zM151.3-38.4c-2.3.7-3.7 3.1-3 5.5s3.1 3.7 5.5 3c2.3-.7 3.7-3.1 3-5.5-.7-2.4-3.2-3.7-5.5-3zM138.9-4.8c-2.3.7-3.7 3.1-3 5.5.7 2.3 3.1 3.7 5.5 3s3.7-3.1 3-5.5c-.8-2.4-3.2-3.7-5.5-3z"/><path class="st13" d="M118.6-24.1l-8.4 28.7"/><path class="st15" d="M118.6-24.1l-28.5 8.3M118.6-24.1L96.4-42.8M118.6-24.1L140.1-.6M118.6-24.1l33.7-10.1"/><path class="st16" d="M118.6-24.1l7.2-30"/><path class="st13" d="M114.3 33.5L140.1-.6"/></g><image width="638" height="346" xlink:href="EAE328AD.png" transform="matrix(.24 0 0 -.24 -156.463 31.606)" overflow="visible" opacity=".25"/><path class="st4" d="M-8.5-47.2l-142.9-.1c-1.1 0-2 .9-2 2v72.8c0 1.1.9 2 2 2l142.9.1c1.1 0 2-.9 2-2v-72.8c0-1.1-.9-2-2-2z"/><g class="st9"><path class="st10" d="M-144.8-35.2l1.7-4.1 1.7 4.1h.9v-5.1h-.7v2l.1 2.1-1.7-4.1h-.5l-1.7 4.1.1-2.1v-2h-.7v5.1h.8zM-137.2-40.2c0 .1-.1.2-.1.4-.3-.3-.7-.5-1.1-.5-.4 0-.7.1-.9.3-.2.2-.4.5-.4.8 0 .4.1.7.4.9.3.2.7.3 1.3.3h.6v.3c0 .2-.1.4-.2.5-.1.1-.3.2-.6.2-.2 0-.4-.1-.6-.2s-.2-.3-.2-.4h-.6c0 .2.1.4.2.5.1.2.3.3.5.4.2.1.5.2.8.2.4 0 .8-.1 1-.3.2-.2.4-.5.4-.9v-1.7c0-.3 0-.6.1-.8v-.1l-.6.1zm-1.1.5c.2 0 .4.1.6.2.2.1.3.2.4.4v.8h-.5c-.8 0-1.2-.2-1.2-.7 0-.2.1-.4.2-.5s.3-.2.5-.2zM-135-36.5v-.5c.3.4.7.5 1.1.5.8 0 1.2-.4 1.2-1.3v-2.5h-.6v2.5c0 .3-.1.5-.2.6-.1.1-.3.2-.6.2-.2 0-.4-.1-.5-.2-.2-.1-.3-.3-.4-.4v-2.7h-.6v3.8h.6zM-129.4-40.2c0 .1-.1.2-.1.4-.3-.3-.7-.5-1.1-.5-.4 0-.7.1-.9.3-.2.2-.4.5-.4.8 0 .4.1.7.4.9.3.2.7.3 1.3.3h.6v.3c0 .2-.1.4-.2.5-.1.1-.3.2-.6.2-.2 0-.4-.1-.6-.2s-.2-.3-.2-.4h-.6c0 .2.1.4.2.5.1.2.3.3.5.4.2.1.5.2.8.2.4 0 .8-.1 1-.3.2-.2.4-.5.4-.9v-1.7c0-.3 0-.6.1-.8v-.1l-.6.1zm-1.1.5c.2 0 .4.1.6.2.2.1.3.2.4.4v.8h-.5c-.8 0-1.2-.2-1.2-.7 0-.2.1-.4.2-.5s.3-.2.5-.2zM-128-38.3c0 .6.1 1.1.4 1.4.3.3.6.5 1.1.5.5 0 .8-.2 1.1-.5v.4h.6v-3.7c0-.5-.1-.9-.4-1.2-.3-.3-.7-.4-1.2-.4-.3 0-.5.1-.8.2-.3.1-.5.3-.6.5l.3.4c.3-.3.6-.5 1-.5.3 0 .6.1.7.3.2.2.3.4.3.7v.3c-.3-.3-.6-.4-1.1-.4-.4 0-.8.2-1.1.5-.1.4-.3.9-.3 1.5zm.7-.1c0-.4.1-.8.3-1 .2-.2.4-.4.7-.4.4 0 .7.2.9.6v1.7c-.2.4-.5.5-.9.5-.3 0-.6-.1-.7-.4-.2-.2-.3-.5-.3-1zM-122.3-40.3c-.5 0-.9.2-1.2.5s-.5.8-.5 1.3v.1c0 .4.1.7.2 1s.3.5.6.7c.3.2.5.2.8.2.5 0 .9-.2 1.1-.5.3-.3.4-.8.4-1.4v-.3h-2.6c0-.4.1-.7.3-.9.2-.2.5-.3.8-.3.2 0 .4 0 .6.1.2.1.3.2.4.4l.4-.3c-.2-.4-.6-.6-1.3-.6zm0 3.4c-.3 0-.5-.1-.7-.3-.2-.2-.3-.5-.3-.8h1.9c0 .3-.1.6-.3.8-.2.2-.4.3-.6.3zM-114.3-40.2h-.7l-2.6 3.9v-3.9h-.7v5.1h.7l2.6-3.9v3.9h.7v-5.1zM-111.6-40.3c-.5 0-.9.2-1.2.5s-.5.8-.5 1.3v.1c0 .4.1.7.2 1 .1.3.3.5.6.7.3.2.5.2.8.2.5 0 .9-.2 1.1-.5.3-.3.4-.8.4-1.4v-.3h-2.6c0-.4.1-.7.3-.9.2-.2.5-.3.8-.3.2 0 .4 0 .6.1s.3.2.4.4l.4-.3c-.2-.4-.7-.6-1.3-.6zm-.1 3.4c-.3 0-.5-.1-.7-.3-.2-.2-.3-.5-.3-.8h1.9c0 .3-.1.6-.3.8-.1.2-.3.3-.6.3zM-108.5-35.5v-.9h.7v-.5h-.7v-2.3c0-.2 0-.3.1-.3.1-.1.2-.1.3-.1h.3v-.5c-.2 0-.3-.1-.5-.1-.3 0-.5.1-.7.3-.1.2-.2.4-.2.7v2.3h-.7v.5h.7v.9h.7zM-103.7-39.3l.7 2.9h.6l-1.1-3.8h-.5l-.9 2.9-.9-2.9h-.5l-1.1 3.8h.6l.7-2.8.9 2.8h.5l1-2.9zM-101.9-38.3c0 .4.1.7.2 1 .1.3.3.5.6.7.3.2.6.2.9.2.5 0 .9-.2 1.2-.5.3-.4.5-.8.5-1.4 0-.4-.1-.7-.2-1s-.3-.5-.6-.7c-.3-.2-.6-.2-.9-.2-.5 0-.9.2-1.2.5-.3.3-.5.8-.5 1.4zm.7-.1c0-.4.1-.8.3-1 .2-.3.5-.4.8-.4.3 0 .6.1.8.4.2.3.3.6.3 1.1 0 .4-.1.7-.3 1-.2.3-.5.4-.8.4-.3 0-.6-.1-.8-.4s-.3-.6-.3-1.1zM-95.8-37h-.3c-.4 0-.7-.2-.9-.5v-2.7h-.6v3.8h.6v-.4c.2.3.5.5.9.5h.3v-.7zM-94.2-38.5l-.4-.4v-1.3h-.6v5.4h.6V-38l.3.4 1.2 1.2h.8l-1.5-1.6 1.6-2.2h-.8l-1.2 1.7zM-89.8-40.2v5.1h1.4c.4 0 .8-.1 1.2-.3.3-.2.6-.5.8-.8s.3-.8.3-1.2v-.3c0-.5-.1-.9-.3-1.3-.2-.4-.4-.6-.8-.8-.3-.2-.7-.3-1.2-.3l-1.4-.1zm.7 4.5v-4h.7c.5 0 .9.2 1.2.5.3.3.4.8.4 1.4v.3c0 .6-.1 1-.4 1.3-.3.3-.7.5-1.2.5h-.7zM-82.8-40.2c0 .1-.1.2-.1.4-.3-.3-.7-.5-1.1-.5-.4 0-.7.1-.9.3-.2.2-.4.5-.4.8 0 .4.1.7.4.9.3.2.7.3 1.3.3h.6v.3c0 .2-.1.4-.2.5-.1.1-.3.2-.6.2-.2 0-.4-.1-.6-.2-.2-.1-.2-.3-.2-.4h-.6c0 .2.1.4.2.5.1.2.3.3.5.4s.5.2.8.2c.4 0 .8-.1 1-.3.2-.2.4-.5.4-.9v-1.7c0-.3 0-.6.1-.8v-.1l-.6.1zm-1.1.5c.2 0 .4.1.6.2.2.1.3.2.4.4v.8h-.5c-.8 0-1.2-.2-1.2-.7 0-.2.1-.4.2-.5.1-.2.3-.2.5-.2zM-80.4-35.5v-.9h.7v-.5h-.7v-2.3c0-.2 0-.3.1-.3.1-.1.2-.1.3-.1h.3v-.5c-.2 0-.3-.1-.5-.1-.3 0-.5.1-.7.3-.1.2-.2.4-.2.7v2.3h-.7v.5h.7v.9h.7zM-76.6-40.2c0 .1-.1.2-.1.4-.3-.3-.7-.5-1.1-.5-.4 0-.7.1-.9.3-.2.2-.4.5-.4.8 0 .4.1.7.4.9.3.2.7.3 1.3.3h.6v.3c0 .2-.1.4-.2.5-.1.1-.3.2-.6.2-.2 0-.4-.1-.6-.2-.2-.1-.2-.3-.2-.4h-.6c0 .2.1.4.2.5.1.2.3.3.5.4s.5.2.8.2c.4 0 .8-.1 1-.3.2-.2.4-.5.4-.9v-1.7c0-.3 0-.6.1-.8v-.1l-.6.1zm-1.1.5c.2 0 .4.1.6.2.2.1.3.2.4.4v.8h-.5c-.8 0-1.2-.2-1.2-.7 0-.2.1-.4.2-.5.1-.2.3-.2.5-.2z"/></g><defs><path id="SVGID_3_" d="M-6.5-29.1l-146.9-.1v56.8c0 1.1.9 2 2 2l142.9.1c1.1 0 2-.9 2-2v-56.8z"/></defs><clipPath id="SVGID_4_"><use xlink:href="#SVGID_3_" overflow="visible"/></clipPath><path class="st17" d="M5.5-35l-170.4-.1v75.2l170.4.1z"/><g class="st18"><path class="st13" d="M-32 17.4l3.5 35M-28.5 52.4l-17 34.8M-45.5 87.2L-79 90.6M-79 90.6l-2.9 7.5M-81.9 98.1l-58.3-32.2M-140.2 65.9l-3.6-39.2M-143.8 26.7l23.5-17M-120.3 9.7l23.7-24.6M-96.6-14.9l40.3 7.2M-56.3-7.7L-32 17.4M-28.5 52.4L-54 47.2M-54 47.2l8.5 40M-45.5 87.2l-25.1-17.8M-70.6 69.4l-7.9 21.3M-78.5 90.7L-102 67.9M-102 67.9l20.1 30.2M-102 67.9L-118.3 39M-118.5 38.9l24.9-25.8M-93.6 13.1l-26.7-3.4M-120.3 9.7l1.8 29.2M-118.5 38.9l-25.3-12.2M-118.5 38.9l-21.7 27M-140.2 65.9l38.2 2M-93.6 13.1l-3-28M-93.6 13.1l29.5 7.4M-64.1 20.5l7.8-28.2M-64.1 20.5l32.1-3.1M-64.1 20.5L-54 47.2M-54 47.2l22-29.8M-54 47.2l-16.6 22.2M-70.6 69.4l-31.4-1.5"/><path class="st14" d="M-29.1 56.8c2.4.3 4.6-1.4 4.9-3.8.3-2.4-1.4-4.6-3.8-4.9s-4.6 1.4-4.9 3.8c-.3 2.4 1.4 4.6 3.8 4.9zM-46.1 91.6c2.4.3 4.6-1.4 4.9-3.8.3-2.4-1.4-4.6-3.8-4.9-2.4-.3-4.6 1.4-4.9 3.8-.3 2.4 1.4 4.6 3.8 4.9zM-49 95.8c2.4.3-24.8-1.4-24.5-3.8.3-2.4-1.4-4.6-3.8-4.9-2.4-.3-4.6 1.4-4.9 3.8-.3 2.3 30.8 4.5 33.2 4.9zM-82.5 102.5c2.4.3 4.6-1.4 4.9-3.8.3-2.4-1.4-4.6-3.8-4.9-2.4-.3-4.6 1.4-4.9 3.8-.3 2.4 1.4 4.6 3.8 4.9zM-140.7 70.2c2.4.3 4.6-1.4 4.9-3.8.3-2.4-1.4-4.6-3.8-4.9-2.4-.3-4.6 1.4-4.9 3.8-.3 2.4 1.4 4.6 3.8 4.9zM-143.4 31.2c2.4.3 4.6-1.4 4.9-3.8s-1.4-4.6-3.8-4.9c-2.4-.3-4.6 1.4-4.9 3.8-.3 2.4 1.4 4.6 3.8 4.9zM-120.9 14c2.4.3 4.6-1.4 4.9-3.8s-1.4-4.6-3.8-4.9c-2.4-.3-4.6 1.4-4.9 3.8-.3 2.4 1.4 4.6 3.8 4.9zM-97.2-10.5c2.4.3 4.6-1.4 4.9-3.8.3-2.4-1.4-4.6-3.8-4.9-2.4-.3-4.6 1.4-4.9 3.8-.3 2.4 1.4 4.6 3.8 4.9zM-56.8-3.3c2.4.3 4.6-1.4 4.9-3.8s-1.4-4.6-3.8-4.9c-2.4-.3-4.6 1.4-4.9 3.8-.4 2.4 1.3 4.6 3.8 4.9zM-32.6 21.8c2.4.3 4.6-1.4 4.9-3.8.3-2.4-1.4-4.6-3.8-4.9-2.4-.3-4.6 1.4-4.9 3.8s1.4 4.6 3.8 4.9zM-64.1 24.9c2.4.3 4.6-1.4 4.9-3.8.3-2.4-1.4-4.6-3.8-4.9-2.4-.3-4.6 1.4-4.9 3.8s1.4 4.6 3.8 4.9zM-54.6 51.6c2.4.3 4.6-1.4 4.9-3.8.3-2.4-1.4-4.6-3.8-4.9-2.4-.3-4.6 1.4-4.9 3.8-.3 2.4 1.4 4.6 3.8 4.9zM-83.9 47.7c2.4.3 4.6-1.4 4.9-3.8s-1.4-4.6-3.8-4.9c-2.4-.3-4.6 1.4-4.9 3.8-.3 2.4 1.4 4.6 3.8 4.9zM-71.1 73.7c2.4.3 4.6-1.4 4.9-3.8.3-2.4-1.4-4.6-3.8-4.9-2.4-.3-4.6 1.4-4.9 3.8-.4 2.4 1.3 4.6 3.8 4.9zM-102.6 72.2c2.4.3 4.6-1.4 4.9-3.8.3-2.4-1.4-4.6-3.8-4.9-2.4-.3-4.6 1.4-4.9 3.8-.3 2.4 1.4 4.6 3.8 4.9zM-119.1 43.2c2.4.3 4.6-1.4 4.9-3.8s-1.4-4.6-3.8-4.9c-2.4-.3-4.6 1.4-4.9 3.8-.3 2.4 1.4 4.6 3.8 4.9zM-94.2 17.5c2.4.3 4.6-1.4 4.9-3.8.3-2.4-1.4-4.6-3.8-4.9-2.4-.3-4.6 1.4-4.9 3.8s1.4 4.6 3.8 4.9z"/><path class="st13" d="M-83.3 43.3l19.2-22.8"/><path class="st15" d="M-83.3 43.3l29.3 3.9M-83.3 43.3l12.7 26.1M-83.3 43.3l-10.3-30.2M-83.3 43.3l-35-4.3M-83.3 43.3L-102 67.9"/><path class="st13" d="M-56.3-7.7l-37.3 20.8"/></g><g class="st19"><path class="st10" d="M-56.7 63.1c0-.8-.3-1.4-.9-1.8-.6-.5-1.3-.7-2.3-.7-1.1 0-2 .1-2.6.4v.6c.7-.3 1.5-.4 2.6-.4.8 0 1.4.2 1.8.5s.7.8.7 1.4c0 .4-.1.6-.2.9-.1.2-.4.4-.7.6-.3.2-.8.4-1.5.6-.9.3-1.6.7-2 1.1-.4.4-.5.9-.5 1.5 0 .7.3 1.3.8 1.7.5.4 1.2.7 2.1.7.9 0 1.7-.2 2.5-.5l-.2-.6c-.8.3-1.5.5-2.2.5-.7 0-1.2-.2-1.6-.5-.4-.3-.6-.7-.6-1.3 0-.3.1-.6.2-.8s.3-.4.6-.6c.3-.2.8-.4 1.5-.6.7-.2 1.3-.5 1.6-.7.4-.2.6-.5.8-.8.1-.4.1-.8.1-1.2zM-50.2 64H-54l-1.3-3.3h-.7l3.7 9.3h.4l3.7-9.3h-.7l-1.3 3.3zm-3.6.5h3.3l-1.3 3.3c-.1.3-.2.6-.4 1.1-.1-.4-.2-.8-.4-1.1l-1.2-3.3zM-46.2 60.7h-.6V70h5.1v-.6h-4.4v-3.9h4.2v-.6h-4.2l-.1-4.2zM-35.3 60.7h-5.1V70h5.1v-.6h-4.4v-3.5h4.2v-.6h-4.2v-4h4.4v-.6zM-23 60.7h-.7l-5.5 8.2h-.1c.1-1 .1-1.7.1-2.2v-6h-.6V70h.6l5.5-8.2c0 .8-.1 1.5-.1 2.2v6.1h.6l.2-9.4zM-17.8 60.6c-1 0-1.8.3-2.3.9-.6.6-.8 1.5-.8 2.6s.3 2 .8 2.6c.5.7 1.3 1 2.2 1 .8 0 1.5-.3 1.9-.9.5-.6.7-1.3.7-2.3V64h-5c0-.9.2-1.7.7-2.2.4-.5 1.1-.7 1.9-.7.4 0 .7 0 1 .1.3.1.7.2 1.1.4V61c-.4-.2-.7-.3-1.1-.3-.3-.1-.7-.1-1.1-.1zm-.2 6.6c-.7 0-1.2-.2-1.6-.7-.4-.4-.6-1.1-.7-1.9h4.3c0 .8-.2 1.4-.5 1.9-.4.4-.9.7-1.5.7zM-11.6 61.1c.4 0 .7 0 1 .1v-.5c-.3-.1-.7-.2-1.1-.2-.6 0-1.1.2-1.4.5-.3.3-.4.8-.4 1.5V67h-1v.4l1 .3.3 1.6h.3v-1.7h2v-.5h-2v-4.4c0-.5.1-.9.3-1.2.3-.2.6-.4 1-.4zM-3.6 60.7l-1.5 4.6c-.1.3-.2.8-.4 1.4l-.1-.5-.3-.9-1.5-4.6H-8l-2 6.9h.7l1.1-4c.3-1 .4-1.7.5-2.2.2 1 .4 1.7.5 2l1.4 4.2h.6l1.4-4.2c.3-1 .5-1.7.6-2 0 .3.2 1 .5 2.2l1.1 4h.6l-1.9-6.9h-.7zM6 64.2c0-1.1-.3-2-.8-2.6-.5-.6-1.3-1-2.3-1-.6 0-1.1.1-1.6.4-.5.3-.8.7-1.1 1.3-.2.5-.4 1.2-.4 1.9 0 1.1.3 2 .8 2.6.7.6 1.4.9 2.4.9.9 0 1.7-.3 2.2-1 .6-.5.8-1.4.8-2.5zm-5.4 0c0-.9.2-1.7.6-2.2.4-.5 1-.8 1.8-.8s1.4.3 1.8.8c.4.5.6 1.3.6 2.2 0 1-.2 1.7-.6 2.2-.4.5-1 .8-1.8.8s-1.3-.3-1.8-.8c-.4-.5-.6-1.3-.6-2.2zM10.7 67.8c.3 0 .6 0 .9-.1l-.1-.6c-.3.1-.6.1-.9.1-.6 0-1.1-.3-1.4-.8-.4-.5-.6-1.1-.6-1.9v-3.8H8v6.9h.5l.1-1.2c.3.5.6.9.9 1.1.3.1.7.2 1.2.3zM13.6 63.7l3.5 3.9h.8l-2.7-2.9 3-4h-.8l-2.6 3.5-1.1-1v-2.5h-.6v9.9h.6v-5l-.1-1.9zM29.9 65.5c0-1.6-.4-2.7-1.2-3.5-.8-.8-2-1.2-3.6-1.2h-2.2v9.3h2.5c1.5 0 2.6-.4 3.4-1.2.7-.8 1.1-2 1.1-3.4zm-.7-.1c0 1.3-.3 2.3-1 3-.7.7-1.7 1-3 1h-1.7v-8.1H25c2.8 0 4.2 1.4 4.2 4.1zM34.7 60.6c-1 0-1.8.3-2.3.9-.6.6-.8 1.5-.8 2.6s.3 2 .8 2.6c.5.7 1.3 1 2.2 1 .8 0 1.5-.3 1.9-.9.5-.6.7-1.3.7-2.3V64h-5c0-.9.2-1.7.7-2.2.4-.5 1.1-.7 1.9-.7.4 0 .7 0 1 .1.3.1.7.2 1.1.4V61c-.4-.2-.7-.3-1.1-.3-.4-.1-.7-.1-1.1-.1zm-.2 6.6c-.7 0-1.2-.2-1.6-.7-.4-.4-.6-1.1-.7-1.9h4.3c0 .8-.2 1.4-.5 1.9-.4.5-.9.7-1.5.7zM47.7 60.7v4.5c0 .7-.1 1.2-.4 1.5-.3.3-.7.5-1.3.5-.7 0-1.2-.2-1.6-.6-.3-.4-.5-1-.5-1.8v-4h-.6v4.7c0 1.2-.5 1.7-1.6 1.7-.7 0-1.3-.2-1.6-.6-.3-.4-.5-1.1-.5-2v-3.8H39v6.9h.5l.1-.9c.2.3.5.6.8.8.4.2.7.3 1.2.3 1.1 0 1.8-.4 2.1-1.2.2.4.5.7.9.9s.8.3 1.3.3c.8 0 1.3-.2 1.7-.6s.6-1 .6-1.9v-4.5l-.5-.2zM56.2 64.2c0-1.1-.3-2-.8-2.6-.5-.6-1.3-1-2.3-1-.6 0-1.1.1-1.6.4-.5.3-.8.7-1.1 1.3s-.4 1.2-.4 1.9c0 1.1.3 2 .8 2.6.5.6 1.3.9 2.2.9.9 0 1.7-.3 2.2-1 .8-.5 1-1.4 1-2.5zm-5.4 0c0-.9.2-1.7.6-2.2.4-.5 1-.8 1.8-.8s1.4.3 1.8.8.6 1.3.6 2.2c0 1-.2 1.7-.6 2.2s-1 .8-1.8.8-1.3-.3-1.8-.8c-.4-.5-.6-1.2-.6-2.2zM62.4 62.5c0-.6-.2-1.1-.7-1.4s-1.1-.5-2-.5c-.9 0-1.7.1-2.2.4v.7c.7-.3 1.4-.5 2.2-.5.7 0 1.2.1 1.6.3.4.2.5.5.5.9 0 .3-.1.6-.4.9-.3.2-.7.5-1.4.7-.7.2-1.2.5-1.5.6-.3.2-.5.4-.6.6-.1.2-.2.5-.2.8 0 .5.2.9.7 1.2.4.3 1 .5 1.8.5.7 0 1.5-.1 2.1-.4l-.3-.5c-.7.3-1.3.4-1.9.4-.6 0-1-.1-1.3-.3-.3-.2-.5-.4-.5-.8s.1-.6.4-.9c.3-.2.8-.5 1.5-.7.6-.2 1.1-.4 1.4-.6.3-.2.5-.4.6-.6.1-.2.2-.5.2-.8z"/></g><g class="st19"><path class="st10" d="M-119.2 49.9h1.5c.7 0 1.2-.1 1.5-.3.3-.2.5-.6.5-1 0-.3-.1-.6-.3-.8-.2-.2-.5-.3-.8-.4.4-.1.7-.2 1-.4.2-.2.3-.5.3-.9 0-.5-.2-.9-.5-1.1-.3-.3-.8-.4-1.4-.4h-1.7l-.1 5.3zm.4-2.4h1.2c.5 0 .9.1 1.1.3.2.2.3.4.3.8s-.1.6-.4.8c-.3.2-.6.2-1.2.2h-1.1l.1-2.1zm0-.4v-2.3h1.3c1 0 1.5.4 1.5 1.2 0 .7-.5 1.1-1.6 1.1h-1.2zM-112.9 44.4c-.6 0-1 .2-1.4.5-.3.4-.5.9-.5 1.5s.2 1.2.5 1.5c.3.4.7.6 1.3.6.5 0 .8-.2 1.1-.5.3-.3.4-.8.4-1.3v-.3h-2.9c0-.6.1-1 .4-1.3.3-.3.6-.4 1.1-.4h.6c.2 0 .4.1.7.2v-.3c-.2-.1-.4-.2-.6-.2h-.7zm-.1 3.8c-.4 0-.7-.1-.9-.4-.2-.3-.4-.6-.4-1.1h2.5c0 .5-.1.8-.3 1.1-.3.3-.6.4-.9.4zM-110 44.5h-.4v5.7h.4v-5.7zM-105.4 46.5c0-.7-.2-1.2-.5-1.5-.3-.4-.8-.6-1.3-.6-.4 0-.7.1-.9.3-.3.2-.5.4-.6.7-.1.3-.2.7-.2 1.1 0 .7.2 1.2.5 1.5s.8.5 1.3.5c.6 0 1-.2 1.3-.6s.4-.8.4-1.4zm-3.1 0c0-.6.1-1 .4-1.3.2-.3.6-.5 1-.5s.8.2 1 .5c.2.3.4.7.4 1.3 0 .6-.1 1-.4 1.3-.2.3-.6.5-1 .5s-.8-.2-1-.5c-.3-.3-.4-.8-.4-1.3zM-101 44.5l-.9 2.7c-.1.2-.1.4-.2.8l-.1-.3-.2-.5-.9-2.7h-.4l-1.1 4h.4l.6-2.3c.1-.6.2-1 .3-1.3.1.6.2 1 .3 1.1l.8 2.4h.3l.8-2.4c.2-.6.3-1 .3-1.1 0 .2.1.6.3 1.3l.6 2.3h.4l-1.1-4h-.2zM-94.4 44.5l-.1.6c-.2-.3-.4-.4-.6-.5-.2-.1-.5-.2-.8-.2-.4 0-.7.1-.9.3s-.3.5-.3.8c0 .4.2.7.5.9.3.2.8.3 1.4.3h.8v.3c0 .4-.1.7-.2.9-.2.2-.4.3-.7.3-.4 0-.8-.1-1.2-.3l-.1.3c.4.2.9.3 1.3.3s.8-.1 1-.3.3-.6.3-1.1v-2.7h-.4zm-1.5.2c.4 0 .8.1 1 .4s.4.6.4 1v.4h-.7c-.6 0-1-.1-1.2-.3-.2-.1-.4-.4-.4-.7 0-.3.1-.4.2-.6.2-.1.5-.2.7-.2zM-91.2 48.6c.2 0 .4 0 .5-.1l-.1-.4c-.2 0-.3.1-.5.1-.3 0-.6-.1-.8-.4-.2-.3-.3-.7-.3-1.1v-2.2h-.4v4h.3v-.7c.2.3.3.5.5.6s.5.2.8.2zM-88.3 44.4c-.6 0-1 .2-1.4.5-.3.4-.5.9-.5 1.5s.2 1.2.5 1.5c.3.4.7.6 1.3.6.5 0 .8-.2 1.1-.5.3-.3.4-.8.4-1.3v-.3h-2.9c0-.6.1-1 .4-1.3.3-.3.6-.4 1.1-.4h.6c.2 0 .4.1.7.2v-.3c-.2-.1-.4-.2-.6-.2h-.7zm-.1 3.9c-.4 0-.7-.1-.9-.4-.2-.3-.4-.6-.4-1.1h2.5c0 .5-.1.8-.3 1.1-.2.2-.5.4-.9.4zM-81.3 45.5c0-.4-.1-.6-.4-.8-.3-.2-.7-.3-1.2-.3s-1 .1-1.3.2v.4c.4-.2.8-.3 1.3-.3.4 0 .7.1.9.2s.3.3.3.5-.1.4-.2.5c-.2.1-.4.3-.8.4-.4.1-.7.3-.8.4-.2.1-.3.2-.4.4-.1.1-.1.3-.1.5 0 .3.1.5.4.7.3.2.6.3 1.1.3.4 0 .8-.1 1.2-.2l-.1-.3c-.4.2-.8.2-1.1.2-.3 0-.6-.1-.8-.2-.2-.1-.3-.3-.3-.5s.1-.4.2-.5c.1-.1.4-.3.9-.4.4-.1.6-.2.8-.4.2-.1.3-.2.4-.4v-.4zM-76.9 46.5c0-.7-.2-1.2-.5-1.5-.3-.4-.8-.6-1.3-.6-.4 0-.7.1-.9.3-.3.2-.5.4-.6.7-.1.3-.2.7-.2 1.1 0 .7.2 1.2.5 1.5.3.4.8.5 1.3.5.6 0 1-.2 1.3-.6.2-.2.4-.7.4-1.4zm-3.2 0c0-.6.1-1 .4-1.3.2-.3.6-.5 1-.5s.8.2 1 .5c.2.3.4.7.4 1.3 0 .6-.1 1-.4 1.3-.2.3-.6.5-1 .5s-.8-.2-1-.5c-.3-.3-.4-.7-.4-1.3zM-70.8 44.5v2.6c0 .4-.1.7-.2.9s-.4.3-.7.3c-.4 0-.7-.1-.9-.3-.2-.2-.3-.6-.3-1.1v-2.3h-.4v2.7c0 .7-.3 1-.9 1-.4 0-.7-.1-.9-.4s-.3-.6-.3-1.2v-2.2h-.4v4h.3l.1-.5c.1.2.3.4.5.5.2.1.4.2.7.2.6 0 1-.2 1.2-.7.1.2.3.4.5.5.2.1.5.2.8.2.4 0 .8-.1 1-.4.2-.2.3-.6.3-1.1v-2.6h-.4zM-67.5 44.4c-.6 0-1 .2-1.4.5-.3.4-.5.9-.5 1.5s.2 1.2.5 1.5c.3.4.7.6 1.3.6.5 0 .8-.2 1.1-.5.3-.3.4-.8.4-1.3v-.3H-69c0-.6.1-1 .4-1.3.3-.3.6-.4 1.1-.4h.6c.2 0 .4.1.7.2v-.3c-.2-.1-.4-.2-.6-.2h-.7zm-.1 3.9c-.4 0-.7-.1-.9-.4-.2-.3-.4-.6-.4-1.1h2.5c0 .5-.1.8-.3 1.1-.3.2-.6.4-.9.4zM-61.6 48.6c.3 0 .5-.1.8-.2.2-.1.4-.3.6-.5v2.3h.4v-5.7h-.2l-.1.6c-.3-.5-.7-.7-1.3-.7-.6 0-1 .2-1.3.5-.3.3-.4.8-.4 1.5s.1 1.2.4 1.6.6.6 1.1.6zm0-.3c-.4 0-.8-.2-1-.5-.2-.3-.3-.8-.3-1.3 0-1.1.4-1.7 1.3-1.7.5 0 .8.1 1 .4s.3.7.3 1.3v.1c0 .6-.1 1.1-.3 1.3-.2.2-.5.4-1 .4zM-56.9 44.4c-.6 0-1 .2-1.4.5-.3.4-.5.9-.5 1.5s.2 1.2.5 1.5c.3.4.7.6 1.3.6.5 0 .8-.2 1.1-.5.3-.3.4-.8.4-1.3v-.3h-2.9c0-.6.1-1 .4-1.3.3-.3.6-.4 1.1-.4h.6c.2 0 .4.1.7.2v-.3c-.2-.1-.4-.2-.6-.2-.3.1-.5 0-.7 0zm-.1 3.9c-.4 0-.7-.1-.9-.4-.2-.3-.4-.6-.4-1.1h2.5c0 .5-.1.8-.3 1.1-.3.2-.6.4-.9.4zM-49.4 44.5v2.6c0 .4-.1.7-.2.9-.2.2-.4.3-.7.3-.4 0-.7-.1-.9-.3-.2-.2-.3-.6-.3-1.1v-2.3h-.4v2.7c0 .7-.3 1-.9 1-.4 0-.7-.1-.9-.4-.2-.2-.3-.6-.3-1.2v-2.2h-.4v4h.3l.1-.5c.1.2.3.4.5.5s.4.2.7.2c.6 0 1-.2 1.2-.7.1.2.3.4.5.5.2.1.5.2.8.2.4 0 .8-.1 1-.4.2-.2.3-.6.3-1.1v-2.6h-.4zM-44.4 46.5c0-.7-.2-1.2-.5-1.5-.3-.4-.8-.6-1.3-.6-.4 0-.7.1-.9.3-.3.2-.5.4-.6.7-.1.3-.2.7-.2 1.1 0 .7.2 1.2.5 1.5.3.4.8.5 1.3.5.6 0 1-.2 1.3-.6.2-.2.4-.7.4-1.4zm-3.2 0c0-.6.1-1 .4-1.3.2-.3.6-.5 1-.5s.8.2 1 .5c.2.3.4.7.4 1.3 0 .6-.1 1-.4 1.3-.2.3-.6.5-1 .5s-.8-.2-1-.5c-.3-.3-.4-.7-.4-1.3zM-43 49.9c-.1-.7-.4-1.3-.6-1.8h-.2c.1.2.1.5.2.9s.1.7.2 1l.4-.1zM-39.7 45.6c0-.4-.1-.6-.4-.8-.3-.2-.7-.3-1.2-.3s-1 .1-1.3.2v.4c.4-.2.8-.3 1.3-.3.4 0 .7.1.9.2s.3.3.3.5-.1.4-.2.5-.4.3-.8.4c-.4.1-.7.3-.8.4-.2.1-.3.2-.4.4-.1.1-.1.3-.1.5 0 .3.1.5.4.7.3.2.6.3 1.1.3.4 0 .8-.1 1.2-.2l-.1-.3c-.4.2-.8.2-1.1.2-.3 0-.6-.1-.8-.2-.2-.1-.3-.3-.3-.4 0-.2.1-.4.2-.5.1-.1.4-.3.9-.4.4-.1.6-.2.8-.4s.3-.2.4-.4c-.1-.2 0-.4 0-.5zM-35.7 44.8c.2 0 .4 0 .6.1v-.3c-.2-.1-.4-.1-.6-.1-.4 0-.6.1-.8.3-.2.2-.3.5-.3.9v2.6h-.6v.2l.6.2.2.9h.2v-1h1.2v-.3h-1.2v-2.5c0-.3.1-.5.2-.7s.3-.3.5-.3zM-30.9 46.5c0-.7-.2-1.2-.5-1.5-.3-.4-.8-.6-1.3-.6-.4 0-.7.1-.9.3-.3.2-.5.4-.6.7-.1.3-.2.7-.2 1.1 0 .7.2 1.2.5 1.5.3.4.8.5 1.3.5.6 0 1-.2 1.3-.6.3-.2.4-.7.4-1.4zm-3.1 0c0-.6.1-1 .4-1.3.2-.3.6-.5 1-.5s.8.2 1 .5c.2.3.4.7.4 1.3 0 .6-.1 1-.4 1.3-.2.3-.6.5-1 .5s-.8-.2-1-.5c-.3-.3-.5-.7-.4-1.3zM-25.3 45.6c0-.4-.1-.6-.4-.8-.3-.2-.7-.3-1.2-.3s-1 .1-1.3.2v.4c.4-.2.8-.3 1.3-.3.4 0 .7.1.9.2.2.1.3.3.3.5s-.1.4-.2.5c-.2.1-.4.3-.8.4-.4.1-.7.3-.8.4-.2.1-.3.2-.4.4-.1.1-.1.3-.1.5 0 .3.1.5.4.7.3.2.6.3 1.1.3.4 0 .8-.1 1.2-.2l-.1-.3c-.4.2-.8.2-1.1.2-.3 0-.6-.1-.8-.2-.2-.1-.3-.3-.3-.5s.1-.4.2-.5c.1-.1.4-.3.9-.4.4-.1.6-.2.8-.4.2-.1.3-.2.4-.4-.1-.1 0-.3 0-.4zM-21.5 44.5v2.6c0 .4-.1.7-.3.9s-.4.3-.8.3c-.5 0-.8-.1-1.1-.4-.2-.2-.3-.6-.3-1.2v-2.2h-.4v5.7h.4v-2.3c.2.2.3.4.6.5.2.1.5.2.9.2.9 0 1.4-.5 1.4-1.5v-2.6h-.4zM-16.5 46.5c0-.7-.2-1.2-.5-1.5-.3-.4-.8-.6-1.3-.6-.4 0-.7.1-.9.3-.3.2-.5.4-.6.7-.1.3-.2.7-.2 1.1 0 .7.2 1.2.5 1.5.3.4.8.5 1.3.5.6 0 1-.2 1.3-.6.2-.2.4-.7.4-1.4zm-3.2 0c0-.6.1-1 .4-1.3.2-.3.6-.5 1-.5s.8.2 1 .5c.2.3.4.7.4 1.3 0 .6-.1 1-.4 1.3-.2.3-.6.5-1 .5s-.8-.2-1-.5c-.3-.3-.4-.7-.4-1.3zM-12.2 44.5l-.9 2.7c-.1.2-.1.4-.2.8l-.1-.3-.2-.5-.9-2.7h-.4l-1.1 4h.4l.6-2.3c.1-.6.2-1 .3-1.3.1.6.2 1 .3 1.1l.8 2.4h.3l.8-2.4c.2-.6.3-1 .3-1.1 0 .2.1.6.3 1.3l.6 2.3h.4l-1.1-4h-.2zM-8.3 44.5c-.6 0-1 .2-1.3.5-.3.4-.5.9-.5 1.5 0 .7.2 1.2.5 1.6.3.4.8.6 1.4.6.3 0 .7-.1 1-.2l-.1-.3c-.3.1-.6.2-.9.2-.5 0-.9-.2-1.1-.5-.3-.3-.4-.7-.4-1.3 0-.5.1-1 .4-1.3.3-.3.6-.5 1.1-.5.4 0 .7.1 1 .2v-.3c-.4-.2-.7-.2-1.1-.2zM-3.9 44.5l-.1.7c-.2-.3-.4-.4-.6-.5-.2-.1-.5-.2-.8-.2-.4 0-.7.1-.9.3s-.3.5-.3.8c0 .4.2.7.5.9.3.2.8.3 1.4.3h.8v.3c0 .4-.1.7-.2.9-.2.2-.4.3-.7.3-.4 0-.8-.1-1.2-.3l-.1.3c.4.2.9.3 1.3.3s.8-.1 1-.3c.2-.2.3-.6.3-1.1v-2.7h-.4zm-1.5.3c.4 0 .8.1 1 .4s.4.6.4 1v.4h-.7c-.6 0-1-.1-1.2-.3-.2-.1-.4-.4-.4-.7 0-.3.1-.4.2-.6.2-.1.4-.2.7-.2zM.1 45.6c0-.4-.1-.6-.4-.8-.3-.2-.7-.3-1.2-.3s-1 .1-1.3.2v.4c.4-.2.8-.3 1.3-.3.4 0 .7.1.9.2.2.1.3.3.3.5s-.1.4-.2.5-.4.3-.8.4c-.4.1-.7.3-.8.4-.2.1-.3.2-.4.4-.1.1-.1.3-.1.5 0 .3.1.5.4.7.3.2.6.3 1.1.3.4 0 .8-.1 1.2-.2l-.1-.3c-.4.2-.8.2-1.1.2-.3 0-.6-.1-.8-.2-.2-.1-.3-.3-.3-.4 0-.2.1-.4.2-.5.1-.1.4-.3.9-.4.4-.1.6-.2.8-.4s.3-.2.4-.4v-.5zM2.8 44.5c-.6 0-1 .2-1.4.5-.3.4-.5.9-.5 1.5s.2 1.2.5 1.5c.3.4.7.6 1.3.6.5 0 .8-.2 1.1-.5.3-.3.4-.8.4-1.3v-.3H1.3c0-.6.1-1 .4-1.3.3-.3.6-.4 1.1-.4h.6c.2 0 .4.1.7.2v-.3c-.2-.1-.4-.2-.6-.2h-.7zm-.1 3.8c-.4 0-.7-.1-.9-.4-.2-.3-.4-.6-.4-1.1h2.5c0 .5-.1.8-.3 1.1-.3.3-.6.4-.9.4zM9.8 45.6c0-.4-.1-.6-.4-.8-.3-.2-.7-.3-1.2-.3s-1 .1-1.3.2v.4c.4-.2.8-.3 1.3-.3.4 0 .7.1.9.2.2.1.3.3.3.5s-.1.4-.2.5-.4.3-.8.4c-.4.1-.7.3-.8.4-.2.1-.3.2-.4.4-.1.1-.2.3-.2.5 0 .3.1.5.4.7.3.2.6.3 1.1.3.4 0 .8-.1 1.2-.2l-.1-.3c-.4.2-.8.2-1.1.2-.3 0-.6-.1-.8-.2-.2-.1-.3-.3-.3-.4 0-.2.1-.4.2-.5.1-.1.4-.3.9-.4.4-.1.6-.2.8-.4s.3-.2.4-.4c0-.2.1-.3.1-.5zM14.1 46.6c0-.7-.2-1.2-.5-1.5-.3-.4-.8-.6-1.3-.6-.4 0-.7.1-.9.3-.3.2-.5.4-.6.7-.1.3-.2.7-.2 1.1 0 .7.2 1.2.5 1.5s.8.5 1.3.5c.6 0 1-.2 1.3-.6s.4-.8.4-1.4zm-3.2 0c0-.6.1-1 .4-1.3.2-.3.6-.5 1-.5s.8.2 1 .5c.2.3.4.7.4 1.3 0 .6-.1 1-.4 1.3-.2.3-.6.5-1 .5s-.8-.2-1-.5c-.2-.4-.4-.8-.4-1.3zM20.2 44.5v2.6c0 .4-.1.7-.2.9s-.4.3-.7.3c-.4 0-.7-.1-.9-.3-.2-.2-.3-.6-.3-1.1v-2.3h-.4v2.7c0 .7-.3 1-.9 1-.4 0-.7-.1-.9-.4-.2-.2-.3-.6-.3-1.2v-2.2h-.4v4h.3l.1-.5c.1.2.3.4.5.5.2.1.4.2.7.2.6 0 1-.2 1.2-.7.1.2.3.4.5.5.2.1.5.2.8.2.4 0 .8-.1 1-.4s.3-.6.3-1.1v-2.6l-.4-.1zM23.5 44.5c-.6 0-1 .2-1.4.5-.3.4-.5.9-.5 1.5s.2 1.2.5 1.5c.3.4.7.6 1.3.6.5 0 .8-.2 1.1-.5.3-.3.4-.8.4-1.3v-.3H22c0-.6.1-1 .4-1.3.3-.3.6-.4 1.1-.4h.6c.2 0 .4.1.7.2v-.3c-.2-.1-.4-.2-.6-.2h-.7zm-.1 3.8c-.4 0-.7-.1-.9-.4-.2-.3-.4-.6-.4-1.1h2.5c0 .5-.1.8-.3 1.1-.3.3-.5.4-.9.4zM31.3 46.6c0-.7-.2-1.2-.5-1.5-.3-.4-.8-.6-1.3-.6-.4 0-.7.1-.9.3-.3.2-.5.4-.6.7-.1.3-.2.7-.2 1.1 0 .7.2 1.2.5 1.5.3.4.8.5 1.3.5.6 0 1-.2 1.3-.6.3-.3.4-.8.4-1.4zm-3.2 0c0-.6.1-1 .4-1.3.2-.3.6-.5 1-.5s.8.2 1 .5c.2.3.4.7.4 1.3 0 .6-.1 1-.4 1.3-.2.3-.6.5-1 .5s-.8-.2-1-.5c-.2-.3-.4-.8-.4-1.3zM33.9 48.3H33v-3.7h-.4v3.7h-.7v.2l.7.1v.3c0 .5.1.9.3 1.1s.5.3.9.3c.2 0 .4 0 .7-.1l-.1-.3c-.3.1-.5.1-.6.1-.3 0-.5-.1-.6-.3s-.2-.4-.2-.8v-.4h.9v-.2zM37.7 44.8c.2 0 .4 0 .6.1v-.3c-.2-.1-.4-.1-.6-.1-.4 0-.6.1-.8.3-.2.2-.3.5-.3.9v2.6H36v.2l.6.2.2.9h.2v-1h1.2v-.3H37v-2.5c0-.3.1-.5.2-.7s.3-.3.5-.3zM42 44.6v2.6c0 .4-.1.7-.3.9s-.4.3-.8.3c-.5 0-.8-.1-1.1-.4-.2-.2-.3-.6-.3-1.2v-2.2h-.4v5.7h.4V48c.2.2.3.4.6.5.2.1.5.2.9.2.9 0 1.4-.5 1.4-1.5v-2.6H42zM45.3 44.5c-.6 0-1 .2-1.4.5-.3.4-.5.9-.5 1.5s.2 1.2.5 1.5c.3.4.7.6 1.3.6.5 0 .8-.2 1.1-.5.3-.3.4-.8.4-1.3v-.3h-2.9c0-.6.1-1 .4-1.3.3-.3.6-.4 1.1-.4h.6c.2 0 .4.1.7.2v-.3c-.2-.1-.4-.2-.6-.2h-.7zm-.2 3.8c-.4 0-.7-.1-.9-.4-.2-.3-.4-.6-.4-1.1h2.5c0 .5-.1.8-.3 1.1-.2.3-.5.4-.9.4zM50.1 46.3l2 2.3h.4L51 46.9l1.7-2.3h-.4l-1.5 2-.7-.6v-1.4h-.4v5.7h.4v-4zM55 44.5c-.6 0-1 .2-1.4.5-.3.4-.5.9-.5 1.5s.2 1.2.5 1.5c.3.4.7.6 1.3.6.5 0 .8-.2 1.1-.5.3-.3.4-.8.4-1.3v-.3h-2.9c0-.6.1-1 .4-1.3.3-.3.6-.4 1.1-.4h.6c.2 0 .4.1.7.2v-.3c-.2-.1-.4-.2-.6-.2H55zm-.1 3.8c-.4 0-.7-.1-.9-.4-.2-.3-.4-.6-.4-1.1h2.5c0 .5-.1.8-.3 1.1-.3.3-.5.4-.9.4zM56.9 48.6h.4l.8-2.2c.3-.7.4-1.2.5-1.4.1.3.3.8.5 1.4l.8 2.2h.4l-1.8-4.7c-.1-.4-.3-.6-.4-.8s-.2-.2-.3-.3c-.1-.1-.3-.1-.5-.1-.1 0-.3 0-.5.1v.3c.1 0 .3-.1.5-.1.1 0 .2 0 .3.1l.3.3c.1.1.2.3.3.6.1.3.2.4.2.5l-1.5 4.1zM65.8 44.6v2.6c0 .4-.1.7-.3.9-.2.2-.4.3-.8.3-.5 0-.8-.1-1.1-.4s-.3-.6-.3-1.2v-2.2h-.4v4h.3l.1-.5c.3.4.7.6 1.4.6.9 0 1.4-.5 1.4-1.5v-2.6h-.3zM69.1 44.5c-.6 0-1 .2-1.4.5-.3.4-.5.9-.5 1.5s.2 1.2.5 1.5c.3.4.7.6 1.3.6.5 0 .8-.2 1.1-.5.3-.3.4-.8.4-1.3v-.3h-2.9c0-.6.1-1 .4-1.3.3-.3.6-.4 1.1-.4h.6c.2 0 .4.1.7.2v-.3c-.2-.1-.4-.2-.6-.2h-.7zm-.2 3.8c-.4 0-.7-.1-.9-.4-.2-.3-.4-.6-.4-1.1h2.5c0 .5-.1.8-.3 1.1-.2.3-.5.4-.9.4zM72.6 44.8c.2 0 .4 0 .6.1v-.3c-.2-.1-.4-.1-.6-.1-.4 0-.6.1-.8.3-.2.2-.3.5-.3.9v2.6H71v.2l.6.2.2.9h.2v-1h1.2v-.3H72v-2.5c0-.3.1-.5.2-.7s.2-.3.4-.3zM77.3 44.6l-.9 2.7c-.1.2-.1.4-.2.8l-.1-.3-.1-.5-.9-2.7h-.4l-1.1 4h.4l.6-2.3c.1-.6.2-1 .3-1.3.1.6.2 1 .3 1.1l.8 2.4h.3l.8-2.4c.2-.6.3-1 .3-1.1 0 .2.1.6.3 1.3l.6 2.3h.4l-1.1-4h-.3zM82.9 46.6c0-.7-.2-1.2-.5-1.5-.3-.4-.8-.6-1.3-.6-.4 0-.7.1-.9.3-.3.2-.5.4-.6.7-.1.3-.2.7-.2 1.1 0 .7.2 1.2.5 1.5.3.4.8.5 1.3.5.6 0 1-.2 1.3-.6.2-.3.4-.8.4-1.4zm-3.2 0c0-.6.1-1 .4-1.3.2-.3.6-.5 1-.5s.8.2 1 .5c.2.3.4.7.4 1.3 0 .6-.1 1-.4 1.3-.2.3-.6.5-1 .5s-.8-.2-1-.5c-.3-.3-.4-.8-.4-1.3zM85.6 48.7c.2 0 .4 0 .5-.1l-.1-.4c-.2 0-.3.1-.5.1-.3 0-.6-.1-.8-.4-.2-.3-.3-.7-.3-1.1v-2.2H84v4h.3v-.7c.2.3.3.5.5.6.3.1.5.2.8.2zM87.3 46.3l2 2.3h.4l-1.6-1.7 1.7-2.3h-.4l-1.5 2-.6-.6v-1.4h-.4v5.7h.4v-4zM94 48.3h-.9v-3.7h-.4v3.7H92v.2l.7.1v.3c0 .5.1.9.3 1.1s.5.3.9.3c.2 0 .4 0 .7-.1l-.1-.2h-.6c-.3 0-.5-.1-.6-.3s-.2-.4-.2-.8v-.4h.9v-.2zM96.4 44.5c-.6 0-1 .2-1.4.5-.3.4-.5.9-.5 1.5s.2 1.2.5 1.5c.3.4.7.6 1.3.6.5 0 .8-.2 1.1-.5.3-.3.4-.8.4-1.3v-.3h-2.9c0-.6.1-1 .4-1.3.3-.3.6-.4 1.1-.4h.6c.2 0 .4.1.7.2v-.3c-.2-.1-.4-.2-.6-.2h-.7zm-.1 3.9c-.4 0-.7-.1-.9-.4-.2-.3-.4-.6-.4-1.1h2.5c0 .5-.1.8-.3 1.1-.2.2-.5.4-.9.4zM101.4 44.6l-.1.6c-.2-.3-.4-.4-.6-.5-.2-.1-.5-.2-.8-.2-.4 0-.7.1-.9.3s-.3.5-.3.8c0 .4.2.7.5.9.3.2.8.3 1.4.3h.8v.3c0 .4-.1.7-.2.9-.2.2-.4.3-.7.3-.4 0-.8-.1-1.2-.3l-.1.3c.4.2.9.3 1.3.3s.8-.1 1-.3c.2-.2.3-.6.3-1.1v-2.7h-.4zm-1.5.3c.4 0 .8.1 1 .4.2.2.4.6.4 1v.4h-.7c-.6 0-1-.1-1.2-.3-.2-.2-.4-.4-.4-.8 0-.3.1-.4.2-.6.2-.1.4-.1.7-.1zM104 44.8c.2 0 .4 0 .6.1v-.3c-.2-.1-.4-.1-.6-.1-.4 0-.6.1-.8.3-.2.2-.3.5-.3.9v2.6h-.6v.2l.6.2.2.9h.2v-1h1.2v-.3h-1.2v-2.5c0-.3.1-.5.2-.7s.3-.3.5-.3zM105.8 48.6V46c0-.4.1-.7.3-.9.2-.2.4-.3.8-.3.5 0 .8.1 1.1.4.2.2.3.6.3 1.2v2.2h.4v-4h-.3l-.1.6c-.3-.4-.7-.6-1.4-.6-.9 0-1.4.5-1.4 1.5v2.6l.3-.1zM111.5 48.7c.2 0 .4 0 .5-.1l-.1-.4c-.2 0-.3.1-.5.1-.3 0-.6-.1-.8-.4-.2-.3-.3-.7-.3-1.1v-2.2h-.4v4h.3v-.7c.2.3.3.5.5.6.3.1.6.2.8.2zM114.5 44.5c-.6 0-1 .2-1.4.5-.3.4-.5.9-.5 1.5s.2 1.2.5 1.5.7.6 1.3.6c.5 0 .8-.2 1.1-.5.3-.3.4-.8.4-1.3v-.3H113c0-.6.1-1 .4-1.3.3-.3.6-.4 1.1-.4h.6c.2 0 .4.1.7.2v-.3c-.2-.1-.4-.2-.6-.2h-.7zm-.1 3.9c-.4 0-.7-.1-.9-.4-.2-.3-.4-.6-.4-1.1h2.5c0 .5-.1.8-.3 1.1-.3.2-.5.4-.9.4zM119.5 45.6c0-.4-.1-.6-.4-.8-.3-.2-.7-.3-1.2-.3s-1 .1-1.3.2v.4c.4-.2.8-.3 1.3-.3.4 0 .7.1.9.2.2.1.3.3.3.5s-.1.4-.2.5c-.2.1-.4.3-.8.4-.4.1-.7.3-.8.4-.2.1-.3.2-.4.4-.1.1-.1.3-.1.5 0 .3.1.5.4.7.3.2.6.3 1.1.3.4 0 .8-.1 1.2-.2l-.1-.3c-.4.2-.8.2-1.1.2-.3 0-.6-.1-.8-.2-.2-.1-.3-.3-.3-.4 0-.2.1-.4.2-.5.1-.1.4-.3.9-.4.4-.1.6-.2.8-.4s.3-.2.4-.4v-.5z"/></g><path class="st4" d="M209.9 122.8H-210v12h419.9z"/><path class="st20" d="M202.4 130.3l3-3M205.4 130.3l-3-3"/><path d="M193 130.3v-3h-3v3h3m.4.3h-3.8v-3.8h3.8v3.8zM180.6 128.8h-3.7v.3h3.7z"/></symbol><use xlink:href="#New_Symbol_2" width="457.9" height="299.5" id="XMLID_57_" x="-229" y="-149.8" transform="matrix(1 0 0 -1 331.126 155.088)" overflow="visible"/><use xlink:href="#New_Symbol_1" width="222" height="141" x="-111" y="-70.5" transform="matrix(1 0 0 -1 120.915 284.172)" overflow="visible"/></svg>