<svg xmlns="http://www.w3.org/2000/svg" viewBox="0 0 268.476 268.476" width="512" height="512" enable-background="new 0 0 268.476 268.476"><path d="M232.943 223.73H35.533c-12.21 0-22.11 10.017-22.11 22.373 0 12.356 9.9 22.373 22.11 22.373h197.41c12.21 0 22.11-10.017 22.11-22.373 0-12.356-9.9-22.373-22.11-22.373zM117.88 199.136c4.035 4.04 9.216 6.147 14.492 6.508.626.053 1.227.188 1.866.188.633 0 1.228-.135 1.847-.186 5.284-.357 10.473-2.464 14.512-6.51l70.763-70.967c8.86-8.876 8.86-23.268 0-32.143-8.86-8.876-23.225-8.876-32.086 0l-32.662 32.756V22.373C156.612 10.017 146.596 0 134.238 0c-12.356 0-22.372 10.017-22.372 22.373v106.41L79.204 96.027c-8.86-8.876-23.226-8.876-32.086 0-8.86 8.875-8.86 23.267 0 32.142l70.763 70.966z" fill="#5592d7" fill-rule="evenodd" clip-rule="evenodd"/></svg>