<svg xmlns="http://www.w3.org/2000/svg" viewBox="0 0 25 25" enable-background="new 0 0 25 25"><style type="text/css">.st0{fill-rule:evenodd;clip-rule:evenodd;fill:#5593d7;}</style><path class="st0" d="M12.5 1C6 1 .7 6.3.7 12.8.7 18 4.1 22.4 8.8 24c.6.1.8-.3.8-.6v-2c-3.3.7-4-1.6-4-1.6-.5-1.4-1.3-1.7-1.3-1.7-1.1-.7.1-.7.1-.7 1.2.1 1.8 1.2 1.8 1.2 1.1 1.8 2.8 1.3 3.4 1 .1-.8.4-1.3.7-1.6-2.6-.3-5.3-1.3-5.3-5.8 0-1.3.4-2.4 1.2-3.2-.1-.3-.5-1.5.1-3.1 0 0 1-.3 3.2 1.2.9-.3 1.9-.4 3-.4 1 0 2 .1 3 .4 2.3-1.5 3.2-1.2 3.2-1.2.6 1.6.2 2.8.1 3.1.8.8 1.2 1.9 1.2 3.2 0 4.5-2.8 5.5-5.4 5.8.4.4.8 1.1.8 2.2v3.2c0 .3.2.7.8.6 4.7-1.6 8.1-6 8.1-11.2C24.3 6.3 19 1 12.5 1z"/></svg>