<svg xmlns="http://www.w3.org/2000/svg" xmlns:xlink="http://www.w3.org/1999/xlink" viewBox="0 0 530 370" enable-background="new 0 0 530 370"><style type="text/css">.st0{fill:#E9E9E9;} .st1{opacity:0.1;fill:none;stroke:#000000;stroke-miterlimit:10;} .st2{fill:url(#SVGID_1_);} .st3{fill:#F3F3F3;} .st4{opacity:0.25;} .st5{fill:#7D8087;} .st6{fill:#68696F;} .st7{fill:#5891CC;} .st8{fill:#FFFFFF;} .st9{fill:#5891CC;stroke:#5891CC;stroke-miterlimit:10;} .st10{opacity:0.5;fill:none;stroke:#FFFFFF;stroke-width:0.7483;stroke-miterlimit:10;} .st11{fill:none;stroke:#353535;stroke-width:1.1011;stroke-miterlimit:10;} .st12{fill:#745FA8;} .st13{fill:#FCBB59;} .st14{fill:#69C07F;} .st15{opacity:0.6;fill:#010101;} .st16{opacity:0.3;fill:none;stroke:#5E5E5E;stroke-miterlimit:10;} .st17{opacity:0.4;} .st18{fill:#4D4C4D;} .st19{fill:#595959;} .st20{fill:#838383;} .st21{fill:#99BBE1;} .st22{fill:#C8C7CA;} .st23{fill:#F7DC7B;}</style><symbol id="New_Symbol" viewBox="-210.6 -159.5 421.2 319"><g id="XMLID_79_"><g id="XMLID_442_"><image width="1755" height="1329" xlink:href="59F7E0C.png" transform="matrix(.24 0 0 -.24 -210.6 159.48)" overflow="visible" opacity=".25"/><path class="st0" d="M189.4-136.9l-379-.1c-1.4 0-2.6 1.1-2.6 2.6v276.8c0 1.4 1.1 2.6 2.6 2.6h379c1.4 0 2.6-1.1 2.6-2.6v-276.7c0-1.4-1.2-2.6-2.6-2.6z"/><path class="st1" d="M189.4-136.9l-379-.1c-1.4 0-2.6 1.1-2.6 2.6v276.8c0 1.4 1.1 2.6 2.6 2.6h379c1.4 0 2.6-1.1 2.6-2.6v-276.7c0-1.4-1.2-2.6-2.6-2.6z"/></g><g id="XMLID_430_"><g id="XMLID_440_"><linearGradient id="SVGID_1_" gradientUnits="userSpaceOnUse" x1="-.084" y1="144.943" x2="-.084" y2="134.219"><stop offset="0" stop-color="#E7E7E7"/><stop offset="1" stop-color="#D0D0D1"/></linearGradient><path class="st2" d="M191.9 134.2h-384v5.7c0 2.8 2.2 5 5 5h374c2.8 0 5-2.2 5-5v-5.7z"/></g><path class="st3" d="M190.9 144.4c-.4.3-.9.5-1.5.5h-378.9c-.6 0-1.1-.2-1.5-.5h381.9z" id="XMLID_438_"/><path id="XMLID_437_" class="st4" d="M191.9 133.7h-384v.5h384z"/><g id="XMLID_435_"><path class="st5" d="M-164.5 136.4c-1.6 0-3 1.3-3 3 0 1.6 1.3 3 3 3 1.6 0 3-1.3 3-3-.1-1.7-1.4-3-3-3z"/><path class="st6" d="M-164.5 141.9c1.4 0 2.6-1.1 2.6-2.6s-1.1-2.6-2.6-2.6c-1.4 0-2.6 1.1-2.6 2.6s1.2 2.6 2.6 2.6m0 .8c-1.9 0-3.4-1.5-3.4-3.4s1.5-3.4 3.4-3.4 3.4 1.5 3.4 3.4-1.6 3.4-3.4 3.4z"/></g><g id="XMLID_433_"><path class="st5" d="M-174.7 136.4c-1.6 0-3 1.3-3 3 0 1.6 1.3 3 3 3s3-1.3 3-3c-.1-1.7-1.4-3-3-3z"/><path class="st6" d="M-174.7 141.9c1.4 0 2.6-1.1 2.6-2.6s-1.1-2.6-2.6-2.6-2.6 1.1-2.6 2.6 1.2 2.6 2.6 2.6m0 .8c-1.9 0-3.4-1.5-3.4-3.4s1.5-3.4 3.4-3.4 3.4 1.5 3.4 3.4-1.6 3.4-3.4 3.4z"/></g><g id="XMLID_431_"><path class="st5" d="M-185 136.4c-1.6 0-3 1.3-3 3 0 1.6 1.3 3 3 3 1.6 0 3-1.3 3-3s-1.3-3-3-3z"/><path class="st6" d="M-185 141.9c1.4 0 2.6-1.1 2.6-2.6s-1.1-2.6-2.6-2.6c-1.4 0-2.6 1.1-2.6 2.6s1.2 2.6 2.6 2.6m0 .8c-1.9 0-3.4-1.5-3.4-3.4s1.5-3.4 3.4-3.4 3.4 1.5 3.4 3.4-1.5 3.4-3.4 3.4z"/></g></g><g id="XMLID_374_"><path id="XMLID_429_" class="st7" d="M192 110.2h-384.1v23.5H192z"/><g id="XMLID_382_"><g id="XMLID_414_"><path id="XMLID_426_" class="st7" d="M-128.4 110.2h-63.7v23.5h63.7z"/><g id="XMLID_415_"><g id="XMLID_468_"><path class="st8" d="M-164.8 119.6l-.6 1.6h-2.2l-.6-1.6h-1l2.2 5.9h1l2.2-5.9h-1zm-.8 2.4l-.5 1.6c0 .1-.1.3-.2.5s-.1.4-.1.5c-.1-.3-.2-.7-.3-1.1l-.5-1.5h1.6zM-161.3 119.5c-.7 0-1.2.2-1.5.6-.3.4-.5.9-.5 1.7 0 .7.2 1.3.5 1.7.4.4.9.6 1.6.6.5 0 .9-.1 1.3-.3l-.3-.8c-.4.2-.7.2-1 .2-.8 0-1.1-.5-1.1-1.5 0-.5.1-.9.3-1.1.2-.2.5-.4.8-.4.4 0 .8.1 1.2.3v-.8c-.2-.1-.3-.2-.5-.2h-.8zM-157.2 119.5c-.7 0-1.2.2-1.5.6-.3.4-.5.9-.5 1.7 0 .7.2 1.3.5 1.7.4.4.9.6 1.6.6.5 0 .9-.1 1.3-.3l-.3-.8c-.4.2-.7.2-1 .2-.8 0-1.1-.5-1.1-1.5 0-.5.1-.9.3-1.1.2-.2.5-.4.8-.4.4 0 .8.1 1.2.3v-.8c-.2-.1-.3-.2-.5-.2h-.8zM-151.1 121.8c0-.7-.2-1.3-.6-1.7-.4-.4-.9-.6-1.5-.6-.4 0-.8.1-1.1.3-.3.2-.6.5-.7.8-.2.3-.3.8-.3 1.2 0 .7.2 1.3.6 1.7.4.4.9.6 1.6.6.6 0 1.1-.2 1.5-.6.4-.5.5-1 .5-1.7zm-3.2 0c0-1 .4-1.5 1.1-1.5.7 0 1.1.5 1.1 1.5s-.4 1.5-1.1 1.5c-.4 0-.7-.1-.9-.4s-.2-.6-.2-1.1zM-146.9 119.6l-.1.6c-.1-.2-.3-.4-.6-.5-.2-.1-.5-.2-.8-.2-.5 0-.9.1-1.2.4-.3.3-.4.7-.4 1.2v2.9h.9v-2.7c0-.3.1-.6.2-.8.1-.2.4-.3.7-.3.4 0 .7.1.9.4.2.2.3.6.3 1.2v2.2h.9v-4.4h-.8zM-140.9 119.6h-.9v2.7c0 .3-.1.6-.2.8s-.4.3-.7.3c-.4 0-.7-.1-.9-.4-.2-.2-.3-.6-.3-1.2v-2.2h-.9v4.4h.7l.1-.6c.1.2.3.4.6.5s.5.2.8.2c1.1 0 1.6-.5 1.6-1.6v-2.9zM-138 120.3c.2 0 .5 0 .7.1v-.7c-.1 0-.2-.1-.4-.1h-.5c-.9 0-1.3.5-1.3 1.4v2.4h-.6v.4l.6.3.3.9h.6v-1h1.3v-.7h-1.3v-2.4c0-.2.1-.4.2-.5s.2-.1.4-.1z"/></g><path id="XMLID_465_" class="st8" d="M-178.3 127.2c-2.8 0-5.1-2.3-5.1-5.1s2.3-5.1 5.1-5.1 5.1 2.3 5.1 5.1c0 2.9-2.3 5.1-5.1 5.1zm.7-4.9v-3.6h-1.3v3.6c-.6.3-1 .9-1 1.5 0 .7.4 1.3 1 1.5v-1.6h1.3v1.6c.6-.3 1-.9 1-1.5s-.4-1.2-1-1.5z"/></g></g><g id="XMLID_405_"><path id="XMLID_412_" class="st0" d="M-53.9 110.2h-74.5v23.5h74.5z"/><g id="XMLID_406_"><g id="XMLID_410_"><path class="st7" d="M-100 122.6c0-1-.3-1.7-.8-2.2-.5-.5-1.3-.8-2.3-.8h-1.6v5.8h1.8c.9 0 1.7-.3 2.2-.8.5-.4.7-1.1.7-2zm-1-.1c0 1.4-.7 2.1-2 2.1h-.8v-4.2h.7c1.4 0 2.1.7 2.1 2.1zM-96.1 119.6l-.2.6c-.2-.3-.4-.5-.6-.5s-.5-.1-.8-.1c-.4 0-.8.1-1 .4-.2.2-.4.6-.4 1 0 .5.2.8.5 1 .3.2.9.4 1.5.4h.8v.2c0 .3-.1.5-.2.6s-.3.2-.6.2c-.2 0-.4 0-.7-.1-.2-.1-.4-.1-.6-.2l-.3.7c.2.1.5.2.8.3.3.1.6.1.8.1.6 0 1-.1 1.3-.4.3-.2.4-.6.4-1.2v-3h-.7zm-1.4.6c.3 0 .6.1.8.3.2.2.3.5.3.8v.4h-.6c-.4 0-.8-.1-1-.2-.2-.1-.3-.3-.3-.6 0-.2.1-.3.2-.5.2-.1.4-.2.6-.2zM-91.1 120.8c0-.4-.2-.8-.5-1-.3-.2-.8-.3-1.3-.3-.6 0-1.1.1-1.4.3v.8c.5-.2 1-.4 1.4-.4.6 0 .9.2.9.5 0 .1 0 .2-.1.3-.1.1-.2.2-.3.2-.1.1-.3.2-.6.3-.5.2-.9.4-1 .6-.2.2-.3.5-.3.8 0 .4.2.7.5.9s.7.3 1.2.3 1-.1 1.5-.3l-.3-.7c-.5.2-.9.3-1.2.3-.5 0-.7-.1-.7-.4 0-.1.1-.3.2-.4s.4-.2.8-.4c.4-.1.6-.3.8-.4.2-.1.3-.3.4-.4-.1-.2 0-.4 0-.6zM-86.2 119.6h-.9v2.7c0 .3-.1.6-.2.8s-.4.3-.7.3c-.4 0-.7-.1-.9-.4-.2-.2-.3-.6-.3-1.2v-2.2h-.9v6.2h.9V123.4h.1c.1.2.3.4.5.5s.5.2.8.2c1.1 0 1.6-.5 1.6-1.6v-2.9zM-82.7 124.1c.5 0 1-.2 1.3-.6.3-.4.5-1 .5-1.7s-.2-1.3-.5-1.7c-.3-.4-.7-.6-1.3-.6-.6 0-1 .2-1.3.6l-.2-.5h-.7v6.2h.9v-2.4c.3.5.8.7 1.3.7zm-.2-.8c-.4 0-.6-.1-.8-.3s-.3-.6-.3-1.1v-.1c0-.5.1-.9.3-1.2s.4-.4.8-.4c.3 0 .6.1.8.4.2.3.3.6.3 1.1-.1 1.1-.4 1.6-1.1 1.6zM-75.9 121.8c0-.7-.2-1.3-.6-1.7-.4-.4-.9-.6-1.5-.6-.4 0-.8.1-1.1.3-.3.2-.6.5-.7.8-.2.3-.3.8-.3 1.2 0 .7.2 1.3.6 1.7.4.4.9.6 1.6.6.6 0 1.1-.2 1.5-.6.3-.5.5-1 .5-1.7zm-3.2 0c0-1 .4-1.5 1.1-1.5.7 0 1.1.5 1.1 1.5s-.4 1.5-1.1 1.5c-.4 0-.7-.1-.9-.4s-.2-.6-.2-1.1zM-72.1 119.6l-.2.6c-.2-.3-.4-.5-.6-.5s-.5-.1-.8-.1c-.4 0-.8.1-1 .4-.2.2-.4.6-.4 1 0 .5.2.8.5 1 .3.2.9.4 1.5.4h.8v.2c0 .3-.1.5-.2.6s-.3.2-.6.2c-.2 0-.4 0-.7-.1-.2-.1-.4-.1-.6-.2l-.3.7c.2.1.5.2.8.3.3.1.6.1.8.1.6 0 1-.1 1.3-.4.3-.2.4-.6.4-1.2v-3h-.7zm-1.4.6c.3 0 .6.1.8.3.2.2.3.5.3.8v.4h-.6c-.4 0-.8-.1-1-.2-.2-.1-.3-.3-.3-.6 0-.2.1-.3.2-.5.2-.1.4-.2.6-.2zM-67.9 124.1h.5l-.1-.9h-.4c-.4 0-.7-.1-.9-.4-.2-.2-.3-.6-.3-1v-2.3h-.9v4.4h.7l.1-.8c.1.3.3.5.6.6.2.3.5.4.7.4zM-65.1 119.5c-.6 0-1 .2-1.3.6s-.5 1-.5 1.7.2 1.3.5 1.7c.3.4.7.6 1.3.6.6 0 1-.2 1.3-.6 0 .3-.1.6-.1.8v1.6h.9v-6.2h-.7l-.2.6c-.2-.6-.6-.8-1.2-.8zm.3.8c.4 0 .7.1.8.3.2.2.3.6.3 1.1v.1c0 .6-.1 1-.3 1.2-.2.2-.5.4-.9.4-.3 0-.6-.1-.8-.4-.2-.3-.3-.6-.3-1.1 0-.5.1-.9.3-1.1.3-.4.5-.5.9-.5z"/></g><path id="XMLID_407_" class="st7" d="M-114.7 127.2c-2.8 0-5.1-2.3-5.1-5.1s2.3-5.1 5.1-5.1 5.1 2.3 5.1 5.1c0 2.9-2.2 5.1-5.1 5.1zm.7-4.9v-3.6h-1.3v3.6c-.6.3-1 .9-1 1.5 0 .7.4 1.3 1 1.5v-1.6h1.3v1.6c.6-.3 1-.9 1-1.5s-.4-1.2-1-1.5z"/></g></g><g id="XMLID_383_"><path id="XMLID_404_" class="st7" d="M8.9 110.2h-62.8v23.5H8.9z"/><g id="XMLID_395_"><g id="XMLID_402_"><path class="st8" d="M-26.8 121.2c0-.5-.2-.9-.6-1.2-.4-.3-.9-.4-1.6-.4-.7 0-1.2.1-1.6.3v.9c.3-.1.5-.2.8-.3.3-.1.6-.1.8-.1.4 0 .7.1.8.2.2.1.3.3.3.6 0 .2-.1.4-.2.6-.2.2-.5.3-1 .5s-.9.5-1.1.7c-.2.3-.3.6-.3 1 0 .5.2.9.5 1.1.3.3.8.4 1.4.4.6 0 1.1-.1 1.7-.4l-.3-.8c-.5.2-1 .3-1.4.3-.3 0-.5-.1-.7-.2-.2-.1-.2-.3-.2-.5s0-.3.1-.4l.3-.3.8-.4c.4-.2.7-.3.9-.5s.3-.3.4-.5c.2-.1.2-.4.2-.6zM-23.8 119.5c-.7 0-1.2.2-1.6.6s-.6 1-.6 1.7.2 1.3.5 1.7c.4.4.9.6 1.5.6s1-.2 1.4-.5c.3-.4.5-.8.5-1.5v-.5H-25c0-.4.1-.8.3-1 .2-.2.5-.3.9-.3.3 0 .5 0 .7.1.2 0 .5.1.7.2v-.8c-.2-.1-.5-.2-.7-.2-.2-.1-.4-.1-.7-.1zm-.2 3.9c-.3 0-.5-.1-.7-.3-.2-.2-.3-.5-.3-.8h2c0 .4-.1.6-.3.8s-.4.3-.7.3zM-19.4 120.3c.2 0 .5 0 .7.1v-.7c-.1 0-.2-.1-.4-.1h-.5c-.9 0-1.3.5-1.3 1.4v2.4h-.6v.4l.6.3.3.9h.6v-1h1.3v-.7H-20v-2.4c0-.2.1-.4.2-.5s.2-.1.4-.1zM-16.2 120.3c.2 0 .5 0 .7.1v-.7c-.1 0-.2-.1-.4-.1h-.5c-.9 0-1.3.5-1.3 1.4v2.4h-.6v.4l.6.3.3.9h.6v-1h1.3v-.7h-1.3v-2.4c0-.2.1-.4.2-.5s.2-.1.4-.1zM-14.7 125.2c0 .2 0 .3.1.4.1.1.2.1.4.1s.3 0 .4-.1c.1-.1.1-.2.1-.4s0-.3-.1-.4-.2-.1-.4-.1-.3 0-.4.1-.1.2-.1.4zm1-5.6h-.9v4.4h.9v-4.4zM-8.5 119.6h-.9v2.7c0 .3-.1.6-.2.8s-.4.3-.7.3c-.4 0-.7-.1-.9-.4-.2-.2-.3-.6-.3-1.2v-2.2h-.9v4.4h.7l.1-.6c.1.2.3.4.6.5s.5.2.8.2c1.1 0 1.6-.5 1.6-1.6v-2.9zM-3.4 124v-.5l-.8-.1c.1-.1.1-.2.2-.3 0-.1.1-.3.1-.4 0-.5-.2-.8-.5-1.1s-.7-.4-1.3-.4h-.4c-.2-.1-.3-.3-.3-.4 0-.1 0-.2.1-.2.1-.1.3-.1.5-.1h.8c.5 0 .9-.1 1.1-.3s.4-.5.4-.9c0-.5-.2-.9-.6-1.2-.4-.3-1-.4-1.8-.4-.6 0-1.1.1-1.4.3-.3.2-.5.5-.5.9 0 .3.1.5.3.7.2.2.4.3.7.4-.1.1-.2.1-.3.3-.1.1-.1.2-.1.4s0 .3.1.4c.1.1.2.2.4.3-.2.1-.4.3-.6.5-.1.2-.2.5-.2.8 0 .5.2.8.5 1.1.3.3.7.4 1.3.4h.4c.1 0 .2 0 .3-.1h1.6zm-3.5-5.1c0-.2.1-.4.3-.5.2-.1.4-.2.8-.2.5 0 .9.1 1.1.2s.4.3.4.6c0 .2-.1.3-.2.4-.1.1-.4.1-.8.1H-6c-.3 0-.5-.1-.6-.2-.2 0-.3-.2-.3-.4zm.4 3.7c0-.3.1-.5.2-.6.1-.1.3-.2.6-.2.5 0 .8.3.8.9 0 .3-.1.5-.2.7-.1.2-.3.2-.6.2s-.5-.1-.6-.2-.2-.5-.2-.8zM.3 120.8c0-.4-.2-.8-.5-1-.3-.2-.8-.3-1.3-.3-.6 0-1.1.1-1.4.3v.8c.5-.2 1-.4 1.4-.4.6 0 .9.2.9.5 0 .1 0 .2-.1.3-.1.1-.2.2-.3.2-.1.1-.3.2-.6.3-.5.2-.9.4-1 .6-.2.2-.3.5-.3.8 0 .4.2.7.5.9s.7.3 1.2.3 1-.1 1.5-.3l-.3-.7c-.5.2-.9.3-1.2.3-.5 0-.7-.1-.7-.4 0-.1.1-.3.2-.4s.4-.2.8-.4c.4-.1.6-.3.8-.4.2-.1.3-.3.4-.4v-.6z"/></g><path id="XMLID_396_" class="st8" d="M-40.1 127.2c-2.8 0-5.1-2.3-5.1-5.1s2.3-5.1 5.1-5.1 5.1 2.3 5.1 5.1c0 2.9-2.3 5.1-5.1 5.1zm.7-4.9v-3.6h-1.3v3.6c-.6.3-1 .9-1 1.5 0 .7.4 1.3 1 1.5v-1.6h1.3v1.6c.6-.3 1-.9 1-1.5s-.4-1.2-1-1.5z"/></g><g id="XMLID_384_"><path id="XMLID_393_" class="st7" d="M58.7 110.2H8.9v23.5h49.8z"/><g id="XMLID_385_"><g id="XMLID_391_"><path class="st8" d="M35.8 119.6h-1v2.6h-2.7v-2.6h-1v5.8h1V123h2.7v2.4h1v-5.8zM39.2 119.5c-.7 0-1.2.2-1.6.6s-.6 1-.6 1.7.2 1.3.5 1.7c.4.4.9.6 1.5.6s1-.2 1.4-.5c.3-.4.5-.8.5-1.5v-.5H38c0-.4.1-.8.3-1 .2-.2.5-.3.9-.3.3 0 .5 0 .7.1.2 0 .5.1.7.2v-.8c-.2-.1-.5-.2-.7-.2-.1-.1-.4-.1-.7-.1zm-.2 3.9c-.3 0-.5-.1-.7-.3-.2-.2-.3-.5-.3-.8h2c0 .4-.1.6-.3.8s-.4.3-.7.3zM42.9 119.6H42v6.2h.9v-6.2zM46.5 119.5c-.6 0-1 .2-1.3.6h-.1c0-.4.1-.6.1-.7v-1.8h-.9v6.4h.7c0-.1.1-.3.1-.6.3.4.7.7 1.3.7.5 0 1-.2 1.3-.6.3-.4.5-1 .5-1.7s-.2-1.3-.5-1.7c-.2-.4-.7-.6-1.2-.6zm-.2 3.8c-.4 0-.6-.1-.8-.3-.2-.2-.3-.6-.3-1v-.1c0-.5.1-.9.3-1.2s.4-.4.8-.4c.3 0 .6.1.8.4.2.3.3.6.3 1.1 0 .5-.1.9-.3 1.1-.2.3-.5.4-.8.4z"/></g><path id="XMLID_386_" class="st8" d="M21.3 119.1h1v1h-1v-1zm.5 8.1c-2.8 0-5.1-2.3-5.1-5.1s2.3-5.1 5.1-5.1 5.1 2.3 5.1 5.1-2.3 5.1-5.1 5.1zm0-9.1c-2.3 0-4.1 1.8-4.1 4.1s1.8 4.1 4.1 4.1 4.1-1.8 4.1-4.1-1.8-4.1-4.1-4.1zm0 7.1c-1.1 0-2-.9-2-2h1c0 .6.5 1 1 1 .6 0 1-.5 1-1 0-1-1.5-.9-1.5-2.6h1c0 1.1 1.5 1.3 1.5 2.6 0 1.1-.9 2-2 2z"/></g></g></g></g><g id="XMLID_377_"><path id="XMLID_380_" class="st8" d="M180.5 127.7c-3.4 0-6.1-2.7-6.1-6.1 0-3.4 2.7-6.1 6.1-6.1s6.1 2.7 6.1 6.1c0 3.3-2.8 6.1-6.1 6.1z"/><path id="XMLID_378_" class="st9" d="M179.3 120l-1.6 1.6-.5-.5 2.1-2.1 4.6 4.6-.5.5-4.1-4.1z"/></g><path id="XMLID_375_" class="st10" d="M8.4 129.1v-14.3"/></g><path class="st8" d="M182.7-28.7h-365.6c-.6 0-1 .5-1 1V83.2h367.7V-27.7c0-.5-.5-1-1.1-1z" id="XMLID_372_"/><path class="st0" d="M175.6-5.7v68.4h-350.8V-5.7z" id="XMLID_367_"/><path id="XMLID_363_" class="st0" d="M166.4 10.6h-323.8V54h323.8z"/><g id="XMLID_171_"><path id="XMLID_362_" class="st11" d="M-157.6 54V10.6h324.3V54"/><g id="XMLID_172_"><g id="XMLID_347_"><path class="st7" d="M-72.5 10.9v8.8h-4.1v-8.8z" id="XMLID_360_"/><path class="st12" d="M-67.4 10.9v43.4h-4.1V10.9z" id="XMLID_357_"/><path class="st13" d="M-62.3 10.9v17.5h-4.1V10.9z" id="XMLID_354_"/><path class="st14" d="M-57.2 10.9v4.4h-4.1v-4.4z" id="XMLID_350_"/></g><g id="XMLID_333_"><path class="st7" d="M-48 10.9v19.9h-4.1V10.9z" id="XMLID_344_"/><path class="st12" d="M-42.9 10.9v16.4H-47V10.9z" id="XMLID_341_"/><path class="st13" d="M-37.8 10.9v8.2h-4.1v-8.2z" id="XMLID_338_"/><path class="st14" d="M-32.7 10.9v4.4h-4.1v-4.4z" id="XMLID_335_"/></g><g id="XMLID_319_"><path class="st7" d="M-23.5 10.9v25h-4.1v-25z" id="XMLID_330_"/><path class="st12" d="M-18.4 10.9v33.3h-4.1V10.9z" id="XMLID_327_"/><path class="st13" d="M-13.3 10.9v12.5h-4.1V10.9z" id="XMLID_324_"/><path class="st14" d="M-8.2 10.9v4h-4.1v-4z" id="XMLID_321_"/></g><g id="XMLID_304_"><path class="st7" d="M1 10.9v20.9h-4.1V10.9z" id="XMLID_316_"/><path class="st12" d="M6.1 10.9v12.5H2V10.9z" id="XMLID_313_"/><path class="st13" d="M11.2 10.9v25H7.1v-25z" id="XMLID_310_"/><path class="st14" d="M16.3 10.9v6.3h-4v-6.3z" id="XMLID_306_"/></g><g id="XMLID_290_"><path class="st7" d="M25.5 10.9v18.3h-4.1V10.9z" id="XMLID_301_"/><path class="st12" d="M30.6 10.9v36.3h-4V10.9z" id="XMLID_298_"/><path class="st13" d="M35.7 10.9v20.9h-4V10.9z" id="XMLID_295_"/><path class="st14" d="M40.9 10.9v25h-4.1v-25z" id="XMLID_292_"/></g><g id="XMLID_276_"><path class="st7" d="M-146.3 10.9v18.3h-4.1V10.9z" id="XMLID_287_"/><path class="st12" d="M-141.2 10.9v36.3h-4.1V10.9z" id="XMLID_284_"/><path class="st13" d="M-136.1 10.9v20.9h-4.1V10.9z" id="XMLID_281_"/><path class="st14" d="M-131 10.9v25h-4v-25z" id="XMLID_278_"/></g><g id="XMLID_262_"><path class="st7" d="M50 10.9v16.4h-4V10.9z" id="XMLID_273_"/><path class="st12" d="M55.2 10.9v10h-4.1v-10z" id="XMLID_270_"/><path class="st13" d="M60.3 10.9V26h-4.1V10.9z" id="XMLID_267_"/><path class="st14" d="M65.4 10.9v6.3h-4.1v-6.3z" id="XMLID_264_"/></g><g id="XMLID_248_"><path class="st7" d="M74.6 10.9V37h-4.1V10.9z" id="XMLID_259_"/><path class="st12" d="M79.7 10.9v33.3h-4.1V10.9z" id="XMLID_256_"/><path class="st13" d="M84.8 10.9V26h-4.1V10.9z" id="XMLID_253_"/><path class="st14" d="M89.9 10.9V37h-4.1V10.9z" id="XMLID_250_"/></g><g id="XMLID_234_"><path class="st7" d="M99 10.9v18.3h-4.1V10.9z" id="XMLID_245_"/><path class="st12" d="M104.1 10.9v36.3H100V10.9z" id="XMLID_242_"/><path class="st13" d="M109.2 10.9v20.9h-4.1V10.9z" id="XMLID_239_"/><path class="st14" d="M114.3 10.9v25h-4.1v-25z" id="XMLID_236_"/></g><g id="XMLID_220_"><path class="st7" d="M123.5 10.9v16.4h-4.1V10.9z" id="XMLID_231_"/><path class="st12" d="M128.6 10.9v10h-4.1v-10z" id="XMLID_228_"/><path class="st13" d="M133.7 10.9V26h-4.1V10.9z" id="XMLID_225_"/><path class="st14" d="M138.8 10.9v6.3h-4.1v-6.3z" id="XMLID_222_"/></g><g id="XMLID_206_"><path class="st7" d="M148 10.9V37h-4.1V10.9z" id="XMLID_217_"/><path class="st12" d="M153.1 10.9v33.3H149V10.9z" id="XMLID_214_"/><path class="st13" d="M158.2 10.9V26h-4.1V10.9z" id="XMLID_211_"/><path class="st14" d="M163.3 10.9V37h-4.1V10.9z" id="XMLID_208_"/></g><g id="XMLID_190_"><path class="st7" d="M-97 10.9v8.8h-4.1v-8.8z" id="XMLID_203_"/><path class="st12" d="M-91.9 10.9v26.6H-96V10.9z" id="XMLID_200_"/><path class="st13" d="M-86.8 10.9v17.5h-4.1V10.9z" id="XMLID_197_"/><path class="st14" d="M-81.7 10.9v4.4h-4.1v-4.4z" id="XMLID_193_"/></g><g id="XMLID_174_"><path class="st7" d="M-121.6 10.9v8.8h-4v-8.8z" id="XMLID_187_"/><path class="st12" d="M-116.4 10.9v43.4h-4.1V10.9z" id="XMLID_184_"/><path class="st13" d="M-111.3 10.9v17.5h-4.1V10.9z" id="XMLID_181_"/><path class="st14" d="M-106.2 10.9v4.4h-4.1v-4.4z" id="XMLID_177_"/></g></g></g><g id="XMLID_145_"><path id="XMLID_165_" class="st12" d="M-127 75.9h-5.1c-.6 0-1-.5-1-1v-5.1c0-.6.5-1 1-1h5.1c.6 0 1 .5 1 1v5.1c0 .6-.4 1-1 1zm-.8-3.2l-2.2-2.2-1.2 1.2v1.4l1.2-1.2 2.2 2.2v-1.4z"/><path id="XMLID_161_" class="st13" d="M-90 75.9h-5.1c-.6 0-1-.5-1-1v-5.1c0-.6.5-1 1-1h5.1c.6 0 1 .5 1 1v5.1c0 .6-.4 1-1 1zm-.8-3.2l-2.2-2.2-1.2 1.2v1.4L-93 72l2.2 2.2v-1.5z"/><path id="XMLID_154_" class="st14" d="M-53 75.9h-5.1c-.6 0-1-.5-1-1v-5.1c0-.6.5-1 1-1h5.1c.6 0 1 .5 1 1v5.1c0 .6-.4 1-1 1zm-.8-3.2l-2.2-2.2-1.2 1.2v1.4L-56 72l2.2 2.2v-1.5z"/><path id="XMLID_147_" class="st7" d="M-164.5 75.9h-5.1c-.6 0-1-.5-1-1v-5.1c0-.6.5-1 1-1h5.1c.6 0 1 .5 1 1v5.1c0 .6-.5 1-1 1zm-.9-3.2l-2.2-2.2-1.2 1.2v1.4l1.2-1.2 2.2 2.2v-1.4z"/></g><path class="st8" d="M183.9 83h-367.7v17.7c0 .6.5 1 1 1h365.6c.6 0 1-.5 1-1V83z" id="XMLID_142_"/><path class="st8" d="M-5.1-130.1h-176.8c-1.1 0-2 .9-2 2V-53H-3.1v-75.1c0-1.1-.9-2-2-2z" id="XMLID_138_"/><g id="XMLID_111_"><path class="st8" d="M181.8-130H5c-1.1 0-2 .9-2 2v75h180.8v-75c0-1.1-.9-2-2-2z" id="XMLID_133_"/><g id="XMLID_114_"><g id="XMLID_450_"><path class="st7" d="M20.7-70h-6.9v1.2l2.6 2.6c.8.8 1.3 1.4 1.5 1.7.3.3.4.6.6.9.1.3.2.6.2.9 0 .5-.1.8-.4 1.1-.3.4-.6.6-1.1.6-.4 0-.8-.1-1.1-.2-.4-.1-.8-.4-1.3-.8l-.9 1.1c.6.5 1.1.8 1.7 1 .5.2 1.1.3 1.7.3.9 0 1.7-.2 2.3-.7.6-.5.9-1.2.9-2 0-.5-.1-.9-.2-1.3-.2-.4-.4-.8-.8-1.3s-.9-1-1.7-1.8L16-68.4v-.1h4.8V-70zM25.4-63.6c1 0 1.8-.3 2.4-.8s.9-1.3.9-2.2c0-1.1-.3-1.9-1-2.6-.7-.6-1.7-.9-2.9-.9-1.1 0-2 .2-2.7.6v1.5c.4-.2.8-.4 1.3-.5.5-.1.9-.2 1.4-.2.7 0 1.3.2 1.7.5.4.3.6.8.6 1.5 0 1.2-.8 1.8-2.3 1.8-.2 0-.5 0-.8-.1-.3 0-.6-.1-.8-.2l-.7.4.4 5h5.3v-1.5h-3.9l-.3-2.4c.2 0 .4.1.6.1h.8zM37.1-64.9c0-1.8-.3-3.1-.9-4-.6-.9-1.4-1.3-2.6-1.3-1.1 0-2 .4-2.6 1.3s-.9 2.2-.9 3.9c0 1.8.3 3.1.9 4s1.4 1.3 2.6 1.3c1.1 0 2-.4 2.6-1.3.6-.8.9-2.1.9-3.9zm-5.3 0c0-1.4.1-2.4.4-3 .3-.6.7-.9 1.4-.9.6 0 1.1.3 1.4.9.3.6.4 1.6.4 3s-.1 2.4-.4 3c-.3.6-.8.9-1.4.9-.6 0-1.1-.3-1.4-.9-.3-.6-.4-1.6-.4-3z"/><path class="st15" d="M42.8-59.8L39-70h-1.2l3.8 10.2h1.2zM48.2-63.7c1.1 0 1.9-.3 2.5-.8.6-.5.9-1.3.9-2.2 0-1.1-.3-1.9-1-2.5-.7-.6-1.6-.9-2.8-.9-1.1 0-2 .2-2.6.6v1.1c.3-.2.7-.4 1.2-.5.5-.1 1-.2 1.4-.2.8 0 1.5.2 1.9.6.5.4.7.9.7 1.7 0 1.4-.9 2.1-2.6 2.1-.4 0-1-.1-1.8-.2l-.6.4.4 4.8H51v-1.1h-4.1l-.3-3.1c.6.1 1.1.2 1.6.2zM60-64.9c0-1.8-.3-3.1-.8-4-.6-.9-1.4-1.3-2.6-1.3-1.1 0-1.9.4-2.5 1.3-.6.9-.9 2.2-.9 3.9 0 1.8.3 3.1.8 4 .6.9 1.4 1.3 2.5 1.3s1.9-.4 2.5-1.3c.7-.8 1-2.1 1-3.9zm-5.6 0c0-1.5.2-2.6.5-3.2.3-.7.9-1 1.7-1 .8 0 1.3.3 1.7 1s.5 1.8.5 3.2-.2 2.5-.5 3.2c-.3.7-.9 1-1.7 1-.8 0-1.3-.3-1.7-1-.3-.6-.5-1.7-.5-3.2zM68.2-64.9c0-1.8-.3-3.1-.8-4-.6-.9-1.4-1.3-2.6-1.3-1.1 0-1.9.4-2.5 1.3-.6.9-.9 2.2-.9 3.9 0 1.8.3 3.1.8 4 .6.9 1.4 1.3 2.5 1.3s1.9-.4 2.5-1.3c.7-.8 1-2.1 1-3.9zm-5.6 0c0-1.5.2-2.6.5-3.2.3-.7.9-1 1.7-1 .8 0 1.3.3 1.7 1s.5 1.8.5 3.2-.2 2.5-.5 3.2c-.3.7-.9 1-1.7 1-.8 0-1.3-.3-1.7-1-.3-.6-.5-1.7-.5-3.2z"/></g><path class="st0" d="M11.2-79.7h163.9v5.1H11.2z" id="XMLID_122_"/><path class="st7" d="M11.2-79.7h94v5.1h-94z" id="XMLID_117_"/></g></g><path class="st8" d="M-3.1-53.2h-180.8v16.4c0 1.1.9 2 2 2H-5.1c1.1 0 2-.9 2-2v-16.4z" id="XMLID_108_"/><path class="st8" d="M181.5-53.2H4.7c-1.1 0-2 .9-2 2v14.4c0 1.1.9 2 2 2h176.8c1.1 0 2-.9 2-2v-14.4c0-1.1-.9-2-2-2z" id="XMLID_104_"/><path id="XMLID_101_" class="st16" d="M-3.1-53.2"/><path id="XMLID_100_" class="st16" d="M183.5-53.2"/><path id="XMLID_99_" class="st16" d="M2.7-53.2"/><g id="XMLID_80_"><g id="XMLID_86_"><path id="XMLID_95_" class="st13" d="M-100.7-92.2c-2 0-3.6-1.6-3.6-3.6s1.6-3.6 3.6-3.6 3.6 1.6 3.6 3.6-1.6 3.6-3.6 3.6z"/><path id="XMLID_90_" class="st7" d="M-100.7-71.1c-2 0-3.6-1.6-3.6-3.6s1.6-3.6 3.6-3.6 3.6 1.6 3.6 3.6-1.6 3.6-3.6 3.6z"/></g><g id="XMLID_82_"><path id="XMLID_85_" class="st7" d="M-142-89.5l-26.6 3.3c-1.8-14.7 8.6-28.1 23.3-29.9s28.1 8.6 29.9 23.3-8.6 28.1-23.3 29.9c-1 .1-2.2.2-3.3.2v-26.8z"/><path id="XMLID_84_" class="st13" d="M-142-89.5v26.8c-13.8 0-24.9-9.9-26.6-23.5l26.6-3.3z"/></g></g></g><g class="st17"><path class="st18" d="M-85.2 86h-90v8h90zM-85.2-50.2h-90v8h90zM101.5-50.2h-90v8h90z"/><path class="st19" d="M-141.1 68.9h-20v7h20zM-104.1 69h-20v7h20zM-14.3-78.1h-79.2v7h79.2zM173.8-71.1h-40.1v7h40.1z"/><path class="st20" d="M176.2-120.4h-64v7h64z"/><path class="st19" d="M176.2-91.8h-165v7h165zM176.2-100.3h-165v7h165zM-14.3-99.2h-79.2v7h79.2z"/><path class="st20" d="M-34.4-86.7h-59.1v7h59.1zM-34.4-107.8h-59.1v7h59.1z"/><path class="st19" d="M-67.1 69h-20v7h20zM-30.1 69h-20v7h20zM-122.9-21.2h-34.5v7h34.5zM-162.5 7.1h-7v7h7zM-140.6-.9h-10.5v7h10.5zM-115.6-.9h-10.5v7h10.5zM-90.6-.9h-10.5v7h10.5zM-65.5-.9H-76v7h10.5zM-40.5-.9H-51v7h10.5zM-15.5-.9H-26v7h10.5zM9.5-.9H-1v7H9.5zM34.6-.9H24.1v7h10.5zM59.6-.9H49.1v7h10.5zM84.6-.9H74.1v7h10.5zM109.6-.9H99.1v7h10.5zM134.6-.9h-10.5v7h10.5zM159.7-.9h-10.5v7h10.5zM-162.5 17.4h-7v7h7zM-162.5 27.6h-7v7h7zM-162.5 37.8h-7v7h7zM-162.5 48h-7v7h7z"/><path class="st7" d="M-161.1-21.2h-13.7v7h13.7zM-90.2-21.2H-104v7h13.8zM-18.7-21.2h-13.7v7h13.7zM52.8-21.2H39.1v7h13.7zM50.1-120.9H22.8v8h27.3zM20.5-120.9h-9.3v8h9.3z"/><path class="st19" d="M-52.2-21.2h-34.5v7h34.5zM23.8-21.2h-39v7h39zM102-21.2H56.1v7H102z"/></g></symbol><use xlink:href="#New_Symbol" width="421.2" height="319" x="-210.6" y="-159.5" transform="matrix(1 0 0 -1 218.957 164.552)" overflow="visible"/><path d="M506.6 355.9h-192v-115c0-2.8 2.2-5 5-5h182c2.8 0 5 2.2 5 5v115z"/><path class="st21" d="M323.6 244.9h174v102h-174z"/><path class="st22" d="M512.6 364.9h-204l-9-4.5v-4.5h222v4.5z"/><circle id="XMLID_57_" class="st8" cx="410.6" cy="295.9" r="40"/><path class="st23" d="M397 314.3c.4-1.8.9-3.9 1.7-6.4l-2.3-1.9c-1.9 5.2-2.8 9.8-3.3 12.9 3-1 7.2-2.8 12-5.6l-2.3-1.9c-2.1 1.2-4.1 2.2-5.8 2.9z"/><path class="st7" d="M417.8 313.7c1.6-4.7-.4-8.7-.8-9.4 2.8-2.6 7.2-7.5 10.3-14.7 2.9-6.7 3.6-12.7 3.8-16.4-3.6.8-9.4 2.6-15.4 6.8-6.5 4.5-10.4 9.7-12.5 12.9-.8-.2-5.1-1.4-9.4 1-5.1 2.8-6 8.2-6.1 8.9 1.1-.5 3-1.2 5.3-1.4 2.1-.1 3.8.2 4.9.5l-1.8 3.9c1.6 1.4 3.1 2.7 4.7 4.1 1.6 1.3 3.2 2.5 4.9 3.8 1.2-.8 2.4-1.7 3.5-2.5.5 1.1 1.1 2.7 1.4 4.8.3 2.3 0 4.3-.3 5.5.5-.4 5.6-2.3 7.5-7.8zm-3.9-19.8c-1.6-1.4-1.9-3.8-.5-5.5 1.4-1.6 3.8-1.9 5.5-.5 1.6 1.4 1.9 3.8.5 5.5s-3.9 1.9-5.5.5z"/></svg>