<svg xmlns="http://www.w3.org/2000/svg" viewBox="0 0 128 128" enable-background="new 0 0 128 128"><style type="text/css">.st0{fill:#FFFFFF;} .st1{fill:#F8DD7C;} .st2{fill:#5993CE;}</style><circle id="XMLID_422_" class="st0" cx="64" cy="64" r="63.5"/><path class="st1" d="M42.4 93.1c.6-2.8 1.5-6.2 2.7-10.1l-3.6-3c-3 8.3-4.5 15.5-5.2 20.4 4.7-1.6 11.5-4.4 19.1-8.9l-3.6-3c-3.6 2-6.8 3.5-9.4 4.6z"/><path class="st2" d="M75.3 92.1c2.5-7.5-.6-13.8-1.2-15 4.4-4.2 11.4-11.8 16.4-23.3 4.7-10.6 5.7-20.1 6-26.1C90.7 29 81.6 31.9 72 38.5 61.6 45.6 55.4 53.9 52.1 59c-1.3-.4-8.1-2.2-15 1.6-8 4.5-9.5 13-9.7 14.1 1.8-.8 4.7-1.9 8.4-2.2 3.3-.2 6 .3 7.8.7-.9 2.1-1.9 4.2-2.8 6.3 2.5 2.2 4.9 4.3 7.4 6.5 2.6 2 5.2 4 7.7 6 1.9-1.3 3.7-2.6 5.6-4 .8 1.7 1.8 4.3 2.2 7.5.4 3.7-.1 6.8-.6 8.7 1.2-.3 9.3-3.3 12.2-12.1zm-6.2-31.3c-2.6-2.2-3-6-.8-8.7 2.2-2.6 6-3 8.7-.8 2.6 2.2 3 6 .8 8.7-2.2 2.6-6 3-8.7.8z"/></svg>