<svg xmlns="http://www.w3.org/2000/svg" xmlns:xlink="http://www.w3.org/1999/xlink" viewBox="0 0 990 540" enable-background="new 0 0 990 540"><style type="text/css">.st0{fill:none;stroke:#5891CC;stroke-width:4;stroke-miterlimit:10;} .st1{fill:#5891CC;} .st2{fill:#FFFFFF;} .st3{fill:none;} .st4{fill:#E9E9E9;} .st5{opacity:0.2;} .st6{fill:url(#XMLID_8_);} .st7{fill:#F3F3F3;} .st8{opacity:0.25;} .st9{fill:#7D8087;} .st10{fill:#68696F;} .st11{opacity:0.5;} .st12{fill:none;stroke:#FFFFFF;stroke-width:0.7483;stroke-miterlimit:10;} .st13{fill:#858585;} .st14{enable-background:new ;} .st15{fill:#282827;} .st16{opacity:0.4;} .st17{fill:#212121;} .st18{fill:#5E5E5E;} .st19{fill:none;stroke:#5891CC;stroke-width:1.0693;stroke-miterlimit:10;}</style><path class="st0" d="M504.9 266.3L913.2 415"/><circle class="st1" cx="916.9" cy="417.2" r="42" id="XMLID_605_"/><path class="st2" d="M930 406.1h-14l-3.5-3.5H902c-1.9 0-3.5 1.6-3.5 3.5v21c0 1.9 1.6 3.5 3.5 3.5h28c1.9 0 3.5-1.6 3.5-3.5v-17.5c0-1.9-1.6-3.5-3.5-3.5zm-8.7 5.2c1.9 0 3.5 1.6 3.5 3.5s-1.6 3.5-3.5 3.5-3.5-1.6-3.5-3.5 1.5-3.5 3.5-3.5zm7 14h-14v-1.8c0-2.3 4.7-3.5 7-3.5s7 1.2 7 3.5v1.8z"/><path class="st3" d="M895 395.6h42v42h-42v-42z"/><path class="st0" d="M504.9 266.2l414-150.7M504.9 266.2h434.6"/><path class="st1" d="M904.9 239.7l.1 52 49.4 15.9 30.4-42.1-30.6-41.9z"/><path class="st0" d="M504.9 266.2l408.7-148.8"/><circle class="st1" cx="915.7" cy="117.5" r="42" id="XMLID_288_"/><circle class="st2" cx="917" cy="118" r="5.6"/><path class="st2" d="M911.7 100.5l-3.2 3.5H903c-1.9 0-3.5 1.6-3.5 3.5v21c0 1.9 1.6 3.5 3.5 3.5h28c1.9 0 3.5-1.6 3.5-3.5v-21c0-1.9-1.6-3.5-3.5-3.5h-5.5l-3.2-3.5h-10.6zm5.3 26.2c-4.8 0-8.8-3.9-8.8-8.8s3.9-8.8 8.8-8.8 8.8 3.9 8.8 8.8-4 8.8-8.8 8.8z"/><path class="st3" d="M896 97h42v42h-42V97z"/><path class="st0" d="M504.9 266.2h435.8"/><path class="st2" d="M952.7 249.5h-28c-1.9 0-3.5 1.6-3.5 3.5v31.5l7-7h24.5c1.9 0 3.5-1.6 3.5-3.5v-21c0-1.9-1.6-3.5-3.5-3.5zm-24.5 12.2h21v3.5h-21v-3.5zm14 8.8h-14V267h14v3.5zm7-10.5h-21v-3.5h21v3.5z"/><path class="st3" d="M917.7 246h42v42h-42v-42z"/><path class="st0" d="M485.1 266.3L75.7 415.4"/><circle class="st1" cx="73.8" cy="416.3" r="42" id="XMLID_575_"/><path class="st3" d="M53.4 397h42v42h-42v-42z"/><path class="st2" d="M88.4 400.5h-28c-1.9 0-3.5 1.6-3.5 3.5v31.5l7-7h24.5c1.9 0 3.5-1.6 3.5-3.5v-21c0-1.9-1.6-3.5-3.5-3.5zm-3.5 21l-7-5.6v5.6h-14v-14h14v5.6l7-5.6v14z"/><path class="st0" d="M485.1 266.2H50.5"/><path class="st1" d="M85.1 239.7l-.1 52-49.4 15.9-30.4-42.1 30.6-41.9z"/><path class="st3" d="M28.7 246.7h42v42h-42v-42z"/><path class="st2" d="M60.2 250.2h-21c-1.9 0-3.5 1.6-3.5 3.5v28c0 1.9 1.6 3.5 3.5 3.5h21c1.9 0 3.5-1.6 3.5-3.5v-28c0-1.9-1.5-3.5-3.5-3.5zm-21 3.5H48v14l-4.4-2.6-4.4 2.6v-14z"/><path class="st0" d="M485.1 266.2L76.4 117.4"/><circle class="st1" cx="74.3" cy="117.5" r="42" id="XMLID_242_"/><path class="st2" d="M89 103.4H61c-1.9 0-3.5 1.6-3.5 3.5v21c0 1.9 1.6 3.5 3.5 3.5h28c1.9 0 3.5-1.6 3.5-3.5v-21c0-2-1.6-3.5-3.5-3.5zm0 7l-14 8.8-14-8.8v-3.5l14 8.8 14-8.8v3.5z"/><g id="XMLID_849_"><image width="3502" height="2668" xlink:href="B0C955F.png" transform="matrix(.194 0 0 .194 155.772 10.971)" overflow="visible" opacity=".25"/><path class="st4" d="M795.5 485.5H195.9c-2.4 0-4.4-2-4.4-4.4V43.3c0-2.4 2-4.4 4.4-4.4h599.7c2.4 0 4.4 2 4.4 4.4v437.8c-.1 2.5-2.1 4.4-4.5 4.4z"/><path d="M795.9 38.9c2.2 0 4 1.8 4 4v438.2c0 2.4-2 4.4-4.4 4.4H195.9c-2.4 0-4.4-2-4.4-4.4V43.3c0-2.4 2-4.4 4.4-4.4h600m0-.7h-600c-2.9 0-5.2 2.3-5.2 5.2v437.7c0 2.9 2.3 5.2 5.2 5.2h599.5c2.9 0 5.2-2.3 5.2-5.2V43c0-2.7-2.1-4.8-4.7-4.8z" class="st5"/></g><linearGradient id="XMLID_8_" gradientUnits="userSpaceOnUse" x1="495.738" y1="38.915" x2="495.738" y2="55.906"><stop offset="0" stop-color="#E7E7E7"/><stop offset="1" stop-color="#D0D0D1"/></linearGradient><path id="XMLID_832_" class="st6" d="M800 55.9H191.5V43c0-2.2 1.8-4 4-4h600.4c2.2 0 4 1.8 4 4v12.9z"/><path id="XMLID_829_" class="st7" d="M798.3 39.7c-.7-.5-1.5-.8-2.4-.8H195.5c-.9 0-1.7.3-2.4.8h605.2z"/><path id="XMLID_824_" class="st8" d="M191.5 55.9H800v.8H191.5z"/><g id="XMLID_821_"><path class="st9" d="M235.2 52.2c-2.4 0-4.4-2-4.4-4.4 0-2.4 2-4.4 4.4-4.4s4.4 2 4.4 4.4c0 2.4-2 4.4-4.4 4.4z"/><path class="st10" d="M235.2 43.8c2.2 0 4 1.8 4 4s-1.8 4-4 4-4-1.8-4-4c-.1-2.2 1.7-4 4-4m0-.7c-2.6 0-4.7 2.1-4.7 4.7s2.1 4.7 4.7 4.7 4.7-2.1 4.7-4.7-2.1-4.7-4.7-4.7z"/></g><g id="XMLID_818_"><path class="st9" d="M219 52.2c-2.4 0-4.4-2-4.4-4.4 0-2.4 2-4.4 4.4-4.4s4.4 2 4.4 4.4c0 2.4-2 4.4-4.4 4.4z"/><path class="st10" d="M219 43.8c2.2 0 4 1.8 4 4s-1.8 4-4 4-4-1.8-4-4 1.8-4 4-4m0-.7c-2.6 0-4.7 2.1-4.7 4.7s2.1 4.7 4.7 4.7 4.7-2.1 4.7-4.7-2.1-4.7-4.7-4.7z"/></g><g id="XMLID_815_"><path class="st9" d="M202.8 52.2c-2.4 0-4.4-2-4.4-4.4 0-2.4 2-4.4 4.4-4.4s4.4 2 4.4 4.4c0 2.4-2 4.4-4.4 4.4z"/><path class="st10" d="M202.8 43.8c2.2 0 4 1.8 4 4s-1.8 4-4 4-4-1.8-4-4 1.8-4 4-4m0-.7c-2.6 0-4.7 2.1-4.7 4.7s2.1 4.7 4.7 4.7 4.7-2.1 4.7-4.7-2.1-4.7-4.7-4.7z"/></g><path id="XMLID_810_" class="st1" d="M191.5 56.7H800v37.2H191.5z"/><g id="XMLID_611_"><path id="XMLID_804_" class="st4" d="M191.5 56.7h100.8v37.2H191.5z"/><g id="XMLID_612_"><g id="XMLID_801_"><path class="st1" d="M234.8 79.9l-.9-2.6h-3.5l-.9 2.6h-1.6l3.5-9.3h1.6l3.5 9.3h-1.7zm-1.3-3.9l-.9-2.5c-.1-.2-.2-.4-.3-.8-.1-.4-.2-.6-.2-.8-.1.5-.3 1.1-.5 1.7l-.8 2.4h2.7zM240.3 80c-1.1 0-1.9-.3-2.4-.9s-.8-1.5-.8-2.7c0-1.2.3-2.1.9-2.7s1.4-.9 2.5-.9c.7 0 1.4.1 2 .4l-.4 1.2c-.6-.2-1.1-.4-1.6-.4-1.2 0-1.8.8-1.8 2.4 0 .8.2 1.4.5 1.8.3.4.7.6 1.3.6.7 0 1.3-.2 1.9-.5v1.3c-.3.2-.5.3-.9.3-.4.1-.8.1-1.2.1zM246.7 80c-1.1 0-1.9-.3-2.4-.9s-.8-1.5-.8-2.7c0-1.2.3-2.1.9-2.7s1.4-.9 2.5-.9c.7 0 1.4.1 2 .4l-.4 1.2c-.6-.2-1.1-.4-1.6-.4-1.2 0-1.8.8-1.8 2.4 0 .8.2 1.4.5 1.8.3.4.7.6 1.3.6.7 0 1.3-.2 1.9-.5v1.3c-.3.2-.5.3-.9.3-.4.1-.8.1-1.2.1zM256.5 76.4c0 1.1-.3 2-.9 2.7s-1.4 1-2.4 1c-.7 0-1.2-.1-1.7-.4-.5-.3-.9-.7-1.2-1.3-.3-.6-.4-1.2-.4-1.9 0-1.1.3-2 .9-2.7.6-.6 1.4-1 2.5-1 1 0 1.8.3 2.4 1s.8 1.5.8 2.6zm-5.1 0c0 1.6.6 2.4 1.8 2.4 1.2 0 1.8-.8 1.8-2.4 0-1.6-.6-2.4-1.8-2.4-.6 0-1.1.2-1.4.6s-.4 1-.4 1.8zM263.1 79.9l-.2-.9h-.1c-.2.3-.5.6-.9.8-.4.2-.8.3-1.3.3-.8 0-1.5-.2-1.9-.6-.4-.4-.6-1.1-.6-1.9V73h1.5v4.3c0 .5.1.9.3 1.2.2.3.6.4 1 .4.6 0 1.1-.2 1.4-.6s.4-1 .4-1.9v-3.5h1.5v7h-1.1zM272.6 79.9h-1.5v-4.3c0-.5-.1-.9-.3-1.2-.2-.3-.6-.4-1-.4-.6 0-1.1.2-1.4.6-.3.4-.4 1-.4 1.9V80h-1.5v-7h1.2l.2.9h.1c.2-.3.5-.6.9-.8.4-.2.8-.3 1.3-.3 1.7 0 2.5.9 2.5 2.6v4.5zM277.3 78.8c.4 0 .7-.1 1.1-.2v1.1c-.2.1-.4.1-.6.2-.3 0-.5.1-.8.1-1.4 0-2.1-.7-2.1-2.2V74h-1v-.7l1-.5.5-1.5h.9v1.6h2V74h-2v3.7c0 .4.1.6.3.8.1.3.4.3.7.3z"/></g><g id="XMLID_613_"><path id="XMLID_625_" class="st1" d="M206.9 71.8h3.2v-3.2h-3.2v3.2zm4.8 9.7h3.2v-3.2h-3.2v3.2zm-4.8 0h3.2v-3.2h-3.2v3.2zm0-4.8h3.2v-3.2h-3.2v3.2zm4.8 0h3.2v-3.2h-3.2v3.2zm4.9-8.1v3.2h3.2v-3.2h-3.2zm-4.9 3.2h3.2v-3.2h-3.2v3.2zm4.9 4.9h3.2v-3.2h-3.2v3.2zm0 4.8h3.2v-3.2h-3.2v3.2z"/><path id="XMLID_614_" class="st3" d="M203.6 65.3H223v19.4h-19.4V65.3z"/></g></g></g><g id="XMLID_603_"><path id="XMLID_610_" class="st1" d="M292.3 56.7h118.1v37.2H292.3z"/><g id="XMLID_604_"><g id="XMLID_573_"><path class="st2" d="M337.5 75.2c0 1.5-.4 2.7-1.3 3.5-.8.8-2.1 1.2-3.7 1.2h-2.6v-9.2h2.9c1.5 0 2.6.4 3.4 1.2s1.3 1.9 1.3 3.3zm-1.6.1c0-2.2-1-3.3-3.1-3.3h-1.3v6.7h1.1c2.1-.1 3.3-1.2 3.3-3.4zM343.7 79.9l-.3-1h-.1c-.3.4-.7.7-1 .9-.3.2-.8.2-1.3.2-.7 0-1.2-.2-1.6-.6s-.6-.9-.6-1.6c0-.7.3-1.3.8-1.6.5-.4 1.3-.6 2.4-.6h1.2v-.4c0-.4-.1-.8-.3-1-.2-.2-.5-.3-1-.3-.4 0-.7.1-1 .2-.3.1-.6.2-.9.4l-.5-1.1c.4-.2.8-.3 1.2-.5.5-.1.9-.2 1.3-.2.9 0 1.6.2 2 .6s.7 1 .7 1.8v4.7h-1zm-2.3-1c.5 0 1-.2 1.3-.5.3-.3.5-.7.5-1.3v-.6h-.9c-.7 0-1.2.1-1.5.4-.3.2-.5.5-.5 1 0 .3.1.6.3.7.2.2.5.3.8.3zM351.5 77.9c0 .7-.2 1.2-.7 1.6-.5.4-1.2.5-2.1.5-.9 0-1.7-.1-2.2-.4v-1.3c.8.4 1.6.6 2.3.6.9 0 1.4-.3 1.4-.8 0-.2 0-.3-.2-.4-.1-.1-.3-.2-.5-.4-.2-.1-.6-.3-1-.4-.8-.3-1.3-.6-1.6-.9s-.4-.7-.4-1.2c0-.6.2-1.1.7-1.4s1.1-.5 2-.5c.8 0 1.6.2 2.3.5l-.5 1.1c-.8-.3-1.4-.5-1.9-.5-.8 0-1.2.2-1.2.7 0 .2.1.4.3.6.2.2.6.4 1.3.6.6.2 1 .4 1.3.6.3.2.5.4.6.6 0 .2.1.5.1.8zM359.2 79.9h-1.5v-4.3c0-.5-.1-.9-.3-1.2-.2-.3-.6-.4-1-.4-.6 0-1.1.2-1.4.6-.3.4-.4 1-.4 1.9V80h-1.5v-9.8h1.5v2.5c0 .4 0 .8-.1 1.3h.1c.2-.3.5-.6.8-.8s.8-.3 1.3-.3c1.7 0 2.5.9 2.5 2.6v4.4zM364.9 72.8c.9 0 1.6.3 2 .9.5.6.7 1.5.7 2.7 0 1.1-.2 2-.7 2.7s-1.2 1-2.1 1c-.9 0-1.6-.3-2.1-1h-.1l-.3.8h-1.1v-9.8h1.5v3.8h.1c.5-.8 1.2-1.1 2.1-1.1zm-.4 1.2c-.6 0-1 .2-1.3.5s-.4.9-.4 1.8v.1c0 .9.1 1.5.4 1.8.3.4.7.6 1.3.6.5 0 .9-.2 1.2-.6s.4-1 .4-1.8c0-1.6-.5-2.4-1.6-2.4zM375.6 76.4c0 1.1-.3 2-.9 2.7s-1.4 1-2.4 1c-.7 0-1.2-.1-1.7-.4-.5-.3-.9-.7-1.2-1.3-.3-.6-.4-1.2-.4-1.9 0-1.1.3-2 .9-2.7.6-.6 1.4-1 2.5-1 1 0 1.8.3 2.4 1s.8 1.5.8 2.6zm-5.1 0c0 1.6.6 2.4 1.8 2.4 1.2 0 1.8-.8 1.8-2.4 0-1.6-.6-2.4-1.8-2.4-.6 0-1.1.2-1.4.6s-.4 1-.4 1.8zM381.7 79.9l-.3-1h-.1c-.3.4-.7.7-1 .9-.3.2-.8.2-1.3.2-.7 0-1.2-.2-1.6-.6s-.6-.9-.6-1.6c0-.7.3-1.3.8-1.6.5-.4 1.3-.6 2.4-.6h1.2v-.4c0-.4-.1-.8-.3-1-.2-.2-.5-.3-1-.3-.4 0-.7.1-1 .2-.3.1-.6.2-.9.4l-.5-1.1c.4-.2.8-.3 1.2-.5.5-.1.9-.2 1.3-.2.9 0 1.6.2 2 .6s.7 1 .7 1.8v4.7h-1zm-2.3-1c.5 0 1-.2 1.3-.5.3-.3.5-.7.5-1.3v-.6h-.9c-.7 0-1.2.1-1.5.4-.3.2-.5.5-.5 1 0 .3.1.6.3.7.2.2.5.3.8.3zM388.3 72.8c.3 0 .5 0 .7.1l-.1 1.4c-.2-.1-.4-.1-.7-.1-.6 0-1.1.2-1.4.6-.4.4-.6.9-.6 1.5V80h-1.5v-7h1.2l.2 1.2h.1c.2-.4.5-.7.9-1 .4-.3.8-.4 1.2-.4zM392.7 80c-.9 0-1.6-.3-2-.9-.5-.6-.7-1.5-.7-2.7 0-1.1.2-2 .7-2.7.5-.6 1.2-1 2.1-1 .9 0 1.6.3 2.1 1h.1c-.1-.5-.1-.9-.1-1.2V70h1.5v9.8h-1.2l-.3-.9h-.1c-.5.8-1.2 1.1-2.1 1.1zm.4-1.2c.6 0 1.1-.2 1.3-.5.3-.3.4-.9.4-1.7v-.2c0-.9-.1-1.5-.4-1.9-.3-.4-.7-.6-1.3-.6-.5 0-.9.2-1.2.6-.3.4-.4 1-.4 1.8s.1 1.4.4 1.8c.3.5.7.7 1.2.7z"/></g><g id="XMLID_327_"><path id="XMLID_569_" class="st2" d="M315.7 77.9l3-4.1-4.3 2.7c-.5-.1-1 0-1.4.4-.7.6-.7 1.6-.1 2.3s1.6.7 2.3.1c.4-.4.6-.9.5-1.4z"/><path id="XMLID_448_" class="st2" d="M309.5 80.9c-1.1-1.2-1.8-2.7-1.8-4.5 0-3.6 2.9-6.5 6.5-6.5s6.5 2.9 6.5 6.5c0 1.7-.7 3.3-1.8 4.5l1.4.8c1.2-1.4 2-3.3 2-5.3 0-4.5-3.6-8.1-8.1-8.1s-8.1 3.6-8.1 8.1c0 2 .8 3.9 2 5.3l1.4-.8z"/></g></g></g><g id="XMLID_576_"><path id="XMLID_602_" class="st1" d="M410.5 56.7H510v37.2h-99.5z"/><g id="XMLID_596_"><g id="XMLID_601_"><path class="st2" d="M453.4 77.4c0 .8-.3 1.5-.9 1.9-.6.5-1.4.7-2.5.7s-1.9-.2-2.6-.5v-1.4c.4.2.9.4 1.3.5.5.1.9.2 1.3.2.6 0 1-.1 1.3-.3.3-.2.4-.5.4-.9 0-.3-.1-.6-.4-.9-.3-.2-.8-.5-1.6-.9-.8-.3-1.4-.7-1.8-1.2s-.5-1-.5-1.6c0-.8.3-1.4.8-1.8s1.3-.7 2.2-.7c.9 0 1.8.2 2.6.6l-.5 1.2c-.8-.3-1.6-.5-2.2-.5-.5 0-.9.1-1.1.3s-.4.5-.4.8c0 .2.1.4.2.6.1.2.3.3.5.5s.6.4 1.3.6c.7.3 1.2.5 1.5.8.3.2.5.5.7.8s.4.8.4 1.2zM458.1 80c-1.1 0-1.9-.3-2.6-1-.6-.6-.9-1.5-.9-2.6s.3-2 .9-2.7 1.4-1 2.3-1c.9 0 1.7.3 2.2.8s.8 1.3.8 2.3v.8h-4.7c0 .7.2 1.2.5 1.6.3.4.8.5 1.5.5.4 0 .8 0 1.2-.1s.7-.2 1.1-.4v1.2c-.4.2-.7.3-1.1.4-.3.2-.8.2-1.2.2zm-.3-6.1c-.5 0-.8.1-1.1.4-.3.3-.5.7-.5 1.3h3.2c0-.6-.1-1-.4-1.3-.4-.2-.7-.4-1.2-.4zM465.1 78.8c.4 0 .7-.1 1.1-.2v1.1c-.2.1-.4.1-.6.2-.3 0-.5.1-.8.1-1.4 0-2.1-.7-2.1-2.2V74h-1v-.7l1-.5.5-1.5h.9v1.6h2V74h-2v3.7c0 .4.1.6.3.8.2.3.4.3.7.3zM470.2 78.8c.4 0 .7-.1 1.1-.2v1.1c-.2.1-.4.1-.6.2-.3 0-.5.1-.8.1-1.4 0-2.1-.7-2.1-2.2V74h-1v-.7l1-.5.5-1.5h.9v1.6h2V74h-2v3.7c0 .4.1.6.3.8.1.3.4.3.7.3zM472.6 71.1c0-.3.1-.5.2-.6.1-.1.4-.2.6-.2.3 0 .5.1.6.2.1.1.2.3.2.6s-.1.5-.2.6-.3.2-.6.2-.5-.1-.6-.2-.2-.4-.2-.6zm1.5 8.8h-1.5v-7h1.5v7zM482.4 79.9h-1.5v-4.3c0-.5-.1-.9-.3-1.2-.2-.3-.6-.4-1-.4-.6 0-1.1.2-1.4.6-.3.4-.4 1-.4 1.9V80h-1.5v-7h1.2l.2.9h.1c.2-.3.5-.6.9-.8.4-.2.8-.3 1.3-.3 1.7 0 2.5.9 2.5 2.6v4.5zM490.4 72.9v.8l-1.2.2c.1.1.2.3.3.5.1.2.1.4.1.7 0 .7-.2 1.3-.7 1.7s-1.2.6-2.1.6c-.2 0-.4 0-.6-.1-.3.2-.5.4-.5.7 0 .2.1.3.2.4s.4.1.8.1h1.2c.8 0 1.4.2 1.8.5s.6.8.6 1.4c0 .8-.3 1.4-1 1.8s-1.6.6-2.8.6c-1 0-1.7-.2-2.2-.5-.5-.3-.8-.8-.8-1.4 0-.4.1-.8.4-1.1.3-.3.7-.5 1.1-.6-.2-.1-.4-.2-.5-.4s-.2-.4-.2-.6c0-.3.1-.5.2-.7.1-.2.4-.4.7-.5-.4-.2-.7-.4-.9-.8s-.3-.8-.3-1.2c0-.8.2-1.3.7-1.8.5-.4 1.2-.6 2-.6h.6s.4.1.5.1h2.6zm-5.5 8.1c0 .3.1.6.4.7.3.2.7.3 1.2.3.8 0 1.4-.1 1.8-.3.4-.2.6-.5.6-.9 0-.3-.1-.5-.3-.6-.2-.1-.6-.2-1.2-.2h-1.1c-.4 0-.8.1-1 .3-.3.1-.4.4-.4.7zm.6-5.8c0 .4.1.8.3 1 .2.2.5.4 1 .4.9 0 1.3-.5 1.3-1.4 0-.5-.1-.8-.3-1.1s-.5-.4-1-.4c-.4 0-.8.1-1 .4-.2.3-.3.6-.3 1.1zM496.4 77.9c0 .7-.2 1.2-.7 1.6-.5.4-1.2.5-2.1.5-.9 0-1.7-.1-2.2-.4v-1.3c.8.4 1.6.6 2.3.6.9 0 1.4-.3 1.4-.8 0-.2 0-.3-.2-.4-.1-.1-.3-.2-.5-.4-.2-.1-.6-.3-1-.4-.8-.3-1.3-.6-1.6-.9s-.4-.7-.4-1.2c0-.6.2-1.1.7-1.4s1.1-.5 2-.5c.8 0 1.6.2 2.3.5l-.5 1.1c-.8-.3-1.4-.5-1.9-.5-.8 0-1.2.2-1.2.7 0 .2.1.4.3.6.2.2.6.4 1.3.6.6.2 1 .4 1.3.6.3.2.5.4.6.6 0 .2.1.5.1.8z"/></g><path id="XMLID_600_" class="st3" d="M422.6 65.3H442v19.4h-19.4V65.3z"/><path id="XMLID_597_" class="st2" d="M438.3 75.8c0-.3.1-.5.1-.8 0-.3 0-.5-.1-.8l1.7-1.3c.2-.1.2-.3.1-.5l-1.6-2.8c-.1-.2-.3-.2-.5-.2l-2 .8c-.4-.3-.9-.6-1.4-.8l-.3-2.1c0-.2-.2-.3-.4-.3h-3.2c-.2 0-.4.1-.4.3l-.3 2.1c-.5.2-.9.5-1.4.8l-2-.8c-.2-.1-.4 0-.5.2l-1.6 2.8c-.1.2-.1.4.1.5l1.7 1.3c0 .3-.1.5-.1.8s0 .5.1.8l-1.7 1.3c-.2.1-.2.3-.1.5l1.6 2.8c.1.2.3.2.5.2l2-.8c.4.3.9.6 1.4.8l.3 2.1c0 .2.2.3.4.3h3.2c.2 0 .4-.1.4-.3l.3-2.1c.5-.2.9-.5 1.4-.8l2 .8c.2.1.4 0 .5-.2l1.6-2.8c.1-.2.1-.4-.1-.5l-1.7-1.3zm-6 2.1c-1.6 0-2.8-1.3-2.8-2.8 0-1.6 1.3-2.8 2.8-2.8s2.8 1.3 2.8 2.8c0 1.5-1.2 2.8-2.8 2.8z"/></g><g id="XMLID_577_"><path id="XMLID_594_" class="st1" d="M510 56.7h78.9v37.2H510z"/><g id="XMLID_580_"><g id="XMLID_592_"><path class="st2" d="M552.6 79.9h-1.5v-4.2h-4.3v4.2h-1.5v-9.2h1.5v3.8h4.3v-3.8h1.5v9.2zM557.9 80c-1.1 0-1.9-.3-2.6-1-.6-.6-.9-1.5-.9-2.6s.3-2 .9-2.7 1.4-1 2.3-1c.9 0 1.7.3 2.2.8s.8 1.3.8 2.3v.8H556c0 .7.2 1.2.5 1.6.3.4.8.5 1.5.5.4 0 .8 0 1.2-.1s.7-.2 1.1-.4v1.2c-.4.2-.7.3-1.1.4-.4.2-.8.2-1.3.2zm-.2-6.1c-.5 0-.8.1-1.1.4-.3.3-.5.7-.5 1.3h3.2c0-.6-.1-1-.4-1.3-.4-.2-.8-.4-1.2-.4zM563.8 79.9h-1.5v-9.8h1.5v9.8zM569.5 80c-.9 0-1.6-.3-2.1-1h-.1c.1.6.1.9.1 1.1V83h-1.5V72.9h1.2c0 .1.1.4.2.9h.1c.5-.7 1.2-1.1 2.1-1.1.9 0 1.6.3 2 .9.5.6.7 1.5.7 2.7 0 1.1-.2 2-.7 2.7s-1.1 1-2 1zm-.4-6c-.6 0-1 .2-1.3.5-.3.3-.4.9-.4 1.7v.2c0 .9.1 1.5.4 1.8.3.4.7.6 1.3.6.5 0 .9-.2 1.2-.6.3-.4.4-1 .4-1.8s-.1-1.4-.4-1.8c-.2-.4-.6-.6-1.2-.6z"/></g><path id="XMLID_583_" class="st2" d="M529.6 79.9h1.6v-1.6h-1.6v1.6zm.8-13c-4.5 0-8.1 3.6-8.1 8.1s3.6 8.1 8.1 8.1 8.1-3.6 8.1-8.1-3.7-8.1-8.1-8.1zm0 14.6c-3.6 0-6.5-2.9-6.5-6.5s2.9-6.5 6.5-6.5 6.5 2.9 6.5 6.5-3 6.5-6.5 6.5zm0-11.3c-1.8 0-3.2 1.4-3.2 3.2h1.6c0-.9.7-1.6 1.6-1.6.9 0 1.6.7 1.6 1.6 0 1.6-2.4 1.4-2.4 4h1.6c0-1.8 2.4-2 2.4-4 0-1.8-1.4-3.2-3.2-3.2z"/></g></g></g><path class="st12" d="M411.3 64v22.7" id="XMLID_574_"/><path class="st12" d="M509.2 64v22.7" id="XMLID_572_"/><g id="XMLID_568_"><path id="XMLID_571_" class="st13" d="M309.7 413.4h372.2v.8H309.7z"/><g id="XMLID_413_" class="st14"><path class="st15" d="M398 430.7c0 1.3-.4 2.4-1.1 3.1s-1.8 1.1-3.1 1.1h-2.3v-8.1h2.5c1.3 0 2.2.3 2.9 1 .8.6 1.1 1.6 1.1 2.9zm-1 0c0-1.1-.3-1.8-.8-2.4s-1.3-.8-2.4-.8h-1.4v6.5h1.2c1.1 0 2-.3 2.5-.8.6-.6.9-1.4.9-2.5zM405.4 431.7c0 1-.3 1.8-.8 2.3-.5.6-1.2.8-2.1.8-.5 0-1-.1-1.5-.4-.4-.3-.7-.6-1-1.1-.2-.5-.3-1-.3-1.7 0-1 .2-1.8.7-2.3.5-.6 1.2-.8 2.1-.8.9 0 1.5.3 2 .8.6.7.9 1.5.9 2.4zm-4.7 0c0 .8.2 1.4.5 1.8.3.4.8.6 1.4.6s1.1-.2 1.4-.6.5-1 .5-1.8-.2-1.4-.5-1.8c-.3-.4-.8-.6-1.4-.6-.6 0-1.1.2-1.4.6s-.5 1.1-.5 1.8zM411.6 434.8v-3.9c0-.5-.1-.9-.3-1.1-.2-.2-.6-.4-1.1-.4-.6 0-1.1.2-1.4.5-.3.3-.4.9-.4 1.7v3.2h-.9v-6.1h.8l.2.8c.2-.3.5-.5.8-.7.3-.2.7-.2 1.1-.2.7 0 1.3.2 1.7.5.4.4.6.9.6 1.7v4h-1.1zM415.5 426.7l.1.1c-.1.4-.2.8-.4 1.3s-.4.9-.6 1.4h-.6c.3-1.1.4-2 .6-2.8h.9zM419.1 434.1h.5c.2 0 .3 0 .4-.1v.7c-.1 0-.2.1-.4.1h-.5c-1.2 0-1.8-.6-1.8-1.9v-3.6h-.9v-.3l.9-.4.4-1.3h.5v1.4h1.8v.7h-1.8v3.6c0 .4.1.6.3.8.1.2.3.3.6.3zM429.1 434.8v-3.9c0-.5-.1-.9-.3-1.1-.2-.2-.6-.4-1.1-.4-.6 0-1.1.2-1.4.5-.3.3-.4.9-.4 1.7v3.2h-.9v-8.6h.9V429.6h.1c.2-.3.4-.5.8-.7.3-.2.7-.3 1.1-.3.7 0 1.3.2 1.7.5.4.4.6.9.6 1.7v4h-1.1zM436.1 434.8l-.2-.9c-.3.4-.6.6-.9.8-.3.1-.7.2-1.1.2-.6 0-1.1-.2-1.4-.5s-.5-.8-.5-1.3c0-1.2 1-1.9 3-1.9h1v-.4c0-.5-.1-.8-.3-1.1-.2-.2-.5-.3-1-.3s-1.1.2-1.7.5l-.3-.7c.3-.2.6-.3 1-.4.4-.1.7-.1 1.1-.1.7 0 1.3.2 1.6.5s.5.8.5 1.5v4.1h-.8zm-2.1-.7c.6 0 1-.2 1.4-.5.3-.3.5-.8.5-1.3v-.5h-.9c-.7 0-1.3.1-1.6.3-.3.2-.5.5-.5.9 0 .3.1.6.3.8.2.2.4.3.8.3zM440.4 434.8l-2.3-6.1h1l1.3 3.6c.3.8.5 1.4.5 1.6 0-.2.2-.6.4-1.2s.7-2 1.5-4h1l-2.3 6.1h-1.1zM447.8 434.9c-.9 0-1.6-.3-2.1-.8s-.8-1.3-.8-2.3c0-1 .2-1.8.7-2.3.5-.6 1.1-.9 1.9-.9.8 0 1.4.3 1.8.8.4.5.7 1.2.7 2v.6h-4.2c0 .7.2 1.3.5 1.6.3.4.8.6 1.4.6.7 0 1.3-.1 1.9-.4v.8l-.9.3h-.9zm-.3-5.5c-.5 0-.9.2-1.2.5-.3.3-.5.8-.5 1.3h3.2c0-.6-.1-1-.4-1.3-.2-.4-.6-.5-1.1-.5zM459.1 434.8l-.2-.9c-.3.4-.6.6-.9.8-.3.1-.7.2-1.1.2-.6 0-1.1-.2-1.4-.5s-.5-.8-.5-1.3c0-1.2 1-1.9 3-1.9h1v-.4c0-.5-.1-.8-.3-1.1-.2-.2-.5-.3-1-.3s-1.1.2-1.7.5l-.3-.7c.3-.2.6-.3 1-.4.4-.1.7-.1 1.1-.1.7 0 1.3.2 1.6.5s.5.8.5 1.5v4.1h-.8zm-2.1-.7c.6 0 1-.2 1.4-.5.3-.3.5-.8.5-1.3v-.5h-.9c-.7 0-1.3.1-1.6.3-.3.2-.5.5-.5.9 0 .3.1.6.3.8.2.2.5.3.8.3zM466.3 434.8v-3.9c0-.5-.1-.9-.3-1.1-.2-.2-.6-.4-1.1-.4-.6 0-1.1.2-1.4.5-.3.3-.4.9-.4 1.7v3.2h-.9v-6.1h.8l.2.8c.2-.3.5-.5.8-.7.3-.2.7-.2 1.1-.2.7 0 1.3.2 1.7.5.4.4.6.9.6 1.7v4h-1.1zM476.6 434.8l-.2-.9c-.3.4-.6.6-.9.8-.3.1-.7.2-1.1.2-.6 0-1.1-.2-1.4-.5s-.5-.8-.5-1.3c0-1.2 1-1.9 3-1.9h1v-.4c0-.5-.1-.8-.3-1.1-.2-.2-.5-.3-1-.3s-1.1.2-1.7.5l-.3-.7c.3-.2.6-.3 1-.4.4-.1.7-.1 1.1-.1.7 0 1.3.2 1.6.5s.5.8.5 1.5v4.1h-.8zm-2.1-.7c.6 0 1-.2 1.4-.5.3-.3.5-.8.5-1.3v-.5h-.9c-.7 0-1.3.1-1.6.3-.3.2-.5.5-.5.9 0 .3.1.6.3.8.2.2.5.3.8.3zM482.1 434.9c-.9 0-1.6-.3-2-.8-.5-.5-.7-1.3-.7-2.3 0-1 .2-1.8.7-2.3s1.2-.8 2.1-.8c.3 0 .6 0 .9.1s.5.1.7.2l-.3.8c-.2-.1-.4-.1-.7-.2-.2-.1-.5-.1-.6-.1-1.2 0-1.9.8-1.9 2.4 0 .7.2 1.3.5 1.7.3.4.7.6 1.3.6.5 0 1-.1 1.6-.3v.8c-.5.1-1 .2-1.6.2zM487.9 434.9c-.9 0-1.6-.3-2-.8-.5-.5-.7-1.3-.7-2.3 0-1 .2-1.8.7-2.3s1.2-.8 2.1-.8c.3 0 .6 0 .9.1s.5.1.7.2l-.3.8c-.2-.1-.4-.1-.7-.2-.2-.1-.5-.1-.6-.1-1.2 0-1.9.8-1.9 2.4 0 .7.2 1.3.5 1.7.3.4.7.6 1.3.6.5 0 1-.1 1.6-.3v.8c-.5.1-1 .2-1.6.2zM496.5 431.7c0 1-.3 1.8-.8 2.3-.5.6-1.2.8-2.1.8-.5 0-1-.1-1.5-.4-.4-.3-.7-.6-1-1.1-.2-.5-.3-1-.3-1.7 0-1 .2-1.8.7-2.3.5-.6 1.2-.8 2.1-.8.9 0 1.5.3 2 .8.7.7.9 1.5.9 2.4zm-4.6 0c0 .8.2 1.4.5 1.8.3.4.8.6 1.4.6s1.1-.2 1.4-.6.5-1 .5-1.8-.2-1.4-.5-1.8c-.3-.4-.8-.6-1.4-.6-.6 0-1.1.2-1.4.6s-.5 1.1-.5 1.8zM499.4 428.7v3.9c0 .5.1.9.3 1.1.2.2.6.4 1.1.4.6 0 1.1-.2 1.4-.5.3-.3.4-.9.4-1.7v-3.2h.9v6.1h-.8l-.1-.8c-.2.3-.5.5-.8.7s-.7.2-1.1.2c-.7 0-1.3-.2-1.7-.5-.4-.3-.6-.9-.6-1.7v-4h1zM510.1 434.8v-3.9c0-.5-.1-.9-.3-1.1-.2-.2-.6-.4-1.1-.4-.6 0-1.1.2-1.4.5-.3.3-.4.9-.4 1.7v3.2h-.9v-6.1h.8l.2.8c.2-.3.5-.5.8-.7.3-.2.7-.2 1.1-.2.7 0 1.3.2 1.7.5.4.4.6.9.6 1.7v4h-1.1zM515.3 434.1h.5c.2 0 .3 0 .4-.1v.7c-.1 0-.2.1-.4.1h-.5c-1.2 0-1.8-.6-1.8-1.9v-3.6h-.9v-.3l.9-.4.4-1.3h.5v1.4h1.8v.7h-1.8v3.6c0 .4.1.6.3.8.1.2.3.3.6.3zM518.4 432.6v-.3c0-.4.1-.8.2-1.1.1-.3.4-.6.7-.9.5-.4.8-.7 1-1 .1-.2.2-.5.2-.8 0-.4-.1-.7-.4-.9-.2-.2-.6-.3-1-.3-.3 0-.6 0-.9.1-.3.1-.6.2-1 .4l-.3-.7c.7-.4 1.4-.5 2.2-.5.7 0 1.3.2 1.7.5.4.3.6.8.6 1.5 0 .3 0 .5-.1.7l-.3.6c-.1.2-.4.5-.9.9-.4.3-.6.6-.7.8-.1.2-.2.5-.2.8v.2h-.8zm-.2 1.6c0-.5.2-.8.7-.8.2 0 .4.1.5.2.1.1.2.3.2.6 0 .2-.1.4-.2.6-.1.1-.3.2-.5.2s-.4-.1-.5-.2c-.2-.1-.2-.3-.2-.6z"/><path class="st1" d="M533.3 428c-.6 0-1.2.2-1.5.7s-.5 1.2-.5 2c0 1.8.7 2.7 2 2.7.6 0 1.3-.1 2.1-.4v1.4c-.7.3-1.4.4-2.2.4-1.2 0-2.1-.4-2.7-1.1s-.9-1.7-.9-3.1c0-.8.2-1.6.5-2.2.3-.6.8-1.1 1.3-1.5.6-.3 1.3-.5 2-.5.8 0 1.6.2 2.4.6l-.6 1.4c-.3-.1-.6-.3-.9-.4-.4.1-.7 0-1 0zM539.3 431.7v3.1h-1.7v-8.1h2.4c1.1 0 1.9.2 2.5.6.5.4.8 1 .8 1.8 0 .5-.1.9-.4 1.3-.3.4-.6.7-1.1.9 1.2 1.8 2 3 2.4 3.5h-1.9l-1.9-3.1h-1.1zm0-1.4h.6c.5 0 .9-.1 1.2-.3.3-.2.4-.5.4-.9s-.1-.7-.4-.8c-.3-.2-.7-.2-1.2-.2h-.5v2.2zM550.2 434.8h-4.7v-8.1h4.7v1.4h-3v1.8h2.8v1.4h-2.8v2.1h3v1.4zM557.3 434.8l-.6-1.9h-3l-.6 1.9h-1.9l2.9-8.1h2.1l2.9 8.1h-1.8zm-1.1-3.4c-.5-1.7-.9-2.7-.9-3s-.1-.4-.1-.5c-.1.5-.5 1.6-1.1 3.5h2.1zM563.7 434.8H562v-6.7h-2.2v-1.4h6.1v1.4h-2.2v6.7zM572.2 434.8h-4.7v-8.1h4.7v1.4h-3v1.8h2.8v1.4h-2.8v2.1h3v1.4zM585.1 430.7c0 1.3-.3 2.4-1 3.1-.7.7-1.6 1.1-2.9 1.1-1.2 0-2.2-.4-2.9-1.1-.7-.7-1-1.8-1-3.1s.3-2.4 1-3.1c.7-.7 1.6-1.1 2.9-1.1 1.2 0 2.2.4 2.9 1.1.7.8 1 1.8 1 3.1zm-6 0c0 .9.2 1.6.5 2 .3.5.9.7 1.5.7 1.4 0 2.1-.9 2.1-2.7 0-1.8-.7-2.7-2.1-2.7-.7 0-1.2.2-1.6.7s-.4 1.1-.4 2zM594.4 434.8h-2.2l-3.5-6.1c.1 1.1.1 1.9.1 2.3v3.8h-1.5v-8.1h2.2l3.5 6.1c-.1-1.1-.1-1.8-.1-2.2v-3.8h1.6v8zM601.5 434.8h-4.7v-8.1h4.7v1.4h-3v1.8h2.8v1.4h-2.8v2.1h3v1.4z"/></g></g><g id="XMLID_3699_"><g id="XMLID_3708_"><path id="XMLID_567_" class="st16" d="M363 301.5h265.4v.8H363z"/><g id="XMLID_292_"><path id="XMLID_6_" class="st3" d="M363 216.5h265.4v19.4H363z"/><path class="st17" d="M367.2 222.1l-.3 2.5 2.5-.7.2 1.2-2.4.2 1.6 2.1-1.1.6-1.1-2.3-1 2.3-1.1-.6 1.5-2.1-2.4-.2.2-1.2 2.5.7-.3-2.5h1.2zM374.5 222.1l-.3 2.5 2.5-.7.2 1.2-2.4.2 1.6 2.1-1.1.6-1.1-2.3-1 2.3-1.1-.6 1.5-2.1-2.4-.2.2-1.2 2.5.7-.3-2.5h1.2zM381.9 222.1l-.3 2.5 2.5-.7.2 1.2-2.4.2 1.6 2.1-1.1.6-1.1-2.3-1 2.3-1.1-.6 1.5-2.1-2.4-.2.2-1.2 2.5.7-.3-2.5h1.2zM389.3 222.1l-.3 2.5 2.5-.7.2 1.2-2.4.2 1.6 2.1-1.1.6-1.1-2.3-1 2.3-1.1-.6 1.5-2.1-2.4-.2.2-1.2 2.5.7-.3-2.5h1.2zM396.6 222.1l-.3 2.5 2.5-.7.2 1.2-2.4.2 1.6 2.1-1.1.6-1.1-2.3-1 2.3-1.1-.6 1.5-2.1-2.4-.3.2-1.2 2.5.7-.3-2.5h1.2zM404 222.1l-.3 2.5 2.5-.7.2 1.2-2.4.2 1.6 2.1-1.1.6-1.1-2.3-1 2.3-1.1-.6 1.5-2.1-2.4-.2.2-1.2 2.5.7-.3-2.5h1.2zM411.4 222.1l-.3 2.5 2.5-.7.2 1.2-2.4.2 1.6 2.1-1.1.6-1.1-2.3-1 2.3-1.1-.6 1.5-2.1-2.4-.2.2-1.2 2.5.7-.3-2.5h1.2zM418.8 222.1l-.3 2.5 2.5-.7.2 1.2-2.4.2 1.6 2.1-1.1.6-1.1-2.3-1 2.3-1.1-.6 1.5-2.1-2.4-.2.2-1.2 2.5.7-.3-2.5h1.2zM426.1 222.1l-.3 2.5 2.5-.7.2 1.2-2.4.2 1.6 2.1-1.1.6-1.1-2.3-1 2.3-1.1-.6 1.5-2.1-2.4-.2.2-1.2 2.5.7-.3-2.5h1.2zM433.5 222.1l-.3 2.5 2.5-.7.2 1.2-2.4.2 1.6 2.1-1.1.6-1.1-2.3-1 2.3-1.1-.6 1.5-2.1-2.4-.2.2-1.2 2.5.7-.3-2.5h1.2zM440.9 222.1l-.3 2.5 2.5-.7.2 1.2-2.4.2 1.6 2.1-1.1.6-1.1-2.3-1 2.3-1.1-.6 1.5-2.1-2.4-.2.2-1.2 2.5.7-.3-2.5h1.2zM448.2 222.1l-.3 2.5 2.5-.7.2 1.2-2.4.2 1.6 2.1-1.1.6-1.1-2.3-1 2.3-1.1-.6 1.5-2.1-2.4-.2.2-1.2 2.5.7-.3-2.5h1.2z"/></g><path id="XMLID_325_" class="st18" d="M363 238.4h265.4v.8H363z"/><g id="XMLID_296_" class="st16"><path d="M368.3 212.1l-.9-2.2h-2.8l-.9 2.2h-.7l2.7-7h.7l2.7 7h-.8zm-1.1-2.9l-.8-2.1c-.1-.3-.2-.6-.3-1-.1.3-.2.6-.3 1l-.8 2.1h2.2zM372.2 212.2c-.8 0-1.3-.2-1.7-.7-.4-.5-.6-1.1-.6-2 0-.9.2-1.5.6-2 .4-.5 1-.7 1.8-.7.3 0 .5 0 .7.1s.4.1.6.2l-.2.7c-.2-.1-.4-.1-.6-.2-.2 0-.4-.1-.5-.1-1.1 0-1.6.7-1.6 2 0 .6.1 1.1.4 1.5.3.3.6.5 1.1.5.4 0 .9-.1 1.3-.3v.7c-.4.2-.8.3-1.3.3zM376.8 212.2c-.8 0-1.3-.2-1.7-.7-.4-.5-.6-1.1-.6-2 0-.9.2-1.5.6-2 .4-.5 1-.7 1.8-.7.3 0 .5 0 .7.1s.4.1.6.2l-.2.7c-.2-.1-.4-.1-.6-.2-.2 0-.4-.1-.5-.1-1.1 0-1.6.7-1.6 2 0 .6.1 1.1.4 1.5.3.3.6.5 1.1.5.4 0 .9-.1 1.3-.3v.7c-.3.2-.8.3-1.3.3zM383.8 209.5c0 .8-.2 1.5-.6 2-.4.5-1 .7-1.8.7-.5 0-.9-.1-1.2-.3s-.6-.5-.8-.9c-.2-.4-.3-.9-.3-1.4 0-.8.2-1.5.6-2 .4-.5 1-.7 1.8-.7.7 0 1.3.2 1.7.7.4.5.6 1.1.6 1.9zm-3.9 0c0 .7.1 1.2.4 1.5s.7.5 1.2.5.9-.2 1.2-.5c.3-.3.4-.9.4-1.5 0-.7-.1-1.2-.4-1.5-.3-.3-.7-.5-1.2-.5s-.9.2-1.2.5c-.3.4-.4.9-.4 1.5zM386 206.9v3.4c0 .4.1.7.3.9.2.2.5.3.9.3.5 0 .9-.1 1.2-.4s.4-.8.4-1.5v-2.7h.8v5.2h-.6l-.1-.7c-.2.3-.4.5-.7.6-.3.1-.6.2-1 .2-.6 0-1.1-.2-1.4-.5s-.5-.8-.5-1.4v-3.4h.7zM394.8 212.1v-3.4c0-.4-.1-.7-.3-.9-.2-.2-.5-.3-.9-.3-.5 0-.9.1-1.2.4-.3.3-.4.8-.4 1.5v2.7h-.8v-5.2h.6l.1.7c.2-.3.4-.5.7-.6.3-.1.6-.2 1-.2.6 0 1.1.2 1.4.5.3.3.5.8.5 1.4v3.4h-.7zM399 211.6h.4c.1 0 .2 0 .3-.1v.6c-.1 0-.2.1-.4.1h-.4c-1 0-1.5-.5-1.5-1.6v-3.1h-.7v-.4l.7-.3.3-1.1h.5v1.2h1.5v.6h-1.5v3.1c0 .3.1.6.2.7.1.2.3.3.6.3zM407.3 210.3c0 .6-.2 1.1-.7 1.4-.4.3-1 .5-1.8.5s-1.5-.1-1.9-.3v-.8l.9.3s.7.1 1 .1c.5 0 .9-.1 1.2-.3.3-.2.4-.5.4-.9 0-.2 0-.4-.1-.6-.1-.2-.3-.3-.5-.4-.2-.1-.6-.3-1-.4-.6-.2-1.1-.5-1.4-.8-.3-.3-.4-.7-.4-1.2s.2-1 .6-1.3c.4-.3.9-.5 1.6-.5.7 0 1.3.1 1.9.4l-.3.7c-.6-.2-1.1-.4-1.7-.4-.4 0-.8.1-1 .3-.2.2-.4.4-.4.8 0 .2 0 .4.1.6.1.2.2.3.4.4.2.1.5.3 1 .4.7.3 1.2.5 1.5.8s.6.7.6 1.2zM410.9 212.2c-.8 0-1.4-.2-1.8-.7-.4-.5-.7-1.1-.7-1.9 0-.8.2-1.5.6-2 .4-.5 1-.7 1.7-.7s1.2.2 1.5.6c.4.4.6 1 .6 1.7v.5h-3.6c0 .6.2 1.1.5 1.4.3.3.7.5 1.2.5.6 0 1.1-.1 1.7-.4v.7c-.3.1-.5.2-.8.3s-.5 0-.9 0zm-.2-4.7c-.4 0-.7.1-1 .4-.2.3-.4.6-.4 1.1h2.7c0-.5-.1-.9-.3-1.1-.2-.3-.6-.4-1-.4zM416.4 212.2c-.8 0-1.3-.2-1.7-.7-.4-.5-.6-1.1-.6-2 0-.9.2-1.5.6-2 .4-.5 1-.7 1.8-.7.3 0 .5 0 .7.1s.4.1.6.2l-.2.7c-.2-.1-.4-.1-.6-.2-.2 0-.4-.1-.5-.1-1.1 0-1.6.7-1.6 2 0 .6.1 1.1.4 1.5.3.3.6.5 1.1.5.4 0 .9-.1 1.3-.3v.7c-.3.2-.8.3-1.3.3zM421.4 206.9c.2 0 .4 0 .6.1l-.1.7c-.2 0-.4-.1-.6-.1-.4 0-.8.2-1.1.5-.3.3-.4.8-.4 1.3v2.8h-.8V207h.6l.1 1c.2-.3.4-.6.7-.8s.7-.3 1-.3zM425.2 212.2c-.8 0-1.4-.2-1.8-.7-.4-.5-.7-1.1-.7-1.9 0-.8.2-1.5.6-2 .4-.5 1-.7 1.7-.7s1.2.2 1.5.6c.4.4.6 1 .6 1.7v.5h-3.6c0 .6.2 1.1.5 1.4.3.3.7.5 1.2.5.6 0 1.1-.1 1.7-.4v.7c-.3.1-.5.2-.8.3s-.5 0-.9 0zm-.2-4.7c-.4 0-.7.1-1 .4-.2.3-.4.6-.4 1.1h2.7c0-.5-.1-.9-.3-1.1-.3-.3-.6-.4-1-.4zM430.2 211.6h.4c.1 0 .2 0 .3-.1v.6c-.1 0-.2.1-.4.1h-.4c-1 0-1.5-.5-1.5-1.6v-3.1h-.7v-.4l.7-.3.3-1.1h.5v1.2h1.5v.6h-1.5v3.1c0 .3.1.6.2.7.2.2.4.3.6.3z"/></g><path id="XMLID_3743_" class="st1" d="M363 238h265.4v1.6H363z"/><path id="XMLID_3715_" class="st18" d="M615.4 220c-4 0-7.5 2.5-8.9 6.1 1.4 3.6 4.9 6.1 8.9 6.1s7.5-2.5 8.9-6.1c-1.4-3.6-4.8-6.1-8.9-6.1zm0 10.1c-2.2 0-4-1.8-4-4s1.8-4 4-4 4 1.8 4 4c.1 2.2-1.7 4-4 4zm0-6.5c-1.3 0-2.4 1.1-2.4 2.4 0 1.3 1.1 2.4 2.4 2.4 1.3 0 2.4-1.1 2.4-2.4.1-1.3-1-2.4-2.4-2.4z"/><path id="XMLID_314_" class="st3" d="M608.2 244.2h14.6v14.6h-14.6z"/></g><g id="XMLID_3704_"><path id="XMLID_3707_" class="st1" d="M461.2 341.6h67.6v25.9h-67.6z"/><g id="XMLID_246_" class="st14"><path class="st2" d="M475.4 359.4v-9.2h1.5v7.9h3.9v1.3h-5.4zM490.8 354.7c0 1.5-.4 2.7-1.1 3.5s-1.8 1.3-3.2 1.3c-1.4 0-2.5-.4-3.2-1.2s-1.1-2-1.1-3.5.4-2.7 1.1-3.5c.8-.8 1.8-1.2 3.2-1.2 1.4 0 2.4.4 3.2 1.2.8.8 1.1 1.9 1.1 3.4zm-7 0c0 1.1.2 2 .7 2.6.5.6 1.1.9 2 .9.9 0 1.6-.3 2-.9.5-.6.7-1.4.7-2.6 0-1.1-.2-2-.7-2.6-.5-.6-1.1-.9-2-.9-.9 0-1.6.3-2.1.9-.4.7-.6 1.5-.6 2.6zM496.8 354.4h3.4v4.6c-.6.2-1.1.3-1.6.4s-1.1.1-1.7.1c-1.4 0-2.5-.4-3.2-1.2-.8-.8-1.1-2-1.1-3.5s.4-2.7 1.3-3.5c.9-.8 2-1.3 3.5-1.3 1 0 1.9.2 2.7.6l-.5 1.3c-.8-.3-1.5-.5-2.3-.5-1 0-1.8.3-2.3.9-.6.6-.9 1.5-.9 2.5 0 1.1.3 2 .8 2.6.5.6 1.3.9 2.2.9.5 0 1-.1 1.6-.2v-2.4h-1.9v-1.3zM502.6 359.4v-9.2h1.5v9.2h-1.5zM514.4 359.4h-1.9L508 352v.4c.1.8.1 1.5.1 2.1v4.8h-1.4v-9.2h1.8l4.5 7.3c0-.1 0-.5-.1-1.1V350.1h1.4v9.3z"/></g></g></g><path class="st19" d="M454.4 217v17.8"/><g id="XMLID_871_" class="st16"><path id="XMLID_1_" class="st3" d="M364.4 281h265.4v19.4H364.4z"/><path d="M371.5 294l-1.2-2.9h-3.7l-1.1 2.9h-1.1l3.7-9.3h.9l3.6 9.3h-1.1zm-1.5-3.9l-1.1-2.9c-.1-.4-.3-.8-.4-1.3-.1.4-.2.8-.4 1.3l-1.1 2.9h3zM376.4 294.1c-1 0-1.8-.3-2.3-.9s-.8-1.5-.8-2.6c0-1.2.3-2.1.8-2.7.6-.6 1.4-.9 2.4-.9.3 0 .7 0 1 .1.3.1.6.2.8.3l-.3.9c-.2-.1-.5-.2-.8-.2-.3-.1-.5-.1-.7-.1-1.4 0-2.1.9-2.1 2.7 0 .9.2 1.5.5 2s.9.7 1.5.7 1.2-.1 1.8-.4v.9c-.5.1-1.1.2-1.8.2zM382.5 294.1c-1 0-1.8-.3-2.3-.9s-.8-1.5-.8-2.6c0-1.2.3-2.1.8-2.7.6-.6 1.4-.9 2.4-.9.3 0 .7 0 1 .1.3.1.6.2.8.3l-.3.9c-.2-.1-.5-.2-.8-.2-.3-.1-.5-.1-.7-.1-1.4 0-2.1.9-2.1 2.7 0 .9.2 1.5.5 2s.9.7 1.5.7 1.2-.1 1.8-.4v.9c-.6.1-1.1.2-1.8.2zM391.7 290.5c0 1.1-.3 2-.9 2.6-.6.6-1.4 1-2.4 1-.6 0-1.2-.1-1.6-.4s-.9-.7-1.1-1.3c-.3-.5-.4-1.2-.4-1.9 0-1.1.3-2 .8-2.6.6-.6 1.3-.9 2.4-.9 1 0 1.7.3 2.3 1s.9 1.4.9 2.5zm-5.3 0c0 .9.2 1.6.5 2 .4.5.9.7 1.6.7s1.2-.2 1.6-.7c.4-.5.5-1.1.5-2 0-.9-.2-1.5-.5-2-.4-.5-.9-.7-1.6-.7-.7 0-1.2.2-1.6.7s-.5 1.1-.5 2zM394.4 287.1v4.5c0 .6.1 1 .4 1.3.3.3.7.4 1.2.4.7 0 1.3-.2 1.6-.6.3-.4.5-1 .5-1.9v-3.6h1v6.9h-.9l-.2-.9h-.1c-.2.3-.5.6-.9.8-.4.2-.8.3-1.3.3-.8 0-1.5-.2-1.9-.6-.4-.4-.6-1-.6-1.9v-4.5h1.2zM406 294v-4.5c0-.6-.1-1-.4-1.3-.3-.3-.7-.4-1.2-.4-.7 0-1.3.2-1.6.6-.3.4-.5 1-.5 1.9v3.6h-1V287h.9l.2.9c.2-.3.5-.6.9-.8s.8-.3 1.3-.3c.8 0 1.5.2 1.9.6.4.4.6 1 .6 1.9v4.5H406zM411.5 293.2h.5c.2 0 .3-.1.4-.1v.8c-.1.1-.3.1-.5.1s-.4.1-.6.1c-1.3 0-2-.7-2-2.1v-4.1h-1v-.5l1-.4.4-1.5h.6v1.6h2v.8h-2v4.1c0 .4.1.7.3 1 .2.1.5.2.9.2zM423.2 287.4c0 .9-.3 1.7-1 2.2-.6.5-1.6.8-2.7.8h-1.1v3.6h-1.1v-9.2h2.4c2.3-.1 3.5.8 3.5 2.6zm-4.8 2h1c1 0 1.6-.2 2.1-.5s.6-.8.6-1.5c0-.6-.2-1.1-.6-1.4-.4-.3-1-.4-1.9-.4h-1.2v3.8zM429 294l-.2-1h-.1c-.3.4-.7.7-1 .9-.3.2-.8.2-1.3.2-.7 0-1.2-.2-1.6-.5-.4-.4-.6-.9-.6-1.5 0-1.4 1.1-2.1 3.4-2.2h1.2v-.4c0-.5-.1-.9-.4-1.2-.2-.3-.6-.4-1.1-.4-.6 0-1.2.2-2 .5l-.3-.8c.3-.2.7-.3 1.1-.4.4-.1.8-.2 1.2-.2.8 0 1.4.2 1.8.5.4.4.6 1 .6 1.8v4.7h-.7zm-2.4-.8c.7 0 1.2-.2 1.5-.5.4-.4.6-.9.6-1.5v-.6h-1c-.8 0-1.4.2-1.8.4-.4.2-.6.6-.6 1.1 0 .4.1.7.3.9.2.1.6.2 1 .2zM436.3 292.1c0 .6-.2 1.1-.7 1.5s-1.2.5-2 .5c-.9 0-1.6-.1-2.1-.4v-1c.3.2.7.3 1.1.4.4.1.7.1 1.1.1.5 0 1-.1 1.3-.3.3-.2.4-.4.4-.8 0-.3-.1-.5-.4-.7-.2-.2-.7-.4-1.4-.7-.6-.2-1.1-.5-1.4-.6-.3-.2-.5-.4-.6-.6s-.2-.5-.2-.8c0-.6.2-1 .7-1.3.5-.3 1.1-.5 1.9-.5.7 0 1.5.2 2.2.5l-.4.9c-.7-.3-1.3-.4-1.9-.4-.5 0-.9.1-1.1.2s-.4.4-.4.6c0 .2 0 .3.1.5.1.1.2.3.5.4.2.1.6.3 1.2.5.8.3 1.4.6 1.7.9.2.3.4.6.4 1.1zM442.5 292.1c0 .6-.2 1.1-.7 1.5s-1.2.5-2 .5c-.9 0-1.6-.1-2.1-.4v-1c.3.2.7.3 1.1.4.4.1.7.1 1.1.1.5 0 1-.1 1.3-.3.3-.2.4-.4.4-.8 0-.3-.1-.5-.4-.7-.2-.2-.7-.4-1.4-.7-.6-.2-1.1-.5-1.4-.6-.3-.2-.5-.4-.6-.6s-.2-.5-.2-.8c0-.6.2-1 .7-1.3.5-.3 1.1-.5 1.9-.5.7 0 1.5.2 2.2.5l-.4.9c-.7-.3-1.3-.4-1.9-.4-.5 0-.9.1-1.1.2s-.4.4-.4.6c0 .2 0 .3.1.5.1.1.2.3.5.4.2.1.6.3 1.2.5.8.3 1.4.6 1.7.9.3.3.4.6.4 1.1zM450.2 294l-1.3-4.1c-.1-.2-.2-.8-.4-1.7h-.1c-.2.7-.3 1.3-.4 1.7l-1.3 4.1h-1.2l-1.9-6.9h1.1c.4 1.7.8 3.1 1 4 .2.9.4 1.5.4 1.8h.1c0-.2.1-.6.2-.9.1-.4.2-.7.3-.9l1.3-4h1.1l1.2 4c.2.7.4 1.3.5 1.8 0-.2.1-.4.1-.7.1-.3.5-2 1.3-5.1h1.1l-1.9 6.9h-1.2zM460.5 290.5c0 1.1-.3 2-.9 2.6-.6.6-1.4 1-2.4 1-.6 0-1.2-.1-1.6-.4s-.9-.7-1.1-1.3c-.3-.5-.4-1.2-.4-1.9 0-1.1.3-2 .8-2.6.6-.6 1.3-.9 2.4-.9 1 0 1.7.3 2.3 1s.9 1.4.9 2.5zm-5.3 0c0 .9.2 1.6.5 2 .4.5.9.7 1.6.7s1.2-.2 1.6-.7c.4-.5.5-1.1.5-2 0-.9-.2-1.5-.5-2-.4-.5-.9-.7-1.6-.7-.7 0-1.2.2-1.6.7s-.5 1.1-.5 2zM465.4 286.9c.3 0 .6 0 .8.1l-.1 1c-.3-.1-.5-.1-.8-.1-.6 0-1 .2-1.4.7s-.6 1-.6 1.7v3.7h-1v-6.9h.9l.1 1.3h.1c.3-.5.6-.8.9-1s.7-.5 1.1-.5zM472.2 293.1c-.5.7-1.3 1.1-2.2 1.1-.9 0-1.6-.3-2.1-.9-.5-.6-.8-1.5-.8-2.6s.3-2 .8-2.7c.5-.6 1.2-.9 2.1-.9.9 0 1.7.3 2.2 1h.1v-3.8h1v9.8h-.9l-.2-1zm-2.1.1c.7 0 1.2-.2 1.6-.6s.5-1 .5-1.9v-.2c0-1-.2-1.7-.5-2.1-.3-.4-.8-.6-1.6-.6-.6 0-1.1.2-1.4.7-.3.5-.5 1.2-.5 2 0 .9.2 1.6.5 2 .3.5.8.7 1.4.7z"/></g></svg>