<svg xmlns="http://www.w3.org/2000/svg" viewBox="0 0 146 42" enable-background="new 0 0 146 42"><style type="text/css">.st0{fill:#99BEE7;} .st1{fill:#5592D7;} .st2{fill:#29578A;}</style><path class="st0" d="M140.195 8.87v16.113l-13.567-7.833c-4.03-2.342-3.732-3.79-3.758-7.036l13.953 8.056v-7.352l3.372-1.947z"/><path class="st1" d="M136.823 18.17l-13.953-8.056 13.567-7.833c4.043-2.318 5.148-1.336 7.972.265L130.455 10.6l6.367 3.677v3.893z"/><path class="st2" d="M130.456 10.6l13.953-8.055V18.21c-.014 4.662-1.417 5.128-4.215 6.773V8.87l-6.367 3.677-3.372-1.946z"/><path class="st1" d="M21.66 40.74c-.07-.922-1.202-14.02-1.202-14.02-.142-1.52-.107-2.972-.107-2.972h-.07s-.283 1.416-.743 2.973c0 0-3.68 12.78-4.106 14.02h-2.866c-.39-1.028-4.106-14.02-4.106-14.02-.46-1.556-.743-2.972-.743-2.972h-.07s.07 1.416-.072 2.973c0 0-1.168 12.957-1.24 14.02H1.592l2.585-24.355h5.593l3.787 13.628c.425 1.487.637 2.726.637 2.726h.07s.25-1.24.674-2.727l4-13.628h5.557l2.62 24.354H21.66zM36.276 41.093c-5.522 0-8.354-2.054-8.354-6.018 0-4.92 4.92-6.372 10.654-6.903v-.884c0-1.983-1.345-2.55-3.362-2.55-1.84 0-3.717.603-4.956 1.17l-1.203-3.15c1.345-.568 3.822-1.453 7.185-1.453 4.32 0 7.504 1.806 7.504 6.974v11.397c-1.592.85-4.176 1.416-7.468 1.416zm2.3-10.372c-3.327.32-5.486 1.098-5.486 4.143 0 2.23 1.274 3.185 3.47 3.185.813 0 1.52-.14 2.016-.39v-6.937zM48.5 18.757c-1.628 0-2.937-1.133-2.937-2.584 0-1.416 1.31-2.584 2.938-2.584 1.63 0 2.938 1.167 2.938 2.583 0 1.45-1.31 2.584-2.937 2.584zM45.74 40.74V21.66h5.52v19.08h-5.52zM62.375 41.093c-5.77 0-9.38-3.4-9.38-9.77 0-6.124 3.47-9.876 8.39-9.876 1.132 0 2.088.142 2.795.32V12.95h5.487v26.725c-1.734.92-4 1.416-7.292 1.416zM64.18 24.74c-.46-.143-.955-.214-1.522-.214-3.044 0-4.212 2.62-4.212 6.55 0 4.14 1.24 6.512 4.035 6.512.745 0 1.31-.07 1.7-.283V24.74zM78.45 41.093c-3.01 0-4.99-.53-6.37-1.452l1.308-4c.78.532 2.23 1.134 3.93 1.134 2.017 0 3.256-1.168 3.256-2.903 0-1.556-.92-2.512-3.398-3.61-3.788-1.698-4.85-4.353-4.85-6.725 0-4.106 2.974-7.504 7.717-7.504 2.62 0 4.53.638 5.7 1.417l-1.204 3.504c-.85-.53-2.16-1.06-3.647-1.06-1.912 0-2.938 1.06-2.938 2.796 0 1.77 1.24 2.655 3.292 3.575 4.707 2.125 5.38 4.71 5.38 7.187 0 4.39-3.363 7.646-8.177 7.646zM95.967 41.093c-5.522 0-8.354-2.054-8.354-6.018 0-4.92 4.92-6.372 10.655-6.903v-.884c0-1.983-1.345-2.55-3.363-2.55-1.84 0-3.717.603-4.956 1.17l-1.204-3.15c1.345-.568 3.823-1.453 7.186-1.453 4.318 0 7.504 1.806 7.504 6.974v11.397c-1.593.85-4.177 1.416-7.47 1.416zm2.3-10.372c-3.327.32-5.486 1.098-5.486 4.143 0 2.23 1.275 3.185 3.47 3.185.814 0 1.522-.14 2.018-.39v-6.937zM111.975 25.235V40.74h-5.522V25.234h-2.09V21.66h2.09V19.71c0-4.778 3.292-7.29 8.46-6.725v3.504c-1.84-.07-2.938.568-2.938 2.762v2.407h2.938v3.575h-2.938zM120.232 33.128c.39 2.797 1.805 4.177 4.6 4.177 2.23 0 3.93-.496 4.957-1.026l1.238 3.432c-1.487.743-3.61 1.38-6.832 1.38-5.84 0-9.203-3.858-9.203-9.946 0-5.982 3.115-9.84 8.602-9.84 5.52 0 8.318 3.752 8.07 10.194l-11.433 1.628zm3.15-8.566c-2.265 0-3.68 1.947-3.504 5.876l6.654-.99c0-3.4-1.132-4.886-3.15-4.886z"/></svg>