<svg xmlns="http://www.w3.org/2000/svg" height="120" width="210" viewBox="0 0 210 120"><title>maidsafe_white</title><path fill="#fff" d="M199.103 42.998v22.61l-19.04-10.987c-5.66-3.275-5.247-5.31-5.28-9.857l19.582 11.305V45.734z"/><path fill="#fff" opacity=".6" d="M194.358 56.06l-19.552-11.305 19.02-10.972c5.664-3.257 7.217-1.882 11.166.364l-19.567 11.28 8.937 5.168z"/><path fill="#fff" opacity=".2" d="M185.422 45.437l19.552-11.305.02 21.96c-.003 6.532-1.97 7.192-5.887 9.493L199.093 43l-8.937 5.167z"/><path fill="#fff" d="M33.1 87.6C33 86.4 31.5 68 31.5 68c-.2-2.1-.1-4.2-.1-4.2h-.1s-.4 2-1 4.2c0 0-5.2 17.9-5.8 19.6h-4c-.6-1.4-5.8-19.6-5.8-19.6-.6-2.2-1-4.2-1-4.2h-.1s.1 2-.1 4.2c0 0-1.6 18.1-1.7 19.6H5l3.6-34.1h7.8l5.3 19.1c.6 2.1.9 3.8.9 3.8h.1s.3-1.7.9-3.8l5.6-19.1H37l3.7 34.1h-7.6zm20.5.5c-7.7 0-11.7-2.9-11.7-8.4 0-6.9 6.9-8.9 14.9-9.7v-1.2c0-2.8-1.9-3.6-4.7-3.6-2.6 0-5.2.8-6.9 1.6l-1.7-4.4c1.9-.8 5.4-2 10.1-2 6 0 10.5 2.5 10.5 9.8v16c-2.3 1.1-5.9 1.9-10.5 1.9zm3.2-14.5c-4.7.4-7.7 1.5-7.7 5.8 0 3.1 1.8 4.5 4.9 4.5 1.1 0 2.1-.2 2.8-.5v-9.8zm13.9-16.7c-2.3 0-4.1-1.6-4.1-3.6s1.8-3.6 4.1-3.6 4.1 1.6 4.1 3.6-1.8 3.6-4.1 3.6zm-3.8 30.7V60.9h7.7v26.7h-7.7zm23.3.5c-8.1 0-13.1-4.8-13.1-13.7 0-8.6 4.9-13.8 11.7-13.8 1.6 0 2.9.2 3.9.4V48.7h7.7v37.4c-2.5 1.3-5.6 2-10.2 2zm2.5-22.9c-.6-.2-1.3-.3-2.1-.3-4.3 0-5.9 3.7-5.9 9.2 0 5.8 1.7 9.1 5.7 9.1 1 0 1.8-.1 2.4-.4V65.2zm20 22.9c-4.2 0-7-.7-8.9-2l1.8-5.6c1.1.7 3.1 1.6 5.5 1.6 2.8 0 4.6-1.6 4.6-4.1 0-2.2-1.3-3.5-4.8-5.1-5.3-2.4-6.8-6.1-6.8-9.4 0-5.8 4.2-10.5 10.8-10.5 3.7 0 6.3.9 8 2l-1.7 4.9c-1.2-.7-3-1.5-5.1-1.5-2.7 0-4.1 1.5-4.1 3.9 0 2.5 1.7 3.7 4.6 5 6.6 3 7.5 6.6 7.5 10.1 0 6.2-4.7 10.7-11.4 10.7zm24.5 0c-7.7 0-11.7-2.9-11.7-8.4 0-6.9 6.9-8.9 14.9-9.7v-1.2c0-2.8-1.9-3.6-4.7-3.6-2.6 0-5.2.8-6.9 1.6l-1.7-4.4c1.9-.8 5.4-2 10.1-2 6 0 10.5 2.5 10.5 9.8v16c-2.3 1.1-5.9 1.9-10.5 1.9zm3.2-14.5c-4.7.4-7.7 1.5-7.7 5.8 0 3.1 1.8 4.5 4.9 4.5 1.1 0 2.1-.2 2.8-.5v-9.8zm19.2-7.7v21.7h-7.7V65.9H149v-5h2.9v-2.7c0-6.7 4.6-10.2 11.8-9.4v4.9c-2.6-.1-4.1.8-4.1 3.9V61h4.1v5h-4.1zM171.2 77c.5 3.9 2.5 5.8 6.4 5.8 3.1 0 5.5-.7 6.9-1.4l1.7 4.8c-2.1 1-5.1 1.9-9.6 1.9-8.2 0-12.9-5.4-12.9-13.9 0-8.4 4.4-13.8 12-13.8 7.7 0 11.6 5.3 11.3 14.3L171.2 77zm4.4-12c-3.2 0-5.2 2.7-4.9 8.2l9.3-1.4c0-4.7-1.6-6.8-4.4-6.8z"/></svg>