<svg xmlns="http://www.w3.org/2000/svg" viewBox="0 0 24 24" enable-background="new 0 0 24 24"><style type="text/css">.st0{fill:#5992CD;}</style><path class="st0" d="M21.7 18.7c-.4.8-.8 1.6-1.3 2.3-.7 1-1.2 1.6-1.7 2-.7.6-1.4.9-2.1.9-.5 0-1.2-.2-2-.5s-1.5-.5-2.1-.5c-.7 0-1.4.2-2.2.5-.8.4-1.4.6-1.9.6-.7 0-1.5-.3-2.2-1-.5-.4-1-1.1-1.7-2.1s-1.4-2.3-1.8-3.7c-.5-1.5-.8-2.9-.8-4.4 0-1.6.3-3 1-4.2.5-.9 1.3-1.7 2.2-2.2s1.9-.8 3-.8c.6 0 1.3.2 2.3.5.9.4 1.5.5 1.8.5.2 0 .9-.2 2-.6 1.1-.4 2-.5 2.7-.5 2 .2 3.5 1 4.5 2.4-1.8 1.1-2.7 2.6-2.7 4.6 0 1.5.6 2.8 1.7 3.8.5.5 1 .8 1.7 1.1-.1.6-.3.9-.4 1.3zM17.1.5c0 1.2-.4 2.3-1.3 3.4-1.1 1.2-2.3 1.9-3.7 1.8v-.5c0-1.2.5-2.4 1.4-3.4.4-.5 1-.9 1.7-1.3.6-.3 1.2-.5 1.8-.5 0 .2.1.3.1.5z"/></svg>