<svg xmlns="http://www.w3.org/2000/svg" viewBox="0 0 70 100" enable-background="new 0 0 70 100"><style type="text/css">.st0{fill:#5592D7;} .st1{fill:#FFFFFF;} .st2{opacity:0.6;fill:#FFFFFF;} .st3{opacity:0.2;fill:#FFFFFF;}</style><path class="st0" d="M35 2.8C17.7 2.8 3.8 16.8 3.8 34S35 97.2 35 97.2s31.2-45.8 31.2-63.1S52.3 2.8 35 2.8z"/><path class="st1" d="M40.9 31v21L23.2 41.8c-5.2-3-4.9-4.9-4.9-9.1l18.1 10.5v-9.6l4.5-2.6z"/><path class="st2" d="M36.5 43.1L18.3 32.6 36 22.5c5.3-3 6.7-1.7 10.4.3L28.2 33.3l8.3 4.8v5z"/><path class="st3" d="M28.2 33.3l18.1-10.5v20.4c0 6.1-1.8 6.7-5.5 8.8V31.1l-8.3 4.8-4.3-2.6z"/></svg>