<svg xmlns="http://www.w3.org/2000/svg" xmlns:xlink="http://www.w3.org/1999/xlink" viewBox="0 0 810 520" enable-background="new 0 0 810 520"><style type="text/css">.st0{fill:#EEEDED;} .st1{opacity:0.2;} .st2{fill:#221F1F;} .st3{fill:url(#SVGID_1_);} .st4{fill:#F3F3F3;} .st5{opacity:0.25;} .st6{fill:#7D8087;} .st7{fill:#68696F;} .st8{opacity:0.8;} .st9{fill:#000100;} .st10{fill:#FFFFFF;} .st11{fill:#372357;} .st12{opacity:0.2;fill:#5891CC;} .st13{fill:#5891CC;} .st14{fill:#F2F2F2;} .st15{fill:none;} .st16{fill:#212121;} .st17{opacity:0.7;} .st18{fill:#6A9DCF;} .st19{fill:#BBBBBB;} .st20{fill:none;stroke:#212121;stroke-width:0.6364;stroke-linecap:square;stroke-miterlimit:10;} .st21{fill:none;stroke:#FFFFFF;stroke-width:2;stroke-linecap:square;stroke-miterlimit:10;} .st22{fill:#9D9D9D;} .st23{fill:#3074B6;} .st24{fill:#C8C7CA;} .st25{fill:#B2B2B2;} .st26{fill:#ECECEC;} .st27{fill:#DBDADA;} .st28{opacity:0.8;fill:#F8CA64;} .st29{opacity:0.6;fill:#FFD858;}</style><image width="4550" height="2975" xlink:href="3DF8836B.png" transform="matrix(.158 0 0 .158 86.345 10.893)" overflow="visible" opacity=".25"/><path class="st0" d="M772.4 442.4H118.6c-1.1 0-2-.9-2-2V36.5c0-1.8 1.5-3.3 3.3-3.3H771c1.8 0 3.3 1.5 3.3 3.3v403.8c0 1.2-.9 2.1-1.9 2.1z"/><path class="st2" d="M771 33.3c1.8 0 3.3 1.5 3.3 3.3v403.8c0 1.1-.9 2-2 2H118.6c-1.1 0-2-.9-2-2V36.5c0-1.8 1.5-3.3 3.3-3.3H771m0-.6H119.9c-2.2 0-3.9 1.8-3.9 3.9v403.8c0 1.5 1.2 2.6 2.6 2.6h653.8c1.5 0 2.6-1.2 2.6-2.6V36.5c0-2.1-1.8-3.9-4-3.9z"/><linearGradient id="SVGID_1_" gradientUnits="userSpaceOnUse" x1="445.464" y1="33.256" x2="445.464" y2="47.068"><stop offset="0" stop-color="#E7E7E7"/><stop offset="1" stop-color="#D0D0D1"/></linearGradient><path class="st3" d="M774.3 47.1H116.6V36.5c0-1.8 1.5-3.3 3.3-3.3H771c1.8 0 3.3 1.5 3.3 3.3v10.6z"/><path class="st4" d="M773 33.9c-.5-.4-1.2-.7-2-.7H119.9c-.7 0-1.4.2-2 .7H773z"/><path class="st5" d="M116.6 47.1h657.7v.7H116.6z"/><path class="st6" d="M152.1 44.1c-2 0-3.6-1.6-3.6-3.6s1.6-3.6 3.6-3.6 3.6 1.6 3.6 3.6-1.6 3.6-3.6 3.6z"/><path class="st7" d="M152.1 37.2c1.8 0 3.3 1.5 3.3 3.3 0 1.8-1.5 3.3-3.3 3.3s-3.3-1.5-3.3-3.3c0-1.8 1.5-3.3 3.3-3.3m0-.5c-2.1 0-3.8 1.7-3.8 3.8s1.7 3.8 3.8 3.8c2.1 0 3.8-1.7 3.8-3.8s-1.7-3.8-3.8-3.8z"/><path class="st6" d="M139 44.1c-2 0-3.6-1.6-3.6-3.6s1.6-3.6 3.6-3.6 3.6 1.6 3.6 3.6c-.1 2-1.7 3.6-3.6 3.6z"/><path class="st7" d="M139 37.2c1.8 0 3.3 1.5 3.3 3.3 0 1.8-1.5 3.3-3.3 3.3s-3.3-1.5-3.3-3.3c0-1.8 1.4-3.3 3.3-3.3m0-.5c-2.1 0-3.8 1.7-3.8 3.8s1.7 3.8 3.8 3.8c2.1 0 3.8-1.7 3.8-3.8s-1.7-3.8-3.8-3.8z"/><path class="st6" d="M125.8 44.1c-2 0-3.6-1.6-3.6-3.6s1.6-3.6 3.6-3.6 3.6 1.6 3.6 3.6-1.6 3.6-3.6 3.6z"/><path class="st7" d="M125.8 37.2c1.8 0 3.3 1.5 3.3 3.3 0 1.8-1.5 3.3-3.3 3.3s-3.3-1.5-3.3-3.3c0-1.8 1.5-3.3 3.3-3.3m0-.5c-2.1 0-3.8 1.7-3.8 3.8s1.7 3.8 3.8 3.8 3.8-1.7 3.8-3.8-1.7-3.8-3.8-3.8z"/><g class="st8"><path class="st9" d="M299.5 105.5c-1.9 0-3.4.6-4.5 1.8-1.1 1.2-1.6 2.9-1.6 5s.5 3.8 1.5 5c1 1.2 2.5 1.8 4.4 1.8 1.3 0 2.4-.2 3.5-.5v.9c-1 .3-2.2.5-3.7.5-2.1 0-3.8-.7-5-2s-1.8-3.3-1.8-5.7c0-1.5.3-2.9.9-4 .6-1.2 1.4-2.1 2.5-2.7s2.3-1 3.8-1 2.8.3 3.9.8l-.4.9c-1.1-.5-2.3-.8-3.5-.8zM313.7 119.8v-7.2c0-1.1-.2-1.9-.7-2.5s-1.2-.8-2.2-.8c-1.3 0-2.3.3-2.9 1-.6.7-.9 1.8-.9 3.3v6.2h-1v-16h1v5.1l-.1 1.4h.1c.4-.7.9-1.2 1.6-1.5.6-.3 1.4-.5 2.4-.5 2.5 0 3.8 1.4 3.8 4.1v7.3h-1.1zM327.6 114.2c0 1.8-.4 3.2-1.3 4.3-.9 1-2.1 1.5-3.7 1.5-1 0-1.8-.2-2.6-.7s-1.3-1.2-1.7-2c-.4-.9-.6-1.9-.6-3.1 0-1.8.4-3.2 1.3-4.3.9-1 2.1-1.5 3.6-1.5s2.7.5 3.6 1.5c1 1.1 1.4 2.5 1.4 4.3zm-8.8 0c0 1.5.3 2.7 1 3.6.7.9 1.6 1.3 2.9 1.3s2.2-.4 2.9-1.3c.7-.9 1-2.1 1-3.6s-.3-2.7-1-3.6c-.7-.8-1.6-1.3-2.9-1.3s-2.2.4-2.9 1.3c-.7.9-1 2.1-1 3.6zM339.9 114.2c0 1.8-.4 3.2-1.3 4.3-.9 1-2.1 1.5-3.7 1.5-1 0-1.8-.2-2.6-.7s-1.3-1.2-1.7-2c-.4-.9-.6-1.9-.6-3.1 0-1.8.4-3.2 1.3-4.3.9-1 2.1-1.5 3.6-1.5s2.7.5 3.6 1.5c1 1.1 1.4 2.5 1.4 4.3zm-8.8 0c0 1.5.3 2.7 1 3.6.7.9 1.6 1.3 2.9 1.3s2.2-.4 2.9-1.3c.7-.9 1-2.1 1-3.6s-.3-2.7-1-3.6c-.7-.8-1.6-1.3-2.9-1.3s-2.2.4-2.9 1.3c-.7.9-1 2.1-1 3.6zM350 116.9c0 1-.4 1.8-1.1 2.3-.8.5-1.8.8-3.2.8-1.5 0-2.7-.2-3.6-.7v-1.1c1.1.6 2.3.8 3.6.8 1.1 0 1.9-.2 2.5-.5.6-.4.9-.9.9-1.5s-.2-1-.7-1.4c-.5-.4-1.2-.8-2.2-1.1-1.1-.4-1.9-.8-2.4-1s-.8-.6-1-1c-.2-.4-.3-.8-.3-1.3 0-.8.4-1.5 1.1-2s1.7-.7 2.9-.7 2.3.2 3.4.7l-.4.9c-1.1-.5-2.1-.7-3.1-.7-.9 0-1.6.2-2.2.5-.5.3-.8.7-.8 1.3 0 .6.2 1 .6 1.4.4.3 1.2.7 2.4 1.2 1 .4 1.7.7 2.2 1s.8.6 1 1 .4.6.4 1.1zM357.3 120c-1.6 0-2.9-.5-3.8-1.5-.9-1-1.4-2.4-1.4-4.2 0-1.8.4-3.2 1.3-4.3s2.1-1.6 3.5-1.6c1.3 0 2.4.5 3.1 1.4.8.9 1.1 2.2 1.1 3.7v.8h-8c0 1.5.4 2.7 1.1 3.5.7.8 1.7 1.2 3 1.2.6 0 1.2 0 1.7-.1s1.1-.3 1.8-.6v.9c-.6.3-1.2.5-1.7.6-.4.2-1 .2-1.7.2zm-.3-10.7c-1.1 0-1.9.4-2.6 1.1-.7.7-1 1.7-1.1 3.1h6.9c0-1.3-.3-2.3-.8-3-.6-.8-1.4-1.2-2.4-1.2zM376.6 119.8l-.3-1.8h-.1c-.6.7-1.1 1.2-1.7 1.5s-1.3.4-2.1.4c-1.1 0-1.9-.3-2.6-.8-.6-.6-.9-1.3-.9-2.3 0-1.1.5-1.9 1.4-2.5.9-.6 2.2-.9 3.9-1l2.1-.1v-.7c0-1.1-.2-1.9-.6-2.4-.4-.5-1.1-.8-2.1-.8s-2.1.3-3.2.9l-.4-.9c1.2-.6 2.4-.9 3.6-.9 1.2 0 2.1.3 2.7 1 .6.6.9 1.6.9 3v7.4h-.6zm-4.1-.7c1.2 0 2.1-.3 2.8-1s1-1.6 1-2.8v-1.1l-2 .1c-1.6.1-2.7.3-3.4.7-.7.4-1 1.1-1 1.9 0 .7.2 1.2.6 1.6.6.4 1.2.6 2 .6zM390.6 109.5H388v10.3h-1v-10.3h-2.1v-.6l2.1-.4v-.9c0-1.4.3-2.4.8-3 .5-.6 1.3-1 2.5-1 .6 0 1.2.1 1.9.3l-.2.9c-.5-.2-1.1-.3-1.6-.3-.8 0-1.4.2-1.7.7-.3.5-.5 1.2-.5 2.3v1h2.6v1zM402 114.2c0 1.8-.4 3.2-1.3 4.3-.9 1-2.1 1.5-3.7 1.5-1 0-1.8-.2-2.6-.7s-1.3-1.2-1.7-2c-.4-.9-.6-1.9-.6-3.1 0-1.8.4-3.2 1.3-4.3.9-1 2.1-1.5 3.6-1.5s2.7.5 3.6 1.5c1 1.1 1.4 2.5 1.4 4.3zm-8.8 0c0 1.5.3 2.7 1 3.6.7.9 1.6 1.3 2.9 1.3s2.2-.4 2.9-1.3c.7-.9 1-2.1 1-3.6s-.3-2.7-1-3.6c-.7-.8-1.6-1.3-2.9-1.3s-2.2.4-2.9 1.3c-.7.9-1 2.1-1 3.6zM406.1 119.8h-1v-16h1v16zM414 108.4c.8 0 1.5.1 2.1.4.6.3 1.1.8 1.6 1.5h.1c0-.9-.1-1.7-.1-2.5v-4h1v16h-.7l-.3-1.7h-.1c-.8 1.3-2.1 1.9-3.7 1.9-1.5 0-2.7-.5-3.5-1.4-.8-1-1.2-2.4-1.2-4.2 0-1.9.4-3.4 1.2-4.4s2-1.6 3.6-1.6zm0 .9c-1.2 0-2.1.4-2.7 1.3-.6.9-.9 2.1-.9 3.7 0 3.2 1.2 4.7 3.7 4.7 1.3 0 2.2-.4 2.8-1.1.6-.7.9-1.9.9-3.6v-.2c0-1.7-.3-3-.9-3.7s-1.6-1.1-2.9-1.1zM426.9 120c-1.6 0-2.9-.5-3.8-1.5-.9-1-1.4-2.4-1.4-4.2 0-1.8.4-3.2 1.3-4.3s2.1-1.6 3.5-1.6c1.3 0 2.4.5 3.1 1.4.8.9 1.1 2.2 1.1 3.7v.8h-8c0 1.5.4 2.7 1.1 3.5.7.8 1.7 1.2 3 1.2.6 0 1.2 0 1.7-.1s1.1-.3 1.8-.6v.9c-.6.3-1.2.5-1.7.6-.5.2-1.1.2-1.7.2zm-.3-10.7c-1.1 0-1.9.4-2.6 1.1-.7.7-1 1.7-1.1 3.1h6.9c0-1.3-.3-2.3-.8-3-.6-.8-1.4-1.2-2.4-1.2zM438.3 108.4c.5 0 1 0 1.5.1l-.2 1c-.5-.1-.9-.2-1.4-.2-1 0-1.7.4-2.3 1.2-.6.8-.9 1.8-.9 3.1v6.2h-1v-11.2h.9l.1 2h.1c.5-.8.9-1.4 1.5-1.7.4-.3 1-.5 1.7-.5zM450.6 119.1c.6 0 1.2-.1 1.7-.2v.8c-.5.2-1.1.2-1.7.2-1 0-1.7-.3-2.2-.8-.5-.5-.7-1.4-.7-2.5v-7.2H446v-.6l1.7-.5.5-2.5h.5v2.7h3.3v.9h-3.3v7.1c0 .9.2 1.5.5 1.9.2.5.7.7 1.4.7zM463.9 114.2c0 1.8-.4 3.2-1.3 4.3-.9 1-2.1 1.5-3.7 1.5-1 0-1.8-.2-2.6-.7s-1.3-1.2-1.7-2c-.4-.9-.6-1.9-.6-3.1 0-1.8.4-3.2 1.3-4.3.9-1 2.1-1.5 3.6-1.5s2.7.5 3.6 1.5c1 1.1 1.4 2.5 1.4 4.3zm-8.8 0c0 1.5.3 2.7 1 3.6.7.9 1.6 1.3 2.9 1.3s2.2-.4 2.9-1.3c.7-.9 1-2.1 1-3.6s-.3-2.7-1-3.6c-.7-.8-1.6-1.3-2.9-1.3s-2.2.4-2.9 1.3c-.7.9-1 2.1-1 3.6zM486.4 119.8v-7.3c0-1.1-.2-1.9-.6-2.4s-1.1-.8-2-.8c-1.1 0-2 .3-2.5.9-.5.6-.8 1.6-.8 3v6.5h-1v-7.6c0-1.9-.9-2.8-2.6-2.8-1.2 0-2 .3-2.6 1s-.8 1.8-.8 3.3v6.2h-1v-11.2h.8l.2 1.5h.1c.3-.6.7-1 1.3-1.3.6-.3 1.2-.5 1.9-.5 1.8 0 2.9.7 3.4 2 .4-.6.9-1.1 1.5-1.5s1.3-.5 2.1-.5c1.2 0 2.1.3 2.7 1 .6.7.9 1.7.9 3.1v7.3h-1zM497.8 119.8l-.3-1.8h-.1c-.6.7-1.1 1.2-1.7 1.5s-1.3.4-2.1.4c-1.1 0-1.9-.3-2.6-.8-.6-.6-.9-1.3-.9-2.3 0-1.1.5-1.9 1.4-2.5.9-.6 2.2-.9 3.9-1l2.1-.1v-.7c0-1.1-.2-1.9-.6-2.4-.4-.5-1.1-.8-2.1-.8s-2.1.3-3.2.9l-.4-.9c1.2-.6 2.4-.9 3.6-.9 1.2 0 2.1.3 2.7 1 .6.6.9 1.6.9 3v7.4h-.6zm-4.1-.7c1.2 0 2.1-.3 2.8-1s1-1.6 1-2.8v-1.1l-2 .1c-1.6.1-2.7.3-3.4.7-.7.4-1 1.1-1 1.9 0 .7.2 1.2.6 1.6.6.4 1.2.6 2 .6zM507 120c-1.7 0-3-.6-3.8-1.9h-.1v6.9h-1v-16.2h.9l.2 1.6h.1c.8-1.2 2-1.8 3.7-1.8 1.5 0 2.7.5 3.4 1.5.8 1 1.2 2.4 1.2 4.3 0 1.8-.4 3.3-1.2 4.3-.9.8-2 1.3-3.4 1.3zm-.1-.9c1.1 0 2-.4 2.7-1.3.6-.8.9-2 .9-3.6 0-3.3-1.2-4.9-3.6-4.9-1.3 0-2.3.4-2.9 1.1-.6.7-.9 1.9-.9 3.5v.3c0 1.7.3 3 .9 3.7.7.8 1.6 1.2 2.9 1.2zM518.7 109.9l-.1-.2c.2-.8.5-1.6.8-2.6s.7-1.7 1-2.4h.7c-.2.7-.4 1.6-.7 2.6s-.4 1.9-.5 2.5h-1.2zM532.2 119.8l-2.4-7.5c-.2-.5-.4-1.3-.6-2.2h-.2l-.2.8-.5 1.5-2.5 7.5h-1l-3.2-11.2h1.1l1.8 6.5c.4 1.6.7 2.8.8 3.5h.1c.4-1.6.7-2.7.9-3.2l2.3-6.8h.9l2.2 6.8c.5 1.6.8 2.7.9 3.2h.1c.1-.4.3-1.6.8-3.6l1.7-6.4h1l-3 11.2h-1zM547.4 119.8l-2.4-7.5c-.2-.5-.4-1.3-.6-2.2h-.1l-.2.8-.5 1.5-2.5 7.5h-1l-3.2-11.2h1.1l1.8 6.5c.4 1.6.7 2.8.8 3.5h.1c.4-1.6.7-2.7.9-3.2l2.3-6.8h.9l2.2 6.8c.5 1.6.8 2.7.9 3.2h.1c.1-.4.3-1.6.8-3.6l1.7-6.4h1l-3 11.2h-1.1zM562.6 119.8l-2.4-7.5c-.2-.5-.4-1.3-.6-2.2h-.1l-.2.8-.5 1.5-2.5 7.5h-1l-3.2-11.2h1.1l1.8 6.5c.4 1.6.7 2.8.8 3.5h.1c.4-1.6.7-2.7.9-3.2l2.3-6.8h.9l2.2 6.8c.5 1.6.8 2.7.9 3.2h.1c.1-.4.3-1.6.8-3.6l1.7-6.4h1l-3 11.2h-1.1zM569.7 104.8l.1.2c-.5 1.8-1.1 3.5-1.8 4.9h-.7c.2-.7.4-1.5.6-2.5.2-1 .4-1.9.5-2.7h1.3zM580.4 119.1c.6 0 1.2-.1 1.7-.2v.8c-.5.2-1.1.2-1.7.2-1 0-1.7-.3-2.2-.8-.5-.5-.7-1.4-.7-2.5v-7.2h-1.7v-.6l1.7-.5.5-2.5h.5v2.7h3.3v.9h-3.3v7.1c0 .9.2 1.5.5 1.9.2.5.7.7 1.4.7zM593.7 114.2c0 1.8-.4 3.2-1.3 4.3-.9 1-2.1 1.5-3.7 1.5-1 0-1.8-.2-2.6-.7s-1.3-1.2-1.7-2c-.4-.9-.6-1.9-.6-3.1 0-1.8.4-3.2 1.3-4.3.9-1 2.1-1.5 3.6-1.5s2.7.5 3.6 1.5c1 1.1 1.4 2.5 1.4 4.3zm-8.8 0c0 1.5.3 2.7 1 3.6.7.9 1.6 1.3 2.9 1.3s2.2-.4 2.9-1.3c.7-.9 1-2.1 1-3.6s-.3-2.7-1-3.6c-.7-.8-1.6-1.3-2.9-1.3s-2.2.4-2.9 1.3c-.7.9-1 2.1-1 3.6zM596.6 119c0-.7.3-1 .8-1 .6 0 .8.3.8 1s-.3 1-.8 1-.8-.3-.8-1z"/></g><path class="st10" d="M187.6 185.7h503.2v182.8H187.6z"/><path class="st11" d="M690.5 186v182.2H188V186h502.5m.6-.6H187.3V369h503.9V185.4h-.1z"/><path class="st12" d="M188 295h495.3v21H188z"/><path class="st13" d="M188 186.1h502.5v21H188zM188 186.1h30.3v21H188z"/><path class="st10" d="M218.2 188.8h288.1v15.8H218.2z"/><path class="st14" d="M212.3 207.2h145.4v21H212.3z"/><path class="st15" d="M217.4 212.4h71.1v15.8h-71.1z"/><path class="st16" d="M223.6 223h-.9l-3.5-5.4v5.4h-.9v-7h.9l3.5 5.4V216h.9v7zM228.5 223c-.1-.1-.1-.3-.1-.5-.4.4-.9.6-1.5.6-.5 0-.9-.1-1.3-.4-.3-.3-.5-.7-.5-1.1 0-.5.2-1 .6-1.3.4-.3 1-.5 1.7-.5h.9v-.4c0-.3-.1-.6-.3-.7-.2-.2-.5-.3-.8-.3-.3 0-.6.1-.8.2-.2.2-.3.4-.3.6h-.9c0-.3.1-.5.3-.8.2-.2.4-.4.8-.6s.7-.2 1-.2c.6 0 1.1.2 1.4.5.3.3.5.7.5 1.2v2.4c0 .5.1.9.2 1.1v.1h-.9zm-1.5-.7c.3 0 .5-.1.8-.2.3-.1.4-.3.5-.6v-1.1h-.7c-1.1 0-1.6.3-1.6 1 0 .3.1.5.3.7.2.1.4.2.7.2zM231.6 217.8v.6c.4-.4.9-.7 1.5-.7.7 0 1.2.3 1.5.8.2-.3.4-.5.7-.6.3-.2.6-.2 1-.2 1.1 0 1.7.6 1.7 1.8v3.5h-.9v-3.4c0-.4-.1-.7-.3-.8s-.5-.3-.9-.3c-.3 0-.6.1-.8.3-.2.2-.3.5-.4.8v3.5h-.7v-3.4c0-.8-.4-1.1-1.1-1.1-.6 0-1 .2-1.2.7v3.8h-.9v-5.2h.8zM241.8 223.1c-.7 0-1.3-.2-1.7-.7-.4-.5-.7-1.1-.7-1.9v-.2c0-.5.1-1 .3-1.4s.5-.7.8-1c.4-.2.7-.3 1.2-.3.7 0 1.2.2 1.6.7.4.4.6 1.1.6 1.9v.4h-3.5c0 .5.2.9.5 1.2.3.3.7.5 1.1.5.3 0 .6-.1.8-.2.2-.1.4-.3.6-.5l.5.4c-.6.7-1.2 1.1-2.1 1.1zm-.1-4.7c-.4 0-.7.1-.9.4s-.4.6-.5 1.1h2.6v-.1c0-.5-.1-.8-.4-1.1-.1-.2-.4-.3-.8-.3z"/><g class="st17"><path class="st16" d="M225.1 197.9v2.6h-.9V194h2.4c.7 0 1.3.2 1.7.5.4.4.6.8.6 1.5 0 .6-.2 1.1-.6 1.5-.4.3-1 .5-1.7.5h-1.5zm0-.7h1.6c.5 0 .8-.1 1.1-.3.2-.2.4-.5.4-.9s-.1-.7-.4-.9-.6-.4-1-.4h-1.6v2.5zM233.1 200c-.3.4-.8.6-1.4.6-.5 0-.9-.2-1.2-.5-.3-.3-.4-.7-.4-1.3v-3.2h.8v3.1c0 .7.3 1.1.9 1.1.6 0 1.1-.2 1.3-.7v-3.5h.8v4.9h-.8v-.5zM239.5 198.1c0 .7-.2 1.3-.5 1.8s-.8.7-1.4.7c-.6 0-1.1-.2-1.4-.7v.6h-.8v-6.9h.8v2.6c.3-.4.8-.6 1.4-.6s1.1.2 1.4.7c.4.4.5 1 .5 1.8zm-.8-.1c0-.6-.1-1-.3-1.3-.2-.3-.5-.5-.9-.5-.5 0-.9.3-1.2.8v2.1c.3.5.7.8 1.2.8.4 0 .7-.2.9-.5.2-.3.3-.7.3-1.4zM241.7 200.5h-.8v-6.9h.8v6.9zM243.1 194.4c0-.1 0-.2.1-.3.1-.1.2-.1.4-.1s.3 0 .4.1c.1.1.1.2.1.3s0 .2-.1.3c-.1.1-.2.1-.4.1s-.3 0-.4-.1c0-.1-.1-.2-.1-.3zm.9 6.1h-.8v-4.9h.8v4.9zM247.5 199.9c.3 0 .6-.1.8-.3.2-.2.3-.4.4-.7h.8c0 .3-.1.5-.3.8s-.4.5-.7.6c-.3.1-.6.2-.9.2-.7 0-1.2-.2-1.6-.7-.4-.4-.6-1-.6-1.8 0-.5.1-.9.3-1.3.2-.4.4-.7.7-.9.3-.2.7-.3 1.2-.3s1 .2 1.4.5c.4.3.6.8.6 1.3h-.8c0-.3-.1-.6-.4-.8-.2-.2-.5-.3-.8-.3-.4 0-.8.2-1 .5-.2.3-.3.7-.3 1.3v.2c0 .6.1 1 .3 1.3.1.3.5.4.9.4zM250.7 201.1h-.7l2.7-7.1h.7l-2.7 7.1z"/></g><path class="st10" d="M343.2 207.2h64.5v21h-64.5z"/><path class="st15" d="M354.7 212.4h24.4v15.8h-24.4z"/><path class="st16" d="M355.5 223v-7h2c.6 0 1.1.1 1.6.4.5.3.8.7 1.1 1.2s.4 1.1.4 1.7v.4c0 .7-.1 1.2-.4 1.7-.3.5-.6.9-1.1 1.1s-1 .4-1.7.4h-1.9zm.9-6.3v5.5h1c.7 0 1.3-.2 1.7-.7.4-.4.6-1.1.6-1.9v-.4c0-.8-.2-1.4-.6-1.9-.4-.4-.9-.7-1.6-.7h-1.1zM365.2 223c-.1-.1-.1-.3-.1-.5-.4.4-.9.6-1.5.6-.5 0-.9-.1-1.3-.4-.3-.3-.5-.7-.5-1.1 0-.5.2-1 .6-1.3.4-.3 1-.5 1.7-.5h.9v-.4c0-.3-.1-.6-.3-.7-.2-.2-.5-.3-.8-.3-.3 0-.6.1-.8.2-.2.2-.3.4-.3.6h-.9c0-.3.1-.5.3-.8.2-.2.4-.4.8-.6s.7-.2 1-.2c.6 0 1.1.2 1.4.5.3.3.5.7.5 1.2v2.4c0 .5.1.9.2 1.1v.1h-.9zm-1.5-.7c.3 0 .5-.1.8-.2.3-.1.4-.3.5-.6v-1.1h-.7c-1.1 0-1.6.3-1.6 1 0 .3.1.5.3.7.2.1.4.2.7.2zM368.7 216.5v1.3h1v.7h-1v3.2c0 .2 0 .4.1.5s.2.2.4.2c.1 0 .2 0 .4-.1v.7c-.2.1-.5.1-.7.1-.4 0-.7-.1-.9-.4-.2-.2-.3-.6-.3-1v-3.2h-.9v-.7h.9v-1.3h1zM372.9 223.1c-.7 0-1.3-.2-1.7-.7-.4-.5-.7-1.1-.7-1.9v-.2c0-.5.1-1 .3-1.4s.5-.7.8-1c.4-.2.7-.3 1.2-.3.7 0 1.2.2 1.6.7.4.4.6 1.1.6 1.9v.4h-3.5c0 .5.2.9.5 1.2.3.3.7.5 1.1.5.3 0 .6-.1.8-.2.2-.1.4-.3.6-.5l.5.4c-.6.7-1.2 1.1-2.1 1.1zm-.1-4.7c-.4 0-.7.1-.9.4s-.4.6-.5 1.1h2.6v-.1c0-.5-.1-.8-.4-1.1-.1-.2-.4-.3-.8-.3z"/><path class="st10" d="M576 207.2h44.7v21H576zM635.2 207.2h47.4v21h-47.4z"/><path class="st15" d="M649.6 212.4H674v15.8h-24.4z"/><path class="st16" d="M658.2 219.8c-.8-.2-1.4-.5-1.7-.8-.4-.3-.5-.7-.5-1.2 0-.6.2-1 .7-1.4s1-.5 1.7-.5c.5 0 .9.1 1.3.3.4.2.7.4.9.8.2.3.3.7.3 1.1h-.9c0-.4-.1-.8-.4-1-.3-.2-.6-.4-1.1-.4-.5 0-.8.1-1.1.3-.3.2-.4.5-.4.8 0 .3.1.5.4.7.2.2.7.4 1.2.5s1 .3 1.4.5.6.4.7.7c.2.3.2.6.2.9 0 .6-.2 1-.7 1.4-.4.3-1 .5-1.8.5-.5 0-.9-.1-1.3-.3-.4-.2-.7-.4-1-.8-.2-.3-.3-.7-.3-1.1h.9c0 .4.2.8.5 1 .3.2.7.4 1.3.4.5 0 .9-.1 1.1-.3s.4-.5.4-.8-.1-.6-.4-.8c-.3-.1-.8-.3-1.4-.5zM662.1 216.4c0-.1 0-.3.1-.4.1-.1.2-.1.4-.1s.3 0 .4.1.1.2.1.4 0 .3-.1.4c-.1.1-.2.1-.4.1s-.3 0-.4-.1c0-.2-.1-.3-.1-.4zm1 6.6h-.9v-5.2h.9v5.2zM665.4 222.2h3v.7h-4.1v-.7l2.9-3.8h-2.8v-.7h4v.6l-3 3.9zM671.6 223.1c-.7 0-1.3-.2-1.7-.7-.4-.5-.7-1.1-.7-1.9v-.2c0-.5.1-1 .3-1.4s.5-.7.8-1c.4-.2.7-.3 1.2-.3.7 0 1.2.2 1.6.7.4.4.6 1.1.6 1.9v.4h-3.5c0 .5.2.9.5 1.2.3.3.7.5 1.1.5.3 0 .6-.1.8-.2.2-.1.4-.3.6-.5l.5.4c-.5.7-1.2 1.1-2.1 1.1zm-.1-4.7c-.4 0-.7.1-.9.4s-.4.6-.5 1.1h2.6v-.1c0-.5-.1-.8-.4-1.1-.1-.2-.4-.3-.8-.3z"/><path class="st15" d="M217.4 224.6h97.7v129h-97.7z"/><path class="st16" d="M222.1 243.8h-2.9l-.7 1.8h-1l2.7-7h.8l2.7 7h-.9l-.7-1.8zm-2.7-.7h2.4l-1.2-3.3-1.2 3.3zM225.7 245.7h-.9v-7.4h.9v7.4zM231.7 243.1c0 .8-.2 1.4-.5 1.9-.4.5-.9.7-1.5.7s-1.1-.2-1.5-.6v2.5h-.9v-7.2h.8v.6c.4-.4.9-.7 1.5-.7s1.1.2 1.5.7c.4.5.6 1.2.6 2.1zm-.9-.1c0-.6-.1-1.1-.4-1.4-.3-.3-.6-.5-1-.5-.5 0-.9.2-1.2.7v2.5c.3.5.7.7 1.2.7.4 0 .8-.2 1-.5.3-.3.4-.8.4-1.5zM234 241.1c.4-.5.9-.7 1.5-.7 1.1 0 1.7.6 1.7 1.9v3.4h-.9v-3.4c0-.4-.1-.7-.3-.8-.2-.2-.4-.3-.8-.3-.3 0-.5.1-.8.2s-.4.4-.5.6v3.7h-.9v-7.4h.9v2.8zM241.8 245.7c-.1-.1-.1-.3-.1-.5-.4.4-.9.6-1.5.6-.5 0-.9-.1-1.3-.4-.3-.3-.5-.7-.5-1.1 0-.5.2-1 .6-1.3.4-.3 1-.5 1.7-.5h.9v-.4c0-.3-.1-.6-.3-.7-.2-.2-.5-.3-.8-.3-.3 0-.6.1-.8.2-.2.2-.3.4-.3.6h-.9c0-.3.1-.5.3-.8.2-.2.4-.4.8-.6s.7-.2 1-.2c.6 0 1.1.2 1.4.5.3.3.5.7.5 1.2v2.4c0 .5.1.9.2 1.1v.1h-.9zm-1.4-.7c.3 0 .5-.1.8-.2.3-.1.4-.3.5-.6v-1.1h-.7c-1.1 0-1.6.3-1.6 1 0 .3.1.5.3.7.1.1.4.2.7.2zM218.2 266.7v-7h2.3c.8 0 1.3.2 1.7.5s.6.8.6 1.4c0 .3-.1.6-.3.9-.2.3-.4.4-.8.6.4.1.7.3.9.6.2.3.3.7.3 1.1 0 .6-.2 1.1-.6 1.5-.4.4-1 .5-1.7.5h-2.4zm.9-4h1.4c.4 0 .7-.1 1-.3.2-.2.4-.5.4-.8 0-.4-.1-.7-.3-.8-.2-.2-.6-.3-1-.3h-1.4v2.2zm0 .7v2.5h1.5c.4 0 .8-.1 1-.3.2-.2.4-.5.4-.9 0-.8-.5-1.3-1.4-1.3h-1.5zM226.6 266.8c-.7 0-1.3-.2-1.7-.7-.4-.5-.7-1.1-.7-1.9v-.2c0-.5.1-1 .3-1.4s.5-.7.8-1c.4-.2.7-.3 1.2-.3.7 0 1.2.2 1.6.7.4.4.6 1.1.6 1.9v.4h-3.5c0 .5.2.9.5 1.2.3.3.7.5 1.1.5.3 0 .6-.1.8-.2.2-.1.4-.3.6-.5l.5.4c-.6.8-1.2 1.1-2.1 1.1zm-.1-4.7c-.4 0-.7.1-.9.4s-.4.6-.5 1.1h2.6v-.1c0-.5-.1-.8-.4-1.1-.2-.1-.5-.3-.8-.3zM231.1 260.2v1.3h1v.7h-1v3.2c0 .2 0 .4.1.5s.2.2.4.2c.1 0 .2 0 .4-.1v.7c-.2.1-.5.1-.7.1-.4 0-.7-.1-.9-.4-.2-.2-.3-.6-.3-1v-3.2h-.9v-.7h.9v-1.3h1zM236.5 266.7c-.1-.1-.1-.3-.1-.5-.4.4-.9.6-1.5.6-.5 0-.9-.1-1.3-.4-.3-.3-.5-.7-.5-1.1 0-.5.2-1 .6-1.3.4-.3 1-.5 1.7-.5h.9v-.4c0-.3-.1-.6-.3-.7-.2-.2-.5-.3-.8-.3-.3 0-.6.1-.8.2-.2.2-.3.4-.3.6h-.9c0-.3.1-.5.3-.8.2-.2.4-.4.8-.6s.7-.2 1-.2c.6 0 1.1.2 1.4.5.3.3.5.7.5 1.2v2.4c0 .5.1.9.2 1.1v.1h-.9zm-1.5-.7c.3 0 .5-.1.8-.2.3-.1.4-.3.5-.6v-1.1h-.7c-1.1 0-1.6.3-1.6 1 0 .3.1.5.3.7.2.1.4.2.7.2zM223.4 285.5c-.1.7-.4 1.3-.8 1.7-.5.4-1.1.6-1.8.6-.8 0-1.5-.3-2-.9-.5-.6-.7-1.4-.7-2.4v-.7c0-.7.1-1.2.3-1.7.2-.5.6-.9 1-1.1.4-.3.9-.4 1.5-.4.7 0 1.3.2 1.8.6.4.4.7 1 .8 1.7h-.9c-.1-.6-.3-1-.5-1.2-.3-.3-.6-.4-1.1-.4-.6 0-1.1.2-1.4.7-.3.4-.5 1.1-.5 1.9v.7c0 .8.2 1.4.5 1.8.3.5.8.7 1.3.7s.9-.1 1.2-.3c.3-.2.5-.6.5-1.2h.8zM225.6 283.2c.4-.5.9-.7 1.5-.7 1.1 0 1.7.6 1.7 1.9v3.4h-.9v-3.4c0-.4-.1-.7-.3-.8-.2-.2-.4-.3-.8-.3-.3 0-.5.1-.8.2s-.4.4-.5.6v3.7h-.9v-7.4h.9v2.8zM233.5 287.8c-.1-.1-.1-.3-.1-.5-.4.4-.9.6-1.5.6-.5 0-.9-.1-1.3-.4-.3-.3-.5-.7-.5-1.1 0-.5.2-1 .6-1.3.4-.3 1-.5 1.7-.5h.9v-.4c0-.3-.1-.6-.3-.7-.2-.2-.5-.3-.8-.3-.3 0-.6.1-.8.2-.2.2-.3.4-.3.6h-.9c0-.3.1-.5.3-.8.2-.2.4-.4.8-.6s.7-.2 1-.2c.6 0 1.1.2 1.4.5.3.3.5.7.5 1.2v2.4c0 .5.1.9.2 1.1v.1h-.9zm-1.5-.7c.3 0 .5-.1.8-.2.3-.1.4-.3.5-.6v-1.1h-.7c-1.1 0-1.6.3-1.6 1 0 .3.1.5.3.7.2.1.4.2.7.2zM238.3 283.3h-.4c-.6 0-1 .2-1.2.7v3.7h-.9v-5.2h.9v.6c.3-.5.7-.7 1.2-.7.2 0 .3 0 .4.1v.8zM240.3 287.8h-.9v-7.4h.9v7.4zM241.9 281.2c0-.1 0-.3.1-.4.1-.1.2-.1.4-.1s.3 0 .4.1.1.2.1.4 0 .3-.1.4c-.1.1-.2.1-.4.1s-.3 0-.4-.1c-.1-.2-.1-.3-.1-.4zm.9 6.6h-.9v-5.2h.9v5.2zM246.5 287.9c-.7 0-1.3-.2-1.7-.7-.4-.5-.7-1.1-.7-1.9v-.2c0-.5.1-1 .3-1.4s.5-.7.8-1c.4-.2.7-.3 1.2-.3.7 0 1.2.2 1.6.7.4.4.6 1.1.6 1.9v.4H245c0 .5.2.9.5 1.2.3.3.7.5 1.1.5.3 0 .6-.1.8-.2.2-.1.4-.3.6-.5l.5.4c-.4.7-1.1 1.1-2 1.1zm-.1-4.7c-.4 0-.7.1-.9.4s-.4.6-.5 1.1h2.6v-.1c0-.5-.1-.8-.4-1.1-.1-.2-.4-.3-.8-.3zM218.2 308.8v-7h2c.6 0 1.1.1 1.6.4.5.3.8.7 1.1 1.2s.4 1.1.4 1.7v.4c0 .7-.1 1.2-.4 1.7-.3.5-.6.9-1.1 1.1s-1 .4-1.7.4h-1.9zm.9-6.3v5.5h1c.7 0 1.3-.2 1.7-.7.4-.4.6-1.1.6-1.9v-.4c0-.8-.2-1.4-.6-1.9-.4-.4-.9-.7-1.6-.7h-1.1zM226.9 308.9c-.7 0-1.3-.2-1.7-.7-.4-.5-.7-1.1-.7-1.9v-.2c0-.5.1-1 .3-1.4s.5-.7.8-1c.4-.2.7-.3 1.2-.3.7 0 1.2.2 1.6.7.4.4.6 1.1.6 1.9v.4h-3.5c0 .5.2.9.5 1.2.3.3.7.5 1.1.5.3 0 .6-.1.8-.2.2-.1.4-.3.6-.5l.5.4c-.6.8-1.2 1.1-2.1 1.1zm-.1-4.7c-.4 0-.7.1-.9.4s-.4.6-.5 1.1h2.6v-.1c0-.5-.1-.8-.4-1.1-.2-.2-.5-.3-.8-.3zM231.1 308.8h-.9v-7.4h.9v7.4zM234 302.3v1.3h1v.7h-1v3.2c0 .2 0 .4.1.5s.2.2.4.2c.1 0 .2 0 .4-.1v.7c-.2.1-.5.1-.7.1-.4 0-.7-.1-.9-.4-.2-.2-.3-.6-.3-1v-3.2h-.9v-.7h.9v-1.3h1zM239.4 308.8c-.1-.1-.1-.3-.1-.5-.4.4-.9.6-1.5.6-.5 0-.9-.1-1.3-.4-.3-.3-.5-.7-.5-1.1 0-.5.2-1 .6-1.3.4-.3 1-.5 1.7-.5h.9v-.4c0-.3-.1-.6-.3-.7-.2-.2-.5-.3-.8-.3-.3 0-.6.1-.8.2-.2.2-.3.4-.3.6h-.9c0-.3.1-.5.3-.8.2-.2.4-.4.8-.6s.7-.2 1-.2c.6 0 1.1.2 1.4.5.3.3.5.7.5 1.2v2.4c0 .5.1.9.2 1.1v.1h-.9zm-1.5-.7c.3 0 .5-.1.8-.2.3-.1.4-.3.5-.6v-1.1h-.7c-1.1 0-1.6.3-1.6 1 0 .3.1.5.3.7.2.1.4.2.7.2zM222.7 328.6l1-4h.9l-1.5 5.2h-.7l-1.3-4-1.2 4h-.7l-1.5-5.2h.9l1 3.9 1.2-3.9h.7l1.2 4zM230.5 328.6l1-4h.9l-1.5 5.2h-.7l-1.3-4-1.2 4h-.7l-1.5-5.2h.9l1 3.9 1.2-3.9h.7l1.2 4zM238.3 328.6l1-4h.9l-1.5 5.2h-.7l-1.3-4-1.2 4h-.7l-1.5-5.2h.9l1 3.9 1.2-3.9h.7l1.2 4zM243.3 327.2H241v-.7h2.4v.7zM247.6 328.5c0-.2-.1-.4-.3-.6-.2-.1-.5-.2-.9-.3s-.8-.2-1.1-.3-.5-.3-.6-.5c-.1-.2-.2-.4-.2-.7 0-.4.2-.8.5-1.1.4-.3.8-.4 1.4-.4.6 0 1.1.2 1.4.5.4.3.6.7.6 1.2h-.9c0-.2-.1-.5-.3-.6s-.5-.3-.8-.3c-.3 0-.6.1-.8.2-.2.1-.3.3-.3.6 0 .2.1.4.3.5s.5.2.9.3c.4.1.8.2 1.1.4s.5.3.6.5c.1.2.2.4.2.7 0 .5-.2.8-.6 1.1-.4.3-.9.4-1.5.4-.4 0-.8-.1-1.1-.2s-.6-.4-.8-.6c-.2-.3-.3-.6-.3-.9h.9c0 .3.1.5.4.7.2.2.5.3.9.3.3 0 .6-.1.8-.2s.5-.5.5-.7zM252 329.9c-.7 0-1.3-.2-1.7-.7-.4-.5-.7-1.1-.7-1.9v-.2c0-.5.1-1 .3-1.4s.5-.7.8-1c.4-.2.7-.3 1.2-.3.7 0 1.2.2 1.6.7.4.4.6 1.1.6 1.9v.4h-3.5c0 .5.2.9.5 1.2.3.3.7.5 1.1.5.3 0 .6-.1.8-.2.2-.1.4-.3.6-.5l.5.4c-.6.8-1.3 1.1-2.1 1.1zm-.2-4.6c-.4 0-.7.1-.9.4s-.4.6-.5 1.1h2.6v-.1c0-.5-.1-.8-.4-1.1-.1-.2-.4-.3-.8-.3zM257.8 325.4h-.4c-.6 0-1 .2-1.2.7v3.7h-.9v-5.2h.9v.6c.3-.5.7-.7 1.2-.7.2 0 .3 0 .4.1v.8zM260.8 328.6l1.3-4h.9l-1.9 5.2h-.7l-1.9-5.2h.9l1.4 4zM264 323.3c0-.1 0-.3.1-.4.1-.1.2-.1.4-.1s.3 0 .4.1.1.2.1.4 0 .3-.1.4c-.1.1-.2.1-.4.1s-.3 0-.4-.1c0-.2-.1-.3-.1-.4zm1 6.5h-.9v-5.2h.9v5.2zM268.6 329.2c.3 0 .6-.1.8-.3.2-.2.4-.4.4-.7h.8c0 .3-.1.6-.3.9s-.4.5-.8.6-.7.2-1 .2c-.7 0-1.3-.2-1.7-.7-.4-.5-.6-1.1-.6-1.9v-.1c0-.5.1-1 .3-1.4.2-.4.5-.7.8-.9.3-.2.8-.3 1.2-.3.6 0 1.1.2 1.5.5.4.3.6.8.6 1.4h-.8c0-.3-.2-.6-.4-.8s-.5-.3-.8-.3c-.5 0-.8.2-1.1.5-.2.3-.4.8-.4 1.4v.2c0 .6.1 1.1.4 1.4.3.2.7.3 1.1.3zM274.1 329.9c-.7 0-1.3-.2-1.7-.7-.4-.5-.7-1.1-.7-1.9v-.2c0-.5.1-1 .3-1.4s.5-.7.8-1c.4-.2.7-.3 1.2-.3.7 0 1.2.2 1.6.7.4.4.6 1.1.6 1.9v.4h-3.5c0 .5.2.9.5 1.2.3.3.7.5 1.1.5.3 0 .6-.1.8-.2.2-.1.4-.3.6-.5l.5.4c-.6.8-1.2 1.1-2.1 1.1zm-.1-4.6c-.4 0-.7.1-.9.4s-.4.6-.5 1.1h2.6v-.1c0-.5-.1-.8-.4-1.1-.2-.2-.4-.3-.8-.3z"/><path class="st15" d="M354.7 224.6h64.4v129h-64.4z"/><path class="st16" d="M359.9 245.7h-4.6v-.7l2.4-2.7c.4-.4.6-.7.7-1 .1-.3.2-.5.2-.8 0-.4-.1-.7-.3-.9-.2-.2-.5-.4-.9-.4s-.8.1-1 .4c-.2.3-.4.6-.4 1.1h-.9c0-.6.2-1.2.6-1.6.4-.4 1-.6 1.7-.6s1.2.2 1.5.5c.4.3.6.8.6 1.4 0 .7-.4 1.5-1.3 2.5l-1.9 2h3.5v.8zM365.3 242.7c0 1-.2 1.8-.5 2.3-.4.5-.9.8-1.7.8-.7 0-1.3-.2-1.7-.7-.4-.5-.5-1.2-.6-2.2v-1.2c0-1 .2-1.8.5-2.3.4-.5.9-.8 1.7-.8.8 0 1.3.2 1.7.7s.5 1.2.5 2.2v1.2zm-.8-1.3c0-.8-.1-1.3-.3-1.7-.2-.3-.5-.5-1-.5s-.8.2-1 .5c-.2.3-.3.9-.3 1.6v1.4c0 .8.1 1.3.3 1.7.2.4.6.5 1 .5s.8-.2 1-.5.3-.9.3-1.6v-1.4zM366.8 246.3h-.8l2.9-7.6h.8l-2.9 7.6zM375 242.7c0 1-.2 1.8-.5 2.3-.4.5-.9.8-1.7.8-.7 0-1.3-.2-1.7-.7-.4-.5-.5-1.2-.6-2.2v-1.2c0-1 .2-1.8.5-2.3.4-.5.9-.8 1.7-.8.8 0 1.3.2 1.7.7s.5 1.2.5 2.2v1.2zm-.9-1.3c0-.8-.1-1.3-.3-1.7-.2-.3-.5-.5-1-.5s-.8.2-1 .5c-.2.3-.3.9-.3 1.6v1.4c0 .8.1 1.3.3 1.7.2.4.6.5 1 .5s.8-.2 1-.5.3-.9.3-1.6v-1.4zM379.1 245.7h-.9v-5.9l-1.8.7v-.8l2.6-1h.1v7zM381.6 246.3h-.8l2.9-7.6h.8l-2.9 7.6zM390.2 245.7h-4.6v-.7l2.4-2.7c.4-.4.6-.7.7-1 .1-.3.2-.5.2-.8 0-.4-.1-.7-.3-.9-.2-.2-.5-.4-.9-.4s-.8.1-1 .4c-.2.3-.4.6-.4 1.1h-.9c0-.6.2-1.2.6-1.6.4-.4 1-.6 1.7-.6s1.2.2 1.5.5c.4.3.6.8.6 1.4 0 .7-.4 1.5-1.3 2.5l-1.9 2h3.5v.8zM395.6 242.7c0 1-.2 1.8-.5 2.3-.4.5-.9.8-1.7.8-.7 0-1.3-.2-1.7-.7-.4-.5-.5-1.2-.6-2.2v-1.2c0-1 .2-1.8.5-2.3.4-.5.9-.8 1.7-.8.8 0 1.3.2 1.7.7s.5 1.2.5 2.2v1.2zm-.9-1.3c0-.8-.1-1.3-.3-1.7-.2-.3-.5-.5-1-.5s-.8.2-1 .5c-.2.3-.3.9-.3 1.6v1.4c0 .8.1 1.3.3 1.7.2.4.6.5 1 .5s.8-.2 1-.5.3-.9.3-1.6v-1.4zM399.7 245.7h-.9v-5.9l-1.8.7v-.8l2.6-1h.1v7zM405.4 238.6v.8h-.2c-.7 0-1.2.2-1.7.6-.4.4-.6 1-.7 1.7.4-.4.9-.6 1.5-.6s1.1.2 1.5.6c.4.4.5 1 .5 1.7s-.2 1.3-.6 1.7-.9.7-1.6.7c-.7 0-1.2-.3-1.6-.8-.4-.5-.6-1.2-.6-2v-.3c0-1.3.3-2.3.8-3 .6-.7 1.4-1 2.5-1h.2zm-1.1 3.2c-.3 0-.6.1-.8.3-.3.2-.4.4-.5.7v.3c0 .6.1 1 .4 1.4.3.4.6.5 1 .5s.7-.1.9-.4c.2-.3.3-.7.3-1.2s-.1-.9-.3-1.2-.6-.4-1-.4zM359.9 266.7h-4.6v-.6l2.4-2.7c.4-.4.6-.7.7-1 .1-.3.2-.5.2-.8 0-.4-.1-.7-.3-.9-.2-.2-.5-.4-.9-.4s-.8.1-1 .4c-.2.3-.4.6-.4 1.1h-.9c0-.6.2-1.2.6-1.6.4-.4 1-.6 1.7-.6s1.2.2 1.5.5c.4.3.6.8.6 1.4 0 .7-.4 1.5-1.3 2.5l-1.9 2h3.5v.7zM363.8 266.7h-.9v-5.9l-1.8.7v-.8l2.6-1h.1v7zM366.3 267.3h-.8l2.9-7.6h.8l-2.9 7.6zM374.5 263.7c0 1-.2 1.8-.5 2.3-.4.5-.9.8-1.7.8-.7 0-1.3-.2-1.7-.7-.4-.5-.5-1.2-.6-2.2v-1.2c0-1 .2-1.8.5-2.3.4-.5.9-.8 1.7-.8.8 0 1.3.2 1.7.7s.5 1.2.5 2.2v1.2zm-.9-1.2c0-.8-.1-1.3-.3-1.7-.2-.3-.5-.5-1-.5s-.8.2-1 .5c-.2.3-.3.9-.3 1.6v1.4c0 .8.1 1.3.3 1.7.2.4.6.5 1 .5s.8-.2 1-.5.3-.9.3-1.6v-1.4zM378.6 266.7h-.9v-5.9l-1.8.7v-.8l2.6-1h.1v7zM381.2 267.3h-.8l2.9-7.6h.8l-2.9 7.6zM389.7 266.7h-4.6v-.6l2.4-2.7c.4-.4.6-.7.7-1 .1-.3.2-.5.2-.8 0-.4-.1-.7-.3-.9-.2-.2-.5-.4-.9-.4s-.8.1-1 .4c-.2.3-.4.6-.4 1.1h-.8c0-.6.2-1.2.6-1.6.4-.4 1-.6 1.7-.6s1.2.2 1.5.5c.4.3.6.8.6 1.4 0 .7-.4 1.5-1.3 2.5l-1.9 2h3.5v.7zM395.1 263.7c0 1-.2 1.8-.5 2.3-.4.5-.9.8-1.7.8-.7 0-1.3-.2-1.7-.7-.4-.5-.5-1.2-.6-2.2v-1.2c0-1 .2-1.8.5-2.3.4-.5.9-.8 1.7-.8.8 0 1.3.2 1.7.7s.5 1.2.5 2.2v1.2zm-.8-1.2c0-.8-.1-1.3-.3-1.7-.2-.3-.5-.5-1-.5s-.8.2-1 .5c-.2.3-.3.9-.3 1.6v1.4c0 .8.1 1.3.3 1.7.2.4.6.5 1 .5s.8-.2 1-.5.3-.9.3-1.6v-1.4zM399.3 266.7h-.9v-5.9l-1.8.7v-.8l2.6-1h.1v7zM405 259.7v.8h-.2c-.7 0-1.2.2-1.7.6-.4.4-.6 1-.7 1.7.4-.4.9-.6 1.5-.6s1.1.2 1.5.6c.4.4.5 1 .5 1.7s-.2 1.3-.6 1.7-.9.7-1.6.7c-.7 0-1.2-.3-1.6-.8-.4-.5-.6-1.2-.6-2v-.3c0-1.3.3-2.3.8-3 .6-.7 1.4-1 2.5-1h.2zm-1.2 3.1c-.3 0-.6.1-.8.3-.3.2-.4.4-.5.7v.3c0 .6.1 1 .4 1.4.3.4.6.5 1 .5s.7-.1.9-.4c.2-.3.3-.7.3-1.2s-.1-.9-.3-1.2-.6-.4-1-.4zM358.2 287.8h-.9v-5.9l-1.8.7v-.8l2.6-1h.1v7zM364.2 285.4h1v.7h-1v1.6h-.9v-1.6h-3.2v-.5l3.1-4.9h.9v4.7zm-3 0h2.2V282l-.1.2-2.1 3.2zM366.5 288.4h-.8l2.9-7.6h.8l-2.9 7.6zM374.7 284.8c0 1-.2 1.8-.5 2.3-.4.5-.9.8-1.7.8-.7 0-1.3-.2-1.7-.7-.4-.5-.5-1.2-.6-2.2v-1.2c0-1 .2-1.8.5-2.3.4-.5.9-.8 1.7-.8.8 0 1.3.2 1.7.7s.5 1.2.5 2.2v1.2zm-.9-1.3c0-.8-.1-1.3-.3-1.7-.2-.3-.5-.5-1-.5s-.8.2-1 .5c-.2.3-.3.9-.3 1.6v1.4c0 .8.1 1.3.3 1.7.2.4.6.5 1 .5s.8-.2 1-.5.3-.9.3-1.6v-1.4zM378.8 287.8h-.8v-5.9l-1.8.7v-.8l2.6-1h.1v7zM381.4 288.4h-.8l2.9-7.6h.8l-2.9 7.6zM389.9 287.8h-4.6v-.6l2.4-2.7c.4-.4.6-.7.7-1 .1-.3.2-.5.2-.8 0-.4-.1-.7-.3-.9-.2-.2-.5-.4-.9-.4s-.8.1-1 .4c-.2.3-.4.6-.4 1.1h-.9c0-.6.2-1.2.6-1.6.4-.4 1-.6 1.7-.6s1.2.2 1.5.5c.4.3.6.8.6 1.4 0 .7-.4 1.5-1.3 2.5l-1.9 2h3.5v.7zM395.4 284.8c0 1-.2 1.8-.5 2.3-.4.5-.9.8-1.7.8-.7 0-1.3-.2-1.7-.7-.4-.5-.5-1.2-.6-2.2v-1.2c0-1 .2-1.8.5-2.3.4-.5.9-.8 1.7-.8.8 0 1.3.2 1.7.7s.5 1.2.5 2.2v1.2zm-.9-1.3c0-.8-.1-1.3-.3-1.7-.2-.3-.5-.5-1-.5s-.8.2-1 .5c-.2.3-.3.9-.3 1.6v1.4c0 .8.1 1.3.3 1.7.2.4.6.5 1 .5s.8-.2 1-.5.3-.9.3-1.6v-1.4zM399.5 287.8h-.9v-5.9l-1.8.7v-.8l2.6-1h.1v7zM405.2 280.7v.8h-.2c-.7 0-1.2.2-1.7.6-.4.4-.6 1-.7 1.7.4-.4.9-.6 1.5-.6s1.1.2 1.5.6c.4.4.5 1 .5 1.7s-.2 1.3-.6 1.7-.9.7-1.6.7c-.7 0-1.2-.3-1.6-.8-.4-.5-.6-1.2-.6-2v-.3c0-1.3.3-2.3.8-3 .6-.7 1.4-1 2.5-1h.2zm-1.2 3.2c-.3 0-.6.1-.8.3-.3.2-.4.4-.5.7v.3c0 .6.1 1 .4 1.4.3.4.6.5 1 .5s.7-.1.9-.4c.2-.3.3-.7.3-1.2s-.1-.9-.3-1.2-.6-.4-1-.4zM359.7 305.8c0 1-.2 1.8-.5 2.3-.4.5-.9.8-1.7.8-.7 0-1.3-.2-1.7-.7-.4-.5-.5-1.2-.6-2.2v-1.2c0-1 .2-1.8.5-2.3.4-.5.9-.8 1.7-.8.8 0 1.3.2 1.7.7s.5 1.2.5 2.2v1.2zm-.9-1.2c0-.8-.1-1.3-.3-1.7-.2-.3-.5-.5-1-.5s-.8.2-1 .5c-.2.3-.3.9-.3 1.6v1.4c0 .8.1 1.3.3 1.7.2.4.6.5 1 .5s.8-.2 1-.5.3-.9.3-1.6v-1.4zM364.6 301.8v.8h-.2c-.7 0-1.2.2-1.7.6-.4.4-.6 1-.7 1.7.4-.4.9-.6 1.5-.6s1.1.2 1.5.6c.4.4.5 1 .5 1.7s-.2 1.3-.6 1.7-.9.7-1.6.7c-.7 0-1.2-.3-1.6-.8-.4-.5-.6-1.2-.6-2v-.3c0-1.3.3-2.3.8-3 .6-.7 1.4-1 2.5-1h.2zm-1.2 3.1c-.3 0-.6.1-.8.3-.3.2-.4.4-.5.7v.3c0 .6.1 1 .4 1.4.3.4.6.5 1 .5s.7-.1.9-.4c.2-.3.3-.7.3-1.2s-.1-.9-.3-1.2-.6-.4-1-.4zM367 309.4h-.8l2.9-7.6h.8l-2.9 7.6zM375.2 305.8c0 1-.2 1.8-.5 2.3-.4.5-.9.8-1.7.8-.7 0-1.3-.2-1.7-.7-.4-.5-.5-1.2-.6-2.2v-1.2c0-1 .2-1.8.5-2.3.4-.5.9-.8 1.7-.8.8 0 1.3.2 1.7.7s.5 1.2.5 2.2v1.2zm-.9-1.2c0-.8-.1-1.3-.3-1.7-.2-.3-.5-.5-1-.5s-.8.2-1 .5c-.2.3-.3.9-.3 1.6v1.4c0 .8.1 1.3.3 1.7.2.4.6.5 1 .5s.8-.2 1-.5.3-.9.3-1.6v-1.4zM379.3 308.8h-.9v-5.9l-1.8.7v-.8l2.6-1h.1v7zM381.8 309.4h-.8l2.9-7.6h.8l-2.9 7.6zM390.3 308.8h-4.6v-.6l2.4-2.7c.4-.4.6-.7.7-1 .1-.3.2-.5.2-.8 0-.4-.1-.7-.3-.9-.2-.2-.5-.4-.9-.4s-.8.1-1 .4c-.2.3-.4.6-.4 1.1h-.9c0-.6.2-1.2.6-1.6.4-.4 1-.6 1.7-.6s1.2.2 1.5.5c.4.3.6.8.6 1.4 0 .7-.4 1.5-1.3 2.5l-1.9 2h3.5v.7zM395.8 305.8c0 1-.2 1.8-.5 2.3-.4.5-.9.8-1.7.8-.7 0-1.3-.2-1.7-.7-.4-.5-.5-1.2-.6-2.2v-1.2c0-1 .2-1.8.5-2.3.4-.5.9-.8 1.7-.8.8 0 1.3.2 1.7.7s.5 1.2.5 2.2v1.2zm-.9-1.2c0-.8-.1-1.3-.3-1.7-.2-.3-.5-.5-1-.5s-.8.2-1 .5c-.2.3-.3.9-.3 1.6v1.4c0 .8.1 1.3.3 1.7.2.4.6.5 1 .5s.8-.2 1-.5.3-.9.3-1.6v-1.4zM399.9 308.8h-.9v-5.9l-1.8.7v-.8l2.6-1h.1v7zM405.6 301.8v.8h-.2c-.7 0-1.2.2-1.7.6-.4.4-.6 1-.7 1.7.4-.4.9-.6 1.5-.6s1.1.2 1.5.6c.4.4.5 1 .5 1.7s-.2 1.3-.6 1.7-.9.7-1.6.7c-.7 0-1.2-.3-1.6-.8-.4-.5-.6-1.2-.6-2v-.3c0-1.3.3-2.3.8-3 .6-.7 1.4-1 2.5-1h.2zm-1.1 3.1c-.3 0-.6.1-.8.3-.3.2-.4.4-.5.7v.3c0 .6.1 1 .4 1.4.3.4.6.5 1 .5s.7-.1.9-.4c.2-.3.3-.7.3-1.2s-.1-.9-.3-1.2-.7-.4-1-.4zM358.2 329.8h-.9v-5.9l-1.8.7v-.8l2.6-1h.1v7zM363.8 326.8c-.2.2-.4.4-.7.5-.3.1-.5.2-.9.2s-.8-.1-1.1-.3c-.3-.2-.5-.5-.7-.8s-.2-.8-.2-1.2c0-.5.1-.9.3-1.3.2-.4.4-.7.8-.9s.7-.3 1.1-.3c.7 0 1.2.3 1.6.8.4.5.6 1.2.6 2.1v.3c0 1.4-.3 2.4-.8 3-.5.6-1.4 1-2.4 1h-.2v-.8h.2c.7 0 1.3-.2 1.7-.6.4-.3.6-.9.7-1.7zm-1.4 0c.3 0 .6-.1.8-.3.3-.2.4-.4.6-.7v-.4c0-.6-.1-1.1-.4-1.4-.3-.4-.6-.5-1-.5s-.7.1-.9.5c-.2.3-.4.7-.4 1.2s.1.9.3 1.2.6.4 1 .4zM366 330.5h-.8l2.9-7.6h.8l-2.9 7.6zM374.2 326.9c0 1-.2 1.8-.5 2.3-.4.5-.9.8-1.7.8-.7 0-1.3-.2-1.7-.7-.4-.5-.5-1.2-.6-2.2v-1.2c0-1 .2-1.8.5-2.3.4-.5.9-.8 1.7-.8.8 0 1.3.2 1.7.7s.5 1.2.5 2.2v1.2zm-.9-1.3c0-.8-.1-1.3-.3-1.7-.2-.3-.5-.5-1-.5s-.8.2-1 .5c-.2.3-.3.9-.3 1.6v1.4c0 .8.1 1.3.3 1.7.2.4.6.5 1 .5s.8-.2 1-.5.3-.9.3-1.6v-1.4zM380 323.3l-2.9 6.5h-.9l2.9-6.3h-3.8v-.7h4.7v.5zM380.7 330.5h-.8l2.9-7.6h.8l-2.9 7.6zM389.2 329.8h-4.6v-.6l2.4-2.7c.4-.4.6-.7.7-1 .1-.3.2-.5.2-.8 0-.4-.1-.7-.3-.9-.2-.2-.5-.4-.9-.4s-.8.1-1 .4c-.2.3-.4.6-.4 1.1h-.9c0-.6.2-1.2.6-1.6.4-.4 1-.6 1.7-.6s1.2.2 1.5.5c.4.3.6.8.6 1.4 0 .7-.4 1.5-1.3 2.5l-1.9 2h3.5v.7zM394.7 326.9c0 1-.2 1.8-.5 2.3-.4.5-.9.8-1.7.8-.7 0-1.3-.2-1.7-.7-.4-.5-.5-1.2-.6-2.2v-1.2c0-1 .2-1.8.5-2.3.4-.5.9-.8 1.7-.8.8 0 1.3.2 1.7.7s.5 1.2.5 2.2v1.2zm-.9-1.3c0-.8-.1-1.3-.3-1.7-.2-.3-.5-.5-1-.5s-.8.2-1 .5c-.2.3-.3.9-.3 1.6v1.4c0 .8.1 1.3.3 1.7.2.4.6.5 1 .5s.8-.2 1-.5.3-.9.3-1.6v-1.4zM398.8 329.8h-.9v-5.9l-1.8.7v-.8l2.6-1h.1v7zM404.5 322.8v.8h-.2c-.7 0-1.2.2-1.7.6-.4.4-.6 1-.7 1.7.4-.4.9-.6 1.5-.6s1.1.2 1.5.6c.4.4.5 1 .5 1.7s-.2 1.3-.6 1.7-.9.7-1.6.7c-.7 0-1.2-.3-1.6-.8-.4-.5-.6-1.2-.6-2v-.3c0-1.3.3-2.3.8-3 .6-.7 1.4-1 2.5-1h.2zm-1.2 3.2c-.3 0-.6.1-.8.3-.3.2-.4.4-.5.7v.3c0 .6.1 1 .4 1.4.3.4.6.5 1 .5s.7-.1.9-.4c.2-.3.3-.7.3-1.2s-.1-.9-.3-1.2-.6-.4-1-.4z"/><path class="st15" d="M622.4 224.6H674v129h-51.6z"/><path class="st16" d="M647.9 245.7h-.9v-5.9l-1.8.7v-.8l2.6-1h.1v7zM654.6 242.7c0 1-.2 1.8-.5 2.3-.4.5-.9.8-1.7.8-.7 0-1.3-.2-1.7-.7-.4-.5-.5-1.2-.6-2.2v-1.2c0-1 .2-1.8.5-2.3.4-.5.9-.8 1.7-.8.8 0 1.3.2 1.7.7s.5 1.2.5 2.2v1.2zm-.9-1.3c0-.8-.1-1.3-.3-1.7-.2-.3-.5-.5-1-.5s-.8.2-1 .5c-.2.3-.3.9-.3 1.6v1.4c0 .8.1 1.3.3 1.7.2.4.6.5 1 .5s.8-.2 1-.5.3-.9.3-1.6v-1.4zM660.5 242.7c0 1-.2 1.8-.5 2.3-.4.5-.9.8-1.7.8-.7 0-1.3-.2-1.7-.7-.4-.5-.5-1.2-.6-2.2v-1.2c0-1 .2-1.8.5-2.3.4-.5.9-.8 1.7-.8.8 0 1.3.2 1.7.7s.5 1.2.5 2.2v1.2zm-.9-1.3c0-.8-.1-1.3-.3-1.7-.2-.3-.5-.5-1-.5s-.8.2-1 .5c-.2.3-.3.9-.3 1.6v1.4c0 .8.1 1.3.3 1.7.2.4.6.5 1 .5s.8-.2 1-.5.3-.9.3-1.6v-1.4zM663.9 242.4l-.9.9v2.4h-.9v-7h.9v3.5l3.1-3.5h1.1l-2.8 3.1 3 3.9h-1.1l-2.4-3.3zM668.7 245.7v-7h2.3c.8 0 1.3.2 1.7.5s.6.8.6 1.4c0 .3-.1.6-.3.9-.2.3-.4.4-.8.6.4.1.7.3.9.6.2.3.3.7.3 1.1 0 .6-.2 1.1-.6 1.5-.4.4-1 .5-1.7.5h-2.4zm.9-4.1h1.4c.4 0 .7-.1 1-.3.2-.2.4-.5.4-.8 0-.4-.1-.7-.3-.8-.2-.2-.6-.3-1-.3h-1.4v2.2zm0 .8v2.5h1.5c.4 0 .8-.1 1-.3.2-.2.4-.5.4-.9 0-.8-.5-1.3-1.4-1.3h-1.5zM653.7 266.7h-.9v-5.9l-1.8.7v-.8l2.6-1h.1v7zM657.2 262.8h.7c.4 0 .8-.1 1-.3.2-.2.4-.5.4-.9 0-.8-.4-1.2-1.2-1.2-.4 0-.7.1-.9.3-.2.2-.3.5-.3.9h-.9c0-.6.2-1 .6-1.4.4-.4.9-.6 1.5-.6.7 0 1.2.2 1.6.5.4.3.6.8.6 1.5 0 .3-.1.6-.3.9s-.5.5-.8.6c.4.1.7.3.9.6.2.3.3.6.3 1 0 .6-.2 1.1-.6 1.5-.4.4-.9.6-1.6.6s-1.2-.2-1.6-.5c-.4-.4-.6-.8-.6-1.4h.9c0 .4.1.7.4.9.2.2.6.3 1 .3s.8-.1 1-.3c.2-.2.3-.5.3-1 0-.4-.1-.7-.4-.9-.3-.2-.6-.3-1.1-.3h-.7v-.8zM667 265.8c-.2.3-.6.6-1 .8-.4.2-.9.3-1.5.3s-1.1-.1-1.5-.4c-.4-.3-.8-.6-1-1.1-.2-.5-.4-1.1-.4-1.7v-.6c0-1.1.2-1.9.7-2.5s1.2-.9 2.1-.9c.7 0 1.3.2 1.8.6s.7.9.8 1.6h-1c-.2-.9-.7-1.4-1.7-1.4-.6 0-1.1.2-1.4.7-.3.4-.5 1.1-.5 1.9v.6c0 .8.2 1.4.5 1.9.4.5.8.7 1.5.7.3 0 .7 0 .9-.1.3-.1.5-.2.6-.4V264h-1.6v-.8h2.5v2.6zM668.7 266.7v-7h2.3c.8 0 1.3.2 1.7.5s.6.8.6 1.4c0 .3-.1.6-.3.9-.2.3-.4.4-.8.6.4.1.7.3.9.6.2.3.3.7.3 1.1 0 .6-.2 1.1-.6 1.5-.4.4-1 .5-1.7.5h-2.4zm.9-4h1.4c.4 0 .7-.1 1-.3.2-.2.4-.5.4-.8 0-.4-.1-.7-.3-.8-.2-.2-.6-.3-1-.3h-1.4v2.2zm0 .7v2.5h1.5c.4 0 .8-.1 1-.3.2-.2.4-.5.4-.9 0-.8-.5-1.3-1.4-1.3h-1.5zM655.8 287.8h-4.6v-.6l2.4-2.7c.4-.4.6-.7.7-1 .1-.3.2-.5.2-.8 0-.4-.1-.7-.3-.9-.2-.2-.5-.4-.9-.4s-.8.1-1 .4c-.2.3-.4.6-.4 1.1h-.9c0-.6.2-1.2.6-1.6.4-.4 1-.6 1.7-.6s1.2.2 1.5.5c.4.3.6.8.6 1.4 0 .7-.4 1.5-1.3 2.5l-1.9 2h3.5v.7zM659.7 287.8h-.9v-5.9l-1.8.7v-.8l2.6-1h.1v7zM663.9 284.5l-.9.9v2.4h-.9v-7h.9v3.5l3.1-3.5h1.1l-2.8 3.1 3 3.9h-1.1l-2.4-3.3zM668.7 287.8v-7h2.3c.8 0 1.3.2 1.7.5s.6.8.6 1.4c0 .3-.1.6-.3.9-.2.3-.4.4-.8.6.4.1.7.3.9.6.2.3.3.7.3 1.1 0 .6-.2 1.1-.6 1.5-.4.4-1 .5-1.7.5h-2.4zm.9-4.1h1.4c.4 0 .7-.1 1-.3.2-.2.4-.5.4-.8 0-.4-.1-.7-.3-.8-.2-.2-.6-.3-1-.3h-1.4v2.2zm0 .8v2.5h1.5c.4 0 .8-.1 1-.3.2-.2.4-.5.4-.9 0-.8-.5-1.3-1.4-1.3h-1.5zM651.7 308.8h-.9v-5.9l-1.8.7v-.8l2.6-1h.1v7zM657.4 301.8v.8h-.2c-.7 0-1.2.2-1.7.6-.4.4-.6 1-.7 1.7.4-.4.9-.6 1.5-.6s1.1.2 1.5.6c.4.4.5 1 .5 1.7s-.2 1.3-.6 1.7-.9.7-1.6.7c-.7 0-1.2-.3-1.6-.8-.4-.5-.6-1.2-.6-2v-.3c0-1.3.3-2.3.8-3 .6-.7 1.4-1 2.5-1h.2zm-1.1 3.1c-.3 0-.6.1-.8.3-.3.2-.4.4-.5.7v.3c0 .6.1 1 .4 1.4.3.4.6.5 1 .5s.7-.1.9-.4c.2-.3.3-.7.3-1.2s-.1-.9-.3-1.2-.6-.4-1-.4zM661.1 301.8l2.3 5.7 2.3-5.7h1.2v7h-.9v-2.7l.1-2.9-2.3 5.7h-.8l-2.3-5.7.1 2.9v2.7h-.9v-7h1.2zM668.7 308.8v-7h2.3c.8 0 1.3.2 1.7.5s.6.8.6 1.4c0 .3-.1.6-.3.9-.2.3-.4.4-.8.6.4.1.7.3.9.6.2.3.3.7.3 1.1 0 .6-.2 1.1-.6 1.5-.4.4-1 .5-1.7.5h-2.4zm.9-4h1.4c.4 0 .7-.1 1-.3.2-.2.4-.5.4-.8 0-.4-.1-.7-.3-.8-.2-.2-.6-.3-1-.3h-1.4v2.2zm0 .7v2.5h1.5c.4 0 .8-.1 1-.3.2-.2.4-.5.4-.9 0-.8-.5-1.3-1.4-1.3h-1.5zM648.2 329.8h-.9v-5.9l-1.8.7v-.8l2.6-1h.1v7zM650.7 326.3l.4-3.5h3.6v.8h-2.8l-.2 1.9c.3-.2.7-.3 1.2-.3.6 0 1.1.2 1.5.6.4.4.6 1 .6 1.7s-.2 1.3-.6 1.7-.9.6-1.6.6c-.6 0-1.1-.2-1.5-.5-.4-.3-.6-.8-.7-1.4h.8c.1.4.2.7.4.9.2.2.5.3.9.3s.7-.1 1-.4c.2-.3.4-.7.4-1.2s-.1-.8-.4-1.1c-.3-.3-.6-.4-1-.4s-.7.1-.9.3l-.2.2-.9-.2zM660.5 326.9c0 1-.2 1.8-.5 2.3-.4.5-.9.8-1.7.8-.7 0-1.3-.2-1.7-.7-.4-.5-.5-1.2-.6-2.2v-1.2c0-1 .2-1.8.5-2.3.4-.5.9-.8 1.7-.8.8 0 1.3.2 1.7.7s.5 1.2.5 2.2v1.2zm-.9-1.3c0-.8-.1-1.3-.3-1.7-.2-.3-.5-.5-1-.5s-.8.2-1 .5c-.2.3-.3.9-.3 1.6v1.4c0 .8.1 1.3.3 1.7.2.4.6.5 1 .5s.8-.2 1-.5.3-.9.3-1.6v-1.4zM663.9 326.6l-.9.9v2.4h-.9v-7h.9v3.5l3.1-3.5h1.1l-2.8 3.1 3 3.9h-1.1l-2.4-3.3zM668.7 329.8v-7h2.3c.8 0 1.3.2 1.7.5s.6.8.6 1.4c0 .3-.1.6-.3.9-.2.3-.4.4-.8.6.4.1.7.3.9.6.2.3.3.7.3 1.1 0 .6-.2 1.1-.6 1.5-.4.4-1 .5-1.7.5h-2.4zm.9-4h1.4c.4 0 .7-.1 1-.3.2-.2.4-.5.4-.8 0-.4-.1-.7-.3-.8-.2-.2-.6-.3-1-.3h-1.4v2.2zm0 .8v2.5h1.5c.4 0 .8-.1 1-.3.2-.2.4-.5.4-.9 0-.8-.5-1.3-1.4-1.3h-1.5z"/><path class="st18" d="M196 236.8h-.2V248H211v-9.6l-1.6-1.6H196z"/><path class="st19" d="M208.4 239.4h1.9v-.6l-1.3-1.4h-.6z"/><path class="st10" d="M209 238.8h1.3l-1.3-1.4z"/><path class="st18" d="M196 257.7h-.2v11.2H211v-9.6l-1.6-1.6H196z"/><path class="st19" d="M208.4 260.4h1.9v-.7l-1.3-1.3h-.6z"/><path class="st10" d="M209 259.7h1.3l-1.3-1.3z"/><path class="st18" d="M196 300.2h-.2v11.2H211v-9.6l-1.6-1.6H196z"/><path class="st19" d="M208.4 302.9h1.9v-.7l-1.3-1.3h-.6z"/><path class="st10" d="M209 302.2h1.3l-1.3-1.3z"/><path class="st18" d="M196 321.3h-.2v11.2H211v-9.6l-1.6-1.6H196z"/><path class="st19" d="M208.4 323.9h1.9v-.6L209 322h-.6z"/><path class="st10" d="M209 323.3h1.3L209 322z"/><path class="st18" d="M196 278.9h-.2v11.2H211v-9.6l-1.6-1.6H196z"/><path class="st19" d="M208.4 281.5h1.9v-.6l-1.3-1.4h-.6z"/><path class="st10" d="M209 280.9h1.3l-1.3-1.4z"/><path class="st20" d="M330.9 220.3l-2.3-2.3M330.9 220.3l2.3-2.3"/><path class="st21" d="M203.1 193.5l3.6 3.6M203.1 193.5l-3.6 3.6M203.1 194.7v5.1"/><path class="st14" d="M682.6 207.2h7.9v161h-7.9z"/><path class="st22" d="M687.8 211.1v-.6h-.6v-.7h-1.3v.7h-.7v.6h-.7V212.4h.7v-.6h.7v-.7h1.3v.7h.6v.6h.7V211.1zM682.6 215.1h7.9v101.3h-7.9zM687.8 364.3v.6h-.6v.7h-1.3v-.7h-.7v-.6h-.7V363h.7v.6h.7v.7h1.3v-.7h.6v-.6h.7V364.3z"/><g id="XMLID_595_" class="st8"><path class="st15" d="M212.6 133.5h465.8v31.1H212.6z"/><path class="st9" d="M219.9 143.6h-.6v-4.2h-4.9v4.2h-.6v-8.5h.6v3.8h4.9v-3.8h.6v8.5zM224.7 143.7c-.9 0-1.6-.3-2.1-.8s-.8-1.4-.8-2.4.2-1.8.7-2.4c.5-.6 1.2-.9 2-.9.7 0 1.3.3 1.8.8.4.5.6 1.2.6 2.1v.5h-4.5c0 .9.2 1.5.6 2 .4.5 1 .7 1.7.7.4 0 .7 0 .9-.1.3-.1.6-.2 1-.3v.5c-.4.2-.7.3-1 .3h-.9zm-.2-6c-.6 0-1.1.2-1.5.6-.4.4-.6 1-.6 1.7h3.9c0-.7-.2-1.3-.5-1.7-.3-.4-.7-.6-1.3-.6zM231.1 137.2c.3 0 .6 0 .9.1l-.1.5c-.3-.1-.5-.1-.8-.1-.5 0-1 .2-1.3.7-.3.5-.5 1-.5 1.7v3.5h-.6v-6.3h.5l.1 1.1c.3-.5.5-.8.8-1 .2-.1.6-.2 1-.2zM235.8 143.7c-.9 0-1.6-.3-2.1-.8s-.8-1.4-.8-2.4.2-1.8.7-2.4c.5-.6 1.2-.9 2-.9.7 0 1.3.3 1.8.8.4.5.6 1.2.6 2.1v.5h-4.5c0 .9.2 1.5.6 2 .4.5 1 .7 1.7.7.4 0 .7 0 .9-.1.3-.1.6-.2 1-.3v.5c-.4.2-.7.3-1 .3h-.9zm-.2-6c-.6 0-1.1.2-1.5.6-.4.4-.6 1-.6 1.7h3.9c0-.7-.2-1.3-.5-1.7-.3-.4-.7-.6-1.3-.6zM241.8 137.3h.6l1.3 3.5c.4 1.1.7 1.8.8 2.2.2-.5.4-1.2.8-2.2l1.3-3.5h.6l-2.8 7.3c-.2.6-.4 1-.6 1.2-.2.2-.3.4-.5.5-.2.1-.5.2-.7.2-.2 0-.5 0-.7-.1v-.5c.2.1.5.1.7.1.2 0 .4 0 .5-.1.2-.1.3-.2.4-.4.1-.2.3-.5.4-.9.2-.4.3-.7.3-.8l-2.4-6.5zM253.4 140.5c0 1-.2 1.8-.7 2.4s-1.2.9-2.1.9c-.6 0-1-.1-1.5-.4s-.7-.6-1-1.1-.3-1.1-.3-1.7c0-1 .2-1.8.7-2.4s1.2-.9 2-.9c.9 0 1.5.3 2 .9s.9 1.3.9 2.3zm-4.9 0c0 .9.2 1.5.6 2s.9.7 1.6.7c.7 0 1.2-.2 1.6-.7.4-.5.6-1.2.6-2 0-.9-.2-1.5-.6-2-.4-.5-.9-.7-1.6-.7s-1.2.2-1.6.7-.6 1.1-.6 2zM255.7 137.3v4.1c0 .6.1 1.1.4 1.4s.7.4 1.2.4c.7 0 1.3-.2 1.7-.6.4-.4.5-1 .5-1.8v-3.5h.6v6.3h-.5l-.1-.9c-.4.7-1.1 1-2.2 1-1.4 0-2.1-.8-2.1-2.3v-4.1h.5zM267.7 143.7c-.9 0-1.6-.3-2.1-.8s-.8-1.4-.8-2.4.3-1.9.8-2.4c.5-.6 1.3-.9 2.2-.9.5 0 1.1.1 1.6.3l-.2.5c-.5-.2-1-.3-1.4-.3-.8 0-1.4.2-1.8.7-.4.5-.6 1.2-.6 2.1 0 .8.2 1.5.6 2 .4.5 1 .7 1.7.7.6 0 1.1-.1 1.6-.3v.5c-.4.2-.9.3-1.6.3zM274.7 143.6l-.1-1c-.3.4-.6.7-1 .9-.3.2-.7.3-1.2.3-.6 0-1.1-.2-1.4-.5s-.5-.8-.5-1.3c0-.6.3-1.1.8-1.4.5-.3 1.3-.5 2.2-.5h1.2v-.4c0-.6-.1-1-.4-1.4-.2-.3-.6-.5-1.2-.5s-1.2.2-1.8.5l-.2-.5c.7-.3 1.4-.5 2-.5.7 0 1.2.2 1.5.5.3.4.5.9.5 1.7v4.2h-.4zm-2.3-.4c.7 0 1.2-.2 1.6-.6.4-.4.6-.9.6-1.6v-.6h-1.1c-.9 0-1.5.2-1.9.4s-.6.6-.6 1.1c0 .4.1.7.4.9.2.3.5.4 1 .4zM281.5 143.6v-4.1c0-.6-.1-1.1-.4-1.4s-.7-.4-1.2-.4c-.8 0-1.3.2-1.7.6s-.5 1-.5 1.8v3.5h-.6v-6.3h.5l.1.9c.4-.7 1.1-1 2.2-1 1.4 0 2.1.8 2.1 2.3v4.1h-.5zM295 143.6v-4.1c0-.6-.1-1.1-.4-1.3s-.6-.4-1.1-.4c-.6 0-1.1.2-1.4.5-.3.4-.5.9-.5 1.7v3.7h-.6v-4.3c0-1.1-.5-1.6-1.5-1.6-.7 0-1.1.2-1.4.6s-.5 1-.5 1.8v3.5h-.6v-6.3h.5l.1.9c.2-.3.4-.6.7-.7.3-.2.7-.3 1.1-.3 1 0 1.6.4 1.9 1.1.2-.4.5-.6.8-.8s.7-.3 1.2-.3c.7 0 1.2.2 1.5.5.3.4.5.9.5 1.7v4.1h-.3zM301.5 143.6l-.1-1c-.3.4-.6.7-1 .9-.3.2-.7.3-1.2.3-.6 0-1.1-.2-1.4-.5s-.5-.8-.5-1.3c0-.6.3-1.1.8-1.4.5-.3 1.3-.5 2.2-.5h1.2v-.4c0-.6-.1-1-.4-1.4-.2-.3-.6-.5-1.2-.5s-1.2.2-1.8.5l-.2-.5c.7-.3 1.4-.5 2-.5.7 0 1.2.2 1.5.5.3.4.5.9.5 1.7v4.2h-.4zm-2.4-.4c.7 0 1.2-.2 1.6-.6.4-.4.6-.9.6-1.6v-.6h-1.1c-.9 0-1.5.2-1.9.4s-.6.6-.6 1.1c0 .4.1.7.4.9.3.3.6.4 1 .4zM306.6 143.7c-1 0-1.7-.4-2.1-1.1v3.8h-.6v-9.1h.5l.1.9c.4-.7 1.1-1 2.1-1 .8 0 1.5.3 1.9.8.4.6.7 1.4.7 2.4s-.2 1.8-.7 2.4c-.5.6-1.1.9-1.9.9zm0-.5c.6 0 1.1-.2 1.5-.7.4-.5.5-1.1.5-2 0-1.8-.7-2.8-2-2.8-.7 0-1.3.2-1.6.6-.3.4-.5 1.1-.5 2v.2c0 1 .2 1.7.5 2.1.3.4.8.6 1.6.6zM313 137.3h.6l1.3 3.5c.4 1.1.7 1.8.8 2.2.2-.5.4-1.2.8-2.2l1.3-3.5h.6l-2.8 7.3c-.2.6-.4 1-.6 1.2-.2.2-.3.4-.5.5-.2.1-.5.2-.7.2-.2 0-.5 0-.7-.1v-.5c.2.1.5.1.7.1.2 0 .4 0 .5-.1.2-.1.3-.2.4-.4.1-.2.3-.5.4-.9.2-.4.3-.7.3-.8l-2.4-6.5zM324.7 140.5c0 1-.2 1.8-.7 2.4s-1.2.9-2.1.9c-.6 0-1-.1-1.5-.4s-.7-.6-1-1.1-.3-1.1-.3-1.7c0-1 .2-1.8.7-2.4s1.2-.9 2-.9c.9 0 1.5.3 2 .9s.9 1.3.9 2.3zm-5 0c0 .9.2 1.5.6 2s.9.7 1.6.7c.7 0 1.2-.2 1.6-.7.4-.5.6-1.2.6-2 0-.9-.2-1.5-.6-2-.4-.5-.9-.7-1.6-.7s-1.2.2-1.6.7-.6 1.1-.6 2zM326.9 137.3v4.1c0 .6.1 1.1.4 1.4s.7.4 1.2.4c.7 0 1.3-.2 1.7-.6.4-.4.5-1 .5-1.8v-3.5h.6v6.3h-.5l-.1-.9c-.4.7-1.1 1-2.2 1-1.4 0-2.1-.8-2.1-2.3v-4.1h.5zM335.9 137.2c.3 0 .6 0 .9.1l-.1.5c-.3-.1-.5-.1-.8-.1-.5 0-1 .2-1.3.7-.3.5-.5 1-.5 1.7v3.5h-.6v-6.3h.5l.1 1.1c.3-.5.5-.8.8-1 .2-.1.5-.2 1-.2zM345 142c0 .6-.2 1-.6 1.3s-1 .5-1.8.5-1.5-.1-2-.4v-.6c.6.3 1.3.5 2 .5.6 0 1.1-.1 1.4-.3.3-.2.5-.5.5-.8 0-.3-.1-.6-.4-.8-.3-.2-.7-.4-1.3-.6-.6-.2-1.1-.4-1.3-.6-.3-.2-.4-.3-.6-.6-.1-.2-.2-.5-.2-.8 0-.5.2-.8.6-1.1.4-.3.9-.4 1.7-.4.7 0 1.3.1 1.9.4l-.2.5c-.6-.3-1.2-.4-1.7-.4s-.9.1-1.2.3c-.3.2-.5.4-.5.7 0 .3.1.6.3.8.2.2.7.4 1.4.7.6.2 1 .4 1.2.6.3.2.5.3.6.6s.2.2.2.5zM349.1 143.7c-.9 0-1.6-.3-2.1-.8s-.8-1.4-.8-2.4.2-1.8.7-2.4c.5-.6 1.2-.9 2-.9.7 0 1.3.3 1.8.8.4.5.6 1.2.6 2.1v.5h-4.5c0 .9.2 1.5.6 2 .4.5 1 .7 1.7.7.4 0 .7 0 .9-.1.3-.1.6-.2 1-.3v.5c-.4.2-.7.3-1 .3h-.9zm-.1-6c-.6 0-1.1.2-1.5.6-.4.4-.6 1-.6 1.7h3.9c0-.7-.2-1.3-.5-1.7-.3-.4-.8-.6-1.3-.6zM355.6 137.2c.3 0 .6 0 .9.1l-.1.5c-.3-.1-.5-.1-.8-.1-.5 0-1 .2-1.3.7-.3.5-.5 1-.5 1.7v3.5h-.6v-6.3h.5l.1 1.1c.3-.5.5-.8.8-1 .2-.1.5-.2 1-.2zM359.1 143.6l-2.4-6.3h.6l1.6 4.3c.2.5.4 1 .5 1.4.2-.5.3-1 .5-1.4l1.6-4.3h.6l-2.4 6.3h-.6zM363 135.6c0-.4.1-.6.4-.6.1 0 .2 0 .3.1.1.1.1.2.1.4s0 .3-.1.4c-.1.1-.2.2-.3.2-.2 0-.4-.1-.4-.5zm.7 8h-.6v-6.3h.6v6.3zM368.3 143.7c-.9 0-1.6-.3-2.1-.8s-.8-1.4-.8-2.4.3-1.9.8-2.4c.5-.6 1.3-.9 2.2-.9.5 0 1.1.1 1.6.3l-.2.5c-.5-.2-1-.3-1.4-.3-.8 0-1.4.2-1.8.7-.4.5-.6 1.2-.6 2.1 0 .8.2 1.5.6 2 .4.5 1 .7 1.7.7.6 0 1.1-.1 1.6-.3v.5c-.4.2-.9.3-1.6.3zM374 143.7c-.9 0-1.6-.3-2.1-.8s-.8-1.4-.8-2.4.2-1.8.7-2.4c.5-.6 1.2-.9 2-.9.7 0 1.3.3 1.8.8.4.5.6 1.2.6 2.1v.5h-4.5c0 .9.2 1.5.6 2 .4.5 1 .7 1.7.7.4 0 .7 0 .9-.1.3-.1.6-.2 1-.3v.5c-.4.2-.7.3-1 .3h-.9zm-.2-6c-.6 0-1.1.2-1.5.6-.4.4-.6 1-.6 1.7h3.9c0-.7-.2-1.3-.5-1.7-.3-.4-.7-.6-1.3-.6zM380.2 138.1l-.1-.1c.1-.4.3-.9.5-1.5.2-.5.4-1 .5-1.3h.4c-.1.4-.2.9-.4 1.5-.1.6-.2 1.1-.3 1.4h-.6zM387.7 143.6l-1.4-4.2c-.1-.3-.2-.7-.3-1.3l-.1.4-.3.8-1.4 4.2h-.6l-1.8-6.3h.6l1 3.6c.2.9.4 1.6.5 2 .2-.9.4-1.5.5-1.8l1.3-3.8h.5l1.2 3.8c.3.9.4 1.5.5 1.8 0-.3.2-.9.5-2l1-3.6h.6l-1.7 6.3h-.6zM396.3 143.6l-1.4-4.2c-.1-.3-.2-.7-.3-1.3l-.1.4-.3.8-1.4 4.2h-.6l-1.8-6.3h.6l1 3.6c.2.9.4 1.6.5 2 .2-.9.4-1.5.5-1.8l1.3-3.8h.5l1.2 3.8c.3.9.4 1.5.5 1.8 0-.3.2-.9.5-2l1-3.6h.6l-1.7 6.3h-.6zM404.9 143.6l-1.4-4.2c-.1-.3-.2-.7-.3-1.3l-.1.4-.3.8-1.4 4.2h-.6l-1.8-6.3h.6l1 3.6c.2.9.4 1.6.5 2 .2-.9.4-1.5.5-1.8l1.3-3.8h.5l1.2 3.8c.3.9.4 1.5.5 1.8 0-.3.2-.9.5-2l1-3.6h.6l-1.7 6.3h-.6zM408.8 135.2l.1.1c-.3 1-.6 1.9-1 2.8h-.4c.1-.4.2-.8.4-1.4.1-.6.2-1.1.3-1.5h.6zM414.9 143.2c.4 0 .7 0 .9-.1v.5c-.3.1-.6.1-1 .1-.6 0-1-.1-1.2-.4-.3-.3-.4-.8-.4-1.4v-4.1h-.9v-.3l.9-.3.3-1.4h.3v1.5h1.8v.5h-1.8v4c0 .5.1.8.3 1.1.1.2.4.3.8.3zM422.4 140.5c0 1-.2 1.8-.7 2.4s-1.2.9-2.1.9c-.6 0-1-.1-1.5-.4s-.7-.6-1-1.1-.3-1.1-.3-1.7c0-1 .2-1.8.7-2.4s1.2-.9 2-.9c.9 0 1.5.3 2 .9s.9 1.3.9 2.3zm-5 0c0 .9.2 1.5.6 2s.9.7 1.6.7c.7 0 1.2-.2 1.6-.7.4-.5.6-1.2.6-2 0-.9-.2-1.5-.6-2-.4-.5-.9-.7-1.6-.7s-1.2.2-1.6.7-.6 1.1-.6 2zM426.1 137.3h.6l1.3 3.5c.4 1.1.7 1.8.8 2.2.2-.5.4-1.2.8-2.2l1.3-3.5h.6l-2.8 7.3c-.2.6-.4 1-.6 1.2-.2.2-.3.4-.5.5-.2.1-.5.2-.7.2-.2 0-.5 0-.7-.1v-.5c.2.1.5.1.7.1.2 0 .4 0 .5-.1.2-.1.3-.2.4-.4.1-.2.3-.5.4-.9.2-.4.3-.7.3-.8l-2.4-6.5zM437.8 140.5c0 1-.2 1.8-.7 2.4s-1.2.9-2.1.9c-.6 0-1-.1-1.5-.4s-.7-.6-1-1.1-.3-1.1-.3-1.7c0-1 .2-1.8.7-2.4s1.2-.9 2-.9c.9 0 1.5.3 2 .9s.9 1.3.9 2.3zm-5 0c0 .9.2 1.5.6 2s.9.7 1.6.7c.7 0 1.2-.2 1.6-.7.4-.5.6-1.2.6-2 0-.9-.2-1.5-.6-2-.4-.5-.9-.7-1.6-.7s-1.2.2-1.6.7-.6 1.1-.6 2zM440 137.3v4.1c0 .6.1 1.1.4 1.4s.7.4 1.2.4c.7 0 1.3-.2 1.7-.6.4-.4.5-1 .5-1.8v-3.5h.6v6.3h-.5l-.1-.9c-.4.7-1.1 1-2.2 1-1.4 0-2.1-.8-2.1-2.3v-4.1h.5zM449 137.2c.3 0 .6 0 .9.1l-.1.5c-.3-.1-.5-.1-.8-.1-.5 0-1 .2-1.3.7-.3.5-.5 1-.5 1.7v3.5h-.6v-6.3h.5l.1 1.1c.3-.5.5-.8.8-1 .2-.1.6-.2 1-.2zM456.9 143.7c-1 0-1.7-.4-2.1-1.1v3.8h-.6v-9.1h.5l.1.9c.4-.7 1.1-1 2.1-1 .8 0 1.5.3 1.9.8.4.6.7 1.4.7 2.4s-.2 1.8-.7 2.4c-.5.6-1.1.9-1.9.9zm0-.5c.6 0 1.1-.2 1.5-.7.4-.5.5-1.1.5-2 0-1.8-.7-2.8-2-2.8-.7 0-1.3.2-1.6.6-.3.4-.5 1.1-.5 2v.2c0 1 .2 1.7.5 2.1.3.4.8.6 1.6.6zM461.8 137.3v4.1c0 .6.1 1.1.4 1.4s.7.4 1.2.4c.7 0 1.3-.2 1.7-.6.4-.4.5-1 .5-1.8v-3.5h.6v6.3h-.5l-.1-.9c-.4.7-1.1 1-2.2 1-1.4 0-2.1-.8-2.1-2.3v-4.1h.5zM470.9 137.2c.9 0 1.5.3 2 .8.4.6.7 1.4.7 2.4s-.2 1.8-.7 2.4c-.5.6-1.1.8-2 .8-.4 0-.8-.1-1.2-.3-.4-.2-.6-.4-.9-.8h-.1l-.2.9h-.4v-9h.6V138.1c.2-.4.5-.7.9-.8.4 0 .8-.1 1.3-.1zm0 .5c-.7 0-1.3.2-1.6.6-.3.4-.5 1.1-.5 2.1v.1c0 .9.2 1.6.5 2 .3.4.9.6 1.6.6.7 0 1.2-.2 1.5-.7.3-.5.5-1.2.5-2 0-1.8-.6-2.7-2-2.7zM475.9 143.6h-.6v-9h.6v9zM477.9 135.6c0-.4.1-.6.4-.6.1 0 .2 0 .3.1.1.1.1.2.1.4s0 .3-.1.4c-.1.1-.2.2-.3.2-.3 0-.4-.1-.4-.5zm.6 8h-.5v-6.3h.6v6.3zM483.1 143.7c-.9 0-1.6-.3-2.1-.8s-.8-1.4-.8-2.4.3-1.9.8-2.4c.5-.6 1.3-.9 2.2-.9.5 0 1.1.1 1.6.3l-.2.5c-.5-.2-1-.3-1.4-.3-.8 0-1.4.2-1.8.7-.4.5-.6 1.2-.6 2.1 0 .8.2 1.5.6 2 .4.5 1 .7 1.7.7.6 0 1.1-.1 1.6-.3v.5c-.4.2-.9.3-1.6.3zM491.7 137.8h-1.5v5.8h-.6v-5.8h-1.2v-.3l1.2-.2v-.5c0-.8.1-1.3.4-1.7.3-.4.7-.5 1.4-.5.3 0 .7.1 1 .2l-.1.5c-.3-.1-.6-.1-.9-.1-.4 0-.8.1-1 .4-.2.3-.3.7-.3 1.3v.6h1.5v.3zM498.1 140.5c0 1-.2 1.8-.7 2.4s-1.2.9-2.1.9c-.6 0-1-.1-1.5-.4s-.7-.6-1-1.1-.3-1.1-.3-1.7c0-1 .2-1.8.7-2.4s1.2-.9 2-.9c.9 0 1.5.3 2 .9s.9 1.3.9 2.3zm-5 0c0 .9.2 1.5.6 2s.9.7 1.6.7c.7 0 1.2-.2 1.6-.7.4-.5.6-1.2.6-2 0-.9-.2-1.5-.6-2-.4-.5-.9-.7-1.6-.7s-1.2.2-1.6.7-.6 1.1-.6 2zM500.4 143.6h-.6v-9h.6v9zM504.8 137.2c.5 0 .8.1 1.2.2.3.2.6.4.9.8V134.5h.6v9h-.4l-.1-1c-.5.7-1.2 1.1-2.1 1.1-.9 0-1.5-.3-2-.8s-.7-1.3-.7-2.4c0-1.1.2-1.9.7-2.5s1-.7 1.9-.7zm0 .5c-.7 0-1.2.2-1.5.7s-.5 1.2-.5 2.1c0 1.8.7 2.7 2.1 2.7.7 0 1.2-.2 1.6-.6.3-.4.5-1.1.5-2v-.1c0-1-.2-1.7-.5-2.1-.4-.5-1-.7-1.7-.7zM512.1 143.7c-.9 0-1.6-.3-2.1-.8s-.8-1.4-.8-2.4.2-1.8.7-2.4c.5-.6 1.2-.9 2-.9.7 0 1.3.3 1.8.8.4.5.6 1.2.6 2.1v.5h-4.5c0 .9.2 1.5.6 2 .4.5 1 .7 1.7.7.4 0 .7 0 .9-.1.3-.1.6-.2 1-.3v.5c-.4.2-.7.3-1 .3h-.9zm-.2-6c-.6 0-1.1.2-1.5.6-.4.4-.6 1-.6 1.7h3.9c0-.7-.2-1.3-.5-1.7-.3-.4-.7-.6-1.3-.6zM518.5 137.2c.3 0 .6 0 .9.1l-.1.5c-.3-.1-.5-.1-.8-.1-.5 0-1 .2-1.3.7-.3.5-.5 1-.5 1.7v3.5h-.7v-6.3h.5l.1 1.1c.3-.5.5-.8.8-1 .3-.1.7-.2 1.1-.2zM520.5 143.2c0-.4.2-.6.5-.6s.5.2.5.6c0 .4-.2.6-.5.6-.3-.1-.5-.3-.5-.6zM528.9 143.6h-.6v-7.9h-2.7v-.6h6.1v.6H529v7.9zM537.9 140.5c0 1-.2 1.8-.7 2.4s-1.2.9-2.1.9c-.6 0-1-.1-1.5-.4s-.7-.6-1-1.1-.3-1.1-.3-1.7c0-1 .2-1.8.7-2.4s1.2-.9 2-.9c.9 0 1.5.3 2 .9s.9 1.3.9 2.3zm-4.9 0c0 .9.2 1.5.6 2s.9.7 1.6.7c.7 0 1.2-.2 1.6-.7.4-.5.6-1.2.6-2 0-.9-.2-1.5-.6-2-.4-.5-.9-.7-1.6-.7s-1.2.2-1.6.7-.6 1.1-.6 2zM545.3 143.7c-.9 0-1.6-.3-2.1-.8s-.8-1.4-.8-2.4.3-1.9.8-2.4c.5-.6 1.3-.9 2.2-.9.5 0 1.1.1 1.6.3l-.2.5c-.5-.2-1-.3-1.4-.3-.8 0-1.4.2-1.8.7-.4.5-.6 1.2-.6 2.1 0 .8.2 1.5.6 2 .4.5 1 .7 1.7.7.6 0 1.1-.1 1.6-.3v.5c-.5.2-1 .3-1.6.3zM550.9 137.2c.3 0 .6 0 .9.1l-.1.5c-.3-.1-.5-.1-.8-.1-.5 0-1 .2-1.3.7-.3.5-.5 1-.5 1.7v3.5h-.6v-6.3h.5l.1 1.1c.3-.5.5-.8.8-1 .2-.1.5-.2 1-.2zM555.5 143.7c-.9 0-1.6-.3-2.1-.8s-.8-1.4-.8-2.4.2-1.8.7-2.4c.5-.6 1.2-.9 2-.9.7 0 1.3.3 1.8.8.4.5.6 1.2.6 2.1v.5h-4.5c0 .9.2 1.5.6 2 .4.5 1 .7 1.7.7.4 0 .7 0 .9-.1.3-.1.6-.2 1-.3v.5c-.4.2-.7.3-1 .3h-.9zm-.1-6c-.6 0-1.1.2-1.5.6-.4.4-.6 1-.6 1.7h3.9c0-.7-.2-1.3-.5-1.7-.3-.4-.8-.6-1.3-.6zM563.3 143.6l-.1-1c-.3.4-.6.7-1 .9-.3.2-.7.3-1.2.3-.6 0-1.1-.2-1.4-.5s-.5-.8-.5-1.3c0-.6.3-1.1.8-1.4.5-.3 1.3-.5 2.2-.5h1.2v-.4c0-.6-.1-1-.4-1.4-.2-.3-.6-.5-1.2-.5s-1.2.2-1.8.5l-.2-.5c.7-.3 1.4-.5 2-.5.7 0 1.2.2 1.5.5.3.4.5.9.5 1.7v4.2h-.4zm-2.3-.4c.7 0 1.2-.2 1.6-.6.4-.4.6-.9.6-1.6v-.6h-1.1c-.9 0-1.5.2-1.9.4s-.6.6-.6 1.1c0 .4.1.7.4.9.2.3.6.4 1 .4zM567.4 143.2c.4 0 .7 0 .9-.1v.5c-.3.1-.6.1-1 .1-.6 0-1-.1-1.2-.4-.3-.3-.4-.8-.4-1.4v-4.1h-.9v-.3l.9-.3.3-1.4h.3v1.5h1.8v.5h-1.8v4c0 .5.1.8.3 1.1.2.2.5.3.8.3zM572.3 143.7c-.9 0-1.6-.3-2.1-.8s-.8-1.4-.8-2.4.2-1.8.7-2.4c.5-.6 1.2-.9 2-.9.7 0 1.3.3 1.8.8.4.5.6 1.2.6 2.1v.5H570c0 .9.2 1.5.6 2 .4.5 1 .7 1.7.7.4 0 .7 0 .9-.1.3-.1.6-.2 1-.3v.5c-.4.2-.7.3-1 .3h-.9zm-.2-6c-.6 0-1.1.2-1.5.6-.4.4-.6 1-.6 1.7h3.9c0-.7-.2-1.3-.5-1.7-.3-.4-.7-.6-1.3-.6zM583.1 143.6l-.1-1c-.3.4-.6.7-1 .9-.3.2-.7.3-1.2.3-.6 0-1.1-.2-1.4-.5s-.5-.8-.5-1.3c0-.6.3-1.1.8-1.4.5-.3 1.3-.5 2.2-.5h1.2v-.4c0-.6-.1-1-.4-1.4-.2-.3-.6-.5-1.2-.5s-1.2.2-1.8.5l-.2-.5c.7-.3 1.4-.5 2-.5.7 0 1.2.2 1.5.5.3.4.5.9.5 1.7v4.2h-.4zm-2.3-.4c.7 0 1.2-.2 1.6-.6.4-.4.6-.9.6-1.6v-.6h-1.1c-.9 0-1.5.2-1.9.4s-.6.6-.6 1.1c0 .4.1.7.4.9.2.3.6.4 1 .4zM590 143.6v-4.1c0-.6-.1-1.1-.4-1.4s-.7-.4-1.2-.4c-.8 0-1.3.2-1.7.6s-.5 1-.5 1.8v3.5h-.6v-6.3h.5l.1.9c.4-.7 1.1-1 2.2-1 1.4 0 2.1.8 2.1 2.3v4.1h-.5zM594.9 137.2c.5 0 .8.1 1.2.2.3.2.6.4.9.8V134.5h.6v9h-.4l-.1-1c-.5.7-1.2 1.1-2.1 1.1-.9 0-1.5-.3-2-.8s-.7-1.3-.7-2.4c0-1.1.2-1.9.7-2.5s1-.7 1.9-.7zm0 .5c-.7 0-1.2.2-1.5.7s-.5 1.2-.5 2.1c0 1.8.7 2.7 2.1 2.7.7 0 1.2-.2 1.6-.6.3-.4.5-1.1.5-2v-.1c0-1-.2-1.7-.5-2.1-.5-.5-1-.7-1.7-.7zM610.5 143.6v-4.1c0-.6-.1-1.1-.4-1.3s-.6-.4-1.1-.4c-.6 0-1.1.2-1.4.5-.3.4-.5.9-.5 1.7v3.7h-.6v-4.3c0-1.1-.5-1.6-1.5-1.6-.7 0-1.1.2-1.4.6s-.5 1-.5 1.8v3.5h-.6v-6.3h.5l.1.9c.2-.3.4-.6.7-.7.3-.2.7-.3 1.1-.3 1 0 1.6.4 1.9 1.1.2-.4.5-.6.8-.8s.7-.3 1.2-.3c.7 0 1.2.2 1.5.5.3.4.5.9.5 1.7v4.1h-.3zM616.9 143.6l-.1-1c-.3.4-.6.7-1 .9-.3.2-.7.3-1.2.3-.6 0-1.1-.2-1.4-.5s-.5-.8-.5-1.3c0-.6.3-1.1.8-1.4.5-.3 1.3-.5 2.2-.5h1.2v-.4c0-.6-.1-1-.4-1.4-.2-.3-.6-.5-1.2-.5s-1.2.2-1.8.5l-.2-.5c.7-.3 1.4-.5 2-.5.7 0 1.2.2 1.5.5.3.4.5.9.5 1.7v4.2h-.4zm-2.3-.4c.7 0 1.2-.2 1.6-.6.4-.4.6-.9.6-1.6v-.6h-1.1c-.9 0-1.5.2-1.9.4s-.6.6-.6 1.1c0 .4.1.7.4.9.3.3.6.4 1 .4zM623.8 143.6v-4.1c0-.6-.1-1.1-.4-1.4s-.7-.4-1.2-.4c-.8 0-1.3.2-1.7.6s-.5 1-.5 1.8v3.5h-.6v-6.3h.5l.1.9c.4-.7 1.1-1 2.2-1 1.4 0 2.1.8 2.1 2.3v4.1h-.5zM630.2 143.6l-.1-1c-.3.4-.6.7-1 .9-.3.2-.7.3-1.2.3-.6 0-1.1-.2-1.4-.5s-.5-.8-.5-1.3c0-.6.3-1.1.8-1.4.5-.3 1.3-.5 2.2-.5h1.2v-.4c0-.6-.1-1-.4-1.4-.2-.3-.6-.5-1.2-.5s-1.2.2-1.8.5l-.2-.5c.7-.3 1.4-.5 2-.5.7 0 1.2.2 1.5.5.3.4.5.9.5 1.7v4.2h-.4zm-2.3-.4c.7 0 1.2-.2 1.6-.6.4-.4.6-.9.6-1.6v-.6H629c-.9 0-1.5.2-1.9.4s-.6.6-.6 1.1c0 .4.1.7.4.9.2.3.6.4 1 .4zM637.6 137.3v.4l-1.3.1c.3.4.5.9.5 1.4 0 .6-.2 1.1-.6 1.5-.4.4-.9.6-1.6.6h-.6c-.2.1-.4.3-.5.4-.1.2-.2.3-.2.5s.1.3.2.4.4.1.8.1h1.1c.7 0 1.2.1 1.6.4.4.3.5.7.5 1.2 0 .7-.3 1.2-.8 1.5-.5.4-1.3.5-2.3.5-.8 0-1.4-.2-1.8-.5-.4-.3-.7-.7-.7-1.3 0-.4.1-.8.4-1.1.3-.3.6-.5 1.1-.6-.2-.1-.3-.2-.5-.3-.1-.1-.2-.3-.2-.5 0-.4.3-.8.8-1.1-.4-.2-.7-.4-.9-.7-.2-.3-.3-.7-.3-1.1 0-.6.2-1.1.6-1.5.4-.4.9-.6 1.6-.6.4 0 .7 0 1 .1h2.1zm-5.1 7.4c0 .9.6 1.3 1.9 1.3 1.6 0 2.5-.5 2.5-1.6 0-.4-.1-.7-.4-.8-.3-.2-.7-.3-1.3-.3h-1c-1.2 0-1.7.5-1.7 1.4zm.5-5.4c0 .5.1.9.4 1.1.3.3.7.4 1.2.4s.9-.1 1.2-.4c.3-.3.4-.7.4-1.2s-.1-.9-.4-1.2c-.3-.3-.7-.4-1.2-.4s-.9.1-1.2.4-.4.8-.4 1.3zM641.4 143.7c-.9 0-1.6-.3-2.1-.8s-.8-1.4-.8-2.4.2-1.8.7-2.4c.5-.6 1.2-.9 2-.9.7 0 1.3.3 1.8.8.4.5.6 1.2.6 2.1v.5h-4.5c0 .9.2 1.5.6 2 .4.5 1 .7 1.7.7.4 0 .7 0 .9-.1.3-.1.6-.2 1-.3v.5c-.4.2-.7.3-1 .3h-.9zm-.2-6c-.6 0-1.1.2-1.5.6-.4.4-.6 1-.6 1.7h3.9c0-.7-.2-1.3-.5-1.7-.3-.4-.7-.6-1.3-.6zM647.4 137.3h.6l1.3 3.5c.4 1.1.7 1.8.8 2.2.2-.5.4-1.2.8-2.2l1.3-3.5h.6l-2.8 7.3c-.2.6-.4 1-.6 1.2-.2.2-.3.4-.5.5-.2.1-.5.2-.7.2-.2 0-.5 0-.7-.1v-.5c.2.1.5.1.7.1.2 0 .4 0 .5-.1.2-.1.3-.2.4-.4.1-.2.3-.5.4-.9.2-.4.3-.7.3-.8l-2.4-6.5zM659.1 140.5c0 1-.2 1.8-.7 2.4s-1.2.9-2.1.9c-.6 0-1-.1-1.5-.4s-.7-.6-1-1.1-.3-1.1-.3-1.7c0-1 .2-1.8.7-2.4s1.2-.9 2-.9c.9 0 1.5.3 2 .9s.9 1.3.9 2.3zm-5 0c0 .9.2 1.5.6 2s.9.7 1.6.7c.7 0 1.2-.2 1.6-.7.4-.5.6-1.2.6-2 0-.9-.2-1.5-.6-2-.4-.5-.9-.7-1.6-.7s-1.2.2-1.6.7-.6 1.1-.6 2zM661.3 137.3v4.1c0 .6.1 1.1.4 1.4s.7.4 1.2.4c.7 0 1.3-.2 1.7-.6.4-.4.5-1 .5-1.8v-3.5h.6v6.3h-.5l-.1-.9c-.4.7-1.1 1-2.2 1-1.4 0-2.1-.8-2.1-2.3v-4.1h.5zM670.3 137.2c.3 0 .6 0 .9.1l-.1.5c-.3-.1-.5-.1-.8-.1-.5 0-1 .2-1.3.7-.3.5-.5 1-.5 1.7v3.5h-.6v-6.3h.5l.1 1.1c.3-.5.5-.8.8-1 .2-.1.5-.2 1-.2zM215.9 152h-1.5v5.8h-.6V152h-1.2v-.3l1.2-.2v-.5c0-.8.1-1.3.4-1.7.3-.4.7-.5 1.4-.5.3 0 .7.1 1 .2l-.1.5c-.3-.1-.6-.1-.9-.1-.4 0-.8.1-1 .4-.2.3-.3.7-.3 1.3v.6h1.5v.3zm1.2-2.2c0-.4.1-.6.4-.6.1 0 .2 0 .3.1.1.1.1.2.1.4s0 .3-.1.4-.2.2-.3.2c-.3.1-.4-.1-.4-.5zm.6 8h-.6v-6.3h.6v6.3zM220.4 157.8h-.6v-9h.6v9zM225 157.9c-.9 0-1.6-.3-2.1-.8s-.8-1.4-.8-2.4.2-1.8.7-2.4c.5-.6 1.2-.9 2-.9.7 0 1.3.3 1.8.8.4.5.6 1.2.6 2.1v.5h-4.5c0 .9.2 1.5.6 2 .4.5 1 .7 1.7.7.4 0 .7 0 .9-.1.3-.1.6-.2 1-.3v.5c-.4.2-.7.3-1 .3h-.9zm-.1-6c-.6 0-1.1.2-1.5.6-.4.4-.6 1-.6 1.7h3.9c0-.7-.2-1.3-.5-1.7-.3-.4-.8-.6-1.3-.6zM232.9 156.2c0 .6-.2 1-.6 1.3s-1 .5-1.8.5-1.5-.1-2-.4v-.6c.6.3 1.3.5 2 .5.6 0 1.1-.1 1.4-.3.3-.2.5-.5.5-.8 0-.3-.1-.6-.4-.8-.3-.2-.7-.4-1.3-.6-.6-.2-1.1-.4-1.3-.6-.3-.2-.4-.3-.6-.6-.1-.2-.2-.5-.2-.8 0-.5.2-.8.6-1.1.4-.3.9-.4 1.7-.4.7 0 1.3.1 1.9.4l-.2.5c-.6-.3-1.2-.4-1.7-.4s-.9.1-1.2.3c-.3.2-.5.4-.5.7 0 .3.1.6.3.8.2.2.7.4 1.4.7.6.2 1 .4 1.2.6.3.2.5.3.6.6s.2.2.2.5zM241.4 157.8l-.1-1c-.3.4-.6.7-1 .9-.3.2-.7.3-1.2.3-.6 0-1.1-.2-1.4-.5s-.5-.8-.5-1.3c0-.6.3-1.1.8-1.4.5-.3 1.3-.5 2.2-.5h1.2v-.4c0-.6-.1-1-.4-1.4-.2-.3-.6-.5-1.2-.5s-1.2.2-1.8.5l-.2-.5c.7-.3 1.4-.5 2-.5.7 0 1.2.2 1.5.5.3.4.5.9.5 1.7v4.2h-.4zm-2.3-.4c.7 0 1.2-.2 1.6-.6.4-.4.6-.9.6-1.6v-.6h-1.1c-.9 0-1.5.2-1.9.4s-.6.6-.6 1.1c0 .4.1.7.4.9.2.3.6.4 1 .4zM248.3 157.8v-4.1c0-.6-.1-1.1-.4-1.4s-.7-.4-1.2-.4c-.8 0-1.3.2-1.7.6s-.5 1-.5 1.8v3.5h-.6v-6.3h.5l.1.9c.4-.7 1.1-1 2.2-1 1.4 0 2.1.8 2.1 2.3v4.1h-.5zM253.2 151.4c.5 0 .8.1 1.2.2.3.2.6.4.9.8V148.7h.6v9h-.4l-.1-1c-.5.7-1.2 1.1-2.1 1.1-.9 0-1.5-.3-2-.8s-.7-1.3-.7-2.4c0-1.1.2-1.9.7-2.5s1-.7 1.9-.7zm0 .5c-.7 0-1.2.2-1.5.7s-.5 1.2-.5 2.1c0 1.8.7 2.7 2.1 2.7.7 0 1.2-.2 1.6-.6.3-.4.5-1.1.5-2v-.1c0-1-.2-1.7-.5-2.1-.5-.4-1-.7-1.7-.7zM263.3 152h-1.5v5.8h-.6V152H260v-.3l1.2-.2v-.5c0-.8.1-1.3.4-1.7.3-.4.7-.5 1.4-.5.3 0 .7.1 1 .2l-.1.5c-.3-.1-.6-.1-.9-.1-.4 0-.8.1-1 .4-.2.3-.3.7-.3 1.3v.6h1.5v.3zM269.7 154.7c0 1-.2 1.8-.7 2.4s-1.2.9-2.1.9c-.6 0-1-.1-1.5-.4s-.7-.6-1-1.1-.3-1.1-.3-1.7c0-1 .2-1.8.7-2.4s1.2-.9 2-.9c.9 0 1.5.3 2 .9s.9 1.3.9 2.3zm-4.9 0c0 .9.2 1.5.6 2s.9.7 1.6.7c.7 0 1.2-.2 1.6-.7.4-.5.6-1.2.6-2 0-.9-.2-1.5-.6-2-.4-.5-.9-.7-1.6-.7s-1.2.2-1.6.7-.6 1.1-.6 2zM272 157.8h-.6v-9h.6v9zM276.4 151.4c.5 0 .8.1 1.2.2.3.2.6.4.9.8V148.7h.6v9h-.4l-.1-1c-.5.7-1.2 1.1-2.1 1.1-.9 0-1.5-.3-2-.8s-.7-1.3-.7-2.4c0-1.1.2-1.9.7-2.5s1.1-.7 1.9-.7zm0 .5c-.7 0-1.2.2-1.5.7s-.5 1.2-.5 2.1c0 1.8.7 2.7 2.1 2.7.7 0 1.2-.2 1.6-.6.3-.4.5-1.1.5-2v-.1c0-1-.2-1.7-.5-2.1-.4-.4-.9-.7-1.7-.7zM283.7 157.9c-.9 0-1.6-.3-2.1-.8s-.8-1.4-.8-2.4.2-1.8.7-2.4c.5-.6 1.2-.9 2-.9.7 0 1.3.3 1.8.8.4.5.6 1.2.6 2.1v.5h-4.5c0 .9.2 1.5.6 2 .4.5 1 .7 1.7.7.4 0 .7 0 .9-.1.3-.1.6-.2 1-.3v.5c-.4.2-.7.3-1 .3h-.9zm-.1-6c-.6 0-1.1.2-1.5.6-.4.4-.6 1-.6 1.7h3.9c0-.7-.2-1.3-.5-1.7-.3-.4-.8-.6-1.3-.6zM290.2 151.4c.3 0 .6 0 .9.1l-.1.5c-.3-.1-.5-.1-.8-.1-.5 0-1 .2-1.3.7-.3.5-.5 1-.5 1.7v3.5h-.6v-6.3h.5l.1 1.1c.3-.5.5-.8.8-1 .2-.1.5-.2 1-.2zM296.2 156.2c0 .6-.2 1-.6 1.3s-1 .5-1.8.5-1.5-.1-2-.4v-.6c.6.3 1.3.5 2 .5.6 0 1.1-.1 1.4-.3.3-.2.5-.5.5-.8 0-.3-.1-.6-.4-.8-.3-.2-.7-.4-1.3-.6-.6-.2-1.1-.4-1.3-.6-.3-.2-.4-.3-.6-.6-.1-.2-.2-.5-.2-.8 0-.5.2-.8.6-1.1.4-.3.9-.4 1.7-.4.7 0 1.3.1 1.9.4l-.2.5c-.6-.3-1.2-.4-1.7-.4s-.9.1-1.2.3c-.3.2-.5.4-.5.7 0 .3.1.6.3.8.2.2.7.4 1.4.7.6.2 1 .4 1.2.6.3.2.5.3.6.6s.2.2.2.5zM298.5 156.4l.1.1c-.3 1-.6 1.9-1 2.8h-.4c.3-1.1.5-2 .6-2.9h.7zM306.1 157.9c-1 0-1.7-.4-2.1-1.1v3.8h-.6v-9.1h.5l.1.9c.4-.7 1.1-1 2.1-1 .8 0 1.5.3 1.9.8.4.6.7 1.4.7 2.4s-.2 1.8-.7 2.4c-.4.7-1.1.9-1.9.9zm0-.5c.6 0 1.1-.2 1.5-.7.4-.5.5-1.1.5-2 0-1.8-.7-2.8-2-2.8-.7 0-1.3.2-1.6.6-.3.4-.5 1.1-.5 2v.2c0 1 .2 1.7.5 2.1.3.4.9.6 1.6.6zM311 157.8h-.6v-9h.6v9zM315.7 157.9c-.9 0-1.6-.3-2.1-.8s-.8-1.4-.8-2.4.2-1.8.7-2.4c.5-.6 1.2-.9 2-.9.7 0 1.3.3 1.8.8.4.5.6 1.2.6 2.1v.5h-4.5c0 .9.2 1.5.6 2 .4.5 1 .7 1.7.7.4 0 .7 0 .9-.1.3-.1.6-.2 1-.3v.5c-.4.2-.7.3-1 .3h-.9zm-.2-6c-.6 0-1.1.2-1.5.6-.4.4-.6 1-.6 1.7h3.9c0-.7-.2-1.3-.5-1.7-.3-.4-.7-.6-1.3-.6zM323.5 157.8l-.1-1c-.3.4-.6.7-1 .9-.3.2-.7.3-1.2.3-.6 0-1.1-.2-1.4-.5s-.5-.8-.5-1.3c0-.6.3-1.1.8-1.4.5-.3 1.3-.5 2.2-.5h1.2v-.4c0-.6-.1-1-.4-1.4-.2-.3-.6-.5-1.2-.5s-1.2.2-1.8.5l-.2-.5c.7-.3 1.4-.5 2-.5.7 0 1.2.2 1.5.5.3.4.5.9.5 1.7v4.2h-.4zm-2.3-.4c.7 0 1.2-.2 1.6-.6.4-.4.6-.9.6-1.6v-.6h-1.1c-.9 0-1.5.2-1.9.4s-.6.6-.6 1.1c0 .4.1.7.4.9.2.3.5.4 1 .4zM329.8 156.2c0 .6-.2 1-.6 1.3s-1 .5-1.8.5-1.5-.1-2-.4v-.6c.6.3 1.3.5 2 .5.6 0 1.1-.1 1.4-.3.3-.2.5-.5.5-.8 0-.3-.1-.6-.4-.8-.3-.2-.7-.4-1.3-.6-.6-.2-1.1-.4-1.3-.6-.3-.2-.4-.3-.6-.6-.1-.2-.2-.5-.2-.8 0-.5.2-.8.6-1.1.4-.3.9-.4 1.7-.4.7 0 1.3.1 1.9.4l-.2.5c-.6-.3-1.2-.4-1.7-.4s-.9.1-1.2.3c-.3.2-.5.4-.5.7 0 .3.1.6.3.8.2.2.7.4 1.4.7.6.2 1 .4 1.2.6.3.2.5.3.6.6s.2.2.2.5zM334 157.9c-.9 0-1.6-.3-2.1-.8s-.8-1.4-.8-2.4.2-1.8.7-2.4c.5-.6 1.2-.9 2-.9.7 0 1.3.3 1.8.8.4.5.6 1.2.6 2.1v.5h-4.5c0 .9.2 1.5.6 2 .4.5 1 .7 1.7.7.4 0 .7 0 .9-.1.3-.1.6-.2 1-.3v.5c-.4.2-.7.3-1 .3h-.9zm-.2-6c-.6 0-1.1.2-1.5.6-.4.4-.6 1-.6 1.7h3.9c0-.7-.2-1.3-.5-1.7-.3-.4-.7-.6-1.3-.6zM341.5 151.5v4.1c0 .6.1 1.1.4 1.4s.7.4 1.2.4c.7 0 1.3-.2 1.7-.6.4-.4.5-1 .5-1.8v-3.5h.6v6.3h-.5l-.1-.9c-.4.7-1.1 1-2.2 1-1.4 0-2.1-.8-2.1-2.3v-4.1h.5zM351.9 156.2c0 .6-.2 1-.6 1.3s-1 .5-1.8.5-1.5-.1-2-.4v-.6c.6.3 1.3.5 2 .5.6 0 1.1-.1 1.4-.3.3-.2.5-.5.5-.8 0-.3-.1-.6-.4-.8-.3-.2-.7-.4-1.3-.6-.6-.2-1.1-.4-1.3-.6-.3-.2-.4-.3-.6-.6-.1-.2-.2-.5-.2-.8 0-.5.2-.8.6-1.1.4-.3.9-.4 1.7-.4.7 0 1.3.1 1.9.4l-.2.5c-.6-.3-1.2-.4-1.7-.4s-.9.1-1.2.3c-.3.2-.5.4-.5.7 0 .3.1.6.3.8.2.2.7.4 1.4.7.6.2 1 .4 1.2.6.3.2.5.3.6.6s.2.2.2.5zM356 157.9c-.9 0-1.6-.3-2.1-.8s-.8-1.4-.8-2.4.2-1.8.7-2.4c.5-.6 1.2-.9 2-.9.7 0 1.3.3 1.8.8.4.5.6 1.2.6 2.1v.5h-4.5c0 .9.2 1.5.6 2 .4.5 1 .7 1.7.7.4 0 .7 0 .9-.1.3-.1.6-.2 1-.3v.5c-.4.2-.7.3-1 .3h-.9zm-.1-6c-.6 0-1.1.2-1.5.6-.4.4-.6 1-.6 1.7h3.9c0-.7-.2-1.3-.5-1.7-.3-.4-.8-.6-1.3-.6zM364.7 157.4c.4 0 .7 0 .9-.1v.5c-.3.1-.6.1-1 .1-.6 0-1-.1-1.2-.4-.3-.3-.4-.8-.4-1.4V152h-.9v-.3l.9-.3.3-1.4h.3v1.5h1.8v.5h-1.8v4c0 .5.1.8.3 1.1.2.2.5.3.8.3zM371.4 157.8v-4.1c0-.6-.1-1.1-.4-1.4s-.7-.4-1.2-.4c-.8 0-1.3.2-1.7.6s-.5 1-.5 1.8v3.5h-.6v-9h.6v3.7c.2-.4.5-.7.9-.8.4-.2.8-.3 1.3-.3 1.4 0 2.1.8 2.1 2.3v4.1h-.5zM376.6 157.9c-.9 0-1.6-.3-2.1-.8s-.8-1.4-.8-2.4.2-1.8.7-2.4c.5-.6 1.2-.9 2-.9.7 0 1.3.3 1.8.8.4.5.6 1.2.6 2.1v.5h-4.5c0 .9.2 1.5.6 2 .4.5 1 .7 1.7.7.4 0 .7 0 .9-.1.3-.1.6-.2 1-.3v.5c-.4.2-.7.3-1 .3h-.9zm-.2-6c-.6 0-1.1.2-1.5.6-.4.4-.6 1-.6 1.7h3.9c0-.7-.2-1.3-.5-1.7-.3-.4-.7-.6-1.3-.6zM387.2 157.8l-2-6.6h-.1c.1 1.3.1 2.2.1 2.7v3.9h-1.6v-8.5h2.4l2 6.5 2.1-6.5h2.4v8.5H391v-4.7c0-.2 0-.9.1-2h-.1l-2.2 6.6h-1.6zM398.7 157.8l-.3-.9c-.3.4-.6.6-.9.8s-.7.2-1.2.2c-.6 0-1.1-.2-1.5-.5s-.5-.9-.5-1.5c0-.7.2-1.2.7-1.5.5-.3 1.2-.5 2.2-.5h1.1v-.3c0-.7-.3-1-1-1-.5 0-1.1.2-1.8.5l-.6-1.2c.7-.4 1.6-.6 2.5-.6.9 0 1.5.2 2 .6.5.4.7 1 .7 1.7v4.3h-1.4zm-.5-3h-.7c-.5 0-.9.1-1.1.3-.3.2-.4.4-.4.8 0 .5.3.7.9.7.4 0 .7-.1 1-.4.2-.2.4-.5.4-.9v-.5zM407.8 157.8H406V154c0-.5-.1-.8-.2-1s-.4-.3-.8-.3c-.5 0-.8.2-1.1.5-.2.3-.3.9-.3 1.6v3h-1.8v-6.5h1.3l.2.8h.1c.2-.3.5-.5.8-.7.3-.2.7-.2 1.2-.2.8 0 1.3.2 1.7.6.4.4.6 1 .6 1.8v4.2zM413.7 157.8l-.3-.9c-.3.4-.6.6-.9.8s-.7.2-1.2.2c-.6 0-1.1-.2-1.5-.5s-.5-.9-.5-1.5c0-.7.2-1.2.7-1.5.5-.3 1.2-.5 2.2-.5h1.1v-.3c0-.7-.3-1-1-1-.5 0-1.1.2-1.8.5l-.6-1.2c.7-.4 1.6-.6 2.5-.6.9 0 1.5.2 2 .6.5.4.7 1 .7 1.7v4.3h-1.4zm-.5-3h-.7c-.5 0-.9.1-1.1.3-.3.2-.4.4-.4.8 0 .5.3.7.9.7.4 0 .7-.1 1-.4.2-.2.4-.5.4-.9v-.5zM422.3 151.4v.9l-1 .3c.2.3.3.6.3 1 0 .7-.2 1.2-.7 1.6-.5.4-1.2.6-2 .6h-.6c-.2.1-.3.3-.3.5 0 .3.3.4 1 .4h1.1c.7 0 1.3.2 1.6.5.4.3.6.8.6 1.3 0 .8-.3 1.3-.9 1.8s-1.5.6-2.7.6c-.9 0-1.6-.2-2.1-.5s-.7-.8-.7-1.3c0-.4.1-.7.4-1 .2-.3.6-.4 1.1-.6-.2-.1-.3-.2-.5-.4s-.2-.4-.2-.6c0-.2.1-.5.2-.6.1-.2.3-.3.6-.5-.3-.1-.6-.4-.8-.7-.2-.3-.3-.7-.3-1.1 0-.7.2-1.3.7-1.6.5-.4 1.1-.6 2-.6h.6c.2 0 .4.1.5.1h2.1zm-4.9 7.3c0 .2.1.4.3.6.2.1.6.2 1 .2.6 0 1.1-.1 1.5-.3s.5-.4.5-.7c0-.2-.1-.4-.3-.5s-.5-.1-1-.1h-.9c-.3 0-.6.1-.8.2s-.3.4-.3.6zm.6-5.2c0 .4.1.6.2.8s.4.3.7.3c.3 0 .6-.1.7-.3.2-.2.2-.5.2-.8 0-.8-.3-1.2-1-1.2-.5 0-.8.4-.8 1.2zM426.3 157.9c-1 0-1.9-.3-2.4-.9s-.9-1.4-.9-2.4c0-1.1.3-1.9.8-2.5.5-.6 1.3-.9 2.2-.9.9 0 1.6.3 2.1.8s.8 1.2.8 2.2v.9h-4.2c0 .5.2.9.4 1.2.3.3.7.4 1.2.4.4 0 .8 0 1.1-.1s.7-.2 1.1-.4v1.4c-.3.2-.6.3-1 .3h-1.2zm-.2-5.4c-.4 0-.7.1-.9.4-.2.2-.3.6-.4 1h2.5c0-.4-.1-.8-.3-1-.2-.3-.5-.4-.9-.4zM441.1 157.8h-2.3l-3.7-6.4h-.1c.1 1.1.1 1.9.1 2.4v4h-1.6v-8.5h2.3l3.7 6.3c-.1-1.1-.1-1.9-.1-2.3v-4h1.6v8.5zM446 157.9c-1 0-1.9-.3-2.4-.9s-.9-1.4-.9-2.4c0-1.1.3-1.9.8-2.5.5-.6 1.3-.9 2.2-.9.9 0 1.6.3 2.1.8s.8 1.2.8 2.2v.9h-4.2c0 .5.2.9.4 1.2.3.3.7.4 1.2.4.4 0 .8 0 1.1-.1s.7-.2 1.1-.4v1.4c-.3.2-.6.3-1 .3H446zm-.2-5.4c-.4 0-.7.1-.9.4-.2.2-.3.6-.4 1h2.5c0-.4-.1-.8-.3-1-.2-.3-.5-.4-.9-.4zM452.8 156.5c.3 0 .7-.1 1.1-.2v1.3c-.4.2-1 .3-1.6.3-.7 0-1.2-.2-1.5-.5-.3-.4-.5-.9-.5-1.6v-3.1h-.8v-.7l1-.6.5-1.4h1.1v1.4h1.8v1.3h-1.8v3.1c0 .3.1.4.2.6.1.1.3.1.5.1zM460.6 157.8l-.5-2.3-.7-2.9-1.2 5.1h-1.9l-1.8-6.5h1.8l.7 2.9c.1.5.2 1.2.4 2.1 0-.3.1-.8.2-1.4l.1-.5.8-3.1h1.9l.8 3.1c0 .1 0 .2.1.4 0 .2.1.3.1.5s.1.4.1.5v.4c0-.3.1-.7.2-1.1.1-.5.2-.8.2-1l.8-2.9h1.7l-1.9 6.5h-1.9zM471.2 154.6c0 1.1-.3 1.9-.8 2.5s-1.3.9-2.3.9c-.6 0-1.2-.1-1.6-.4s-.8-.7-1.1-1.2c-.3-.5-.4-1.1-.4-1.8 0-1.1.3-1.9.8-2.5.6-.6 1.3-.9 2.3-.9.6 0 1.2.1 1.6.4s.8.7 1.1 1.2c.3.5.4 1.1.4 1.8zm-4.4 0c0 .6.1 1.1.3 1.5s.6.5 1 .5c.5 0 .8-.2 1-.5.2-.3.3-.8.3-1.5 0-.6-.1-1.1-.3-1.4-.2-.3-.5-.5-1-.5s-.8.2-1 .5c-.2.3-.3.7-.3 1.4zM476.3 151.2c.2 0 .4 0 .6.1l-.1 1.7c-.1 0-.3-.1-.5-.1-.6 0-1 .1-1.3.4s-.5.7-.5 1.2v3.3h-1.8v-6.5h1.3l.3 1.1h.1c.2-.4.5-.7.8-.9.3-.1.7-.3 1.1-.3zM479.8 154.3l.8-1 1.8-2h2l-2.6 2.8 2.7 3.7h-2l-1.9-2.6-.8.6v2H478v-9h1.8v5.5zM495.6 153.5c0 1.4-.4 2.5-1.2 3.2-.8.7-1.9 1.1-3.4 1.1h-2.4v-8.5h2.7c1.4 0 2.5.4 3.2 1.1.8.8 1.1 1.8 1.1 3.1zm-1.8.1c0-1.8-.8-2.7-2.4-2.7h-1v5.5h.8c1.7-.1 2.6-1 2.6-2.8zM501.4 157.8l-.3-.9c-.3.4-.6.6-.9.8s-.7.2-1.2.2c-.6 0-1.1-.2-1.5-.5s-.5-.9-.5-1.5c0-.7.2-1.2.7-1.5.5-.3 1.2-.5 2.2-.5h1.1v-.3c0-.7-.3-1-1-1-.5 0-1.1.2-1.8.5l-.6-1.2c.7-.4 1.6-.6 2.5-.6.9 0 1.5.2 2 .6.5.4.7 1 .7 1.7v4.3h-1.4zm-.6-3h-.7c-.5 0-.9.1-1.1.3-.3.2-.4.4-.4.8 0 .5.3.7.9.7.4 0 .7-.1 1-.4.2-.2.4-.5.4-.9v-.5zM507.1 156.5c.3 0 .7-.1 1.1-.2v1.3c-.4.2-1 .3-1.6.3-.7 0-1.2-.2-1.5-.5-.3-.4-.5-.9-.5-1.6v-3.1h-.8v-.7l1-.6.5-1.4h1.1v1.4h1.8v1.3h-1.8v3.1c0 .3.1.4.2.6.1.1.3.1.5.1zM513.7 157.8l-.3-.9c-.3.4-.6.6-.9.8s-.7.2-1.2.2c-.6 0-1.1-.2-1.5-.5s-.5-.9-.5-1.5c0-.7.2-1.2.7-1.5.5-.3 1.2-.5 2.2-.5h1.1v-.3c0-.7-.3-1-1-1-.5 0-1.1.2-1.8.5l-.6-1.2c.7-.4 1.6-.6 2.5-.6.9 0 1.5.2 2 .6.5.4.7 1 .7 1.7v4.3h-1.4zm-.6-3h-.7c-.5 0-.9.1-1.1.3-.3.2-.4.4-.4.8 0 .5.3.7.9.7.4 0 .7-.1 1-.4.2-.2.4-.5.4-.9v-.5zM523.8 156.2c0 .6-.2 1-.6 1.3s-1 .5-1.8.5-1.5-.1-2-.4v-.6c.6.3 1.3.5 2 .5.6 0 1.1-.1 1.4-.3.3-.2.5-.5.5-.8 0-.3-.1-.6-.4-.8-.3-.2-.7-.4-1.3-.6-.6-.2-1.1-.4-1.3-.6-.3-.2-.4-.3-.6-.6-.1-.2-.2-.5-.2-.8 0-.5.2-.8.6-1.1.4-.3.9-.4 1.7-.4.7 0 1.3.1 1.9.4l-.2.5c-.6-.3-1.2-.4-1.7-.4s-.9.1-1.2.3c-.3.2-.5.4-.5.7 0 .3.1.6.3.8.2.2.7.4 1.4.7.6.2 1 .4 1.2.6.3.2.5.3.6.6s.2.2.2.5zM528 157.9c-.9 0-1.6-.3-2.1-.8s-.8-1.4-.8-2.4.2-1.8.7-2.4c.5-.6 1.2-.9 2-.9.7 0 1.3.3 1.8.8.4.5.6 1.2.6 2.1v.5h-4.5c0 .9.2 1.5.6 2 .4.5 1 .7 1.7.7.4 0 .7 0 .9-.1.3-.1.6-.2 1-.3v.5c-.4.2-.7.3-1 .3h-.9zm-.2-6c-.6 0-1.1.2-1.5.6-.4.4-.6 1-.6 1.7h3.9c0-.7-.2-1.3-.5-1.7-.3-.4-.8-.6-1.3-.6zM534.4 157.9c-.9 0-1.6-.3-2.1-.8s-.8-1.4-.8-2.4.3-1.9.8-2.4c.5-.6 1.3-.9 2.2-.9.5 0 1.1.1 1.6.3l-.2.5c-.5-.2-1-.3-1.4-.3-.8 0-1.4.2-1.8.7-.4.5-.6 1.2-.6 2.1 0 .8.2 1.5.6 2 .4.5 1 .7 1.7.7.6 0 1.1-.1 1.6-.3v.5c-.4.2-.9.3-1.6.3zM539.2 157.4c.4 0 .7 0 .9-.1v.5c-.3.1-.6.1-1 .1-.6 0-1-.1-1.2-.4-.3-.3-.4-.8-.4-1.4V152h-.9v-.3l.9-.3.3-1.4h.3v1.5h1.8v.5h-1.8v4c0 .5.1.8.3 1.1.2.2.4.3.8.3zM541.4 149.8c0-.4.1-.6.4-.6.1 0 .2 0 .3.1.1.1.1.2.1.4s0 .3-.1.4c-.1.1-.2.2-.3.2-.3.1-.4-.1-.4-.5zm.7 8h-.6v-6.3h.6v6.3zM549.4 154.7c0 1-.2 1.8-.7 2.4s-1.2.9-2.1.9c-.6 0-1-.1-1.5-.4s-.7-.6-1-1.1-.3-1.1-.3-1.7c0-1 .2-1.8.7-2.4s1.2-.9 2-.9c.9 0 1.5.3 2 .9s.9 1.3.9 2.3zm-5 0c0 .9.2 1.5.6 2s.9.7 1.6.7c.7 0 1.2-.2 1.6-.7.4-.5.6-1.2.6-2 0-.9-.2-1.5-.6-2-.4-.5-.9-.7-1.6-.7s-1.2.2-1.6.7-.6 1.1-.6 2zM555.5 157.8v-4.1c0-.6-.1-1.1-.4-1.4s-.7-.4-1.2-.4c-.8 0-1.3.2-1.7.6s-.5 1-.5 1.8v3.5h-.6v-6.3h.5l.1.9c.4-.7 1.1-1 2.2-1 1.4 0 2.1.8 2.1 2.3v4.1h-.5zM558 157.4c0-.4.2-.6.5-.6s.5.2.5.6c0 .4-.2.6-.5.6-.4-.1-.5-.2-.5-.6zM382.6 159v-.6h133.2v.6H382.6z"/></g><path class="st13" d="M539.2 186h30.3v21h-30.3z"/><path class="st10" d="M549.7 200.5v1.3h9.2v-1.3h-9.2zm3-2.8h3.3l.6 1.4h1.4l-3.1-7.2h-1l-3.1 7.2h1.4l.5-1.4zm1.6-4.4l1.2 3.3H553l1.3-3.3z"/><path class="st15" d="M546.4 188.7h15.8v15.8h-15.8v-15.8z"/><path class="st23" d="M569.4 186h30.3v21h-30.3z"/><path class="st15" d="M578.6 190.6h11.8v11.8h-11.8v-11.8z"/><circle class="st15" cx="581.6" cy="199.5" r="1"/><circle class="st15" cx="584.6" cy="196.6" r=".2"/><circle class="st15" cx="581.6" cy="193.6" r="1"/><path class="st10" d="M583.4 194.4c.1-.2.2-.5.2-.8 0-1.1-.9-2-2-2s-2 .9-2 2 .9 2 2 2c.3 0 .6-.1.8-.2l1.2 1.2-1.2 1.2c-.2-.1-.5-.2-.8-.2-1.1 0-2 .9-2 2s.9 2 2 2 2-.9 2-2c0-.3-.1-.6-.2-.8l1.2-1.2 3.5 3.5h1.5v-.5l-6.2-6.2zm-1.8.2c-.5 0-1-.4-1-1s.4-1 1-1c.5 0 1 .4 1 1s-.5 1-1 1zm0 5.9c-.5 0-1-.4-1-1s.4-1 1-1c.5 0 1 .4 1 1s-.5 1-1 1zm3-3.7c-.1 0-.2-.1-.2-.2s.1-.2.2-.2.2.1.2.2-.1.2-.2.2zm3.4-4.7l-3 3 1 1 3.5-3.5v-.5H588z"/><path class="st23" d="M599.7 186H630v21h-30.3z"/><path class="st15" d="M608.9 190.6h11.8v11.8h-11.8v-11.8z"/><path class="st10" d="M617 191.1h-5.9c-.5 0-1 .4-1 1v6.9h1v-6.9h5.9v-1zm1.5 2h-5.4c-.5 0-1 .4-1 1v6.9c0 .5.4 1 1 1h5.4c.5 0 1-.4 1-1v-6.9c0-.5-.4-1-1-1zm0 7.9h-5.4v-6.9h5.4v6.9z"/><path class="st23" d="M629.9 186h30.3v21h-30.3z"/><path class="st10" d="M648.5 191.6h-2.1c-.2-.6-.7-1-1.4-1s-1.2.4-1.4 1h-2.1c-.5 0-1 .4-1 1v7.9c0 .5.4 1 1 1h6.9c.5 0 1-.4 1-1v-7.9c.1-.5-.3-1-.9-1zm-3.4 0c.3 0 .5.2.5.5s-.2.5-.5.5-.5-.2-.5-.5.2-.5.5-.5zm3.4 8.9h-6.9v-7.9h1v1.5h4.9v-1.5h1v7.9z"/><path class="st15" d="M639.2 190.6H651v11.8h-11.8v-11.8z"/><path class="st23" d="M660.2 186h30.3v21h-30.3z"/><path class="st10" d="M672.4 200c0 .5.4 1 1 1h3.9c.5 0 1-.4 1-1v-5.9h-5.9v5.9zm6.4-7.4h-1.7l-.5-.5h-2.5l-.5.5h-1.7v1h6.9v-1z"/><path class="st15" d="M669.4 190.6h11.8v11.8h-11.8v-11.8z"/><path class="st13" d="M508.9 186h30.3v21h-30.3z"/><path class="st10" d="M528.7 197.2h-3.9v3.9h-1.3v-3.9h-3.9v-1.3h3.9V192h1.3v3.9h3.9v1.3z"/><path class="st15" d="M516.2 188.7H532v15.8h-15.8v-15.8z"/><path d="M266 446.5H34v-134c0-2.8 2.3-5.2 5.2-5.2h221.6c2.8 0 5.2 2.3 5.2 5.2v134z"/><path class="st13" d="M43.4 316.6h213.4v120.6H43.4z"/><path class="st24" d="M260.9 467.1H39.2c-2.8 0-5.2-2.3-5.2-5.2v-15.5h232V462c0 2.8-2.3 5.1-5.1 5.1zM171.2 490.8h-42.3l2.1-23.7h38.1zM114.5 490.8h71.1v6.2h-71.1z"/><circle cx="150.1" cy="456.8" r="5.2"/><path class="st25" d="M170.2 480.5l-1.1-13.4H131l-1.1 9.3z"/><circle class="st26" cx="150.1" cy="376.9" r="36.5"/><path class="st13" d="M163.7 366.3L146.9 383l-8.5-8.5-4.2 4.3 8.5 8.5 4.2 4.2 4.3-4.2 16.7-16.8z"/><path class="st24" d="M26.4 446.1v-32c0-14.9 12.1-27 27-27v-10c-20.4 0-37 16.6-37 37v42h37v-10h-27z"/><path class="st27" d="M51.4 377.1l1 10c14.9 0 28 12.1 28 27v32h-27v10h37v-42c0-20.3-18.6-37-39-37z"/><path class="st10" d="M58.4 509.1h-48c-2.8 0-5-2.3-5-5v-69c0-2.8 2.3-5 5-5h48v79z"/><path class="st28" d="M58.4 509.1h-48c-2.8 0-5-2.3-5-5v-69c0-2.8 2.3-5 5-5h48v79z"/><path class="st10" d="M55.4 509.1h41c2.8 0 5-2.3 5-5v-69c0-2.8-2.3-5-5-5h-45l4 79z"/><path class="st29" d="M55.4 509.1h41c2.8 0 5-2.3 5-5v-69c0-2.8-2.3-5-5-5h-45l4 79z"/><circle cx="53.4" cy="464.1" r="12"/><path d="M48.4 463.1h10v28h-10z"/></svg>