<svg xmlns="http://www.w3.org/2000/svg" viewBox="0 0 380 150" enable-background="new 0 0 380 150"><pattern width="69" height="69" patternUnits="userSpaceOnUse" viewBox="2.125 -70.896 69 69" overflow="visible"><path fill="none" d="M71.125-1.896h-69v-69h69z"/><path fill="#F7BC60" d="M71.125-1.896h-69v-69h69z"/><g fill="#fff"><path d="M61.772-71.653c.018.072.007.127-.026.19-.053.1-.112.063-.165.128-.05.063-.098.276-.078.362-.17.058-.01.227-.015.35-.002.05-.04.105-.045.16-.01.12.017.267.068.37.097.2.268.414.435.545.19.148.365.572.608.63.177.043.384-.103.543-.142.18-.043.397.01.57-.053.223-.08.128-.337.29-.45.103-.074.286-.01.405-.05.2-.07.34-.264.377-.46.016-.083.01-.146.04-.222.037-.103.11-.16.09-.293-.01-.062-.053-.12-.066-.187-.02-.114.003-.224.002-.337-.003-.2.017-.38-.078-.55-.38-.688-1.236-.93-1.975-.79-.18.035-.288.127-.443.208-.17.088-.14.166-.318.224-.082.026-.217.124-.216.224.002.115.005.05.012.17-.02.01-.022-.006-.03-.026M54.105-71.653c.018.072.007.127-.026.19-.054.1-.113.063-.166.128-.05.063-.1.276-.08.362-.168.058-.01.227-.014.35-.002.05-.04.105-.045.16-.01.12.017.267.068.37.097.2.268.414.435.545.19.148.365.572.608.63.177.043.384-.103.543-.142.18-.043.396.01.57-.053.222-.08.127-.337.288-.45.104-.074.287-.01.406-.05.2-.07.34-.264.376-.46.016-.083.01-.146.04-.222.037-.103.11-.16.09-.293-.01-.062-.053-.12-.065-.187-.022-.114.002-.224 0-.337-.003-.2.017-.38-.078-.55-.38-.688-1.236-.93-1.975-.79-.18.035-.287.127-.442.208-.17.088-.14.166-.318.224-.08.026-.216.124-.215.224.002.115.005.05.012.17-.02.01-.022-.006-.03-.026M46.44-71.653c.017.072.006.127-.027.19-.053.1-.112.063-.165.128-.05.063-.1.276-.08.362-.168.058-.01.227-.014.35-.002.05-.04.105-.045.16-.01.12.016.267.067.37.097.2.268.414.435.545.19.148.365.572.608.63.177.043.384-.103.543-.142.18-.043.397.01.57-.053.223-.08.128-.337.29-.45.103-.074.286-.01.405-.05.2-.07.34-.264.376-.46.016-.083.01-.146.04-.222.037-.103.11-.16.09-.293-.01-.062-.053-.12-.065-.187-.023-.114 0-.224 0-.337-.004-.2.016-.38-.08-.55-.38-.688-1.235-.93-1.974-.79-.18.035-.287.127-.442.208-.17.088-.14.166-.318.224-.08.026-.216.124-.215.224.003.115.006.05.013.17-.02.01-.022-.006-.03-.026M38.772-71.653c.018.072.007.127-.026.19-.053.1-.112.063-.165.128-.05.063-.098.276-.078.362-.17.058-.01.227-.015.35-.002.05-.04.105-.045.16-.01.12.017.267.068.37.097.2.268.414.435.545.19.148.365.572.608.63.177.043.384-.103.543-.142.18-.043.397.01.57-.053.223-.08.128-.337.29-.45.103-.074.286-.01.405-.05.2-.07.34-.264.377-.46.016-.083.01-.146.04-.222.037-.103.11-.16.09-.293-.01-.062-.053-.12-.065-.187-.022-.114.002-.224 0-.337-.003-.2.017-.38-.078-.55-.38-.688-1.236-.93-1.975-.79-.18.035-.288.127-.443.208-.17.088-.14.166-.318.224-.082.026-.217.124-.216.224.002.115.005.05.012.17-.02.01-.022-.006-.03-.026M31.105-71.653c.017.072.007.127-.026.19-.054.1-.113.063-.166.128-.05.063-.1.276-.08.362-.168.058-.01.227-.014.35-.002.05-.04.105-.045.16-.01.12.017.267.068.37.097.2.268.414.435.545.19.148.365.572.608.63.177.043.384-.103.543-.142.18-.043.396.01.57-.053.222-.08.127-.337.288-.45.104-.074.287-.01.406-.05.2-.07.34-.264.376-.46.016-.083.01-.146.04-.222.037-.103.11-.16.09-.293-.01-.062-.053-.12-.065-.187-.022-.114.002-.224 0-.337-.003-.2.017-.38-.078-.55-.38-.688-1.236-.93-1.975-.79-.18.035-.287.127-.442.208-.17.088-.14.166-.318.224-.08.026-.216.124-.215.224 0 .115.005.05.012.17-.022.01-.022-.006-.03-.026M23.44-71.653c.016.072.006.127-.027.19-.053.1-.112.063-.165.128-.05.063-.1.276-.08.362-.168.058-.01.227-.014.35-.002.05-.04.105-.045.16-.01.12.016.267.067.37.097.2.268.414.435.545.19.148.365.572.608.63.177.043.384-.103.543-.142.18-.043.397.01.57-.053.223-.08.128-.337.29-.45.103-.074.286-.01.405-.05.2-.07.34-.264.376-.46.016-.083.01-.146.04-.222.037-.103.11-.16.09-.293-.01-.062-.053-.12-.066-.187-.022-.114.002-.224 0-.337-.003-.2.017-.38-.078-.55-.38-.688-1.236-.93-1.975-.79-.18.035-.287.127-.442.208-.17.088-.14.166-.318.224-.08.026-.216.124-.215.224 0 .115.005.05.012.17-.02.01-.02-.006-.03-.026M15.773-71.653c.017.072.007.127-.026.19-.053.1-.112.063-.165.128-.05.063-.1.276-.08.362-.168.058-.01.227-.014.35-.002.05-.04.105-.045.16-.01.12.017.267.068.37.098.2.27.414.436.545.19.148.365.572.608.63.177.043.384-.103.543-.142.18-.043.397.01.57-.053.223-.08.128-.337.29-.45.103-.074.286-.01.405-.05.2-.07.34-.264.376-.46.016-.083.01-.146.04-.222.037-.103.11-.16.09-.293-.01-.062-.053-.12-.066-.187-.022-.114.002-.224 0-.337-.003-.2.017-.38-.078-.55-.38-.688-1.236-.93-1.975-.79-.18.035-.288.127-.443.208-.17.088-.14.166-.318.224-.082.026-.217.124-.216.224.002.115.005.05.012.17-.02.01-.02-.006-.03-.026M8.105-71.653c.018.072.007.127-.026.19-.054.1-.113.063-.166.128-.05.063-.1.276-.08.362-.168.058-.01.227-.014.35-.002.05-.04.105-.045.16-.01.12.017.267.068.37.097.2.268.414.435.545.19.148.365.572.608.63.177.043.384-.103.543-.142.18-.043.396.01.57-.053.222-.08.127-.337.288-.45.105-.074.287-.01.406-.05.2-.07.34-.264.376-.46.016-.083.01-.146.04-.222.037-.103.11-.16.09-.293-.01-.062-.053-.12-.065-.187-.022-.114.002-.224 0-.337-.003-.2.017-.38-.078-.55-.38-.688-1.236-.93-1.975-.79-.18.035-.287.127-.442.208-.17.088-.14.166-.318.224-.08.026-.216.124-.215.224 0 .115.005.05.012.17-.022.01-.022-.006-.03-.026M.44-71.653c.017.072.007.127-.027.19-.052.1-.113.063-.165.128-.05.063-.1.276-.08.362-.168.058-.01.227-.014.35-.002.05-.04.105-.045.16-.01.12.016.267.067.37.097.2.268.414.435.545.19.148.365.572.608.63.177.043.384-.103.543-.142.18-.043.397.01.57-.053.223-.08.128-.337.29-.45.103-.074.286-.01.405-.05.2-.07.34-.264.376-.46.016-.083.01-.146.04-.222.037-.103.11-.16.09-.293-.01-.062-.052-.12-.065-.187-.022-.114 0-.224 0-.337-.004-.2.016-.38-.08-.55-.38-.688-1.235-.93-1.974-.79-.18.035-.287.127-.442.208-.17.088-.14.166-.318.224-.08.026-.215.124-.215.224.003.115.006.05.013.17-.02.01-.02-.006-.03-.026"/></g><path fill="#fff" d="M69.44-71.653c.016.072.007.127-.027.19-.052.1-.113.063-.165.128-.05.063-.1.276-.08.362-.168.058-.01.227-.014.35-.002.05-.04.105-.045.16-.01.12.016.267.067.37.097.2.268.414.435.545.19.148.365.572.608.63.177.043.384-.103.543-.142.18-.043.397.01.57-.053.223-.08.128-.337.29-.45.103-.074.286-.01.405-.05.2-.07.34-.264.376-.46.016-.083.01-.146.04-.222.037-.103.11-.16.09-.293-.01-.062-.052-.12-.065-.187-.022-.114 0-.224 0-.337-.003-.2.017-.38-.078-.55-.38-.688-1.236-.93-1.975-.79-.18.035-.287.127-.442.208-.17.088-.14.166-.318.224-.08.026-.215.124-.215.224.002.115.005.05.012.17-.02.01-.02-.006-.03-.026M.495-71.653c.018.072.008.127-.026.19-.053.1-.114.063-.166.128-.05.063-.1.276-.08.362-.168.058-.01.227-.014.35-.002.05-.04.105-.045.16-.01.12.017.267.068.37.097.2.268.414.435.545.19.148.365.572.608.63.177.043.384-.103.543-.142.18-.043.396.01.57-.053.222-.08.127-.337.288-.45.104-.074.287-.01.406-.05.2-.07.34-.264.376-.46.016-.083.01-.146.04-.222.037-.103.11-.16.09-.293-.01-.062-.052-.12-.065-.187-.02-.114.002-.224 0-.337-.003-.2.017-.38-.078-.55-.38-.688-1.236-.93-1.975-.79-.18.035-.287.127-.442.208-.17.088-.14.166-.318.224-.08.026-.215.124-.215.224.003.116.006.052.013.17-.02.01-.02-.005-.03-.025"/><g fill="#fff"><path d="M69.44-64c.016.07.006.126-.027.19-.053.1-.112.062-.165.127-.05.063-.1.276-.08.362-.168.057-.01.226-.014.35-.002.05-.04.104-.045.16-.01.12.016.266.067.37.097.198.268.413.435.544.19.148.365.572.608.63.177.043.384-.103.543-.142.18-.043.397.01.57-.053.223-.08.128-.338.29-.45.103-.075.286-.01.405-.052.2-.07.34-.263.376-.46.016-.082.01-.145.04-.22.038-.103.11-.16.09-.294-.01-.062-.053-.12-.065-.187-.023-.114 0-.224 0-.337-.003-.2.017-.38-.078-.55-.38-.688-1.236-.93-1.975-.79-.18.035-.287.127-.442.208-.17.088-.14.166-.318.224-.08.026-.216.124-.215.224 0 .115.005.05.012.17-.02.01-.02-.006-.03-.026M61.778-64c.018.07.007.126-.026.19-.053.1-.112.062-.165.127-.05.063-.1.276-.08.362-.168.057-.008.226-.014.35-.002.05-.04.104-.045.16-.01.12.017.266.068.37.097.198.268.413.435.544.19.148.366.572.61.63.176.043.383-.103.542-.142.18-.043.397.01.57-.053.223-.08.128-.338.29-.45.103-.075.286-.01.405-.052.2-.07.34-.263.376-.46.016-.082.01-.145.04-.22.038-.103.11-.16.09-.294-.01-.062-.053-.12-.065-.187-.022-.114.002-.224 0-.337-.003-.2.017-.38-.078-.55-.38-.688-1.236-.93-1.975-.79-.18.035-.287.127-.442.208-.17.088-.14.166-.318.224-.08.026-.216.124-.215.224 0 .115.005.05.012.17-.02.01-.02-.006-.03-.026M54.118-64c.018.07.007.126-.026.19-.053.1-.112.062-.165.127-.05.063-.1.276-.08.362-.168.057-.008.226-.014.35-.002.05-.04.104-.045.16-.01.12.017.266.068.37.097.198.268.413.435.544.19.148.366.572.61.63.176.043.383-.103.542-.142.18-.043.397.01.57-.053.223-.08.128-.338.29-.45.103-.075.286-.01.405-.052.2-.07.34-.263.376-.46.016-.082.01-.145.04-.22.037-.103.11-.16.09-.294-.01-.062-.053-.12-.065-.187-.022-.114.002-.224 0-.337-.003-.2.017-.38-.078-.55-.38-.688-1.236-.93-1.975-.79-.18.035-.287.127-.442.208-.17.088-.14.166-.318.224-.08.026-.216.124-.215.224 0 .115.005.05.012.17-.02.01-.02-.006-.03-.026M46.458-64c.018.07.007.126-.026.19-.053.1-.112.062-.165.127-.05.063-.1.276-.08.362-.168.057-.008.226-.014.35-.003.05-.04.104-.045.16-.01.12.017.266.068.37.097.198.268.413.435.544.19.148.366.572.61.63.176.043.383-.103.542-.142.18-.043.397.01.57-.053.223-.08.128-.338.29-.45.103-.075.286-.01.405-.052.2-.07.34-.263.376-.46.016-.082.01-.145.04-.22.038-.103.11-.16.09-.294-.01-.062-.053-.12-.065-.187-.022-.114.002-.224 0-.337-.003-.2.017-.38-.078-.55-.38-.688-1.236-.93-1.975-.79-.18.035-.287.127-.442.208-.17.088-.14.166-.318.224-.08.026-.216.124-.215.224 0 .115.005.05.012.17-.02.01-.02-.006-.03-.026M38.797-64c.017.07.007.126-.026.19-.052.1-.11.062-.164.127-.05.063-.1.276-.08.362-.168.057-.008.226-.014.35-.002.05-.04.104-.045.16-.01.12.017.266.068.37.097.198.268.413.435.544.19.148.365.572.608.63.177.043.384-.103.543-.142.18-.043.398.01.572-.053.222-.08.127-.338.288-.45.104-.075.287-.01.406-.052.2-.07.34-.263.376-.46.016-.082.01-.145.04-.22.038-.103.11-.16.09-.294-.01-.062-.053-.12-.066-.187-.022-.114.002-.224 0-.337-.003-.2.017-.38-.078-.55-.38-.688-1.236-.93-1.975-.79-.18.035-.287.127-.442.208-.17.088-.138.166-.317.224-.08.026-.216.124-.215.224 0 .115.005.05.012.17-.02.01-.02-.006-.03-.026M31.137-64c.018.07.007.126-.026.19-.052.1-.11.062-.164.127-.05.063-.1.276-.08.362-.168.057-.008.226-.014.35-.003.05-.04.104-.045.16-.01.12.017.266.068.37.097.198.268.413.435.544.19.148.365.572.608.63.177.043.384-.103.543-.142.18-.043.398.01.572-.053.222-.08.127-.338.288-.45.104-.075.287-.01.406-.052.2-.07.34-.263.376-.46.016-.082.01-.145.04-.22.038-.103.11-.16.09-.294-.01-.062-.053-.12-.065-.187-.022-.114.002-.224 0-.337-.003-.2.017-.38-.078-.55-.38-.688-1.237-.93-1.976-.79-.18.035-.287.127-.442.208-.17.088-.14.166-.318.224-.08.026-.216.124-.215.224 0 .115.004.05.01.17-.02.01-.02-.006-.03-.026M23.477-64c.017.07.007.126-.026.19-.052.1-.11.062-.164.127-.05.063-.1.276-.08.362-.168.057-.008.226-.014.35-.002.05-.04.104-.045.16-.01.12.017.266.068.37.097.198.268.413.435.544.19.148.365.572.608.63.177.043.384-.103.543-.142.18-.043.398.01.572-.053.222-.08.127-.338.288-.45.104-.075.287-.01.406-.052.2-.07.34-.263.376-.46.016-.082.01-.145.04-.22.037-.103.11-.16.09-.294-.01-.062-.053-.12-.066-.187-.022-.114.002-.224 0-.337-.003-.2.017-.38-.078-.55-.38-.688-1.236-.93-1.975-.79-.18.035-.287.127-.442.208-.17.088-.138.166-.317.224-.08.026-.216.124-.215.224.002.115.005.05.012.17-.02.01-.02-.006-.03-.026M15.816-64c.018.07.007.126-.026.19-.053.1-.112.062-.165.127-.05.063-.1.276-.08.362-.168.057-.008.226-.014.35 0 .05-.04.104-.044.16-.01.12.017.266.068.37.097.198.268.413.435.544.19.148.364.572.607.63.177.043.384-.103.543-.142.18-.043.397.01.57-.053.223-.08.13-.338.29-.45.103-.075.286-.01.405-.052.2-.07.34-.263.376-.46.017-.082.01-.145.04-.22.04-.103.11-.16.09-.294-.01-.062-.052-.12-.064-.187-.022-.114.002-.224 0-.337-.003-.2.017-.38-.078-.55-.38-.688-1.236-.93-1.975-.79-.18.035-.287.127-.442.208-.17.088-.138.166-.317.224-.08.026-.216.124-.215.224.002.115.005.05.012.17-.02.01-.02-.006-.03-.026M8.156-64c.018.07.007.126-.026.19-.053.1-.112.062-.165.127-.05.063-.1.276-.08.362-.168.057-.008.226-.014.35 0 .05-.04.104-.044.16-.01.12.017.266.068.37.097.198.268.413.435.544.19.148.364.572.607.63.177.043.384-.103.543-.142.18-.043.397.01.57-.053.223-.08.128-.338.29-.45.103-.075.286-.01.405-.052.2-.07.34-.263.376-.46.017-.082.01-.145.04-.22.038-.103.11-.16.09-.294-.01-.062-.052-.12-.064-.187-.022-.114.002-.224 0-.337-.003-.2.017-.38-.078-.55-.38-.688-1.236-.93-1.975-.79-.18.035-.287.127-.442.208-.17.088-.138.166-.317.224-.08.026-.216.124-.215.224 0 .115.005.05.012.17-.02.01-.02-.006-.03-.026M.495-64c.018.07.007.126-.026.19-.054.1-.113.062-.166.127-.05.063-.1.276-.08.362-.168.057-.01.226-.014.35-.002.05-.04.104-.045.16-.01.12.017.266.068.37.097.198.268.413.435.544.19.148.365.572.608.63.177.043.384-.103.543-.142.18-.042.397.01.57-.052.223-.08.128-.337.29-.45.103-.074.286-.01.405-.05.2-.07.34-.264.376-.46.017-.083.01-.146.04-.222.04-.102.11-.16.09-.293-.01-.062-.052-.12-.064-.187-.022-.114.002-.224 0-.337-.003-.2.017-.378-.078-.55-.38-.687-1.236-.928-1.975-.788-.18.034-.287.126-.442.207-.17.087-.138.165-.317.223-.08.026-.216.124-.215.224 0 .115.005.05.012.17-.02.01-.02-.006-.03-.026M69.44-56.348c.016.072.006.127-.027.19-.053.1-.112.063-.165.128-.05.063-.1.276-.08.362-.168.058-.01.227-.014.35-.002.05-.04.106-.045.16-.01.12.016.267.067.37.097.2.268.414.435.545.19.148.365.572.608.63.177.043.384-.103.543-.142.18-.043.397.01.57-.053.223-.08.128-.337.29-.45.103-.074.286-.01.405-.05.2-.07.34-.264.376-.46.016-.083.01-.146.04-.222.038-.103.11-.16.09-.293-.01-.062-.053-.12-.065-.187-.023-.114 0-.224 0-.337-.003-.2.017-.38-.078-.55-.38-.688-1.236-.93-1.975-.79-.18.035-.287.127-.442.208-.17.09-.14.167-.318.225-.08.026-.216.124-.215.224 0 .114.005.05.012.168-.02.01-.02-.005-.03-.025M61.778-56.348c.018.072.007.127-.026.19-.053.1-.112.063-.165.128-.05.063-.1.276-.08.362-.168.058-.008.227-.014.35-.002.05-.04.106-.045.16-.01.12.017.267.068.37.097.2.268.414.435.545.19.148.366.572.61.63.176.043.383-.103.542-.142.18-.043.397.01.57-.053.223-.08.128-.337.29-.45.103-.074.286-.01.405-.05.2-.07.34-.264.376-.46.016-.083.01-.146.04-.222.038-.103.11-.16.09-.293-.01-.062-.053-.12-.065-.187-.022-.114.002-.224 0-.337-.003-.2.017-.38-.078-.55-.38-.688-1.236-.93-1.975-.79-.18.035-.287.127-.442.208-.17.09-.14.167-.318.225-.08.026-.216.124-.215.224 0 .114.005.05.012.168-.02.01-.02-.005-.03-.025M54.118-56.348c.018.072.007.127-.026.19-.053.1-.112.063-.165.128-.05.063-.1.276-.08.362-.168.058-.008.227-.014.35-.002.05-.04.106-.045.16-.01.12.017.267.068.37.097.2.268.414.435.545.19.148.366.572.61.63.176.043.383-.103.542-.142.18-.043.397.01.57-.053.223-.08.128-.337.29-.45.103-.074.286-.01.405-.05.2-.07.34-.264.376-.46.016-.083.01-.146.04-.222.037-.103.11-.16.09-.293-.01-.062-.053-.12-.065-.187-.022-.114.002-.224 0-.337-.003-.2.017-.38-.078-.55-.38-.688-1.236-.93-1.975-.79-.18.035-.287.127-.442.208-.17.09-.14.167-.318.225-.08.026-.216.124-.215.224 0 .114.005.05.012.168-.02.01-.02-.005-.03-.025M46.458-56.348c.018.072.007.127-.026.19-.053.1-.112.063-.165.128-.05.063-.1.276-.08.362-.168.058-.008.227-.014.35-.003.05-.04.106-.045.16-.01.12.017.267.068.37.097.2.268.414.435.545.19.148.366.572.61.63.176.043.383-.103.542-.142.18-.043.397.01.57-.053.223-.08.128-.337.29-.45.103-.074.286-.01.405-.05.2-.07.34-.264.376-.46.016-.083.01-.146.04-.222.038-.103.11-.16.09-.293-.01-.062-.053-.12-.065-.187-.022-.114.002-.224 0-.337-.003-.2.017-.38-.078-.55-.38-.688-1.236-.93-1.975-.79-.18.035-.287.127-.442.208-.17.09-.14.167-.318.225-.08.026-.216.124-.215.224 0 .114.005.05.012.168-.02.01-.02-.005-.03-.025M38.797-56.348c.017.072.007.127-.026.19-.052.1-.11.063-.164.128-.05.063-.1.276-.08.362-.168.058-.008.227-.014.35-.002.05-.04.106-.045.16-.01.12.017.267.068.37.097.2.268.414.435.545.19.148.365.572.608.63.177.043.384-.103.543-.142.18-.043.398.01.572-.053.222-.08.127-.337.288-.45.104-.074.287-.01.406-.05.2-.07.34-.264.376-.46.016-.083.01-.146.04-.222.038-.103.11-.16.09-.293-.01-.062-.053-.12-.066-.187-.022-.114.002-.224 0-.337-.003-.2.017-.38-.078-.55-.38-.688-1.236-.93-1.975-.79-.18.035-.287.127-.442.208-.17.09-.138.167-.317.225-.08.026-.216.124-.215.224 0 .114.005.05.012.168-.02.01-.02-.005-.03-.025M31.137-56.348c.018.072.007.127-.026.19-.052.1-.11.063-.164.128-.05.063-.1.276-.08.362-.168.058-.008.227-.014.35-.003.05-.04.106-.045.16-.01.12.017.267.068.37.097.2.268.414.435.545.19.148.365.572.608.63.177.043.384-.103.543-.142.18-.043.398.01.572-.053.222-.08.127-.337.288-.45.104-.074.287-.01.406-.05.2-.07.34-.264.376-.46.016-.083.01-.146.04-.222.038-.103.11-.16.09-.293-.01-.062-.053-.12-.065-.187-.022-.114.002-.224 0-.337-.003-.2.017-.38-.078-.55-.38-.688-1.237-.93-1.976-.79-.18.035-.287.127-.442.208-.17.09-.14.167-.318.225-.08.026-.216.124-.215.224 0 .114.004.05.01.168-.02.01-.02-.005-.03-.025M23.477-56.348c.017.072.007.127-.026.19-.052.1-.11.063-.164.128-.05.063-.1.276-.08.362-.168.058-.008.227-.014.35-.002.05-.04.106-.045.16-.01.12.017.267.068.37.097.2.268.414.435.545.19.148.365.572.608.63.177.043.384-.103.543-.142.18-.043.398.01.572-.053.222-.08.127-.337.288-.45.104-.074.287-.01.406-.05.2-.07.34-.264.376-.46.016-.083.01-.146.04-.222.037-.103.11-.16.09-.293-.01-.062-.053-.12-.066-.187-.022-.114.002-.224 0-.337-.003-.2.017-.38-.078-.55-.38-.688-1.236-.93-1.975-.79-.18.035-.287.127-.442.208-.17.09-.138.167-.317.225-.08.026-.216.124-.215.224.002.114.005.05.012.168-.02.01-.02-.005-.03-.025M15.816-56.348c.018.072.007.127-.026.19-.053.1-.112.063-.165.128-.05.063-.1.276-.08.362-.168.058-.008.227-.014.35 0 .05-.04.106-.044.16-.01.12.017.267.068.37.097.2.268.414.435.545.19.148.364.572.607.63.177.043.384-.103.543-.142.18-.043.397.01.57-.053.223-.08.13-.337.29-.45.103-.074.286-.01.405-.05.2-.07.34-.264.376-.46.017-.083.01-.146.04-.222.04-.103.11-.16.09-.293-.01-.062-.052-.12-.064-.187-.022-.114.002-.224 0-.337-.003-.2.017-.38-.078-.55-.38-.688-1.236-.93-1.975-.79-.18.035-.287.127-.442.208-.17.09-.138.167-.317.225-.08.026-.216.124-.215.224.002.114.005.05.012.168-.02.01-.02-.005-.03-.025M8.156-56.348c.018.072.007.127-.026.19-.053.1-.112.063-.165.128-.05.063-.1.276-.08.362-.168.058-.008.227-.014.35 0 .05-.04.106-.044.16-.01.12.017.267.068.37.097.2.268.414.435.545.19.148.364.572.607.63.177.043.384-.103.543-.142.18-.043.397.01.57-.053.223-.08.128-.337.29-.45.103-.074.286-.01.405-.05.2-.07.34-.264.376-.46.017-.083.01-.146.04-.222.038-.103.11-.16.09-.293-.01-.062-.052-.12-.064-.187-.022-.114.002-.224 0-.337-.003-.2.017-.38-.078-.55-.38-.688-1.236-.93-1.975-.79-.18.035-.287.127-.442.208-.17.09-.138.167-.317.225-.08.026-.216.124-.215.224 0 .114.005.05.012.168-.02.01-.02-.005-.03-.025M.495-56.348c.018.072.007.127-.026.19-.054.1-.113.063-.166.128-.05.063-.1.276-.08.362-.168.058-.01.227-.014.35-.002.05-.04.106-.045.16-.01.12.017.267.068.37.097.2.268.414.435.545.19.148.365.572.608.63.177.043.384-.103.543-.142.18-.043.396.01.57-.053.222-.08.127-.337.288-.45.104-.074.287-.01.406-.05.2-.07.34-.264.376-.46.016-.083.01-.146.04-.222.038-.103.11-.16.09-.293-.01-.062-.053-.12-.065-.187-.022-.114.002-.224 0-.337-.003-.2.017-.38-.078-.55-.38-.688-1.236-.93-1.975-.79-.18.035-.287.127-.442.208-.17.09-.14.167-.318.225-.08.026-.216.124-.215.224.003.116.006.052.013.17-.02.01-.02-.005-.03-.025M69.44-48.695c.016.072.006.127-.027.19-.053.1-.112.063-.165.128-.05.063-.1.276-.08.362-.168.058-.01.226-.014.35-.002.05-.04.105-.045.16-.01.12.016.267.067.37.097.2.268.414.435.545.19.148.365.572.608.63.177.043.384-.103.543-.142.18-.043.397.01.57-.053.223-.08.128-.337.29-.45.103-.074.286-.01.405-.05.2-.07.34-.264.376-.46.016-.083.01-.146.04-.222.038-.103.11-.16.09-.293-.01-.062-.053-.12-.065-.187-.023-.114 0-.224 0-.337-.003-.2.017-.38-.078-.55-.38-.688-1.236-.93-1.975-.79-.18.035-.287.127-.442.208-.17.088-.14.166-.318.224-.08.026-.216.124-.215.224 0 .115.005.05.012.17-.02.01-.02-.006-.03-.026M61.778-48.695c.018.072.007.127-.026.19-.053.1-.112.063-.165.128-.05.063-.1.276-.08.362-.168.058-.008.226-.014.35-.002.05-.04.105-.045.16-.01.12.017.267.068.37.097.2.268.414.435.545.19.148.366.572.61.63.176.043.383-.103.542-.142.18-.043.397.01.57-.053.223-.08.128-.337.29-.45.103-.074.286-.01.405-.05.2-.07.34-.264.376-.46.016-.083.01-.146.04-.222.038-.103.11-.16.09-.293-.01-.062-.053-.12-.065-.187-.022-.114.002-.224 0-.337-.003-.2.017-.38-.078-.55-.38-.688-1.236-.93-1.975-.79-.18.035-.287.127-.442.208-.17.088-.14.166-.318.224-.08.026-.216.124-.215.224 0 .115.005.05.012.17-.02.01-.02-.006-.03-.026M54.118-48.695c.018.072.007.127-.026.19-.053.1-.112.063-.165.128-.05.063-.1.276-.08.362-.168.058-.008.226-.014.35-.002.05-.04.105-.045.16-.01.12.017.267.068.37.097.2.268.414.435.545.19.148.366.572.61.63.176.043.383-.103.542-.142.18-.043.397.01.57-.053.223-.08.128-.337.29-.45.103-.074.286-.01.405-.05.2-.07.34-.264.376-.46.016-.083.01-.146.04-.222.037-.103.11-.16.09-.293-.01-.062-.053-.12-.065-.187-.022-.114.002-.224 0-.337-.003-.2.017-.38-.078-.55-.38-.688-1.236-.93-1.975-.79-.18.035-.287.127-.442.208-.17.088-.14.166-.318.224-.08.026-.216.124-.215.224 0 .115.005.05.012.17-.02.01-.02-.006-.03-.026M46.458-48.695c.018.072.007.127-.026.19-.053.1-.112.063-.165.128-.05.063-.1.276-.08.362-.168.058-.008.226-.014.35-.003.05-.04.105-.045.16-.01.12.017.267.068.37.097.2.268.414.435.545.19.148.366.572.61.63.176.043.383-.103.542-.142.18-.043.397.01.57-.053.223-.08.128-.337.29-.45.103-.074.286-.01.405-.05.2-.07.34-.264.376-.46.016-.083.01-.146.04-.222.038-.103.11-.16.09-.293-.01-.062-.053-.12-.065-.187-.022-.114.002-.224 0-.337-.003-.2.017-.38-.078-.55-.38-.688-1.236-.93-1.975-.79-.18.035-.287.127-.442.208-.17.088-.14.166-.318.224-.08.026-.216.124-.215.224 0 .115.005.05.012.17-.02.01-.02-.006-.03-.026M38.797-48.695c.017.072.007.127-.026.19-.052.1-.11.063-.164.128-.05.063-.1.276-.08.362-.168.058-.008.226-.014.35-.002.05-.04.105-.045.16-.01.12.017.267.068.37.097.2.268.414.435.545.19.148.365.572.608.63.177.043.384-.103.543-.142.18-.043.398.01.572-.053.222-.08.127-.337.288-.45.104-.074.287-.01.406-.05.2-.07.34-.264.376-.46.016-.083.01-.146.04-.222.038-.103.11-.16.09-.293-.01-.062-.053-.12-.066-.187-.022-.114.002-.224 0-.337-.003-.2.017-.38-.078-.55-.38-.688-1.236-.93-1.975-.79-.18.035-.287.127-.442.208-.17.088-.138.166-.317.224-.08.026-.216.124-.215.224 0 .115.005.05.012.17-.02.01-.02-.006-.03-.026M31.137-48.695c.018.072.007.127-.026.19-.052.1-.11.063-.164.128-.05.063-.1.276-.08.362-.168.058-.008.226-.014.35-.003.05-.04.105-.045.16-.01.12.017.267.068.37.097.2.268.414.435.545.19.148.365.572.608.63.177.043.384-.103.543-.142.18-.043.398.01.572-.053.222-.08.127-.337.288-.45.104-.074.287-.01.406-.05.2-.07.34-.264.376-.46.016-.083.01-.146.04-.222.038-.103.11-.16.09-.293-.01-.062-.053-.12-.065-.187-.022-.114.002-.224 0-.337-.003-.2.017-.38-.078-.55-.38-.688-1.237-.93-1.976-.79-.18.035-.287.127-.442.208-.17.088-.14.166-.318.224-.08.026-.216.124-.215.224 0 .115.004.05.01.17-.02.01-.02-.006-.03-.026M23.477-48.695c.017.072.007.127-.026.19-.052.1-.11.063-.164.128-.05.063-.1.276-.08.362-.168.058-.008.226-.014.35-.002.05-.04.105-.045.16-.01.12.017.267.068.37.097.2.268.414.435.545.19.148.365.572.608.63.177.043.384-.103.543-.142.18-.043.398.01.572-.053.222-.08.127-.337.288-.45.104-.074.287-.01.406-.05.2-.07.34-.264.376-.46.016-.083.01-.146.04-.222.037-.103.11-.16.09-.293-.01-.062-.053-.12-.066-.187-.022-.114.002-.224 0-.337-.003-.2.017-.38-.078-.55-.38-.688-1.236-.93-1.975-.79-.18.035-.287.127-.442.208-.17.088-.138.166-.317.224-.08.026-.216.124-.215.224.002.115.005.05.012.17-.02.01-.02-.006-.03-.026M15.816-48.695c.018.072.007.127-.026.19-.053.1-.112.063-.165.128-.05.063-.1.276-.08.362-.168.058-.008.226-.014.35 0 .05-.04.105-.044.16-.01.12.017.267.068.37.097.2.268.414.435.545.19.148.364.572.607.63.177.043.384-.103.543-.142.18-.043.397.01.57-.053.223-.08.13-.337.29-.45.103-.074.286-.01.405-.05.2-.07.34-.264.376-.46.017-.083.01-.146.04-.222.04-.103.11-.16.09-.293-.01-.062-.052-.12-.064-.187-.022-.114.002-.224 0-.337-.003-.2.017-.38-.078-.55-.38-.688-1.236-.93-1.975-.79-.18.035-.287.127-.442.208-.17.088-.138.166-.317.224-.08.026-.216.124-.215.224.002.115.005.05.012.17-.02.01-.02-.006-.03-.026M8.156-48.695c.018.072.007.127-.026.19-.053.1-.112.063-.165.128-.05.063-.1.276-.08.362-.168.058-.008.226-.014.35 0 .05-.04.105-.044.16-.01.12.017.267.068.37.097.2.268.414.435.545.19.148.364.572.607.63.177.043.384-.103.543-.142.18-.043.397.01.57-.053.223-.08.128-.337.29-.45.103-.074.286-.01.405-.05.2-.07.34-.264.376-.46.017-.083.01-.146.04-.222.038-.103.11-.16.09-.293-.01-.062-.052-.12-.064-.187-.022-.114.002-.224 0-.337-.003-.2.017-.38-.078-.55-.38-.688-1.236-.93-1.975-.79-.18.035-.287.127-.442.208-.17.088-.138.166-.317.224-.08.026-.216.124-.215.224 0 .115.005.05.012.17-.02.01-.02-.006-.03-.026M.495-48.695c.018.072.007.127-.026.19-.054.1-.113.063-.166.128-.05.063-.1.276-.08.362-.168.058-.01.226-.014.35-.002.05-.04.105-.045.16-.01.12.017.267.068.37.097.2.268.414.435.545.19.148.365.572.608.63.177.043.384-.103.543-.142.18-.043.396.01.57-.053.222-.08.127-.337.288-.45.104-.074.287-.01.406-.05.2-.07.34-.264.376-.46.016-.083.01-.146.04-.222.038-.103.11-.16.09-.293-.01-.062-.053-.12-.065-.187-.022-.114.002-.224 0-.337-.003-.2.017-.38-.078-.55-.38-.688-1.236-.93-1.975-.79-.18.035-.287.127-.442.208-.17.088-.14.166-.318.224-.08.026-.216.124-.215.224 0 .115.005.05.012.17-.022.01-.022-.006-.03-.026M69.44-41.042c.016.072.006.127-.027.19-.053.1-.112.063-.165.128-.05.063-.1.276-.08.362-.168.058-.01.227-.014.35-.002.05-.04.105-.045.16-.01.12.016.267.067.37.097.2.268.414.435.545.19.148.365.572.608.63.177.043.384-.103.543-.142.18-.042.397.01.57-.052.223-.08.128-.337.29-.45.103-.074.286-.01.405-.05.2-.07.34-.264.376-.46.016-.083.01-.146.04-.222.038-.103.11-.16.09-.293-.01-.062-.053-.12-.065-.187-.023-.114 0-.224 0-.337-.003-.2.017-.38-.078-.55-.38-.69-1.236-.93-1.975-.79-.18.034-.287.126-.442.207-.17.088-.14.166-.318.224-.08.027-.216.125-.215.225 0 .115.005.05.012.17-.02.01-.02-.006-.03-.026M61.778-41.042c.018.072.007.127-.026.19-.053.1-.112.063-.165.128-.05.063-.1.276-.08.362-.168.058-.008.227-.014.35-.002.05-.04.105-.045.16-.01.12.017.267.068.37.097.2.268.414.435.545.19.148.366.572.61.63.176.043.383-.103.542-.142.18-.042.397.01.57-.052.223-.08.128-.337.29-.45.103-.074.286-.01.405-.05.2-.07.34-.264.376-.46.016-.083.01-.146.04-.222.038-.103.11-.16.09-.293-.01-.062-.053-.12-.065-.187-.022-.114.002-.224 0-.337-.003-.2.017-.38-.078-.55-.38-.69-1.236-.93-1.975-.79-.18.034-.287.126-.442.207-.17.088-.14.166-.318.224-.08.027-.216.125-.215.225 0 .115.005.05.012.17-.02.01-.02-.006-.03-.026M54.118-41.042c.018.072.007.127-.026.19-.053.1-.112.063-.165.128-.05.063-.1.276-.08.362-.168.058-.008.227-.014.35-.002.05-.04.105-.045.16-.01.12.017.267.068.37.097.2.268.414.435.545.19.148.366.572.61.63.176.043.383-.103.542-.142.18-.042.397.01.57-.052.223-.08.128-.337.29-.45.103-.074.286-.01.405-.05.2-.07.34-.264.376-.46.016-.083.01-.146.04-.222.037-.103.11-.16.09-.293-.01-.062-.053-.12-.065-.187-.022-.114.002-.224 0-.337-.003-.2.017-.38-.078-.55-.38-.69-1.236-.93-1.975-.79-.18.034-.287.126-.442.207-.17.088-.14.166-.318.224-.08.027-.216.125-.215.225 0 .115.005.05.012.17-.02.01-.02-.006-.03-.026M46.458-41.042c.018.072.007.127-.026.19-.053.1-.112.063-.165.128-.05.063-.1.276-.08.362-.168.058-.008.227-.014.35-.003.05-.04.105-.045.16-.01.12.017.267.068.37.097.2.268.414.435.545.19.148.366.572.61.63.176.043.383-.103.542-.142.18-.042.397.01.57-.052.223-.08.128-.337.29-.45.103-.074.286-.01.405-.05.2-.07.34-.264.376-.46.016-.083.01-.146.04-.222.038-.103.11-.16.09-.293-.01-.062-.053-.12-.065-.187-.022-.114.002-.224 0-.337-.003-.2.017-.38-.078-.55-.38-.69-1.236-.93-1.975-.79-.18.034-.287.126-.442.207-.17.088-.14.166-.318.224-.08.027-.216.125-.215.225 0 .115.005.05.012.17-.02.01-.02-.006-.03-.026M38.797-41.042c.017.072.007.127-.026.19-.052.1-.11.063-.164.128-.05.063-.1.276-.08.362-.168.058-.008.227-.014.35-.002.05-.04.105-.045.16-.01.12.017.267.068.37.097.2.268.414.435.545.19.148.365.572.608.63.177.043.384-.103.543-.142.18-.042.398.01.572-.052.222-.08.127-.337.288-.45.104-.074.287-.01.406-.05.2-.07.34-.264.376-.46.016-.083.01-.146.04-.222.038-.103.11-.16.09-.293-.01-.062-.053-.12-.066-.187-.022-.114.002-.224 0-.337-.003-.2.017-.38-.078-.55-.38-.69-1.236-.93-1.975-.79-.18.034-.287.126-.442.207-.17.088-.138.166-.317.224-.08.027-.216.125-.215.225 0 .115.005.05.012.17-.02.01-.02-.006-.03-.026M31.137-41.042c.018.072.007.127-.026.19-.052.1-.11.063-.164.128-.05.063-.1.276-.08.362-.168.058-.008.227-.014.35-.003.05-.04.105-.045.16-.01.12.017.267.068.37.097.2.268.414.435.545.19.148.365.572.608.63.177.043.384-.103.543-.142.18-.042.398.01.572-.052.222-.08.127-.337.288-.45.104-.074.287-.01.406-.05.2-.07.34-.264.376-.46.016-.083.01-.146.04-.222.038-.103.11-.16.09-.293-.01-.062-.053-.12-.065-.187-.022-.114.002-.224 0-.337-.003-.2.017-.38-.078-.55-.38-.69-1.237-.93-1.976-.79-.18.034-.287.126-.442.207-.17.088-.14.166-.318.224-.08.027-.216.125-.215.225 0 .115.004.05.01.17-.02.01-.02-.006-.03-.026M23.477-41.042c.017.072.007.127-.026.19-.052.1-.11.063-.164.128-.05.063-.1.276-.08.362-.168.058-.008.227-.014.35-.002.05-.04.105-.045.16-.01.12.017.267.068.37.097.2.268.414.435.545.19.148.365.572.608.63.177.043.384-.103.543-.142.18-.042.398.01.572-.052.222-.08.127-.337.288-.45.104-.074.287-.01.406-.05.2-.07.34-.264.376-.46.016-.083.01-.146.04-.222.037-.103.11-.16.09-.293-.01-.062-.053-.12-.066-.187-.022-.114.002-.224 0-.337-.003-.2.017-.38-.078-.55-.38-.69-1.236-.93-1.975-.79-.18.034-.287.126-.442.207-.17.088-.138.166-.317.224-.08.027-.216.125-.215.225.002.115.005.05.012.17-.02.01-.02-.006-.03-.026M15.816-41.042c.018.072.007.127-.026.19-.053.1-.112.063-.165.128-.05.063-.1.276-.08.362-.168.058-.008.227-.014.35 0 .05-.04.105-.044.16-.01.12.017.267.068.37.097.2.268.414.435.545.19.148.364.572.607.63.177.043.384-.103.543-.142.18-.042.397.01.57-.052.223-.08.13-.337.29-.45.103-.074.286-.01.405-.05.2-.07.34-.264.376-.46.017-.083.01-.146.04-.222.04-.103.11-.16.09-.293-.01-.062-.052-.12-.064-.187-.022-.114.002-.224 0-.337-.003-.2.017-.38-.078-.55-.38-.69-1.236-.93-1.975-.79-.18.034-.287.126-.442.207-.17.088-.138.166-.317.224-.08.027-.216.125-.215.225.002.115.005.05.012.17-.02.01-.02-.006-.03-.026M8.156-41.042c.018.072.007.127-.026.19-.053.1-.112.063-.165.128-.05.063-.1.276-.08.362-.168.058-.008.227-.014.35 0 .05-.04.105-.044.16-.01.12.017.267.068.37.097.2.268.414.435.545.19.148.364.572.607.63.177.043.384-.103.543-.142.18-.042.397.01.57-.052.223-.08.128-.337.29-.45.103-.074.286-.01.405-.05.2-.07.34-.264.376-.46.017-.083.01-.146.04-.222.038-.103.11-.16.09-.293-.01-.062-.052-.12-.064-.187-.022-.114.002-.224 0-.337-.003-.2.017-.38-.078-.55-.38-.69-1.236-.93-1.975-.79-.18.034-.287.126-.442.207-.17.088-.138.166-.317.224-.08.027-.216.125-.215.225 0 .115.005.05.012.17-.02.01-.02-.005-.03-.025M.495-41.042c.018.072.007.127-.026.19-.054.1-.113.063-.166.128-.05.063-.1.276-.08.362-.168.058-.01.227-.014.35-.002.05-.04.105-.045.16-.01.12.017.267.068.37.097.2.268.414.435.545.19.148.365.572.608.63.177.043.384-.103.543-.142.18-.042.396.01.57-.052.222-.08.127-.337.288-.45.104-.074.287-.01.406-.05.2-.07.34-.264.376-.46.016-.083.01-.146.04-.222.038-.103.11-.16.09-.293-.01-.062-.053-.12-.065-.187-.022-.114.002-.224 0-.337-.003-.2.017-.38-.078-.55-.38-.69-1.236-.93-1.975-.79-.18.034-.287.126-.442.207-.17.088-.14.166-.318.224-.08.027-.216.125-.215.225 0 .115.005.05.012.17-.022.01-.022-.006-.03-.026M69.44-33.39c.016.072.006.127-.027.19-.053.1-.112.063-.165.128-.05.063-.1.276-.08.362-.168.058-.01.227-.014.35-.002.05-.04.106-.045.16-.01.12.016.267.067.37.097.2.268.414.435.545.19.15.365.572.608.63.177.043.384-.103.543-.142.18-.043.397.01.57-.053.223-.08.128-.337.29-.45.103-.074.286-.01.405-.05.2-.07.34-.264.376-.46.016-.083.01-.145.04-.222.038-.103.11-.16.09-.293-.01-.062-.053-.12-.065-.187-.023-.114 0-.224 0-.337-.003-.2.017-.378-.078-.55-.38-.687-1.236-.928-1.975-.788-.18.034-.287.126-.442.207-.17.087-.14.165-.318.223-.08.026-.216.124-.215.224 0 .115.005.05.012.17-.02.01-.02-.006-.03-.026M61.778-33.39c.018.072.007.127-.026.19-.053.1-.112.063-.165.128-.05.063-.1.276-.08.362-.168.058-.008.227-.014.35-.002.05-.04.106-.045.16-.01.12.017.267.068.37.097.2.268.414.435.545.19.15.366.572.61.63.176.043.383-.103.542-.142.18-.043.397.01.57-.053.223-.08.128-.337.29-.45.103-.074.286-.01.405-.05.2-.07.34-.264.376-.46.016-.083.01-.145.04-.222.038-.103.11-.16.09-.293-.01-.062-.053-.12-.065-.187-.022-.114.002-.224 0-.337-.003-.2.017-.378-.078-.55-.38-.687-1.236-.928-1.975-.788-.18.034-.287.126-.442.207-.17.087-.14.165-.318.223-.08.026-.216.124-.215.224 0 .115.005.05.012.17-.02.01-.02-.006-.03-.026M54.118-33.39c.018.072.007.127-.026.19-.053.1-.112.063-.165.128-.05.063-.1.276-.08.362-.168.058-.008.227-.014.35-.002.05-.04.106-.045.16-.01.12.017.267.068.37.097.2.268.414.435.545.19.15.366.572.61.63.176.043.383-.103.542-.142.18-.043.397.01.57-.053.223-.08.128-.337.29-.45.103-.074.286-.01.405-.05.2-.07.34-.264.376-.46.016-.083.01-.145.04-.222.037-.103.11-.16.09-.293-.01-.062-.053-.12-.065-.187-.022-.114.002-.224 0-.337-.003-.2.017-.378-.078-.55-.38-.687-1.236-.928-1.975-.788-.18.034-.287.126-.442.207-.17.087-.14.165-.318.223-.08.026-.216.124-.215.224 0 .115.005.05.012.17-.02.01-.02-.006-.03-.026M46.458-33.39c.018.072.007.127-.026.19-.053.1-.112.063-.165.128-.05.063-.1.276-.08.362-.168.058-.008.227-.014.35-.003.05-.04.106-.045.16-.01.12.017.267.068.37.097.2.268.414.435.545.19.15.366.572.61.63.176.043.383-.103.542-.142.18-.043.397.01.57-.053.223-.08.128-.337.29-.45.103-.074.286-.01.405-.05.2-.07.34-.264.376-.46.016-.083.01-.145.04-.222.038-.103.11-.16.09-.293-.01-.062-.053-.12-.065-.187-.022-.114.002-.224 0-.337-.003-.2.017-.378-.078-.55-.38-.687-1.236-.928-1.975-.788-.18.034-.287.126-.442.207-.17.087-.14.165-.318.223-.08.026-.216.124-.215.224 0 .115.005.05.012.17-.02.01-.02-.006-.03-.026M38.797-33.39c.017.072.007.127-.026.19-.052.1-.11.063-.164.128-.05.063-.1.276-.08.362-.168.058-.008.227-.014.35-.002.05-.04.106-.045.16-.01.12.017.267.068.37.097.2.268.414.435.545.19.15.365.572.608.63.177.043.384-.103.543-.142.18-.043.398.01.572-.053.222-.08.127-.337.288-.45.104-.074.287-.01.406-.05.2-.07.34-.264.376-.46.016-.083.01-.145.04-.222.038-.103.11-.16.09-.293-.01-.062-.053-.12-.066-.187-.022-.114.002-.224 0-.337-.003-.2.017-.378-.078-.55-.38-.687-1.236-.928-1.975-.788-.18.034-.287.126-.442.207-.17.087-.138.165-.317.223-.08.026-.216.124-.215.224 0 .115.005.05.012.17-.02.01-.02-.006-.03-.026M31.137-33.39c.018.072.007.127-.026.19-.052.1-.11.063-.164.128-.05.063-.1.276-.08.362-.168.058-.008.227-.014.35-.003.05-.04.106-.045.16-.01.12.017.267.068.37.097.2.268.414.435.545.19.15.365.572.608.63.177.043.384-.103.543-.142.18-.043.398.01.572-.053.222-.08.127-.337.288-.45.104-.074.287-.01.406-.05.2-.07.34-.264.376-.46.016-.083.01-.145.04-.222.038-.103.11-.16.09-.293-.01-.062-.053-.12-.065-.187-.022-.114.002-.224 0-.337-.003-.2.017-.378-.078-.55-.38-.687-1.237-.928-1.976-.788-.18.034-.287.126-.442.207-.17.087-.14.165-.318.223-.08.026-.216.124-.215.224 0 .115.004.05.01.17-.02.01-.02-.006-.03-.026M23.477-33.39c.017.072.007.127-.026.19-.052.1-.11.063-.164.128-.05.063-.1.276-.08.362-.168.058-.008.227-.014.35-.002.05-.04.106-.045.16-.01.12.017.267.068.37.097.2.268.414.435.545.19.15.365.572.608.63.177.043.384-.103.543-.142.18-.043.398.01.572-.053.222-.08.127-.337.288-.45.104-.074.287-.01.406-.05.2-.07.34-.264.376-.46.016-.083.01-.145.04-.222.037-.103.11-.16.09-.293-.01-.062-.053-.12-.066-.187-.022-.114.002-.224 0-.337-.003-.2.017-.378-.078-.55-.38-.687-1.236-.928-1.975-.788-.18.034-.287.126-.442.207-.17.087-.138.165-.317.223-.08.026-.216.124-.215.224.002.115.005.05.012.17-.02.01-.02-.006-.03-.026M15.816-33.39c.018.072.007.127-.026.19-.053.1-.112.063-.165.128-.05.063-.1.276-.08.362-.168.058-.008.227-.014.35 0 .05-.04.106-.044.16-.01.12.017.267.068.37.097.2.268.414.435.545.19.15.364.572.607.63.177.043.384-.103.543-.142.18-.043.397.01.57-.053.223-.08.13-.337.29-.45.103-.074.286-.01.405-.05.2-.07.34-.264.376-.46.017-.083.01-.145.04-.222.04-.103.11-.16.09-.293-.01-.062-.052-.12-.064-.187-.022-.114.002-.224 0-.337-.003-.2.017-.378-.078-.55-.38-.687-1.236-.928-1.975-.788-.18.034-.287.126-.442.207-.17.087-.138.165-.317.223-.08.026-.216.124-.215.224.002.115.005.05.012.17-.02.01-.02-.006-.03-.026M8.156-33.39c.018.072.007.127-.026.19-.053.1-.112.063-.165.128-.05.063-.1.276-.08.362-.168.058-.008.227-.014.35 0 .05-.04.106-.044.16-.01.12.017.267.068.37.097.2.268.414.435.545.19.15.364.572.607.63.177.043.384-.103.543-.142.18-.043.397.01.57-.053.223-.08.128-.337.29-.45.103-.074.286-.01.405-.05.2-.07.34-.264.376-.46.017-.083.01-.145.04-.222.038-.103.11-.16.09-.293-.01-.062-.052-.12-.064-.187-.022-.114.002-.224 0-.337-.003-.2.017-.378-.078-.55-.38-.687-1.236-.928-1.975-.788-.18.034-.287.126-.442.207-.17.087-.138.165-.317.223-.08.026-.216.124-.215.224 0 .115.005.05.012.17-.02.01-.02-.006-.03-.026M.495-33.39c.018.072.007.127-.026.19-.054.1-.113.063-.166.128-.05.063-.1.276-.08.362-.168.058-.01.227-.014.35-.002.05-.04.106-.045.16-.01.12.017.267.068.37.097.2.268.414.435.545.19.15.365.572.608.63.177.043.384-.103.543-.142.18-.043.396.01.57-.053.222-.08.127-.337.288-.45.104-.074.287-.01.406-.05.2-.07.34-.264.376-.46.016-.083.01-.145.04-.222.038-.103.11-.16.09-.293-.01-.062-.053-.12-.065-.187-.022-.114.002-.224 0-.337-.003-.2.017-.378-.078-.55-.38-.687-1.236-.928-1.975-.788-.18.034-.287.126-.442.207-.17.087-.14.165-.318.223-.08.026-.216.124-.215.224.003.117.006.053.013.17-.02.012-.02-.004-.03-.024M69.44-25.736c.016.072.006.127-.027.19-.053.1-.112.063-.165.128-.05.063-.1.276-.08.362-.168.058-.01.227-.014.35-.002.05-.04.106-.045.16-.01.12.016.267.067.37.097.2.268.414.435.545.19.147.365.57.608.63.177.042.384-.104.543-.143.18-.043.397.01.57-.053.223-.08.128-.337.29-.45.103-.074.286-.01.405-.05.2-.07.34-.264.376-.46.016-.083.01-.146.04-.222.038-.102.11-.16.09-.293-.01-.062-.053-.12-.065-.187-.023-.114 0-.224 0-.337-.003-.2.017-.38-.078-.55-.38-.688-1.236-.93-1.975-.79-.18.035-.287.127-.442.208-.17.088-.14.166-.318.224-.08.026-.216.124-.215.224 0 .115.005.05.012.17-.02.01-.02-.006-.03-.026M61.778-25.736c.018.072.007.127-.026.19-.053.1-.112.063-.165.128-.05.063-.1.276-.08.362-.168.058-.008.227-.014.35-.002.05-.04.106-.045.16-.01.12.017.267.068.37.097.2.268.414.435.545.19.147.366.57.61.63.176.042.383-.104.542-.143.18-.043.397.01.57-.053.223-.08.128-.337.29-.45.103-.074.286-.01.405-.05.2-.07.34-.264.376-.46.016-.083.01-.146.04-.222.038-.102.11-.16.09-.293-.01-.062-.053-.12-.065-.187-.022-.114.002-.224 0-.337-.003-.2.017-.38-.078-.55-.38-.688-1.236-.93-1.975-.79-.18.035-.287.127-.442.208-.17.088-.14.166-.318.224-.08.026-.216.124-.215.224 0 .115.005.05.012.17-.02.01-.02-.006-.03-.026M54.118-25.736c.018.072.007.127-.026.19-.053.1-.112.063-.165.128-.05.063-.1.276-.08.362-.168.058-.008.227-.014.35-.002.05-.04.106-.045.16-.01.12.017.267.068.37.097.2.268.414.435.545.19.147.366.57.61.63.176.042.383-.104.542-.143.18-.043.397.01.57-.053.223-.08.128-.337.29-.45.103-.074.286-.01.405-.05.2-.07.34-.264.376-.46.016-.083.01-.146.04-.222.037-.102.11-.16.09-.293-.01-.062-.053-.12-.065-.187-.022-.114.002-.224 0-.337-.003-.2.017-.38-.078-.55-.38-.688-1.236-.93-1.975-.79-.18.035-.287.127-.442.208-.17.088-.14.166-.318.224-.08.026-.216.124-.215.224 0 .115.005.05.012.17-.02.01-.02-.006-.03-.026M46.458-25.736c.018.072.007.127-.026.19-.053.1-.112.063-.165.128-.05.063-.1.276-.08.362-.168.058-.008.227-.014.35-.003.05-.04.106-.045.16-.01.12.017.267.068.37.097.2.268.414.435.545.19.147.366.57.61.63.176.042.383-.104.542-.143.18-.043.397.01.57-.053.223-.08.128-.337.29-.45.103-.074.286-.01.405-.05.2-.07.34-.264.376-.46.016-.083.01-.146.04-.222.038-.102.11-.16.09-.293-.01-.062-.053-.12-.065-.187-.022-.114.002-.224 0-.337-.003-.2.017-.38-.078-.55-.38-.688-1.236-.93-1.975-.79-.18.035-.287.127-.442.208-.17.088-.14.166-.318.224-.08.026-.216.124-.215.224 0 .115.005.05.012.17-.02.01-.02-.006-.03-.026M38.797-25.736c.017.072.007.127-.026.19-.052.1-.11.063-.164.128-.05.063-.1.276-.08.362-.168.058-.008.227-.014.35-.002.05-.04.106-.045.16-.01.12.017.267.068.37.097.2.268.414.435.545.19.147.365.57.608.63.177.042.384-.104.543-.143.18-.043.398.01.572-.053.222-.08.127-.337.288-.45.104-.074.287-.01.406-.05.2-.07.34-.264.376-.46.016-.083.01-.146.04-.222.038-.102.11-.16.09-.293-.01-.062-.053-.12-.066-.187-.022-.114.002-.224 0-.337-.003-.2.017-.38-.078-.55-.38-.688-1.236-.93-1.975-.79-.18.035-.287.127-.442.208-.17.088-.138.166-.317.224-.08.026-.216.124-.215.224 0 .115.005.05.012.17-.02.01-.02-.006-.03-.026M31.137-25.736c.018.072.007.127-.026.19-.052.1-.11.063-.164.128-.05.063-.1.276-.08.362-.168.058-.008.227-.014.35-.003.05-.04.106-.045.16-.01.12.017.267.068.37.097.2.268.414.435.545.19.147.365.57.608.63.177.042.384-.104.543-.143.18-.043.398.01.572-.053.222-.08.127-.337.288-.45.104-.074.287-.01.406-.05.2-.07.34-.264.376-.46.016-.083.01-.146.04-.222.038-.102.11-.16.09-.293-.01-.062-.053-.12-.065-.187-.022-.114.002-.224 0-.337-.003-.2.017-.38-.078-.55-.38-.688-1.237-.93-1.976-.79-.18.035-.287.127-.442.208-.17.088-.14.166-.318.224-.08.026-.216.124-.215.224 0 .115.004.05.01.17-.02.01-.02-.006-.03-.026M23.477-25.736c.017.072.007.127-.026.19-.052.1-.11.063-.164.128-.05.063-.1.276-.08.362-.168.058-.008.227-.014.35-.002.05-.04.106-.045.16-.01.12.017.267.068.37.097.2.268.414.435.545.19.147.365.57.608.63.177.042.384-.104.543-.143.18-.043.398.01.572-.053.222-.08.127-.337.288-.45.104-.074.287-.01.406-.05.2-.07.34-.264.376-.46.016-.083.01-.146.04-.222.037-.102.11-.16.09-.293-.01-.062-.053-.12-.066-.187-.022-.114.002-.224 0-.337-.003-.2.017-.38-.078-.55-.38-.688-1.236-.93-1.975-.79-.18.035-.287.127-.442.208-.17.088-.138.166-.317.224-.08.026-.216.124-.215.224.002.115.005.05.012.17-.02.01-.02-.006-.03-.026M15.816-25.736c.018.072.007.127-.026.19-.053.1-.112.063-.165.128-.05.063-.1.276-.08.362-.168.058-.008.227-.014.35 0 .05-.04.106-.044.16-.01.12.017.267.068.37.097.2.268.414.435.545.19.147.364.57.607.63.177.042.384-.104.543-.143.18-.043.397.01.57-.053.223-.08.13-.337.29-.45.103-.074.286-.01.405-.05.2-.07.34-.264.376-.46.017-.083.01-.146.04-.222.04-.102.11-.16.09-.293-.01-.062-.052-.12-.064-.187-.022-.114.002-.224 0-.337-.003-.2.017-.38-.078-.55-.38-.688-1.236-.93-1.975-.79-.18.035-.287.127-.442.208-.17.088-.138.166-.317.224-.08.026-.216.124-.215.224.002.115.005.05.012.17-.02.01-.02-.006-.03-.026M8.156-25.736c.018.072.007.127-.026.19-.053.1-.112.063-.165.128-.05.063-.1.276-.08.362-.168.058-.008.227-.014.35 0 .05-.04.106-.044.16-.01.12.017.267.068.37.097.2.268.414.435.545.19.147.364.57.607.63.177.042.384-.104.543-.143.18-.043.397.01.57-.053.223-.08.128-.337.29-.45.103-.074.286-.01.405-.05.2-.07.34-.264.376-.46.017-.083.01-.146.04-.222.038-.102.11-.16.09-.293-.01-.062-.052-.12-.064-.187-.022-.114.002-.224 0-.337-.003-.2.017-.38-.078-.55-.38-.688-1.236-.93-1.975-.79-.18.035-.287.127-.442.208-.17.088-.138.166-.317.224-.08.026-.216.124-.215.224 0 .115.005.05.012.17-.02.01-.02-.006-.03-.026M.495-25.736c.018.072.007.127-.026.19-.054.1-.113.063-.166.128-.05.063-.1.276-.08.362-.168.058-.01.227-.014.35-.002.05-.04.106-.045.16-.01.12.017.267.068.37.097.2.268.414.435.545.19.147.365.57.608.63.177.042.384-.104.543-.143.18-.043.396.01.57-.053.222-.08.127-.337.288-.45.104-.074.287-.01.406-.05.2-.07.34-.264.376-.46.016-.083.01-.146.04-.222.038-.102.11-.16.09-.293-.01-.062-.053-.12-.065-.187-.022-.114.002-.224 0-.337-.003-.2.017-.38-.078-.55-.38-.688-1.236-.93-1.975-.79-.18.035-.287.127-.442.208-.17.088-.14.166-.318.224-.08.026-.216.124-.215.224 0 .115.005.05.012.17-.022.01-.022-.006-.03-.026M69.44-18.084c.016.072.006.127-.027.19-.053.1-.112.063-.165.128-.05.063-.1.276-.08.362-.168.058-.01.226-.014.35-.002.05-.04.105-.045.16-.01.12.016.267.067.37.097.2.268.414.435.545.19.15.365.573.608.632.177.042.384-.104.543-.142.18-.043.397.01.57-.053.223-.08.128-.337.29-.45.103-.074.286-.01.405-.05.2-.07.34-.264.376-.46.016-.083.01-.145.04-.222.038-.103.11-.16.09-.293-.01-.062-.053-.12-.065-.187-.023-.114 0-.224 0-.337-.003-.2.017-.38-.078-.55-.38-.688-1.236-.93-1.975-.79-.18.035-.287.127-.442.208-.17.088-.14.166-.318.224-.08.026-.216.124-.215.224 0 .115.005.05.012.17-.02.01-.02-.006-.03-.026M61.778-18.084c.018.072.007.127-.026.19-.053.1-.112.063-.165.128-.05.063-.1.276-.08.362-.168.058-.008.226-.014.35-.002.05-.04.105-.045.16-.01.12.017.267.068.37.097.2.268.414.435.545.19.15.366.573.61.632.176.042.383-.104.542-.142.18-.043.397.01.57-.053.223-.08.128-.337.29-.45.103-.074.286-.01.405-.05.2-.07.34-.264.376-.46.016-.083.01-.145.04-.222.038-.103.11-.16.09-.293-.01-.062-.053-.12-.065-.187-.022-.114.002-.224 0-.337-.003-.2.017-.38-.078-.55-.38-.688-1.236-.93-1.975-.79-.18.035-.287.127-.442.208-.17.088-.14.166-.318.224-.08.026-.216.124-.215.224 0 .115.005.05.012.17-.02.01-.02-.006-.03-.026M54.118-18.084c.018.072.007.127-.026.19-.053.1-.112.063-.165.128-.05.063-.1.276-.08.362-.168.058-.008.226-.014.35-.002.05-.04.105-.045.16-.01.12.017.267.068.37.097.2.268.414.435.545.19.15.366.573.61.632.176.042.383-.104.542-.142.18-.043.397.01.57-.053.223-.08.128-.337.29-.45.103-.074.286-.01.405-.05.2-.07.34-.264.376-.46.016-.083.01-.145.04-.222.037-.103.11-.16.09-.293-.01-.062-.053-.12-.065-.187-.022-.114.002-.224 0-.337-.003-.2.017-.38-.078-.55-.38-.688-1.236-.93-1.975-.79-.18.035-.287.127-.442.208-.17.088-.14.166-.318.224-.08.026-.216.124-.215.224 0 .115.005.05.012.17-.02.01-.02-.006-.03-.026M46.458-18.084c.018.072.007.127-.026.19-.053.1-.112.063-.165.128-.05.063-.1.276-.08.362-.168.058-.008.226-.014.35-.003.05-.04.105-.045.16-.01.12.017.267.068.37.097.2.268.414.435.545.19.15.366.573.61.632.176.042.383-.104.542-.142.18-.043.397.01.57-.053.223-.08.128-.337.29-.45.103-.074.286-.01.405-.05.2-.07.34-.264.376-.46.016-.083.01-.145.04-.222.038-.103.11-.16.09-.293-.01-.062-.053-.12-.065-.187-.022-.114.002-.224 0-.337-.003-.2.017-.38-.078-.55-.38-.688-1.236-.93-1.975-.79-.18.035-.287.127-.442.208-.17.088-.14.166-.318.224-.08.026-.216.124-.215.224 0 .115.005.05.012.17-.02.01-.02-.006-.03-.026M38.797-18.084c.017.072.007.127-.026.19-.052.1-.11.063-.164.128-.05.063-.1.276-.08.362-.168.058-.008.226-.014.35-.002.05-.04.105-.045.16-.01.12.017.267.068.37.097.2.268.414.435.545.19.15.365.573.608.632.177.042.384-.104.543-.142.18-.043.398.01.572-.053.222-.08.127-.337.288-.45.104-.074.287-.01.406-.05.2-.07.34-.264.376-.46.016-.083.01-.145.04-.222.038-.103.11-.16.09-.293-.01-.062-.053-.12-.066-.187-.022-.114.002-.224 0-.337-.003-.2.017-.38-.078-.55-.38-.688-1.236-.93-1.975-.79-.18.035-.287.127-.442.208-.17.088-.138.166-.317.224-.08.026-.216.124-.215.224 0 .115.005.05.012.17-.02.01-.02-.006-.03-.026M31.137-18.084c.018.072.007.127-.026.19-.052.1-.11.063-.164.128-.05.063-.1.276-.08.362-.168.058-.008.226-.014.35-.003.05-.04.105-.045.16-.01.12.017.267.068.37.097.2.268.414.435.545.19.15.365.573.608.632.177.042.384-.104.543-.142.18-.043.398.01.572-.053.222-.08.127-.337.288-.45.104-.074.287-.01.406-.05.2-.07.34-.264.376-.46.016-.083.01-.145.04-.222.038-.103.11-.16.09-.293-.01-.062-.053-.12-.065-.187-.022-.114.002-.224 0-.337-.003-.2.017-.38-.078-.55-.38-.688-1.237-.93-1.976-.79-.18.035-.287.127-.442.208-.17.088-.14.166-.318.224-.08.026-.216.124-.215.224 0 .115.004.05.01.17-.02.01-.02-.006-.03-.026M23.477-18.084c.017.072.007.127-.026.19-.052.1-.11.063-.164.128-.05.063-.1.276-.08.362-.168.058-.008.226-.014.35-.002.05-.04.105-.045.16-.01.12.017.267.068.37.097.2.268.414.435.545.19.15.365.573.608.632.177.042.384-.104.543-.142.18-.043.398.01.572-.053.222-.08.127-.337.288-.45.104-.074.287-.01.406-.05.2-.07.34-.264.376-.46.016-.083.01-.145.04-.222.037-.103.11-.16.09-.293-.01-.062-.053-.12-.066-.187-.022-.114.002-.224 0-.337-.003-.2.017-.38-.078-.55-.38-.688-1.236-.93-1.975-.79-.18.035-.287.127-.442.208-.17.088-.138.166-.317.224-.08.026-.216.124-.215.224.002.115.005.05.012.17-.02.01-.02-.006-.03-.026M15.816-18.084c.018.072.007.127-.026.19-.053.1-.112.063-.165.128-.05.063-.1.276-.08.362-.168.058-.008.226-.014.35 0 .05-.04.105-.044.16-.01.12.017.267.068.37.097.2.268.414.435.545.19.15.364.573.607.632.177.042.384-.104.543-.142.18-.043.397.01.57-.053.223-.08.13-.337.29-.45.103-.074.286-.01.405-.05.2-.07.34-.264.376-.46.017-.083.01-.145.04-.222.04-.103.11-.16.09-.293-.01-.062-.052-.12-.064-.187-.022-.114.002-.224 0-.337-.003-.2.017-.38-.078-.55-.38-.688-1.236-.93-1.975-.79-.18.035-.287.127-.442.208-.17.088-.138.166-.317.224-.08.026-.216.124-.215.224.002.115.005.05.012.17-.02.01-.02-.006-.03-.026M8.156-18.084c.018.072.007.127-.026.19-.053.1-.112.063-.165.128-.05.063-.1.276-.08.362-.168.058-.008.226-.014.35 0 .05-.04.105-.044.16-.01.12.017.267.068.37.097.2.268.414.435.545.19.15.364.573.607.632.177.042.384-.104.543-.142.18-.043.397.01.57-.053.223-.08.128-.337.29-.45.103-.074.286-.01.405-.05.2-.07.34-.264.376-.46.017-.083.01-.145.04-.222.038-.103.11-.16.09-.293-.01-.062-.052-.12-.064-.187-.022-.114.002-.224 0-.337-.003-.2.017-.38-.078-.55-.38-.688-1.236-.93-1.975-.79-.18.035-.287.127-.442.208-.17.088-.138.166-.317.224-.08.026-.216.124-.215.224 0 .115.005.05.012.17-.02.01-.02-.006-.03-.026M.495-18.084c.018.072.007.127-.026.19-.054.1-.113.063-.166.128-.05.063-.1.276-.08.362-.168.058-.01.226-.014.35-.002.05-.04.105-.045.16-.01.12.017.267.068.37.097.2.268.414.435.545.19.15.365.573.608.632.177.042.384-.104.543-.142.18-.043.396.01.57-.053.222-.08.127-.337.288-.45.104-.074.287-.01.406-.05.2-.07.34-.264.376-.46.016-.083.01-.145.04-.222.038-.103.11-.16.09-.293-.01-.062-.053-.12-.065-.187-.022-.114.002-.224 0-.337-.003-.2.017-.38-.078-.55-.38-.688-1.236-.93-1.975-.79-.18.035-.287.127-.442.208-.17.088-.14.166-.318.224-.08.026-.216.124-.215.224.003.116.006.05.013.17-.02.01-.02-.006-.03-.026M69.44-10.43c.016.07.006.126-.027.19-.053.1-.112.063-.165.128-.05.063-.1.276-.08.362-.168.058-.01.227-.014.35-.002.05-.04.105-.045.16-.01.12.016.267.067.37.097.2.268.414.435.545.19.148.365.572.608.63.177.043.384-.103.543-.142.18-.043.397.01.57-.053.223-.08.128-.337.29-.45.103-.074.286-.01.405-.05.2-.07.34-.264.376-.46.016-.083.01-.146.04-.222.038-.103.11-.16.09-.293-.01-.062-.053-.12-.065-.187-.023-.114 0-.224 0-.337-.003-.2.017-.378-.078-.55-.38-.687-1.236-.928-1.975-.788-.18.034-.287.126-.442.207-.17.087-.14.165-.318.223-.08.026-.216.124-.215.224 0 .115.005.05.012.17-.02.01-.02-.006-.03-.026M61.778-10.43c.018.07.007.126-.026.19-.053.1-.112.063-.165.128-.05.063-.1.276-.08.362-.168.058-.008.227-.014.35-.002.05-.04.105-.045.16-.01.12.017.267.068.37.097.2.268.414.435.545.19.148.366.572.61.63.176.043.383-.103.542-.142.18-.043.397.01.57-.053.223-.08.128-.337.29-.45.103-.074.286-.01.405-.05.2-.07.34-.264.376-.46.016-.083.01-.146.04-.222.038-.103.11-.16.09-.293-.01-.062-.053-.12-.065-.187-.022-.114.002-.224 0-.337-.003-.2.017-.378-.078-.55-.38-.687-1.236-.928-1.975-.788-.18.034-.287.126-.442.207-.17.087-.14.165-.318.223-.08.026-.216.124-.215.224 0 .115.005.05.012.17-.02.01-.02-.006-.03-.026M54.118-10.43c.018.07.007.126-.026.19-.053.1-.112.063-.165.128-.05.063-.1.276-.08.362-.168.058-.008.227-.014.35-.002.05-.04.105-.045.16-.01.12.017.267.068.37.097.2.268.414.435.545.19.148.366.572.61.63.176.043.383-.103.542-.142.18-.043.397.01.57-.053.223-.08.128-.337.29-.45.103-.074.286-.01.405-.05.2-.07.34-.264.376-.46.016-.083.01-.146.04-.222.037-.103.11-.16.09-.293-.01-.062-.053-.12-.065-.187-.022-.114.002-.224 0-.337-.003-.2.017-.378-.078-.55-.38-.687-1.236-.928-1.975-.788-.18.034-.287.126-.442.207-.17.087-.14.165-.318.223-.08.026-.216.124-.215.224 0 .115.005.05.012.17-.02.01-.02-.006-.03-.026M46.458-10.43c.018.07.007.126-.026.19-.053.1-.112.063-.165.128-.05.063-.1.276-.08.362-.168.058-.008.227-.014.35-.003.05-.04.105-.045.16-.01.12.017.267.068.37.097.2.268.414.435.545.19.148.366.572.61.63.176.043.383-.103.542-.142.18-.043.397.01.57-.053.223-.08.128-.337.29-.45.103-.074.286-.01.405-.05.2-.07.34-.264.376-.46.016-.083.01-.146.04-.222.038-.103.11-.16.09-.293-.01-.062-.053-.12-.065-.187-.022-.114.002-.224 0-.337-.003-.2.017-.378-.078-.55-.38-.687-1.236-.928-1.975-.788-.18.034-.287.126-.442.207-.17.087-.14.165-.318.223-.08.026-.216.124-.215.224 0 .115.005.05.012.17-.02.01-.02-.006-.03-.026M38.797-10.43c.017.07.007.126-.026.19-.052.1-.11.063-.164.128-.05.063-.1.276-.08.362-.168.058-.008.227-.014.35-.002.05-.04.105-.045.16-.01.12.017.267.068.37.097.2.268.414.435.545.19.148.365.572.608.63.177.043.384-.103.543-.142.18-.043.398.01.572-.053.222-.08.127-.337.288-.45.104-.074.287-.01.406-.05.2-.07.34-.264.376-.46.016-.083.01-.146.04-.222.038-.103.11-.16.09-.293-.01-.062-.053-.12-.066-.187-.022-.114.002-.224 0-.337-.003-.2.017-.378-.078-.55-.38-.687-1.236-.928-1.975-.788-.18.034-.287.126-.442.207-.17.087-.138.165-.317.223-.08.026-.216.124-.215.224 0 .115.005.05.012.17-.02.01-.02-.006-.03-.026M31.137-10.43c.018.07.007.126-.026.19-.052.1-.11.063-.164.128-.05.063-.1.276-.08.362-.168.058-.008.227-.014.35-.003.05-.04.105-.045.16-.01.12.017.267.068.37.097.2.268.414.435.545.19.148.365.572.608.63.177.043.384-.103.543-.142.18-.043.398.01.572-.053.222-.08.127-.337.288-.45.104-.074.287-.01.406-.05.2-.07.34-.264.376-.46.016-.083.01-.146.04-.222.038-.103.11-.16.09-.293-.01-.062-.053-.12-.065-.187-.022-.114.002-.224 0-.337-.003-.2.017-.378-.078-.55-.38-.687-1.237-.928-1.976-.788-.18.034-.287.126-.442.207-.17.087-.14.165-.318.223-.08.026-.216.124-.215.224 0 .115.004.05.01.17-.02.01-.02-.006-.03-.026M23.477-10.43c.017.07.007.126-.026.19-.052.1-.11.063-.164.128-.05.063-.1.276-.08.362-.168.058-.008.227-.014.35-.002.05-.04.105-.045.16-.01.12.017.267.068.37.097.2.268.414.435.545.19.148.365.572.608.63.177.043.384-.103.543-.142.18-.043.398.01.572-.053.222-.08.127-.337.288-.45.104-.074.287-.01.406-.05.2-.07.34-.264.376-.46.016-.083.01-.146.04-.222.037-.103.11-.16.09-.293-.01-.062-.053-.12-.066-.187-.022-.114.002-.224 0-.337-.003-.2.017-.378-.078-.55-.38-.687-1.236-.928-1.975-.788-.18.034-.287.126-.442.207-.17.087-.138.165-.317.223-.08.026-.216.124-.215.224.002.115.005.05.012.17-.02.01-.02-.006-.03-.026M15.816-10.43c.018.07.007.126-.026.19-.053.1-.112.063-.165.128-.05.063-.1.276-.08.362-.168.058-.008.227-.014.35 0 .05-.04.105-.044.16-.01.12.017.267.068.37.097.2.268.414.435.545.19.148.364.572.607.63.177.043.384-.103.543-.142.18-.043.397.01.57-.053.223-.08.13-.337.29-.45.104-.074.287-.01.406-.05.2-.07.34-.264.376-.46.016-.083.01-.146.04-.222.038-.103.11-.16.09-.293-.01-.062-.053-.12-.065-.187-.022-.114.002-.224 0-.337-.003-.2.017-.378-.078-.55-.38-.687-1.237-.928-1.976-.788-.18.034-.287.126-.442.207-.17.087-.14.165-.318.223-.08.026-.216.124-.215.224 0 .115.004.05.01.17-.02.01-.02-.006-.03-.026M8.156-10.43c.018.07.007.126-.026.19-.053.1-.112.063-.165.128-.05.062-.1.276-.08.362-.168.058-.01.227-.014.35-.002.05-.04.105-.044.16-.01.12.017.267.068.37.097.2.268.414.435.545.19.148.364.572.607.63.177.043.384-.104.543-.142.18-.043.397.01.57-.053.223-.08.128-.337.29-.45.103-.074.286-.01.405-.05.2-.07.34-.264.376-.46.017-.083.01-.146.04-.222.038-.103.11-.16.09-.293-.01-.062-.052-.12-.064-.187-.022-.114.002-.224 0-.337-.003-.2.017-.378-.078-.55-.38-.687-1.236-.928-1.975-.788-.18.034-.287.126-.442.207-.17.087-.138.165-.317.223-.08.026-.216.124-.215.224 0 .115.005.05.012.17-.02.01-.02-.006-.03-.026M.495-10.43c.018.07.007.126-.026.19-.054.1-.113.063-.166.128-.05.062-.1.276-.08.362-.168.058-.01.227-.014.35-.002.05-.04.105-.045.16-.01.12.017.267.068.37.097.2.268.414.435.545.19.148.365.572.608.63.178.043.384-.104.543-.142.18-.043.397.01.57-.053.223-.08.128-.337.29-.45.103-.074.286-.01.405-.05.2-.07.34-.264.376-.46.017-.083.01-.145.04-.22.04-.104.11-.16.09-.294-.01-.062-.052-.12-.064-.187-.022-.115.002-.225 0-.338-.003-.2.017-.38-.078-.55-.38-.688-1.236-.93-1.975-.79-.18.035-.287.127-.442.208-.17.088-.138.166-.317.224-.08.026-.216.124-.215.224 0 .115.005.05.012.17-.02.01-.02-.006-.03-.026"/></g><g fill="#fff"><path d="M69.44-2.778c.016.072.007.127-.027.19-.052.1-.113.063-.165.128-.05.063-.1.276-.08.362-.168.058-.01.227-.014.35-.002.05-.04.105-.045.16-.01.12.016.267.067.37.097.2.268.414.435.545.19.148.365.572.608.63.177.043.384-.103.543-.142.18-.043.397.01.57-.053.223-.08.128-.337.29-.45.103-.074.286-.01.405-.05.2-.07.34-.264.376-.46.016-.083.01-.146.04-.222.037-.103.11-.16.09-.293-.01-.062-.052-.12-.065-.187-.022-.114 0-.224 0-.337-.003-.2.017-.38-.078-.55-.38-.688-1.236-.93-1.975-.79-.18.035-.287.127-.442.208-.17.09-.14.167-.318.225-.08.026-.215.124-.215.224.002.114.005.05.012.168-.02.01-.02-.005-.03-.025M61.778-2.778c.018.072.007.127-.026.19-.052.1-.112.063-.165.128-.05.063-.1.276-.08.362-.168.058-.01.227-.014.35-.002.05-.04.105-.045.16-.01.12.017.267.068.37.097.2.268.414.435.545.19.148.366.572.61.63.177.043.383-.103.543-.142.18-.043.397.01.57-.053.223-.08.128-.337.29-.45.103-.074.286-.01.405-.05.2-.07.34-.264.376-.46.016-.083.01-.146.04-.222.038-.103.11-.16.09-.293-.01-.062-.053-.12-.065-.187-.023-.114 0-.224 0-.337-.004-.2.016-.38-.08-.55-.38-.688-1.235-.93-1.974-.79-.18.035-.287.127-.442.208-.17.09-.14.167-.318.225-.08.028-.216.125-.215.225.002.115.006.05.013.17-.02.01-.02-.006-.03-.026M54.118-2.778c.018.072.007.127-.026.19-.052.1-.112.063-.165.128-.05.063-.1.276-.08.362-.168.058-.01.227-.014.35-.002.05-.04.105-.045.16-.01.12.017.267.068.37.097.2.268.414.435.545.19.148.366.572.61.63.177.043.383-.103.542-.142.18-.043.397.01.57-.053.223-.08.128-.337.29-.45.103-.074.286-.01.405-.05.2-.07.34-.264.376-.46.016-.083.01-.146.04-.222.037-.103.11-.16.09-.293-.01-.062-.053-.12-.065-.187-.022-.114.002-.224 0-.337-.003-.2.017-.38-.078-.55-.38-.688-1.236-.93-1.975-.79-.18.035-.287.127-.442.208-.17.09-.14.167-.318.225-.08.028-.215.125-.214.225.002.115.006.05.013.17-.02.01-.02-.006-.03-.026M46.458-2.778c.018.072.007.127-.026.19-.053.1-.112.063-.165.128-.05.063-.1.276-.08.362-.168.058-.01.227-.014.35-.003.05-.04.105-.045.16-.01.12.017.267.068.37.097.2.268.414.435.545.19.148.366.572.61.63.176.043.383-.103.542-.142.18-.043.397.01.57-.053.223-.08.128-.337.29-.45.103-.074.286-.01.405-.05.2-.07.34-.264.376-.46.016-.083.01-.146.04-.222.038-.103.11-.16.09-.293-.01-.062-.053-.12-.065-.187-.022-.114.002-.224 0-.337-.003-.2.017-.38-.078-.55-.38-.688-1.236-.93-1.975-.79-.18.035-.287.127-.442.208-.17.09-.14.167-.318.225-.08.028-.216.125-.215.225 0 .115.005.05.012.17-.02.01-.02-.006-.03-.026M38.797-2.778c.017.072.007.127-.026.19-.052.1-.11.063-.164.128-.05.063-.1.276-.08.362-.168.058-.01.227-.014.35-.002.05-.04.105-.045.16-.01.12.017.267.068.37.097.2.268.414.435.545.19.148.365.572.608.63.178.043.384-.103.544-.142.18-.043.397.01.57-.053.223-.08.128-.337.29-.45.103-.074.286-.01.405-.05.2-.07.34-.264.376-.46.016-.083.01-.146.04-.222.038-.103.11-.16.09-.293-.01-.062-.053-.12-.066-.187-.022-.114.002-.224 0-.337-.003-.2.017-.38-.078-.55-.38-.688-1.237-.93-1.976-.79-.18.035-.287.127-.442.208-.17.09-.14.167-.318.225-.08.028-.215.125-.214.225 0 .115.005.05.012.17-.02.01-.02-.006-.03-.026M31.137-2.778c.018.072.007.127-.026.19-.052.1-.11.063-.164.128-.05.063-.1.276-.08.362-.168.058-.01.227-.014.35-.003.05-.04.105-.045.16-.01.12.017.267.068.37.097.2.268.414.435.545.19.148.365.572.608.63.177.043.384-.103.543-.142.18-.043.398.01.572-.053.222-.08.127-.337.288-.45.104-.074.287-.01.406-.05.2-.07.34-.264.376-.46.016-.083.01-.146.04-.222.038-.103.11-.16.09-.293-.01-.062-.053-.12-.065-.187-.022-.114.002-.224 0-.337-.003-.2.017-.38-.078-.55-.38-.688-1.237-.93-1.976-.79-.18.035-.287.127-.442.208-.17.09-.14.167-.318.225-.08.028-.215.125-.214.225 0 .115.005.05.012.17-.02.01-.02-.006-.03-.026M23.477-2.778c.017.072.007.127-.026.19-.052.1-.11.063-.164.128-.05.063-.1.276-.08.362-.168.058-.01.227-.014.35-.002.05-.04.105-.045.16-.01.12.017.267.068.37.097.2.268.414.435.545.19.148.365.572.608.63.177.043.384-.103.543-.142.18-.043.398.01.572-.053.222-.08.127-.337.288-.45.104-.074.287-.01.406-.05.2-.07.34-.264.376-.46.016-.083.01-.146.04-.222.037-.103.11-.16.09-.293-.01-.062-.053-.12-.066-.187-.022-.114.002-.224 0-.337-.003-.2.017-.38-.078-.55-.38-.688-1.236-.93-1.975-.79-.18.035-.287.127-.442.208-.17.09-.138.167-.317.225-.08.026-.216.124-.215.224.002.114.005.05.012.168-.02.01-.02-.005-.03-.025M15.816-2.778c.018.072.007.127-.026.19-.053.1-.112.063-.165.128-.05.063-.1.276-.08.362-.168.058-.01.227-.014.35 0 .05-.04.105-.044.16-.01.12.017.267.068.37.097.2.268.414.435.545.19.148.364.572.607.63.177.043.384-.103.543-.142.18-.043.397.01.57-.053.223-.08.13-.337.29-.45.103-.074.286-.01.405-.05.2-.07.34-.264.376-.46.017-.083.01-.146.04-.222.04-.103.11-.16.09-.293-.01-.062-.052-.12-.064-.187-.022-.114.002-.224 0-.337-.003-.2.017-.38-.078-.55-.38-.688-1.236-.93-1.975-.79-.18.035-.287.127-.442.208-.17.09-.138.167-.317.225-.08.026-.216.124-.215.224.002.114.005.05.012.168-.02.012-.02-.004-.03-.024M8.156-2.778c.018.072.007.127-.026.19-.053.1-.112.063-.165.128-.05.063-.1.276-.08.362-.168.058-.01.227-.014.35-.002.05-.04.105-.044.16-.01.12.017.267.068.37.097.2.268.414.435.545.19.148.364.572.607.63.177.043.384-.103.543-.142.18-.043.397.01.57-.053.223-.08.128-.337.29-.45.103-.074.286-.01.405-.05.2-.07.34-.264.376-.46.017-.083.01-.146.04-.222.038-.103.11-.16.09-.293-.01-.062-.052-.12-.064-.187-.022-.114.002-.224 0-.337-.003-.2.017-.38-.078-.55-.38-.688-1.236-.93-1.975-.79-.18.037-.286.13-.44.21-.17.088-.14.166-.32.224-.08.026-.215.123-.214.223 0 .115.004.05.01.17-.02.01-.02-.006-.03-.026M.495-2.778c.018.072.008.127-.026.19-.053.1-.114.063-.166.128-.05.063-.1.276-.08.362-.168.058-.01.227-.014.35-.002.05-.04.105-.045.16-.01.12.017.267.068.37.097.2.268.414.435.545.19.148.365.572.608.63.178.043.384-.103.543-.142.18-.043.397.01.57-.052.223-.08.128-.337.29-.45.103-.074.286-.01.405-.05.2-.07.34-.264.376-.46.017-.083.01-.146.04-.222.038-.102.11-.16.09-.292-.01-.062-.05-.12-.064-.187-.02-.113.002-.223 0-.336-.003-.2.017-.38-.078-.55-.38-.688-1.236-.93-1.975-.79-.18.036-.286.128-.442.21-.17.087-.138.165-.317.223-.08.026-.215.123-.215.223.002.115.005.05.012.17-.02.01-.022-.006-.03-.026"/></g></pattern><g><path fill="#5B91CC" d="M98.806 82c3.866 0 7-3.134 7-7s-3.134-7-7-7c-1.477 0-2.845.46-3.975 1.24l-9.837-5.68c.015-.185.028-.37.028-.56 0-.19-.013-.375-.027-.56l9.838-5.68c1.13.78 2.5 1.24 3.976 1.24 3.866 0 7-3.134 7-7s-3.134-7-7-7c-1.477 0-2.845.46-3.975 1.24l-9.837-5.68c.015-.185.028-.37.028-.56 0-3.866-3.133-7-7-7-3.865 0-7 3.134-7 7s3.135 7 7 7c1.478 0 2.846-.46 3.976-1.24l9.838 5.68c-.015.185-.028.37-.028.56s.014.375.028.56l-9.838 5.68C80.866 56.46 79.5 56 78.022 56c-1.477 0-2.845.46-3.975 1.24l-9.838-5.68c.014-.185.027-.37.027-.56 0-2.79-1.637-5.193-4-6.317V33.317c2.363-1.124 4-3.527 4-6.317 0-3.866-3.134-7-7-7s-7 3.134-7 7c0 2.79 1.637 5.193 4 6.317v11.365c-2.363 1.124-4 3.526-4 6.317 0 3.865 3.134 7 7 7 1.477 0 2.845-.46 3.975-1.242l9.838 5.68c-.015.186-.028.372-.028.56s.014.376.028.562l-9.838 5.68c-1.13-.78-2.498-1.24-3.975-1.24s-2.845.46-3.975 1.24l-9.838-5.68c.015-.185.028-.37.028-.56 0-2.79-1.637-5.193-4-6.317V45.317c2.363-1.124 4-3.527 4-6.317 0-3.866-3.134-7-7-7s-7 3.134-7 7c0 2.79 1.637 5.193 4 6.317v11.365c-.34.162-.667.346-.975.558l-9.838-5.68c.014-.186.027-.372.027-.56 0-3.867-3.134-7-7-7s-7 3.133-7 7c0 2.79 1.637 5.192 4 6.316V68.68c-2.363 1.125-4 3.527-4 6.318 0 3.866 3.134 7 7 7s7-3.134 7-7c0-2.79-1.637-5.193-4-6.317V57.318c.34-.162.667-.346.975-.558l9.838 5.68c-.015.185-.028.37-.028.56 0 2.79 1.637 5.193 4 6.317v11.365c-2.363 1.124-4 3.526-4 6.317 0 .188.014.374.028.56l-9.838 5.68c-1.13-.78-2.497-1.24-3.974-1.24-3.866 0-7 3.134-7 7s3.134 7 7 7 7-3.134 7-7c0-.19-.014-.376-.028-.56l9.838-5.68c1.13.78 2.497 1.24 3.974 1.24 3.866 0 7-3.134 7-7 0-2.79-1.637-5.193-4-6.317V69.317c.34-.162.667-.346.975-.558l9.838 5.68c-.015.185-.028.37-.028.56 0 2.79 1.637 5.193 4 6.317v11.365c-2.363 1.124-4 3.526-4 6.317 0 .19.014.375.028.56l-9.838 5.68c-1.13-.78-2.497-1.24-3.975-1.24-3.866 0-7 3.134-7 7s3.134 7 7 7 7-3.134 7-7c0-.19-.014-.376-.028-.56l9.838-5.68c.307.212.635.396.975.558v11.365c-2.363 1.124-4 3.526-4 6.317 0 3.866 3.134 7 7 7s7-3.134 7-7c0-.19-.014-.376-.028-.56l9.837-5.68c1.13.78 2.498 1.24 3.975 1.24 3.866 0 7-3.134 7-7s-3.134-7-7-7-7 3.134-7 7c0 .19.014.376.028.56l-9.838 5.68c-.307-.212-.635-.396-.975-.558v-11.365c2.363-1.124 4-3.527 4-6.317 0-.19-.014-.376-.028-.56l9.837-5.68c1.13.78 2.498 1.24 3.975 1.24s2.845-.46 3.975-1.24l9.838 5.68c-.015.184-.03.37-.03.56 0 3.866 3.135 7 7 7 3.867 0 7-3.134 7-7s-3.133-7-7-7c-1.476 0-2.844.46-3.974 1.24l-9.837-5.68c.015-.185.028-.37.028-.56 0-3.866-3.133-7-7-7-3.865 0-7 3.134-7 7 0 .19.015.375.03.56l-9.84 5.68c-.306-.212-.634-.396-.974-.558V81.317c2.363-1.124 4-3.527 4-6.317 0-.19-.014-.375-.028-.56l9.838-5.68c1.13.78 2.5 1.24 3.976 1.24 1.477 0 2.845-.46 3.975-1.24l9.838 5.68c-.015.185-.028.37-.028.56 0 3.866 3.133 7 7 7z"/><path fill-rule="evenodd" clip-rule="evenodd" fill="#58595B" d="M130.57 6.14h1.142v137.72h-1.14z"/><path fill="#58595B" d="M170.176 66.082c3.805 0 6.852-.88 9.066-2.637 2.22-1.71 3.348-4.05 3.348-6.937 0-2.84-1.047-5.012-2.344-6.266-.668-.63-1.547-1.133-2.594-1.586-2.13-.844-3.55-1.047-5.89-1.344-2.048-.207-3.052-.375-4.35-.828-1.335-.465-1.92-1.22-1.92-2.262 0-2.004 1.464-2.883 4.933-2.883 2.383 0 4.008.917 4.934 2.753.628 1.133 1.038 1.344 2.17.836l3.177-1.376c1.21-.508 1.465-1.09.918-2.254-1.965-4.184-5.227-6.15-11.2-6.15-7.565 0-11.913 3.802-11.913 9.364 0 2.965 1.215 5.184 2.59 6.352.672.582 1.637 1.086 2.844 1.508 1.21.414 2.176.664 2.97.793.788.125 1.835.293 3.175.457 3.638.38 5.642 1.133 5.642 3.012 0 2.215-1.836 3.297-5.555 3.297-2.72 0-4.516-.957-5.39-2.883-.548-1.293-1.01-1.46-2.216-1l-3.054 1.082c-1.168.465-1.46.965-1.086 2.176 1.672 4.516 5.602 6.774 11.746 6.774zm37.883-2.176c.374 1.21 1.046 1.547 3.09 1.547h3.14c1.164 0 1.543-.543 1.125-1.672l-9.992-26.663c-.37-1.047-.875-1.336-2.09-1.336h-3.215c-1.215 0-1.715.29-2.09 1.423l-9.992 26.578c-.418 1.13-.04 1.673 1.13 1.673h2.886c2.047 0 2.59-.336 3.05-1.547l1.34-3.93h10.317l1.3 3.93zm-9.82-9.445l2.17-6.52c.67-1.964 1-3.968.958-5.93h.422l.043.79c.043 1.13.457 3.383 1 5.184l2.176 6.476h-6.77zm30.48-.335h9.608c1.3 0 1.72-.375 1.72-1.668v-2.8c0-1.298-.42-1.716-1.72-1.716h-9.61v-5.976h11.704c1.297 0 1.72-.375 1.72-1.672v-2.8c0-1.294-.423-1.712-1.72-1.712h-16.8c-1.298 0-1.716.418-1.716 1.71v26.25c0 1.294.418 1.712 1.715 1.712h3.388c1.297 0 1.71-.418 1.71-1.71v-9.617zm41.855 9.617v-2.8c0-1.216-.504-1.716-1.715-1.716h-12.117v-5.688h9.61c1.3 0 1.71-.414 1.71-1.707v-2.8c0-1.297-.41-1.672-1.71-1.672h-9.61v-5.395h11.7c1.292 0 1.714-.375 1.714-1.672v-2.8c0-1.293-.422-1.71-1.715-1.71h-16.8c-1.294 0-1.716.417-1.716 1.71v26.25c0 1.293.422 1.71 1.715 1.71h17.22c1.297.003 1.715-.415 1.715-1.708zm-83.66 14.324H185.9c-.458 0-.66.203-.66.613v22.91c0 1.27.05 2.944.202 5.026.102 2.086.156 3.453.156 4.117h-.105c-.355-.512-1.066-1.625-2.082-3.3-1.065-1.677-1.93-3-2.593-3.966L163.29 78.422c-.152-.254-.402-.355-.71-.355h-1.013c-.46 0-.664.203-.664.66v34.75c0 .457.203.66.664.66h1.012c.41 0 .612-.203.612-.66V89.8c0-1.163-.055-2.74-.152-4.675-.105-1.926-.152-3.145-.152-3.703h.102c.355.453.965 1.422 1.88 2.992.862 1.578 1.624 2.75 2.233 3.61l18.035 25.706c.152.254.406.406.71.406h1.067c.406 0 .61-.203.61-.66v-34.75c0-.457-.204-.66-.61-.66zm23.187 9.3c-7.11 0-10.977 3.962-10.977 10.618v6.86c0 6.245 3.61 10.003 10.672 10.003 5.133 0 8.738-1.93 10.82-5.79.258-.405.203-.71-.203-.913l-.71-.406c-.356-.207-.657-.105-.915.254-1.83 3.3-4.83 4.98-8.993 4.98-5.535 0-8.484-3-8.484-7.926v-3.457h18.594c.766 0 1.168-.356 1.168-1.122v-2.59c0-6.452-3.81-10.51-10.973-10.51zm8.79 12.446h-17.58v-2.035c0-5.28 3.048-8.484 8.79-8.484 5.742 0 8.79 3.203 8.79 8.484v2.035zm25.777-11.687h-8.075v-5.54c0-.354-.203-.558-.613-.558h-.965c-.406 0-.605.203-.605.56v5.538h-5.492c-.356 0-.56.203-.56.56v.866c0 .356.204.56.56.56h5.492v14.78c0 3.86.758 6.505 2.23 7.876 1.473 1.422 4.117 2.133 7.926 2.082.406 0 .61-.2.61-.605v-.867c0-.402-.204-.61-.61-.61-3.098 0-5.23-.507-6.297-1.573-1.116-1.016-1.675-3.152-1.675-6.348V90.11h8.074c.41 0 .612-.204.612-.56v-.867c0-.355-.203-.558-.613-.558zm41.362 0h-.707c-.563 0-.922.203-1.02.56l-5.484 17.784c-.15.558-.354 1.417-.612 2.59-.305 1.163-.508 1.98-.656 2.386h-.105c-.152-.355-.355-1.168-.66-2.336-.3-1.168-.56-2.03-.762-2.695l-5.59-16.97c-.152-.452-.305-.558-.914-.558h-.507c-.656 0-.813.055-.965.613l-5.637 17.117c-.15.56-.41 1.375-.663 2.54-.305 1.17-.508 1.933-.66 2.288h-.098c-.157-.406-.36-1.223-.614-2.387-.254-1.172-.457-1.934-.61-2.387l-5.538-17.937c-.098-.406-.453-.61-1.012-.61h-.762c-.508 0-.664.157-.46.665l7.823 24.992c.152.406.41.61.766.61h.762c.355 0 .656-.204.81-.61l5.894-18.336c.202-.613.405-1.375.663-2.34.25-.914.355-1.422.402-1.523h.156c.048.2.204.76.454 1.626.203.914.406 1.676.56 2.238l5.995 18.336c.15.406.456.61.812.61h.762c.406 0 .66-.204.816-.61l7.82-24.992c.15-.46.104-.663-.458-.663zm20.09-.758c-6.652 0-10.87 3.453-10.87 8.938v9.656c0 5.485 4.218 8.888 10.87 8.888 6.707 0 10.926-3.402 10.926-8.887v-9.655c0-5.536-4.22-8.938-10.926-8.938zm8.742 18.594c0 4.263-3.453 6.907-8.742 6.907-5.23 0-8.688-2.69-8.688-6.906v-9.706c0-4.215 3.457-6.906 8.688-6.906 5.29 0 8.742 2.637 8.742 6.906v9.707zm26.03-18.593h-1.573c-3.456.047-6.456.555-9.042 1.625-1.578.656-1.934 1.22-1.934 2.79v21.75c0 .4.203.604.61.604h1.015c.354 0 .558-.203.558-.605V92.395c0-.766.355-1.324 1.066-1.68 2.238-.86 4.78-1.32 7.676-1.32h1.625c.355 0 .56-.2.56-.605v-.817c0-.407-.204-.606-.56-.606zm30.34 26.11l-4.675-9.298c-1.118-2.286-2.692-3.657-4.778-4.067l9.043-11.324c.355-.462.254-.665-.406-.665h-.864c-.56 0-.965.156-1.168.46l-8.84 11.173h-6.656V77.152c0-.406-.203-.61-.61-.61h-.964c-.406 0-.61.204-.61.61v36.38c0 .4.204.604.61.604h.965c.406 0 .61-.203.61-.605V101.74h6.397c2.695 0 4.22.97 5.387 3.355l4.22 8.535c.147.355.503.508.964.508h1.017c.456 0 .557-.202.358-.66z"/></g></svg>