<svg xmlns="http://www.w3.org/2000/svg" viewBox="0 0 120 130" enable-background="new 0 0 120 130"><path fill="#5B91CC" d="M101.572 72c3.866 0 7-3.134 7-7s-3.134-7-7-7c-1.477 0-2.845.46-3.975 1.24l-9.838-5.68c.014-.185.027-.37.027-.56 0-.19-.014-.375-.028-.56l9.837-5.68c1.13.78 2.498 1.24 3.975 1.24 3.866 0 7-3.134 7-7s-3.134-7-7-7c-1.477 0-2.845.46-3.975 1.24l-9.838-5.68c.014-.185.027-.37.027-.56 0-3.866-3.134-7-7-7s-7 3.134-7 7 3.134 7 7 7c1.477 0 2.845-.46 3.975-1.24l9.838 5.68c-.015.185-.028.37-.028.56s.014.375.028.56l-9.838 5.68c-1.13-.78-2.497-1.24-3.974-1.24-1.477 0-2.845.46-3.975 1.24l-9.838-5.68c.015-.185.028-.37.028-.56 0-2.79-1.637-5.193-4-6.317V23.317c2.363-1.124 4-3.527 4-6.317 0-3.866-3.134-7-7-7s-7 3.134-7 7c0 2.79 1.637 5.193 4 6.317v11.365c-2.363 1.124-4 3.526-4 6.317 0 3.865 3.134 7 7 7 1.477 0 2.845-.46 3.975-1.242l9.838 5.68c-.015.186-.028.372-.028.56s.014.376.028.562l-9.838 5.68c-1.13-.78-2.498-1.24-3.975-1.24s-2.845.46-3.975 1.24l-9.838-5.68c.015-.185.028-.37.028-.56 0-2.79-1.637-5.193-4-6.317V35.317c2.363-1.124 4-3.527 4-6.317 0-3.866-3.134-7-7-7s-7 3.134-7 7c0 2.79 1.637 5.193 4 6.317v11.365c-.34.162-.667.346-.975.558l-9.838-5.68c.015-.186.028-.372.028-.56 0-3.867-3.134-7-7-7s-7 3.133-7 7c0 2.79 1.637 5.192 4 6.316V58.68c-2.363 1.125-4 3.527-4 6.318 0 3.866 3.134 7 7 7s7-3.134 7-7c0-2.79-1.637-5.193-4-6.317V47.318c.34-.162.667-.346.975-.558l9.838 5.68c-.015.185-.028.37-.028.56 0 2.79 1.637 5.193 4 6.317v11.365c-2.363 1.124-4 3.526-4 6.317 0 .188.014.374.028.56l-9.838 5.68c-1.13-.78-2.497-1.24-3.974-1.24-3.866 0-7 3.134-7 7s3.134 7 7 7 7-3.134 7-7c0-.19-.014-.376-.028-.56l9.838-5.68c1.13.78 2.497 1.24 3.974 1.24 3.866 0 7-3.134 7-7 0-2.79-1.637-5.193-4-6.317V59.317c.34-.162.667-.346.975-.558l9.838 5.68c-.014.185-.027.37-.027.56 0 2.79 1.637 5.193 4 6.317v11.365c-2.363 1.124-4 3.526-4 6.317 0 .19.014.375.028.56l-9.837 5.68c-1.13-.78-2.497-1.24-3.975-1.24-3.866 0-7 3.134-7 7s3.134 7 7 7 7-3.134 7-7c0-.19-.014-.376-.028-.56l9.838-5.68c.307.212.635.396.975.558v11.365c-2.363 1.124-4 3.526-4 6.317 0 3.866 3.134 7 7 7s7-3.134 7-7c0-.19-.014-.376-.028-.56l9.838-5.68c1.13.78 2.497 1.24 3.975 1.24 3.866 0 7-3.134 7-7s-3.134-7-7-7-7 3.134-7 7c0 .19.014.376.028.56l-9.838 5.68c-.307-.212-.635-.396-.975-.558V95.317c2.363-1.124 4-3.527 4-6.317 0-.19-.014-.376-.028-.56l9.838-5.68c1.13.78 2.497 1.24 3.975 1.24s2.845-.46 3.975-1.24l9.838 5.68c-.014.185-.027.37-.027.56 0 3.866 3.134 7 7 7s7-3.134 7-7-3.134-7-7-7c-1.477 0-2.845.46-3.975 1.24l-9.838-5.68c.015-.185.028-.37.028-.56 0-3.866-3.134-7-7-7s-7 3.134-7 7c0 .19.014.375.028.56l-9.838 5.68c-.307-.212-.635-.396-.975-.558V71.317c2.363-1.124 4-3.527 4-6.317 0-.19-.014-.375-.028-.56l9.838-5.68c1.13.78 2.497 1.24 3.975 1.24 1.477 0 2.845-.46 3.975-1.24l9.838 5.68c-.014.185-.027.37-.027.56 0 3.866 3.133 7 7 7z"/></svg>