<svg xmlns="http://www.w3.org/2000/svg" width="1389.832" height="354.587" viewBox="0 0 1389.8317 354.58668"><title>safecoin RGB No Shadow</title><desc>@100 base units</desc><path d="M514.96 218.377c0 12.824-4.724 22.948-13.497 29.022-8.774 6.748-22.273 10.122-39.82 10.122-9.45 0-16.873-.675-23.623-2.024-6.75-1.35-12.823-3.375-18.222-5.4v-28.346c6.75 2.7 13.498 5.4 21.597 7.424 8.1 2.025 14.848 2.7 20.922 2.7 12.15 0 18.898-3.375 18.898-10.8 0-2.698-.675-4.723-2.7-6.748-1.35-1.35-4.724-3.375-8.773-5.4-4.05-2.024-9.45-4.724-16.198-7.423-9.45-4.05-16.873-8.1-20.922-11.474-4.725-3.373-8.1-7.423-10.124-12.147-2.025-4.725-3.375-10.124-3.375-16.198 0-10.8 4.05-19.573 12.823-25.647 8.774-6.074 20.923-9.45 36.446-9.45 14.848 0 29.696 3.376 43.87 10.125l-10.124 24.972c-6.075-2.7-12.15-4.725-17.548-6.75-5.4-2.024-10.8-2.7-16.873-2.7-10.124 0-14.848 2.7-14.848 8.1 0 3.374 1.348 5.4 4.723 8.1 3.375 2.024 10.124 5.398 21.597 10.123 9.45 4.05 16.873 7.424 21.598 10.798 4.724 3.375 8.1 7.424 10.124 12.15 2.7 5.398 4.05 10.797 4.05 16.872zm105.963 37.796l-6.75-17.548h-.674c-6.076 6.75-11.475 12.148-17.55 14.848-6.074 2.7-14.172 4.05-23.62 4.05-12.15 0-21.6-3.375-28.348-10.124-6.75-6.75-10.124-16.874-10.124-29.023 0-13.498 4.725-22.947 14.174-29.696 9.448-6.073 23.622-10.123 42.52-10.798l21.597-.675v-4.724c0-12.823-6.75-18.898-19.574-18.898-10.124 0-21.597 2.7-35.096 8.774l-11.473-22.948c14.173-7.424 30.37-11.473 47.92-11.473 16.872 0 29.695 3.373 38.47 10.797 8.773 7.424 13.498 18.223 13.498 33.07v83.69h-24.972v.676zm-9.45-58.043l-13.497.675c-10.124 0-17.548 2.025-22.273 5.4-4.724 3.374-7.424 8.098-7.424 14.847 0 9.45 5.4 14.173 16.872 14.173 8.1 0 14.173-2.024 18.898-6.75 4.725-4.723 7.424-10.797 7.424-18.22V198.13zm138.358-41.845h-30.37v99.888h-33.745v-99.888h-18.898v-16.873l18.898-9.448v-9.45c0-14.173 3.374-24.97 10.798-31.046 6.75-6.75 18.223-10.123 33.746-10.123 11.473 0 22.27 2.025 31.72 5.4l-8.774 24.97c-6.75-2.024-13.498-3.373-18.898-3.373-4.724 0-8.774 1.35-10.798 4.05-2.025 2.7-3.375 6.748-3.375 10.798v8.1h30.37v26.995h-.674zm75.592 101.913c-20.247 0-35.77-5.4-47.244-16.873-11.473-10.8-16.873-26.997-16.873-47.244 0-20.922 5.4-37.12 15.523-48.593 10.8-11.474 24.972-16.873 43.195-16.873 17.548 0 31.046 4.724 41.17 14.848 10.123 10.124 14.173 24.297 14.173 41.845v16.198H795.05c.676 9.448 3.375 17.547 8.775 22.947 5.4 5.4 12.823 8.1 22.947 8.1 7.424 0 14.173-.676 20.922-2.026 6.75-1.35 14.174-4.05 20.923-7.424v26.32c-6.074 2.7-12.148 5.4-18.898 6.75-6.075 1.35-14.174 2.025-24.298 2.025zm-4.724-105.287c-7.424 0-12.824 2.026-16.873 6.75-4.05 4.724-6.75 10.798-6.75 19.572h47.92c0-8.1-2.025-14.848-6.75-19.572-4.724-4.725-10.123-6.75-17.547-6.75z" fill="#5892cd"/><path d="M955.006 258.197c-39.145 0-58.718-21.597-58.718-64.117 0-21.597 5.4-37.795 16.198-48.594 10.8-11.473 25.647-16.872 45.895-16.872 14.174 0 27.672 2.7 39.146 8.774l-10.124 26.32c-5.4-2.023-10.124-4.048-14.848-5.398-4.724-1.35-9.45-2.025-14.173-2.025-17.547 0-26.996 12.824-26.996 37.796 0 24.298 8.774 36.446 26.997 36.446 6.75 0 12.824-.675 18.223-2.7 5.4-2.024 10.8-4.724 16.873-8.1v29.023c-6.074 3.373-10.798 6.073-16.873 7.423-5.4 1.35-12.823 2.024-21.597 2.024zm181.552-65.466c0 20.248-5.4 36.446-16.198 47.92-10.798 11.473-25.646 17.547-45.22 17.547-12.147 0-22.946-2.7-31.72-8.1-9.45-5.398-16.198-12.822-20.922-22.945-4.725-10.124-7.425-21.598-7.425-34.42 0-20.25 5.4-36.447 16.198-47.92 10.8-11.474 25.648-16.873 45.22-16.873 12.15 0 22.948 2.7 31.722 8.098 9.448 5.4 16.198 12.823 20.922 22.272 4.725 10.124 7.424 21.597 7.424 34.42zm-87.064 0c0 12.15 2.025 21.598 6.074 28.347 4.05 6.074 10.8 9.45 19.573 9.45 8.775 0 15.524-3.376 19.573-9.45 4.05-6.074 6.075-15.523 6.075-28.346 0-12.148-2.025-21.597-6.075-27.67-4.05-6.075-10.798-9.45-19.572-9.45-9.448 0-15.522 3.375-19.572 9.45-4.05 6.073-6.074 15.522-6.074 27.67zm113.386-94.487c0-10.8 6.074-16.874 18.898-16.874 12.148 0 18.897 5.4 18.897 16.872 0 5.4-1.35 9.45-4.724 12.15-3.373 2.7-7.423 4.723-14.172 4.723-12.824 0-18.898-5.4-18.898-16.873zm36.446 157.93h-35.096V130.638h35.096v125.535zm150.506 0h-33.746v-73.566c0-8.774-2.025-15.523-5.4-20.248-3.374-4.725-8.773-6.75-15.523-6.75-9.448 0-16.198 3.375-20.922 9.45-4.048 6.073-6.073 16.872-6.073 31.72v59.393h-35.096V130.638h26.323l4.724 16.198h2.025c4.05-6.75 8.774-10.798 15.523-14.173 6.75-3.374 14.173-4.724 22.947-4.724 14.848 0 25.647 4.048 33.07 11.472 7.425 8.1 11.474 18.898 11.474 33.746v83.015h.676z" fill="#6eaadc"/><desc>DELETED the shadow ----------------------<radialGradient id="a" cx="280.136" cy="10859.285" r="5.106" gradientTransform="matrix(41.847 0 0 -2.909 -11509.1 31916.954)" gradientUnits="userSpaceOnUse"><stop offset="0" stop-color="#050505"/><stop offset=".013" stop-color="#0C0C0C" stop-opacity=".987"/><stop offset=".129" stop-color="#444" stop-opacity=".871"/><stop offset=".247" stop-color="#767676" stop-opacity=".753"/><stop offset=".367" stop-color="#A0A0A0" stop-opacity=".633"/><stop offset=".488" stop-color="#C2C2C2" stop-opacity=".512"/><stop offset=".61" stop-color="#ddd" stop-opacity=".39"/><stop offset=".735" stop-color="#F0F0F0" stop-opacity=".265"/><stop offset=".863" stop-color="#FBFBFB" stop-opacity=".137"/><stop offset="1" stop-color="#fff" stop-opacity="0"/></radialGradient><path d="M439.37 329.064c0 8.1-98.537 15.523-219.347 15.523S0 337.837 0 329.064c0-8.1 98.538-14.848 220.023-14.848s219.347 6.75 219.347 14.848z" fill="url(#a)"/>-------------------------------------------------remove the desc and /desc lines to add back the shadow</desc><desc>This is the safecoin_mark with radius of 152.2000 units == scale of 1.522 Std radius is 100.0000 translate(131.80907 152.2000) will move the symbol to the origin 0,0 - need to add X=88.0000, Y=25.0000 to place it correctly so it become translate(219.80907 177.2000)</desc><path fill="#5892CD" d="M219.81 329.4l131.808-76.1v-50.162l-65.904-38.05V139.15L219.81 101.1l-48.246 27.855 150.693 87.003v20.39l-102.448 59.15-102.45-59.15v-42.196L88 177.2v76.1z"/><path fill="#6EAADC" d="M219.81 25L88 101.1v50.162l65.904 38.05v25.938l65.905 38.05 48.244-27.855-150.693-87.003v-20.39l102.45-59.15 102.447 59.15v42.196l29.36 16.952v-76.1z"/></svg>