<svg xmlns="http://www.w3.org/2000/svg" viewBox="0 0 414 414" enable-background="new 0 0 414 414"><style type="text/css">.st0{opacity:0.2;fill:url(#XMLID_2_);} .st1{fill:#5592D7;} .st2{fill:#C9C9CC;} .st3{fill:#B2B2B2;} .st4{fill:#EDEDED;} .st5{fill:#DBDBDB;} .st6{fill:#FFFFFF;} .st7{opacity:0.8;fill:#F9CB64;} .st8{opacity:0.6;fill:#FFD958;}</style><radialGradient id="XMLID_2_" cx="-3132.76" cy="3541.917" r="210.901" gradientTransform="matrix(.707 .707 -.707 .707 4923.117 -102.263)" gradientUnits="userSpaceOnUse"><stop offset="0" stop-color="#5592D7" stop-opacity=".3"/><stop offset=".919" stop-color="#5592D7" stop-opacity=".943"/><stop offset="1" stop-color="#5592D7"/></radialGradient><path id="XMLID_362_" class="st0" d="M350.9 30.1c-2.9 2.9-4.1 6.7-3.7 10.5l-50.7 10.5c-.6-1.9-1.6-3.7-3.1-5.3-5.1-5.1-13.2-5.1-18.3 0-.5.5-1 1.1-1.4 1.7L225 19.9c2.1-4.7 1.2-10.5-2.7-14.4-5.1-5.1-13.2-5.1-18.3 0-2.3 2.3-3.5 5.3-3.7 8.3L132 16.2c-.4-2.7-1.5-5.3-3.6-7.4-5.1-5.1-13.2-5.1-18.3 0-5.1 5.1-5.1 13.2 0 18.3 1.7 1.7 3.7 2.7 5.8 3.3L102.4 112c-3.1.2-6.1 1.4-8.4 3.7-2.7 2.7-3.9 6.2-3.7 9.7L27 143.2c-.6-1.6-1.6-3.1-2.9-4.4-5.1-5.1-13.2-5.1-18.3 0-5.1 5.1-5.1 13.2 0 18.3 2.4 2.4 5.5 3.6 8.6 3.7l2.9 47.6c-2.6.4-5.1 1.6-7.1 3.6-5.1 5.1-5.1 13.2 0 18.3 5.1 5.1 13.2 5.1 18.3 0 .1-.1.2-.3.3-.4l32.2 24c-3 5-2.4 11.5 1.9 15.8 1.1 1.1 2.4 1.9 3.7 2.6L49.4 322c-4.2-1-8.8.1-12.1 3.4-5.1 5.1-5.1 13.2 0 18.3 5.1 5.1 13.2 5.1 18.3 0 2.1-2.1 3.2-4.7 3.6-7.3l72.8 3c.2 3 1.4 6.1 3.7 8.4 4.8 4.8 12.4 5 17.5.7l44.5 43c-4 5.1-3.7 12.4 1 17.1 5.1 5.1 13.2 5.1 18.3 0 3.9-3.9 4.8-9.8 2.6-14.6l67.6-40 1.2 1.5c5.1 5.1 13.2 5.1 18.3 0 4.9-4.9 5-12.8.3-17.9l84.7-95.7c5.1 3.6 12.1 3.2 16.7-1.3 5.1-5.1 5.1-13.2 0-18.3-2.9-2.9-6.9-4.1-10.8-3.6l-15-64.7c1.8-.6 3.5-1.6 4.9-3 5.1-5.1 5.1-13.2 0-18.3-2.8-2.8-6.4-4-10-3.7l-13.9-77.2c2-.6 4-1.6 5.6-3.2 5.1-5.1 5.1-13.2 0-18.3-5.1-5.3-13.3-5.3-18.3-.2zm-38.4 188.1c-2.6-1.8-5.7-2.5-8.7-2.2L290 148.8c1.9-.6 3.8-1.6 5.3-3.1 2-2 3.2-4.5 3.6-7.1l66.6 3.7c.1 3.1 1.3 6.1 3.7 8.5l-56.7 67.4zm77.2 21.9L305 335.8c-1.6-1.2-3.5-2-5.4-2.3l6-91.8c3.2-.1 6.3-1.3 8.7-3.7 2.1-2.1 3.3-4.8 3.6-7.5l68.4 1.9c.3 2.7 1.4 5.5 3.4 7.7zM199.5 389.5l-44.5-43c2.7-3.4 3.4-7.7 2.2-11.7l62.3-25.7c.6 1.1 1.3 2.1 2.2 3.1 1.4 1.4 3.1 2.4 4.9 3l-17.1 71.3c-3.5-.4-7.1.6-10 3zM28.7 212.3l66.9-76.9c.9.6 1.8 1.1 2.7 1.5l-12.1 43.3c-4-.7-8.3.5-11.4 3.6-3.5 3.5-4.5 8.6-3.1 13.1l-41.3 18c-.3-1-.9-1.9-1.7-2.6zM205 24.6c1.7 1.4 3.6 2.4 5.6 2.8L204.2 90c-3.3 0-6.7 1.2-9.2 3.8-2.9 2.9-4.1 6.8-3.6 10.6l-76 16.5c-.6-1.9-1.6-3.7-3.1-5.2l-.3-.3 93-90.8zm78.3 43.2l1.3 56c-2.8.3-5.4 1.5-7.6 3.6-.9.9-1.6 2-2.2 3.1l-58.3-23.9c.9-3 .7-6.3-.7-9.1l58.1-34.8c.4.5.7 1 1.2 1.5 2.3 2.2 5.2 3.4 8.2 3.6zM239 293.1c-2-1.6-4.4-2.6-6.8-2.8l.3-58.2c2.9-.3 5.7-1.5 7.9-3.7 1.8-1.8 2.9-3.9 3.4-6.2l48.5 6.2c-.1 3 .9 6.1 3 8.6L239 293.1zm-91.5 32.8l6.1-58.6c3.3 0 6.7-1.2 9.2-3.8.4-.4.7-.8 1-1.2l55.5 35c-1.5 3-1.7 6.3-.8 9.4l-62.3 25.7c-.6-1.1-1.3-2.1-2.2-3.1-1.9-1.7-4.1-2.9-6.5-3.4zm-64.6-72.4l74.8-60.3.1.1c1.6 1.6 3.5 2.6 5.5 3.2l-8.5 45.1c-3.7-.3-7.4.9-10.2 3.7-2.4 2.4-3.7 5.6-3.8 8.8l-56 4.3c-.3-1.7-1-3.4-1.9-4.9zm5.9-72.6l12.1-43.3c3.7.6 7.7-.4 10.7-3l44.9 41.8c-1.8 2.3-2.7 5.1-2.7 7.9l-57.1 6.1c-.5-2.4-1.7-4.7-3.5-6.5-1.3-1.4-2.8-2.4-4.4-3zm140.8 109.3c-2.9.3-5.7 1.5-7.9 3.7-.4.4-.7.8-1 1.2l-55.5-35c1.5-3.1 1.8-6.6.7-9.9l54.2-24.6c.6 1 1.2 1.9 2 2.7 2.2 2.2 5 3.4 7.8 3.7l-.3 58.2zM176 193.3c.6-.6 1.1-1.2 1.5-1.9l41.8 22.8c-1.2 2.9-1.3 6.2-.3 9.1l-54.2 24.6c-.6-1-1.2-1.9-2-2.7-1.6-1.6-3.5-2.6-5.5-3.2l8.5-45.1c3.6.4 7.4-.8 10.2-3.6zm46.1 16.8c-.6.6-1.1 1.2-1.5 1.9l-41.8-22.8c1.1-2.7 1.3-5.7.5-8.6l95.5-38.1c.6 1.1 1.3 2.2 2.3 3.2.3.3.7.5 1 .8l-40.7 61.4c-5.1-2.6-11.2-1.9-15.3 2.2zm51.6-70l-95.5 38.1c-.6-1.1-1.3-2.2-2.3-3.2-.8-.8-1.7-1.4-2.6-2l26.6-57.9c4.5 1.5 9.7.6 13.3-3 .9-.9 1.6-2 2.2-3.1l58.3 23.9c-.6 2.3-.6 4.8 0 7.2zM197.6 114L171 171.9c-4.3-1.5-9.1-.6-12.7 2.5l-44.9-41.8c2.1-2.7 2.9-6 2.5-9.2l76-16.5c.6 1.9 1.6 3.7 3.1 5.2.8.7 1.7 1.4 2.6 1.9zM296 219.6c-1.8 1.8-2.9 3.9-3.4 6.2l-48.5-6.2c.1-3.4-1.1-6.9-3.8-9.5-.3-.3-.7-.5-1-.8l40.7-61.4c2.3 1.2 4.8 1.7 7.3 1.4l13.9 67.1c-1.8.7-3.7 1.7-5.2 3.2zM93.3 202.1c2.5-2.5 3.8-5.9 3.8-9.2l57.1-6.1c.3 1.6.9 3.1 1.8 4.4l-74.8 60.3-.1-.1c-1.6-1.6-3.6-2.7-5.6-3.2l7.6-42.5c3.7.3 7.4-.9 10.2-3.6zm-11.6 67c2.1-2.3 3.1-5.2 3.2-8.2l56-4.3c.4 2.5 1.6 4.9 3.6 6.9 1.9 1.9 4.1 3 6.5 3.5l-6.1 58.6c-2.8 0-5.5.9-7.9 2.7l-55.3-59.2zm159.1 25.8l56.2-56.1c1.8 1.4 3.8 2.4 5.9 2.7l-6 91.8c-3.2.1-6.3 1.3-8.7 3.7-.3.3-.6.7-.9 1.1l-45.1-29.2c2.4-4.4 1.9-9.9-1.4-14zm124.8-155.2L299 136c-.1-3.1-1.4-6.2-3.7-8.6-2.3-2.3-5.2-3.5-8.1-3.7l-1.3-56c2.5-.3 4.9-1.4 7-3.1l75.2 69.3c-1.4 1.7-2.2 3.7-2.5 5.8zm-93.1-90c-1.5 3.4-1.4 7.3.1 10.7l-58.1 34.8c-.4-.5-.7-1-1.2-1.5-1.9-1.9-4.1-3-6.5-3.5l6.5-62.6c3.3 0 6.7-1.2 9.2-3.8.5-.5 1-1.1 1.4-1.7l48.6 27.6zM128.4 27.1c2.3-2.3 3.5-5.3 3.7-8.3l68.4-2.4c.3 2.3 1.2 4.4 2.7 6.3l-93.3 91.1c-1.5-.9-3.2-1.5-4.9-1.8l13.4-81.2c3.6.3 7.3-.9 10-3.7zM90.6 128c.5 2.1 1.5 4 3.1 5.7l-66.9 76.9c-2.1-1.5-4.5-2.3-6.9-2.4L17 160.6c2.6-.4 5.1-1.6 7.1-3.6 3.1-3.1 4.3-7.4 3.6-11.4L90.6 128zm-60.2 99.8c1.9-3.2 2.3-7.1 1.2-10.6l41.3-18c.6 1 1.2 2 2.1 2.8 1.6 1.6 3.6 2.7 5.6 3.2L73 247.8c-3.6-.3-7.3.9-10.1 3.7-.1.1-.2.3-.3.4l-32.2-24.1zM69 273.2c3.7.9 7.6.1 10.8-2.3l55.3 59.2c-1.7 1.9-2.7 4.3-3.1 6.7l-72.8-3c-.2-3-1.4-6.1-3.7-8.4-1.1-1.1-2.4-1.9-3.7-2.6L69 273.2zm149.2 118.5l-1.2-1.5c-1.4-1.4-3.1-2.4-4.9-3l17.1-71.3c3.9.5 7.9-.7 10.9-3.6.3-.3.6-.7.9-1.1l45.1 29.2c-1.8 3.5-1.9 7.7-.2 11.3l-67.7 40zM395 219.1c-1.8.6-3.5 1.6-5 3.1-2.1 2.1-3.3 4.8-3.6 7.5l-68.4-1.9c-.2-2.9-1.4-5.7-3.5-8l56.7-67.4c2.7 1.8 5.9 2.4 8.9 2l14.9 64.7zm-20.1-89.8c-1.8.5-3.6 1.4-5.1 2.7l-75.2-69.3c2-2.7 2.8-5.9 2.5-9.1l50.7-10.5c.6 1.9 1.6 3.7 3.1 5.3 2.8 2.8 6.5 4 10.1 3.7l13.9 77.2z"/><path d="M320.3 251.3h-232v-134c0-2.8 2.3-5.2 5.2-5.2h221.6c2.8 0 5.2 2.3 5.2 5.2v134z"/><path class="st1" d="M97.6 121.4H311V242H97.6z"/><path class="st2" d="M315.2 271.9H93.5c-2.8 0-5.2-2.3-5.2-5.2v-15.5h232v15.5c0 2.9-2.3 5.2-5.1 5.2zM225.5 295.7h-42.3l2.1-23.8h38.1zM168.8 295.7h71.1v6.2h-71.1z"/><circle cx="204.3" cy="261.6" r="5.2"/><path class="st3" d="M224.4 285.4l-1-13.5h-38.1l-1.1 9.3z"/><circle class="st4" cx="204.3" cy="181.7" r="36.5"/><path class="st1" d="M217.9 171.1l-16.7 16.8-8.5-8.5-4.2 4.2 8.5 8.5 4.2 4.2 4.3-4.2 16.7-16.7z"/><path class="st2" d="M81.6 250.9v-32c0-14.9 12.1-27 27-27v-10c-20.4 0-37 16.6-37 37v42h37v-10h-27z"/><path class="st5" d="M106.6 181.9l1 10c14.9 0 28 12.1 28 27v32h-27v10h37v-42c0-20.3-18.6-37-39-37z"/><path class="st6" d="M113.6 313.9h-48c-2.8 0-5-2.3-5-5v-69c0-2.8 2.3-5 5-5h48v79z"/><path class="st7" d="M113.6 313.9h-48c-2.8 0-5-2.3-5-5v-69c0-2.8 2.3-5 5-5h48v79z"/><path class="st6" d="M110.6 313.9h41c2.8 0 5-2.3 5-5v-69c0-2.8-2.3-5-5-5h-45l4 79z"/><path class="st8" d="M110.6 313.9h41c2.8 0 5-2.3 5-5v-69c0-2.8-2.3-5-5-5h-45l4 79z"/><circle cx="108.6" cy="268.9" r="12"/><path d="M103.6 267.9h10v28h-10z"/></svg>