<svg xmlns="http://www.w3.org/2000/svg" viewBox="-265.2 506.7 440 420" enable-background="new -265.2 506.7 440 420"><style type="text/css">.st0{fill:url(#SVGID_1_);} .st1{fill:#424242;} .st2{fill:#262626;} .st3{fill:#C9C9CC;} .st4{fill:#5592D7;} .st5{fill:#E2E2E2;} .st6{fill:#FFFFFF;} .st7{opacity:0.6;fill:#FFFFFF;} .st8{opacity:0.2;fill:#FFFFFF;} .st9{fill:#898989;} .st10{fill:#FFB600;} .st11{fill:#DCDAD9;} .st12{fill:#474747;}</style><radialGradient id="SVGID_1_" cx="34.451" cy="697.5" r="159.549" gradientUnits="userSpaceOnUse"><stop offset="0" stop-color="#5592D7"/><stop offset="1" stop-color="#5592D7" stop-opacity="0"/></radialGradient><path class="st0" d="M71.6 544.2c-2.6.5-4.9 1.9-6.5 3.8l-47.4-32h-4l50 33.8c-.8 1.5-1.3 3.2-1.3 5.1l-90 6.8c-.5-2.7-1.9-5.1-3.9-6.7l26-39h-2.7l-25.2 37.7c-1.6-.8-3.4-1.3-5.3-1.3-6.2 0-11.3 5-11.3 11.3 0 .9.1 1.7.3 2.5L-96.2 582c-.8-1.7-1.9-3.1-3.4-4.2v17.6c2.8-2 4.6-5.3 4.6-9.1 0-.9-.1-1.7-.3-2.5l46.7-15.9c1.8 3.9 5.7 6.6 10.2 6.6 1.8 0 3.4-.4 4.9-1.1l10.1 32.2c-2.7 2.1-4.4 5.3-4.4 8.9 0 6.2 5 11.2 11.3 11.2.7 0 1.4-.1 2.1-.2l45.1 62.7c-2.7 2.1-4.5 5.3-4.5 9 0 2.4.7 4.5 2 6.4L-15 745.9c-1.3-.6-2.7-1-4.3-1.1h-.6c-1.6 0-3 .3-4.4.9-1 .4-1.9 1-2.8 1.7-.8.7-1.6 1.5-2.2 2.4-1.2 1.8-1.9 4-1.9 6.3 0 .4 0 .8.1 1.2v.3c0 .3.1.6.1.8 0 .1.1.2.1.3.1.3.1.5.2.8 0 .1.1.2.1.3.1.3.2.6.3.8 0 .1.1.1.1.2.1.3.3.6.4.8l.1.1c.2.3.4.6.6.8 0 0 0 .1.1.1.2.3.4.6.7.8l.8.8 1.5 49.3c-1.7-1-3.6-1.5-5.6-1.5-6.2 0-11.3 5-11.3 11.3 0 1 .2 2 .4 3l-46.3 18c-1.9-3.6-5.6-6.1-10-6.1h-.8v22.9h.7c1.2 0 2.3-.2 3.4-.5l8 18.3h2.4l-8.4-19.3c3.4-1.9 5.8-5.6 5.8-9.8 0-1-.2-2-.4-3l46.3-18c1.1 2.2 2.9 4 5.2 5L-52.8 879h2.4l15.9-44.3c.9.2 1.8.3 2.7.3 1.5 0 2.9-.3 4.2-.8L-6.2 875c-1.5 1-2.8 2.4-3.7 4H9.8c-.3-.6-.7-1.2-1.1-1.7l45.6-45.1c1.9 1.6 4.4 2.6 7.2 2.6 1.3 0 2.5-.2 3.7-.6L86 879h2.6l-21.3-45.9c3.2-1.9 5.4-5.3 5.5-9.3l54.7-3.6c.5 3 2.2 5.6 4.6 7.3l-29 51.5h2.3l28.6-50.6c1.4.6 2.9 1 4.5 1 6.2 0 11.3-5 11.3-11.3 0-5-3.3-9.3-7.9-10.7l14.2-67.5c.4 0 .8.1 1.2.1 6.2 0 11.3-5 11.3-11.3.1-6.3-4.9-11.3-11.1-11.4l-11-111.8c5.2-1 9-5.6 9-11 0-6.2-5-11.3-11.3-11.3-3.8 0-7.1 1.9-9.2 4.8l-51-28.8c.6-1.4 1-2.9 1-4.5 0-6.2-5-11.2-11.1-11.2L71.5 516h-2.4l2.5 28.2zm-88.3 59.4c-1.8 0-3.4.4-4.9 1.1l-10.1-32.2c2.6-2 4.3-5.1 4.4-8.7l90-6.8c.4 2.3 1.5 4.4 3.1 6l-76.3 42.4c-1.8-1.1-3.9-1.8-6.2-1.8zm4.2 21.6c3.1-1.2 5.4-3.8 6.5-6.9l81.4 34.8c0 .4-.1.8-.1 1.3 0 2.2.7 4.3 1.8 6l-32.3 28.3-.1.1c-2-1.8-4.6-2.9-7.5-2.9-1.9 0-3.7.5-5.2 1.3l-44.5-62zm158.6 105.6l-45.7 11.8c-1.5-4.1-5.3-7-9.8-7.3L88 665.5c2-.3 3.8-1.1 5.3-2.2l55.4 58.5c-1.7 2-2.7 4.5-2.7 7.3 0 .5.1 1.1.1 1.7zm-57.7 4.5c-2.5.3-4.7 1.5-6.4 3.2l-35.7-34.7c1.4-1.9 2.2-4.2 2.2-6.7s-.8-4.8-2.2-6.7l32.1-28.3c1.9 2 4.5 3.2 7.4 3.4l2.6 69.8zm-58.9-30c2 1.9 4.7 3.1 7.8 3.1 2.9 0 5.5-1.1 7.5-2.9l35.8 34.8c-1.2 1.8-1.9 3.9-1.9 6.2 0 .8.1 1.7.3 2.5l-88.9 2.8c-.7-1.6-1.9-3.1-3.2-4.2l42.6-42.3zm-54.7 61.1s.1 0 .1.1c.3.2.7.3 1 .4.1 0 .2.1.3.1.2.1.3.1.5.1.2.1.4.1.6.2.1 0 .3.1.4.1.3.1.5.1.8.1h.3c.3 0 .7.1 1 .1.4 0 .8 0 1.1-.1.2 0 .4-.1.6-.1s.3 0 .5-.1c.3-.1.5-.1.8-.2.1 0 .2 0 .3-.1l.9-.3h.1c.3-.1.6-.3 1-.5 1-.5 1.8-1.2 2.6-1.9l64.4 52.9c-1 1.5-1.7 3.3-1.9 5.2l-70.9.2c-.3-2.9-1.7-5.4-3.7-7.2l-1.5-49.3c.3.1.5.2.7.3zM7.2 875.7c-1.9-1.6-4.4-2.6-7.2-2.6-1.5 0-2.9.3-4.2.8l-21.4-40.8c2.8-1.8 4.7-4.8 5-8.3l70.9-.2c.2 2.4 1.1 4.4 2.5 6L7.2 875.7zm57.1-63c-.9-.2-1.8-.4-2.8-.4-3.1 0-5.9 1.2-7.9 3.2l-64.4-52.9c.2-.3.3-.5.5-.8.1-.1.1-.2.2-.3l.3-.6c0-.1.1-.2.1-.3l.3-.9v-.1c.1-.3.2-.6.2-1 0-.1 0-.2.1-.3 0-.2.1-.5.1-.7v-.3c0-.3.1-.7.1-1 0-.3-.1-.7-.1-1.2-.1-.4-.1-.8-.2-1.2l88.9-2.8c1.1 2.4 3 4.4 5.3 5.5l-20.7 56.1zm63 5.6l-54.7 3.6c-.6-3.6-3-6.7-6.2-8.2l20.7-56.3c.9.2 1.8.4 2.8.4 1.9 0 3.7-.5 5.3-1.3l36.1 53.5c-2.4 2-3.9 4.9-4 8.3zm12.4-11c-.4 0-.8-.1-1.2-.1-1.9 0-3.7.5-5.3 1.3L97.1 755c2.5-2.1 4.1-5.2 4.1-8.6 0-.6-.1-1.2-.1-1.7l45.7-11.8c1.2 3.2 3.8 5.8 7.1 6.8l-14.2 67.6zM137 603.9c1.9 1.5 4.3 2.4 7 2.4l11 111.8c-1.7.3-3.3 1-4.6 2.1L95 661.7c1.7-2 2.7-4.5 2.7-7.3s-1-5.3-2.7-7.2l42-43.3zm-54.1-42.3l50.9 28.8c-.6 1.4-1 2.9-1 4.5 0 2.8 1 5.3 2.7 7.2l-42 43.3c-1.9-1.5-4.3-2.4-7-2.4h-.3l-9.9-77c2.7-.6 5.1-2.2 6.6-4.4zm-8.9 4.8l9.9 77c-3.9.9-6.9 3.8-8.2 7.5l-81.4-34.8c0-.4.1-.8.1-1.3 0-3.1-1.3-5.9-3.3-7.9l76.3-42.4c1.9 1.2 4 1.9 6.3 1.9h.3z"/><path class="st1" d="M-27.2 917.4h-227.3c-2.5 0-4.5-2-4.5-4.5V581.4c0-2.5 2-4.5 4.5-4.5h227.3c2.5 0 4.5 2 4.5 4.5v331.5c0 2.5-2.1 4.5-4.5 4.5z"/><path class="st2" d="M-35.7 773.4c-5.7-2-9.6-7.4-9.5-13.4 0-2.1.6-4 1.4-5.8 10.1-16.9 15.8-36.6 15.8-57.7 0-21.8-6.2-42.1-16.8-59.3l9.3-6.5-.1-.1c2.1-2 3.6-4.6 4.1-7.6 1.4-7.5-3.7-14.8-11.2-16.1-3-.5-6-.1-8.5 1.2l-.1-.1-10.9 7.6c-20.3-19.7-48-31.9-78.6-31.9-2.8 0-5.6.1-8.3.3l.4-.3h-68.7l-30.4 25.5-2.8 19.6c-.6 4.1 1 8.3 4.1 11.1l5.4 4.7c-8.1 15.6-12.7 33.2-12.7 52 0 21.1 5.8 40.8 15.8 57.7.9 1.8 1.4 3.9 1.4 6.1 0 7.7-6.2 13.9-13.9 13.9-.6 0-1.3-.1-1.9-.1v94.3c0 1.2.4 2.3 1.3 3.1l33.7 35.1c1.1 1.2 2.7 1.8 4.3 1.8h58.5c1.4-6.2 6.9-10.9 13.5-10.9s12.2 4.7 13.5 10.9h59.3c1.6 0 3.2-.7 4.3-1.8l33.7-35.1c.8-.8 1.3-2 1.3-3.1v-94.4c-1.9.2-4.3.1-6.7-.7z"/><circle class="st3" cx="-248.9" cy="761.1" r="3.3"/><circle class="st3" cx="-32.8" cy="761.1" r="3.3"/><circle class="st3" cx="-36.5" cy="903.6" r="3.3"/><circle class="st3" cx="-245.2" cy="903.6" r="3.3"/><circle class="st3" cx="-36.5" cy="590.4" r="3.3"/><circle class="st3" cx="-245.2" cy="590.4" r="3.3"/><circle class="st3" cx="-140.9" cy="907.3" r="3.3"/><circle class="st4" cx="-140.9" cy="696.5" r="109.4"/><path class="st5" d="M-140.9 696.5l93.1-57.6c-4.4-7-9.6-13.7-15.7-19.8-42.7-42.7-112-42.7-154.8 0-42.8 42.7-42.7 112 0 154.8 42.7 42.7 112 42.7 154.8 0 6.1-6.1 11.3-12.7 15.6-19.7l-93-57.7z"/><path class="st4" d="M37.3 686c-5.1 0-9.4 3.4-10.7 8-20.3-4.1-39.6-14-55.3-29.8-7.7-7.7-14.1-16.3-19-25.5l-.1.1v.1s0-.1-.1-.1l-93 57.6 93 57.7c0-.1.1-.1.1-.2.1-.1.2-.3.2-.4.8-1.3 1.5-2.5 2.2-3.8 4.5-7.4 10-14.4 16.3-20.9C-13.3 713 6 703.2 26.3 699c.9 5.2 5.5 9.2 11 9.2 6.2 0 11.1-5 11.1-11.1S43.5 686 37.3 686z"/><path class="st6" d="M-59.3 690v25.3L-80.6 703c-6.3-3.7-5.9-6-5.9-11l21.9 12.7v-11.6l5.3-3.1z"/><path class="st7" d="M-64.6 704.7L-86.5 692l21.3-12.3c6.3-3.6 8.1-2.1 12.5.4l-21.9 12.7 10 5.8v6.1z"/><path class="st8" d="M-74.6 692.8l21.9-12.7v24.6c0 7.3-2.2 8.1-6.6 10.6V690l-10.1 5.8-5.2-3z"/><circle class="st9" cx="-140.9" cy="696.5" r="31.1"/><circle class="st3" cx="-140.9" cy="696.5" r="28.9"/><circle class="st9" cx="-140.9" cy="696.5" r="13.9"/><circle class="st1" cx="-140.9" cy="696.5" r="5.6"/><path class="st10" d="M-187.8 887.5l97.1-141.7c1.1-1.6.9-3.8-.6-5.1-1.4-1.3-3.6-1.4-5.1-.2L-232 846c-1.3 1-1.8 2.6-1.4 4.2l.2.6c5.4 19.4 21.1 34.1 40.8 38.2l.6.1c1.5.4 3.1-.2 4-1.6zm74.3-127.9c.7-.7 1.8-.7 2.5-.1l1.8 1.7c.7.7.7 1.8.1 2.5l-1.7 1.8c-.7.7-1.8.7-2.5.1l-1.8-1.7c-.7-.7-.7-1.8-.1-2.5l1.7-1.8zm-12.2 10.8c1.4-1.5 3.8-1.6 5.3-.2l1.1 1c1.5 1.4 1.6 3.8.2 5.3l-7.2 7.7c-1.4 1.5-3.8 1.6-5.3.2l-1.1-1c-1.5-1.4-1.6-3.8-.2-5.3l7.2-7.7zm-19.5 20.8c1.4-1.5 3.8-1.6 5.3-.2l1.1 1c1.5 1.4 1.6 3.8.2 5.3l-7.2 7.7c-1.4 1.5-3.8 1.6-5.3.2l-1.1-1c-1.5-1.4-1.6-3.8-.2-5.3l7.2-7.7zm-47.3 90.2c-15.7-3.8-28.3-15.6-33.1-31.1l28.5-23.9c13.1 1.8 23.6 11.7 26.3 24.6l-21.7 30.4z"/><circle class="st11" cx="-168.6" cy="822.7" r="12.7"/><circle class="st12" cx="-168.6" cy="822.7" r="3.7"/><path class="st9" d="M-162.4 852.1c-19.4 0-35-15.7-35-35v-8.6c0-4.5-3.6-8.1-8.1-8.1h-28.1c-4.5 0-8.1 3.6-8.1 8.1v57c0 13.3 10.8 24.1 24.1 24.1h71.2c4.5 0 8.1-3.6 8.1-8.1v-21.3c0-4.5-3.6-8.1-8.1-8.1h-16z"/><circle class="st3" cx="-148.5" cy="870.2" r="3.3"/><circle class="st3" cx="-219.8" cy="810.1" r="3.3"/></svg>