<svg xmlns="http://www.w3.org/2000/svg" viewBox="0 0 25 25" enable-background="new 0 0 25 25"><style type="text/css">.st0{fill:#FFFFFF;}</style><path class="st0" d="M11.396 14.557l-1.016-3.034 3.13-1.048 1.015 3.034zM11.396 14.557l-1.016-3.034 3.13-1.048 1.015 3.034zM23.3 9.3c-2.4-8.1-5.9-10-14-7.6-8.1 2.4-10 5.9-7.6 14 2.4 8.1 5.9 10 14 7.6 8.1-2.4 10-5.9 7.6-14zm-4.1 5.2l-1.5.5.5 1.6c.2.6-.1 1.3-.8 1.5-.1 0-.3.1-.4.1-.5 0-1-.3-1.1-.8l-.5-1.6-3.2 1.1.5 1.6c.2.6-.1 1.3-.8 1.5-.1 0-.3.1-.4.1-.5 0-1-.3-1.1-.8l-.5-1.6-1.5.5c-.1 0-.3.1-.4.1-.5 0-1-.3-1.1-.8-.2-.6.1-1.3.8-1.5l1.5-.5-1-3-1.5.5c-.1 0-.3.1-.4.1-.5 0-1-.3-1.1-.8-.2-.6.1-1.3.8-1.5l1.3-.8-.5-1.6c-.2-.7.1-1.3.8-1.6.6-.2 1.3.2 1.5.8l.5 1.6 3.2-1.1-.5-1.6c-.3-.6.1-1.3.7-1.5.6-.2 1.3.1 1.5.8l.5 1.6 1.5-.5c.8-.3 1.5.1 1.7.7.2.6-.1 1.3-.8 1.5l-1.5.5 1 3 1.5-.5c.6-.2 1.3.1 1.5.8.3.7-.1 1.4-.7 1.6z"/></svg>