<svg xmlns="http://www.w3.org/2000/svg" viewBox="0 0 24 24" enable-background="new 0 0 24 24"><style type="text/css">.st0{fill:#FFF;}</style><path class="st0" d="M21.7 19.6c-.6-.3-1.2-.7-1.1-1.5 0-.8-.6-1.3-.6-1.3s.5-1.7 0-3.1c-.5-1.4-2.1-3.7-3.3-5.4-1.2-1.7-.2-3.7-1.3-6.2S11.4-.3 9.8.8c-1.6 1.1-1.1 3.8-1 5 .1 1.3 0 2.2-.1 2.5-.1.3-1.2 1.5-1.8 2.5-.7 1-1.2 3.1-1.6 4-.5.9-.1 1.6-.1 1.6s-.3.1-.6.7-.8.8-1.7 1c-.9.2-.9.8-.7 1.5.2.7 0 1-.3 1.9s1 1.1 2.3 1.3c1.3.2 2.7 1 3.9 1.1 1.1.1 1.5-.9 1.5-.9s1.3-.3 2.8-.3c1.4 0 2.8.3 2.8.3s.3.6.7.9c.5.3 1.5.3 2.2-.4.7-.7 2.5-1.6 3.5-2.2.9-.6.7-1.5.1-1.7zM13 3.1c.6 0 1.2.6 1.2 1.4 0 .6-.3 1-.6 1.3-.1 0-.2-.1-.3-.1.2-.1.4-.4.4-.7 0-.4-.3-.8-.6-.8s-.6.4-.6.8c0 .2 0 .3.1.4-.2-.1-.4-.2-.5-.2-.1-.2-.1-.4-.1-.6-.2-.8.3-1.5 1-1.5zm-.1 3c.3.1.7.3.6.5 0 .2-.2.2-.6.5-.4.3-1.4.9-1.7.9-.3 0-.5-.1-.8-.3-.3-.2-.9-.7-.8-1 0 0 .5-.4.7-.5.2-.2.7-.6 1.1-.6.3 0 1.2.4 1.5.5zM10 3.4c.5 0 .9.6.9 1.3v.4c-.1 0-.2.1-.4.2-.1.1-.1.1-.2.1.1-.1.1-.4.1-.6-.1-.4-.3-.7-.6-.7-.3.1-.4.5-.3.9.1.4.3.7.6.7-.1.1-.2.2-.4.3-.3-.2-.6-.7-.6-1.3 0-.7.4-1.3.9-1.3zM9 22.2c-.1.5-.7.9-.7.9-.6.2-2.1-.5-2.9-.8-.7-.3-2.5-.4-2.8-.7-.2-.3.1-.9.2-1.4.1-.6-.2-.9-.1-1.3s1.3-.4 1.7-.7c.5-.2.6-1 1-1.2.4-.2 1 .5 1.3 1 .3.4 1.3 2.2 1.7 2.7.3.4.7 1 .6 1.5zm6.6-5.2c-.1.5-.1 2.4-.1 2.4s-1.2 1.6-2.9 1.9c-1.8.3-2.7.1-2.7.1l-1-1.2s.8-.1.7-.9c-.1-.8-2.4-1.9-2.8-2.8-.4-1-.1-2.6.4-3.4.5-.8.9-2.6 1.4-3.2.5-.7.9-1.9.7-2.5 0 0 1.1 1.3 1.9 1.1.8-.2 2.6-1.5 2.8-1.3.3.2 2.5 5.1 2.7 6.7.2 1.6-.1 2.8-.1 2.8s-.9-.2-1 .3zm5.7 3.5c-.3.3-2.3 1.1-2.9 1.7-.6.6-1.3 1.1-1.8 1-.5-.1-.9-.8-.7-1.7.2-.9.4-1.9.3-2.5 0-.6-.1-1.4 0-1.5.1-.1.4-.1.4-.1s-.1 1.1.6 1.4c.7.3 1.6-.1 1.9-.4.3-.3.5-.7.5-.7s.3.1.3.6.2 1.1.6 1.4c.5.2 1.2.5.8.8z"/></svg>