<?xml version="1.0" encoding="utf-8"?>
<!-- Generator: Adobe Illustrator 19.1.0, SVG Export Plug-In . SVG Version: 6.00 Build 0)  -->
<svg version="1.1" id="Layer_1" xmlns="http://www.w3.org/2000/svg" xmlns:xlink="http://www.w3.org/1999/xlink" x="0px" y="0px"
	 viewBox="0 0 374 126" style="enable-background:new 0 0 374 126;" xml:space="preserve">
<style type="text/css">
	.st0{fill:#55ACEE;}
	.st1{fill:#FFFFFF;}
	.st2{fill:#5F99CF;}
	.st3{fill:#FF4500;}
	.st4{fill:url(#SVGID_1_);}
	.st5{opacity:0.12;fill-rule:evenodd;clip-rule:evenodd;}
	.st6{fill:#472A49;}
	.st7{fill:#FFA300;}
	.st8{fill:url(#SVGID_2_);}
	.st9{fill:#70CADB;}
	.st10{fill:#3EB890;}
	.st11{fill:#E01765;}
	.st12{fill:#E8A723;}
	.st13{fill:#1A937D;}
	.st14{fill:#65863A;}
	.st15{fill:#CC2027;}
	.st16{fill:#F00101;}
	.st17{fill:#4799DD;}
	.st18{fill:#8CDB5E;}
</style>
<circle class="st0" cx="280" cy="32" r="30"/>
<path id="light_87_" class="st1" d="M296.5,24.5c-1.1,0.5-2.3,0.8-3.5,1c1.3-0.8,2.2-2,2.7-3.4c-1.2,0.7-2.5,1.2-3.9,1.5
	c-1.1-1.2-2.7-1.9-4.5-1.9c-3.4,0-6.2,2.8-6.2,6.2c0,0.5,0.1,1,0.2,1.4c-5.1-0.3-9.7-2.7-12.7-6.4c-0.5,0.9-0.8,2-0.8,3.1
	c0,2.1,1.1,4,2.7,5.1c-1,0-2-0.3-2.8-0.8c0,0,0,0.1,0,0.1c0,3,2.1,5.5,4.9,6c-0.5,0.1-1.1,0.2-1.6,0.2c-0.4,0-0.8,0-1.2-0.1
	c0.8,2.4,3.1,4.2,5.7,4.3c-2.1,1.7-4.8,2.6-7.6,2.6c-0.5,0-1,0-1.5-0.1c2.7,1.7,6,2.8,9.4,2.8c11.3,0,17.5-9.4,17.5-17.5
	c0-0.3,0-0.5,0-0.8C294.6,26.8,295.7,25.7,296.5,24.5z"/>
<circle class="st2" cx="218" cy="32" r="30"/>
<path id="head_1_" class="st1" d="M234.3,31.8c0-2-1.7-3.7-3.7-3.7c-0.8,0-1.5,0.2-2.1,0.7l-0.4,0.3c-2.4-1.6-5.6-2.5-9.2-2.7l1.9-6
	l5.2,1.2c0,0,0,0,0,0c0,1.7,1.4,3.1,3.1,3.1c1.7,0,3.1-1.4,3.1-3.1s-1.4-3.1-3.1-3.1c-1.2,0-2.3,0.7-2.8,1.8l-5.7-1.3
	c-0.3-0.1-0.6,0.1-0.7,0.4l-2.2,6.9c-3.7,0.1-7.1,1.1-9.6,2.7l-0.4-0.3c-0.6-0.4-1.4-0.7-2.1-0.7c-2,0-3.7,1.7-3.7,3.7
	c0,1.1,0.5,2.2,1.4,2.9l0.4,0.4c0,0.3-0.1,0.7-0.1,1c0,5.4,6.5,9.7,14.5,9.7c8,0,14.5-4.4,14.5-9.7c0-0.3,0-0.7-0.1-1l0.4-0.4
	C233.8,33.9,234.3,32.9,234.3,31.8z M223.2,40.6c-1.1,1.1-2.8,1.6-5.2,1.6c-2.4,0-4.1-0.5-5.2-1.6c-0.2-0.2-0.2-0.6,0-0.9
	c0.1-0.1,0.3-0.2,0.4-0.2c0.2,0,0.3,0.1,0.4,0.2c0.8,0.8,2.3,1.3,4.4,1.3c2.1,0,3.5-0.4,4.4-1.3c0.1-0.1,0.3-0.2,0.4-0.2
	c0.2,0,0.3,0.1,0.4,0.2C223.5,40,223.5,40.4,223.2,40.6z"/>
<circle id="eye_51_" class="st3" cx="222.9" cy="34.2" r="2.3"/>
<circle id="eye_50_" class="st3" cx="213.1" cy="34.2" r="2.2"/>
<linearGradient id="SVGID_1_" gradientUnits="userSpaceOnUse" x1="156" y1="61.9999" x2="156" y2="1.9999">
	<stop  offset="0" style="stop-color:#BE2126"/>
	<stop  offset="1" style="stop-color:#E32E28"/>
</linearGradient>
<circle class="st4" cx="156" cy="32" r="30"/>
<path id="The_Sharpness_53_" class="st5" d="M152.9,27.5l7.1,4.7l1-0.5L152.9,27.5z"/>
<path class="st1" d="M170.7,26c0,0-0.3-2.1-1.2-3c-1.1-1.2-2.4-1.2-3-1.3c-4.2-0.3-10.5-0.3-10.5-0.3h0c0,0-6.3,0-10.5,0.3
	c-0.6,0.1-1.9,0.1-3,1.3c-0.9,0.9-1.2,3-1.2,3s-0.3,2.4-0.3,4.9v2.3c0,2.4,0.3,4.9,0.3,4.9s0.3,2.1,1.2,3c1.1,1.2,2.6,1.2,3.3,1.3
	c2.4,0.2,10.2,0.3,10.2,0.3s6.3,0,10.5-0.3c0.6-0.1,1.9-0.1,3-1.3c0.9-0.9,1.2-3,1.2-3s0.3-2.4,0.3-4.9v-2.3
	C171,28.4,170.7,26,170.7,26z M152.9,35.9l0-8.4l8.1,4.2L152.9,35.9z"/>
<circle class="st6" cx="94" cy="32" r="30"/>
<rect x="92" y="29.9" transform="matrix(-0.3176 -0.9482 0.9482 -0.3176 93.5114 131.2962)" class="st1" width="4.1" height="4.2"/>
<rect x="92" y="29.9" transform="matrix(-0.3176 -0.9482 0.9482 -0.3176 93.5115 131.2962)" class="st1" width="4.1" height="4.2"/>
<path class="st1" d="M107.7,27.9c-3.1-10.3-7.6-12.7-17.9-9.6s-12.7,7.6-9.6,17.9c3.1,10.3,7.6,12.7,17.9,9.6
	C108.4,42.7,110.8,38.2,107.7,27.9z M102.5,34.6l-1.9,0.7l0.7,2c0.3,0.8-0.2,1.7-1,2c-0.2,0.1-0.4,0.1-0.5,0.1
	c-0.6,0-1.2-0.4-1.4-1.1l-0.7-2l-4,1.3l0.7,2c0.3,0.8-0.2,1.7-1,2c-0.2,0.1-0.4,0.1-0.5,0.1c-0.6,0-1.2-0.4-1.4-1.1l-0.7-2l-1.9,0.7
	c-0.2,0.1-0.4,0.1-0.5,0.1c-0.6,0-1.2-0.4-1.4-1.1c-0.3-0.8,0.2-1.7,1-2l1.9-0.7l-1.3-3.9l-1.9,0.7c-0.2,0.1-0.4,0.1-0.5,0.1
	c-0.6,0-1.2-0.4-1.4-1.1c-0.3-0.8,0.2-1.7,1-2l1.9-0.7l-0.7-2c-0.3-0.8,0.2-1.7,1-2c0.8-0.3,1.7,0.2,2,1l0.7,2l4-1.3l-0.7-2
	c-0.3-0.8,0.2-1.7,1-2c0.8-0.3,1.7,0.2,2,1l0.7,2l1.9-0.7c0.8-0.3,1.7,0.2,2,1c0.3,0.8-0.2,1.7-1,2l-1.9,0.7l1.3,3.9l1.9-0.7
	c0.8-0.3,1.7,0.2,2,1C103.8,33.4,103.3,34.3,102.5,34.6z"/>
<circle id="XMLID_11_" class="st7" cx="32" cy="32" r="30"/>
<path class="st1" d="M28.8,38.7c0,1.5,1.2,2.7,2.7,2.7h10.5l4.9,2.2V30.4c0-1.5-1.2-2.7-2.7-2.7H31.6c-1.5,0-2.7,1.2-2.7,2.7V38.7z"
	/>
<path class="st1" d="M27,30.4c0-2.5,2.1-4.6,4.6-4.6h3.6V23c0-1.5-1.2-2.7-2.7-2.7H19.7c-1.5,0-2.7,1.2-2.7,2.7v13.3l4.9-2.2h5V30.4
	z"/>
<linearGradient id="SVGID_2_" gradientUnits="userSpaceOnUse" x1="156.0001" y1="124.0001" x2="156.0001" y2="64">
	<stop  offset="0" style="stop-color:#BE2126"/>
	<stop  offset="1" style="stop-color:#E32E28"/>
</linearGradient>
<path class="st8" d="M156,64c-16.6,0-30,13.4-30,30s13.4,30,30,30s30-13.4,30-30S172.6,64,156,64z M156,121.3
	c-15.1,0-27.3-12.2-27.3-27.3s12.2-27.3,27.3-27.3c15.1,0,27.3,12.2,27.3,27.3S171.1,121.3,156,121.3z"/>
<path id="The_Sharpness_51_" class="st5" d="M152.9,89.5l7.1,4.7l1-0.5L152.9,89.5z"/>
<path class="st1" d="M170.7,88c0,0-0.3-2.1-1.2-3c-1.1-1.2-2.4-1.2-3-1.3c-4.2-0.3-10.5-0.3-10.5-0.3h0c0,0-6.3,0-10.5,0.3
	c-0.6,0.1-1.9,0.1-3,1.3c-0.9,0.9-1.2,3-1.2,3s-0.3,2.4-0.3,4.9v2.3c0,2.4,0.3,4.9,0.3,4.9s0.3,2.1,1.2,3c1.1,1.2,2.6,1.2,3.3,1.3
	c2.4,0.2,10.2,0.3,10.2,0.3s6.3,0,10.5-0.3c0.6-0.1,1.9-0.1,3-1.3c0.9-0.9,1.2-3,1.2-3s0.3-2.4,0.3-4.9v-2.3
	C171,90.4,170.7,88,170.7,88z M152.9,97.9l0-8.4l8.1,4.2L152.9,97.9z"/>
<path class="st2" d="M218,64c-16.6,0-30,13.4-30,30s13.4,30,30,30s30-13.4,30-30S234.6,64,218,64z M218,121.3
	c-15.1,0-27.3-12.2-27.3-27.3s12.2-27.3,27.3-27.3c15.1,0,27.3,12.2,27.3,27.3S233.1,121.3,218,121.3z"/>
<path id="head" class="st1" d="M234.3,93.8c0-2-1.7-3.7-3.7-3.7c-0.8,0-1.5,0.2-2.1,0.7l-0.4,0.3c-2.4-1.6-5.6-2.5-9.2-2.7l1.9-6
	l5.2,1.2c0,0,0,0,0,0c0,1.7,1.4,3.1,3.1,3.1c1.7,0,3.1-1.4,3.1-3.1c0-1.7-1.4-3.1-3.1-3.1c-1.2,0-2.3,0.7-2.8,1.8l-5.7-1.3
	c-0.3-0.1-0.6,0.1-0.7,0.4l-2.2,6.9c-3.7,0.1-7.1,1.1-9.6,2.7l-0.4-0.3c-0.6-0.4-1.4-0.7-2.1-0.7c-2,0-3.7,1.7-3.7,3.7
	c0,1.1,0.5,2.2,1.4,2.9l0.4,0.4c0,0.3-0.1,0.7-0.1,1c0,5.4,6.5,9.7,14.5,9.7c8,0,14.5-4.4,14.5-9.7c0-0.3,0-0.7-0.1-1l0.4-0.4
	C233.8,95.9,234.3,94.9,234.3,93.8z M223.2,102.6c-1.1,1.1-2.8,1.6-5.2,1.6c-2.4,0-4.1-0.5-5.2-1.6c-0.2-0.2-0.2-0.6,0-0.9
	c0.1-0.1,0.3-0.2,0.4-0.2c0.2,0,0.3,0.1,0.4,0.2c0.8,0.8,2.3,1.3,4.4,1.3c2.1,0,3.5-0.4,4.4-1.3c0.1-0.1,0.3-0.2,0.4-0.2
	c0.2,0,0.3,0.1,0.4,0.2C223.5,102,223.5,102.4,223.2,102.6z"/>
<circle id="eye_49_" class="st3" cx="222.9" cy="96.2" r="2.3"/>
<circle id="eye_48_" class="st3" cx="213.1" cy="96.2" r="2.2"/>
<path class="st9" d="M94,64c-15.9,0-28.8,12.3-29.9,27.9c0.9-0.3,1.8-0.6,2.8-0.9C68.4,77.3,79.9,66.7,94,66.7
	c8,0,15.2,3.4,20.2,8.9c0.9-0.3,1.9-0.6,2.8-0.9C111.5,68.2,103.2,64,94,64z"/>
<path class="st10" d="M91,121.2c-13.7-1.5-24.3-13.1-24.3-27.2c0-8,3.4-15.2,8.9-20.2c-0.3-0.9-0.6-1.9-0.9-2.8
	C68.2,76.6,64,84.8,64,94c0,15.9,12.3,28.8,27.9,29.9C91.6,123,91.3,122.1,91,121.2z"/>
<path class="st11" d="M94,124c15.9,0,28.8-12.3,29.9-27.9l-2.8,0.9c-1.5,13.7-13.1,24.3-27.2,24.3c-8,0-15.2-3.4-20.2-8.9l-2.8,0.9
	C76.6,119.8,84.8,124,94,124z"/>
<path class="st12" d="M96.1,64.1l0.9,2.8c13.7,1.5,24.3,13.1,24.3,27.2c0,8-3.4,15.2-8.9,20.2l0.9,2.8c6.5-5.5,10.7-13.7,10.7-22.9
	C124,78.1,111.7,65.2,96.1,64.1z"/>
<path class="st11" d="M94,124c15.9,0,28.8-12.3,29.9-27.9l-2.8,0.9c-1.5,13.7-13.1,24.3-27.2,24.3c-8,0-15.2-3.4-20.2-8.9l-2.8,0.9
	C76.6,119.8,84.8,124,94,124z"/>
<path class="st10" d="M91,121.2c-13.7-1.5-24.3-13.1-24.3-27.2c0-8,3.4-15.2,8.9-20.2c-0.3-0.9-0.6-1.9-0.9-2.8
	C68.2,76.6,64,84.8,64,94c0,15.9,12.3,28.8,27.9,29.9C91.6,123,91.3,122.1,91,121.2z"/>
<path class="st12" d="M96.1,64.1l0.9,2.8c13.7,1.5,24.3,13.1,24.3,27.2c0,8-3.4,15.2-8.9,20.2l0.9,2.8c6.5-5.5,10.7-13.7,10.7-22.9
	C124,78.1,111.7,65.2,96.1,64.1z"/>
<path class="st13" d="M64.1,91.9c0.9-0.3,1.8-0.6,2.8-0.9c0.7-6.8,4-12.8,8.7-17.2c-0.3-1-0.6-1.9-0.9-2.8
	C68.7,76.1,64.7,83.5,64.1,91.9z"/>
<path class="st14" d="M96.1,64.1l0.9,2.8c6.8,0.7,12.8,4,17.2,8.7c1-0.3,1.9-0.6,2.8-0.9C111.9,68.7,104.5,64.7,96.1,64.1z"/>
<path class="st15" d="M123.9,96.1l-2.8,0.9c-0.7,6.8-4,12.8-8.7,17.2l0.9,2.8C119.3,111.9,123.3,104.5,123.9,96.1z"/>
<path class="st6" d="M91.9,123.9c-0.3-0.9-0.6-1.8-0.9-2.8c-6.8-0.7-12.8-4-17.2-8.7l-2.8,0.9C76.1,119.3,83.5,123.3,91.9,123.9z"/>
<path class="st13" d="M64.1,91.9c0.9-0.3,1.8-0.6,2.8-0.9c0.7-6.8,4-12.8,8.7-17.2c-0.3-1-0.6-1.9-0.9-2.8
	C68.7,76.1,64.7,83.5,64.1,91.9z"/>
<path class="st14" d="M96.1,64.1l0.9,2.8c6.8,0.7,12.8,4,17.2,8.7c1-0.3,1.9-0.6,2.8-0.9C111.9,68.7,104.5,64.7,96.1,64.1z"/>
<path class="st15" d="M123.9,96.1l-2.8,0.9c-0.7,6.8-4,12.8-8.7,17.2l0.9,2.8C119.3,111.9,123.3,104.5,123.9,96.1z"/>
<path class="st6" d="M91.9,123.9c-0.3-0.9-0.6-1.8-0.9-2.8c-6.8-0.7-12.8-4-17.2-8.7l-2.8,0.9C76.1,119.3,83.5,123.3,91.9,123.9z"/>
<rect x="92" y="91.9" transform="matrix(-0.3176 -0.9482 0.9482 -0.3176 34.7215 212.9877)" class="st1" width="4.1" height="4.2"/>
<rect x="92" y="91.9" transform="matrix(-0.3176 -0.9482 0.9482 -0.3176 34.7216 212.9877)" class="st1" width="4.1" height="4.2"/>
<path class="st1" d="M107.7,89.9c-3.1-10.3-7.6-12.7-17.9-9.6c-10.3,3.1-12.7,7.6-9.6,17.9c3.1,10.3,7.6,12.7,17.9,9.6
	C108.4,104.7,110.8,100.2,107.7,89.9z M102.5,96.6l-1.9,0.7l0.7,2c0.3,0.8-0.2,1.7-1,2c-0.2,0.1-0.4,0.1-0.5,0.1
	c-0.6,0-1.2-0.4-1.4-1.1l-0.7-2l-4,1.3l0.7,2c0.3,0.8-0.2,1.7-1,2c-0.2,0.1-0.4,0.1-0.5,0.1c-0.6,0-1.2-0.4-1.4-1.1l-0.7-2l-1.9,0.7
	c-0.2,0.1-0.4,0.1-0.5,0.1c-0.6,0-1.2-0.4-1.4-1.1c-0.3-0.8,0.2-1.7,1-2l1.9-0.7l-1.3-3.9l-1.9,0.7c-0.2,0.1-0.4,0.1-0.5,0.1
	c-0.6,0-1.2-0.4-1.4-1.1c-0.3-0.8,0.2-1.7,1-2l1.9-0.7l-0.7-2c-0.3-0.8,0.2-1.7,1-2c0.8-0.3,1.7,0.2,2,1l0.7,2l4-1.3l-0.7-2
	c-0.3-0.8,0.2-1.7,1-2c0.8-0.3,1.7,0.2,2,1l0.7,2l1.9-0.7c0.8-0.3,1.7,0.2,2,1c0.3,0.8-0.2,1.7-1,2l-1.9,0.7l1.3,3.9l1.9-0.7
	c0.8-0.3,1.7,0.2,2,1C103.8,95.4,103.3,96.3,102.5,96.6z"/>
<path class="st0" d="M280,64c-16.6,0-30,13.4-30,30s13.4,30,30,30c16.6,0,30-13.4,30-30S296.6,64,280,64z M280,121.3
	c-15.1,0-27.3-12.2-27.3-27.3s12.2-27.3,27.3-27.3c15.1,0,27.3,12.2,27.3,27.3S295.1,121.3,280,121.3z"/>
<path id="light_84_" class="st1" d="M296.5,86.5c-1.1,0.5-2.3,0.8-3.5,1c1.3-0.8,2.2-2,2.7-3.4c-1.2,0.7-2.5,1.2-3.9,1.5
	c-1.1-1.2-2.7-1.9-4.5-1.9c-3.4,0-6.2,2.8-6.2,6.2c0,0.5,0.1,1,0.2,1.4c-5.1-0.3-9.7-2.7-12.7-6.4c-0.5,0.9-0.8,2-0.8,3.1
	c0,2.1,1.1,4,2.7,5.1c-1,0-2-0.3-2.8-0.8c0,0,0,0.1,0,0.1c0,3,2.1,5.5,4.9,6c-0.5,0.1-1.1,0.2-1.6,0.2c-0.4,0-0.8,0-1.2-0.1
	c0.8,2.4,3.1,4.2,5.7,4.3c-2.1,1.7-4.8,2.6-7.6,2.6c-0.5,0-1,0-1.5-0.1c2.7,1.7,6,2.8,9.4,2.8c11.3,0,17.5-9.4,17.5-17.5
	c0-0.3,0-0.5,0-0.8C294.6,88.8,295.7,87.7,296.5,86.5z"/>
<path class="st16" d="M342,64c-16.6,0-30,13.4-30,30s13.4,30,30,30s30-13.4,30-30S358.6,64,342,64z M342,121.3
	c-15.1,0-27.3-12.2-27.3-27.3s12.2-27.3,27.3-27.3c15.1,0,27.3,12.2,27.3,27.3S357.1,121.3,342,121.3z"/>
<path class="st17" d="M32,66.7c5,0,9.6,1.3,13.7,3.7L47,68c-4.4-2.6-9.5-4-15-4C15.4,64,2,77.4,2,94h2.7C4.7,78.9,16.9,66.7,32,66.7
	z"/>
<path class="st7" d="M62,94c0-11.1-6-20.8-15-26l-1.3,2.3c8.2,4.7,13.7,13.5,13.7,23.7c0,10.1-5.5,18.9-13.7,23.7L47,120
	C56,114.8,62,105.1,62,94z"/>
<path class="st18" d="M32,124c5.5,0,10.6-1.5,15-4l-1.3-2.3c-4,2.3-8.7,3.7-13.7,3.7c-15.1,0-27.3-12.2-27.3-27.3H2l0,0
	C2,110.6,15.4,124,32,124z"/>
<path class="st1" d="M44.3,89.7H31.6c-1.5,0-2.7,1.2-2.7,2.7v8.3c0,1.5,1.2,2.7,2.7,2.7h10.5l4.9,2.2V92.4
	C47,90.9,45.8,89.7,44.3,89.7z"/>
<path class="st1" d="M35.2,87.8V85c0-1.5-1.2-2.7-2.7-2.7H19.7c-1.5,0-2.7,1.2-2.7,2.7v13.3l4.9-2.2h5v-3.6c0-2.5,2.1-4.6,4.6-4.6
	H35.2z"/>
<circle class="st16" cx="342" cy="32" r="30"/>
<path class="st1" d="M357.6,22.7c-0.2-0.5-0.7-0.9-1.2-1.1l-0.4-0.1H342h-14.1l-0.4,0.1c-0.4,0.2-0.9,0.6-1.1,1.1l-0.2,0.3v9v9
	l0.2,0.3c0.2,0.4,0.7,0.9,1.1,1.1c0.3,0.1,0.5,0.1,14.4,0.1l14.1,0l0.4-0.1c0.4-0.2,0.9-0.6,1.2-1.1l0.1-0.3v-9v-9L357.6,22.7z
	 M357.4,33.4v6.3H342h-15.4v-6.3v-6.3H342h15.4V33.4z"/>
<g>
	<path class="st1" d="M335.5,34.9c0-0.1,0-0.2-0.1-0.4c-0.1-0.2-0.2-0.6-0.2-0.9c-0.3-1.4-0.4-1.9-0.7-2.9c-0.1-0.5-0.2-0.5-0.9-0.6
		c-0.6,0-0.6,0-0.7,0.1c-0.3,0.4-0.7,1.9-0.8,2.8l-0.1,0.6l-0.6-1.1c-0.3-0.6-0.6-1.2-0.7-1.3c-0.1-0.2-0.7-0.2-1.1-0.1l-0.3,0.1
		l0,1.1c0,1.1,0,1.5,0.1,2.8c0.1,0.8,0.2,0.9,0.5,0.9c0.3,0,1-0.2,1-0.4c0,0,0-0.4-0.1-0.7c0-0.4-0.1-0.6-0.1-0.7
		c0,0,0.2,0.3,0.4,0.7c0.2,0.4,0.5,0.8,0.6,0.9l0.1,0.2l0.6-0.1l0.6-0.1l0.1-0.3c0-0.2,0.1-0.9,0.1-1.6c0-0.7,0.1-1.3,0.1-1.3
		c0,0,0.2,0.4,0.3,1c0.1,0.5,0.4,1.5,0.6,2c0.1,0.2,0.2,0.4,0.2,0.5c0,0.1,0,0.2,0,0.2c0,0.1,0.1,0.1,0.1,0.1c0.2,0,0.9-0.2,0.9-0.2
		c0,0,0.1-0.1,0.1,0c0.1,0.1,0-0.1-0.1-0.6C335.6,35.3,335.5,35,335.5,34.9z"/>
	<path class="st1" d="M338.5,35.6c-0.1,0.1-0.3,0.1-0.5,0.1c-0.3,0-0.3,0-0.5-0.1c-0.3-0.3-0.5-0.6-0.5-1.2c0-0.3,0-0.5,0-0.5
		c0,0,0.2,0,0.3,0c0.5,0.1,1.4,0.1,1.5,0c0.2-0.3,0.1-2.5-0.1-2.9c-0.1-0.2-0.2-0.2-0.5-0.3c-0.8-0.2-0.8-0.2-1.2,0.1
		c-0.6,0.4-1,0.8-1.1,1.4c-0.2,0.6-0.2,1-0.2,2c0,1.1,0.1,1.3,0.6,1.6c0.4,0.3,0.6,0.4,0.9,0.5c0.5,0.1,1.5,0,2.1-0.2l0.3-0.1
		l-0.1-0.2C339.4,35.6,338.8,35.5,338.5,35.6z M337.2,32.9c0.1-0.3,0.3-0.9,0.4-0.9c0,0,0.1,0.3,0.1,0.7c0,0.7,0,0.7-0.4,0.6
		C337.2,33.1,337.2,33.1,337.2,32.9z"/>
	<path class="st1" d="M346.1,33.1c-0.3-0.3-0.5-0.4-0.6-0.4c-0.1,0-0.2,0-0.2,0.2c0,0.1,0,0.2-0.1,0.2c-0.1,0-0.1,0-0.1-0.2
		c0.1-0.2,0.1-0.1,0-2.4c0-1-0.1-1.8-0.1-1.8c-0.1-0.1-0.7-0.4-0.9-0.4c-0.2,0-0.3,0-0.3,0.2c-0.2,0.4-0.1,1.8,0.1,3.8
		c0,0.3,0.1,0.6,0.1,0.7l0,0.3l-0.4,0c-0.5-0.1-0.7,0.1-0.7,0.3c0,0.3,0.1,0.3,0.7,0.4c0.3,0,0.5,0.1,0.5,0.1c0,0,0.1,0.6,0.1,1.3
		l0.1,1.2l0.3,0c0.6,0,0.6,0,0.5-1.3l0-1.2l0.3,0c0.9-0.1,1.2-0.2,1.2-0.3C346.6,33.6,346.4,33.3,346.1,33.1z"/>
	<path class="st1" d="M343,35.4c-0.3-0.2-0.4-0.2-0.5,0c-0.2,0.3-0.9,0.4-1.3,0.2c-0.3-0.1-0.6-0.7-0.6-1c0-0.4,0-0.4,0.6-0.3
		c0.4,0.1,0.5,0.1,0.8,0l0.4-0.1l0-0.9c0-0.5,0-0.9,0.1-0.9c0,0,0.1-0.4,0.1-0.8c0-0.7,0-0.7-0.1-0.9c-0.1-0.1-0.2-0.1-0.2-0.1
		c0,0-0.2-0.1-0.4-0.1c-0.2-0.1-0.4-0.1-0.5-0.1c-0.2,0-0.3,0.1-0.6,0.4c-0.7,0.7-0.8,1-1.2,2.4c-0.1,0.5-0.1,0.7-0.1,1.1
		c0,0.5,0.1,0.6,0.3,1c0.4,0.6,0.7,0.8,1.7,0.9c0.6,0.1,1,0,1.6-0.3C343.3,35.8,343.3,35.6,343,35.4z M341.2,32
		c0.1-0.2,0.1-0.2,0.1,0.5c0,0.4,0,0.8,0,0.9c0,0.1-0.1,0.1-0.2,0.1c-0.2,0-0.3-0.1-0.3-0.2C340.8,33.3,341.1,32.3,341.2,32z"/>
	<path class="st1" d="M349.9,32.5c-0.8-0.4-0.8-0.3-0.8,0.8c0,0.4,0,0.9-0.1,1.1c-0.1,0.3-0.6,1.2-0.8,1.2c-0.1,0-0.1-0.2-0.2-1.6
		c-0.1-1.3,0-1.3-0.6-1.6c-0.3-0.1-0.7-0.2-0.7-0.1c-0.1,0.1-0.1,0.5,0,1.2c0.1,1.4,0.4,2.3,0.7,2.6c0.2,0.1,0.9,0.1,1.3,0
		c0.2-0.1,0.9-0.7,0.9-0.8c0,0,0,0-0.1,0c-0.1,0.1-0.1,0.1,0,0c0-0.1,0.1-0.1,0.1-0.1c0,0,0.2-0.1,0.2-0.3c0.1-0.2,0.2-0.3,0.3-0.4
		c0.2-0.2,0.3-0.4,0.4-1.1C350.5,32.7,350.5,32.7,349.9,32.5z"/>
	<path class="st1" d="M354.7,32.2c-0.1-0.5-0.3-1.1-0.5-1.2c-0.1,0-0.2-0.1-0.3-0.1c-0.5-0.2-0.8-0.3-1-0.3c-0.4,0-1.3,0.7-1.6,1.3
		c-0.3,0.5-0.6,1.6-0.6,2.3c0,0.5-0.1,0.8-0.2,0.8c-0.3,0-0.3,0.3-0.1,0.6c0.2,0.2,0.2,0.2,0.2,0.8c0.1,1.1,0.3,2.3,0.4,2.4
		c0.1,0.1,1,0,1.1,0c0,0,0-0.2-0.1-0.3c-0.1-0.4-0.2-1.1-0.2-1.9l0-0.6l0.3-0.1c0.7-0.2,2-1.4,2.3-2.1
		C354.6,33.3,354.7,32.7,354.7,32.2z M353.1,33.6c-0.1,0.2-0.4,0.5-0.7,0.8c-0.3,0.3-0.5,0.5-0.5,0.5c-0.1,0,0-0.1,0.1-0.9
		c0.2-0.9,0.5-1.5,0.9-2c0.3-0.3,0.3-0.3,0.4,0.3C353.4,32.5,353.3,33.2,353.1,33.6z"/>
</g>
<path class="st1" d="M357.6,84.7c-0.2-0.5-0.7-0.9-1.2-1.1l-0.4-0.1H342h-14.1l-0.4,0.1c-0.4,0.2-0.9,0.6-1.1,1.1l-0.2,0.3v9v9
	l0.2,0.3c0.2,0.4,0.7,0.9,1.1,1.1c0.3,0.1,0.5,0.1,14.4,0.1l14.1,0l0.4-0.1c0.4-0.2,0.9-0.6,1.2-1.1l0.1-0.3v-9v-9L357.6,84.7z
	 M357.4,95.4v6.3H342h-15.4v-6.3v-6.3H342h15.4V95.4z"/>
<g>
	<path class="st1" d="M335.5,96.9c0-0.1,0-0.2-0.1-0.4c-0.1-0.2-0.2-0.6-0.2-0.9c-0.3-1.4-0.4-1.9-0.7-2.9c-0.1-0.5-0.2-0.5-0.9-0.6
		c-0.6,0-0.6,0-0.7,0.1c-0.3,0.4-0.7,1.9-0.8,2.8l-0.1,0.6l-0.6-1.1c-0.3-0.6-0.6-1.2-0.7-1.3c-0.1-0.2-0.7-0.2-1.1-0.1l-0.3,0.1
		l0,1.1c0,1.1,0,1.5,0.1,2.8c0.1,0.8,0.2,0.9,0.5,0.9c0.3,0,1-0.2,1-0.4c0,0,0-0.4-0.1-0.7c0-0.4-0.1-0.6-0.1-0.7
		c0,0,0.2,0.3,0.4,0.7c0.2,0.4,0.5,0.8,0.6,0.9l0.1,0.2l0.6-0.1l0.6-0.1l0.1-0.3c0-0.2,0.1-0.9,0.1-1.6c0-0.7,0.1-1.3,0.1-1.3
		c0,0,0.2,0.4,0.3,1c0.1,0.5,0.4,1.5,0.6,2c0.1,0.2,0.2,0.4,0.2,0.5c0,0.1,0,0.2,0,0.2c0,0.1,0.1,0.1,0.1,0.1c0.2,0,0.9-0.2,0.9-0.2
		c0,0,0.1-0.1,0.1,0c0.1,0.1,0-0.1-0.1-0.6C335.6,97.3,335.5,97,335.5,96.9z"/>
	<path class="st1" d="M338.5,97.6c-0.1,0.1-0.3,0.1-0.5,0.1c-0.3,0-0.3,0-0.5-0.1c-0.3-0.3-0.5-0.6-0.5-1.2c0-0.3,0-0.5,0-0.5
		c0,0,0.2,0,0.3,0c0.5,0.1,1.4,0.1,1.5,0c0.2-0.3,0.1-2.5-0.1-2.9c-0.1-0.2-0.2-0.2-0.5-0.3c-0.8-0.2-0.8-0.2-1.2,0.1
		c-0.6,0.4-1,0.8-1.1,1.4c-0.2,0.6-0.2,1-0.2,2c0,1.1,0.1,1.3,0.6,1.6c0.4,0.3,0.6,0.4,0.9,0.5c0.5,0.1,1.5,0,2.1-0.2l0.3-0.1
		l-0.1-0.2C339.4,97.6,338.8,97.5,338.5,97.6z M337.2,94.9c0.1-0.3,0.3-0.9,0.4-0.9c0,0,0.1,0.3,0.1,0.7c0,0.7,0,0.7-0.4,0.6
		C337.2,95.1,337.2,95.1,337.2,94.9z"/>
	<path class="st1" d="M346.1,95.1c-0.3-0.3-0.5-0.4-0.6-0.4c-0.1,0-0.2,0-0.2,0.2c0,0.1,0,0.2-0.1,0.2c-0.1,0-0.1,0-0.1-0.2
		c0.1-0.2,0.1-0.1,0-2.4c0-1-0.1-1.8-0.1-1.8c-0.1-0.1-0.7-0.4-0.9-0.4c-0.2,0-0.3,0-0.3,0.2c-0.2,0.4-0.1,1.8,0.1,3.8
		c0,0.3,0.1,0.6,0.1,0.7l0,0.3l-0.4,0c-0.5-0.1-0.7,0.1-0.7,0.3c0,0.3,0.1,0.3,0.7,0.4c0.3,0,0.5,0.1,0.5,0.1c0,0,0.1,0.6,0.1,1.3
		l0.1,1.2l0.3,0c0.6,0,0.6,0,0.5-1.3l0-1.2l0.3,0c0.9-0.1,1.2-0.2,1.2-0.3C346.6,95.6,346.4,95.3,346.1,95.1z"/>
	<path class="st1" d="M343,97.4c-0.3-0.2-0.4-0.2-0.5,0c-0.2,0.3-0.9,0.4-1.3,0.2c-0.3-0.1-0.6-0.7-0.6-1c0-0.4,0-0.4,0.6-0.3
		c0.4,0.1,0.5,0.1,0.8,0l0.4-0.1l0-0.9c0-0.5,0-0.9,0.1-0.9c0,0,0.1-0.4,0.1-0.8c0-0.7,0-0.7-0.1-0.9c-0.1-0.1-0.2-0.1-0.2-0.1
		c0,0-0.2-0.1-0.4-0.1c-0.2-0.1-0.4-0.1-0.5-0.1c-0.2,0-0.3,0.1-0.6,0.4c-0.7,0.7-0.8,1-1.2,2.4c-0.1,0.5-0.1,0.7-0.1,1.1
		c0,0.5,0.1,0.6,0.3,1c0.4,0.6,0.7,0.8,1.7,0.9c0.6,0.1,1,0,1.6-0.3C343.3,97.8,343.3,97.6,343,97.4z M341.2,94
		c0.1-0.2,0.1-0.2,0.1,0.5c0,0.4,0,0.8,0,0.9c0,0.1-0.1,0.1-0.2,0.1c-0.2,0-0.3-0.1-0.3-0.2C340.8,95.3,341.1,94.3,341.2,94z"/>
	<path class="st1" d="M349.9,94.5c-0.8-0.4-0.8-0.3-0.8,0.8c0,0.4,0,0.9-0.1,1.1c-0.1,0.3-0.6,1.2-0.8,1.2c-0.1,0-0.1-0.2-0.2-1.6
		c-0.1-1.3,0-1.3-0.6-1.6c-0.3-0.1-0.7-0.2-0.7-0.1c-0.1,0.1-0.1,0.5,0,1.2c0.1,1.4,0.4,2.3,0.7,2.6c0.2,0.1,0.9,0.1,1.3,0
		c0.2-0.1,0.9-0.7,0.9-0.8c0,0,0,0-0.1,0c-0.1,0.1-0.1,0.1,0,0c0-0.1,0.1-0.1,0.1-0.1c0,0,0.2-0.1,0.2-0.3c0.1-0.2,0.2-0.3,0.3-0.4
		c0.2-0.2,0.3-0.4,0.4-1.1C350.5,94.7,350.5,94.7,349.9,94.5z"/>
	<path class="st1" d="M354.7,94.2c-0.1-0.5-0.3-1.1-0.5-1.2c-0.1,0-0.2-0.1-0.3-0.1c-0.5-0.2-0.8-0.3-1-0.3c-0.4,0-1.3,0.7-1.6,1.3
		c-0.3,0.5-0.6,1.6-0.6,2.3c0,0.5-0.1,0.8-0.2,0.8c-0.3,0-0.3,0.3-0.1,0.6c0.2,0.2,0.2,0.2,0.2,0.8c0.1,1.1,0.3,2.3,0.4,2.4
		c0.1,0.1,1,0,1.1,0c0,0,0-0.2-0.1-0.3c-0.1-0.4-0.2-1.1-0.2-1.9l0-0.6l0.3-0.1c0.7-0.2,2-1.4,2.3-2.1
		C354.6,95.3,354.7,94.7,354.7,94.2z M353.1,95.6c-0.1,0.2-0.4,0.5-0.7,0.8c-0.3,0.3-0.5,0.5-0.5,0.5c-0.1,0,0-0.1,0.1-0.9
		c0.2-0.9,0.5-1.5,0.9-2c0.3-0.3,0.3-0.3,0.4,0.3C353.4,94.5,353.3,95.2,353.1,95.6z"/>
</g>
</svg>
